<?xml version="1.0" encoding="UTF-8" standalone="no"?>
<!DOCTYPE svg PUBLIC "-//W3C//DTD SVG 1.1//EN"
 "http://www.w3.org/Graphics/SVG/1.1/DTD/svg11.dtd">
<!-- Generated by graphviz version 2.43.0 (0)
 -->
<!-- Title: sylar/address.h Pages: 1 -->
<svg width="750pt" height="84pt"
 viewBox="0.00 0.00 750.00 84.00" xmlns="http://www.w3.org/2000/svg" xmlns:xlink="http://www.w3.org/1999/xlink">
<g id="graph0" class="graph" transform="scale(1 1) rotate(0) translate(4 80)">
<title>sylar/address.h</title>
<polygon fill="white" stroke="transparent" points="-4,4 -4,-80 746,-80 746,4 -4,4"/>
<!-- Node1 -->
<g id="node1" class="node">
<title>Node1</title>
<g id="a_node1"><a xlink:title="网络地址的封装(IPv4,IPv6,Unix)">
<polygon fill="#bfbfbf" stroke="black" points="346.5,-56.5 346.5,-75.5 437.5,-75.5 437.5,-56.5 346.5,-56.5"/>
<text text-anchor="middle" x="392" y="-63.5" font-family="Helvetica,sans-Serif" font-size="10.00">sylar/address.h</text>
</a>
</g>
</g>
<!-- Node2 -->
<g id="node2" class="node">
<title>Node2</title>
<g id="a_node2"><a xlink:title=" ">
<polygon fill="white" stroke="#bfbfbf" points="0,-0.5 0,-19.5 58,-19.5 58,-0.5 0,-0.5"/>
<text text-anchor="middle" x="29" y="-7.5" font-family="Helvetica,sans-Serif" font-size="10.00">memory</text>
</a>
</g>
</g>
<!-- Node1&#45;&gt;Node2 -->
<g id="edge1" class="edge">
<title>Node1&#45;&gt;Node2</title>
<path fill="none" stroke="midnightblue" d="M346.3,-60.06C285.17,-53.14 173.24,-39.42 68.51,-20.14"/>
<polygon fill="midnightblue" stroke="midnightblue" points="68.87,-16.64 58.4,-18.25 67.59,-23.53 68.87,-16.64"/>
</g>
<!-- Node3 -->
<g id="node3" class="node">
<title>Node3</title>
<g id="a_node3"><a xlink:title=" ">
<polygon fill="white" stroke="#bfbfbf" points="76,-0.5 76,-19.5 120,-19.5 120,-0.5 76,-0.5"/>
<text text-anchor="middle" x="98" y="-7.5" font-family="Helvetica,sans-Serif" font-size="10.00">string</text>
</a>
</g>
</g>
<!-- Node1&#45;&gt;Node3 -->
<g id="edge2" class="edge">
<title>Node1&#45;&gt;Node3</title>
<path fill="none" stroke="midnightblue" d="M346.08,-58.75C295.4,-51.5 211.29,-38.41 130.15,-20.06"/>
<polygon fill="midnightblue" stroke="midnightblue" points="130.8,-16.62 120.27,-17.79 129.24,-23.44 130.8,-16.62"/>
</g>
<!-- Node4 -->
<g id="node4" class="node">
<title>Node4</title>
<g id="a_node4"><a xlink:title=" ">
<polygon fill="white" stroke="#bfbfbf" points="138,-0.5 138,-19.5 210,-19.5 210,-0.5 138,-0.5"/>
<text text-anchor="middle" x="174" y="-7.5" font-family="Helvetica,sans-Serif" font-size="10.00">sys/types.h</text>
</a>
</g>
</g>
<!-- Node1&#45;&gt;Node4 -->
<g id="edge3" class="edge">
<title>Node1&#45;&gt;Node4</title>
<path fill="none" stroke="midnightblue" d="M357.46,-56.44C319.75,-47.1 259.26,-32.12 218.14,-21.93"/>
<polygon fill="midnightblue" stroke="midnightblue" points="218.93,-18.52 208.38,-19.52 217.25,-25.32 218.93,-18.52"/>
</g>
<!-- Node5 -->
<g id="node5" class="node">
<title>Node5</title>
<g id="a_node5"><a xlink:title=" ">
<polygon fill="white" stroke="#bfbfbf" points="228.5,-0.5 228.5,-19.5 305.5,-19.5 305.5,-0.5 228.5,-0.5"/>
<text text-anchor="middle" x="267" y="-7.5" font-family="Helvetica,sans-Serif" font-size="10.00">sys/socket.h</text>
</a>
</g>
</g>
<!-- Node1&#45;&gt;Node5 -->
<g id="edge4" class="edge">
<title>Node1&#45;&gt;Node5</title>
<path fill="none" stroke="midnightblue" d="M372.19,-56.44C351.71,-47.6 319.52,-33.69 296.14,-23.59"/>
<polygon fill="midnightblue" stroke="midnightblue" points="297.28,-20.27 286.71,-19.52 294.51,-26.7 297.28,-20.27"/>
</g>
<!-- Node6 -->
<g id="node6" class="node">
<title>Node6</title>
<g id="a_node6"><a xlink:title=" ">
<polygon fill="white" stroke="#bfbfbf" points="323.5,-0.5 323.5,-19.5 380.5,-19.5 380.5,-0.5 323.5,-0.5"/>
<text text-anchor="middle" x="352" y="-7.5" font-family="Helvetica,sans-Serif" font-size="10.00">sys/un.h</text>
</a>
</g>
</g>
<!-- Node1&#45;&gt;Node6 -->
<g id="edge5" class="edge">
<title>Node1&#45;&gt;Node6</title>
<path fill="none" stroke="midnightblue" d="M385.39,-56.08C379.74,-48.46 371.46,-37.26 364.55,-27.94"/>
<polygon fill="midnightblue" stroke="midnightblue" points="367.25,-25.7 358.48,-19.75 361.62,-29.87 367.25,-25.7"/>
</g>
<!-- Node7 -->
<g id="node7" class="node">
<title>Node7</title>
<g id="a_node7"><a xlink:title=" ">
<polygon fill="white" stroke="#bfbfbf" points="398.5,-0.5 398.5,-19.5 467.5,-19.5 467.5,-0.5 398.5,-0.5"/>
<text text-anchor="middle" x="433" y="-7.5" font-family="Helvetica,sans-Serif" font-size="10.00">arpa/inet.h</text>
</a>
</g>
</g>
<!-- Node1&#45;&gt;Node7 -->
<g id="edge6" class="edge">
<title>Node1&#45;&gt;Node7</title>
<path fill="none" stroke="midnightblue" d="M398.77,-56.08C404.56,-48.46 413.06,-37.26 420.14,-27.94"/>
<polygon fill="midnightblue" stroke="midnightblue" points="423.1,-29.83 426.36,-19.75 417.52,-25.6 423.1,-29.83"/>
</g>
<!-- Node8 -->
<g id="node8" class="node">
<title>Node8</title>
<g id="a_node8"><a xlink:title=" ">
<polygon fill="white" stroke="#bfbfbf" points="486,-0.5 486,-19.5 542,-19.5 542,-0.5 486,-0.5"/>
<text text-anchor="middle" x="514" y="-7.5" font-family="Helvetica,sans-Serif" font-size="10.00">unistd.h</text>
</a>
</g>
</g>
<!-- Node1&#45;&gt;Node8 -->
<g id="edge7" class="edge">
<title>Node1&#45;&gt;Node8</title>
<path fill="none" stroke="midnightblue" d="M411.33,-56.44C431.32,-47.6 462.74,-33.69 485.56,-23.59"/>
<polygon fill="midnightblue" stroke="midnightblue" points="487.03,-26.76 494.76,-19.52 484.2,-20.36 487.03,-26.76"/>
</g>
<!-- Node9 -->
<g id="node9" class="node">
<title>Node9</title>
<g id="a_node9"><a xlink:title=" ">
<polygon fill="white" stroke="#bfbfbf" points="560,-0.5 560,-19.5 620,-19.5 620,-0.5 560,-0.5"/>
<text text-anchor="middle" x="590" y="-7.5" font-family="Helvetica,sans-Serif" font-size="10.00">iostream</text>
</a>
</g>
</g>
<!-- Node1&#45;&gt;Node9 -->
<g id="edge8" class="edge">
<title>Node1&#45;&gt;Node9</title>
<path fill="none" stroke="midnightblue" d="M423.37,-56.44C457.56,-47.12 512.36,-32.17 549.71,-21.99"/>
<polygon fill="midnightblue" stroke="midnightblue" points="551.02,-25.26 559.75,-19.25 549.18,-18.51 551.02,-25.26"/>
</g>
<!-- Node10 -->
<g id="node10" class="node">
<title>Node10</title>
<g id="a_node10"><a xlink:title=" ">
<polygon fill="white" stroke="#bfbfbf" points="638.5,-0.5 638.5,-19.5 685.5,-19.5 685.5,-0.5 638.5,-0.5"/>
<text text-anchor="middle" x="662" y="-7.5" font-family="Helvetica,sans-Serif" font-size="10.00">vector</text>
</a>
</g>
</g>
<!-- Node1&#45;&gt;Node10 -->
<g id="edge9" class="edge">
<title>Node1&#45;&gt;Node10</title>
<path fill="none" stroke="midnightblue" d="M437.66,-57.43C483.39,-49.6 556,-36.51 628.1,-20.06"/>
<polygon fill="midnightblue" stroke="midnightblue" points="629.31,-23.37 638.26,-17.71 627.73,-16.55 629.31,-23.37"/>
</g>
<!-- Node11 -->
<g id="node11" class="node">
<title>Node11</title>
<g id="a_node11"><a xlink:title=" ">
<polygon fill="white" stroke="#bfbfbf" points="704,-0.5 704,-19.5 742,-19.5 742,-0.5 704,-0.5"/>
<text text-anchor="middle" x="723" y="-7.5" font-family="Helvetica,sans-Serif" font-size="10.00">map</text>
</a>
</g>
</g>
<!-- Node1&#45;&gt;Node11 -->
<g id="edge10" class="edge">
<title>Node1&#45;&gt;Node11</title>
<path fill="none" stroke="midnightblue" d="M437.61,-60.58C495.31,-54.47 597.79,-41.9 693.95,-19.91"/>
<polygon fill="midnightblue" stroke="midnightblue" points="694.89,-23.29 703.84,-17.62 693.3,-16.47 694.89,-23.29"/>
</g>
</g>
</svg>
