<?xml version="1.0" encoding="UTF-8" standalone="no"?>
<!DOCTYPE svg PUBLIC "-//W3C//DTD SVG 1.1//EN"
 "http://www.w3.org/Graphics/SVG/1.1/DTD/svg11.dtd">
<!-- Generated by graphviz version 2.43.0 (0)
 -->
<!-- Title: sylar::http::HttpResponse::checkGetHeaderAs Pages: 1 -->
<svg width="314pt" height="52pt"
 viewBox="0.00 0.00 314.00 51.50" xmlns="http://www.w3.org/2000/svg" xmlns:xlink="http://www.w3.org/1999/xlink">
<g id="graph0" class="graph" transform="scale(1 1) rotate(0) translate(4 47.5)">
<title>sylar::http::HttpResponse::checkGetHeaderAs</title>
<polygon fill="white" stroke="transparent" points="-4,4 -4,-47.5 310,-47.5 310,4 -4,4"/>
<!-- Node1 -->
<g id="node1" class="node">
<title>Node1</title>
<g id="a_node1"><a xlink:title="检查并获取响应头部参数">
<polygon fill="#bfbfbf" stroke="black" points="0,-0.5 0,-30.5 140,-30.5 140,-0.5 0,-0.5"/>
<text text-anchor="start" x="8" y="-18.5" font-family="Helvetica,sans-Serif" font-size="10.00">sylar::http::HttpResponse</text>
<text text-anchor="middle" x="70" y="-7.5" font-family="Helvetica,sans-Serif" font-size="10.00">::checkGetHeaderAs</text>
</a>
</g>
</g>
<!-- Node2 -->
<g id="node2" class="node">
<title>Node2</title>
<g id="a_node2"><a xlink:href="http_8h.html#ae706fa797ef4b8066246dccc0a905f46" target="_top" xlink:title="获取Map中的key值,并转成对应类型,返回是否成功">
<polygon fill="white" stroke="black" points="176,-6 176,-25 306,-25 306,-6 176,-6"/>
<text text-anchor="middle" x="241" y="-13" font-family="Helvetica,sans-Serif" font-size="10.00">sylar::http::checkGetAs</text>
</a>
</g>
</g>
<!-- Node1&#45;&gt;Node2 -->
<g id="edge1" class="edge">
<title>Node1&#45;&gt;Node2</title>
<path fill="none" stroke="midnightblue" d="M140.23,-15.5C148.59,-15.5 157.15,-15.5 165.58,-15.5"/>
<polygon fill="midnightblue" stroke="midnightblue" points="165.78,-19 175.78,-15.5 165.78,-12 165.78,-19"/>
</g>
<!-- Node2&#45;&gt;Node2 -->
<g id="edge2" class="edge">
<title>Node2&#45;&gt;Node2</title>
<path fill="none" stroke="midnightblue" d="M214.8,-25.26C202.05,-34.07 210.79,-43.5 241,-43.5 261.3,-43.5 271.9,-39.24 272.81,-33.77"/>
<polygon fill="midnightblue" stroke="midnightblue" points="275.63,-31.68 267.2,-25.26 269.78,-35.53 275.63,-31.68"/>
</g>
</g>
</svg>
