<?xml version="1.0" encoding="UTF-8" standalone="no"?>
<!DOCTYPE svg PUBLIC "-//W3C//DTD SVG 1.1//EN"
 "http://www.w3.org/Graphics/SVG/1.1/DTD/svg11.dtd">
<!-- Generated by graphviz version 2.43.0 (0)
 -->
<!-- Title: sylar::http::HttpRequest::getHeaderAs Pages: 1 -->
<svg width="277pt" height="52pt"
 viewBox="0.00 0.00 277.00 51.50" xmlns="http://www.w3.org/2000/svg" xmlns:xlink="http://www.w3.org/1999/xlink">
<g id="graph0" class="graph" transform="scale(1 1) rotate(0) translate(4 47.5)">
<title>sylar::http::HttpRequest::getHeaderAs</title>
<polygon fill="white" stroke="transparent" points="-4,4 -4,-47.5 273,-47.5 273,4 -4,4"/>
<!-- Node1 -->
<g id="node1" class="node">
<title>Node1</title>
<g id="a_node1"><a xlink:title="获取HTTP请求的头部参数">
<polygon fill="#bfbfbf" stroke="black" points="0,-0.5 0,-30.5 133,-30.5 133,-0.5 0,-0.5"/>
<text text-anchor="start" x="8" y="-18.5" font-family="Helvetica,sans-Serif" font-size="10.00">sylar::http::HttpRequest</text>
<text text-anchor="middle" x="66.5" y="-7.5" font-family="Helvetica,sans-Serif" font-size="10.00">::getHeaderAs</text>
</a>
</g>
</g>
<!-- Node2 -->
<g id="node2" class="node">
<title>Node2</title>
<g id="a_node2"><a xlink:href="http_8h.html#a80a3a1218593d2a5e4613d9900c3b387" target="_top" xlink:title="获取Map中的key值,并转成对应类型">
<polygon fill="white" stroke="black" points="169,-6 169,-25 269,-25 269,-6 169,-6"/>
<text text-anchor="middle" x="219" y="-13" font-family="Helvetica,sans-Serif" font-size="10.00">sylar::http::getAs</text>
</a>
</g>
</g>
<!-- Node1&#45;&gt;Node2 -->
<g id="edge1" class="edge">
<title>Node1&#45;&gt;Node2</title>
<path fill="none" stroke="midnightblue" d="M133.07,-15.5C141.63,-15.5 150.36,-15.5 158.81,-15.5"/>
<polygon fill="midnightblue" stroke="midnightblue" points="158.94,-19 168.94,-15.5 158.94,-12 158.94,-19"/>
</g>
<!-- Node2&#45;&gt;Node2 -->
<g id="edge2" class="edge">
<title>Node2&#45;&gt;Node2</title>
<path fill="none" stroke="midnightblue" d="M195.57,-25.26C184.18,-34.07 191.98,-43.5 219,-43.5 236.73,-43.5 246.19,-39.44 247.37,-34.15"/>
<polygon fill="midnightblue" stroke="midnightblue" points="250.34,-32.3 242.43,-25.26 244.23,-35.7 250.34,-32.3"/>
</g>
</g>
</svg>
