<?xml version="1.0" encoding="UTF-8" standalone="no"?>
<!DOCTYPE svg PUBLIC "-//W3C//DTD SVG 1.1//EN"
 "http://www.w3.org/Graphics/SVG/1.1/DTD/svg11.dtd">
<!-- Generated by graphviz version 2.43.0 (0)
 -->
<!-- Title: sylar::IOManager::addEvent Pages: 1 -->
<svg width="347pt" height="88pt"
 viewBox="0.00 0.00 347.00 88.00" xmlns="http://www.w3.org/2000/svg" xmlns:xlink="http://www.w3.org/1999/xlink">
<g id="graph0" class="graph" transform="scale(1 1) rotate(0) translate(4 84)">
<title>sylar::IOManager::addEvent</title>
<polygon fill="white" stroke="transparent" points="-4,4 -4,-84 343,-84 343,4 -4,4"/>
<!-- Node1 -->
<g id="node1" class="node">
<title>Node1</title>
<g id="a_node1"><a xlink:title="添加事件">
<polygon fill="#bfbfbf" stroke="black" points="0,-30 0,-49 152,-49 152,-30 0,-30"/>
<text text-anchor="middle" x="76" y="-37" font-family="Helvetica,sans-Serif" font-size="10.00">sylar::IOManager::addEvent</text>
</a>
</g>
</g>
<!-- Node2 -->
<g id="node2" class="node">
<title>Node2</title>
<g id="a_node2"><a xlink:href="classsylar_1_1IOManager.html#a887c03f40a7360591ca9b945b7a76714" target="_top" xlink:title="重置socket句柄上下文的容器大小">
<polygon fill="white" stroke="black" points="192,-49.5 192,-79.5 335,-79.5 335,-49.5 192,-49.5"/>
<text text-anchor="start" x="200" y="-67.5" font-family="Helvetica,sans-Serif" font-size="10.00">sylar::IOManager::context</text>
<text text-anchor="middle" x="263.5" y="-56.5" font-family="Helvetica,sans-Serif" font-size="10.00">Resize</text>
</a>
</g>
</g>
<!-- Node1&#45;&gt;Node2 -->
<g id="edge1" class="edge">
<title>Node1&#45;&gt;Node2</title>
<path fill="none" stroke="midnightblue" d="M147.66,-49.02C158.82,-50.53 170.44,-52.09 181.82,-53.63"/>
<polygon fill="midnightblue" stroke="midnightblue" points="181.35,-57.1 191.73,-54.96 182.29,-50.16 181.35,-57.1"/>
</g>
<!-- Node3 -->
<g id="node3" class="node">
<title>Node3</title>
<g id="a_node3"><a xlink:href="structsylar_1_1ReadScopedLockImpl.html#ac628a0e3211dbaa1544a060702eabb00" target="_top" xlink:title="释放锁">
<polygon fill="white" stroke="black" points="188,-0.5 188,-30.5 339,-30.5 339,-0.5 188,-0.5"/>
<text text-anchor="start" x="196" y="-18.5" font-family="Helvetica,sans-Serif" font-size="10.00">sylar::ReadScopedLockImpl</text>
<text text-anchor="middle" x="263.5" y="-7.5" font-family="Helvetica,sans-Serif" font-size="10.00">::unlock</text>
</a>
</g>
</g>
<!-- Node1&#45;&gt;Node3 -->
<g id="edge2" class="edge">
<title>Node1&#45;&gt;Node3</title>
<path fill="none" stroke="midnightblue" d="M150.58,-29.98C159.47,-28.83 168.61,-27.65 177.65,-26.48"/>
<polygon fill="midnightblue" stroke="midnightblue" points="178.32,-29.92 187.79,-25.17 177.43,-22.98 178.32,-29.92"/>
</g>
</g>
</svg>
