<?xml version="1.0" encoding="UTF-8" standalone="no"?>
<!DOCTYPE svg PUBLIC "-//W3C//DTD SVG 1.1//EN"
 "http://www.w3.org/Graphics/SVG/1.1/DTD/svg11.dtd">
<!-- Generated by graphviz version 2.43.0 (0)
 -->
<!-- Title: sylar::TimerManager::listExpiredCb Pages: 1 -->
<svg width="279pt" height="52pt"
 viewBox="0.00 0.00 279.00 51.50" xmlns="http://www.w3.org/2000/svg" xmlns:xlink="http://www.w3.org/1999/xlink">
<g id="graph0" class="graph" transform="scale(1 1) rotate(0) translate(4 47.5)">
<title>sylar::TimerManager::listExpiredCb</title>
<polygon fill="white" stroke="transparent" points="-4,4 -4,-47.5 275,-47.5 275,4 -4,4"/>
<!-- Node1 -->
<g id="node1" class="node">
<title>Node1</title>
<g id="a_node1"><a xlink:title="获取需要执行的定时器的回调函数列表">
<polygon fill="#bfbfbf" stroke="black" points="0,-0.5 0,-30.5 118,-30.5 118,-0.5 0,-0.5"/>
<text text-anchor="start" x="8" y="-18.5" font-family="Helvetica,sans-Serif" font-size="10.00">sylar::TimerManager</text>
<text text-anchor="middle" x="59" y="-7.5" font-family="Helvetica,sans-Serif" font-size="10.00">::listExpiredCb</text>
</a>
</g>
</g>
<!-- Node2 -->
<g id="node2" class="node">
<title>Node2</title>
<g id="a_node2"><a xlink:href="util_8cpp.html#a3a496fbdbd27f04cba087a64add0306c" target="_top" xlink:title="获取当前启动的毫秒数，参考clock_gettime(2)，使用CLOCK_MONOTONIC_RAW">
<polygon fill="white" stroke="black" points="154,-6 154,-25 271,-25 271,-6 154,-6"/>
<text text-anchor="middle" x="212.5" y="-13" font-family="Helvetica,sans-Serif" font-size="10.00">sylar::GetElapsedMS</text>
</a>
</g>
</g>
<!-- Node1&#45;&gt;Node2 -->
<g id="edge1" class="edge">
<title>Node1&#45;&gt;Node2</title>
<path fill="none" stroke="midnightblue" d="M118.14,-15.5C126.45,-15.5 135.05,-15.5 143.52,-15.5"/>
<polygon fill="midnightblue" stroke="midnightblue" points="143.77,-19 153.77,-15.5 143.77,-12 143.77,-19"/>
</g>
<!-- Node2&#45;&gt;Node2 -->
<g id="edge2" class="edge">
<title>Node2&#45;&gt;Node2</title>
<path fill="none" stroke="midnightblue" d="M189.07,-25.26C177.68,-34.07 185.48,-43.5 212.5,-43.5 230.23,-43.5 239.69,-39.44 240.87,-34.15"/>
<polygon fill="midnightblue" stroke="midnightblue" points="243.84,-32.3 235.93,-25.26 237.73,-35.7 243.84,-32.3"/>
</g>
</g>
</svg>
