<?xml version="1.0" encoding="UTF-8" standalone="no"?>
<!DOCTYPE svg PUBLIC "-//W3C//DTD SVG 1.1//EN"
 "http://www.w3.org/Graphics/SVG/1.1/DTD/svg11.dtd">
<!-- Generated by graphviz version 2.43.0 (0)
 -->
<!-- Title: sylar::StdoutLogAppender Pages: 1 -->
<svg width="150pt" height="515pt"
 viewBox="0.00 0.00 150.00 515.00" xmlns="http://www.w3.org/2000/svg" xmlns:xlink="http://www.w3.org/1999/xlink">
<g id="graph0" class="graph" transform="scale(1 1) rotate(0) translate(4 511)">
<title>sylar::StdoutLogAppender</title>
<polygon fill="white" stroke="transparent" points="-4,4 -4,-511 146,-511 146,4 -4,4"/>
<!-- Node1 -->
<g id="node1" class="node">
<title>Node1</title>
<g id="a_node1"><a xlink:title="输出到控制台的Appender">
<polygon fill="#bfbfbf" stroke="black" points="0,-0.5 0,-79.5 142,-79.5 142,-0.5 0,-0.5"/>
<text text-anchor="middle" x="71" y="-67.5" font-family="Helvetica,sans-Serif" font-size="10.00">sylar::StdoutLogAppender</text>
<polyline fill="none" stroke="black" points="0,-60.5 142,-60.5 "/>
<text text-anchor="middle" x="71" y="-48.5" font-family="Helvetica,sans-Serif" font-size="10.00"> </text>
<polyline fill="none" stroke="black" points="0,-41.5 142,-41.5 "/>
<text text-anchor="start" x="8" y="-29.5" font-family="Helvetica,sans-Serif" font-size="10.00">+ StdoutLogAppender()</text>
<text text-anchor="start" x="8" y="-18.5" font-family="Helvetica,sans-Serif" font-size="10.00">+ log()</text>
<text text-anchor="start" x="8" y="-7.5" font-family="Helvetica,sans-Serif" font-size="10.00">+ toYamlString()</text>
</a>
</g>
</g>
<!-- Node2 -->
<g id="node2" class="node">
<title>Node2</title>
<g id="a_node2"><a xlink:href="classsylar_1_1LogAppender.html" target="_top" xlink:title="日志输出地，虚基类，用于派生出不同的LogAppender">
<polygon fill="white" stroke="black" points="8.5,-117.5 8.5,-240.5 133.5,-240.5 133.5,-117.5 8.5,-117.5"/>
<text text-anchor="middle" x="71" y="-228.5" font-family="Helvetica,sans-Serif" font-size="10.00">sylar::LogAppender</text>
<polyline fill="none" stroke="black" points="8.5,-221.5 133.5,-221.5 "/>
<text text-anchor="start" x="16.5" y="-209.5" font-family="Helvetica,sans-Serif" font-size="10.00"># m_formatter</text>
<text text-anchor="start" x="16.5" y="-198.5" font-family="Helvetica,sans-Serif" font-size="10.00"># m_defaultFormatter</text>
<polyline fill="none" stroke="black" points="8.5,-191.5 133.5,-191.5 "/>
<text text-anchor="start" x="16.5" y="-179.5" font-family="Helvetica,sans-Serif" font-size="10.00">+ LogAppender()</text>
<text text-anchor="start" x="16.5" y="-168.5" font-family="Helvetica,sans-Serif" font-size="10.00">+ ~LogAppender()</text>
<text text-anchor="start" x="16.5" y="-157.5" font-family="Helvetica,sans-Serif" font-size="10.00">+ setFormatter()</text>
<text text-anchor="start" x="16.5" y="-146.5" font-family="Helvetica,sans-Serif" font-size="10.00">+ getFormatter()</text>
<text text-anchor="start" x="16.5" y="-135.5" font-family="Helvetica,sans-Serif" font-size="10.00">+ log()</text>
<text text-anchor="start" x="16.5" y="-124.5" font-family="Helvetica,sans-Serif" font-size="10.00">+ toYamlString()</text>
</a>
</g>
</g>
<!-- Node2&#45;&gt;Node1 -->
<g id="edge1" class="edge">
<title>Node2&#45;&gt;Node1</title>
<path fill="none" stroke="midnightblue" d="M71,-106.93C71,-97.55 71,-88.22 71,-79.67"/>
<polygon fill="none" stroke="midnightblue" points="67.5,-107.11 71,-117.11 74.5,-107.11 67.5,-107.11"/>
</g>
<!-- Node3 -->
<g id="node3" class="node">
<title>Node3</title>
<g id="a_node3"><a xlink:href="classsylar_1_1Spinlock.html" target="_top" xlink:title="自旋锁">
<polygon fill="white" stroke="black" points="27,-288.5 27,-378.5 115,-378.5 115,-288.5 27,-288.5"/>
<text text-anchor="middle" x="71" y="-366.5" font-family="Helvetica,sans-Serif" font-size="10.00">sylar::Spinlock</text>
<polyline fill="none" stroke="black" points="27,-359.5 115,-359.5 "/>
<text text-anchor="middle" x="71" y="-347.5" font-family="Helvetica,sans-Serif" font-size="10.00"> </text>
<polyline fill="none" stroke="black" points="27,-340.5 115,-340.5 "/>
<text text-anchor="start" x="35" y="-328.5" font-family="Helvetica,sans-Serif" font-size="10.00">+ Spinlock()</text>
<text text-anchor="start" x="35" y="-317.5" font-family="Helvetica,sans-Serif" font-size="10.00">+ ~Spinlock()</text>
<text text-anchor="start" x="35" y="-306.5" font-family="Helvetica,sans-Serif" font-size="10.00">+ lock()</text>
<text text-anchor="start" x="35" y="-295.5" font-family="Helvetica,sans-Serif" font-size="10.00">+ unlock()</text>
</a>
</g>
</g>
<!-- Node3&#45;&gt;Node2 -->
<g id="edge2" class="edge">
<title>Node3&#45;&gt;Node2</title>
<path fill="none" stroke="#404040" d="M71,-288.39C71,-277.24 71,-264.97 71,-252.81"/>
<polygon fill="none" stroke="#404040" points="71,-252.74 67,-246.74 71,-240.74 75,-246.74 71,-252.74"/>
<text text-anchor="middle" x="100" y="-262" font-family="Helvetica,sans-Serif" font-size="10.00"> #m_mutex</text>
</g>
<!-- Node4 -->
<g id="node4" class="node">
<title>Node4</title>
<g id="a_node4"><a xlink:href="classsylar_1_1Noncopyable.html" target="_top" xlink:title="对象无法拷贝,赋值">
<polygon fill="white" stroke="black" points="16,-416.5 16,-506.5 126,-506.5 126,-416.5 16,-416.5"/>
<text text-anchor="middle" x="71" y="-494.5" font-family="Helvetica,sans-Serif" font-size="10.00">sylar::Noncopyable</text>
<polyline fill="none" stroke="black" points="16,-487.5 126,-487.5 "/>
<text text-anchor="middle" x="71" y="-475.5" font-family="Helvetica,sans-Serif" font-size="10.00"> </text>
<polyline fill="none" stroke="black" points="16,-468.5 126,-468.5 "/>
<text text-anchor="start" x="24" y="-456.5" font-family="Helvetica,sans-Serif" font-size="10.00">+ Noncopyable()</text>
<text text-anchor="start" x="24" y="-445.5" font-family="Helvetica,sans-Serif" font-size="10.00">+ ~Noncopyable()</text>
<text text-anchor="start" x="24" y="-434.5" font-family="Helvetica,sans-Serif" font-size="10.00">+ Noncopyable()</text>
<text text-anchor="start" x="24" y="-423.5" font-family="Helvetica,sans-Serif" font-size="10.00">+ operator=()</text>
</a>
</g>
</g>
<!-- Node4&#45;&gt;Node3 -->
<g id="edge3" class="edge">
<title>Node4&#45;&gt;Node3</title>
<path fill="none" stroke="#8b1a1a" d="M71,-406.23C71,-397.06 71,-387.63 71,-378.76"/>
<polygon fill="none" stroke="#8b1a1a" points="67.5,-406.43 71,-416.43 74.5,-406.43 67.5,-406.43"/>
</g>
</g>
</svg>
