<?xml version="1.0" encoding="UTF-8" standalone="no"?>
<!DOCTYPE svg PUBLIC "-//W3C//DTD SVG 1.1//EN"
 "http://www.w3.org/Graphics/SVG/1.1/DTD/svg11.dtd">
<!-- Generated by graphviz version 2.43.0 (0)
 -->
<!-- Title: sylar::IPAddress Pages: 1 -->
<svg width="270pt" height="606pt"
 viewBox="0.00 0.00 270.00 606.00" xmlns="http://www.w3.org/2000/svg" xmlns:xlink="http://www.w3.org/1999/xlink">
<g id="graph0" class="graph" transform="scale(1 1) rotate(0) translate(4 602)">
<title>sylar::IPAddress</title>
<polygon fill="white" stroke="transparent" points="-4,4 -4,-602 266,-602 266,4 -4,4"/>
<!-- Node1 -->
<g id="node1" class="node">
<title>Node1</title>
<g id="a_node1"><a xlink:title="IP地址的基类">
<polygon fill="#bfbfbf" stroke="black" points="70,-226.5 70,-338.5 192,-338.5 192,-226.5 70,-226.5"/>
<text text-anchor="middle" x="131" y="-326.5" font-family="Helvetica,sans-Serif" font-size="10.00">sylar::IPAddress</text>
<polyline fill="none" stroke="black" points="70,-319.5 192,-319.5 "/>
<text text-anchor="middle" x="131" y="-307.5" font-family="Helvetica,sans-Serif" font-size="10.00"> </text>
<polyline fill="none" stroke="black" points="70,-300.5 192,-300.5 "/>
<text text-anchor="start" x="78" y="-288.5" font-family="Helvetica,sans-Serif" font-size="10.00">+ broadcastAddress()</text>
<text text-anchor="start" x="78" y="-277.5" font-family="Helvetica,sans-Serif" font-size="10.00">+ networkAddress()</text>
<text text-anchor="start" x="78" y="-266.5" font-family="Helvetica,sans-Serif" font-size="10.00">+ subnetMask()</text>
<text text-anchor="start" x="78" y="-255.5" font-family="Helvetica,sans-Serif" font-size="10.00">+ getPort()</text>
<text text-anchor="start" x="78" y="-244.5" font-family="Helvetica,sans-Serif" font-size="10.00">+ setPort()</text>
<text text-anchor="start" x="78" y="-233.5" font-family="Helvetica,sans-Serif" font-size="10.00">+ Create()</text>
</a>
</g>
</g>
<!-- Node3 -->
<g id="node3" class="node">
<title>Node3</title>
<g id="a_node3"><a xlink:href="classsylar_1_1IPv4Address.html" target="_top" xlink:title="IPv4地址">
<polygon fill="white" stroke="black" points="0,-6 0,-184 122,-184 122,-6 0,-6"/>
<text text-anchor="middle" x="61" y="-172" font-family="Helvetica,sans-Serif" font-size="10.00">sylar::IPv4Address</text>
<polyline fill="none" stroke="black" points="0,-165 122,-165 "/>
<text text-anchor="middle" x="61" y="-153" font-family="Helvetica,sans-Serif" font-size="10.00"> </text>
<polyline fill="none" stroke="black" points="0,-146 122,-146 "/>
<text text-anchor="start" x="8" y="-134" font-family="Helvetica,sans-Serif" font-size="10.00">+ IPv4Address()</text>
<text text-anchor="start" x="8" y="-123" font-family="Helvetica,sans-Serif" font-size="10.00">+ IPv4Address()</text>
<text text-anchor="start" x="8" y="-112" font-family="Helvetica,sans-Serif" font-size="10.00">+ getAddr()</text>
<text text-anchor="start" x="8" y="-101" font-family="Helvetica,sans-Serif" font-size="10.00">+ getAddr()</text>
<text text-anchor="start" x="8" y="-90" font-family="Helvetica,sans-Serif" font-size="10.00">+ getAddrLen()</text>
<text text-anchor="start" x="8" y="-79" font-family="Helvetica,sans-Serif" font-size="10.00">+ insert()</text>
<text text-anchor="start" x="8" y="-68" font-family="Helvetica,sans-Serif" font-size="10.00">+ broadcastAddress()</text>
<text text-anchor="start" x="8" y="-57" font-family="Helvetica,sans-Serif" font-size="10.00">+ networkAddress()</text>
<text text-anchor="start" x="8" y="-46" font-family="Helvetica,sans-Serif" font-size="10.00">+ subnetMask()</text>
<text text-anchor="start" x="8" y="-35" font-family="Helvetica,sans-Serif" font-size="10.00">+ getPort()</text>
<text text-anchor="start" x="8" y="-24" font-family="Helvetica,sans-Serif" font-size="10.00">+ setPort()</text>
<text text-anchor="start" x="8" y="-13" font-family="Helvetica,sans-Serif" font-size="10.00">+ Create()</text>
</a>
</g>
</g>
<!-- Node1&#45;&gt;Node3 -->
<g id="edge2" class="edge">
<title>Node1&#45;&gt;Node3</title>
<path fill="none" stroke="midnightblue" d="M106.6,-216.85C102.63,-206.33 98.46,-195.27 94.32,-184.3"/>
<polygon fill="none" stroke="midnightblue" points="103.38,-218.23 110.19,-226.35 109.93,-215.75 103.38,-218.23"/>
</g>
<!-- Node4 -->
<g id="node4" class="node">
<title>Node4</title>
<g id="a_node4"><a xlink:href="classsylar_1_1IPv6Address.html" target="_top" xlink:title="IPv6地址">
<polygon fill="white" stroke="black" points="140,-0.5 140,-189.5 262,-189.5 262,-0.5 140,-0.5"/>
<text text-anchor="middle" x="201" y="-177.5" font-family="Helvetica,sans-Serif" font-size="10.00">sylar::IPv6Address</text>
<polyline fill="none" stroke="black" points="140,-170.5 262,-170.5 "/>
<text text-anchor="middle" x="201" y="-158.5" font-family="Helvetica,sans-Serif" font-size="10.00"> </text>
<polyline fill="none" stroke="black" points="140,-151.5 262,-151.5 "/>
<text text-anchor="start" x="148" y="-139.5" font-family="Helvetica,sans-Serif" font-size="10.00">+ IPv6Address()</text>
<text text-anchor="start" x="148" y="-128.5" font-family="Helvetica,sans-Serif" font-size="10.00">+ IPv6Address()</text>
<text text-anchor="start" x="148" y="-117.5" font-family="Helvetica,sans-Serif" font-size="10.00">+ IPv6Address()</text>
<text text-anchor="start" x="148" y="-106.5" font-family="Helvetica,sans-Serif" font-size="10.00">+ getAddr()</text>
<text text-anchor="start" x="148" y="-95.5" font-family="Helvetica,sans-Serif" font-size="10.00">+ getAddr()</text>
<text text-anchor="start" x="148" y="-84.5" font-family="Helvetica,sans-Serif" font-size="10.00">+ getAddrLen()</text>
<text text-anchor="start" x="148" y="-73.5" font-family="Helvetica,sans-Serif" font-size="10.00">+ insert()</text>
<text text-anchor="start" x="148" y="-62.5" font-family="Helvetica,sans-Serif" font-size="10.00">+ broadcastAddress()</text>
<text text-anchor="start" x="148" y="-51.5" font-family="Helvetica,sans-Serif" font-size="10.00">+ networkAddress()</text>
<text text-anchor="start" x="148" y="-40.5" font-family="Helvetica,sans-Serif" font-size="10.00">+ subnetMask()</text>
<text text-anchor="start" x="148" y="-29.5" font-family="Helvetica,sans-Serif" font-size="10.00">+ getPort()</text>
<text text-anchor="start" x="148" y="-18.5" font-family="Helvetica,sans-Serif" font-size="10.00">+ setPort()</text>
<text text-anchor="start" x="148" y="-7.5" font-family="Helvetica,sans-Serif" font-size="10.00">+ Create()</text>
</a>
</g>
</g>
<!-- Node1&#45;&gt;Node4 -->
<g id="edge3" class="edge">
<title>Node1&#45;&gt;Node4</title>
<path fill="none" stroke="midnightblue" d="M155.38,-216.89C158.73,-208.01 162.22,-198.76 165.72,-189.5"/>
<polygon fill="none" stroke="midnightblue" points="152.07,-215.75 151.81,-226.35 158.62,-218.23 152.07,-215.75"/>
</g>
<!-- Node2 -->
<g id="node2" class="node">
<title>Node2</title>
<g id="a_node2"><a xlink:href="classsylar_1_1Address.html" target="_top" xlink:title="网络地址的基类,抽象类">
<polygon fill="white" stroke="black" points="58,-375.5 58,-597.5 204,-597.5 204,-375.5 58,-375.5"/>
<text text-anchor="middle" x="131" y="-585.5" font-family="Helvetica,sans-Serif" font-size="10.00">sylar::Address</text>
<polyline fill="none" stroke="black" points="58,-578.5 204,-578.5 "/>
<text text-anchor="middle" x="131" y="-566.5" font-family="Helvetica,sans-Serif" font-size="10.00"> </text>
<polyline fill="none" stroke="black" points="58,-559.5 204,-559.5 "/>
<text text-anchor="start" x="66" y="-547.5" font-family="Helvetica,sans-Serif" font-size="10.00">+ ~Address()</text>
<text text-anchor="start" x="66" y="-536.5" font-family="Helvetica,sans-Serif" font-size="10.00">+ getFamily()</text>
<text text-anchor="start" x="66" y="-525.5" font-family="Helvetica,sans-Serif" font-size="10.00">+ getAddr()</text>
<text text-anchor="start" x="66" y="-514.5" font-family="Helvetica,sans-Serif" font-size="10.00">+ getAddr()</text>
<text text-anchor="start" x="66" y="-503.5" font-family="Helvetica,sans-Serif" font-size="10.00">+ getAddrLen()</text>
<text text-anchor="start" x="66" y="-492.5" font-family="Helvetica,sans-Serif" font-size="10.00">+ insert()</text>
<text text-anchor="start" x="66" y="-481.5" font-family="Helvetica,sans-Serif" font-size="10.00">+ toString()</text>
<text text-anchor="start" x="66" y="-470.5" font-family="Helvetica,sans-Serif" font-size="10.00">+ operator&lt;()</text>
<text text-anchor="start" x="66" y="-459.5" font-family="Helvetica,sans-Serif" font-size="10.00">+ operator==()</text>
<text text-anchor="start" x="66" y="-448.5" font-family="Helvetica,sans-Serif" font-size="10.00">+ operator!=()</text>
<text text-anchor="start" x="66" y="-437.5" font-family="Helvetica,sans-Serif" font-size="10.00">+ Create()</text>
<text text-anchor="start" x="66" y="-426.5" font-family="Helvetica,sans-Serif" font-size="10.00">+ Lookup()</text>
<text text-anchor="start" x="66" y="-415.5" font-family="Helvetica,sans-Serif" font-size="10.00">+ LookupAny()</text>
<text text-anchor="start" x="66" y="-404.5" font-family="Helvetica,sans-Serif" font-size="10.00">+ LookupAnyIPAddress()</text>
<text text-anchor="start" x="66" y="-393.5" font-family="Helvetica,sans-Serif" font-size="10.00">+ GetInterfaceAddresses()</text>
<text text-anchor="start" x="66" y="-382.5" font-family="Helvetica,sans-Serif" font-size="10.00">+ GetInterfaceAddresses()</text>
</a>
</g>
</g>
<!-- Node2&#45;&gt;Node1 -->
<g id="edge1" class="edge">
<title>Node2&#45;&gt;Node1</title>
<path fill="none" stroke="midnightblue" d="M131,-365.24C131,-356.01 131,-346.99 131,-338.53"/>
<polygon fill="none" stroke="midnightblue" points="127.5,-365.34 131,-375.34 134.5,-365.34 127.5,-365.34"/>
</g>
</g>
</svg>
