<?xml version="1.0" encoding="UTF-8" standalone="no"?>
<!DOCTYPE svg PUBLIC "-//W3C//DTD SVG 1.1//EN"
 "http://www.w3.org/Graphics/SVG/1.1/DTD/svg11.dtd">
<!-- Generated by graphviz version 2.43.0 (0)
 -->
<!-- Title: sylar::IPv4Address::subnetMask Pages: 1 -->
<svg width="316pt" height="96pt"
 viewBox="0.00 0.00 316.00 95.50" xmlns="http://www.w3.org/2000/svg" xmlns:xlink="http://www.w3.org/1999/xlink">
<g id="graph0" class="graph" transform="scale(1 1) rotate(0) translate(4 91.5)">
<title>sylar::IPv4Address::subnetMask</title>
<polygon fill="white" stroke="transparent" points="-4,4 -4,-91.5 312,-91.5 312,4 -4,4"/>
<!-- Node1 -->
<g id="node1" class="node">
<title>Node1</title>
<g id="a_node1"><a xlink:title="获取子网掩码地址">
<polygon fill="#bfbfbf" stroke="black" points="0,-22.5 0,-52.5 107,-52.5 107,-22.5 0,-22.5"/>
<text text-anchor="start" x="8" y="-40.5" font-family="Helvetica,sans-Serif" font-size="10.00">sylar::IPv4Address</text>
<text text-anchor="middle" x="53.5" y="-29.5" font-family="Helvetica,sans-Serif" font-size="10.00">::subnetMask</text>
</a>
</g>
</g>
<!-- Node2 -->
<g id="node2" class="node">
<title>Node2</title>
<g id="a_node2"><a xlink:href="endian_8h.html#ace3c6efe9da95573435daf6bd0509d31" target="_top" xlink:title="只在小端机器上执行byteswap, 在大端机器上什么都不做">
<polygon fill="white" stroke="black" points="143,-50 143,-69 308,-69 308,-50 143,-50"/>
<text text-anchor="middle" x="225.5" y="-57" font-family="Helvetica,sans-Serif" font-size="10.00">sylar::byteswapOnLittleEndian</text>
</a>
</g>
</g>
<!-- Node1&#45;&gt;Node2 -->
<g id="edge1" class="edge">
<title>Node1&#45;&gt;Node2</title>
<path fill="none" stroke="midnightblue" d="M107.36,-44.34C118.06,-45.73 129.56,-47.21 141.03,-48.7"/>
<polygon fill="midnightblue" stroke="midnightblue" points="140.71,-52.19 151.07,-50 141.61,-45.24 140.71,-52.19"/>
</g>
<!-- Node3 -->
<g id="node3" class="node">
<title>Node3</title>
<g id="a_node3"><a xlink:href="classsylar_1_1IPv4Address.html#a1f9d7d3be20b19bf491b5895e9595599" target="_top" xlink:title="通过sockaddr_in构造IPv4Address">
<polygon fill="white" stroke="black" points="172,-0.5 172,-30.5 279,-30.5 279,-0.5 172,-0.5"/>
<text text-anchor="start" x="180" y="-18.5" font-family="Helvetica,sans-Serif" font-size="10.00">sylar::IPv4Address</text>
<text text-anchor="middle" x="225.5" y="-7.5" font-family="Helvetica,sans-Serif" font-size="10.00">::IPv4Address</text>
</a>
</g>
</g>
<!-- Node1&#45;&gt;Node3 -->
<g id="edge3" class="edge">
<title>Node1&#45;&gt;Node3</title>
<path fill="none" stroke="midnightblue" d="M107.36,-30.66C124.63,-28.42 143.98,-25.92 161.9,-23.6"/>
<polygon fill="midnightblue" stroke="midnightblue" points="162.5,-27.05 171.97,-22.3 161.6,-20.11 162.5,-27.05"/>
</g>
<!-- Node2&#45;&gt;Node2 -->
<g id="edge2" class="edge">
<title>Node2&#45;&gt;Node2</title>
<path fill="none" stroke="midnightblue" d="M198.99,-69.26C186.09,-78.07 194.93,-87.5 225.5,-87.5 246.04,-87.5 256.77,-83.24 257.69,-77.77"/>
<polygon fill="midnightblue" stroke="midnightblue" points="260.47,-75.64 252.01,-69.26 254.64,-79.52 260.47,-75.64"/>
</g>
</g>
</svg>
