<?xml version="1.0" encoding="UTF-8" standalone="no"?>
<!DOCTYPE svg PUBLIC "-//W3C//DTD SVG 1.1//EN"
 "http://www.w3.org/Graphics/SVG/1.1/DTD/svg11.dtd">
<!-- Generated by graphviz version 2.43.0 (0)
 -->
<!-- Title: sylar::Socket Pages: 1 -->
<svg width="260pt" height="490pt"
 viewBox="0.00 0.00 259.50 490.00" xmlns="http://www.w3.org/2000/svg" xmlns:xlink="http://www.w3.org/1999/xlink">
<g id="graph0" class="graph" transform="scale(1 1) rotate(0) translate(4 486)">
<title>sylar::Socket</title>
<polygon fill="white" stroke="transparent" points="-4,4 -4,-486 255.5,-486 255.5,4 -4,4"/>
<!-- Node1 -->
<g id="node1" class="node">
<title>Node1</title>
<g id="a_node1"><a xlink:title="Socket封装类">
<polygon fill="#bfbfbf" stroke="black" points="57,-0.5 57,-354.5 200,-354.5 200,-0.5 57,-0.5"/>
<text text-anchor="middle" x="128.5" y="-342.5" font-family="Helvetica,sans-Serif" font-size="10.00">sylar::Socket</text>
<polyline fill="none" stroke="black" points="57,-335.5 200,-335.5 "/>
<text text-anchor="start" x="65" y="-323.5" font-family="Helvetica,sans-Serif" font-size="10.00"># m_sock</text>
<text text-anchor="start" x="65" y="-312.5" font-family="Helvetica,sans-Serif" font-size="10.00"># m_family</text>
<text text-anchor="start" x="65" y="-301.5" font-family="Helvetica,sans-Serif" font-size="10.00"># m_type</text>
<text text-anchor="start" x="65" y="-290.5" font-family="Helvetica,sans-Serif" font-size="10.00"># m_protocol</text>
<text text-anchor="start" x="65" y="-279.5" font-family="Helvetica,sans-Serif" font-size="10.00"># m_isConnected</text>
<text text-anchor="start" x="65" y="-268.5" font-family="Helvetica,sans-Serif" font-size="10.00"># m_localAddress</text>
<text text-anchor="start" x="65" y="-257.5" font-family="Helvetica,sans-Serif" font-size="10.00"># m_remoteAddress</text>
<polyline fill="none" stroke="black" points="57,-250.5 200,-250.5 "/>
<text text-anchor="start" x="65" y="-238.5" font-family="Helvetica,sans-Serif" font-size="10.00">+ Socket()</text>
<text text-anchor="start" x="65" y="-227.5" font-family="Helvetica,sans-Serif" font-size="10.00">+ ~Socket()</text>
<text text-anchor="start" x="65" y="-216.5" font-family="Helvetica,sans-Serif" font-size="10.00">+ getSendTimeout()</text>
<text text-anchor="start" x="65" y="-205.5" font-family="Helvetica,sans-Serif" font-size="10.00">+ setSendTimeout()</text>
<text text-anchor="start" x="65" y="-194.5" font-family="Helvetica,sans-Serif" font-size="10.00">+ getRecvTimeout()</text>
<text text-anchor="start" x="65" y="-183.5" font-family="Helvetica,sans-Serif" font-size="10.00">+ setRecvTimeout()</text>
<text text-anchor="start" x="65" y="-172.5" font-family="Helvetica,sans-Serif" font-size="10.00">+ getOption()</text>
<text text-anchor="start" x="65" y="-161.5" font-family="Helvetica,sans-Serif" font-size="10.00">+ getOption()</text>
<text text-anchor="start" x="65" y="-150.5" font-family="Helvetica,sans-Serif" font-size="10.00">+ setOption()</text>
<text text-anchor="start" x="65" y="-139.5" font-family="Helvetica,sans-Serif" font-size="10.00">+ setOption()</text>
<text text-anchor="start" x="65" y="-128.5" font-family="Helvetica,sans-Serif" font-size="10.00">和 29 更多...</text>
<text text-anchor="start" x="65" y="-117.5" font-family="Helvetica,sans-Serif" font-size="10.00">+ CreateTCP()</text>
<text text-anchor="start" x="65" y="-106.5" font-family="Helvetica,sans-Serif" font-size="10.00">+ CreateUDP()</text>
<text text-anchor="start" x="65" y="-95.5" font-family="Helvetica,sans-Serif" font-size="10.00">+ CreateTCPSocket()</text>
<text text-anchor="start" x="65" y="-84.5" font-family="Helvetica,sans-Serif" font-size="10.00">+ CreateUDPSocket()</text>
<text text-anchor="start" x="65" y="-73.5" font-family="Helvetica,sans-Serif" font-size="10.00">+ CreateTCPSocket6()</text>
<text text-anchor="start" x="65" y="-62.5" font-family="Helvetica,sans-Serif" font-size="10.00">+ CreateUDPSocket6()</text>
<text text-anchor="start" x="65" y="-51.5" font-family="Helvetica,sans-Serif" font-size="10.00">+ CreateUnixTCPSocket()</text>
<text text-anchor="start" x="65" y="-40.5" font-family="Helvetica,sans-Serif" font-size="10.00">+ CreateUnixUDPSocket()</text>
<text text-anchor="start" x="65" y="-29.5" font-family="Helvetica,sans-Serif" font-size="10.00"># initSock()</text>
<text text-anchor="start" x="65" y="-18.5" font-family="Helvetica,sans-Serif" font-size="10.00"># newSock()</text>
<text text-anchor="start" x="65" y="-7.5" font-family="Helvetica,sans-Serif" font-size="10.00"># init()</text>
</a>
</g>
</g>
<!-- Node2 -->
<g id="node2" class="node">
<title>Node2</title>
<g id="a_node2"><a xlink:title=" ">
<polygon fill="white" stroke="#bfbfbf" points="0,-402.5 0,-470.5 123,-470.5 123,-402.5 0,-402.5"/>
<text text-anchor="start" x="8" y="-458.5" font-family="Helvetica,sans-Serif" font-size="10.00">std::enable_shared</text>
<text text-anchor="middle" x="61.5" y="-447.5" font-family="Helvetica,sans-Serif" font-size="10.00">_from_this&lt; Socket &gt;</text>
<polyline fill="none" stroke="#bfbfbf" points="0,-440.5 123,-440.5 "/>
<text text-anchor="middle" x="61.5" y="-428.5" font-family="Helvetica,sans-Serif" font-size="10.00"> </text>
<polyline fill="none" stroke="#bfbfbf" points="0,-421.5 123,-421.5 "/>
<text text-anchor="middle" x="61.5" y="-409.5" font-family="Helvetica,sans-Serif" font-size="10.00"> </text>
</a>
</g>
</g>
<!-- Node2&#45;&gt;Node1 -->
<g id="edge1" class="edge">
<title>Node2&#45;&gt;Node1</title>
<path fill="none" stroke="midnightblue" d="M72.7,-392.54C75.64,-381.26 79,-368.36 82.58,-354.62"/>
<polygon fill="none" stroke="midnightblue" points="69.26,-391.87 70.12,-402.43 76.03,-393.63 69.26,-391.87"/>
</g>
<!-- Node3 -->
<g id="node3" class="node">
<title>Node3</title>
<g id="a_node3"><a xlink:href="classsylar_1_1Noncopyable.html" target="_top" xlink:title="对象无法拷贝,赋值">
<polygon fill="white" stroke="black" points="141.5,-391.5 141.5,-481.5 251.5,-481.5 251.5,-391.5 141.5,-391.5"/>
<text text-anchor="middle" x="196.5" y="-469.5" font-family="Helvetica,sans-Serif" font-size="10.00">sylar::Noncopyable</text>
<polyline fill="none" stroke="black" points="141.5,-462.5 251.5,-462.5 "/>
<text text-anchor="middle" x="196.5" y="-450.5" font-family="Helvetica,sans-Serif" font-size="10.00"> </text>
<polyline fill="none" stroke="black" points="141.5,-443.5 251.5,-443.5 "/>
<text text-anchor="start" x="149.5" y="-431.5" font-family="Helvetica,sans-Serif" font-size="10.00">+ Noncopyable()</text>
<text text-anchor="start" x="149.5" y="-420.5" font-family="Helvetica,sans-Serif" font-size="10.00">+ ~Noncopyable()</text>
<text text-anchor="start" x="149.5" y="-409.5" font-family="Helvetica,sans-Serif" font-size="10.00">+ Noncopyable()</text>
<text text-anchor="start" x="149.5" y="-398.5" font-family="Helvetica,sans-Serif" font-size="10.00">+ operator=()</text>
</a>
</g>
</g>
<!-- Node3&#45;&gt;Node1 -->
<g id="edge2" class="edge">
<title>Node3&#45;&gt;Node1</title>
<path fill="none" stroke="#8b1a1a" d="M182.2,-381.45C179.98,-373.08 177.6,-364.07 175.11,-354.66"/>
<polygon fill="none" stroke="#8b1a1a" points="178.87,-382.55 184.81,-391.32 185.64,-380.76 178.87,-382.55"/>
</g>
</g>
</svg>
