<?xml version="1.0" encoding="UTF-8" standalone="no"?>
<!DOCTYPE svg PUBLIC "-//W3C//DTD SVG 1.1//EN"
 "http://www.w3.org/Graphics/SVG/1.1/DTD/svg11.dtd">
<!-- Generated by graphviz version 2.43.0 (0)
 -->
<!-- Title: sylar::ByteArray::readFint8 Pages: 1 -->
<svg width="509pt" height="28pt"
 viewBox="0.00 0.00 509.00 28.00" xmlns="http://www.w3.org/2000/svg" xmlns:xlink="http://www.w3.org/1999/xlink">
<g id="graph0" class="graph" transform="scale(1 1) rotate(0) translate(4 24)">
<title>sylar::ByteArray::readFint8</title>
<polygon fill="white" stroke="transparent" points="-4,4 -4,-24 505,-24 505,4 -4,4"/>
<!-- Node1 -->
<g id="node1" class="node">
<title>Node1</title>
<g id="a_node1"><a xlink:title="读取int8_t类型的数据">
<polygon fill="#bfbfbf" stroke="black" points="0,-0.5 0,-19.5 146,-19.5 146,-0.5 0,-0.5"/>
<text text-anchor="middle" x="73" y="-7.5" font-family="Helvetica,sans-Serif" font-size="10.00">sylar::ByteArray::readFint8</text>
</a>
</g>
</g>
<!-- Node2 -->
<g id="node2" class="node">
<title>Node2</title>
<g id="a_node2"><a xlink:href="classsylar_1_1ByteArray.html#add0a86b9e7ac29fe11e9a9efc3f25699" target="_top" xlink:title="读取size长度的数据">
<polygon fill="white" stroke="black" points="182,-0.5 182,-19.5 304,-19.5 304,-0.5 182,-0.5"/>
<text text-anchor="middle" x="243" y="-7.5" font-family="Helvetica,sans-Serif" font-size="10.00">sylar::ByteArray::read</text>
</a>
</g>
</g>
<!-- Node1&#45;&gt;Node2 -->
<g id="edge1" class="edge">
<title>Node1&#45;&gt;Node2</title>
<path fill="none" stroke="midnightblue" d="M146.22,-10C154.69,-10 163.33,-10 171.77,-10"/>
<polygon fill="midnightblue" stroke="midnightblue" points="171.96,-13.5 181.96,-10 171.96,-6.5 171.96,-13.5"/>
</g>
<!-- Node3 -->
<g id="node3" class="node">
<title>Node3</title>
<g id="a_node3"><a xlink:href="classsylar_1_1ByteArray.html#a763d792f91cfd84072692ac0cdef8efc" target="_top" xlink:title="返回可读取数据大小">
<polygon fill="white" stroke="black" points="340,-0.5 340,-19.5 501,-19.5 501,-0.5 340,-0.5"/>
<text text-anchor="middle" x="420.5" y="-7.5" font-family="Helvetica,sans-Serif" font-size="10.00">sylar::ByteArray::getReadSize</text>
</a>
</g>
</g>
<!-- Node2&#45;&gt;Node3 -->
<g id="edge2" class="edge">
<title>Node2&#45;&gt;Node3</title>
<path fill="none" stroke="midnightblue" d="M304.4,-10C312.59,-10 321.14,-10 329.72,-10"/>
<polygon fill="midnightblue" stroke="midnightblue" points="329.78,-13.5 339.78,-10 329.78,-6.5 329.78,-13.5"/>
</g>
</g>
</svg>
