<?xml version="1.0" encoding="UTF-8" standalone="no"?>
<!DOCTYPE svg PUBLIC "-//W3C//DTD SVG 1.1//EN"
 "http://www.w3.org/Graphics/SVG/1.1/DTD/svg11.dtd">
<!-- Generated by graphviz version 2.43.0 (0)
 -->
<!-- Title: sylar::Fiber::reset Pages: 1 -->
<svg width="418pt" height="28pt"
 viewBox="0.00 0.00 418.00 28.00" xmlns="http://www.w3.org/2000/svg" xmlns:xlink="http://www.w3.org/1999/xlink">
<g id="graph0" class="graph" transform="scale(1 1) rotate(0) translate(4 24)">
<title>sylar::Fiber::reset</title>
<polygon fill="white" stroke="transparent" points="-4,4 -4,-24 414,-24 414,4 -4,4"/>
<!-- Node1 -->
<g id="node1" class="node">
<title>Node1</title>
<g id="a_node1"><a xlink:title="重置协程状态和入口函数，复用栈空间，不重新创建栈">
<polygon fill="#bfbfbf" stroke="black" points="0,-0.5 0,-19.5 101,-19.5 101,-0.5 0,-0.5"/>
<text text-anchor="middle" x="50.5" y="-7.5" font-family="Helvetica,sans-Serif" font-size="10.00">sylar::Fiber::reset</text>
</a>
</g>
</g>
<!-- Node2 -->
<g id="node2" class="node">
<title>Node2</title>
<g id="a_node2"><a xlink:href="classsylar_1_1Fiber.html#a8cb4bce15e48068c01034f2442050256" target="_top" xlink:title="协程入口函数">
<polygon fill="white" stroke="black" points="137,-0.5 137,-19.5 260,-19.5 260,-0.5 137,-0.5"/>
<text text-anchor="middle" x="198.5" y="-7.5" font-family="Helvetica,sans-Serif" font-size="10.00">sylar::Fiber::MainFunc</text>
</a>
</g>
</g>
<!-- Node1&#45;&gt;Node2 -->
<g id="edge1" class="edge">
<title>Node1&#45;&gt;Node2</title>
<path fill="none" stroke="midnightblue" d="M101.34,-10C109.53,-10 118.16,-10 126.74,-10"/>
<polygon fill="midnightblue" stroke="midnightblue" points="126.78,-13.5 136.78,-10 126.78,-6.5 126.78,-13.5"/>
</g>
<!-- Node3 -->
<g id="node3" class="node">
<title>Node3</title>
<g id="a_node3"><a xlink:href="classsylar_1_1Fiber.html#a02312c30aeafa6ed7e0143cfe95f21d2" target="_top" xlink:title="返回当前线程正在执行的协程">
<polygon fill="white" stroke="black" points="296,-0.5 296,-19.5 410,-19.5 410,-0.5 296,-0.5"/>
<text text-anchor="middle" x="353" y="-7.5" font-family="Helvetica,sans-Serif" font-size="10.00">sylar::Fiber::GetThis</text>
</a>
</g>
</g>
<!-- Node2&#45;&gt;Node3 -->
<g id="edge2" class="edge">
<title>Node2&#45;&gt;Node3</title>
<path fill="none" stroke="midnightblue" d="M260.21,-10C268.6,-10 277.24,-10 285.72,-10"/>
<polygon fill="midnightblue" stroke="midnightblue" points="285.95,-13.5 295.95,-10 285.95,-6.5 285.95,-13.5"/>
</g>
</g>
</svg>
