<?xml version="1.0" encoding="UTF-8" standalone="no"?>
<!DOCTYPE svg PUBLIC "-//W3C//DTD SVG 1.1//EN"
 "http://www.w3.org/Graphics/SVG/1.1/DTD/svg11.dtd">
<!-- Generated by graphviz version 2.43.0 (0)
 -->
<!-- Title: sylar::http::HttpResponse::dump Pages: 1 -->
<svg width="318pt" height="57pt"
 viewBox="0.00 0.00 318.00 57.00" xmlns="http://www.w3.org/2000/svg" xmlns:xlink="http://www.w3.org/1999/xlink">
<g id="graph0" class="graph" transform="scale(1 1) rotate(0) translate(4 53)">
<title>sylar::http::HttpResponse::dump</title>
<polygon fill="white" stroke="transparent" points="-4,4 -4,-53 314,-53 314,4 -4,4"/>
<!-- Node1 -->
<g id="node1" class="node">
<title>Node1</title>
<g id="a_node1"><a xlink:title="序列化输出到流">
<polygon fill="#bfbfbf" stroke="black" points="0,-0.5 0,-30.5 140,-30.5 140,-0.5 0,-0.5"/>
<text text-anchor="start" x="8" y="-18.5" font-family="Helvetica,sans-Serif" font-size="10.00">sylar::http::HttpResponse</text>
<text text-anchor="middle" x="70" y="-7.5" font-family="Helvetica,sans-Serif" font-size="10.00">::dump</text>
</a>
</g>
</g>
<!-- Node2 -->
<g id="node2" class="node">
<title>Node2</title>
<g id="a_node2"><a xlink:href="http_8cc.html#ae173fedd3819839ca2d0dcd6834f7245" target="_top" xlink:title="将HTTP状态枚举转换成字符串">
<polygon fill="white" stroke="black" points="176,-0.5 176,-30.5 310,-30.5 310,-0.5 176,-0.5"/>
<text text-anchor="start" x="184" y="-18.5" font-family="Helvetica,sans-Serif" font-size="10.00">sylar::http::HttpStatusTo</text>
<text text-anchor="middle" x="243" y="-7.5" font-family="Helvetica,sans-Serif" font-size="10.00">String</text>
</a>
</g>
</g>
<!-- Node1&#45;&gt;Node2 -->
<g id="edge1" class="edge">
<title>Node1&#45;&gt;Node2</title>
<path fill="none" stroke="midnightblue" d="M140.06,-15.5C148.43,-15.5 157.02,-15.5 165.48,-15.5"/>
<polygon fill="midnightblue" stroke="midnightblue" points="165.73,-19 175.73,-15.5 165.73,-12 165.73,-19"/>
</g>
<!-- Node2&#45;&gt;Node2 -->
<g id="edge2" class="edge">
<title>Node2&#45;&gt;Node2</title>
<path fill="none" stroke="midnightblue" d="M213.03,-30.66C205.8,-40.06 215.79,-49 243,-49 259.58,-49 269.77,-45.68 273.56,-40.96"/>
<polygon fill="midnightblue" stroke="midnightblue" points="277.04,-40.44 272.97,-30.66 270.05,-40.84 277.04,-40.44"/>
</g>
</g>
</svg>
