<?xml version="1.0" encoding="UTF-8" standalone="no"?>
<!DOCTYPE svg PUBLIC "-//W3C//DTD SVG 1.1//EN"
 "http://www.w3.org/Graphics/SVG/1.1/DTD/svg11.dtd">
<!-- Generated by graphviz version 2.43.0 (0)
 -->
<!-- Title: sylar::ByteArray::readInt64 Pages: 1 -->
<svg width="889pt" height="28pt"
 viewBox="0.00 0.00 889.00 28.00" xmlns="http://www.w3.org/2000/svg" xmlns:xlink="http://www.w3.org/1999/xlink">
<g id="graph0" class="graph" transform="scale(1 1) rotate(0) translate(4 24)">
<title>sylar::ByteArray::readInt64</title>
<polygon fill="white" stroke="transparent" points="-4,4 -4,-24 885,-24 885,4 -4,4"/>
<!-- Node1 -->
<g id="node1" class="node">
<title>Node1</title>
<g id="a_node1"><a xlink:title="读取有符号Varint64类型的数据">
<polygon fill="#bfbfbf" stroke="black" points="0,-0.5 0,-19.5 147,-19.5 147,-0.5 0,-0.5"/>
<text text-anchor="middle" x="73.5" y="-7.5" font-family="Helvetica,sans-Serif" font-size="10.00">sylar::ByteArray::readInt64</text>
</a>
</g>
</g>
<!-- Node2 -->
<g id="node2" class="node">
<title>Node2</title>
<g id="a_node2"><a xlink:href="classsylar_1_1ByteArray.html#a7c45e91cbb1761b66ca9d9f6a788ac30" target="_top" xlink:title="读取无符号Varint64类型的数据">
<polygon fill="white" stroke="black" points="183,-0.5 183,-19.5 338,-19.5 338,-0.5 183,-0.5"/>
<text text-anchor="middle" x="260.5" y="-7.5" font-family="Helvetica,sans-Serif" font-size="10.00">sylar::ByteArray::readUint64</text>
</a>
</g>
</g>
<!-- Node1&#45;&gt;Node2 -->
<g id="edge1" class="edge">
<title>Node1&#45;&gt;Node2</title>
<path fill="none" stroke="midnightblue" d="M147.09,-10C155.53,-10 164.2,-10 172.8,-10"/>
<polygon fill="midnightblue" stroke="midnightblue" points="172.86,-13.5 182.86,-10 172.86,-6.5 172.86,-13.5"/>
</g>
<!-- Node3 -->
<g id="node3" class="node">
<title>Node3</title>
<g id="a_node3"><a xlink:href="classsylar_1_1ByteArray.html#aa68fb27eef571c42e4dabdc1331a59d6" target="_top" xlink:title="读取uint8_t类型的数据">
<polygon fill="white" stroke="black" points="374,-0.5 374,-19.5 526,-19.5 526,-0.5 374,-0.5"/>
<text text-anchor="middle" x="450" y="-7.5" font-family="Helvetica,sans-Serif" font-size="10.00">sylar::ByteArray::readFuint8</text>
</a>
</g>
</g>
<!-- Node2&#45;&gt;Node3 -->
<g id="edge2" class="edge">
<title>Node2&#45;&gt;Node3</title>
<path fill="none" stroke="midnightblue" d="M338.03,-10C346.55,-10 355.26,-10 363.87,-10"/>
<polygon fill="midnightblue" stroke="midnightblue" points="363.92,-13.5 373.92,-10 363.92,-6.5 363.92,-13.5"/>
</g>
<!-- Node4 -->
<g id="node4" class="node">
<title>Node4</title>
<g id="a_node4"><a xlink:href="classsylar_1_1ByteArray.html#add0a86b9e7ac29fe11e9a9efc3f25699" target="_top" xlink:title="读取size长度的数据">
<polygon fill="white" stroke="black" points="562,-0.5 562,-19.5 684,-19.5 684,-0.5 562,-0.5"/>
<text text-anchor="middle" x="623" y="-7.5" font-family="Helvetica,sans-Serif" font-size="10.00">sylar::ByteArray::read</text>
</a>
</g>
</g>
<!-- Node3&#45;&gt;Node4 -->
<g id="edge3" class="edge">
<title>Node3&#45;&gt;Node4</title>
<path fill="none" stroke="midnightblue" d="M526,-10C534.55,-10 543.24,-10 551.73,-10"/>
<polygon fill="midnightblue" stroke="midnightblue" points="551.95,-13.5 561.95,-10 551.95,-6.5 551.95,-13.5"/>
</g>
<!-- Node5 -->
<g id="node5" class="node">
<title>Node5</title>
<g id="a_node5"><a xlink:href="classsylar_1_1ByteArray.html#a763d792f91cfd84072692ac0cdef8efc" target="_top" xlink:title="返回可读取数据大小">
<polygon fill="white" stroke="black" points="720,-0.5 720,-19.5 881,-19.5 881,-0.5 720,-0.5"/>
<text text-anchor="middle" x="800.5" y="-7.5" font-family="Helvetica,sans-Serif" font-size="10.00">sylar::ByteArray::getReadSize</text>
</a>
</g>
</g>
<!-- Node4&#45;&gt;Node5 -->
<g id="edge4" class="edge">
<title>Node4&#45;&gt;Node5</title>
<path fill="none" stroke="midnightblue" d="M684.4,-10C692.59,-10 701.14,-10 709.72,-10"/>
<polygon fill="midnightblue" stroke="midnightblue" points="709.78,-13.5 719.78,-10 709.78,-6.5 709.78,-13.5"/>
</g>
</g>
</svg>
