<?xml version="1.0" encoding="UTF-8" standalone="no"?>
<!DOCTYPE svg PUBLIC "-//W3C//DTD SVG 1.1//EN"
 "http://www.w3.org/Graphics/SVG/1.1/DTD/svg11.dtd">
<!-- Generated by graphviz version 2.43.0 (0)
 -->
<!-- Title: sylar::TcpServer Pages: 1 -->
<svg width="519pt" height="739pt"
 viewBox="0.00 0.00 518.50 739.00" xmlns="http://www.w3.org/2000/svg" xmlns:xlink="http://www.w3.org/1999/xlink">
<g id="graph0" class="graph" transform="scale(1 1) rotate(0) translate(4 735)">
<title>sylar::TcpServer</title>
<polygon fill="white" stroke="transparent" points="-4,4 -4,-735 514.5,-735 514.5,4 -4,4"/>
<!-- Node1 -->
<g id="node1" class="node">
<title>Node1</title>
<g id="a_node1"><a xlink:title="TCP服务器封装">
<polygon fill="#bfbfbf" stroke="black" points="153,-0.5 153,-244.5 269,-244.5 269,-0.5 153,-0.5"/>
<text text-anchor="middle" x="211" y="-232.5" font-family="Helvetica,sans-Serif" font-size="10.00">sylar::TcpServer</text>
<polyline fill="none" stroke="black" points="153,-225.5 269,-225.5 "/>
<text text-anchor="start" x="161" y="-213.5" font-family="Helvetica,sans-Serif" font-size="10.00"># m_socks</text>
<text text-anchor="start" x="161" y="-202.5" font-family="Helvetica,sans-Serif" font-size="10.00"># m_recvTimeout</text>
<text text-anchor="start" x="161" y="-191.5" font-family="Helvetica,sans-Serif" font-size="10.00"># m_name</text>
<text text-anchor="start" x="161" y="-180.5" font-family="Helvetica,sans-Serif" font-size="10.00"># m_type</text>
<text text-anchor="start" x="161" y="-169.5" font-family="Helvetica,sans-Serif" font-size="10.00"># m_isStop</text>
<polyline fill="none" stroke="black" points="153,-162.5 269,-162.5 "/>
<text text-anchor="start" x="161" y="-150.5" font-family="Helvetica,sans-Serif" font-size="10.00">+ TcpServer()</text>
<text text-anchor="start" x="161" y="-139.5" font-family="Helvetica,sans-Serif" font-size="10.00">+ ~TcpServer()</text>
<text text-anchor="start" x="161" y="-128.5" font-family="Helvetica,sans-Serif" font-size="10.00">+ bind()</text>
<text text-anchor="start" x="161" y="-117.5" font-family="Helvetica,sans-Serif" font-size="10.00">+ bind()</text>
<text text-anchor="start" x="161" y="-106.5" font-family="Helvetica,sans-Serif" font-size="10.00">+ start()</text>
<text text-anchor="start" x="161" y="-95.5" font-family="Helvetica,sans-Serif" font-size="10.00">+ stop()</text>
<text text-anchor="start" x="161" y="-84.5" font-family="Helvetica,sans-Serif" font-size="10.00">+ getRecvTimeout()</text>
<text text-anchor="start" x="161" y="-73.5" font-family="Helvetica,sans-Serif" font-size="10.00">+ getName()</text>
<text text-anchor="start" x="161" y="-62.5" font-family="Helvetica,sans-Serif" font-size="10.00">+ setRecvTimeout()</text>
<text text-anchor="start" x="161" y="-51.5" font-family="Helvetica,sans-Serif" font-size="10.00">+ setName()</text>
<text text-anchor="start" x="161" y="-40.5" font-family="Helvetica,sans-Serif" font-size="10.00">+ isStop()</text>
<text text-anchor="start" x="161" y="-29.5" font-family="Helvetica,sans-Serif" font-size="10.00">+ toString()</text>
<text text-anchor="start" x="161" y="-18.5" font-family="Helvetica,sans-Serif" font-size="10.00"># handleClient()</text>
<text text-anchor="start" x="161" y="-7.5" font-family="Helvetica,sans-Serif" font-size="10.00"># startAccept()</text>
</a>
</g>
</g>
<!-- Node2 -->
<g id="node2" class="node">
<title>Node2</title>
<g id="a_node2"><a xlink:title=" ">
<polygon fill="white" stroke="#bfbfbf" points="0,-364 0,-432 138,-432 138,-364 0,-364"/>
<text text-anchor="start" x="8" y="-420" font-family="Helvetica,sans-Serif" font-size="10.00">std::enable_shared</text>
<text text-anchor="middle" x="69" y="-409" font-family="Helvetica,sans-Serif" font-size="10.00">_from_this&lt; TcpServer &gt;</text>
<polyline fill="none" stroke="#bfbfbf" points="0,-402 138,-402 "/>
<text text-anchor="middle" x="69" y="-390" font-family="Helvetica,sans-Serif" font-size="10.00"> </text>
<polyline fill="none" stroke="#bfbfbf" points="0,-383 138,-383 "/>
<text text-anchor="middle" x="69" y="-371" font-family="Helvetica,sans-Serif" font-size="10.00"> </text>
</a>
</g>
</g>
<!-- Node2&#45;&gt;Node1 -->
<g id="edge1" class="edge">
<title>Node2&#45;&gt;Node1</title>
<path fill="none" stroke="midnightblue" d="M90.96,-354.7C107.52,-322.8 131.04,-277.5 152.88,-235.45"/>
<polygon fill="none" stroke="midnightblue" points="87.77,-353.25 86.27,-363.74 93.98,-356.47 87.77,-353.25"/>
</g>
<!-- Node3 -->
<g id="node3" class="node">
<title>Node3</title>
<g id="a_node3"><a xlink:href="classsylar_1_1Noncopyable.html" target="_top" xlink:title="对象无法拷贝,赋值">
<polygon fill="white" stroke="black" points="156,-353 156,-443 266,-443 266,-353 156,-353"/>
<text text-anchor="middle" x="211" y="-431" font-family="Helvetica,sans-Serif" font-size="10.00">sylar::Noncopyable</text>
<polyline fill="none" stroke="black" points="156,-424 266,-424 "/>
<text text-anchor="middle" x="211" y="-412" font-family="Helvetica,sans-Serif" font-size="10.00"> </text>
<polyline fill="none" stroke="black" points="156,-405 266,-405 "/>
<text text-anchor="start" x="164" y="-393" font-family="Helvetica,sans-Serif" font-size="10.00">+ Noncopyable()</text>
<text text-anchor="start" x="164" y="-382" font-family="Helvetica,sans-Serif" font-size="10.00">+ ~Noncopyable()</text>
<text text-anchor="start" x="164" y="-371" font-family="Helvetica,sans-Serif" font-size="10.00">+ Noncopyable()</text>
<text text-anchor="start" x="164" y="-360" font-family="Helvetica,sans-Serif" font-size="10.00">+ operator=()</text>
</a>
</g>
</g>
<!-- Node3&#45;&gt;Node1 -->
<g id="edge2" class="edge">
<title>Node3&#45;&gt;Node1</title>
<path fill="none" stroke="#8b1a1a" d="M211,-342.74C211,-314.59 211,-278.99 211,-244.71"/>
<polygon fill="none" stroke="#8b1a1a" points="207.5,-342.75 211,-352.75 214.5,-342.75 207.5,-342.75"/>
</g>
<!-- Node4 -->
<g id="node4" class="node">
<title>Node4</title>
<g id="a_node4"><a xlink:href="classsylar_1_1IOManager.html" target="_top" xlink:title=" ">
<polygon fill="white" stroke="black" points="284.5,-303.5 284.5,-492.5 435.5,-492.5 435.5,-303.5 284.5,-303.5"/>
<text text-anchor="middle" x="360" y="-480.5" font-family="Helvetica,sans-Serif" font-size="10.00">sylar::IOManager</text>
<polyline fill="none" stroke="black" points="284.5,-473.5 435.5,-473.5 "/>
<text text-anchor="middle" x="360" y="-461.5" font-family="Helvetica,sans-Serif" font-size="10.00"> </text>
<polyline fill="none" stroke="black" points="284.5,-454.5 435.5,-454.5 "/>
<text text-anchor="start" x="292.5" y="-442.5" font-family="Helvetica,sans-Serif" font-size="10.00">+ IOManager()</text>
<text text-anchor="start" x="292.5" y="-431.5" font-family="Helvetica,sans-Serif" font-size="10.00">+ ~IOManager()</text>
<text text-anchor="start" x="292.5" y="-420.5" font-family="Helvetica,sans-Serif" font-size="10.00">+ addEvent()</text>
<text text-anchor="start" x="292.5" y="-409.5" font-family="Helvetica,sans-Serif" font-size="10.00">+ delEvent()</text>
<text text-anchor="start" x="292.5" y="-398.5" font-family="Helvetica,sans-Serif" font-size="10.00">+ cancelEvent()</text>
<text text-anchor="start" x="292.5" y="-387.5" font-family="Helvetica,sans-Serif" font-size="10.00">+ cancelAll()</text>
<text text-anchor="start" x="292.5" y="-376.5" font-family="Helvetica,sans-Serif" font-size="10.00">+ GetThis()</text>
<text text-anchor="start" x="292.5" y="-365.5" font-family="Helvetica,sans-Serif" font-size="10.00"># tickle()</text>
<text text-anchor="start" x="292.5" y="-354.5" font-family="Helvetica,sans-Serif" font-size="10.00"># stopping()</text>
<text text-anchor="start" x="292.5" y="-343.5" font-family="Helvetica,sans-Serif" font-size="10.00"># idle()</text>
<text text-anchor="start" x="292.5" y="-332.5" font-family="Helvetica,sans-Serif" font-size="10.00"># stopping()</text>
<text text-anchor="start" x="292.5" y="-321.5" font-family="Helvetica,sans-Serif" font-size="10.00"># onTimerInsertedAtFront()</text>
<text text-anchor="start" x="292.5" y="-310.5" font-family="Helvetica,sans-Serif" font-size="10.00"># contextResize()</text>
</a>
</g>
</g>
<!-- Node4&#45;&gt;Node1 -->
<g id="edge3" class="edge">
<title>Node4&#45;&gt;Node1</title>
<path fill="none" stroke="#404040" d="M308.93,-303.26C298.03,-283.24 286.38,-261.86 275.06,-241.08"/>
<polygon fill="none" stroke="#404040" points="274.91,-240.81 268.53,-237.46 269.17,-230.28 275.55,-233.63 274.91,-240.81"/>
<text text-anchor="middle" x="345.5" y="-277" font-family="Helvetica,sans-Serif" font-size="10.00"> #m_acceptWorker</text>
<text text-anchor="middle" x="345.5" y="-266" font-family="Helvetica,sans-Serif" font-size="10.00">#m_ioWorker</text>
</g>
<!-- Node5 -->
<g id="node5" class="node">
<title>Node5</title>
<g id="a_node5"><a xlink:href="classsylar_1_1Scheduler.html" target="_top" xlink:title="协程调度器">
<polygon fill="white" stroke="black" points="231,-530.5 231,-730.5 341,-730.5 341,-530.5 231,-530.5"/>
<text text-anchor="middle" x="286" y="-718.5" font-family="Helvetica,sans-Serif" font-size="10.00">sylar::Scheduler</text>
<polyline fill="none" stroke="black" points="231,-711.5 341,-711.5 "/>
<text text-anchor="middle" x="286" y="-699.5" font-family="Helvetica,sans-Serif" font-size="10.00"> </text>
<polyline fill="none" stroke="black" points="231,-692.5 341,-692.5 "/>
<text text-anchor="start" x="239" y="-680.5" font-family="Helvetica,sans-Serif" font-size="10.00">+ Scheduler()</text>
<text text-anchor="start" x="239" y="-669.5" font-family="Helvetica,sans-Serif" font-size="10.00">+ ~Scheduler()</text>
<text text-anchor="start" x="239" y="-658.5" font-family="Helvetica,sans-Serif" font-size="10.00">+ getName()</text>
<text text-anchor="start" x="239" y="-647.5" font-family="Helvetica,sans-Serif" font-size="10.00">+ schedule()</text>
<text text-anchor="start" x="239" y="-636.5" font-family="Helvetica,sans-Serif" font-size="10.00">+ start()</text>
<text text-anchor="start" x="239" y="-625.5" font-family="Helvetica,sans-Serif" font-size="10.00">+ stop()</text>
<text text-anchor="start" x="239" y="-614.5" font-family="Helvetica,sans-Serif" font-size="10.00">+ GetThis()</text>
<text text-anchor="start" x="239" y="-603.5" font-family="Helvetica,sans-Serif" font-size="10.00">+ GetMainFiber()</text>
<text text-anchor="start" x="239" y="-592.5" font-family="Helvetica,sans-Serif" font-size="10.00"># tickle()</text>
<text text-anchor="start" x="239" y="-581.5" font-family="Helvetica,sans-Serif" font-size="10.00"># run()</text>
<text text-anchor="start" x="239" y="-570.5" font-family="Helvetica,sans-Serif" font-size="10.00"># idle()</text>
<text text-anchor="start" x="239" y="-559.5" font-family="Helvetica,sans-Serif" font-size="10.00"># stopping()</text>
<text text-anchor="start" x="239" y="-548.5" font-family="Helvetica,sans-Serif" font-size="10.00"># setThis()</text>
<text text-anchor="start" x="239" y="-537.5" font-family="Helvetica,sans-Serif" font-size="10.00"># hasIdleThreads()</text>
</a>
</g>
</g>
<!-- Node5&#45;&gt;Node4 -->
<g id="edge4" class="edge">
<title>Node5&#45;&gt;Node4</title>
<path fill="none" stroke="midnightblue" d="M320.95,-520.65C323.96,-511.25 327,-501.8 329.97,-492.54"/>
<polygon fill="none" stroke="midnightblue" points="317.54,-519.82 317.81,-530.41 324.2,-521.96 317.54,-519.82"/>
</g>
<!-- Node6 -->
<g id="node6" class="node">
<title>Node6</title>
<g id="a_node6"><a xlink:href="classsylar_1_1TimerManager.html" target="_top" xlink:title="定时器管理器">
<polygon fill="white" stroke="black" points="359.5,-558 359.5,-703 510.5,-703 510.5,-558 359.5,-558"/>
<text text-anchor="middle" x="435" y="-691" font-family="Helvetica,sans-Serif" font-size="10.00">sylar::TimerManager</text>
<polyline fill="none" stroke="black" points="359.5,-684 510.5,-684 "/>
<text text-anchor="middle" x="435" y="-672" font-family="Helvetica,sans-Serif" font-size="10.00"> </text>
<polyline fill="none" stroke="black" points="359.5,-665 510.5,-665 "/>
<text text-anchor="start" x="367.5" y="-653" font-family="Helvetica,sans-Serif" font-size="10.00">+ TimerManager()</text>
<text text-anchor="start" x="367.5" y="-642" font-family="Helvetica,sans-Serif" font-size="10.00">+ ~TimerManager()</text>
<text text-anchor="start" x="367.5" y="-631" font-family="Helvetica,sans-Serif" font-size="10.00">+ addTimer()</text>
<text text-anchor="start" x="367.5" y="-620" font-family="Helvetica,sans-Serif" font-size="10.00">+ addConditionTimer()</text>
<text text-anchor="start" x="367.5" y="-609" font-family="Helvetica,sans-Serif" font-size="10.00">+ getNextTimer()</text>
<text text-anchor="start" x="367.5" y="-598" font-family="Helvetica,sans-Serif" font-size="10.00">+ listExpiredCb()</text>
<text text-anchor="start" x="367.5" y="-587" font-family="Helvetica,sans-Serif" font-size="10.00">+ hasTimer()</text>
<text text-anchor="start" x="367.5" y="-576" font-family="Helvetica,sans-Serif" font-size="10.00"># onTimerInsertedAtFront()</text>
<text text-anchor="start" x="367.5" y="-565" font-family="Helvetica,sans-Serif" font-size="10.00"># addTimer()</text>
</a>
</g>
</g>
<!-- Node6&#45;&gt;Node4 -->
<g id="edge5" class="edge">
<title>Node6&#45;&gt;Node4</title>
<path fill="none" stroke="midnightblue" d="M408.49,-548.02C402.66,-530.12 396.45,-511.02 390.48,-492.68"/>
<polygon fill="none" stroke="midnightblue" points="405.26,-549.41 411.68,-557.83 411.91,-547.24 405.26,-549.41"/>
</g>
</g>
</svg>
