<?xml version="1.0" encoding="UTF-8" standalone="no"?>
<!DOCTYPE svg PUBLIC "-//W3C//DTD SVG 1.1//EN"
 "http://www.w3.org/Graphics/SVG/1.1/DTD/svg11.dtd">
<!-- Generated by graphviz version 2.43.0 (0)
 -->
<!-- Title: sylar::UnixAddress Pages: 1 -->
<svg width="154pt" height="402pt"
 viewBox="0.00 0.00 154.00 402.00" xmlns="http://www.w3.org/2000/svg" xmlns:xlink="http://www.w3.org/1999/xlink">
<g id="graph0" class="graph" transform="scale(1 1) rotate(0) translate(4 398)">
<title>sylar::UnixAddress</title>
<polygon fill="white" stroke="transparent" points="-4,4 -4,-398 150,-398 150,4 -4,4"/>
<!-- Node1 -->
<g id="node1" class="node">
<title>Node1</title>
<g id="a_node1"><a xlink:title="UnixSocket地址">
<polygon fill="#bfbfbf" stroke="black" points="19,-0.5 19,-134.5 127,-134.5 127,-0.5 19,-0.5"/>
<text text-anchor="middle" x="73" y="-122.5" font-family="Helvetica,sans-Serif" font-size="10.00">sylar::UnixAddress</text>
<polyline fill="none" stroke="black" points="19,-115.5 127,-115.5 "/>
<text text-anchor="middle" x="73" y="-103.5" font-family="Helvetica,sans-Serif" font-size="10.00"> </text>
<polyline fill="none" stroke="black" points="19,-96.5 127,-96.5 "/>
<text text-anchor="start" x="27" y="-84.5" font-family="Helvetica,sans-Serif" font-size="10.00">+ UnixAddress()</text>
<text text-anchor="start" x="27" y="-73.5" font-family="Helvetica,sans-Serif" font-size="10.00">+ UnixAddress()</text>
<text text-anchor="start" x="27" y="-62.5" font-family="Helvetica,sans-Serif" font-size="10.00">+ getAddr()</text>
<text text-anchor="start" x="27" y="-51.5" font-family="Helvetica,sans-Serif" font-size="10.00">+ getAddr()</text>
<text text-anchor="start" x="27" y="-40.5" font-family="Helvetica,sans-Serif" font-size="10.00">+ getAddrLen()</text>
<text text-anchor="start" x="27" y="-29.5" font-family="Helvetica,sans-Serif" font-size="10.00">+ setAddrLen()</text>
<text text-anchor="start" x="27" y="-18.5" font-family="Helvetica,sans-Serif" font-size="10.00">+ getPath()</text>
<text text-anchor="start" x="27" y="-7.5" font-family="Helvetica,sans-Serif" font-size="10.00">+ insert()</text>
</a>
</g>
</g>
<!-- Node2 -->
<g id="node2" class="node">
<title>Node2</title>
<g id="a_node2"><a xlink:href="classsylar_1_1Address.html" target="_top" xlink:title="网络地址的基类,抽象类">
<polygon fill="white" stroke="black" points="0,-171.5 0,-393.5 146,-393.5 146,-171.5 0,-171.5"/>
<text text-anchor="middle" x="73" y="-381.5" font-family="Helvetica,sans-Serif" font-size="10.00">sylar::Address</text>
<polyline fill="none" stroke="black" points="0,-374.5 146,-374.5 "/>
<text text-anchor="middle" x="73" y="-362.5" font-family="Helvetica,sans-Serif" font-size="10.00"> </text>
<polyline fill="none" stroke="black" points="0,-355.5 146,-355.5 "/>
<text text-anchor="start" x="8" y="-343.5" font-family="Helvetica,sans-Serif" font-size="10.00">+ ~Address()</text>
<text text-anchor="start" x="8" y="-332.5" font-family="Helvetica,sans-Serif" font-size="10.00">+ getFamily()</text>
<text text-anchor="start" x="8" y="-321.5" font-family="Helvetica,sans-Serif" font-size="10.00">+ getAddr()</text>
<text text-anchor="start" x="8" y="-310.5" font-family="Helvetica,sans-Serif" font-size="10.00">+ getAddr()</text>
<text text-anchor="start" x="8" y="-299.5" font-family="Helvetica,sans-Serif" font-size="10.00">+ getAddrLen()</text>
<text text-anchor="start" x="8" y="-288.5" font-family="Helvetica,sans-Serif" font-size="10.00">+ insert()</text>
<text text-anchor="start" x="8" y="-277.5" font-family="Helvetica,sans-Serif" font-size="10.00">+ toString()</text>
<text text-anchor="start" x="8" y="-266.5" font-family="Helvetica,sans-Serif" font-size="10.00">+ operator&lt;()</text>
<text text-anchor="start" x="8" y="-255.5" font-family="Helvetica,sans-Serif" font-size="10.00">+ operator==()</text>
<text text-anchor="start" x="8" y="-244.5" font-family="Helvetica,sans-Serif" font-size="10.00">+ operator!=()</text>
<text text-anchor="start" x="8" y="-233.5" font-family="Helvetica,sans-Serif" font-size="10.00">+ Create()</text>
<text text-anchor="start" x="8" y="-222.5" font-family="Helvetica,sans-Serif" font-size="10.00">+ Lookup()</text>
<text text-anchor="start" x="8" y="-211.5" font-family="Helvetica,sans-Serif" font-size="10.00">+ LookupAny()</text>
<text text-anchor="start" x="8" y="-200.5" font-family="Helvetica,sans-Serif" font-size="10.00">+ LookupAnyIPAddress()</text>
<text text-anchor="start" x="8" y="-189.5" font-family="Helvetica,sans-Serif" font-size="10.00">+ GetInterfaceAddresses()</text>
<text text-anchor="start" x="8" y="-178.5" font-family="Helvetica,sans-Serif" font-size="10.00">+ GetInterfaceAddresses()</text>
</a>
</g>
</g>
<!-- Node2&#45;&gt;Node1 -->
<g id="edge1" class="edge">
<title>Node2&#45;&gt;Node1</title>
<path fill="none" stroke="midnightblue" d="M73,-161.04C73,-152.04 73,-143.17 73,-134.69"/>
<polygon fill="none" stroke="midnightblue" points="69.5,-161.26 73,-171.26 76.5,-161.26 69.5,-161.26"/>
</g>
</g>
</svg>
