<?xml version="1.0" encoding="UTF-8" standalone="no"?>
<!DOCTYPE svg PUBLIC "-//W3C//DTD SVG 1.1//EN"
 "http://www.w3.org/Graphics/SVG/1.1/DTD/svg11.dtd">
<!-- Generated by graphviz version 2.43.0 (0)
 -->
<!-- Title: sylar::http::ServletCreator&lt; T &gt; Pages: 1 -->
<svg width="179pt" height="204pt"
 viewBox="0.00 0.00 179.00 204.00" xmlns="http://www.w3.org/2000/svg" xmlns:xlink="http://www.w3.org/1999/xlink">
<g id="graph0" class="graph" transform="scale(1 1) rotate(0) translate(4 200)">
<title>sylar::http::ServletCreator&lt; T &gt;</title>
<polygon fill="white" stroke="transparent" points="-4,4 -4,-200 175,-200 175,4 -4,4"/>
<!-- Node1 -->
<g id="node1" class="node">
<title>Node1</title>
<g id="a_node1"><a xlink:title=" ">
<polygon fill="#bfbfbf" stroke="black" points="0,-0.5 0,-79.5 171,-79.5 171,-0.5 0,-0.5"/>
<text text-anchor="middle" x="85.5" y="-67.5" font-family="Helvetica,sans-Serif" font-size="10.00">sylar::http::ServletCreator&lt; T &gt;</text>
<polyline fill="none" stroke="black" points="0,-60.5 171,-60.5 "/>
<text text-anchor="middle" x="85.5" y="-48.5" font-family="Helvetica,sans-Serif" font-size="10.00"> </text>
<polyline fill="none" stroke="black" points="0,-41.5 171,-41.5 "/>
<text text-anchor="start" x="8" y="-29.5" font-family="Helvetica,sans-Serif" font-size="10.00">+ ServletCreator()</text>
<text text-anchor="start" x="8" y="-18.5" font-family="Helvetica,sans-Serif" font-size="10.00">+ get()</text>
<text text-anchor="start" x="8" y="-7.5" font-family="Helvetica,sans-Serif" font-size="10.00">+ getName()</text>
</a>
</g>
</g>
<!-- Node2 -->
<g id="node2" class="node">
<title>Node2</title>
<g id="a_node2"><a xlink:href="classsylar_1_1http_1_1IServletCreator.html" target="_top" xlink:title=" ">
<polygon fill="white" stroke="black" points="12.5,-116.5 12.5,-195.5 158.5,-195.5 158.5,-116.5 12.5,-116.5"/>
<text text-anchor="middle" x="85.5" y="-183.5" font-family="Helvetica,sans-Serif" font-size="10.00">sylar::http::IServletCreator</text>
<polyline fill="none" stroke="black" points="12.5,-176.5 158.5,-176.5 "/>
<text text-anchor="middle" x="85.5" y="-164.5" font-family="Helvetica,sans-Serif" font-size="10.00"> </text>
<polyline fill="none" stroke="black" points="12.5,-157.5 158.5,-157.5 "/>
<text text-anchor="start" x="20.5" y="-145.5" font-family="Helvetica,sans-Serif" font-size="10.00">+ ~IServletCreator()</text>
<text text-anchor="start" x="20.5" y="-134.5" font-family="Helvetica,sans-Serif" font-size="10.00">+ get()</text>
<text text-anchor="start" x="20.5" y="-123.5" font-family="Helvetica,sans-Serif" font-size="10.00">+ getName()</text>
</a>
</g>
</g>
<!-- Node2&#45;&gt;Node1 -->
<g id="edge1" class="edge">
<title>Node2&#45;&gt;Node1</title>
<path fill="none" stroke="midnightblue" d="M85.5,-106.15C85.5,-97.26 85.5,-88.1 85.5,-79.56"/>
<polygon fill="none" stroke="midnightblue" points="82,-106.4 85.5,-116.4 89,-106.4 82,-106.4"/>
</g>
</g>
</svg>
