<?xml version="1.0" encoding="UTF-8" standalone="no"?>
<!DOCTYPE svg PUBLIC "-//W3C//DTD SVG 1.1//EN"
 "http://www.w3.org/Graphics/SVG/1.1/DTD/svg11.dtd">
<!-- Generated by graphviz version 2.43.0 (0)
 -->
<!-- Title: sylar::TcpServer::start Pages: 1 -->
<svg width="665pt" height="78pt"
 viewBox="0.00 0.00 665.00 77.50" xmlns="http://www.w3.org/2000/svg" xmlns:xlink="http://www.w3.org/1999/xlink">
<g id="graph0" class="graph" transform="scale(1 1) rotate(0) translate(4 73.5)">
<title>sylar::TcpServer::start</title>
<polygon fill="white" stroke="transparent" points="-4,4 -4,-73.5 661,-73.5 661,4 -4,4"/>
<!-- Node1 -->
<g id="node1" class="node">
<title>Node1</title>
<g id="a_node1"><a xlink:title="启动服务">
<polygon fill="#bfbfbf" stroke="black" points="0,-31 0,-50 122,-50 122,-31 0,-31"/>
<text text-anchor="middle" x="61" y="-38" font-family="Helvetica,sans-Serif" font-size="10.00">sylar::TcpServer::start</text>
</a>
</g>
</g>
<!-- Node2 -->
<g id="node2" class="node">
<title>Node2</title>
<g id="a_node2"><a xlink:href="classsylar_1_1Scheduler.html#acd54348eec0012357cb2b83a0010a534" target="_top" xlink:title="添加调度任务">
<polygon fill="white" stroke="black" points="349,-50 349,-69 493,-69 493,-50 349,-50"/>
<text text-anchor="middle" x="421" y="-57" font-family="Helvetica,sans-Serif" font-size="10.00">sylar::Scheduler::schedule</text>
</a>
</g>
</g>
<!-- Node1&#45;&gt;Node2 -->
<g id="edge1" class="edge">
<title>Node1&#45;&gt;Node2</title>
<path fill="none" stroke="midnightblue" d="M122.32,-43.7C181.72,-46.85 272.84,-51.69 338.62,-55.18"/>
<polygon fill="midnightblue" stroke="midnightblue" points="338.78,-58.69 348.95,-55.73 339.15,-51.7 338.78,-58.69"/>
</g>
<!-- Node4 -->
<g id="node4" class="node">
<title>Node4</title>
<g id="a_node4"><a xlink:href="classsylar_1_1TcpServer.html#a277af935368549fce8bc175ef1cacffe" target="_top" xlink:title="开始接受连接">
<polygon fill="white" stroke="black" points="158,-12 158,-31 313,-31 313,-12 158,-12"/>
<text text-anchor="middle" x="235.5" y="-19" font-family="Helvetica,sans-Serif" font-size="10.00">sylar::TcpServer::startAccept</text>
</a>
</g>
</g>
<!-- Node1&#45;&gt;Node4 -->
<g id="edge3" class="edge">
<title>Node1&#45;&gt;Node4</title>
<path fill="none" stroke="midnightblue" d="M122.33,-33.85C130.57,-32.95 139.16,-32 147.75,-31.05"/>
<polygon fill="midnightblue" stroke="midnightblue" points="148.27,-34.52 157.83,-29.95 147.5,-27.56 148.27,-34.52"/>
</g>
<!-- Node3 -->
<g id="node3" class="node">
<title>Node3</title>
<g id="a_node3"><a xlink:href="classsylar_1_1Scheduler.html#a142d8cd454d6a8471278506c335302ae" target="_top" xlink:title="通知协程调度器有任务了">
<polygon fill="white" stroke="black" points="529,-50 529,-69 657,-69 657,-50 529,-50"/>
<text text-anchor="middle" x="593" y="-57" font-family="Helvetica,sans-Serif" font-size="10.00">sylar::Scheduler::tickle</text>
</a>
</g>
</g>
<!-- Node2&#45;&gt;Node3 -->
<g id="edge2" class="edge">
<title>Node2&#45;&gt;Node3</title>
<path fill="none" stroke="midnightblue" d="M493.11,-59.5C501.52,-59.5 510.11,-59.5 518.56,-59.5"/>
<polygon fill="midnightblue" stroke="midnightblue" points="518.75,-63 528.75,-59.5 518.75,-56 518.75,-63"/>
</g>
<!-- Node4&#45;&gt;Node2 -->
<g id="edge5" class="edge">
<title>Node4&#45;&gt;Node2</title>
<path fill="none" stroke="midnightblue" d="M282.8,-31.09C307.46,-36.19 337.96,-42.51 363.94,-47.89"/>
<polygon fill="midnightblue" stroke="midnightblue" points="363.53,-51.38 374.03,-49.98 364.95,-44.52 363.53,-51.38"/>
</g>
<!-- Node5 -->
<g id="node5" class="node">
<title>Node5</title>
<g id="a_node5"><a xlink:href="classsylar_1_1TcpServer.html#aa1ef769ce19241eb8892748355612973" target="_top" xlink:title="处理新连接的Socket类">
<polygon fill="white" stroke="black" points="354.5,-0.5 354.5,-30.5 487.5,-30.5 487.5,-0.5 354.5,-0.5"/>
<text text-anchor="start" x="362.5" y="-18.5" font-family="Helvetica,sans-Serif" font-size="10.00">sylar::TcpServer::handle</text>
<text text-anchor="middle" x="421" y="-7.5" font-family="Helvetica,sans-Serif" font-size="10.00">Client</text>
</a>
</g>
</g>
<!-- Node4&#45;&gt;Node5 -->
<g id="edge4" class="edge">
<title>Node4&#45;&gt;Node5</title>
<path fill="none" stroke="midnightblue" d="M313.26,-18.99C323.5,-18.66 333.99,-18.31 344.21,-17.98"/>
<polygon fill="midnightblue" stroke="midnightblue" points="344.44,-21.47 354.32,-17.65 344.21,-14.48 344.44,-21.47"/>
</g>
</g>
</svg>
