<?xml version="1.0" encoding="UTF-8" standalone="no"?>
<!DOCTYPE svg PUBLIC "-//W3C//DTD SVG 1.1//EN"
 "http://www.w3.org/Graphics/SVG/1.1/DTD/svg11.dtd">
<!-- Generated by graphviz version 2.43.0 (0)
 -->
<!-- Title: sylar::TcpServer::bind Pages: 1 -->
<svg width="453pt" height="28pt"
 viewBox="0.00 0.00 453.00 28.00" xmlns="http://www.w3.org/2000/svg" xmlns:xlink="http://www.w3.org/1999/xlink">
<g id="graph0" class="graph" transform="scale(1 1) rotate(0) translate(4 24)">
<title>sylar::TcpServer::bind</title>
<polygon fill="white" stroke="transparent" points="-4,4 -4,-24 449,-24 449,4 -4,4"/>
<!-- Node1 -->
<g id="node1" class="node">
<title>Node1</title>
<g id="a_node1"><a xlink:title="绑定地址数组">
<polygon fill="#bfbfbf" stroke="black" points="0,-0.5 0,-19.5 121,-19.5 121,-0.5 0,-0.5"/>
<text text-anchor="middle" x="60.5" y="-7.5" font-family="Helvetica,sans-Serif" font-size="10.00">sylar::TcpServer::bind</text>
</a>
</g>
</g>
<!-- Node2 -->
<g id="node2" class="node">
<title>Node2</title>
<g id="a_node2"><a xlink:href="classsylar_1_1Socket.html#ad48fcf05aa5ddd94263634371edde7b1" target="_top" xlink:title="创建TCP Socket(满足地址类型)">
<polygon fill="white" stroke="black" points="157,-0.5 157,-19.5 292,-19.5 292,-0.5 157,-0.5"/>
<text text-anchor="middle" x="224.5" y="-7.5" font-family="Helvetica,sans-Serif" font-size="10.00">sylar::Socket::CreateTCP</text>
</a>
</g>
</g>
<!-- Node1&#45;&gt;Node2 -->
<g id="edge1" class="edge">
<title>Node1&#45;&gt;Node2</title>
<path fill="none" stroke="midnightblue" d="M121.36,-10C129.56,-10 138.08,-10 146.53,-10"/>
<polygon fill="midnightblue" stroke="midnightblue" points="146.79,-13.5 156.79,-10 146.79,-6.5 146.79,-13.5"/>
</g>
<!-- Node3 -->
<g id="node3" class="node">
<title>Node3</title>
<g id="a_node3"><a xlink:href="classsylar_1_1Socket.html#ad7d10ddda988d74a39f8ea80023933c6" target="_top" xlink:title="Socket构造函数">
<polygon fill="white" stroke="black" points="328,-0.5 328,-19.5 445,-19.5 445,-0.5 328,-0.5"/>
<text text-anchor="middle" x="386.5" y="-7.5" font-family="Helvetica,sans-Serif" font-size="10.00">sylar::Socket::Socket</text>
</a>
</g>
</g>
<!-- Node2&#45;&gt;Node3 -->
<g id="edge2" class="edge">
<title>Node2&#45;&gt;Node3</title>
<path fill="none" stroke="midnightblue" d="M292.43,-10C300.83,-10 309.43,-10 317.84,-10"/>
<polygon fill="midnightblue" stroke="midnightblue" points="317.98,-13.5 327.98,-10 317.98,-6.5 317.98,-13.5"/>
</g>
</g>
</svg>
