<?xml version="1.0" encoding="UTF-8" standalone="no"?>
<!DOCTYPE svg PUBLIC "-//W3C//DTD SVG 1.1//EN"
 "http://www.w3.org/Graphics/SVG/1.1/DTD/svg11.dtd">
<!-- Generated by graphviz version 2.43.0 (0)
 -->
<!-- Title: sylar::Fiber::resume Pages: 1 -->
<svg width="299pt" height="78pt"
 viewBox="0.00 0.00 299.00 77.50" xmlns="http://www.w3.org/2000/svg" xmlns:xlink="http://www.w3.org/1999/xlink">
<g id="graph0" class="graph" transform="scale(1 1) rotate(0) translate(4 73.5)">
<title>sylar::Fiber::resume</title>
<polygon fill="white" stroke="transparent" points="-4,4 -4,-73.5 295,-73.5 295,4 -4,4"/>
<!-- Node1 -->
<g id="node1" class="node">
<title>Node1</title>
<g id="a_node1"><a xlink:title="将当前协程切到到执行状态">
<polygon fill="#bfbfbf" stroke="black" points="0,-22.5 0,-41.5 113,-41.5 113,-22.5 0,-22.5"/>
<text text-anchor="middle" x="56.5" y="-29.5" font-family="Helvetica,sans-Serif" font-size="10.00">sylar::Fiber::resume</text>
</a>
</g>
</g>
<!-- Node2 -->
<g id="node2" class="node">
<title>Node2</title>
<g id="a_node2"><a xlink:href="classsylar_1_1Scheduler.html#a8b802736f5c20b477def0838b92804cf" target="_top" xlink:title="获取当前线程的主协程">
<polygon fill="white" stroke="black" points="149,-39 149,-69 291,-69 291,-39 149,-39"/>
<text text-anchor="start" x="157" y="-57" font-family="Helvetica,sans-Serif" font-size="10.00">sylar::Scheduler::GetMain</text>
<text text-anchor="middle" x="220" y="-46" font-family="Helvetica,sans-Serif" font-size="10.00">Fiber</text>
</a>
</g>
</g>
<!-- Node1&#45;&gt;Node2 -->
<g id="edge1" class="edge">
<title>Node1&#45;&gt;Node2</title>
<path fill="none" stroke="midnightblue" d="M113.08,-39.57C121.34,-40.7 130,-41.88 138.64,-43.05"/>
<polygon fill="midnightblue" stroke="midnightblue" points="138.39,-46.55 148.77,-44.43 139.33,-39.62 138.39,-46.55"/>
</g>
<!-- Node3 -->
<g id="node3" class="node">
<title>Node3</title>
<g id="a_node3"><a xlink:href="classsylar_1_1Fiber.html#a600311d8bef1d565f02373d425d7e482" target="_top" xlink:title="设置当前正在运行的协程，即设置线程局部变量t_fiber的值">
<polygon fill="white" stroke="black" points="163.5,-0.5 163.5,-19.5 276.5,-19.5 276.5,-0.5 163.5,-0.5"/>
<text text-anchor="middle" x="220" y="-7.5" font-family="Helvetica,sans-Serif" font-size="10.00">sylar::Fiber::SetThis</text>
</a>
</g>
</g>
<!-- Node1&#45;&gt;Node3 -->
<g id="edge2" class="edge">
<title>Node1&#45;&gt;Node3</title>
<path fill="none" stroke="midnightblue" d="M113.08,-24.43C126.02,-22.67 139.92,-20.77 153.26,-18.96"/>
<polygon fill="midnightblue" stroke="midnightblue" points="153.88,-22.4 163.32,-17.59 152.94,-15.47 153.88,-22.4"/>
</g>
</g>
</svg>
