<?xml version="1.0" encoding="UTF-8" standalone="no"?>
<!DOCTYPE svg PUBLIC "-//W3C//DTD SVG 1.1//EN"
 "http://www.w3.org/Graphics/SVG/1.1/DTD/svg11.dtd">
<!-- Generated by graphviz version 2.43.0 (0)
 -->
<!-- Title: sylar::http::NotFoundServlet Pages: 1 -->
<svg width="161pt" height="204pt"
 viewBox="0.00 0.00 161.00 204.00" xmlns="http://www.w3.org/2000/svg" xmlns:xlink="http://www.w3.org/1999/xlink">
<g id="graph0" class="graph" transform="scale(1 1) rotate(0) translate(4 200)">
<title>sylar::http::NotFoundServlet</title>
<polygon fill="white" stroke="transparent" points="-4,4 -4,-200 157,-200 157,4 -4,4"/>
<!-- Node1 -->
<g id="node1" class="node">
<title>Node1</title>
<g id="a_node1"><a xlink:title="NotFoundServlet(默认返回404)">
<polygon fill="#bfbfbf" stroke="black" points="0,-0.5 0,-68.5 153,-68.5 153,-0.5 0,-0.5"/>
<text text-anchor="middle" x="76.5" y="-56.5" font-family="Helvetica,sans-Serif" font-size="10.00">sylar::http::NotFoundServlet</text>
<polyline fill="none" stroke="black" points="0,-49.5 153,-49.5 "/>
<text text-anchor="middle" x="76.5" y="-37.5" font-family="Helvetica,sans-Serif" font-size="10.00"> </text>
<polyline fill="none" stroke="black" points="0,-30.5 153,-30.5 "/>
<text text-anchor="start" x="8" y="-18.5" font-family="Helvetica,sans-Serif" font-size="10.00">+ NotFoundServlet()</text>
<text text-anchor="start" x="8" y="-7.5" font-family="Helvetica,sans-Serif" font-size="10.00">+ handle()</text>
</a>
</g>
</g>
<!-- Node2 -->
<g id="node2" class="node">
<title>Node2</title>
<g id="a_node2"><a xlink:href="classsylar_1_1http_1_1Servlet.html" target="_top" xlink:title="Servlet封装">
<polygon fill="white" stroke="black" points="23,-105.5 23,-195.5 130,-195.5 130,-105.5 23,-105.5"/>
<text text-anchor="middle" x="76.5" y="-183.5" font-family="Helvetica,sans-Serif" font-size="10.00">sylar::http::Servlet</text>
<polyline fill="none" stroke="black" points="23,-176.5 130,-176.5 "/>
<text text-anchor="start" x="31" y="-164.5" font-family="Helvetica,sans-Serif" font-size="10.00"># m_name</text>
<polyline fill="none" stroke="black" points="23,-157.5 130,-157.5 "/>
<text text-anchor="start" x="31" y="-145.5" font-family="Helvetica,sans-Serif" font-size="10.00">+ Servlet()</text>
<text text-anchor="start" x="31" y="-134.5" font-family="Helvetica,sans-Serif" font-size="10.00">+ ~Servlet()</text>
<text text-anchor="start" x="31" y="-123.5" font-family="Helvetica,sans-Serif" font-size="10.00">+ handle()</text>
<text text-anchor="start" x="31" y="-112.5" font-family="Helvetica,sans-Serif" font-size="10.00">+ getName()</text>
</a>
</g>
</g>
<!-- Node2&#45;&gt;Node1 -->
<g id="edge1" class="edge">
<title>Node2&#45;&gt;Node1</title>
<path fill="none" stroke="midnightblue" d="M76.5,-95.32C76.5,-86.28 76.5,-77.16 76.5,-68.85"/>
<polygon fill="none" stroke="midnightblue" points="73,-95.42 76.5,-105.42 80,-95.42 73,-95.42"/>
</g>
</g>
</svg>
