<?xml version="1.0" encoding="UTF-8" standalone="no"?>
<!DOCTYPE svg PUBLIC "-//W3C//DTD SVG 1.1//EN"
 "http://www.w3.org/Graphics/SVG/1.1/DTD/svg11.dtd">
<!-- Generated by graphviz version 2.43.0 (0)
 -->
<!-- Title: sylar::ByteArray::readUint32 Pages: 1 -->
<svg width="706pt" height="28pt"
 viewBox="0.00 0.00 706.00 28.00" xmlns="http://www.w3.org/2000/svg" xmlns:xlink="http://www.w3.org/1999/xlink">
<g id="graph0" class="graph" transform="scale(1 1) rotate(0) translate(4 24)">
<title>sylar::ByteArray::readUint32</title>
<polygon fill="white" stroke="transparent" points="-4,4 -4,-24 702,-24 702,4 -4,4"/>
<!-- Node1 -->
<g id="node1" class="node">
<title>Node1</title>
<g id="a_node1"><a xlink:title="读取无符号Varint32类型的数据">
<polygon fill="#bfbfbf" stroke="black" points="0,-0.5 0,-19.5 155,-19.5 155,-0.5 0,-0.5"/>
<text text-anchor="middle" x="77.5" y="-7.5" font-family="Helvetica,sans-Serif" font-size="10.00">sylar::ByteArray::readUint32</text>
</a>
</g>
</g>
<!-- Node2 -->
<g id="node2" class="node">
<title>Node2</title>
<g id="a_node2"><a xlink:href="classsylar_1_1ByteArray.html#aa68fb27eef571c42e4dabdc1331a59d6" target="_top" xlink:title="读取uint8_t类型的数据">
<polygon fill="white" stroke="black" points="191,-0.5 191,-19.5 343,-19.5 343,-0.5 191,-0.5"/>
<text text-anchor="middle" x="267" y="-7.5" font-family="Helvetica,sans-Serif" font-size="10.00">sylar::ByteArray::readFuint8</text>
</a>
</g>
</g>
<!-- Node1&#45;&gt;Node2 -->
<g id="edge1" class="edge">
<title>Node1&#45;&gt;Node2</title>
<path fill="none" stroke="midnightblue" d="M155.03,-10C163.55,-10 172.26,-10 180.87,-10"/>
<polygon fill="midnightblue" stroke="midnightblue" points="180.92,-13.5 190.92,-10 180.92,-6.5 180.92,-13.5"/>
</g>
<!-- Node3 -->
<g id="node3" class="node">
<title>Node3</title>
<g id="a_node3"><a xlink:href="classsylar_1_1ByteArray.html#add0a86b9e7ac29fe11e9a9efc3f25699" target="_top" xlink:title="读取size长度的数据">
<polygon fill="white" stroke="black" points="379,-0.5 379,-19.5 501,-19.5 501,-0.5 379,-0.5"/>
<text text-anchor="middle" x="440" y="-7.5" font-family="Helvetica,sans-Serif" font-size="10.00">sylar::ByteArray::read</text>
</a>
</g>
</g>
<!-- Node2&#45;&gt;Node3 -->
<g id="edge2" class="edge">
<title>Node2&#45;&gt;Node3</title>
<path fill="none" stroke="midnightblue" d="M343,-10C351.55,-10 360.24,-10 368.73,-10"/>
<polygon fill="midnightblue" stroke="midnightblue" points="368.95,-13.5 378.95,-10 368.95,-6.5 368.95,-13.5"/>
</g>
<!-- Node4 -->
<g id="node4" class="node">
<title>Node4</title>
<g id="a_node4"><a xlink:href="classsylar_1_1ByteArray.html#a763d792f91cfd84072692ac0cdef8efc" target="_top" xlink:title="返回可读取数据大小">
<polygon fill="white" stroke="black" points="537,-0.5 537,-19.5 698,-19.5 698,-0.5 537,-0.5"/>
<text text-anchor="middle" x="617.5" y="-7.5" font-family="Helvetica,sans-Serif" font-size="10.00">sylar::ByteArray::getReadSize</text>
</a>
</g>
</g>
<!-- Node3&#45;&gt;Node4 -->
<g id="edge3" class="edge">
<title>Node3&#45;&gt;Node4</title>
<path fill="none" stroke="midnightblue" d="M501.4,-10C509.59,-10 518.14,-10 526.72,-10"/>
<polygon fill="midnightblue" stroke="midnightblue" points="526.78,-13.5 536.78,-10 526.78,-6.5 526.78,-13.5"/>
</g>
</g>
</svg>
