<?xml version="1.0" encoding="UTF-8" standalone="no"?>
<!DOCTYPE svg PUBLIC "-//W3C//DTD SVG 1.1//EN"
 "http://www.w3.org/Graphics/SVG/1.1/DTD/svg11.dtd">
<!-- Generated by graphviz version 2.43.0 (0)
 -->
<!-- Title: sylar::Fiber::yield Pages: 1 -->
<svg width="287pt" height="78pt"
 viewBox="0.00 0.00 287.00 77.50" xmlns="http://www.w3.org/2000/svg" xmlns:xlink="http://www.w3.org/1999/xlink">
<g id="graph0" class="graph" transform="scale(1 1) rotate(0) translate(4 73.5)">
<title>sylar::Fiber::yield</title>
<polygon fill="white" stroke="transparent" points="-4,4 -4,-73.5 283,-73.5 283,4 -4,4"/>
<!-- Node1 -->
<g id="node1" class="node">
<title>Node1</title>
<g id="a_node1"><a xlink:title="当前协程让出执行权">
<polygon fill="#bfbfbf" stroke="black" points="0,-22.5 0,-41.5 101,-41.5 101,-22.5 0,-22.5"/>
<text text-anchor="middle" x="50.5" y="-29.5" font-family="Helvetica,sans-Serif" font-size="10.00">sylar::Fiber::yield</text>
</a>
</g>
</g>
<!-- Node2 -->
<g id="node2" class="node">
<title>Node2</title>
<g id="a_node2"><a xlink:href="classsylar_1_1Scheduler.html#a8b802736f5c20b477def0838b92804cf" target="_top" xlink:title="获取当前线程的主协程">
<polygon fill="white" stroke="black" points="137,-39 137,-69 279,-69 279,-39 137,-39"/>
<text text-anchor="start" x="145" y="-57" font-family="Helvetica,sans-Serif" font-size="10.00">sylar::Scheduler::GetMain</text>
<text text-anchor="middle" x="208" y="-46" font-family="Helvetica,sans-Serif" font-size="10.00">Fiber</text>
</a>
</g>
</g>
<!-- Node1&#45;&gt;Node2 -->
<g id="edge1" class="edge">
<title>Node1&#45;&gt;Node2</title>
<path fill="none" stroke="midnightblue" d="M101.13,-39.02C109.39,-40.19 118.15,-41.43 126.95,-42.67"/>
<polygon fill="midnightblue" stroke="midnightblue" points="126.48,-46.14 136.87,-44.08 127.46,-39.21 126.48,-46.14"/>
</g>
<!-- Node3 -->
<g id="node3" class="node">
<title>Node3</title>
<g id="a_node3"><a xlink:href="classsylar_1_1Fiber.html#a600311d8bef1d565f02373d425d7e482" target="_top" xlink:title="设置当前正在运行的协程，即设置线程局部变量t_fiber的值">
<polygon fill="white" stroke="black" points="151.5,-0.5 151.5,-19.5 264.5,-19.5 264.5,-0.5 151.5,-0.5"/>
<text text-anchor="middle" x="208" y="-7.5" font-family="Helvetica,sans-Serif" font-size="10.00">sylar::Fiber::SetThis</text>
</a>
</g>
</g>
<!-- Node1&#45;&gt;Node3 -->
<g id="edge2" class="edge">
<title>Node1&#45;&gt;Node3</title>
<path fill="none" stroke="midnightblue" d="M101.13,-24.98C113.88,-23.17 127.79,-21.21 141.22,-19.31"/>
<polygon fill="midnightblue" stroke="midnightblue" points="141.95,-22.74 151.37,-17.87 140.97,-15.81 141.95,-22.74"/>
</g>
</g>
</svg>
