<?xml version="1.0" encoding="UTF-8" standalone="no"?>
<!DOCTYPE svg PUBLIC "-//W3C//DTD SVG 1.1//EN"
 "http://www.w3.org/Graphics/SVG/1.1/DTD/svg11.dtd">
<!-- Generated by graphviz version 2.43.0 (0)
 -->
<!-- Title: sylar::http::HttpRequest::dump Pages: 1 -->
<svg width="317pt" height="57pt"
 viewBox="0.00 0.00 317.00 57.00" xmlns="http://www.w3.org/2000/svg" xmlns:xlink="http://www.w3.org/1999/xlink">
<g id="graph0" class="graph" transform="scale(1 1) rotate(0) translate(4 53)">
<title>sylar::http::HttpRequest::dump</title>
<polygon fill="white" stroke="transparent" points="-4,4 -4,-53 313,-53 313,4 -4,4"/>
<!-- Node1 -->
<g id="node1" class="node">
<title>Node1</title>
<g id="a_node1"><a xlink:title="序列化输出到流中">
<polygon fill="#bfbfbf" stroke="black" points="0,-0.5 0,-30.5 133,-30.5 133,-0.5 0,-0.5"/>
<text text-anchor="start" x="8" y="-18.5" font-family="Helvetica,sans-Serif" font-size="10.00">sylar::http::HttpRequest</text>
<text text-anchor="middle" x="66.5" y="-7.5" font-family="Helvetica,sans-Serif" font-size="10.00">::dump</text>
</a>
</g>
</g>
<!-- Node2 -->
<g id="node2" class="node">
<title>Node2</title>
<g id="a_node2"><a xlink:href="http_8cc.html#a371c464090835dffd6f29dd618cdb01c" target="_top" xlink:title="将HTTP方法枚举转换成字符串">
<polygon fill="white" stroke="black" points="169,-0.5 169,-30.5 309,-30.5 309,-0.5 169,-0.5"/>
<text text-anchor="start" x="177" y="-18.5" font-family="Helvetica,sans-Serif" font-size="10.00">sylar::http::HttpMethodTo</text>
<text text-anchor="middle" x="239" y="-7.5" font-family="Helvetica,sans-Serif" font-size="10.00">String</text>
</a>
</g>
</g>
<!-- Node1&#45;&gt;Node2 -->
<g id="edge1" class="edge">
<title>Node1&#45;&gt;Node2</title>
<path fill="none" stroke="midnightblue" d="M133.42,-15.5C141.68,-15.5 150.2,-15.5 158.64,-15.5"/>
<polygon fill="midnightblue" stroke="midnightblue" points="158.87,-19 168.87,-15.5 158.87,-12 158.87,-19"/>
</g>
<!-- Node2&#45;&gt;Node2 -->
<g id="edge2" class="edge">
<title>Node2&#45;&gt;Node2</title>
<path fill="none" stroke="midnightblue" d="M209.03,-30.66C201.8,-40.06 211.79,-49 239,-49 255.58,-49 265.77,-45.68 269.56,-40.96"/>
<polygon fill="midnightblue" stroke="midnightblue" points="273.04,-40.44 268.97,-30.66 266.05,-40.84 273.04,-40.44"/>
</g>
</g>
</svg>
