<?xml version="1.0" encoding="UTF-8" standalone="no"?>
<!DOCTYPE svg PUBLIC "-//W3C//DTD SVG 1.1//EN"
 "http://www.w3.org/Graphics/SVG/1.1/DTD/svg11.dtd">
<!-- Generated by graphviz version 2.43.0 (0)
 -->
<!-- Title: sylar::FSUtil::Symlink Pages: 1 -->
<svg width="412pt" height="28pt"
 viewBox="0.00 0.00 412.00 28.00" xmlns="http://www.w3.org/2000/svg" xmlns:xlink="http://www.w3.org/1999/xlink">
<g id="graph0" class="graph" transform="scale(1 1) rotate(0) translate(4 24)">
<title>sylar::FSUtil::Symlink</title>
<polygon fill="white" stroke="transparent" points="-4,4 -4,-24 408,-24 408,4 -4,4"/>
<!-- Node1 -->
<g id="node1" class="node">
<title>Node1</title>
<g id="a_node1"><a xlink:title="创建符号链接，参考symlink(2)">
<polygon fill="#bfbfbf" stroke="black" points="0,-0.5 0,-19.5 121,-19.5 121,-0.5 0,-0.5"/>
<text text-anchor="middle" x="60.5" y="-7.5" font-family="Helvetica,sans-Serif" font-size="10.00">sylar::FSUtil::Symlink</text>
</a>
</g>
</g>
<!-- Node2 -->
<g id="node2" class="node">
<title>Node2</title>
<g id="a_node2"><a xlink:href="classsylar_1_1FSUtil.html#a2c75a0dcd9a33a0a4e643df37237309b" target="_top" xlink:title="删除文件或路径">
<polygon fill="white" stroke="black" points="157,-0.5 157,-19.5 255,-19.5 255,-0.5 157,-0.5"/>
<text text-anchor="middle" x="206" y="-7.5" font-family="Helvetica,sans-Serif" font-size="10.00">sylar::FSUtil::Rm</text>
</a>
</g>
</g>
<!-- Node1&#45;&gt;Node2 -->
<g id="edge1" class="edge">
<title>Node1&#45;&gt;Node2</title>
<path fill="none" stroke="midnightblue" d="M121.11,-10C129.54,-10 138.2,-10 146.61,-10"/>
<polygon fill="midnightblue" stroke="midnightblue" points="146.71,-13.5 156.71,-10 146.71,-6.5 146.71,-13.5"/>
</g>
<!-- Node3 -->
<g id="node3" class="node">
<title>Node3</title>
<g id="a_node3"><a xlink:href="classsylar_1_1FSUtil.html#a02e6f68ccc238f7984e3085bd2a2f2c5" target="_top" xlink:title="删除文件，参考unlink(2)">
<polygon fill="white" stroke="black" points="291,-0.5 291,-19.5 404,-19.5 404,-0.5 291,-0.5"/>
<text text-anchor="middle" x="347.5" y="-7.5" font-family="Helvetica,sans-Serif" font-size="10.00">sylar::FSUtil::Unlink</text>
</a>
</g>
</g>
<!-- Node2&#45;&gt;Node3 -->
<g id="edge2" class="edge">
<title>Node2&#45;&gt;Node3</title>
<path fill="none" stroke="midnightblue" d="M255.01,-10C263.28,-10 272,-10 280.65,-10"/>
<polygon fill="midnightblue" stroke="midnightblue" points="280.72,-13.5 290.72,-10 280.72,-6.5 280.72,-13.5"/>
</g>
</g>
</svg>
