<?xml version="1.0" encoding="UTF-8" standalone="no"?>
<!DOCTYPE svg PUBLIC "-//W3C//DTD SVG 1.1//EN"
 "http://www.w3.org/Graphics/SVG/1.1/DTD/svg11.dtd">
<!-- Generated by graphviz version 2.43.0 (0)
 -->
<!-- Title: sylar::http::HttpResponse::getHeaderAs Pages: 1 -->
<svg width="284pt" height="52pt"
 viewBox="0.00 0.00 284.00 51.50" xmlns="http://www.w3.org/2000/svg" xmlns:xlink="http://www.w3.org/1999/xlink">
<g id="graph0" class="graph" transform="scale(1 1) rotate(0) translate(4 47.5)">
<title>sylar::http::HttpResponse::getHeaderAs</title>
<polygon fill="white" stroke="transparent" points="-4,4 -4,-47.5 280,-47.5 280,4 -4,4"/>
<!-- Node1 -->
<g id="node1" class="node">
<title>Node1</title>
<g id="a_node1"><a xlink:title="获取响应的头部参数">
<polygon fill="#bfbfbf" stroke="black" points="0,-0.5 0,-30.5 140,-30.5 140,-0.5 0,-0.5"/>
<text text-anchor="start" x="8" y="-18.5" font-family="Helvetica,sans-Serif" font-size="10.00">sylar::http::HttpResponse</text>
<text text-anchor="middle" x="70" y="-7.5" font-family="Helvetica,sans-Serif" font-size="10.00">::getHeaderAs</text>
</a>
</g>
</g>
<!-- Node2 -->
<g id="node2" class="node">
<title>Node2</title>
<g id="a_node2"><a xlink:href="http_8h.html#a80a3a1218593d2a5e4613d9900c3b387" target="_top" xlink:title="获取Map中的key值,并转成对应类型">
<polygon fill="white" stroke="black" points="176,-6 176,-25 276,-25 276,-6 176,-6"/>
<text text-anchor="middle" x="226" y="-13" font-family="Helvetica,sans-Serif" font-size="10.00">sylar::http::getAs</text>
</a>
</g>
</g>
<!-- Node1&#45;&gt;Node2 -->
<g id="edge1" class="edge">
<title>Node1&#45;&gt;Node2</title>
<path fill="none" stroke="midnightblue" d="M140.34,-15.5C148.86,-15.5 157.49,-15.5 165.84,-15.5"/>
<polygon fill="midnightblue" stroke="midnightblue" points="165.84,-19 175.84,-15.5 165.84,-12 165.84,-19"/>
</g>
<!-- Node2&#45;&gt;Node2 -->
<g id="edge2" class="edge">
<title>Node2&#45;&gt;Node2</title>
<path fill="none" stroke="midnightblue" d="M201.96,-25.26C190.26,-34.07 198.27,-43.5 226,-43.5 244.2,-43.5 253.9,-39.44 255.12,-34.15"/>
<polygon fill="midnightblue" stroke="midnightblue" points="258.04,-32.21 250.04,-25.26 251.96,-35.68 258.04,-32.21"/>
</g>
</g>
</svg>
