<?xml version="1.0" encoding="UTF-8" standalone="no"?>
<!DOCTYPE svg PUBLIC "-//W3C//DTD SVG 1.1//EN"
 "http://www.w3.org/Graphics/SVG/1.1/DTD/svg11.dtd">
<!-- Generated by graphviz version 2.43.0 (0)
 -->
<!-- Title: sylar::Noncopyable Pages: 1 -->
<svg width="1173pt" height="628pt"
 viewBox="0.00 0.00 1172.50 628.00" xmlns="http://www.w3.org/2000/svg" xmlns:xlink="http://www.w3.org/1999/xlink">
<g id="graph0" class="graph" transform="scale(1 1) rotate(0) translate(4 624)">
<title>sylar::Noncopyable</title>
<polygon fill="white" stroke="transparent" points="-4,4 -4,-624 1168.5,-624 1168.5,4 -4,4"/>
<!-- Node1 -->
<g id="node1" class="node">
<title>Node1</title>
<g id="a_node1"><a xlink:title="对象无法拷贝,赋值">
<polygon fill="#bfbfbf" stroke="black" points="498.5,-529.5 498.5,-619.5 608.5,-619.5 608.5,-529.5 498.5,-529.5"/>
<text text-anchor="middle" x="553.5" y="-607.5" font-family="Helvetica,sans-Serif" font-size="10.00">sylar::Noncopyable</text>
<polyline fill="none" stroke="black" points="498.5,-600.5 608.5,-600.5 "/>
<text text-anchor="middle" x="553.5" y="-588.5" font-family="Helvetica,sans-Serif" font-size="10.00"> </text>
<polyline fill="none" stroke="black" points="498.5,-581.5 608.5,-581.5 "/>
<text text-anchor="start" x="506.5" y="-569.5" font-family="Helvetica,sans-Serif" font-size="10.00">+ Noncopyable()</text>
<text text-anchor="start" x="506.5" y="-558.5" font-family="Helvetica,sans-Serif" font-size="10.00">+ ~Noncopyable()</text>
<text text-anchor="start" x="506.5" y="-547.5" font-family="Helvetica,sans-Serif" font-size="10.00">+ Noncopyable()</text>
<text text-anchor="start" x="506.5" y="-536.5" font-family="Helvetica,sans-Serif" font-size="10.00">+ operator=()</text>
</a>
</g>
</g>
<!-- Node2 -->
<g id="node2" class="node">
<title>Node2</title>
<g id="a_node2"><a xlink:href="classsylar_1_1CASLock.html" target="_top" xlink:title="原子锁">
<polygon fill="white" stroke="black" points="0,-270.5 0,-360.5 89,-360.5 89,-270.5 0,-270.5"/>
<text text-anchor="middle" x="44.5" y="-348.5" font-family="Helvetica,sans-Serif" font-size="10.00">sylar::CASLock</text>
<polyline fill="none" stroke="black" points="0,-341.5 89,-341.5 "/>
<text text-anchor="middle" x="44.5" y="-329.5" font-family="Helvetica,sans-Serif" font-size="10.00"> </text>
<polyline fill="none" stroke="black" points="0,-322.5 89,-322.5 "/>
<text text-anchor="start" x="8" y="-310.5" font-family="Helvetica,sans-Serif" font-size="10.00">+ CASLock()</text>
<text text-anchor="start" x="8" y="-299.5" font-family="Helvetica,sans-Serif" font-size="10.00">+ ~CASLock()</text>
<text text-anchor="start" x="8" y="-288.5" font-family="Helvetica,sans-Serif" font-size="10.00">+ lock()</text>
<text text-anchor="start" x="8" y="-277.5" font-family="Helvetica,sans-Serif" font-size="10.00">+ unlock()</text>
</a>
</g>
</g>
<!-- Node1&#45;&gt;Node2 -->
<g id="edge1" class="edge">
<title>Node1&#45;&gt;Node2</title>
<path fill="none" stroke="#8b1a1a" d="M487.98,-570.23C375.99,-563.32 154.3,-543.51 97.5,-493 60.09,-459.72 48.61,-401.17 45.34,-360.68"/>
<polygon fill="none" stroke="#8b1a1a" points="487.95,-573.73 498.14,-570.84 488.37,-566.75 487.95,-573.73"/>
</g>
<!-- Node3 -->
<g id="node3" class="node">
<title>Node3</title>
<g id="a_node3"><a xlink:href="classsylar_1_1Mutex.html" target="_top" xlink:title="互斥量">
<polygon fill="white" stroke="black" points="107,-270.5 107,-360.5 184,-360.5 184,-270.5 107,-270.5"/>
<text text-anchor="middle" x="145.5" y="-348.5" font-family="Helvetica,sans-Serif" font-size="10.00">sylar::Mutex</text>
<polyline fill="none" stroke="black" points="107,-341.5 184,-341.5 "/>
<text text-anchor="middle" x="145.5" y="-329.5" font-family="Helvetica,sans-Serif" font-size="10.00"> </text>
<polyline fill="none" stroke="black" points="107,-322.5 184,-322.5 "/>
<text text-anchor="start" x="115" y="-310.5" font-family="Helvetica,sans-Serif" font-size="10.00">+ Mutex()</text>
<text text-anchor="start" x="115" y="-299.5" font-family="Helvetica,sans-Serif" font-size="10.00">+ ~Mutex()</text>
<text text-anchor="start" x="115" y="-288.5" font-family="Helvetica,sans-Serif" font-size="10.00">+ lock()</text>
<text text-anchor="start" x="115" y="-277.5" font-family="Helvetica,sans-Serif" font-size="10.00">+ unlock()</text>
</a>
</g>
</g>
<!-- Node1&#45;&gt;Node3 -->
<g id="edge2" class="edge">
<title>Node1&#45;&gt;Node3</title>
<path fill="none" stroke="#8b1a1a" d="M488.34,-567.05C396.16,-556.62 234.25,-533.08 192.5,-493 156.81,-458.74 147.17,-400.7 145.08,-360.57"/>
<polygon fill="none" stroke="#8b1a1a" points="488.07,-570.54 498.4,-568.17 488.85,-563.59 488.07,-570.54"/>
</g>
<!-- Node4 -->
<g id="node4" class="node">
<title>Node4</title>
<g id="a_node4"><a xlink:href="classsylar_1_1NullMutex.html" target="_top" xlink:title="空锁(用于调试)">
<polygon fill="white" stroke="black" points="202,-270.5 202,-360.5 299,-360.5 299,-270.5 202,-270.5"/>
<text text-anchor="middle" x="250.5" y="-348.5" font-family="Helvetica,sans-Serif" font-size="10.00">sylar::NullMutex</text>
<polyline fill="none" stroke="black" points="202,-341.5 299,-341.5 "/>
<text text-anchor="middle" x="250.5" y="-329.5" font-family="Helvetica,sans-Serif" font-size="10.00"> </text>
<polyline fill="none" stroke="black" points="202,-322.5 299,-322.5 "/>
<text text-anchor="start" x="210" y="-310.5" font-family="Helvetica,sans-Serif" font-size="10.00">+ NullMutex()</text>
<text text-anchor="start" x="210" y="-299.5" font-family="Helvetica,sans-Serif" font-size="10.00">+ ~NullMutex()</text>
<text text-anchor="start" x="210" y="-288.5" font-family="Helvetica,sans-Serif" font-size="10.00">+ lock()</text>
<text text-anchor="start" x="210" y="-277.5" font-family="Helvetica,sans-Serif" font-size="10.00">+ unlock()</text>
</a>
</g>
</g>
<!-- Node1&#45;&gt;Node4 -->
<g id="edge3" class="edge">
<title>Node1&#45;&gt;Node4</title>
<path fill="none" stroke="#8b1a1a" d="M488.34,-568.37C433.19,-560.65 355.64,-541.33 307.5,-493 272.28,-457.64 258.81,-400.39 253.67,-360.73"/>
<polygon fill="none" stroke="#8b1a1a" points="488,-571.85 498.36,-569.68 488.9,-564.91 488,-571.85"/>
</g>
<!-- Node5 -->
<g id="node5" class="node">
<title>Node5</title>
<g id="a_node5"><a xlink:href="classsylar_1_1NullRWMutex.html" target="_top" xlink:title="空读写锁(用于调试)">
<polygon fill="white" stroke="black" points="317,-265 317,-366 430,-366 430,-265 317,-265"/>
<text text-anchor="middle" x="373.5" y="-354" font-family="Helvetica,sans-Serif" font-size="10.00">sylar::NullRWMutex</text>
<polyline fill="none" stroke="black" points="317,-347 430,-347 "/>
<text text-anchor="middle" x="373.5" y="-335" font-family="Helvetica,sans-Serif" font-size="10.00"> </text>
<polyline fill="none" stroke="black" points="317,-328 430,-328 "/>
<text text-anchor="start" x="325" y="-316" font-family="Helvetica,sans-Serif" font-size="10.00">+ NullRWMutex()</text>
<text text-anchor="start" x="325" y="-305" font-family="Helvetica,sans-Serif" font-size="10.00">+ ~NullRWMutex()</text>
<text text-anchor="start" x="325" y="-294" font-family="Helvetica,sans-Serif" font-size="10.00">+ rdlock()</text>
<text text-anchor="start" x="325" y="-283" font-family="Helvetica,sans-Serif" font-size="10.00">+ wrlock()</text>
<text text-anchor="start" x="325" y="-272" font-family="Helvetica,sans-Serif" font-size="10.00">+ unlock()</text>
</a>
</g>
</g>
<!-- Node1&#45;&gt;Node5 -->
<g id="edge4" class="edge">
<title>Node1&#45;&gt;Node5</title>
<path fill="none" stroke="#8b1a1a" d="M489.56,-538.26C471.47,-525.85 453.04,-510.56 439.5,-493 410.53,-455.44 393.21,-403.8 383.63,-366.09"/>
<polygon fill="none" stroke="#8b1a1a" points="488.13,-541.5 498.4,-544.11 491.99,-535.67 488.13,-541.5"/>
</g>
<!-- Node6 -->
<g id="node6" class="node">
<title>Node6</title>
<g id="a_node6"><a xlink:href="classsylar_1_1RWMutex.html" target="_top" xlink:title="读写互斥量">
<polygon fill="white" stroke="black" points="448.5,-265 448.5,-366 542.5,-366 542.5,-265 448.5,-265"/>
<text text-anchor="middle" x="495.5" y="-354" font-family="Helvetica,sans-Serif" font-size="10.00">sylar::RWMutex</text>
<polyline fill="none" stroke="black" points="448.5,-347 542.5,-347 "/>
<text text-anchor="middle" x="495.5" y="-335" font-family="Helvetica,sans-Serif" font-size="10.00"> </text>
<polyline fill="none" stroke="black" points="448.5,-328 542.5,-328 "/>
<text text-anchor="start" x="456.5" y="-316" font-family="Helvetica,sans-Serif" font-size="10.00">+ RWMutex()</text>
<text text-anchor="start" x="456.5" y="-305" font-family="Helvetica,sans-Serif" font-size="10.00">+ ~RWMutex()</text>
<text text-anchor="start" x="456.5" y="-294" font-family="Helvetica,sans-Serif" font-size="10.00">+ rdlock()</text>
<text text-anchor="start" x="456.5" y="-283" font-family="Helvetica,sans-Serif" font-size="10.00">+ wrlock()</text>
<text text-anchor="start" x="456.5" y="-272" font-family="Helvetica,sans-Serif" font-size="10.00">+ unlock()</text>
</a>
</g>
</g>
<!-- Node1&#45;&gt;Node6 -->
<g id="edge5" class="edge">
<title>Node1&#45;&gt;Node6</title>
<path fill="none" stroke="#8b1a1a" d="M541.29,-519.4C531.08,-474.18 516.65,-410.21 506.73,-366.25"/>
<polygon fill="none" stroke="#8b1a1a" points="537.91,-520.34 543.53,-529.32 544.74,-518.79 537.91,-520.34"/>
</g>
<!-- Node7 -->
<g id="node7" class="node">
<title>Node7</title>
<g id="a_node7"><a xlink:href="classsylar_1_1Semaphore.html" target="_top" xlink:title="信号量">
<polygon fill="white" stroke="black" points="560.5,-270.5 560.5,-360.5 662.5,-360.5 662.5,-270.5 560.5,-270.5"/>
<text text-anchor="middle" x="611.5" y="-348.5" font-family="Helvetica,sans-Serif" font-size="10.00">sylar::Semaphore</text>
<polyline fill="none" stroke="black" points="560.5,-341.5 662.5,-341.5 "/>
<text text-anchor="middle" x="611.5" y="-329.5" font-family="Helvetica,sans-Serif" font-size="10.00"> </text>
<polyline fill="none" stroke="black" points="560.5,-322.5 662.5,-322.5 "/>
<text text-anchor="start" x="568.5" y="-310.5" font-family="Helvetica,sans-Serif" font-size="10.00">+ Semaphore()</text>
<text text-anchor="start" x="568.5" y="-299.5" font-family="Helvetica,sans-Serif" font-size="10.00">+ ~Semaphore()</text>
<text text-anchor="start" x="568.5" y="-288.5" font-family="Helvetica,sans-Serif" font-size="10.00">+ wait()</text>
<text text-anchor="start" x="568.5" y="-277.5" font-family="Helvetica,sans-Serif" font-size="10.00">+ notify()</text>
</a>
</g>
</g>
<!-- Node1&#45;&gt;Node7 -->
<g id="edge6" class="edge">
<title>Node1&#45;&gt;Node7</title>
<path fill="none" stroke="#8b1a1a" d="M565.74,-519.27C576.39,-472.06 591.65,-404.47 601.56,-360.53"/>
<polygon fill="none" stroke="#8b1a1a" points="562.26,-518.79 563.47,-529.32 569.09,-520.34 562.26,-518.79"/>
</g>
<!-- Node8 -->
<g id="node8" class="node">
<title>Node8</title>
<g id="a_node8"><a xlink:href="classsylar_1_1Socket.html" target="_top" xlink:title="Socket封装类">
<polygon fill="white" stroke="black" points="681,-138.5 681,-492.5 824,-492.5 824,-138.5 681,-138.5"/>
<text text-anchor="middle" x="752.5" y="-480.5" font-family="Helvetica,sans-Serif" font-size="10.00">sylar::Socket</text>
<polyline fill="none" stroke="black" points="681,-473.5 824,-473.5 "/>
<text text-anchor="start" x="689" y="-461.5" font-family="Helvetica,sans-Serif" font-size="10.00"># m_sock</text>
<text text-anchor="start" x="689" y="-450.5" font-family="Helvetica,sans-Serif" font-size="10.00"># m_family</text>
<text text-anchor="start" x="689" y="-439.5" font-family="Helvetica,sans-Serif" font-size="10.00"># m_type</text>
<text text-anchor="start" x="689" y="-428.5" font-family="Helvetica,sans-Serif" font-size="10.00"># m_protocol</text>
<text text-anchor="start" x="689" y="-417.5" font-family="Helvetica,sans-Serif" font-size="10.00"># m_isConnected</text>
<text text-anchor="start" x="689" y="-406.5" font-family="Helvetica,sans-Serif" font-size="10.00"># m_localAddress</text>
<text text-anchor="start" x="689" y="-395.5" font-family="Helvetica,sans-Serif" font-size="10.00"># m_remoteAddress</text>
<polyline fill="none" stroke="black" points="681,-388.5 824,-388.5 "/>
<text text-anchor="start" x="689" y="-376.5" font-family="Helvetica,sans-Serif" font-size="10.00">+ Socket()</text>
<text text-anchor="start" x="689" y="-365.5" font-family="Helvetica,sans-Serif" font-size="10.00">+ ~Socket()</text>
<text text-anchor="start" x="689" y="-354.5" font-family="Helvetica,sans-Serif" font-size="10.00">+ getSendTimeout()</text>
<text text-anchor="start" x="689" y="-343.5" font-family="Helvetica,sans-Serif" font-size="10.00">+ setSendTimeout()</text>
<text text-anchor="start" x="689" y="-332.5" font-family="Helvetica,sans-Serif" font-size="10.00">+ getRecvTimeout()</text>
<text text-anchor="start" x="689" y="-321.5" font-family="Helvetica,sans-Serif" font-size="10.00">+ setRecvTimeout()</text>
<text text-anchor="start" x="689" y="-310.5" font-family="Helvetica,sans-Serif" font-size="10.00">+ getOption()</text>
<text text-anchor="start" x="689" y="-299.5" font-family="Helvetica,sans-Serif" font-size="10.00">+ getOption()</text>
<text text-anchor="start" x="689" y="-288.5" font-family="Helvetica,sans-Serif" font-size="10.00">+ setOption()</text>
<text text-anchor="start" x="689" y="-277.5" font-family="Helvetica,sans-Serif" font-size="10.00">+ setOption()</text>
<text text-anchor="start" x="689" y="-266.5" font-family="Helvetica,sans-Serif" font-size="10.00">和 29 更多...</text>
<text text-anchor="start" x="689" y="-255.5" font-family="Helvetica,sans-Serif" font-size="10.00">+ CreateTCP()</text>
<text text-anchor="start" x="689" y="-244.5" font-family="Helvetica,sans-Serif" font-size="10.00">+ CreateUDP()</text>
<text text-anchor="start" x="689" y="-233.5" font-family="Helvetica,sans-Serif" font-size="10.00">+ CreateTCPSocket()</text>
<text text-anchor="start" x="689" y="-222.5" font-family="Helvetica,sans-Serif" font-size="10.00">+ CreateUDPSocket()</text>
<text text-anchor="start" x="689" y="-211.5" font-family="Helvetica,sans-Serif" font-size="10.00">+ CreateTCPSocket6()</text>
<text text-anchor="start" x="689" y="-200.5" font-family="Helvetica,sans-Serif" font-size="10.00">+ CreateUDPSocket6()</text>
<text text-anchor="start" x="689" y="-189.5" font-family="Helvetica,sans-Serif" font-size="10.00">+ CreateUnixTCPSocket()</text>
<text text-anchor="start" x="689" y="-178.5" font-family="Helvetica,sans-Serif" font-size="10.00">+ CreateUnixUDPSocket()</text>
<text text-anchor="start" x="689" y="-167.5" font-family="Helvetica,sans-Serif" font-size="10.00"># initSock()</text>
<text text-anchor="start" x="689" y="-156.5" font-family="Helvetica,sans-Serif" font-size="10.00"># newSock()</text>
<text text-anchor="start" x="689" y="-145.5" font-family="Helvetica,sans-Serif" font-size="10.00"># init()</text>
</a>
</g>
</g>
<!-- Node1&#45;&gt;Node8 -->
<g id="edge7" class="edge">
<title>Node1&#45;&gt;Node8</title>
<path fill="none" stroke="#8b1a1a" d="M617.07,-539.19C636.34,-526.57 656.38,-510.91 671.5,-493 674.76,-489.14 677.92,-485.12 680.98,-480.98"/>
<polygon fill="none" stroke="#8b1a1a" points="615.14,-536.27 608.59,-544.6 618.91,-542.18 615.14,-536.27"/>
</g>
<!-- Node9 -->
<g id="node9" class="node">
<title>Node9</title>
<g id="a_node9"><a xlink:href="classsylar_1_1Spinlock.html" target="_top" xlink:title="自旋锁">
<polygon fill="white" stroke="black" points="842.5,-270.5 842.5,-360.5 930.5,-360.5 930.5,-270.5 842.5,-270.5"/>
<text text-anchor="middle" x="886.5" y="-348.5" font-family="Helvetica,sans-Serif" font-size="10.00">sylar::Spinlock</text>
<polyline fill="none" stroke="black" points="842.5,-341.5 930.5,-341.5 "/>
<text text-anchor="middle" x="886.5" y="-329.5" font-family="Helvetica,sans-Serif" font-size="10.00"> </text>
<polyline fill="none" stroke="black" points="842.5,-322.5 930.5,-322.5 "/>
<text text-anchor="start" x="850.5" y="-310.5" font-family="Helvetica,sans-Serif" font-size="10.00">+ Spinlock()</text>
<text text-anchor="start" x="850.5" y="-299.5" font-family="Helvetica,sans-Serif" font-size="10.00">+ ~Spinlock()</text>
<text text-anchor="start" x="850.5" y="-288.5" font-family="Helvetica,sans-Serif" font-size="10.00">+ lock()</text>
<text text-anchor="start" x="850.5" y="-277.5" font-family="Helvetica,sans-Serif" font-size="10.00">+ unlock()</text>
</a>
</g>
</g>
<!-- Node1&#45;&gt;Node9 -->
<g id="edge8" class="edge">
<title>Node1&#45;&gt;Node9</title>
<path fill="none" stroke="#8b1a1a" d="M618.82,-571.79C681.69,-566.64 775.4,-549.19 832.5,-493 868.02,-458.05 880.31,-400.44 884.49,-360.59"/>
<polygon fill="none" stroke="#8b1a1a" points="618.33,-568.32 608.62,-572.54 618.85,-575.3 618.33,-568.32"/>
</g>
<!-- Node10 -->
<g id="node10" class="node">
<title>Node10</title>
<g id="a_node10"><a xlink:href="classsylar_1_1TcpServer.html" target="_top" xlink:title="TCP服务器封装">
<polygon fill="white" stroke="black" points="948.5,-182.5 948.5,-448.5 1064.5,-448.5 1064.5,-182.5 948.5,-182.5"/>
<text text-anchor="middle" x="1006.5" y="-436.5" font-family="Helvetica,sans-Serif" font-size="10.00">sylar::TcpServer</text>
<polyline fill="none" stroke="black" points="948.5,-429.5 1064.5,-429.5 "/>
<text text-anchor="start" x="956.5" y="-417.5" font-family="Helvetica,sans-Serif" font-size="10.00"># m_socks</text>
<text text-anchor="start" x="956.5" y="-406.5" font-family="Helvetica,sans-Serif" font-size="10.00"># m_ioWorker</text>
<text text-anchor="start" x="956.5" y="-395.5" font-family="Helvetica,sans-Serif" font-size="10.00"># m_acceptWorker</text>
<text text-anchor="start" x="956.5" y="-384.5" font-family="Helvetica,sans-Serif" font-size="10.00"># m_recvTimeout</text>
<text text-anchor="start" x="956.5" y="-373.5" font-family="Helvetica,sans-Serif" font-size="10.00"># m_name</text>
<text text-anchor="start" x="956.5" y="-362.5" font-family="Helvetica,sans-Serif" font-size="10.00"># m_type</text>
<text text-anchor="start" x="956.5" y="-351.5" font-family="Helvetica,sans-Serif" font-size="10.00"># m_isStop</text>
<polyline fill="none" stroke="black" points="948.5,-344.5 1064.5,-344.5 "/>
<text text-anchor="start" x="956.5" y="-332.5" font-family="Helvetica,sans-Serif" font-size="10.00">+ TcpServer()</text>
<text text-anchor="start" x="956.5" y="-321.5" font-family="Helvetica,sans-Serif" font-size="10.00">+ ~TcpServer()</text>
<text text-anchor="start" x="956.5" y="-310.5" font-family="Helvetica,sans-Serif" font-size="10.00">+ bind()</text>
<text text-anchor="start" x="956.5" y="-299.5" font-family="Helvetica,sans-Serif" font-size="10.00">+ bind()</text>
<text text-anchor="start" x="956.5" y="-288.5" font-family="Helvetica,sans-Serif" font-size="10.00">+ start()</text>
<text text-anchor="start" x="956.5" y="-277.5" font-family="Helvetica,sans-Serif" font-size="10.00">+ stop()</text>
<text text-anchor="start" x="956.5" y="-266.5" font-family="Helvetica,sans-Serif" font-size="10.00">+ getRecvTimeout()</text>
<text text-anchor="start" x="956.5" y="-255.5" font-family="Helvetica,sans-Serif" font-size="10.00">+ getName()</text>
<text text-anchor="start" x="956.5" y="-244.5" font-family="Helvetica,sans-Serif" font-size="10.00">+ setRecvTimeout()</text>
<text text-anchor="start" x="956.5" y="-233.5" font-family="Helvetica,sans-Serif" font-size="10.00">+ setName()</text>
<text text-anchor="start" x="956.5" y="-222.5" font-family="Helvetica,sans-Serif" font-size="10.00">+ isStop()</text>
<text text-anchor="start" x="956.5" y="-211.5" font-family="Helvetica,sans-Serif" font-size="10.00">+ toString()</text>
<text text-anchor="start" x="956.5" y="-200.5" font-family="Helvetica,sans-Serif" font-size="10.00"># handleClient()</text>
<text text-anchor="start" x="956.5" y="-189.5" font-family="Helvetica,sans-Serif" font-size="10.00"># startAccept()</text>
</a>
</g>
</g>
<!-- Node1&#45;&gt;Node10 -->
<g id="edge9" class="edge">
<title>Node1&#45;&gt;Node10</title>
<path fill="none" stroke="#8b1a1a" d="M618.87,-567.44C715.98,-557.21 891.99,-533.57 939.5,-493 953.71,-480.87 964.91,-465.39 973.74,-448.65"/>
<polygon fill="none" stroke="#8b1a1a" points="618.46,-563.97 608.87,-568.48 619.18,-570.93 618.46,-563.97"/>
</g>
<!-- Node13 -->
<g id="node13" class="node">
<title>Node13</title>
<g id="a_node13"><a xlink:href="classsylar_1_1Thread.html" target="_top" xlink:title="线程类">
<polygon fill="white" stroke="black" points="1082.5,-248.5 1082.5,-382.5 1164.5,-382.5 1164.5,-248.5 1082.5,-248.5"/>
<text text-anchor="middle" x="1123.5" y="-370.5" font-family="Helvetica,sans-Serif" font-size="10.00">sylar::Thread</text>
<polyline fill="none" stroke="black" points="1082.5,-363.5 1164.5,-363.5 "/>
<text text-anchor="middle" x="1123.5" y="-351.5" font-family="Helvetica,sans-Serif" font-size="10.00"> </text>
<polyline fill="none" stroke="black" points="1082.5,-344.5 1164.5,-344.5 "/>
<text text-anchor="start" x="1090.5" y="-332.5" font-family="Helvetica,sans-Serif" font-size="10.00">+ Thread()</text>
<text text-anchor="start" x="1090.5" y="-321.5" font-family="Helvetica,sans-Serif" font-size="10.00">+ ~Thread()</text>
<text text-anchor="start" x="1090.5" y="-310.5" font-family="Helvetica,sans-Serif" font-size="10.00">+ getId()</text>
<text text-anchor="start" x="1090.5" y="-299.5" font-family="Helvetica,sans-Serif" font-size="10.00">+ getName()</text>
<text text-anchor="start" x="1090.5" y="-288.5" font-family="Helvetica,sans-Serif" font-size="10.00">+ join()</text>
<text text-anchor="start" x="1090.5" y="-277.5" font-family="Helvetica,sans-Serif" font-size="10.00">+ GetThis()</text>
<text text-anchor="start" x="1090.5" y="-266.5" font-family="Helvetica,sans-Serif" font-size="10.00">+ GetName()</text>
<text text-anchor="start" x="1090.5" y="-255.5" font-family="Helvetica,sans-Serif" font-size="10.00">+ SetName()</text>
</a>
</g>
</g>
<!-- Node1&#45;&gt;Node13 -->
<g id="edge12" class="edge">
<title>Node1&#45;&gt;Node13</title>
<path fill="none" stroke="#8b1a1a" d="M618.93,-571.94C743.26,-567.63 1007.19,-551.65 1073.5,-493 1104.51,-465.57 1116.92,-420.48 1121.62,-382.75"/>
<polygon fill="none" stroke="#8b1a1a" points="618.66,-568.45 608.78,-572.28 618.89,-575.44 618.66,-568.45"/>
</g>
<!-- Node11 -->
<g id="node11" class="node">
<title>Node11</title>
<g id="a_node11"><a xlink:href="classMyTcpServer.html" target="_top" xlink:title="自定义TcpServer类，重载handleClient方法">
<polygon fill="white" stroke="black" points="892,-22.5 892,-79.5 989,-79.5 989,-22.5 892,-22.5"/>
<text text-anchor="middle" x="940.5" y="-67.5" font-family="Helvetica,sans-Serif" font-size="10.00">MyTcpServer</text>
<polyline fill="none" stroke="black" points="892,-60.5 989,-60.5 "/>
<text text-anchor="middle" x="940.5" y="-48.5" font-family="Helvetica,sans-Serif" font-size="10.00"> </text>
<polyline fill="none" stroke="black" points="892,-41.5 989,-41.5 "/>
<text text-anchor="start" x="900" y="-29.5" font-family="Helvetica,sans-Serif" font-size="10.00"># handleClient()</text>
</a>
</g>
</g>
<!-- Node10&#45;&gt;Node11 -->
<g id="edge10" class="edge">
<title>Node10&#45;&gt;Node11</title>
<path fill="none" stroke="midnightblue" d="M970.79,-172.49C961.9,-137.11 953.27,-102.79 947.51,-79.89"/>
<polygon fill="none" stroke="midnightblue" points="967.47,-173.64 973.31,-182.48 974.26,-171.93 967.47,-173.64"/>
</g>
<!-- Node12 -->
<g id="node12" class="node">
<title>Node12</title>
<g id="a_node12"><a xlink:href="classsylar_1_1http_1_1HttpServer.html" target="_top" xlink:title="HTTP服务器类">
<polygon fill="white" stroke="black" points="1007.5,-0.5 1007.5,-101.5 1135.5,-101.5 1135.5,-0.5 1007.5,-0.5"/>
<text text-anchor="middle" x="1071.5" y="-89.5" font-family="Helvetica,sans-Serif" font-size="10.00">sylar::http::HttpServer</text>
<polyline fill="none" stroke="black" points="1007.5,-82.5 1135.5,-82.5 "/>
<text text-anchor="middle" x="1071.5" y="-70.5" font-family="Helvetica,sans-Serif" font-size="10.00"> </text>
<polyline fill="none" stroke="black" points="1007.5,-63.5 1135.5,-63.5 "/>
<text text-anchor="start" x="1015.5" y="-51.5" font-family="Helvetica,sans-Serif" font-size="10.00">+ HttpServer()</text>
<text text-anchor="start" x="1015.5" y="-40.5" font-family="Helvetica,sans-Serif" font-size="10.00">+ getServletDispatch()</text>
<text text-anchor="start" x="1015.5" y="-29.5" font-family="Helvetica,sans-Serif" font-size="10.00">+ setServletDispatch()</text>
<text text-anchor="start" x="1015.5" y="-18.5" font-family="Helvetica,sans-Serif" font-size="10.00">+ setName()</text>
<text text-anchor="start" x="1015.5" y="-7.5" font-family="Helvetica,sans-Serif" font-size="10.00"># handleClient()</text>
</a>
</g>
</g>
<!-- Node10&#45;&gt;Node12 -->
<g id="edge11" class="edge">
<title>Node10&#45;&gt;Node12</title>
<path fill="none" stroke="midnightblue" d="M1041.62,-172.69C1047.93,-147.17 1054.12,-122.2 1059.21,-101.65"/>
<polygon fill="none" stroke="midnightblue" points="1038.2,-171.93 1039.19,-182.48 1044.99,-173.62 1038.2,-171.93"/>
</g>
</g>
</svg>
