<?xml version="1.0" encoding="UTF-8" standalone="no"?>
<!DOCTYPE svg PUBLIC "-//W3C//DTD SVG 1.1//EN"
 "http://www.w3.org/Graphics/SVG/1.1/DTD/svg11.dtd">
<!-- Generated by graphviz version 2.43.0 (0)
 -->
<!-- Title: sylar::MessageFormatItem Pages: 1 -->
<svg width="155pt" height="193pt"
 viewBox="0.00 0.00 155.00 193.00" xmlns="http://www.w3.org/2000/svg" xmlns:xlink="http://www.w3.org/1999/xlink">
<g id="graph0" class="graph" transform="scale(1 1) rotate(0) translate(4 189)">
<title>sylar::MessageFormatItem</title>
<polygon fill="white" stroke="transparent" points="-4,4 -4,-189 151,-189 151,4 -4,4"/>
<!-- Node1 -->
<g id="node1" class="node">
<title>Node1</title>
<g id="a_node1"><a xlink:title=" ">
<polygon fill="#bfbfbf" stroke="black" points="0,-0.5 0,-68.5 147,-68.5 147,-0.5 0,-0.5"/>
<text text-anchor="middle" x="73.5" y="-56.5" font-family="Helvetica,sans-Serif" font-size="10.00">sylar::MessageFormatItem</text>
<polyline fill="none" stroke="black" points="0,-49.5 147,-49.5 "/>
<text text-anchor="middle" x="73.5" y="-37.5" font-family="Helvetica,sans-Serif" font-size="10.00"> </text>
<polyline fill="none" stroke="black" points="0,-30.5 147,-30.5 "/>
<text text-anchor="start" x="8" y="-18.5" font-family="Helvetica,sans-Serif" font-size="10.00">+ MessageFormatItem()</text>
<text text-anchor="start" x="8" y="-7.5" font-family="Helvetica,sans-Serif" font-size="10.00">+ format()</text>
</a>
</g>
</g>
<!-- Node2 -->
<g id="node2" class="node">
<title>Node2</title>
<g id="a_node2"><a xlink:href="classsylar_1_1LogFormatter_1_1FormatItem.html" target="_top" xlink:title="日志内容格式化项，虚基类，用于派生出不同的格式化项">
<polygon fill="white" stroke="black" points="17.5,-105.5 17.5,-184.5 129.5,-184.5 129.5,-105.5 17.5,-105.5"/>
<text text-anchor="start" x="25.5" y="-172.5" font-family="Helvetica,sans-Serif" font-size="10.00">sylar::LogFormatter</text>
<text text-anchor="middle" x="73.5" y="-161.5" font-family="Helvetica,sans-Serif" font-size="10.00">::FormatItem</text>
<polyline fill="none" stroke="black" points="17.5,-154.5 129.5,-154.5 "/>
<text text-anchor="middle" x="73.5" y="-142.5" font-family="Helvetica,sans-Serif" font-size="10.00"> </text>
<polyline fill="none" stroke="black" points="17.5,-135.5 129.5,-135.5 "/>
<text text-anchor="start" x="25.5" y="-123.5" font-family="Helvetica,sans-Serif" font-size="10.00">+ ~FormatItem()</text>
<text text-anchor="start" x="25.5" y="-112.5" font-family="Helvetica,sans-Serif" font-size="10.00">+ format()</text>
</a>
</g>
</g>
<!-- Node2&#45;&gt;Node1 -->
<g id="edge1" class="edge">
<title>Node2&#45;&gt;Node1</title>
<path fill="none" stroke="midnightblue" d="M73.5,-95.35C73.5,-86.28 73.5,-77 73.5,-68.54"/>
<polygon fill="none" stroke="midnightblue" points="70,-95.44 73.5,-105.44 77,-95.44 70,-95.44"/>
</g>
</g>
</svg>
