<?xml version="1.0" encoding="UTF-8" standalone="no"?>
<!DOCTYPE svg PUBLIC "-//W3C//DTD SVG 1.1//EN"
 "http://www.w3.org/Graphics/SVG/1.1/DTD/svg11.dtd">
<!-- Generated by graphviz version 2.43.0 (0)
 -->
<!-- Title: MyTcpServer Pages: 1 -->
<svg width="519pt" height="834pt"
 viewBox="0.00 0.00 518.50 834.00" xmlns="http://www.w3.org/2000/svg" xmlns:xlink="http://www.w3.org/1999/xlink">
<g id="graph0" class="graph" transform="scale(1 1) rotate(0) translate(4 830)">
<title>MyTcpServer</title>
<polygon fill="white" stroke="transparent" points="-4,4 -4,-830 514.5,-830 514.5,4 -4,4"/>
<!-- Node1 -->
<g id="node1" class="node">
<title>Node1</title>
<g id="a_node1"><a xlink:title="自定义TcpServer类，重载handleClient方法">
<polygon fill="#bfbfbf" stroke="black" points="162.5,-0.5 162.5,-57.5 259.5,-57.5 259.5,-0.5 162.5,-0.5"/>
<text text-anchor="middle" x="211" y="-45.5" font-family="Helvetica,sans-Serif" font-size="10.00">MyTcpServer</text>
<polyline fill="none" stroke="black" points="162.5,-38.5 259.5,-38.5 "/>
<text text-anchor="middle" x="211" y="-26.5" font-family="Helvetica,sans-Serif" font-size="10.00"> </text>
<polyline fill="none" stroke="black" points="162.5,-19.5 259.5,-19.5 "/>
<text text-anchor="start" x="170.5" y="-7.5" font-family="Helvetica,sans-Serif" font-size="10.00"># handleClient()</text>
</a>
</g>
</g>
<!-- Node2 -->
<g id="node2" class="node">
<title>Node2</title>
<g id="a_node2"><a xlink:href="classsylar_1_1TcpServer.html" target="_top" xlink:title="TCP服务器封装">
<polygon fill="white" stroke="black" points="153,-95.5 153,-339.5 269,-339.5 269,-95.5 153,-95.5"/>
<text text-anchor="middle" x="211" y="-327.5" font-family="Helvetica,sans-Serif" font-size="10.00">sylar::TcpServer</text>
<polyline fill="none" stroke="black" points="153,-320.5 269,-320.5 "/>
<text text-anchor="start" x="161" y="-308.5" font-family="Helvetica,sans-Serif" font-size="10.00"># m_socks</text>
<text text-anchor="start" x="161" y="-297.5" font-family="Helvetica,sans-Serif" font-size="10.00"># m_recvTimeout</text>
<text text-anchor="start" x="161" y="-286.5" font-family="Helvetica,sans-Serif" font-size="10.00"># m_name</text>
<text text-anchor="start" x="161" y="-275.5" font-family="Helvetica,sans-Serif" font-size="10.00"># m_type</text>
<text text-anchor="start" x="161" y="-264.5" font-family="Helvetica,sans-Serif" font-size="10.00"># m_isStop</text>
<polyline fill="none" stroke="black" points="153,-257.5 269,-257.5 "/>
<text text-anchor="start" x="161" y="-245.5" font-family="Helvetica,sans-Serif" font-size="10.00">+ TcpServer()</text>
<text text-anchor="start" x="161" y="-234.5" font-family="Helvetica,sans-Serif" font-size="10.00">+ ~TcpServer()</text>
<text text-anchor="start" x="161" y="-223.5" font-family="Helvetica,sans-Serif" font-size="10.00">+ bind()</text>
<text text-anchor="start" x="161" y="-212.5" font-family="Helvetica,sans-Serif" font-size="10.00">+ bind()</text>
<text text-anchor="start" x="161" y="-201.5" font-family="Helvetica,sans-Serif" font-size="10.00">+ start()</text>
<text text-anchor="start" x="161" y="-190.5" font-family="Helvetica,sans-Serif" font-size="10.00">+ stop()</text>
<text text-anchor="start" x="161" y="-179.5" font-family="Helvetica,sans-Serif" font-size="10.00">+ getRecvTimeout()</text>
<text text-anchor="start" x="161" y="-168.5" font-family="Helvetica,sans-Serif" font-size="10.00">+ getName()</text>
<text text-anchor="start" x="161" y="-157.5" font-family="Helvetica,sans-Serif" font-size="10.00">+ setRecvTimeout()</text>
<text text-anchor="start" x="161" y="-146.5" font-family="Helvetica,sans-Serif" font-size="10.00">+ setName()</text>
<text text-anchor="start" x="161" y="-135.5" font-family="Helvetica,sans-Serif" font-size="10.00">+ isStop()</text>
<text text-anchor="start" x="161" y="-124.5" font-family="Helvetica,sans-Serif" font-size="10.00">+ toString()</text>
<text text-anchor="start" x="161" y="-113.5" font-family="Helvetica,sans-Serif" font-size="10.00"># handleClient()</text>
<text text-anchor="start" x="161" y="-102.5" font-family="Helvetica,sans-Serif" font-size="10.00"># startAccept()</text>
</a>
</g>
</g>
<!-- Node2&#45;&gt;Node1 -->
<g id="edge1" class="edge">
<title>Node2&#45;&gt;Node1</title>
<path fill="none" stroke="midnightblue" d="M211,-85.21C211,-75.15 211,-65.8 211,-57.77"/>
<polygon fill="none" stroke="midnightblue" points="207.5,-85.49 211,-95.49 214.5,-85.49 207.5,-85.49"/>
</g>
<!-- Node3 -->
<g id="node3" class="node">
<title>Node3</title>
<g id="a_node3"><a xlink:title=" ">
<polygon fill="white" stroke="#bfbfbf" points="0,-459 0,-527 138,-527 138,-459 0,-459"/>
<text text-anchor="start" x="8" y="-515" font-family="Helvetica,sans-Serif" font-size="10.00">std::enable_shared</text>
<text text-anchor="middle" x="69" y="-504" font-family="Helvetica,sans-Serif" font-size="10.00">_from_this&lt; TcpServer &gt;</text>
<polyline fill="none" stroke="#bfbfbf" points="0,-497 138,-497 "/>
<text text-anchor="middle" x="69" y="-485" font-family="Helvetica,sans-Serif" font-size="10.00"> </text>
<polyline fill="none" stroke="#bfbfbf" points="0,-478 138,-478 "/>
<text text-anchor="middle" x="69" y="-466" font-family="Helvetica,sans-Serif" font-size="10.00"> </text>
</a>
</g>
</g>
<!-- Node3&#45;&gt;Node2 -->
<g id="edge2" class="edge">
<title>Node3&#45;&gt;Node2</title>
<path fill="none" stroke="midnightblue" d="M90.96,-449.7C107.52,-417.8 131.04,-372.5 152.88,-330.45"/>
<polygon fill="none" stroke="midnightblue" points="87.77,-448.25 86.27,-458.74 93.98,-451.47 87.77,-448.25"/>
</g>
<!-- Node4 -->
<g id="node4" class="node">
<title>Node4</title>
<g id="a_node4"><a xlink:href="classsylar_1_1Noncopyable.html" target="_top" xlink:title="对象无法拷贝,赋值">
<polygon fill="white" stroke="black" points="156,-448 156,-538 266,-538 266,-448 156,-448"/>
<text text-anchor="middle" x="211" y="-526" font-family="Helvetica,sans-Serif" font-size="10.00">sylar::Noncopyable</text>
<polyline fill="none" stroke="black" points="156,-519 266,-519 "/>
<text text-anchor="middle" x="211" y="-507" font-family="Helvetica,sans-Serif" font-size="10.00"> </text>
<polyline fill="none" stroke="black" points="156,-500 266,-500 "/>
<text text-anchor="start" x="164" y="-488" font-family="Helvetica,sans-Serif" font-size="10.00">+ Noncopyable()</text>
<text text-anchor="start" x="164" y="-477" font-family="Helvetica,sans-Serif" font-size="10.00">+ ~Noncopyable()</text>
<text text-anchor="start" x="164" y="-466" font-family="Helvetica,sans-Serif" font-size="10.00">+ Noncopyable()</text>
<text text-anchor="start" x="164" y="-455" font-family="Helvetica,sans-Serif" font-size="10.00">+ operator=()</text>
</a>
</g>
</g>
<!-- Node4&#45;&gt;Node2 -->
<g id="edge3" class="edge">
<title>Node4&#45;&gt;Node2</title>
<path fill="none" stroke="#8b1a1a" d="M211,-437.74C211,-409.59 211,-373.99 211,-339.71"/>
<polygon fill="none" stroke="#8b1a1a" points="207.5,-437.75 211,-447.75 214.5,-437.75 207.5,-437.75"/>
</g>
<!-- Node5 -->
<g id="node5" class="node">
<title>Node5</title>
<g id="a_node5"><a xlink:href="classsylar_1_1IOManager.html" target="_top" xlink:title=" ">
<polygon fill="white" stroke="black" points="284.5,-398.5 284.5,-587.5 435.5,-587.5 435.5,-398.5 284.5,-398.5"/>
<text text-anchor="middle" x="360" y="-575.5" font-family="Helvetica,sans-Serif" font-size="10.00">sylar::IOManager</text>
<polyline fill="none" stroke="black" points="284.5,-568.5 435.5,-568.5 "/>
<text text-anchor="middle" x="360" y="-556.5" font-family="Helvetica,sans-Serif" font-size="10.00"> </text>
<polyline fill="none" stroke="black" points="284.5,-549.5 435.5,-549.5 "/>
<text text-anchor="start" x="292.5" y="-537.5" font-family="Helvetica,sans-Serif" font-size="10.00">+ IOManager()</text>
<text text-anchor="start" x="292.5" y="-526.5" font-family="Helvetica,sans-Serif" font-size="10.00">+ ~IOManager()</text>
<text text-anchor="start" x="292.5" y="-515.5" font-family="Helvetica,sans-Serif" font-size="10.00">+ addEvent()</text>
<text text-anchor="start" x="292.5" y="-504.5" font-family="Helvetica,sans-Serif" font-size="10.00">+ delEvent()</text>
<text text-anchor="start" x="292.5" y="-493.5" font-family="Helvetica,sans-Serif" font-size="10.00">+ cancelEvent()</text>
<text text-anchor="start" x="292.5" y="-482.5" font-family="Helvetica,sans-Serif" font-size="10.00">+ cancelAll()</text>
<text text-anchor="start" x="292.5" y="-471.5" font-family="Helvetica,sans-Serif" font-size="10.00">+ GetThis()</text>
<text text-anchor="start" x="292.5" y="-460.5" font-family="Helvetica,sans-Serif" font-size="10.00"># tickle()</text>
<text text-anchor="start" x="292.5" y="-449.5" font-family="Helvetica,sans-Serif" font-size="10.00"># stopping()</text>
<text text-anchor="start" x="292.5" y="-438.5" font-family="Helvetica,sans-Serif" font-size="10.00"># idle()</text>
<text text-anchor="start" x="292.5" y="-427.5" font-family="Helvetica,sans-Serif" font-size="10.00"># stopping()</text>
<text text-anchor="start" x="292.5" y="-416.5" font-family="Helvetica,sans-Serif" font-size="10.00"># onTimerInsertedAtFront()</text>
<text text-anchor="start" x="292.5" y="-405.5" font-family="Helvetica,sans-Serif" font-size="10.00"># contextResize()</text>
</a>
</g>
</g>
<!-- Node5&#45;&gt;Node2 -->
<g id="edge4" class="edge">
<title>Node5&#45;&gt;Node2</title>
<path fill="none" stroke="#404040" d="M308.93,-398.26C298.03,-378.24 286.38,-356.86 275.06,-336.08"/>
<polygon fill="none" stroke="#404040" points="274.91,-335.81 268.53,-332.46 269.17,-325.28 275.55,-328.63 274.91,-335.81"/>
<text text-anchor="middle" x="345.5" y="-372" font-family="Helvetica,sans-Serif" font-size="10.00"> #m_acceptWorker</text>
<text text-anchor="middle" x="345.5" y="-361" font-family="Helvetica,sans-Serif" font-size="10.00">#m_ioWorker</text>
</g>
<!-- Node6 -->
<g id="node6" class="node">
<title>Node6</title>
<g id="a_node6"><a xlink:href="classsylar_1_1Scheduler.html" target="_top" xlink:title="协程调度器">
<polygon fill="white" stroke="black" points="231,-625.5 231,-825.5 341,-825.5 341,-625.5 231,-625.5"/>
<text text-anchor="middle" x="286" y="-813.5" font-family="Helvetica,sans-Serif" font-size="10.00">sylar::Scheduler</text>
<polyline fill="none" stroke="black" points="231,-806.5 341,-806.5 "/>
<text text-anchor="middle" x="286" y="-794.5" font-family="Helvetica,sans-Serif" font-size="10.00"> </text>
<polyline fill="none" stroke="black" points="231,-787.5 341,-787.5 "/>
<text text-anchor="start" x="239" y="-775.5" font-family="Helvetica,sans-Serif" font-size="10.00">+ Scheduler()</text>
<text text-anchor="start" x="239" y="-764.5" font-family="Helvetica,sans-Serif" font-size="10.00">+ ~Scheduler()</text>
<text text-anchor="start" x="239" y="-753.5" font-family="Helvetica,sans-Serif" font-size="10.00">+ getName()</text>
<text text-anchor="start" x="239" y="-742.5" font-family="Helvetica,sans-Serif" font-size="10.00">+ schedule()</text>
<text text-anchor="start" x="239" y="-731.5" font-family="Helvetica,sans-Serif" font-size="10.00">+ start()</text>
<text text-anchor="start" x="239" y="-720.5" font-family="Helvetica,sans-Serif" font-size="10.00">+ stop()</text>
<text text-anchor="start" x="239" y="-709.5" font-family="Helvetica,sans-Serif" font-size="10.00">+ GetThis()</text>
<text text-anchor="start" x="239" y="-698.5" font-family="Helvetica,sans-Serif" font-size="10.00">+ GetMainFiber()</text>
<text text-anchor="start" x="239" y="-687.5" font-family="Helvetica,sans-Serif" font-size="10.00"># tickle()</text>
<text text-anchor="start" x="239" y="-676.5" font-family="Helvetica,sans-Serif" font-size="10.00"># run()</text>
<text text-anchor="start" x="239" y="-665.5" font-family="Helvetica,sans-Serif" font-size="10.00"># idle()</text>
<text text-anchor="start" x="239" y="-654.5" font-family="Helvetica,sans-Serif" font-size="10.00"># stopping()</text>
<text text-anchor="start" x="239" y="-643.5" font-family="Helvetica,sans-Serif" font-size="10.00"># setThis()</text>
<text text-anchor="start" x="239" y="-632.5" font-family="Helvetica,sans-Serif" font-size="10.00"># hasIdleThreads()</text>
</a>
</g>
</g>
<!-- Node6&#45;&gt;Node5 -->
<g id="edge5" class="edge">
<title>Node6&#45;&gt;Node5</title>
<path fill="none" stroke="midnightblue" d="M320.95,-615.65C323.96,-606.25 327,-596.8 329.97,-587.54"/>
<polygon fill="none" stroke="midnightblue" points="317.54,-614.82 317.81,-625.41 324.2,-616.96 317.54,-614.82"/>
</g>
<!-- Node7 -->
<g id="node7" class="node">
<title>Node7</title>
<g id="a_node7"><a xlink:href="classsylar_1_1TimerManager.html" target="_top" xlink:title="定时器管理器">
<polygon fill="white" stroke="black" points="359.5,-653 359.5,-798 510.5,-798 510.5,-653 359.5,-653"/>
<text text-anchor="middle" x="435" y="-786" font-family="Helvetica,sans-Serif" font-size="10.00">sylar::TimerManager</text>
<polyline fill="none" stroke="black" points="359.5,-779 510.5,-779 "/>
<text text-anchor="middle" x="435" y="-767" font-family="Helvetica,sans-Serif" font-size="10.00"> </text>
<polyline fill="none" stroke="black" points="359.5,-760 510.5,-760 "/>
<text text-anchor="start" x="367.5" y="-748" font-family="Helvetica,sans-Serif" font-size="10.00">+ TimerManager()</text>
<text text-anchor="start" x="367.5" y="-737" font-family="Helvetica,sans-Serif" font-size="10.00">+ ~TimerManager()</text>
<text text-anchor="start" x="367.5" y="-726" font-family="Helvetica,sans-Serif" font-size="10.00">+ addTimer()</text>
<text text-anchor="start" x="367.5" y="-715" font-family="Helvetica,sans-Serif" font-size="10.00">+ addConditionTimer()</text>
<text text-anchor="start" x="367.5" y="-704" font-family="Helvetica,sans-Serif" font-size="10.00">+ getNextTimer()</text>
<text text-anchor="start" x="367.5" y="-693" font-family="Helvetica,sans-Serif" font-size="10.00">+ listExpiredCb()</text>
<text text-anchor="start" x="367.5" y="-682" font-family="Helvetica,sans-Serif" font-size="10.00">+ hasTimer()</text>
<text text-anchor="start" x="367.5" y="-671" font-family="Helvetica,sans-Serif" font-size="10.00"># onTimerInsertedAtFront()</text>
<text text-anchor="start" x="367.5" y="-660" font-family="Helvetica,sans-Serif" font-size="10.00"># addTimer()</text>
</a>
</g>
</g>
<!-- Node7&#45;&gt;Node5 -->
<g id="edge6" class="edge">
<title>Node7&#45;&gt;Node5</title>
<path fill="none" stroke="midnightblue" d="M408.49,-643.02C402.66,-625.12 396.45,-606.02 390.48,-587.68"/>
<polygon fill="none" stroke="midnightblue" points="405.26,-644.41 411.68,-652.83 411.91,-642.24 405.26,-644.41"/>
</g>
</g>
</svg>
