<?xml version="1.0" encoding="UTF-8" standalone="no"?>
<!DOCTYPE svg PUBLIC "-//W3C//DTD SVG 1.1//EN"
 "http://www.w3.org/Graphics/SVG/1.1/DTD/svg11.dtd">
<!-- Generated by graphviz version 2.43.0 (0)
 -->
<!-- Title: sylar::FSUtil::OpenForWrite Pages: 1 -->
<svg width="315pt" height="66pt"
 viewBox="0.00 0.00 315.00 66.00" xmlns="http://www.w3.org/2000/svg" xmlns:xlink="http://www.w3.org/1999/xlink">
<g id="graph0" class="graph" transform="scale(1 1) rotate(0) translate(4 62)">
<title>sylar::FSUtil::OpenForWrite</title>
<polygon fill="white" stroke="transparent" points="-4,4 -4,-62 311,-62 311,4 -4,4"/>
<!-- Node1 -->
<g id="node1" class="node">
<title>Node1</title>
<g id="a_node1"><a xlink:title="以只写方式打开">
<polygon fill="#bfbfbf" stroke="black" points="0,-19.5 0,-38.5 148,-38.5 148,-19.5 0,-19.5"/>
<text text-anchor="middle" x="74" y="-26.5" font-family="Helvetica,sans-Serif" font-size="10.00">sylar::FSUtil::OpenForWrite</text>
</a>
</g>
</g>
<!-- Node2 -->
<g id="node2" class="node">
<title>Node2</title>
<g id="a_node2"><a xlink:href="classsylar_1_1FSUtil.html#aa25b73f8771c2188aeb366da4ee8b76d" target="_top" xlink:title="返回文件，即路径中最后一个/前面的部分，不包括/本身，如果未找到，则返回filename">
<polygon fill="white" stroke="black" points="184,-38.5 184,-57.5 307,-57.5 307,-38.5 184,-38.5"/>
<text text-anchor="middle" x="245.5" y="-45.5" font-family="Helvetica,sans-Serif" font-size="10.00">sylar::FSUtil::Dirname</text>
</a>
</g>
</g>
<!-- Node1&#45;&gt;Node2 -->
<g id="edge1" class="edge">
<title>Node1&#45;&gt;Node2</title>
<path fill="none" stroke="midnightblue" d="M148.36,-37.22C156.76,-38.16 165.3,-39.12 173.67,-40.06"/>
<polygon fill="midnightblue" stroke="midnightblue" points="173.42,-43.55 183.75,-41.19 174.2,-36.6 173.42,-43.55"/>
</g>
<!-- Node3 -->
<g id="node3" class="node">
<title>Node3</title>
<g id="a_node3"><a xlink:href="classsylar_1_1FSUtil.html#aff8e1690b306cbb5d66586c77377c683" target="_top" xlink:title="创建路径，相当于mkdir &#45;p">
<polygon fill="white" stroke="black" points="191,-0.5 191,-19.5 300,-19.5 300,-0.5 191,-0.5"/>
<text text-anchor="middle" x="245.5" y="-7.5" font-family="Helvetica,sans-Serif" font-size="10.00">sylar::FSUtil::Mkdir</text>
</a>
</g>
</g>
<!-- Node1&#45;&gt;Node3 -->
<g id="edge2" class="edge">
<title>Node1&#45;&gt;Node3</title>
<path fill="none" stroke="midnightblue" d="M148.36,-20.78C159.21,-19.56 170.31,-18.32 180.94,-17.13"/>
<polygon fill="midnightblue" stroke="midnightblue" points="181.41,-20.59 190.96,-16 180.63,-13.64 181.41,-20.59"/>
</g>
</g>
</svg>
