<?xml version="1.0" encoding="UTF-8" standalone="no"?>
<!DOCTYPE svg PUBLIC "-//W3C//DTD SVG 1.1//EN"
 "http://www.w3.org/Graphics/SVG/1.1/DTD/svg11.dtd">
<!-- Generated by graphviz version 2.43.0 (0)
 -->
<!-- Title: sylar::http::ServletDispatch Pages: 1 -->
<svg width="157pt" height="303pt"
 viewBox="0.00 0.00 157.00 303.00" xmlns="http://www.w3.org/2000/svg" xmlns:xlink="http://www.w3.org/1999/xlink">
<g id="graph0" class="graph" transform="scale(1 1) rotate(0) translate(4 299)">
<title>sylar::http::ServletDispatch</title>
<polygon fill="white" stroke="transparent" points="-4,4 -4,-299 153,-299 153,4 -4,4"/>
<!-- Node1 -->
<g id="node1" class="node">
<title>Node1</title>
<g id="a_node1"><a xlink:title="Servlet分发器">
<polygon fill="#bfbfbf" stroke="black" points="0,-0.5 0,-167.5 149,-167.5 149,-0.5 0,-0.5"/>
<text text-anchor="middle" x="74.5" y="-155.5" font-family="Helvetica,sans-Serif" font-size="10.00">sylar::http::ServletDispatch</text>
<polyline fill="none" stroke="black" points="0,-148.5 149,-148.5 "/>
<text text-anchor="middle" x="74.5" y="-136.5" font-family="Helvetica,sans-Serif" font-size="10.00"> </text>
<polyline fill="none" stroke="black" points="0,-129.5 149,-129.5 "/>
<text text-anchor="start" x="8" y="-117.5" font-family="Helvetica,sans-Serif" font-size="10.00">+ ServletDispatch()</text>
<text text-anchor="start" x="8" y="-106.5" font-family="Helvetica,sans-Serif" font-size="10.00">+ handle()</text>
<text text-anchor="start" x="8" y="-95.5" font-family="Helvetica,sans-Serif" font-size="10.00">+ addServlet()</text>
<text text-anchor="start" x="8" y="-84.5" font-family="Helvetica,sans-Serif" font-size="10.00">+ addServlet()</text>
<text text-anchor="start" x="8" y="-73.5" font-family="Helvetica,sans-Serif" font-size="10.00">+ addGlobServlet()</text>
<text text-anchor="start" x="8" y="-62.5" font-family="Helvetica,sans-Serif" font-size="10.00">+ addGlobServlet()</text>
<text text-anchor="start" x="8" y="-51.5" font-family="Helvetica,sans-Serif" font-size="10.00">+ addServletCreator()</text>
<text text-anchor="start" x="8" y="-40.5" font-family="Helvetica,sans-Serif" font-size="10.00">+ addGlobServletCreator()</text>
<text text-anchor="start" x="8" y="-29.5" font-family="Helvetica,sans-Serif" font-size="10.00">+ addServletCreator()</text>
<text text-anchor="start" x="8" y="-18.5" font-family="Helvetica,sans-Serif" font-size="10.00">+ addGlobServletCreator()</text>
<text text-anchor="start" x="8" y="-7.5" font-family="Helvetica,sans-Serif" font-size="10.00">和 9 更多...</text>
</a>
</g>
</g>
<!-- Node2 -->
<g id="node2" class="node">
<title>Node2</title>
<g id="a_node2"><a xlink:href="classsylar_1_1http_1_1Servlet.html" target="_top" xlink:title="Servlet封装">
<polygon fill="white" stroke="black" points="21,-204.5 21,-294.5 128,-294.5 128,-204.5 21,-204.5"/>
<text text-anchor="middle" x="74.5" y="-282.5" font-family="Helvetica,sans-Serif" font-size="10.00">sylar::http::Servlet</text>
<polyline fill="none" stroke="black" points="21,-275.5 128,-275.5 "/>
<text text-anchor="start" x="29" y="-263.5" font-family="Helvetica,sans-Serif" font-size="10.00"># m_name</text>
<polyline fill="none" stroke="black" points="21,-256.5 128,-256.5 "/>
<text text-anchor="start" x="29" y="-244.5" font-family="Helvetica,sans-Serif" font-size="10.00">+ Servlet()</text>
<text text-anchor="start" x="29" y="-233.5" font-family="Helvetica,sans-Serif" font-size="10.00">+ ~Servlet()</text>
<text text-anchor="start" x="29" y="-222.5" font-family="Helvetica,sans-Serif" font-size="10.00">+ handle()</text>
<text text-anchor="start" x="29" y="-211.5" font-family="Helvetica,sans-Serif" font-size="10.00">+ getName()</text>
</a>
</g>
</g>
<!-- Node2&#45;&gt;Node1 -->
<g id="edge1" class="edge">
<title>Node2&#45;&gt;Node1</title>
<path fill="none" stroke="midnightblue" d="M74.5,-194.13C74.5,-185.63 74.5,-176.68 74.5,-167.72"/>
<polygon fill="none" stroke="midnightblue" points="71,-194.25 74.5,-204.25 78,-194.25 71,-194.25"/>
</g>
</g>
</svg>
