<?xml version="1.0" encoding="UTF-8" standalone="no"?>
<!DOCTYPE svg PUBLIC "-//W3C//DTD SVG 1.1//EN"
 "http://www.w3.org/Graphics/SVG/1.1/DTD/svg11.dtd">
<!-- Generated by graphviz version 2.43.0 (0)
 -->
<!-- Title: sylar::http::HttpRequest::checkGetHeaderAs Pages: 1 -->
<svg width="307pt" height="52pt"
 viewBox="0.00 0.00 307.00 51.50" xmlns="http://www.w3.org/2000/svg" xmlns:xlink="http://www.w3.org/1999/xlink">
<g id="graph0" class="graph" transform="scale(1 1) rotate(0) translate(4 47.5)">
<title>sylar::http::HttpRequest::checkGetHeaderAs</title>
<polygon fill="white" stroke="transparent" points="-4,4 -4,-47.5 303,-47.5 303,4 -4,4"/>
<!-- Node1 -->
<g id="node1" class="node">
<title>Node1</title>
<g id="a_node1"><a xlink:title="检查并获取HTTP请求的头部参数">
<polygon fill="#bfbfbf" stroke="black" points="0,-0.5 0,-30.5 133,-30.5 133,-0.5 0,-0.5"/>
<text text-anchor="start" x="8" y="-18.5" font-family="Helvetica,sans-Serif" font-size="10.00">sylar::http::HttpRequest</text>
<text text-anchor="middle" x="66.5" y="-7.5" font-family="Helvetica,sans-Serif" font-size="10.00">::checkGetHeaderAs</text>
</a>
</g>
</g>
<!-- Node2 -->
<g id="node2" class="node">
<title>Node2</title>
<g id="a_node2"><a xlink:href="http_8h.html#ae706fa797ef4b8066246dccc0a905f46" target="_top" xlink:title="获取Map中的key值,并转成对应类型,返回是否成功">
<polygon fill="white" stroke="black" points="169,-6 169,-25 299,-25 299,-6 169,-6"/>
<text text-anchor="middle" x="234" y="-13" font-family="Helvetica,sans-Serif" font-size="10.00">sylar::http::checkGetAs</text>
</a>
</g>
</g>
<!-- Node1&#45;&gt;Node2 -->
<g id="edge1" class="edge">
<title>Node1&#45;&gt;Node2</title>
<path fill="none" stroke="midnightblue" d="M133.39,-15.5C141.72,-15.5 150.29,-15.5 158.74,-15.5"/>
<polygon fill="midnightblue" stroke="midnightblue" points="158.96,-19 168.96,-15.5 158.96,-12 158.96,-19"/>
</g>
<!-- Node2&#45;&gt;Node2 -->
<g id="edge2" class="edge">
<title>Node2&#45;&gt;Node2</title>
<path fill="none" stroke="midnightblue" d="M208.41,-25.26C195.97,-34.07 204.5,-43.5 234,-43.5 253.82,-43.5 264.18,-39.24 265.06,-33.77"/>
<polygon fill="midnightblue" stroke="midnightblue" points="267.94,-31.77 259.59,-25.26 262.05,-35.56 267.94,-31.77"/>
</g>
</g>
</svg>
