<?xml version="1.0" encoding="UTF-8" standalone="no"?>
<!DOCTYPE svg PUBLIC "-//W3C//DTD SVG 1.1//EN"
 "http://www.w3.org/Graphics/SVG/1.1/DTD/svg11.dtd">
<!-- Generated by graphviz version 2.43.0 (0)
 -->
<!-- Title: sylar::SocketStream Pages: 1 -->
<svg width="165pt" height="518pt"
 viewBox="0.00 0.00 165.00 518.00" xmlns="http://www.w3.org/2000/svg" xmlns:xlink="http://www.w3.org/1999/xlink">
<g id="graph0" class="graph" transform="scale(1 1) rotate(0) translate(4 514)">
<title>sylar::SocketStream</title>
<polygon fill="white" stroke="transparent" points="-4,4 -4,-514 161,-514 161,4 -4,4"/>
<!-- Node1 -->
<g id="node1" class="node">
<title>Node1</title>
<g id="a_node1"><a xlink:title="Socket流">
<polygon fill="#bfbfbf" stroke="black" points="0,-116.5 0,-316.5 157,-316.5 157,-116.5 0,-116.5"/>
<text text-anchor="middle" x="78.5" y="-304.5" font-family="Helvetica,sans-Serif" font-size="10.00">sylar::SocketStream</text>
<polyline fill="none" stroke="black" points="0,-297.5 157,-297.5 "/>
<text text-anchor="start" x="8" y="-285.5" font-family="Helvetica,sans-Serif" font-size="10.00"># m_socket</text>
<text text-anchor="start" x="8" y="-274.5" font-family="Helvetica,sans-Serif" font-size="10.00"># m_owner</text>
<polyline fill="none" stroke="black" points="0,-267.5 157,-267.5 "/>
<text text-anchor="start" x="8" y="-255.5" font-family="Helvetica,sans-Serif" font-size="10.00">+ SocketStream()</text>
<text text-anchor="start" x="8" y="-244.5" font-family="Helvetica,sans-Serif" font-size="10.00">+ ~SocketStream()</text>
<text text-anchor="start" x="8" y="-233.5" font-family="Helvetica,sans-Serif" font-size="10.00">+ read()</text>
<text text-anchor="start" x="8" y="-222.5" font-family="Helvetica,sans-Serif" font-size="10.00">+ read()</text>
<text text-anchor="start" x="8" y="-211.5" font-family="Helvetica,sans-Serif" font-size="10.00">+ write()</text>
<text text-anchor="start" x="8" y="-200.5" font-family="Helvetica,sans-Serif" font-size="10.00">+ write()</text>
<text text-anchor="start" x="8" y="-189.5" font-family="Helvetica,sans-Serif" font-size="10.00">+ close()</text>
<text text-anchor="start" x="8" y="-178.5" font-family="Helvetica,sans-Serif" font-size="10.00">+ getSocket()</text>
<text text-anchor="start" x="8" y="-167.5" font-family="Helvetica,sans-Serif" font-size="10.00">+ isConnected()</text>
<text text-anchor="start" x="8" y="-156.5" font-family="Helvetica,sans-Serif" font-size="10.00">+ getRemoteAddress()</text>
<text text-anchor="start" x="8" y="-145.5" font-family="Helvetica,sans-Serif" font-size="10.00">+ getLocalAddress()</text>
<text text-anchor="start" x="8" y="-134.5" font-family="Helvetica,sans-Serif" font-size="10.00">+ getRemoteAddressString()</text>
<text text-anchor="start" x="8" y="-123.5" font-family="Helvetica,sans-Serif" font-size="10.00">+ getLocalAddressString()</text>
</a>
</g>
</g>
<!-- Node3 -->
<g id="node3" class="node">
<title>Node3</title>
<g id="a_node3"><a xlink:href="classsylar_1_1http_1_1HttpSession.html" target="_top" xlink:title="HTTPSession封装">
<polygon fill="white" stroke="black" points="13,-0.5 13,-79.5 144,-79.5 144,-0.5 13,-0.5"/>
<text text-anchor="middle" x="78.5" y="-67.5" font-family="Helvetica,sans-Serif" font-size="10.00">sylar::http::HttpSession</text>
<polyline fill="none" stroke="black" points="13,-60.5 144,-60.5 "/>
<text text-anchor="middle" x="78.5" y="-48.5" font-family="Helvetica,sans-Serif" font-size="10.00"> </text>
<polyline fill="none" stroke="black" points="13,-41.5 144,-41.5 "/>
<text text-anchor="start" x="21" y="-29.5" font-family="Helvetica,sans-Serif" font-size="10.00">+ HttpSession()</text>
<text text-anchor="start" x="21" y="-18.5" font-family="Helvetica,sans-Serif" font-size="10.00">+ recvRequest()</text>
<text text-anchor="start" x="21" y="-7.5" font-family="Helvetica,sans-Serif" font-size="10.00">+ sendResponse()</text>
</a>
</g>
</g>
<!-- Node1&#45;&gt;Node3 -->
<g id="edge2" class="edge">
<title>Node1&#45;&gt;Node3</title>
<path fill="none" stroke="midnightblue" d="M78.5,-106.09C78.5,-96.83 78.5,-87.92 78.5,-79.82"/>
<polygon fill="none" stroke="midnightblue" points="75,-106.27 78.5,-116.27 82,-106.27 75,-106.27"/>
</g>
<!-- Node2 -->
<g id="node2" class="node">
<title>Node2</title>
<g id="a_node2"><a xlink:href="classsylar_1_1Stream.html" target="_top" xlink:title="流结构">
<polygon fill="white" stroke="black" points="31,-353.5 31,-509.5 126,-509.5 126,-353.5 31,-353.5"/>
<text text-anchor="middle" x="78.5" y="-497.5" font-family="Helvetica,sans-Serif" font-size="10.00">sylar::Stream</text>
<polyline fill="none" stroke="black" points="31,-490.5 126,-490.5 "/>
<text text-anchor="middle" x="78.5" y="-478.5" font-family="Helvetica,sans-Serif" font-size="10.00"> </text>
<polyline fill="none" stroke="black" points="31,-471.5 126,-471.5 "/>
<text text-anchor="start" x="39" y="-459.5" font-family="Helvetica,sans-Serif" font-size="10.00">+ ~Stream()</text>
<text text-anchor="start" x="39" y="-448.5" font-family="Helvetica,sans-Serif" font-size="10.00">+ read()</text>
<text text-anchor="start" x="39" y="-437.5" font-family="Helvetica,sans-Serif" font-size="10.00">+ read()</text>
<text text-anchor="start" x="39" y="-426.5" font-family="Helvetica,sans-Serif" font-size="10.00">+ readFixSize()</text>
<text text-anchor="start" x="39" y="-415.5" font-family="Helvetica,sans-Serif" font-size="10.00">+ readFixSize()</text>
<text text-anchor="start" x="39" y="-404.5" font-family="Helvetica,sans-Serif" font-size="10.00">+ write()</text>
<text text-anchor="start" x="39" y="-393.5" font-family="Helvetica,sans-Serif" font-size="10.00">+ write()</text>
<text text-anchor="start" x="39" y="-382.5" font-family="Helvetica,sans-Serif" font-size="10.00">+ writeFixSize()</text>
<text text-anchor="start" x="39" y="-371.5" font-family="Helvetica,sans-Serif" font-size="10.00">+ writeFixSize()</text>
<text text-anchor="start" x="39" y="-360.5" font-family="Helvetica,sans-Serif" font-size="10.00">+ close()</text>
</a>
</g>
</g>
<!-- Node2&#45;&gt;Node1 -->
<g id="edge1" class="edge">
<title>Node2&#45;&gt;Node1</title>
<path fill="none" stroke="midnightblue" d="M78.5,-343.14C78.5,-334.41 78.5,-325.5 78.5,-316.66"/>
<polygon fill="none" stroke="midnightblue" points="75,-343.3 78.5,-353.3 82,-343.3 75,-343.3"/>
</g>
</g>
</svg>
