<?xml version="1.0" encoding="UTF-8" standalone="no"?>
<!DOCTYPE svg PUBLIC "-//W3C//DTD SVG 1.1//EN"
 "http://www.w3.org/Graphics/SVG/1.1/DTD/svg11.dtd">
<!-- Generated by graphviz version 2.43.0 (0)
 -->
<!-- Title: sylar::FileLogAppender Pages: 1 -->
<svg width="136pt" height="526pt"
 viewBox="0.00 0.00 136.00 526.00" xmlns="http://www.w3.org/2000/svg" xmlns:xlink="http://www.w3.org/1999/xlink">
<g id="graph0" class="graph" transform="scale(1 1) rotate(0) translate(4 522)">
<title>sylar::FileLogAppender</title>
<polygon fill="white" stroke="transparent" points="-4,4 -4,-522 132,-522 132,4 -4,4"/>
<!-- Node1 -->
<g id="node1" class="node">
<title>Node1</title>
<g id="a_node1"><a xlink:title="输出到文件">
<polygon fill="#bfbfbf" stroke="black" points="0,-0.5 0,-90.5 128,-90.5 128,-0.5 0,-0.5"/>
<text text-anchor="middle" x="64" y="-78.5" font-family="Helvetica,sans-Serif" font-size="10.00">sylar::FileLogAppender</text>
<polyline fill="none" stroke="black" points="0,-71.5 128,-71.5 "/>
<text text-anchor="middle" x="64" y="-59.5" font-family="Helvetica,sans-Serif" font-size="10.00"> </text>
<polyline fill="none" stroke="black" points="0,-52.5 128,-52.5 "/>
<text text-anchor="start" x="8" y="-40.5" font-family="Helvetica,sans-Serif" font-size="10.00">+ FileLogAppender()</text>
<text text-anchor="start" x="8" y="-29.5" font-family="Helvetica,sans-Serif" font-size="10.00">+ log()</text>
<text text-anchor="start" x="8" y="-18.5" font-family="Helvetica,sans-Serif" font-size="10.00">+ reopen()</text>
<text text-anchor="start" x="8" y="-7.5" font-family="Helvetica,sans-Serif" font-size="10.00">+ toYamlString()</text>
</a>
</g>
</g>
<!-- Node2 -->
<g id="node2" class="node">
<title>Node2</title>
<g id="a_node2"><a xlink:href="classsylar_1_1LogAppender.html" target="_top" xlink:title="日志输出地，虚基类，用于派生出不同的LogAppender">
<polygon fill="white" stroke="black" points="1.5,-128.5 1.5,-251.5 126.5,-251.5 126.5,-128.5 1.5,-128.5"/>
<text text-anchor="middle" x="64" y="-239.5" font-family="Helvetica,sans-Serif" font-size="10.00">sylar::LogAppender</text>
<polyline fill="none" stroke="black" points="1.5,-232.5 126.5,-232.5 "/>
<text text-anchor="start" x="9.5" y="-220.5" font-family="Helvetica,sans-Serif" font-size="10.00"># m_formatter</text>
<text text-anchor="start" x="9.5" y="-209.5" font-family="Helvetica,sans-Serif" font-size="10.00"># m_defaultFormatter</text>
<polyline fill="none" stroke="black" points="1.5,-202.5 126.5,-202.5 "/>
<text text-anchor="start" x="9.5" y="-190.5" font-family="Helvetica,sans-Serif" font-size="10.00">+ LogAppender()</text>
<text text-anchor="start" x="9.5" y="-179.5" font-family="Helvetica,sans-Serif" font-size="10.00">+ ~LogAppender()</text>
<text text-anchor="start" x="9.5" y="-168.5" font-family="Helvetica,sans-Serif" font-size="10.00">+ setFormatter()</text>
<text text-anchor="start" x="9.5" y="-157.5" font-family="Helvetica,sans-Serif" font-size="10.00">+ getFormatter()</text>
<text text-anchor="start" x="9.5" y="-146.5" font-family="Helvetica,sans-Serif" font-size="10.00">+ log()</text>
<text text-anchor="start" x="9.5" y="-135.5" font-family="Helvetica,sans-Serif" font-size="10.00">+ toYamlString()</text>
</a>
</g>
</g>
<!-- Node2&#45;&gt;Node1 -->
<g id="edge1" class="edge">
<title>Node2&#45;&gt;Node1</title>
<path fill="none" stroke="midnightblue" d="M64,-118.08C64,-108.77 64,-99.46 64,-90.77"/>
<polygon fill="none" stroke="midnightblue" points="60.5,-118.15 64,-128.15 67.5,-118.15 60.5,-118.15"/>
</g>
<!-- Node3 -->
<g id="node3" class="node">
<title>Node3</title>
<g id="a_node3"><a xlink:href="classsylar_1_1Spinlock.html" target="_top" xlink:title="自旋锁">
<polygon fill="white" stroke="black" points="20,-299.5 20,-389.5 108,-389.5 108,-299.5 20,-299.5"/>
<text text-anchor="middle" x="64" y="-377.5" font-family="Helvetica,sans-Serif" font-size="10.00">sylar::Spinlock</text>
<polyline fill="none" stroke="black" points="20,-370.5 108,-370.5 "/>
<text text-anchor="middle" x="64" y="-358.5" font-family="Helvetica,sans-Serif" font-size="10.00"> </text>
<polyline fill="none" stroke="black" points="20,-351.5 108,-351.5 "/>
<text text-anchor="start" x="28" y="-339.5" font-family="Helvetica,sans-Serif" font-size="10.00">+ Spinlock()</text>
<text text-anchor="start" x="28" y="-328.5" font-family="Helvetica,sans-Serif" font-size="10.00">+ ~Spinlock()</text>
<text text-anchor="start" x="28" y="-317.5" font-family="Helvetica,sans-Serif" font-size="10.00">+ lock()</text>
<text text-anchor="start" x="28" y="-306.5" font-family="Helvetica,sans-Serif" font-size="10.00">+ unlock()</text>
</a>
</g>
</g>
<!-- Node3&#45;&gt;Node2 -->
<g id="edge2" class="edge">
<title>Node3&#45;&gt;Node2</title>
<path fill="none" stroke="#404040" d="M64,-299.39C64,-288.24 64,-275.97 64,-263.81"/>
<polygon fill="none" stroke="#404040" points="64,-263.74 60,-257.74 64,-251.74 68,-257.74 64,-263.74"/>
<text text-anchor="middle" x="93" y="-273" font-family="Helvetica,sans-Serif" font-size="10.00"> #m_mutex</text>
</g>
<!-- Node4 -->
<g id="node4" class="node">
<title>Node4</title>
<g id="a_node4"><a xlink:href="classsylar_1_1Noncopyable.html" target="_top" xlink:title="对象无法拷贝,赋值">
<polygon fill="white" stroke="black" points="9,-427.5 9,-517.5 119,-517.5 119,-427.5 9,-427.5"/>
<text text-anchor="middle" x="64" y="-505.5" font-family="Helvetica,sans-Serif" font-size="10.00">sylar::Noncopyable</text>
<polyline fill="none" stroke="black" points="9,-498.5 119,-498.5 "/>
<text text-anchor="middle" x="64" y="-486.5" font-family="Helvetica,sans-Serif" font-size="10.00"> </text>
<polyline fill="none" stroke="black" points="9,-479.5 119,-479.5 "/>
<text text-anchor="start" x="17" y="-467.5" font-family="Helvetica,sans-Serif" font-size="10.00">+ Noncopyable()</text>
<text text-anchor="start" x="17" y="-456.5" font-family="Helvetica,sans-Serif" font-size="10.00">+ ~Noncopyable()</text>
<text text-anchor="start" x="17" y="-445.5" font-family="Helvetica,sans-Serif" font-size="10.00">+ Noncopyable()</text>
<text text-anchor="start" x="17" y="-434.5" font-family="Helvetica,sans-Serif" font-size="10.00">+ operator=()</text>
</a>
</g>
</g>
<!-- Node4&#45;&gt;Node3 -->
<g id="edge3" class="edge">
<title>Node4&#45;&gt;Node3</title>
<path fill="none" stroke="#8b1a1a" d="M64,-417.23C64,-408.06 64,-398.63 64,-389.76"/>
<polygon fill="none" stroke="#8b1a1a" points="60.5,-417.43 64,-427.43 67.5,-417.43 60.5,-417.43"/>
</g>
</g>
</svg>
