<?xml version="1.0" encoding="UTF-8" standalone="no"?>
<!DOCTYPE svg PUBLIC "-//W3C//DTD SVG 1.1//EN"
 "http://www.w3.org/Graphics/SVG/1.1/DTD/svg11.dtd">
<!-- Generated by graphviz version 2.43.0 (0)
 -->
<!-- Title: sylar::http::Servlet Pages: 1 -->
<svg width="495pt" height="303pt"
 viewBox="0.00 0.00 494.50 303.00" xmlns="http://www.w3.org/2000/svg" xmlns:xlink="http://www.w3.org/1999/xlink">
<g id="graph0" class="graph" transform="scale(1 1) rotate(0) translate(4 299)">
<title>sylar::http::Servlet</title>
<polygon fill="white" stroke="transparent" points="-4,4 -4,-299 490.5,-299 490.5,4 -4,4"/>
<!-- Node1 -->
<g id="node1" class="node">
<title>Node1</title>
<g id="a_node1"><a xlink:title="Servlet封装">
<polygon fill="#bfbfbf" stroke="black" points="189.5,-204.5 189.5,-294.5 296.5,-294.5 296.5,-204.5 189.5,-204.5"/>
<text text-anchor="middle" x="243" y="-282.5" font-family="Helvetica,sans-Serif" font-size="10.00">sylar::http::Servlet</text>
<polyline fill="none" stroke="black" points="189.5,-275.5 296.5,-275.5 "/>
<text text-anchor="start" x="197.5" y="-263.5" font-family="Helvetica,sans-Serif" font-size="10.00"># m_name</text>
<polyline fill="none" stroke="black" points="189.5,-256.5 296.5,-256.5 "/>
<text text-anchor="start" x="197.5" y="-244.5" font-family="Helvetica,sans-Serif" font-size="10.00">+ Servlet()</text>
<text text-anchor="start" x="197.5" y="-233.5" font-family="Helvetica,sans-Serif" font-size="10.00">+ ~Servlet()</text>
<text text-anchor="start" x="197.5" y="-222.5" font-family="Helvetica,sans-Serif" font-size="10.00">+ handle()</text>
<text text-anchor="start" x="197.5" y="-211.5" font-family="Helvetica,sans-Serif" font-size="10.00">+ getName()</text>
</a>
</g>
</g>
<!-- Node2 -->
<g id="node2" class="node">
<title>Node2</title>
<g id="a_node2"><a xlink:href="classsylar_1_1http_1_1FunctionServlet.html" target="_top" xlink:title="函数式Servlet">
<polygon fill="white" stroke="black" points="0,-50 0,-118 148,-118 148,-50 0,-50"/>
<text text-anchor="middle" x="74" y="-106" font-family="Helvetica,sans-Serif" font-size="10.00">sylar::http::FunctionServlet</text>
<polyline fill="none" stroke="black" points="0,-99 148,-99 "/>
<text text-anchor="middle" x="74" y="-87" font-family="Helvetica,sans-Serif" font-size="10.00"> </text>
<polyline fill="none" stroke="black" points="0,-80 148,-80 "/>
<text text-anchor="start" x="8" y="-68" font-family="Helvetica,sans-Serif" font-size="10.00">+ FunctionServlet()</text>
<text text-anchor="start" x="8" y="-57" font-family="Helvetica,sans-Serif" font-size="10.00">+ handle()</text>
</a>
</g>
</g>
<!-- Node1&#45;&gt;Node2 -->
<g id="edge1" class="edge">
<title>Node1&#45;&gt;Node2</title>
<path fill="none" stroke="midnightblue" d="M187.96,-197.49C177.62,-187.76 166.93,-177.61 157,-168 140.3,-151.85 122.02,-133.62 106.87,-118.37"/>
<polygon fill="none" stroke="midnightblue" points="185.73,-200.2 195.42,-204.49 190.52,-195.09 185.73,-200.2"/>
</g>
<!-- Node3 -->
<g id="node3" class="node">
<title>Node3</title>
<g id="a_node3"><a xlink:href="classsylar_1_1http_1_1NotFoundServlet.html" target="_top" xlink:title="NotFoundServlet(默认返回404)">
<polygon fill="white" stroke="black" points="166.5,-50 166.5,-118 319.5,-118 319.5,-50 166.5,-50"/>
<text text-anchor="middle" x="243" y="-106" font-family="Helvetica,sans-Serif" font-size="10.00">sylar::http::NotFoundServlet</text>
<polyline fill="none" stroke="black" points="166.5,-99 319.5,-99 "/>
<text text-anchor="middle" x="243" y="-87" font-family="Helvetica,sans-Serif" font-size="10.00"> </text>
<polyline fill="none" stroke="black" points="166.5,-80 319.5,-80 "/>
<text text-anchor="start" x="174.5" y="-68" font-family="Helvetica,sans-Serif" font-size="10.00">+ NotFoundServlet()</text>
<text text-anchor="start" x="174.5" y="-57" font-family="Helvetica,sans-Serif" font-size="10.00">+ handle()</text>
</a>
</g>
</g>
<!-- Node1&#45;&gt;Node3 -->
<g id="edge2" class="edge">
<title>Node1&#45;&gt;Node3</title>
<path fill="none" stroke="midnightblue" d="M243,-194.11C243,-168.97 243,-139.92 243,-118.12"/>
<polygon fill="none" stroke="midnightblue" points="239.5,-194.25 243,-204.25 246.5,-194.25 239.5,-194.25"/>
</g>
<!-- Node4 -->
<g id="node4" class="node">
<title>Node4</title>
<g id="a_node4"><a xlink:href="classsylar_1_1http_1_1ServletDispatch.html" target="_top" xlink:title="Servlet分发器">
<polygon fill="white" stroke="black" points="337.5,-0.5 337.5,-167.5 486.5,-167.5 486.5,-0.5 337.5,-0.5"/>
<text text-anchor="middle" x="412" y="-155.5" font-family="Helvetica,sans-Serif" font-size="10.00">sylar::http::ServletDispatch</text>
<polyline fill="none" stroke="black" points="337.5,-148.5 486.5,-148.5 "/>
<text text-anchor="middle" x="412" y="-136.5" font-family="Helvetica,sans-Serif" font-size="10.00"> </text>
<polyline fill="none" stroke="black" points="337.5,-129.5 486.5,-129.5 "/>
<text text-anchor="start" x="345.5" y="-117.5" font-family="Helvetica,sans-Serif" font-size="10.00">+ ServletDispatch()</text>
<text text-anchor="start" x="345.5" y="-106.5" font-family="Helvetica,sans-Serif" font-size="10.00">+ handle()</text>
<text text-anchor="start" x="345.5" y="-95.5" font-family="Helvetica,sans-Serif" font-size="10.00">+ addServlet()</text>
<text text-anchor="start" x="345.5" y="-84.5" font-family="Helvetica,sans-Serif" font-size="10.00">+ addServlet()</text>
<text text-anchor="start" x="345.5" y="-73.5" font-family="Helvetica,sans-Serif" font-size="10.00">+ addGlobServlet()</text>
<text text-anchor="start" x="345.5" y="-62.5" font-family="Helvetica,sans-Serif" font-size="10.00">+ addGlobServlet()</text>
<text text-anchor="start" x="345.5" y="-51.5" font-family="Helvetica,sans-Serif" font-size="10.00">+ addServletCreator()</text>
<text text-anchor="start" x="345.5" y="-40.5" font-family="Helvetica,sans-Serif" font-size="10.00">+ addGlobServletCreator()</text>
<text text-anchor="start" x="345.5" y="-29.5" font-family="Helvetica,sans-Serif" font-size="10.00">+ addServletCreator()</text>
<text text-anchor="start" x="345.5" y="-18.5" font-family="Helvetica,sans-Serif" font-size="10.00">+ addGlobServletCreator()</text>
<text text-anchor="start" x="345.5" y="-7.5" font-family="Helvetica,sans-Serif" font-size="10.00">和 9 更多...</text>
</a>
</g>
</g>
<!-- Node1&#45;&gt;Node4 -->
<g id="edge3" class="edge">
<title>Node1&#45;&gt;Node4</title>
<path fill="none" stroke="midnightblue" d="M298.04,-197.49C308.38,-187.76 319.07,-177.61 329,-168 331.78,-165.31 334.61,-162.56 337.46,-159.77"/>
<polygon fill="none" stroke="midnightblue" points="295.48,-195.09 290.58,-204.49 300.27,-200.2 295.48,-195.09"/>
</g>
</g>
</svg>
