<?xml version="1.0" encoding="UTF-8" standalone="no"?>
<!DOCTYPE svg PUBLIC "-//W3C//DTD SVG 1.1//EN"
 "http://www.w3.org/Graphics/SVG/1.1/DTD/svg11.dtd">
<!-- Generated by graphviz version 2.43.0 (0)
 -->
<!-- Title: sylar::ByteArray::readStringVint Pages: 1 -->
<svg width="912pt" height="47pt"
 viewBox="0.00 0.00 912.00 47.00" xmlns="http://www.w3.org/2000/svg" xmlns:xlink="http://www.w3.org/1999/xlink">
<g id="graph0" class="graph" transform="scale(1 1) rotate(0) translate(4 43)">
<title>sylar::ByteArray::readStringVint</title>
<polygon fill="white" stroke="transparent" points="-4,4 -4,-43 908,-43 908,4 -4,4"/>
<!-- Node1 -->
<g id="node1" class="node">
<title>Node1</title>
<g id="a_node1"><a xlink:title="读取std::string类型的数据,用无符号Varint64作为长度">
<polygon fill="#bfbfbf" stroke="black" points="0,-19.5 0,-38.5 170,-38.5 170,-19.5 0,-19.5"/>
<text text-anchor="middle" x="85" y="-26.5" font-family="Helvetica,sans-Serif" font-size="10.00">sylar::ByteArray::readStringVint</text>
</a>
</g>
</g>
<!-- Node2 -->
<g id="node2" class="node">
<title>Node2</title>
<g id="a_node2"><a xlink:href="classsylar_1_1ByteArray.html#add0a86b9e7ac29fe11e9a9efc3f25699" target="_top" xlink:title="读取size长度的数据">
<polygon fill="white" stroke="black" points="585,-19.5 585,-38.5 707,-38.5 707,-19.5 585,-19.5"/>
<text text-anchor="middle" x="646" y="-26.5" font-family="Helvetica,sans-Serif" font-size="10.00">sylar::ByteArray::read</text>
</a>
</g>
</g>
<!-- Node1&#45;&gt;Node2 -->
<g id="edge1" class="edge">
<title>Node1&#45;&gt;Node2</title>
<path fill="none" stroke="midnightblue" d="M170.29,-29C280.58,-29 471.85,-29 574.71,-29"/>
<polygon fill="midnightblue" stroke="midnightblue" points="574.99,-32.5 584.99,-29 574.99,-25.5 574.99,-32.5"/>
</g>
<!-- Node4 -->
<g id="node4" class="node">
<title>Node4</title>
<g id="a_node4"><a xlink:href="classsylar_1_1ByteArray.html#a7c45e91cbb1761b66ca9d9f6a788ac30" target="_top" xlink:title="读取无符号Varint64类型的数据">
<polygon fill="white" stroke="black" points="206,-0.5 206,-19.5 361,-19.5 361,-0.5 206,-0.5"/>
<text text-anchor="middle" x="283.5" y="-7.5" font-family="Helvetica,sans-Serif" font-size="10.00">sylar::ByteArray::readUint64</text>
</a>
</g>
</g>
<!-- Node1&#45;&gt;Node4 -->
<g id="edge3" class="edge">
<title>Node1&#45;&gt;Node4</title>
<path fill="none" stroke="midnightblue" d="M170.19,-20.86C178.72,-20.03 187.4,-19.2 195.96,-18.37"/>
<polygon fill="midnightblue" stroke="midnightblue" points="196.32,-21.85 205.94,-17.4 195.65,-14.88 196.32,-21.85"/>
</g>
<!-- Node3 -->
<g id="node3" class="node">
<title>Node3</title>
<g id="a_node3"><a xlink:href="classsylar_1_1ByteArray.html#a763d792f91cfd84072692ac0cdef8efc" target="_top" xlink:title="返回可读取数据大小">
<polygon fill="white" stroke="black" points="743,-19.5 743,-38.5 904,-38.5 904,-19.5 743,-19.5"/>
<text text-anchor="middle" x="823.5" y="-26.5" font-family="Helvetica,sans-Serif" font-size="10.00">sylar::ByteArray::getReadSize</text>
</a>
</g>
</g>
<!-- Node2&#45;&gt;Node3 -->
<g id="edge2" class="edge">
<title>Node2&#45;&gt;Node3</title>
<path fill="none" stroke="midnightblue" d="M707.4,-29C715.59,-29 724.14,-29 732.72,-29"/>
<polygon fill="midnightblue" stroke="midnightblue" points="732.78,-32.5 742.78,-29 732.78,-25.5 732.78,-32.5"/>
</g>
<!-- Node5 -->
<g id="node5" class="node">
<title>Node5</title>
<g id="a_node5"><a xlink:href="classsylar_1_1ByteArray.html#aa68fb27eef571c42e4dabdc1331a59d6" target="_top" xlink:title="读取uint8_t类型的数据">
<polygon fill="white" stroke="black" points="397,-0.5 397,-19.5 549,-19.5 549,-0.5 397,-0.5"/>
<text text-anchor="middle" x="473" y="-7.5" font-family="Helvetica,sans-Serif" font-size="10.00">sylar::ByteArray::readFuint8</text>
</a>
</g>
</g>
<!-- Node4&#45;&gt;Node5 -->
<g id="edge4" class="edge">
<title>Node4&#45;&gt;Node5</title>
<path fill="none" stroke="midnightblue" d="M361.03,-10C369.55,-10 378.26,-10 386.87,-10"/>
<polygon fill="midnightblue" stroke="midnightblue" points="386.92,-13.5 396.92,-10 386.92,-6.5 386.92,-13.5"/>
</g>
<!-- Node5&#45;&gt;Node2 -->
<g id="edge5" class="edge">
<title>Node5&#45;&gt;Node2</title>
<path fill="none" stroke="midnightblue" d="M549,-18.33C557.65,-19.29 566.43,-20.27 575.01,-21.22"/>
<polygon fill="midnightblue" stroke="midnightblue" points="574.62,-24.7 584.95,-22.33 575.4,-17.74 574.62,-24.7"/>
</g>
</g>
</svg>
