<?xml version="1.0" encoding="UTF-8" standalone="no"?>
<!DOCTYPE svg PUBLIC "-//W3C//DTD SVG 1.1//EN"
 "http://www.w3.org/Graphics/SVG/1.1/DTD/svg11.dtd">
<!-- Generated by graphviz version 2.43.0 (0)
 -->
<!-- Title: sylar::StdoutLogAppender Pages: 1 -->
<svg width="150pt" height="259pt"
 viewBox="0.00 0.00 150.00 259.00" xmlns="http://www.w3.org/2000/svg" xmlns:xlink="http://www.w3.org/1999/xlink">
<g id="graph0" class="graph" transform="scale(1 1) rotate(0) translate(4 255)">
<title>sylar::StdoutLogAppender</title>
<polygon fill="white" stroke="transparent" points="-4,4 -4,-255 146,-255 146,4 -4,4"/>
<!-- Node1 -->
<g id="node1" class="node">
<title>Node1</title>
<g id="a_node1"><a xlink:title="输出到控制台的Appender">
<polygon fill="#bfbfbf" stroke="black" points="0,-0.5 0,-79.5 142,-79.5 142,-0.5 0,-0.5"/>
<text text-anchor="middle" x="71" y="-67.5" font-family="Helvetica,sans-Serif" font-size="10.00">sylar::StdoutLogAppender</text>
<polyline fill="none" stroke="black" points="0,-60.5 142,-60.5 "/>
<text text-anchor="middle" x="71" y="-48.5" font-family="Helvetica,sans-Serif" font-size="10.00"> </text>
<polyline fill="none" stroke="black" points="0,-41.5 142,-41.5 "/>
<text text-anchor="start" x="8" y="-29.5" font-family="Helvetica,sans-Serif" font-size="10.00">+ StdoutLogAppender()</text>
<text text-anchor="start" x="8" y="-18.5" font-family="Helvetica,sans-Serif" font-size="10.00">+ log()</text>
<text text-anchor="start" x="8" y="-7.5" font-family="Helvetica,sans-Serif" font-size="10.00">+ toYamlString()</text>
</a>
</g>
</g>
<!-- Node2 -->
<g id="node2" class="node">
<title>Node2</title>
<g id="a_node2"><a xlink:href="classsylar_1_1LogAppender.html" target="_top" xlink:title="日志输出地，虚基类，用于派生出不同的LogAppender">
<polygon fill="white" stroke="black" points="8.5,-116.5 8.5,-250.5 133.5,-250.5 133.5,-116.5 8.5,-116.5"/>
<text text-anchor="middle" x="71" y="-238.5" font-family="Helvetica,sans-Serif" font-size="10.00">sylar::LogAppender</text>
<polyline fill="none" stroke="black" points="8.5,-231.5 133.5,-231.5 "/>
<text text-anchor="start" x="16.5" y="-219.5" font-family="Helvetica,sans-Serif" font-size="10.00"># m_mutex</text>
<text text-anchor="start" x="16.5" y="-208.5" font-family="Helvetica,sans-Serif" font-size="10.00"># m_formatter</text>
<text text-anchor="start" x="16.5" y="-197.5" font-family="Helvetica,sans-Serif" font-size="10.00"># m_defaultFormatter</text>
<polyline fill="none" stroke="black" points="8.5,-190.5 133.5,-190.5 "/>
<text text-anchor="start" x="16.5" y="-178.5" font-family="Helvetica,sans-Serif" font-size="10.00">+ LogAppender()</text>
<text text-anchor="start" x="16.5" y="-167.5" font-family="Helvetica,sans-Serif" font-size="10.00">+ ~LogAppender()</text>
<text text-anchor="start" x="16.5" y="-156.5" font-family="Helvetica,sans-Serif" font-size="10.00">+ setFormatter()</text>
<text text-anchor="start" x="16.5" y="-145.5" font-family="Helvetica,sans-Serif" font-size="10.00">+ getFormatter()</text>
<text text-anchor="start" x="16.5" y="-134.5" font-family="Helvetica,sans-Serif" font-size="10.00">+ log()</text>
<text text-anchor="start" x="16.5" y="-123.5" font-family="Helvetica,sans-Serif" font-size="10.00">+ toYamlString()</text>
</a>
</g>
</g>
<!-- Node2&#45;&gt;Node1 -->
<g id="edge1" class="edge">
<title>Node2&#45;&gt;Node1</title>
<path fill="none" stroke="midnightblue" d="M71,-106.03C71,-96.95 71,-87.99 71,-79.76"/>
<polygon fill="none" stroke="midnightblue" points="67.5,-106.31 71,-116.31 74.5,-106.31 67.5,-106.31"/>
</g>
</g>
</svg>
