<?xml version="1.0" encoding="UTF-8" standalone="no"?>
<!DOCTYPE svg PUBLIC "-//W3C//DTD SVG 1.1//EN"
 "http://www.w3.org/Graphics/SVG/1.1/DTD/svg11.dtd">
<!-- Generated by graphviz version 2.43.0 (0)
 -->
<!-- Title: sylar::TcpServer Pages: 1 -->
<svg width="278pt" height="540pt"
 viewBox="0.00 0.00 278.00 540.00" xmlns="http://www.w3.org/2000/svg" xmlns:xlink="http://www.w3.org/1999/xlink">
<g id="graph0" class="graph" transform="scale(1 1) rotate(0) translate(4 536)">
<title>sylar::TcpServer</title>
<polygon fill="white" stroke="transparent" points="-4,4 -4,-536 274,-536 274,4 -4,4"/>
<!-- Node1 -->
<g id="node1" class="node">
<title>Node1</title>
<g id="a_node1"><a xlink:title="TCP服务器封装">
<polygon fill="#bfbfbf" stroke="black" points="82,-138.5 82,-404.5 198,-404.5 198,-138.5 82,-138.5"/>
<text text-anchor="middle" x="140" y="-392.5" font-family="Helvetica,sans-Serif" font-size="10.00">sylar::TcpServer</text>
<polyline fill="none" stroke="black" points="82,-385.5 198,-385.5 "/>
<text text-anchor="start" x="90" y="-373.5" font-family="Helvetica,sans-Serif" font-size="10.00"># m_socks</text>
<text text-anchor="start" x="90" y="-362.5" font-family="Helvetica,sans-Serif" font-size="10.00"># m_ioWorker</text>
<text text-anchor="start" x="90" y="-351.5" font-family="Helvetica,sans-Serif" font-size="10.00"># m_acceptWorker</text>
<text text-anchor="start" x="90" y="-340.5" font-family="Helvetica,sans-Serif" font-size="10.00"># m_recvTimeout</text>
<text text-anchor="start" x="90" y="-329.5" font-family="Helvetica,sans-Serif" font-size="10.00"># m_name</text>
<text text-anchor="start" x="90" y="-318.5" font-family="Helvetica,sans-Serif" font-size="10.00"># m_type</text>
<text text-anchor="start" x="90" y="-307.5" font-family="Helvetica,sans-Serif" font-size="10.00"># m_isStop</text>
<polyline fill="none" stroke="black" points="82,-300.5 198,-300.5 "/>
<text text-anchor="start" x="90" y="-288.5" font-family="Helvetica,sans-Serif" font-size="10.00">+ TcpServer()</text>
<text text-anchor="start" x="90" y="-277.5" font-family="Helvetica,sans-Serif" font-size="10.00">+ ~TcpServer()</text>
<text text-anchor="start" x="90" y="-266.5" font-family="Helvetica,sans-Serif" font-size="10.00">+ bind()</text>
<text text-anchor="start" x="90" y="-255.5" font-family="Helvetica,sans-Serif" font-size="10.00">+ bind()</text>
<text text-anchor="start" x="90" y="-244.5" font-family="Helvetica,sans-Serif" font-size="10.00">+ start()</text>
<text text-anchor="start" x="90" y="-233.5" font-family="Helvetica,sans-Serif" font-size="10.00">+ stop()</text>
<text text-anchor="start" x="90" y="-222.5" font-family="Helvetica,sans-Serif" font-size="10.00">+ getRecvTimeout()</text>
<text text-anchor="start" x="90" y="-211.5" font-family="Helvetica,sans-Serif" font-size="10.00">+ getName()</text>
<text text-anchor="start" x="90" y="-200.5" font-family="Helvetica,sans-Serif" font-size="10.00">+ setRecvTimeout()</text>
<text text-anchor="start" x="90" y="-189.5" font-family="Helvetica,sans-Serif" font-size="10.00">+ setName()</text>
<text text-anchor="start" x="90" y="-178.5" font-family="Helvetica,sans-Serif" font-size="10.00">+ isStop()</text>
<text text-anchor="start" x="90" y="-167.5" font-family="Helvetica,sans-Serif" font-size="10.00">+ toString()</text>
<text text-anchor="start" x="90" y="-156.5" font-family="Helvetica,sans-Serif" font-size="10.00"># handleClient()</text>
<text text-anchor="start" x="90" y="-145.5" font-family="Helvetica,sans-Serif" font-size="10.00"># startAccept()</text>
</a>
</g>
</g>
<!-- Node4 -->
<g id="node4" class="node">
<title>Node4</title>
<g id="a_node4"><a xlink:href="classMyTcpServer.html" target="_top" xlink:title="自定义TcpServer类，重载handleClient方法">
<polygon fill="white" stroke="black" points="26.5,-22.5 26.5,-79.5 123.5,-79.5 123.5,-22.5 26.5,-22.5"/>
<text text-anchor="middle" x="75" y="-67.5" font-family="Helvetica,sans-Serif" font-size="10.00">MyTcpServer</text>
<polyline fill="none" stroke="black" points="26.5,-60.5 123.5,-60.5 "/>
<text text-anchor="middle" x="75" y="-48.5" font-family="Helvetica,sans-Serif" font-size="10.00"> </text>
<polyline fill="none" stroke="black" points="26.5,-41.5 123.5,-41.5 "/>
<text text-anchor="start" x="34.5" y="-29.5" font-family="Helvetica,sans-Serif" font-size="10.00"># handleClient()</text>
</a>
</g>
</g>
<!-- Node1&#45;&gt;Node4 -->
<g id="edge3" class="edge">
<title>Node1&#45;&gt;Node4</title>
<path fill="none" stroke="midnightblue" d="M97.79,-128.61C92.31,-110.19 87.23,-93.13 83.27,-79.8"/>
<polygon fill="none" stroke="midnightblue" points="94.48,-129.77 100.69,-138.36 101.19,-127.77 94.48,-129.77"/>
</g>
<!-- Node5 -->
<g id="node5" class="node">
<title>Node5</title>
<g id="a_node5"><a xlink:href="classsylar_1_1http_1_1HttpServer.html" target="_top" xlink:title="HTTP服务器类">
<polygon fill="white" stroke="black" points="142,-0.5 142,-101.5 270,-101.5 270,-0.5 142,-0.5"/>
<text text-anchor="middle" x="206" y="-89.5" font-family="Helvetica,sans-Serif" font-size="10.00">sylar::http::HttpServer</text>
<polyline fill="none" stroke="black" points="142,-82.5 270,-82.5 "/>
<text text-anchor="middle" x="206" y="-70.5" font-family="Helvetica,sans-Serif" font-size="10.00"> </text>
<polyline fill="none" stroke="black" points="142,-63.5 270,-63.5 "/>
<text text-anchor="start" x="150" y="-51.5" font-family="Helvetica,sans-Serif" font-size="10.00">+ HttpServer()</text>
<text text-anchor="start" x="150" y="-40.5" font-family="Helvetica,sans-Serif" font-size="10.00">+ getServletDispatch()</text>
<text text-anchor="start" x="150" y="-29.5" font-family="Helvetica,sans-Serif" font-size="10.00">+ setServletDispatch()</text>
<text text-anchor="start" x="150" y="-18.5" font-family="Helvetica,sans-Serif" font-size="10.00">+ setName()</text>
<text text-anchor="start" x="150" y="-7.5" font-family="Helvetica,sans-Serif" font-size="10.00"># handleClient()</text>
</a>
</g>
</g>
<!-- Node1&#45;&gt;Node5 -->
<g id="edge4" class="edge">
<title>Node1&#45;&gt;Node5</title>
<path fill="none" stroke="midnightblue" d="M182.82,-128.75C185.69,-119.25 188.45,-110.1 191,-101.65"/>
<polygon fill="none" stroke="midnightblue" points="179.46,-127.77 179.92,-138.36 186.16,-129.8 179.46,-127.77"/>
</g>
<!-- Node2 -->
<g id="node2" class="node">
<title>Node2</title>
<g id="a_node2"><a xlink:title=" ">
<polygon fill="white" stroke="#bfbfbf" points="0,-452.5 0,-520.5 138,-520.5 138,-452.5 0,-452.5"/>
<text text-anchor="start" x="8" y="-508.5" font-family="Helvetica,sans-Serif" font-size="10.00">std::enable_shared</text>
<text text-anchor="middle" x="69" y="-497.5" font-family="Helvetica,sans-Serif" font-size="10.00">_from_this&lt; TcpServer &gt;</text>
<polyline fill="none" stroke="#bfbfbf" points="0,-490.5 138,-490.5 "/>
<text text-anchor="middle" x="69" y="-478.5" font-family="Helvetica,sans-Serif" font-size="10.00"> </text>
<polyline fill="none" stroke="#bfbfbf" points="0,-471.5 138,-471.5 "/>
<text text-anchor="middle" x="69" y="-459.5" font-family="Helvetica,sans-Serif" font-size="10.00"> </text>
</a>
</g>
</g>
<!-- Node2&#45;&gt;Node1 -->
<g id="edge1" class="edge">
<title>Node2&#45;&gt;Node1</title>
<path fill="none" stroke="midnightblue" d="M83.29,-442.63C87.08,-431.25 91.39,-418.33 95.89,-404.82"/>
<polygon fill="none" stroke="midnightblue" points="79.94,-441.63 80.09,-452.22 86.58,-443.84 79.94,-441.63"/>
</g>
<!-- Node3 -->
<g id="node3" class="node">
<title>Node3</title>
<g id="a_node3"><a xlink:href="classsylar_1_1Noncopyable.html" target="_top" xlink:title="对象无法拷贝,赋值">
<polygon fill="white" stroke="black" points="156,-441.5 156,-531.5 266,-531.5 266,-441.5 156,-441.5"/>
<text text-anchor="middle" x="211" y="-519.5" font-family="Helvetica,sans-Serif" font-size="10.00">sylar::Noncopyable</text>
<polyline fill="none" stroke="black" points="156,-512.5 266,-512.5 "/>
<text text-anchor="middle" x="211" y="-500.5" font-family="Helvetica,sans-Serif" font-size="10.00"> </text>
<polyline fill="none" stroke="black" points="156,-493.5 266,-493.5 "/>
<text text-anchor="start" x="164" y="-481.5" font-family="Helvetica,sans-Serif" font-size="10.00">+ Noncopyable()</text>
<text text-anchor="start" x="164" y="-470.5" font-family="Helvetica,sans-Serif" font-size="10.00">+ ~Noncopyable()</text>
<text text-anchor="start" x="164" y="-459.5" font-family="Helvetica,sans-Serif" font-size="10.00">+ Noncopyable()</text>
<text text-anchor="start" x="164" y="-448.5" font-family="Helvetica,sans-Serif" font-size="10.00">+ operator=()</text>
</a>
</g>
</g>
<!-- Node3&#45;&gt;Node1 -->
<g id="edge2" class="edge">
<title>Node3&#45;&gt;Node1</title>
<path fill="none" stroke="#8b1a1a" d="M193.07,-431.7C190.24,-423.21 187.21,-414.13 184.09,-404.77"/>
<polygon fill="none" stroke="#8b1a1a" points="189.81,-432.99 196.29,-441.37 196.45,-430.77 189.81,-432.99"/>
</g>
</g>
</svg>
