<?xml version="1.0" encoding="UTF-8" standalone="no"?>
<!DOCTYPE svg PUBLIC "-//W3C//DTD SVG 1.1//EN"
 "http://www.w3.org/Graphics/SVG/1.1/DTD/svg11.dtd">
<!-- Generated by graphviz version 2.43.0 (0)
 -->
<!-- Title: sylar::http::HttpRequest::toString Pages: 1 -->
<svg width="486pt" height="57pt"
 viewBox="0.00 0.00 486.00 57.00" xmlns="http://www.w3.org/2000/svg" xmlns:xlink="http://www.w3.org/1999/xlink">
<g id="graph0" class="graph" transform="scale(1 1) rotate(0) translate(4 53)">
<title>sylar::http::HttpRequest::toString</title>
<polygon fill="white" stroke="transparent" points="-4,4 -4,-53 482,-53 482,4 -4,4"/>
<!-- Node1 -->
<g id="node1" class="node">
<title>Node1</title>
<g id="a_node1"><a xlink:title="转成字符串类型">
<polygon fill="#bfbfbf" stroke="black" points="0,-0.5 0,-30.5 133,-30.5 133,-0.5 0,-0.5"/>
<text text-anchor="start" x="8" y="-18.5" font-family="Helvetica,sans-Serif" font-size="10.00">sylar::http::HttpRequest</text>
<text text-anchor="middle" x="66.5" y="-7.5" font-family="Helvetica,sans-Serif" font-size="10.00">::toString</text>
</a>
</g>
</g>
<!-- Node2 -->
<g id="node2" class="node">
<title>Node2</title>
<g id="a_node2"><a xlink:href="classsylar_1_1http_1_1HttpRequest.html#af08183356fe022e9f23cb66460e36c73" target="_top" xlink:title="序列化输出到流中">
<polygon fill="white" stroke="black" points="169,-0.5 169,-30.5 302,-30.5 302,-0.5 169,-0.5"/>
<text text-anchor="start" x="177" y="-18.5" font-family="Helvetica,sans-Serif" font-size="10.00">sylar::http::HttpRequest</text>
<text text-anchor="middle" x="235.5" y="-7.5" font-family="Helvetica,sans-Serif" font-size="10.00">::dump</text>
</a>
</g>
</g>
<!-- Node1&#45;&gt;Node2 -->
<g id="edge1" class="edge">
<title>Node1&#45;&gt;Node2</title>
<path fill="none" stroke="midnightblue" d="M133.02,-15.5C141.5,-15.5 150.23,-15.5 158.85,-15.5"/>
<polygon fill="midnightblue" stroke="midnightblue" points="158.89,-19 168.89,-15.5 158.89,-12 158.89,-19"/>
</g>
<!-- Node3 -->
<g id="node3" class="node">
<title>Node3</title>
<g id="a_node3"><a xlink:href="http_8cc.html#a371c464090835dffd6f29dd618cdb01c" target="_top" xlink:title="将HTTP方法枚举转换成字符串">
<polygon fill="white" stroke="black" points="338,-0.5 338,-30.5 478,-30.5 478,-0.5 338,-0.5"/>
<text text-anchor="start" x="346" y="-18.5" font-family="Helvetica,sans-Serif" font-size="10.00">sylar::http::HttpMethodTo</text>
<text text-anchor="middle" x="408" y="-7.5" font-family="Helvetica,sans-Serif" font-size="10.00">String</text>
</a>
</g>
</g>
<!-- Node2&#45;&gt;Node3 -->
<g id="edge2" class="edge">
<title>Node2&#45;&gt;Node3</title>
<path fill="none" stroke="midnightblue" d="M302.42,-15.5C310.68,-15.5 319.2,-15.5 327.64,-15.5"/>
<polygon fill="midnightblue" stroke="midnightblue" points="327.87,-19 337.87,-15.5 327.87,-12 327.87,-19"/>
</g>
<!-- Node3&#45;&gt;Node3 -->
<g id="edge3" class="edge">
<title>Node3&#45;&gt;Node3</title>
<path fill="none" stroke="midnightblue" d="M378.03,-30.66C370.8,-40.06 380.79,-49 408,-49 424.58,-49 434.77,-45.68 438.56,-40.96"/>
<polygon fill="midnightblue" stroke="midnightblue" points="442.04,-40.44 437.97,-30.66 435.05,-40.84 442.04,-40.44"/>
</g>
</g>
</svg>
