<?xml version="1.0" encoding="UTF-8" standalone="no"?>
<!DOCTYPE svg PUBLIC "-//W3C//DTD SVG 1.1//EN"
 "http://www.w3.org/Graphics/SVG/1.1/DTD/svg11.dtd">
<!-- Generated by graphviz version 2.43.0 (0)
 -->
<!-- Title: sylar::ByteArray::writeStringF16 Pages: 1 -->
<svg width="377pt" height="66pt"
 viewBox="0.00 0.00 377.00 66.00" xmlns="http://www.w3.org/2000/svg" xmlns:xlink="http://www.w3.org/1999/xlink">
<g id="graph0" class="graph" transform="scale(1 1) rotate(0) translate(4 62)">
<title>sylar::ByteArray::writeStringF16</title>
<polygon fill="white" stroke="transparent" points="-4,4 -4,-62 373,-62 373,4 -4,4"/>
<!-- Node1 -->
<g id="node1" class="node">
<title>Node1</title>
<g id="a_node1"><a xlink:title="写入std::string类型的数据,用uint16_t作为长度类型">
<polygon fill="#bfbfbf" stroke="black" points="0,-19.5 0,-38.5 172,-38.5 172,-19.5 0,-19.5"/>
<text text-anchor="middle" x="86" y="-26.5" font-family="Helvetica,sans-Serif" font-size="10.00">sylar::ByteArray::writeStringF16</text>
</a>
</g>
</g>
<!-- Node2 -->
<g id="node2" class="node">
<title>Node2</title>
<g id="a_node2"><a xlink:href="classsylar_1_1ByteArray.html#aa02ff9c7ab29ee312e3ad8043acf28dc" target="_top" xlink:title="写入size长度的数据">
<polygon fill="white" stroke="black" points="226,-38.5 226,-57.5 351,-57.5 351,-38.5 226,-38.5"/>
<text text-anchor="middle" x="288.5" y="-45.5" font-family="Helvetica,sans-Serif" font-size="10.00">sylar::ByteArray::write</text>
</a>
</g>
</g>
<!-- Node1&#45;&gt;Node2 -->
<g id="edge1" class="edge">
<title>Node1&#45;&gt;Node2</title>
<path fill="none" stroke="midnightblue" d="M172.03,-37.06C186.54,-38.43 201.5,-39.85 215.63,-41.19"/>
<polygon fill="midnightblue" stroke="midnightblue" points="215.47,-44.69 225.75,-42.15 216.13,-37.72 215.47,-44.69"/>
</g>
<!-- Node3 -->
<g id="node3" class="node">
<title>Node3</title>
<g id="a_node3"><a xlink:href="classsylar_1_1ByteArray.html#a24aa3be1bca40a0d0af6696a554ba342" target="_top" xlink:title="写入固定长度uint16_t类型的数据(大端/小端)">
<polygon fill="white" stroke="black" points="208,-0.5 208,-19.5 369,-19.5 369,-0.5 208,-0.5"/>
<text text-anchor="middle" x="288.5" y="-7.5" font-family="Helvetica,sans-Serif" font-size="10.00">sylar::ByteArray::writeFuint16</text>
</a>
</g>
</g>
<!-- Node1&#45;&gt;Node3 -->
<g id="edge2" class="edge">
<title>Node1&#45;&gt;Node3</title>
<path fill="none" stroke="midnightblue" d="M172.03,-20.94C180.55,-20.14 189.21,-19.31 197.77,-18.5"/>
<polygon fill="midnightblue" stroke="midnightblue" points="198.13,-21.98 207.76,-17.56 197.47,-15.02 198.13,-21.98"/>
</g>
</g>
</svg>
