<?xml version="1.0" encoding="UTF-8" standalone="no"?>
<!DOCTYPE svg PUBLIC "-//W3C//DTD SVG 1.1//EN"
 "http://www.w3.org/Graphics/SVG/1.1/DTD/svg11.dtd">
<!-- Generated by graphviz version 2.43.0 (0)
 -->
<!-- Title: sylar::IOManager Pages: 1 -->
<svg width="288pt" height="435pt"
 viewBox="0.00 0.00 287.50 435.00" xmlns="http://www.w3.org/2000/svg" xmlns:xlink="http://www.w3.org/1999/xlink">
<g id="graph0" class="graph" transform="scale(1 1) rotate(0) translate(4 431)">
<title>sylar::IOManager</title>
<polygon fill="white" stroke="transparent" points="-4,4 -4,-431 283.5,-431 283.5,4 -4,4"/>
<!-- Node1 -->
<g id="node1" class="node">
<title>Node1</title>
<g id="a_node1"><a xlink:title=" ">
<polygon fill="#bfbfbf" stroke="black" points="53.5,-0.5 53.5,-189.5 204.5,-189.5 204.5,-0.5 53.5,-0.5"/>
<text text-anchor="middle" x="129" y="-177.5" font-family="Helvetica,sans-Serif" font-size="10.00">sylar::IOManager</text>
<polyline fill="none" stroke="black" points="53.5,-170.5 204.5,-170.5 "/>
<text text-anchor="middle" x="129" y="-158.5" font-family="Helvetica,sans-Serif" font-size="10.00"> </text>
<polyline fill="none" stroke="black" points="53.5,-151.5 204.5,-151.5 "/>
<text text-anchor="start" x="61.5" y="-139.5" font-family="Helvetica,sans-Serif" font-size="10.00">+ IOManager()</text>
<text text-anchor="start" x="61.5" y="-128.5" font-family="Helvetica,sans-Serif" font-size="10.00">+ ~IOManager()</text>
<text text-anchor="start" x="61.5" y="-117.5" font-family="Helvetica,sans-Serif" font-size="10.00">+ addEvent()</text>
<text text-anchor="start" x="61.5" y="-106.5" font-family="Helvetica,sans-Serif" font-size="10.00">+ delEvent()</text>
<text text-anchor="start" x="61.5" y="-95.5" font-family="Helvetica,sans-Serif" font-size="10.00">+ cancelEvent()</text>
<text text-anchor="start" x="61.5" y="-84.5" font-family="Helvetica,sans-Serif" font-size="10.00">+ cancelAll()</text>
<text text-anchor="start" x="61.5" y="-73.5" font-family="Helvetica,sans-Serif" font-size="10.00">+ GetThis()</text>
<text text-anchor="start" x="61.5" y="-62.5" font-family="Helvetica,sans-Serif" font-size="10.00"># tickle()</text>
<text text-anchor="start" x="61.5" y="-51.5" font-family="Helvetica,sans-Serif" font-size="10.00"># stopping()</text>
<text text-anchor="start" x="61.5" y="-40.5" font-family="Helvetica,sans-Serif" font-size="10.00"># idle()</text>
<text text-anchor="start" x="61.5" y="-29.5" font-family="Helvetica,sans-Serif" font-size="10.00"># stopping()</text>
<text text-anchor="start" x="61.5" y="-18.5" font-family="Helvetica,sans-Serif" font-size="10.00"># onTimerInsertedAtFront()</text>
<text text-anchor="start" x="61.5" y="-7.5" font-family="Helvetica,sans-Serif" font-size="10.00"># contextResize()</text>
</a>
</g>
</g>
<!-- Node2 -->
<g id="node2" class="node">
<title>Node2</title>
<g id="a_node2"><a xlink:href="classsylar_1_1Scheduler.html" target="_top" xlink:title="协程调度器">
<polygon fill="white" stroke="black" points="0,-226.5 0,-426.5 110,-426.5 110,-226.5 0,-226.5"/>
<text text-anchor="middle" x="55" y="-414.5" font-family="Helvetica,sans-Serif" font-size="10.00">sylar::Scheduler</text>
<polyline fill="none" stroke="black" points="0,-407.5 110,-407.5 "/>
<text text-anchor="middle" x="55" y="-395.5" font-family="Helvetica,sans-Serif" font-size="10.00"> </text>
<polyline fill="none" stroke="black" points="0,-388.5 110,-388.5 "/>
<text text-anchor="start" x="8" y="-376.5" font-family="Helvetica,sans-Serif" font-size="10.00">+ Scheduler()</text>
<text text-anchor="start" x="8" y="-365.5" font-family="Helvetica,sans-Serif" font-size="10.00">+ ~Scheduler()</text>
<text text-anchor="start" x="8" y="-354.5" font-family="Helvetica,sans-Serif" font-size="10.00">+ getName()</text>
<text text-anchor="start" x="8" y="-343.5" font-family="Helvetica,sans-Serif" font-size="10.00">+ schedule()</text>
<text text-anchor="start" x="8" y="-332.5" font-family="Helvetica,sans-Serif" font-size="10.00">+ start()</text>
<text text-anchor="start" x="8" y="-321.5" font-family="Helvetica,sans-Serif" font-size="10.00">+ stop()</text>
<text text-anchor="start" x="8" y="-310.5" font-family="Helvetica,sans-Serif" font-size="10.00">+ GetThis()</text>
<text text-anchor="start" x="8" y="-299.5" font-family="Helvetica,sans-Serif" font-size="10.00">+ GetMainFiber()</text>
<text text-anchor="start" x="8" y="-288.5" font-family="Helvetica,sans-Serif" font-size="10.00"># tickle()</text>
<text text-anchor="start" x="8" y="-277.5" font-family="Helvetica,sans-Serif" font-size="10.00"># run()</text>
<text text-anchor="start" x="8" y="-266.5" font-family="Helvetica,sans-Serif" font-size="10.00"># idle()</text>
<text text-anchor="start" x="8" y="-255.5" font-family="Helvetica,sans-Serif" font-size="10.00"># stopping()</text>
<text text-anchor="start" x="8" y="-244.5" font-family="Helvetica,sans-Serif" font-size="10.00"># setThis()</text>
<text text-anchor="start" x="8" y="-233.5" font-family="Helvetica,sans-Serif" font-size="10.00"># hasIdleThreads()</text>
</a>
</g>
</g>
<!-- Node2&#45;&gt;Node1 -->
<g id="edge1" class="edge">
<title>Node2&#45;&gt;Node1</title>
<path fill="none" stroke="midnightblue" d="M90.15,-216.48C93.04,-207.52 95.94,-198.52 98.79,-189.68"/>
<polygon fill="none" stroke="midnightblue" points="86.76,-215.58 87.03,-226.17 93.43,-217.73 86.76,-215.58"/>
</g>
<!-- Node3 -->
<g id="node3" class="node">
<title>Node3</title>
<g id="a_node3"><a xlink:href="classsylar_1_1TimerManager.html" target="_top" xlink:title="定时器管理器">
<polygon fill="white" stroke="black" points="128.5,-254 128.5,-399 279.5,-399 279.5,-254 128.5,-254"/>
<text text-anchor="middle" x="204" y="-387" font-family="Helvetica,sans-Serif" font-size="10.00">sylar::TimerManager</text>
<polyline fill="none" stroke="black" points="128.5,-380 279.5,-380 "/>
<text text-anchor="middle" x="204" y="-368" font-family="Helvetica,sans-Serif" font-size="10.00"> </text>
<polyline fill="none" stroke="black" points="128.5,-361 279.5,-361 "/>
<text text-anchor="start" x="136.5" y="-349" font-family="Helvetica,sans-Serif" font-size="10.00">+ TimerManager()</text>
<text text-anchor="start" x="136.5" y="-338" font-family="Helvetica,sans-Serif" font-size="10.00">+ ~TimerManager()</text>
<text text-anchor="start" x="136.5" y="-327" font-family="Helvetica,sans-Serif" font-size="10.00">+ addTimer()</text>
<text text-anchor="start" x="136.5" y="-316" font-family="Helvetica,sans-Serif" font-size="10.00">+ addConditionTimer()</text>
<text text-anchor="start" x="136.5" y="-305" font-family="Helvetica,sans-Serif" font-size="10.00">+ getNextTimer()</text>
<text text-anchor="start" x="136.5" y="-294" font-family="Helvetica,sans-Serif" font-size="10.00">+ listExpiredCb()</text>
<text text-anchor="start" x="136.5" y="-283" font-family="Helvetica,sans-Serif" font-size="10.00">+ hasTimer()</text>
<text text-anchor="start" x="136.5" y="-272" font-family="Helvetica,sans-Serif" font-size="10.00"># onTimerInsertedAtFront()</text>
<text text-anchor="start" x="136.5" y="-261" font-family="Helvetica,sans-Serif" font-size="10.00"># addTimer()</text>
</a>
</g>
</g>
<!-- Node3&#45;&gt;Node1 -->
<g id="edge2" class="edge">
<title>Node3&#45;&gt;Node1</title>
<path fill="none" stroke="midnightblue" d="M177.43,-244.19C171.68,-226.62 165.57,-207.89 159.68,-189.88"/>
<polygon fill="none" stroke="midnightblue" points="174.14,-245.41 180.58,-253.83 180.8,-243.24 174.14,-245.41"/>
</g>
</g>
</svg>
