<?xml version="1.0" encoding="UTF-8" standalone="no"?>
<!DOCTYPE svg PUBLIC "-//W3C//DTD SVG 1.1//EN"
 "http://www.w3.org/Graphics/SVG/1.1/DTD/svg11.dtd">
<!-- Generated by graphviz version 2.43.0 (0)
 -->
<!-- Title: sylar::LogFormatter::FormatItem Pages: 1 -->
<svg width="2260pt" height="193pt"
 viewBox="0.00 0.00 2259.50 193.00" xmlns="http://www.w3.org/2000/svg" xmlns:xlink="http://www.w3.org/1999/xlink">
<g id="graph0" class="graph" transform="scale(1 1) rotate(0) translate(4 189)">
<title>sylar::LogFormatter::FormatItem</title>
<polygon fill="white" stroke="transparent" points="-4,4 -4,-189 2255.5,-189 2255.5,4 -4,4"/>
<!-- Node1 -->
<g id="node1" class="node">
<title>Node1</title>
<g id="a_node1"><a xlink:title="日志内容格式化项，虚基类，用于派生出不同的格式化项">
<polygon fill="#bfbfbf" stroke="black" points="1052,-105.5 1052,-184.5 1164,-184.5 1164,-105.5 1052,-105.5"/>
<text text-anchor="start" x="1060" y="-172.5" font-family="Helvetica,sans-Serif" font-size="10.00">sylar::LogFormatter</text>
<text text-anchor="middle" x="1108" y="-161.5" font-family="Helvetica,sans-Serif" font-size="10.00">::FormatItem</text>
<polyline fill="none" stroke="black" points="1052,-154.5 1164,-154.5 "/>
<text text-anchor="middle" x="1108" y="-142.5" font-family="Helvetica,sans-Serif" font-size="10.00"> </text>
<polyline fill="none" stroke="black" points="1052,-135.5 1164,-135.5 "/>
<text text-anchor="start" x="1060" y="-123.5" font-family="Helvetica,sans-Serif" font-size="10.00">+ ~FormatItem()</text>
<text text-anchor="start" x="1060" y="-112.5" font-family="Helvetica,sans-Serif" font-size="10.00">+ format()</text>
</a>
</g>
</g>
<!-- Node2 -->
<g id="node2" class="node">
<title>Node2</title>
<g id="a_node2"><a xlink:href="classsylar_1_1DateTimeFormatItem.html" target="_top" xlink:title=" ">
<polygon fill="white" stroke="black" points="0,-0.5 0,-68.5 152,-68.5 152,-0.5 0,-0.5"/>
<text text-anchor="middle" x="76" y="-56.5" font-family="Helvetica,sans-Serif" font-size="10.00">sylar::DateTimeFormatItem</text>
<polyline fill="none" stroke="black" points="0,-49.5 152,-49.5 "/>
<text text-anchor="middle" x="76" y="-37.5" font-family="Helvetica,sans-Serif" font-size="10.00"> </text>
<polyline fill="none" stroke="black" points="0,-30.5 152,-30.5 "/>
<text text-anchor="start" x="8" y="-18.5" font-family="Helvetica,sans-Serif" font-size="10.00">+ DateTimeFormatItem()</text>
<text text-anchor="start" x="8" y="-7.5" font-family="Helvetica,sans-Serif" font-size="10.00">+ format()</text>
</a>
</g>
</g>
<!-- Node1&#45;&gt;Node2 -->
<g id="edge1" class="edge">
<title>Node1&#45;&gt;Node2</title>
<path fill="none" stroke="midnightblue" d="M1041.73,-141.3C855.32,-133.32 329.15,-107.88 161,-69 158.06,-68.32 155.1,-67.56 152.12,-66.73"/>
<polygon fill="none" stroke="midnightblue" points="1041.79,-144.81 1051.93,-141.74 1042.09,-137.82 1041.79,-144.81"/>
</g>
<!-- Node3 -->
<g id="node3" class="node">
<title>Node3</title>
<g id="a_node3"><a xlink:href="classsylar_1_1ElapseFormatItem.html" target="_top" xlink:title=" ">
<polygon fill="white" stroke="black" points="170,-0.5 170,-68.5 306,-68.5 306,-0.5 170,-0.5"/>
<text text-anchor="middle" x="238" y="-56.5" font-family="Helvetica,sans-Serif" font-size="10.00">sylar::ElapseFormatItem</text>
<polyline fill="none" stroke="black" points="170,-49.5 306,-49.5 "/>
<text text-anchor="middle" x="238" y="-37.5" font-family="Helvetica,sans-Serif" font-size="10.00"> </text>
<polyline fill="none" stroke="black" points="170,-30.5 306,-30.5 "/>
<text text-anchor="start" x="178" y="-18.5" font-family="Helvetica,sans-Serif" font-size="10.00">+ ElapseFormatItem()</text>
<text text-anchor="start" x="178" y="-7.5" font-family="Helvetica,sans-Serif" font-size="10.00">+ format()</text>
</a>
</g>
</g>
<!-- Node1&#45;&gt;Node3 -->
<g id="edge2" class="edge">
<title>Node1&#45;&gt;Node3</title>
<path fill="none" stroke="midnightblue" d="M1041.29,-144.72C903.34,-144.7 577.65,-136.72 315,-69 312.04,-68.24 309.04,-67.37 306.04,-66.43"/>
<polygon fill="none" stroke="midnightblue" points="1041.68,-148.22 1051.68,-144.71 1041.68,-141.22 1041.68,-148.22"/>
</g>
<!-- Node4 -->
<g id="node4" class="node">
<title>Node4</title>
<g id="a_node4"><a xlink:href="classsylar_1_1FiberIdFormatItem.html" target="_top" xlink:title=" ">
<polygon fill="white" stroke="black" points="324.5,-0.5 324.5,-68.5 461.5,-68.5 461.5,-0.5 324.5,-0.5"/>
<text text-anchor="middle" x="393" y="-56.5" font-family="Helvetica,sans-Serif" font-size="10.00">sylar::FiberIdFormatItem</text>
<polyline fill="none" stroke="black" points="324.5,-49.5 461.5,-49.5 "/>
<text text-anchor="middle" x="393" y="-37.5" font-family="Helvetica,sans-Serif" font-size="10.00"> </text>
<polyline fill="none" stroke="black" points="324.5,-30.5 461.5,-30.5 "/>
<text text-anchor="start" x="332.5" y="-18.5" font-family="Helvetica,sans-Serif" font-size="10.00">+ FiberIdFormatItem()</text>
<text text-anchor="start" x="332.5" y="-7.5" font-family="Helvetica,sans-Serif" font-size="10.00">+ format()</text>
</a>
</g>
</g>
<!-- Node1&#45;&gt;Node4 -->
<g id="edge3" class="edge">
<title>Node1&#45;&gt;Node4</title>
<path fill="none" stroke="midnightblue" d="M1041.35,-142.44C924.1,-138.32 674.09,-123.34 471,-69 467.87,-68.16 464.7,-67.22 461.52,-66.2"/>
<polygon fill="none" stroke="midnightblue" points="1041.49,-145.95 1051.6,-142.79 1041.72,-138.95 1041.49,-145.95"/>
</g>
<!-- Node5 -->
<g id="node5" class="node">
<title>Node5</title>
<g id="a_node5"><a xlink:href="classsylar_1_1FileNameFormatItem.html" target="_top" xlink:title=" ">
<polygon fill="white" stroke="black" points="480,-0.5 480,-68.5 630,-68.5 630,-0.5 480,-0.5"/>
<text text-anchor="middle" x="555" y="-56.5" font-family="Helvetica,sans-Serif" font-size="10.00">sylar::FileNameFormatItem</text>
<polyline fill="none" stroke="black" points="480,-49.5 630,-49.5 "/>
<text text-anchor="middle" x="555" y="-37.5" font-family="Helvetica,sans-Serif" font-size="10.00"> </text>
<polyline fill="none" stroke="black" points="480,-30.5 630,-30.5 "/>
<text text-anchor="start" x="488" y="-18.5" font-family="Helvetica,sans-Serif" font-size="10.00">+ FileNameFormatItem()</text>
<text text-anchor="start" x="488" y="-7.5" font-family="Helvetica,sans-Serif" font-size="10.00">+ format()</text>
</a>
</g>
</g>
<!-- Node1&#45;&gt;Node5 -->
<g id="edge4" class="edge">
<title>Node1&#45;&gt;Node5</title>
<path fill="none" stroke="midnightblue" d="M1041.95,-138.08C950.25,-128.82 779.79,-107.82 639,-69 636.12,-68.21 633.21,-67.35 630.29,-66.44"/>
<polygon fill="none" stroke="midnightblue" points="1041.62,-141.57 1051.92,-139.07 1042.32,-134.6 1041.62,-141.57"/>
</g>
<!-- Node6 -->
<g id="node6" class="node">
<title>Node6</title>
<g id="a_node6"><a xlink:href="classsylar_1_1LevelFormatItem.html" target="_top" xlink:title=" ">
<polygon fill="white" stroke="black" points="648,-0.5 648,-68.5 778,-68.5 778,-0.5 648,-0.5"/>
<text text-anchor="middle" x="713" y="-56.5" font-family="Helvetica,sans-Serif" font-size="10.00">sylar::LevelFormatItem</text>
<polyline fill="none" stroke="black" points="648,-49.5 778,-49.5 "/>
<text text-anchor="middle" x="713" y="-37.5" font-family="Helvetica,sans-Serif" font-size="10.00"> </text>
<polyline fill="none" stroke="black" points="648,-30.5 778,-30.5 "/>
<text text-anchor="start" x="656" y="-18.5" font-family="Helvetica,sans-Serif" font-size="10.00">+ LevelFormatItem()</text>
<text text-anchor="start" x="656" y="-7.5" font-family="Helvetica,sans-Serif" font-size="10.00">+ format()</text>
</a>
</g>
</g>
<!-- Node1&#45;&gt;Node6 -->
<g id="edge5" class="edge">
<title>Node1&#45;&gt;Node6</title>
<path fill="none" stroke="midnightblue" d="M1041.77,-132.46C976.12,-120.1 873.16,-98.25 787,-69 784.06,-68 781.08,-66.93 778.09,-65.8"/>
<polygon fill="none" stroke="midnightblue" points="1041.51,-135.97 1051.98,-134.36 1042.79,-129.09 1041.51,-135.97"/>
</g>
<!-- Node7 -->
<g id="node7" class="node">
<title>Node7</title>
<g id="a_node7"><a xlink:href="classsylar_1_1LineFormatItem.html" target="_top" xlink:title=" ">
<polygon fill="white" stroke="black" points="796,-0.5 796,-68.5 920,-68.5 920,-0.5 796,-0.5"/>
<text text-anchor="middle" x="858" y="-56.5" font-family="Helvetica,sans-Serif" font-size="10.00">sylar::LineFormatItem</text>
<polyline fill="none" stroke="black" points="796,-49.5 920,-49.5 "/>
<text text-anchor="middle" x="858" y="-37.5" font-family="Helvetica,sans-Serif" font-size="10.00"> </text>
<polyline fill="none" stroke="black" points="796,-30.5 920,-30.5 "/>
<text text-anchor="start" x="804" y="-18.5" font-family="Helvetica,sans-Serif" font-size="10.00">+ LineFormatItem()</text>
<text text-anchor="start" x="804" y="-7.5" font-family="Helvetica,sans-Serif" font-size="10.00">+ format()</text>
</a>
</g>
</g>
<!-- Node1&#45;&gt;Node7 -->
<g id="edge6" class="edge">
<title>Node1&#45;&gt;Node7</title>
<path fill="none" stroke="midnightblue" d="M1042.33,-117.3C1008.35,-103.28 966.28,-85.6 929,-69 926.14,-67.73 923.21,-66.41 920.27,-65.07"/>
<polygon fill="none" stroke="midnightblue" points="1041.11,-120.58 1051.69,-121.15 1043.78,-114.11 1041.11,-120.58"/>
</g>
<!-- Node8 -->
<g id="node8" class="node">
<title>Node8</title>
<g id="a_node8"><a xlink:href="classsylar_1_1LoggerNameFormatItem.html" target="_top" xlink:title=" ">
<polygon fill="white" stroke="black" points="938,-0.5 938,-68.5 1104,-68.5 1104,-0.5 938,-0.5"/>
<text text-anchor="middle" x="1021" y="-56.5" font-family="Helvetica,sans-Serif" font-size="10.00">sylar::LoggerNameFormatItem</text>
<polyline fill="none" stroke="black" points="938,-49.5 1104,-49.5 "/>
<text text-anchor="middle" x="1021" y="-37.5" font-family="Helvetica,sans-Serif" font-size="10.00"> </text>
<polyline fill="none" stroke="black" points="938,-30.5 1104,-30.5 "/>
<text text-anchor="start" x="946" y="-18.5" font-family="Helvetica,sans-Serif" font-size="10.00">+ LoggerNameFormatItem()</text>
<text text-anchor="start" x="946" y="-7.5" font-family="Helvetica,sans-Serif" font-size="10.00">+ format()</text>
</a>
</g>
</g>
<!-- Node1&#45;&gt;Node8 -->
<g id="edge7" class="edge">
<title>Node1&#45;&gt;Node8</title>
<path fill="none" stroke="midnightblue" d="M1070.63,-97.39C1062.84,-87.68 1054.79,-77.64 1047.5,-68.54"/>
<polygon fill="none" stroke="midnightblue" points="1068.1,-99.83 1077.08,-105.44 1073.56,-95.45 1068.1,-99.83"/>
</g>
<!-- Node9 -->
<g id="node9" class="node">
<title>Node9</title>
<g id="a_node9"><a xlink:href="classsylar_1_1MessageFormatItem.html" target="_top" xlink:title=" ">
<polygon fill="white" stroke="black" points="1122.5,-0.5 1122.5,-68.5 1269.5,-68.5 1269.5,-0.5 1122.5,-0.5"/>
<text text-anchor="middle" x="1196" y="-56.5" font-family="Helvetica,sans-Serif" font-size="10.00">sylar::MessageFormatItem</text>
<polyline fill="none" stroke="black" points="1122.5,-49.5 1269.5,-49.5 "/>
<text text-anchor="middle" x="1196" y="-37.5" font-family="Helvetica,sans-Serif" font-size="10.00"> </text>
<polyline fill="none" stroke="black" points="1122.5,-30.5 1269.5,-30.5 "/>
<text text-anchor="start" x="1130.5" y="-18.5" font-family="Helvetica,sans-Serif" font-size="10.00">+ MessageFormatItem()</text>
<text text-anchor="start" x="1130.5" y="-7.5" font-family="Helvetica,sans-Serif" font-size="10.00">+ format()</text>
</a>
</g>
</g>
<!-- Node1&#45;&gt;Node9 -->
<g id="edge8" class="edge">
<title>Node1&#45;&gt;Node9</title>
<path fill="none" stroke="midnightblue" d="M1145.8,-97.39C1153.68,-87.68 1161.82,-77.64 1169.2,-68.54"/>
<polygon fill="none" stroke="midnightblue" points="1142.85,-95.47 1139.27,-105.44 1148.29,-99.88 1142.85,-95.47"/>
</g>
<!-- Node10 -->
<g id="node10" class="node">
<title>Node10</title>
<g id="a_node10"><a xlink:href="classsylar_1_1NewLineFormatItem.html" target="_top" xlink:title=" ">
<polygon fill="white" stroke="black" points="1288,-0.5 1288,-68.5 1434,-68.5 1434,-0.5 1288,-0.5"/>
<text text-anchor="middle" x="1361" y="-56.5" font-family="Helvetica,sans-Serif" font-size="10.00">sylar::NewLineFormatItem</text>
<polyline fill="none" stroke="black" points="1288,-49.5 1434,-49.5 "/>
<text text-anchor="middle" x="1361" y="-37.5" font-family="Helvetica,sans-Serif" font-size="10.00"> </text>
<polyline fill="none" stroke="black" points="1288,-30.5 1434,-30.5 "/>
<text text-anchor="start" x="1296" y="-18.5" font-family="Helvetica,sans-Serif" font-size="10.00">+ NewLineFormatItem()</text>
<text text-anchor="start" x="1296" y="-7.5" font-family="Helvetica,sans-Serif" font-size="10.00">+ format()</text>
</a>
</g>
</g>
<!-- Node1&#45;&gt;Node10 -->
<g id="edge9" class="edge">
<title>Node1&#45;&gt;Node10</title>
<path fill="none" stroke="midnightblue" d="M1173.77,-115.79C1208.69,-100.82 1251.71,-82.37 1287.71,-66.93"/>
<polygon fill="none" stroke="midnightblue" points="1171.96,-112.76 1164.15,-119.92 1174.72,-119.2 1171.96,-112.76"/>
</g>
<!-- Node11 -->
<g id="node11" class="node">
<title>Node11</title>
<g id="a_node11"><a xlink:href="classsylar_1_1PercentSignFormatItem.html" target="_top" xlink:title=" ">
<polygon fill="white" stroke="black" points="1452.5,-0.5 1452.5,-68.5 1613.5,-68.5 1613.5,-0.5 1452.5,-0.5"/>
<text text-anchor="middle" x="1533" y="-56.5" font-family="Helvetica,sans-Serif" font-size="10.00">sylar::PercentSignFormatItem</text>
<polyline fill="none" stroke="black" points="1452.5,-49.5 1613.5,-49.5 "/>
<text text-anchor="middle" x="1533" y="-37.5" font-family="Helvetica,sans-Serif" font-size="10.00"> </text>
<polyline fill="none" stroke="black" points="1452.5,-30.5 1613.5,-30.5 "/>
<text text-anchor="start" x="1460.5" y="-18.5" font-family="Helvetica,sans-Serif" font-size="10.00">+ PercentSignFormatItem()</text>
<text text-anchor="start" x="1460.5" y="-7.5" font-family="Helvetica,sans-Serif" font-size="10.00">+ format()</text>
</a>
</g>
</g>
<!-- Node1&#45;&gt;Node11 -->
<g id="edge10" class="edge">
<title>Node1&#45;&gt;Node11</title>
<path fill="none" stroke="midnightblue" d="M1174.17,-131.95C1242.24,-118.91 1351.01,-96.28 1443,-69 1446.04,-68.1 1449.12,-67.15 1452.22,-66.16"/>
<polygon fill="none" stroke="midnightblue" points="1173.19,-128.57 1164.02,-133.88 1174.5,-135.45 1173.19,-128.57"/>
</g>
<!-- Node12 -->
<g id="node12" class="node">
<title>Node12</title>
<g id="a_node12"><a xlink:href="classsylar_1_1StringFormatItem.html" target="_top" xlink:title=" ">
<polygon fill="white" stroke="black" points="1632,-0.5 1632,-68.5 1764,-68.5 1764,-0.5 1632,-0.5"/>
<text text-anchor="middle" x="1698" y="-56.5" font-family="Helvetica,sans-Serif" font-size="10.00">sylar::StringFormatItem</text>
<polyline fill="none" stroke="black" points="1632,-49.5 1764,-49.5 "/>
<text text-anchor="middle" x="1698" y="-37.5" font-family="Helvetica,sans-Serif" font-size="10.00"> </text>
<polyline fill="none" stroke="black" points="1632,-30.5 1764,-30.5 "/>
<text text-anchor="start" x="1640" y="-18.5" font-family="Helvetica,sans-Serif" font-size="10.00">+ StringFormatItem()</text>
<text text-anchor="start" x="1640" y="-7.5" font-family="Helvetica,sans-Serif" font-size="10.00">+ format()</text>
</a>
</g>
</g>
<!-- Node1&#45;&gt;Node12 -->
<g id="edge11" class="edge">
<title>Node1&#45;&gt;Node12</title>
<path fill="none" stroke="midnightblue" d="M1174.51,-140.17C1273.84,-133.16 1466.07,-114.53 1623,-69 1625.88,-68.17 1628.79,-67.24 1631.7,-66.25"/>
<polygon fill="none" stroke="midnightblue" points="1174.06,-136.7 1164.32,-140.88 1174.54,-143.68 1174.06,-136.7"/>
</g>
<!-- Node13 -->
<g id="node13" class="node">
<title>Node13</title>
<g id="a_node13"><a xlink:href="classsylar_1_1TabFormatItem.html" target="_top" xlink:title=" ">
<polygon fill="white" stroke="black" points="1782,-0.5 1782,-68.5 1902,-68.5 1902,-0.5 1782,-0.5"/>
<text text-anchor="middle" x="1842" y="-56.5" font-family="Helvetica,sans-Serif" font-size="10.00">sylar::TabFormatItem</text>
<polyline fill="none" stroke="black" points="1782,-49.5 1902,-49.5 "/>
<text text-anchor="middle" x="1842" y="-37.5" font-family="Helvetica,sans-Serif" font-size="10.00"> </text>
<polyline fill="none" stroke="black" points="1782,-30.5 1902,-30.5 "/>
<text text-anchor="start" x="1790" y="-18.5" font-family="Helvetica,sans-Serif" font-size="10.00">+ TabFormatItem()</text>
<text text-anchor="start" x="1790" y="-7.5" font-family="Helvetica,sans-Serif" font-size="10.00">+ format()</text>
</a>
</g>
</g>
<!-- Node1&#45;&gt;Node13 -->
<g id="edge12" class="edge">
<title>Node1&#45;&gt;Node13</title>
<path fill="none" stroke="midnightblue" d="M1174.67,-143.88C1296.12,-142.06 1560.48,-130.61 1773,-69 1775.94,-68.15 1778.91,-67.18 1781.88,-66.12"/>
<polygon fill="none" stroke="midnightblue" points="1174.37,-140.39 1164.42,-144.02 1174.47,-147.39 1174.37,-140.39"/>
</g>
<!-- Node14 -->
<g id="node14" class="node">
<title>Node14</title>
<g id="a_node14"><a xlink:href="classsylar_1_1ThreadIdFormatItem.html" target="_top" xlink:title=" ">
<polygon fill="white" stroke="black" points="1920,-0.5 1920,-68.5 2066,-68.5 2066,-0.5 1920,-0.5"/>
<text text-anchor="middle" x="1993" y="-56.5" font-family="Helvetica,sans-Serif" font-size="10.00">sylar::ThreadIdFormatItem</text>
<polyline fill="none" stroke="black" points="1920,-49.5 2066,-49.5 "/>
<text text-anchor="middle" x="1993" y="-37.5" font-family="Helvetica,sans-Serif" font-size="10.00"> </text>
<polyline fill="none" stroke="black" points="1920,-30.5 2066,-30.5 "/>
<text text-anchor="start" x="1928" y="-18.5" font-family="Helvetica,sans-Serif" font-size="10.00">+ ThreadIdFormatItem()</text>
<text text-anchor="start" x="1928" y="-7.5" font-family="Helvetica,sans-Serif" font-size="10.00">+ format()</text>
</a>
</g>
</g>
<!-- Node1&#45;&gt;Node14 -->
<g id="edge13" class="edge">
<title>Node1&#45;&gt;Node14</title>
<path fill="none" stroke="midnightblue" d="M1174.49,-144.35C1313.41,-143.66 1643.68,-134.56 1911,-69 1913.84,-68.3 1916.71,-67.53 1919.58,-66.68"/>
<polygon fill="none" stroke="midnightblue" points="1174.42,-140.85 1164.43,-144.39 1174.44,-147.85 1174.42,-140.85"/>
</g>
<!-- Node15 -->
<g id="node15" class="node">
<title>Node15</title>
<g id="a_node15"><a xlink:href="classsylar_1_1ThreadNameFormatItem.html" target="_top" xlink:title=" ">
<polygon fill="white" stroke="black" points="2084.5,-0.5 2084.5,-68.5 2251.5,-68.5 2251.5,-0.5 2084.5,-0.5"/>
<text text-anchor="middle" x="2168" y="-56.5" font-family="Helvetica,sans-Serif" font-size="10.00">sylar::ThreadNameFormatItem</text>
<polyline fill="none" stroke="black" points="2084.5,-49.5 2251.5,-49.5 "/>
<text text-anchor="middle" x="2168" y="-37.5" font-family="Helvetica,sans-Serif" font-size="10.00"> </text>
<polyline fill="none" stroke="black" points="2084.5,-30.5 2251.5,-30.5 "/>
<text text-anchor="start" x="2092.5" y="-18.5" font-family="Helvetica,sans-Serif" font-size="10.00">+ ThreadNameFormatItem()</text>
<text text-anchor="start" x="2092.5" y="-7.5" font-family="Helvetica,sans-Serif" font-size="10.00">+ format()</text>
</a>
</g>
</g>
<!-- Node1&#45;&gt;Node15 -->
<g id="edge14" class="edge">
<title>Node1&#45;&gt;Node15</title>
<path fill="none" stroke="midnightblue" d="M1174.33,-141.17C1363.38,-132.75 1902.33,-106.09 2075,-69 2078.1,-68.33 2081.25,-67.59 2084.4,-66.78"/>
<polygon fill="none" stroke="midnightblue" points="1174.1,-137.68 1164.26,-141.62 1174.4,-144.67 1174.1,-137.68"/>
</g>
</g>
</svg>
