<?xml version="1.0" encoding="UTF-8" standalone="no"?>
<!DOCTYPE svg PUBLIC "-//W3C//DTD SVG 1.1//EN"
 "http://www.w3.org/Graphics/SVG/1.1/DTD/svg11.dtd">
<!-- Generated by graphviz version 2.43.0 (0)
 -->
<!-- Title: sylar::Timer::reset Pages: 1 -->
<svg width="267pt" height="46pt"
 viewBox="0.00 0.00 267.00 46.00" xmlns="http://www.w3.org/2000/svg" xmlns:xlink="http://www.w3.org/1999/xlink">
<g id="graph0" class="graph" transform="scale(1 1) rotate(0) translate(4 42)">
<title>sylar::Timer::reset</title>
<polygon fill="white" stroke="transparent" points="-4,4 -4,-42 263,-42 263,4 -4,4"/>
<!-- Node1 -->
<g id="node1" class="node">
<title>Node1</title>
<g id="a_node1"><a xlink:title="重置定时器时间">
<polygon fill="#bfbfbf" stroke="black" points="0,-0.5 0,-19.5 106,-19.5 106,-0.5 0,-0.5"/>
<text text-anchor="middle" x="53" y="-7.5" font-family="Helvetica,sans-Serif" font-size="10.00">sylar::Timer::reset</text>
</a>
</g>
</g>
<!-- Node2 -->
<g id="node2" class="node">
<title>Node2</title>
<g id="a_node2"><a xlink:href="util_8cpp.html#a3a496fbdbd27f04cba087a64add0306c" target="_top" xlink:title="获取当前启动的毫秒数，参考clock_gettime(2)，使用CLOCK_MONOTONIC_RAW">
<polygon fill="white" stroke="black" points="142,-0.5 142,-19.5 259,-19.5 259,-0.5 142,-0.5"/>
<text text-anchor="middle" x="200.5" y="-7.5" font-family="Helvetica,sans-Serif" font-size="10.00">sylar::GetElapsedMS</text>
</a>
</g>
</g>
<!-- Node1&#45;&gt;Node2 -->
<g id="edge1" class="edge">
<title>Node1&#45;&gt;Node2</title>
<path fill="none" stroke="midnightblue" d="M106.12,-10C114.44,-10 123.16,-10 131.78,-10"/>
<polygon fill="midnightblue" stroke="midnightblue" points="131.82,-13.5 141.82,-10 131.82,-6.5 131.82,-13.5"/>
</g>
<!-- Node2&#45;&gt;Node2 -->
<g id="edge2" class="edge">
<title>Node2&#45;&gt;Node2</title>
<path fill="none" stroke="midnightblue" d="M178,-19.76C167.05,-28.57 174.55,-38 200.5,-38 217.53,-38 226.61,-33.94 227.75,-28.65"/>
<polygon fill="midnightblue" stroke="midnightblue" points="230.8,-26.93 223,-19.76 224.62,-30.23 230.8,-26.93"/>
</g>
</g>
</svg>
