<?xml version="1.0" encoding="UTF-8" standalone="no"?>
<!DOCTYPE svg PUBLIC "-//W3C//DTD SVG 1.1//EN"
 "http://www.w3.org/Graphics/SVG/1.1/DTD/svg11.dtd">
<!-- Generated by graphviz version 2.43.0 (0)
 -->
<!-- Title: sylar::LogAppender Pages: 1 -->
<svg width="133pt" height="398pt"
 viewBox="0.00 0.00 133.00 398.00" xmlns="http://www.w3.org/2000/svg" xmlns:xlink="http://www.w3.org/1999/xlink">
<g id="graph0" class="graph" transform="scale(1 1) rotate(0) translate(4 394)">
<title>sylar::LogAppender</title>
<polygon fill="white" stroke="transparent" points="-4,4 -4,-394 129,-394 129,4 -4,4"/>
<!-- Node1 -->
<g id="node1" class="node">
<title>Node1</title>
<g id="a_node1"><a xlink:title="日志输出地，虚基类，用于派生出不同的LogAppender">
<polygon fill="#bfbfbf" stroke="black" points="0,-0.5 0,-123.5 125,-123.5 125,-0.5 0,-0.5"/>
<text text-anchor="middle" x="62.5" y="-111.5" font-family="Helvetica,sans-Serif" font-size="10.00">sylar::LogAppender</text>
<polyline fill="none" stroke="black" points="0,-104.5 125,-104.5 "/>
<text text-anchor="start" x="8" y="-92.5" font-family="Helvetica,sans-Serif" font-size="10.00"># m_formatter</text>
<text text-anchor="start" x="8" y="-81.5" font-family="Helvetica,sans-Serif" font-size="10.00"># m_defaultFormatter</text>
<polyline fill="none" stroke="black" points="0,-74.5 125,-74.5 "/>
<text text-anchor="start" x="8" y="-62.5" font-family="Helvetica,sans-Serif" font-size="10.00">+ LogAppender()</text>
<text text-anchor="start" x="8" y="-51.5" font-family="Helvetica,sans-Serif" font-size="10.00">+ ~LogAppender()</text>
<text text-anchor="start" x="8" y="-40.5" font-family="Helvetica,sans-Serif" font-size="10.00">+ setFormatter()</text>
<text text-anchor="start" x="8" y="-29.5" font-family="Helvetica,sans-Serif" font-size="10.00">+ getFormatter()</text>
<text text-anchor="start" x="8" y="-18.5" font-family="Helvetica,sans-Serif" font-size="10.00">+ log()</text>
<text text-anchor="start" x="8" y="-7.5" font-family="Helvetica,sans-Serif" font-size="10.00">+ toYamlString()</text>
</a>
</g>
</g>
<!-- Node2 -->
<g id="node2" class="node">
<title>Node2</title>
<g id="a_node2"><a xlink:href="classsylar_1_1Spinlock.html" target="_top" xlink:title="自旋锁">
<polygon fill="white" stroke="black" points="18.5,-171.5 18.5,-261.5 106.5,-261.5 106.5,-171.5 18.5,-171.5"/>
<text text-anchor="middle" x="62.5" y="-249.5" font-family="Helvetica,sans-Serif" font-size="10.00">sylar::Spinlock</text>
<polyline fill="none" stroke="black" points="18.5,-242.5 106.5,-242.5 "/>
<text text-anchor="middle" x="62.5" y="-230.5" font-family="Helvetica,sans-Serif" font-size="10.00"> </text>
<polyline fill="none" stroke="black" points="18.5,-223.5 106.5,-223.5 "/>
<text text-anchor="start" x="26.5" y="-211.5" font-family="Helvetica,sans-Serif" font-size="10.00">+ Spinlock()</text>
<text text-anchor="start" x="26.5" y="-200.5" font-family="Helvetica,sans-Serif" font-size="10.00">+ ~Spinlock()</text>
<text text-anchor="start" x="26.5" y="-189.5" font-family="Helvetica,sans-Serif" font-size="10.00">+ lock()</text>
<text text-anchor="start" x="26.5" y="-178.5" font-family="Helvetica,sans-Serif" font-size="10.00">+ unlock()</text>
</a>
</g>
</g>
<!-- Node2&#45;&gt;Node1 -->
<g id="edge1" class="edge">
<title>Node2&#45;&gt;Node1</title>
<path fill="none" stroke="#404040" d="M62.5,-171.39C62.5,-160.24 62.5,-147.97 62.5,-135.81"/>
<polygon fill="none" stroke="#404040" points="62.5,-135.74 58.5,-129.74 62.5,-123.74 66.5,-129.74 62.5,-135.74"/>
<text text-anchor="middle" x="91.5" y="-145" font-family="Helvetica,sans-Serif" font-size="10.00"> #m_mutex</text>
</g>
<!-- Node3 -->
<g id="node3" class="node">
<title>Node3</title>
<g id="a_node3"><a xlink:href="classsylar_1_1Noncopyable.html" target="_top" xlink:title="对象无法拷贝,赋值">
<polygon fill="white" stroke="black" points="7.5,-299.5 7.5,-389.5 117.5,-389.5 117.5,-299.5 7.5,-299.5"/>
<text text-anchor="middle" x="62.5" y="-377.5" font-family="Helvetica,sans-Serif" font-size="10.00">sylar::Noncopyable</text>
<polyline fill="none" stroke="black" points="7.5,-370.5 117.5,-370.5 "/>
<text text-anchor="middle" x="62.5" y="-358.5" font-family="Helvetica,sans-Serif" font-size="10.00"> </text>
<polyline fill="none" stroke="black" points="7.5,-351.5 117.5,-351.5 "/>
<text text-anchor="start" x="15.5" y="-339.5" font-family="Helvetica,sans-Serif" font-size="10.00">+ Noncopyable()</text>
<text text-anchor="start" x="15.5" y="-328.5" font-family="Helvetica,sans-Serif" font-size="10.00">+ ~Noncopyable()</text>
<text text-anchor="start" x="15.5" y="-317.5" font-family="Helvetica,sans-Serif" font-size="10.00">+ Noncopyable()</text>
<text text-anchor="start" x="15.5" y="-306.5" font-family="Helvetica,sans-Serif" font-size="10.00">+ operator=()</text>
</a>
</g>
</g>
<!-- Node3&#45;&gt;Node2 -->
<g id="edge2" class="edge">
<title>Node3&#45;&gt;Node2</title>
<path fill="none" stroke="#8b1a1a" d="M62.5,-289.23C62.5,-280.06 62.5,-270.63 62.5,-261.76"/>
<polygon fill="none" stroke="#8b1a1a" points="59,-289.43 62.5,-299.43 66,-289.43 59,-289.43"/>
</g>
</g>
</svg>
