<?xml version="1.0" encoding="UTF-8" standalone="no"?>
<!DOCTYPE svg PUBLIC "-//W3C//DTD SVG 1.1//EN"
 "http://www.w3.org/Graphics/SVG/1.1/DTD/svg11.dtd">
<!-- Generated by graphviz version 2.43.0 (0)
 -->
<!-- Title: sylar::Socket::bind Pages: 1 -->
<svg width="278pt" height="66pt"
 viewBox="0.00 0.00 278.00 66.00" xmlns="http://www.w3.org/2000/svg" xmlns:xlink="http://www.w3.org/1999/xlink">
<g id="graph0" class="graph" transform="scale(1 1) rotate(0) translate(4 62)">
<title>sylar::Socket::bind</title>
<polygon fill="white" stroke="transparent" points="-4,4 -4,-62 274,-62 274,4 -4,4"/>
<!-- Node1 -->
<g id="node1" class="node">
<title>Node1</title>
<g id="a_node1"><a xlink:title="绑定地址">
<polygon fill="#bfbfbf" stroke="black" points="0,-19.5 0,-38.5 106,-38.5 106,-19.5 0,-19.5"/>
<text text-anchor="middle" x="53" y="-26.5" font-family="Helvetica,sans-Serif" font-size="10.00">sylar::Socket::bind</text>
</a>
</g>
</g>
<!-- Node2 -->
<g id="node2" class="node">
<title>Node2</title>
<g id="a_node2"><a xlink:href="classsylar_1_1Socket.html#a86d7b7034c6ee0462dbe6af951c078e6" target="_top" xlink:title="是否有效(m_sock != &#45;1)">
<polygon fill="white" stroke="black" points="147.5,-38.5 147.5,-57.5 264.5,-57.5 264.5,-38.5 147.5,-38.5"/>
<text text-anchor="middle" x="206" y="-45.5" font-family="Helvetica,sans-Serif" font-size="10.00">sylar::Socket::isValid</text>
</a>
</g>
</g>
<!-- Node1&#45;&gt;Node2 -->
<g id="edge1" class="edge">
<title>Node1&#45;&gt;Node2</title>
<path fill="none" stroke="midnightblue" d="M106.39,-35.59C116.29,-36.84 126.78,-38.16 137.08,-39.45"/>
<polygon fill="midnightblue" stroke="midnightblue" points="136.93,-42.96 147.29,-40.74 137.8,-36.02 136.93,-42.96"/>
</g>
<!-- Node3 -->
<g id="node3" class="node">
<title>Node3</title>
<g id="a_node3"><a xlink:href="classsylar_1_1Socket.html#a77c251c1e5bb0eceaad8493b90a04b6a" target="_top" xlink:title="创建socket">
<polygon fill="white" stroke="black" points="142,-0.5 142,-19.5 270,-19.5 270,-0.5 142,-0.5"/>
<text text-anchor="middle" x="206" y="-7.5" font-family="Helvetica,sans-Serif" font-size="10.00">sylar::Socket::newSock</text>
</a>
</g>
</g>
<!-- Node1&#45;&gt;Node3 -->
<g id="edge2" class="edge">
<title>Node1&#45;&gt;Node3</title>
<path fill="none" stroke="midnightblue" d="M106.39,-22.41C114.59,-21.38 123.2,-20.29 131.77,-19.21"/>
<polygon fill="midnightblue" stroke="midnightblue" points="132.3,-22.68 141.78,-17.95 131.42,-15.73 132.3,-22.68"/>
</g>
</g>
</svg>
