<?xml version="1.0" encoding="UTF-8" standalone="no"?>
<!DOCTYPE svg PUBLIC "-//W3C//DTD SVG 1.1//EN"
 "http://www.w3.org/Graphics/SVG/1.1/DTD/svg11.dtd">
<!-- Generated by graphviz version 2.43.0 (0)
 -->
<!-- Title: sylar::http::HttpSession::sendResponse Pages: 1 -->
<svg width="471pt" height="39pt"
 viewBox="0.00 0.00 471.00 39.00" xmlns="http://www.w3.org/2000/svg" xmlns:xlink="http://www.w3.org/1999/xlink">
<g id="graph0" class="graph" transform="scale(1 1) rotate(0) translate(4 35)">
<title>sylar::http::HttpSession::sendResponse</title>
<polygon fill="white" stroke="transparent" points="-4,4 -4,-35 467,-35 467,4 -4,4"/>
<!-- Node1 -->
<g id="node1" class="node">
<title>Node1</title>
<g id="a_node1"><a xlink:title="发送HTTP响应">
<polygon fill="#bfbfbf" stroke="black" points="0,-0.5 0,-30.5 131,-30.5 131,-0.5 0,-0.5"/>
<text text-anchor="start" x="8" y="-18.5" font-family="Helvetica,sans-Serif" font-size="10.00">sylar::http::HttpSession</text>
<text text-anchor="middle" x="65.5" y="-7.5" font-family="Helvetica,sans-Serif" font-size="10.00">::sendResponse</text>
</a>
</g>
</g>
<!-- Node2 -->
<g id="node2" class="node">
<title>Node2</title>
<g id="a_node2"><a xlink:href="classsylar_1_1Stream.html#aad43a78d1f2c8aa8d4a578e3957960cc" target="_top" xlink:title="写固定长度的数据">
<polygon fill="white" stroke="black" points="167,-6 167,-25 314,-25 314,-6 167,-6"/>
<text text-anchor="middle" x="240.5" y="-13" font-family="Helvetica,sans-Serif" font-size="10.00">sylar::Stream::writeFixSize</text>
</a>
</g>
</g>
<!-- Node1&#45;&gt;Node2 -->
<g id="edge1" class="edge">
<title>Node1&#45;&gt;Node2</title>
<path fill="none" stroke="midnightblue" d="M131.41,-15.5C139.75,-15.5 148.37,-15.5 156.95,-15.5"/>
<polygon fill="midnightblue" stroke="midnightblue" points="156.97,-19 166.97,-15.5 156.97,-12 156.97,-19"/>
</g>
<!-- Node3 -->
<g id="node3" class="node">
<title>Node3</title>
<g id="a_node3"><a xlink:href="classsylar_1_1Stream.html#a3f228e40abdf4462268b871614e9d5a1" target="_top" xlink:title="写数据">
<polygon fill="white" stroke="black" points="350,-6 350,-25 463,-25 463,-6 350,-6"/>
<text text-anchor="middle" x="406.5" y="-13" font-family="Helvetica,sans-Serif" font-size="10.00">sylar::Stream::write</text>
</a>
</g>
</g>
<!-- Node2&#45;&gt;Node3 -->
<g id="edge2" class="edge">
<title>Node2&#45;&gt;Node3</title>
<path fill="none" stroke="midnightblue" d="M314.39,-15.5C322.69,-15.5 331.12,-15.5 339.32,-15.5"/>
<polygon fill="midnightblue" stroke="midnightblue" points="339.57,-19 349.57,-15.5 339.57,-12 339.57,-19"/>
</g>
</g>
</svg>
