<?xml version="1.0" encoding="UTF-8" standalone="no"?>
<!DOCTYPE svg PUBLIC "-//W3C//DTD SVG 1.1//EN"
 "http://www.w3.org/Graphics/SVG/1.1/DTD/svg11.dtd">
<!-- Generated by graphviz version 2.43.0 (0)
 -->
<!-- Title: sylar::Address Pages: 1 -->
<svg width="476pt" height="628pt"
 viewBox="0.00 0.00 475.50 628.00" xmlns="http://www.w3.org/2000/svg" xmlns:xlink="http://www.w3.org/1999/xlink">
<g id="graph0" class="graph" transform="scale(1 1) rotate(0) translate(4 624)">
<title>sylar::Address</title>
<polygon fill="white" stroke="transparent" points="-4,4 -4,-624 471.5,-624 471.5,4 -4,4"/>
<!-- Node1 -->
<g id="node1" class="node">
<title>Node1</title>
<g id="a_node1"><a xlink:title="网络地址的基类,抽象类">
<polygon fill="#bfbfbf" stroke="black" points="191,-397.5 191,-619.5 337,-619.5 337,-397.5 191,-397.5"/>
<text text-anchor="middle" x="264" y="-607.5" font-family="Helvetica,sans-Serif" font-size="10.00">sylar::Address</text>
<polyline fill="none" stroke="black" points="191,-600.5 337,-600.5 "/>
<text text-anchor="middle" x="264" y="-588.5" font-family="Helvetica,sans-Serif" font-size="10.00"> </text>
<polyline fill="none" stroke="black" points="191,-581.5 337,-581.5 "/>
<text text-anchor="start" x="199" y="-569.5" font-family="Helvetica,sans-Serif" font-size="10.00">+ ~Address()</text>
<text text-anchor="start" x="199" y="-558.5" font-family="Helvetica,sans-Serif" font-size="10.00">+ getFamily()</text>
<text text-anchor="start" x="199" y="-547.5" font-family="Helvetica,sans-Serif" font-size="10.00">+ getAddr()</text>
<text text-anchor="start" x="199" y="-536.5" font-family="Helvetica,sans-Serif" font-size="10.00">+ getAddr()</text>
<text text-anchor="start" x="199" y="-525.5" font-family="Helvetica,sans-Serif" font-size="10.00">+ getAddrLen()</text>
<text text-anchor="start" x="199" y="-514.5" font-family="Helvetica,sans-Serif" font-size="10.00">+ insert()</text>
<text text-anchor="start" x="199" y="-503.5" font-family="Helvetica,sans-Serif" font-size="10.00">+ toString()</text>
<text text-anchor="start" x="199" y="-492.5" font-family="Helvetica,sans-Serif" font-size="10.00">+ operator&lt;()</text>
<text text-anchor="start" x="199" y="-481.5" font-family="Helvetica,sans-Serif" font-size="10.00">+ operator==()</text>
<text text-anchor="start" x="199" y="-470.5" font-family="Helvetica,sans-Serif" font-size="10.00">+ operator!=()</text>
<text text-anchor="start" x="199" y="-459.5" font-family="Helvetica,sans-Serif" font-size="10.00">+ Create()</text>
<text text-anchor="start" x="199" y="-448.5" font-family="Helvetica,sans-Serif" font-size="10.00">+ Lookup()</text>
<text text-anchor="start" x="199" y="-437.5" font-family="Helvetica,sans-Serif" font-size="10.00">+ LookupAny()</text>
<text text-anchor="start" x="199" y="-426.5" font-family="Helvetica,sans-Serif" font-size="10.00">+ LookupAnyIPAddress()</text>
<text text-anchor="start" x="199" y="-415.5" font-family="Helvetica,sans-Serif" font-size="10.00">+ GetInterfaceAddresses()</text>
<text text-anchor="start" x="199" y="-404.5" font-family="Helvetica,sans-Serif" font-size="10.00">+ GetInterfaceAddresses()</text>
</a>
</g>
</g>
<!-- Node2 -->
<g id="node2" class="node">
<title>Node2</title>
<g id="a_node2"><a xlink:href="classsylar_1_1IPAddress.html" target="_top" xlink:title="IP地址的基类">
<polygon fill="white" stroke="black" points="70,-237.5 70,-349.5 192,-349.5 192,-237.5 70,-237.5"/>
<text text-anchor="middle" x="131" y="-337.5" font-family="Helvetica,sans-Serif" font-size="10.00">sylar::IPAddress</text>
<polyline fill="none" stroke="black" points="70,-330.5 192,-330.5 "/>
<text text-anchor="middle" x="131" y="-318.5" font-family="Helvetica,sans-Serif" font-size="10.00"> </text>
<polyline fill="none" stroke="black" points="70,-311.5 192,-311.5 "/>
<text text-anchor="start" x="78" y="-299.5" font-family="Helvetica,sans-Serif" font-size="10.00">+ broadcastAddress()</text>
<text text-anchor="start" x="78" y="-288.5" font-family="Helvetica,sans-Serif" font-size="10.00">+ networkAddress()</text>
<text text-anchor="start" x="78" y="-277.5" font-family="Helvetica,sans-Serif" font-size="10.00">+ subnetMask()</text>
<text text-anchor="start" x="78" y="-266.5" font-family="Helvetica,sans-Serif" font-size="10.00">+ getPort()</text>
<text text-anchor="start" x="78" y="-255.5" font-family="Helvetica,sans-Serif" font-size="10.00">+ setPort()</text>
<text text-anchor="start" x="78" y="-244.5" font-family="Helvetica,sans-Serif" font-size="10.00">+ Create()</text>
</a>
</g>
</g>
<!-- Node1&#45;&gt;Node2 -->
<g id="edge1" class="edge">
<title>Node1&#45;&gt;Node2</title>
<path fill="none" stroke="midnightblue" d="M189.85,-388.74C181.34,-375.11 173,-361.76 165.39,-349.58"/>
<polygon fill="none" stroke="midnightblue" points="186.9,-390.63 195.16,-397.26 192.83,-386.92 186.9,-390.63"/>
</g>
<!-- Node5 -->
<g id="node5" class="node">
<title>Node5</title>
<g id="a_node5"><a xlink:href="classsylar_1_1UnixAddress.html" target="_top" xlink:title="UnixSocket地址">
<polygon fill="white" stroke="black" points="210,-226.5 210,-360.5 318,-360.5 318,-226.5 210,-226.5"/>
<text text-anchor="middle" x="264" y="-348.5" font-family="Helvetica,sans-Serif" font-size="10.00">sylar::UnixAddress</text>
<polyline fill="none" stroke="black" points="210,-341.5 318,-341.5 "/>
<text text-anchor="middle" x="264" y="-329.5" font-family="Helvetica,sans-Serif" font-size="10.00"> </text>
<polyline fill="none" stroke="black" points="210,-322.5 318,-322.5 "/>
<text text-anchor="start" x="218" y="-310.5" font-family="Helvetica,sans-Serif" font-size="10.00">+ UnixAddress()</text>
<text text-anchor="start" x="218" y="-299.5" font-family="Helvetica,sans-Serif" font-size="10.00">+ UnixAddress()</text>
<text text-anchor="start" x="218" y="-288.5" font-family="Helvetica,sans-Serif" font-size="10.00">+ getAddr()</text>
<text text-anchor="start" x="218" y="-277.5" font-family="Helvetica,sans-Serif" font-size="10.00">+ getAddr()</text>
<text text-anchor="start" x="218" y="-266.5" font-family="Helvetica,sans-Serif" font-size="10.00">+ getAddrLen()</text>
<text text-anchor="start" x="218" y="-255.5" font-family="Helvetica,sans-Serif" font-size="10.00">+ setAddrLen()</text>
<text text-anchor="start" x="218" y="-244.5" font-family="Helvetica,sans-Serif" font-size="10.00">+ getPath()</text>
<text text-anchor="start" x="218" y="-233.5" font-family="Helvetica,sans-Serif" font-size="10.00">+ insert()</text>
</a>
</g>
</g>
<!-- Node1&#45;&gt;Node5 -->
<g id="edge4" class="edge">
<title>Node1&#45;&gt;Node5</title>
<path fill="none" stroke="midnightblue" d="M264,-387.04C264,-378.04 264,-369.17 264,-360.69"/>
<polygon fill="none" stroke="midnightblue" points="260.5,-387.26 264,-397.26 267.5,-387.26 260.5,-387.26"/>
</g>
<!-- Node6 -->
<g id="node6" class="node">
<title>Node6</title>
<g id="a_node6"><a xlink:href="classsylar_1_1UnknownAddress.html" target="_top" xlink:title="未知地址">
<polygon fill="white" stroke="black" points="336.5,-237.5 336.5,-349.5 467.5,-349.5 467.5,-237.5 336.5,-237.5"/>
<text text-anchor="middle" x="402" y="-337.5" font-family="Helvetica,sans-Serif" font-size="10.00">sylar::UnknownAddress</text>
<polyline fill="none" stroke="black" points="336.5,-330.5 467.5,-330.5 "/>
<text text-anchor="middle" x="402" y="-318.5" font-family="Helvetica,sans-Serif" font-size="10.00"> </text>
<polyline fill="none" stroke="black" points="336.5,-311.5 467.5,-311.5 "/>
<text text-anchor="start" x="344.5" y="-299.5" font-family="Helvetica,sans-Serif" font-size="10.00">+ UnknownAddress()</text>
<text text-anchor="start" x="344.5" y="-288.5" font-family="Helvetica,sans-Serif" font-size="10.00">+ UnknownAddress()</text>
<text text-anchor="start" x="344.5" y="-277.5" font-family="Helvetica,sans-Serif" font-size="10.00">+ getAddr()</text>
<text text-anchor="start" x="344.5" y="-266.5" font-family="Helvetica,sans-Serif" font-size="10.00">+ getAddr()</text>
<text text-anchor="start" x="344.5" y="-255.5" font-family="Helvetica,sans-Serif" font-size="10.00">+ getAddrLen()</text>
<text text-anchor="start" x="344.5" y="-244.5" font-family="Helvetica,sans-Serif" font-size="10.00">+ insert()</text>
</a>
</g>
</g>
<!-- Node1&#45;&gt;Node6 -->
<g id="edge5" class="edge">
<title>Node1&#45;&gt;Node6</title>
<path fill="none" stroke="midnightblue" d="M340.94,-388.74C349.77,-375.11 358.42,-361.76 366.31,-349.58"/>
<polygon fill="none" stroke="midnightblue" points="337.93,-386.96 335.43,-397.26 343.8,-390.77 337.93,-386.96"/>
</g>
<!-- Node3 -->
<g id="node3" class="node">
<title>Node3</title>
<g id="a_node3"><a xlink:href="classsylar_1_1IPv4Address.html" target="_top" xlink:title="IPv4地址">
<polygon fill="white" stroke="black" points="0,-6 0,-184 122,-184 122,-6 0,-6"/>
<text text-anchor="middle" x="61" y="-172" font-family="Helvetica,sans-Serif" font-size="10.00">sylar::IPv4Address</text>
<polyline fill="none" stroke="black" points="0,-165 122,-165 "/>
<text text-anchor="middle" x="61" y="-153" font-family="Helvetica,sans-Serif" font-size="10.00"> </text>
<polyline fill="none" stroke="black" points="0,-146 122,-146 "/>
<text text-anchor="start" x="8" y="-134" font-family="Helvetica,sans-Serif" font-size="10.00">+ IPv4Address()</text>
<text text-anchor="start" x="8" y="-123" font-family="Helvetica,sans-Serif" font-size="10.00">+ IPv4Address()</text>
<text text-anchor="start" x="8" y="-112" font-family="Helvetica,sans-Serif" font-size="10.00">+ getAddr()</text>
<text text-anchor="start" x="8" y="-101" font-family="Helvetica,sans-Serif" font-size="10.00">+ getAddr()</text>
<text text-anchor="start" x="8" y="-90" font-family="Helvetica,sans-Serif" font-size="10.00">+ getAddrLen()</text>
<text text-anchor="start" x="8" y="-79" font-family="Helvetica,sans-Serif" font-size="10.00">+ insert()</text>
<text text-anchor="start" x="8" y="-68" font-family="Helvetica,sans-Serif" font-size="10.00">+ broadcastAddress()</text>
<text text-anchor="start" x="8" y="-57" font-family="Helvetica,sans-Serif" font-size="10.00">+ networkAddress()</text>
<text text-anchor="start" x="8" y="-46" font-family="Helvetica,sans-Serif" font-size="10.00">+ subnetMask()</text>
<text text-anchor="start" x="8" y="-35" font-family="Helvetica,sans-Serif" font-size="10.00">+ getPort()</text>
<text text-anchor="start" x="8" y="-24" font-family="Helvetica,sans-Serif" font-size="10.00">+ setPort()</text>
<text text-anchor="start" x="8" y="-13" font-family="Helvetica,sans-Serif" font-size="10.00">+ Create()</text>
</a>
</g>
</g>
<!-- Node2&#45;&gt;Node3 -->
<g id="edge2" class="edge">
<title>Node2&#45;&gt;Node3</title>
<path fill="none" stroke="midnightblue" d="M107.95,-227.79C102.99,-213.87 97.67,-198.94 92.46,-184.3"/>
<polygon fill="none" stroke="midnightblue" points="104.66,-229 111.31,-237.24 111.26,-226.65 104.66,-229"/>
</g>
<!-- Node4 -->
<g id="node4" class="node">
<title>Node4</title>
<g id="a_node4"><a xlink:href="classsylar_1_1IPv6Address.html" target="_top" xlink:title="IPv6地址">
<polygon fill="white" stroke="black" points="140,-0.5 140,-189.5 262,-189.5 262,-0.5 140,-0.5"/>
<text text-anchor="middle" x="201" y="-177.5" font-family="Helvetica,sans-Serif" font-size="10.00">sylar::IPv6Address</text>
<polyline fill="none" stroke="black" points="140,-170.5 262,-170.5 "/>
<text text-anchor="middle" x="201" y="-158.5" font-family="Helvetica,sans-Serif" font-size="10.00"> </text>
<polyline fill="none" stroke="black" points="140,-151.5 262,-151.5 "/>
<text text-anchor="start" x="148" y="-139.5" font-family="Helvetica,sans-Serif" font-size="10.00">+ IPv6Address()</text>
<text text-anchor="start" x="148" y="-128.5" font-family="Helvetica,sans-Serif" font-size="10.00">+ IPv6Address()</text>
<text text-anchor="start" x="148" y="-117.5" font-family="Helvetica,sans-Serif" font-size="10.00">+ IPv6Address()</text>
<text text-anchor="start" x="148" y="-106.5" font-family="Helvetica,sans-Serif" font-size="10.00">+ getAddr()</text>
<text text-anchor="start" x="148" y="-95.5" font-family="Helvetica,sans-Serif" font-size="10.00">+ getAddr()</text>
<text text-anchor="start" x="148" y="-84.5" font-family="Helvetica,sans-Serif" font-size="10.00">+ getAddrLen()</text>
<text text-anchor="start" x="148" y="-73.5" font-family="Helvetica,sans-Serif" font-size="10.00">+ insert()</text>
<text text-anchor="start" x="148" y="-62.5" font-family="Helvetica,sans-Serif" font-size="10.00">+ broadcastAddress()</text>
<text text-anchor="start" x="148" y="-51.5" font-family="Helvetica,sans-Serif" font-size="10.00">+ networkAddress()</text>
<text text-anchor="start" x="148" y="-40.5" font-family="Helvetica,sans-Serif" font-size="10.00">+ subnetMask()</text>
<text text-anchor="start" x="148" y="-29.5" font-family="Helvetica,sans-Serif" font-size="10.00">+ getPort()</text>
<text text-anchor="start" x="148" y="-18.5" font-family="Helvetica,sans-Serif" font-size="10.00">+ setPort()</text>
<text text-anchor="start" x="148" y="-7.5" font-family="Helvetica,sans-Serif" font-size="10.00">+ Create()</text>
</a>
</g>
</g>
<!-- Node2&#45;&gt;Node4 -->
<g id="edge3" class="edge">
<title>Node2&#45;&gt;Node4</title>
<path fill="none" stroke="midnightblue" d="M154.11,-227.63C158.46,-215.41 163.09,-202.42 167.68,-189.53"/>
<polygon fill="none" stroke="midnightblue" points="150.74,-226.65 150.69,-237.24 157.34,-229 150.74,-226.65"/>
</g>
</g>
</svg>
