<?xml version="1.0" encoding="UTF-8" standalone="no"?>
<!DOCTYPE svg PUBLIC "-//W3C//DTD SVG 1.1//EN"
 "http://www.w3.org/Graphics/SVG/1.1/DTD/svg11.dtd">
<!-- Generated by graphviz version 2.43.0 (0)
 -->
<!-- Title: sylar::Scheduler::Scheduler Pages: 1 -->
<svg width="331pt" height="66pt"
 viewBox="0.00 0.00 331.00 66.00" xmlns="http://www.w3.org/2000/svg" xmlns:xlink="http://www.w3.org/1999/xlink">
<g id="graph0" class="graph" transform="scale(1 1) rotate(0) translate(4 62)">
<title>sylar::Scheduler::Scheduler</title>
<polygon fill="white" stroke="transparent" points="-4,4 -4,-62 327,-62 327,4 -4,4"/>
<!-- Node1 -->
<g id="node1" class="node">
<title>Node1</title>
<g id="a_node1"><a xlink:title="创建调度器">
<polygon fill="#bfbfbf" stroke="black" points="0,-19.5 0,-38.5 149,-38.5 149,-19.5 0,-19.5"/>
<text text-anchor="middle" x="74.5" y="-26.5" font-family="Helvetica,sans-Serif" font-size="10.00">sylar::Scheduler::Scheduler</text>
</a>
</g>
</g>
<!-- Node2 -->
<g id="node2" class="node">
<title>Node2</title>
<g id="a_node2"><a xlink:href="classsylar_1_1Fiber.html#a02312c30aeafa6ed7e0143cfe95f21d2" target="_top" xlink:title="返回当前线程正在执行的协程">
<polygon fill="white" stroke="black" points="197,-38.5 197,-57.5 311,-57.5 311,-38.5 197,-38.5"/>
<text text-anchor="middle" x="254" y="-45.5" font-family="Helvetica,sans-Serif" font-size="10.00">sylar::Fiber::GetThis</text>
</a>
</g>
</g>
<!-- Node1&#45;&gt;Node2 -->
<g id="edge1" class="edge">
<title>Node1&#45;&gt;Node2</title>
<path fill="none" stroke="midnightblue" d="M149.23,-36.89C161.66,-38.22 174.49,-39.6 186.72,-40.9"/>
<polygon fill="midnightblue" stroke="midnightblue" points="186.5,-44.4 196.82,-41.99 187.25,-37.44 186.5,-44.4"/>
</g>
<!-- Node3 -->
<g id="node3" class="node">
<title>Node3</title>
<g id="a_node3"><a xlink:href="classsylar_1_1Scheduler.html#af49c48071c9523d1ab4bc11edf409f29" target="_top" xlink:title="获取当前线程调度器指针">
<polygon fill="white" stroke="black" points="185,-0.5 185,-19.5 323,-19.5 323,-0.5 185,-0.5"/>
<text text-anchor="middle" x="254" y="-7.5" font-family="Helvetica,sans-Serif" font-size="10.00">sylar::Scheduler::GetThis</text>
</a>
</g>
</g>
<!-- Node1&#45;&gt;Node3 -->
<g id="edge2" class="edge">
<title>Node1&#45;&gt;Node3</title>
<path fill="none" stroke="midnightblue" d="M149.23,-21.11C157.72,-20.2 166.4,-19.27 174.94,-18.36"/>
<polygon fill="midnightblue" stroke="midnightblue" points="175.32,-21.83 184.89,-17.29 174.58,-14.87 175.32,-21.83"/>
</g>
</g>
</svg>
