<?xml version="1.0" encoding="UTF-8" standalone="no"?>
<!DOCTYPE svg PUBLIC "-//W3C//DTD SVG 1.1//EN"
 "http://www.w3.org/Graphics/SVG/1.1/DTD/svg11.dtd">
<!-- Generated by graphviz version 2.43.0 (0)
 -->
<!-- Title: sylar::http::HttpServer Pages: 1 -->
<svg width="519pt" height="878pt"
 viewBox="0.00 0.00 518.50 878.00" xmlns="http://www.w3.org/2000/svg" xmlns:xlink="http://www.w3.org/1999/xlink">
<g id="graph0" class="graph" transform="scale(1 1) rotate(0) translate(4 874)">
<title>sylar::http::HttpServer</title>
<polygon fill="white" stroke="transparent" points="-4,4 -4,-874 514.5,-874 514.5,4 -4,4"/>
<!-- Node1 -->
<g id="node1" class="node">
<title>Node1</title>
<g id="a_node1"><a xlink:title="HTTP服务器类">
<polygon fill="#bfbfbf" stroke="black" points="147,-0.5 147,-101.5 275,-101.5 275,-0.5 147,-0.5"/>
<text text-anchor="middle" x="211" y="-89.5" font-family="Helvetica,sans-Serif" font-size="10.00">sylar::http::HttpServer</text>
<polyline fill="none" stroke="black" points="147,-82.5 275,-82.5 "/>
<text text-anchor="middle" x="211" y="-70.5" font-family="Helvetica,sans-Serif" font-size="10.00"> </text>
<polyline fill="none" stroke="black" points="147,-63.5 275,-63.5 "/>
<text text-anchor="start" x="155" y="-51.5" font-family="Helvetica,sans-Serif" font-size="10.00">+ HttpServer()</text>
<text text-anchor="start" x="155" y="-40.5" font-family="Helvetica,sans-Serif" font-size="10.00">+ getServletDispatch()</text>
<text text-anchor="start" x="155" y="-29.5" font-family="Helvetica,sans-Serif" font-size="10.00">+ setServletDispatch()</text>
<text text-anchor="start" x="155" y="-18.5" font-family="Helvetica,sans-Serif" font-size="10.00">+ setName()</text>
<text text-anchor="start" x="155" y="-7.5" font-family="Helvetica,sans-Serif" font-size="10.00"># handleClient()</text>
</a>
</g>
</g>
<!-- Node2 -->
<g id="node2" class="node">
<title>Node2</title>
<g id="a_node2"><a xlink:href="classsylar_1_1TcpServer.html" target="_top" xlink:title="TCP服务器封装">
<polygon fill="white" stroke="black" points="153,-139.5 153,-383.5 269,-383.5 269,-139.5 153,-139.5"/>
<text text-anchor="middle" x="211" y="-371.5" font-family="Helvetica,sans-Serif" font-size="10.00">sylar::TcpServer</text>
<polyline fill="none" stroke="black" points="153,-364.5 269,-364.5 "/>
<text text-anchor="start" x="161" y="-352.5" font-family="Helvetica,sans-Serif" font-size="10.00"># m_socks</text>
<text text-anchor="start" x="161" y="-341.5" font-family="Helvetica,sans-Serif" font-size="10.00"># m_recvTimeout</text>
<text text-anchor="start" x="161" y="-330.5" font-family="Helvetica,sans-Serif" font-size="10.00"># m_name</text>
<text text-anchor="start" x="161" y="-319.5" font-family="Helvetica,sans-Serif" font-size="10.00"># m_type</text>
<text text-anchor="start" x="161" y="-308.5" font-family="Helvetica,sans-Serif" font-size="10.00"># m_isStop</text>
<polyline fill="none" stroke="black" points="153,-301.5 269,-301.5 "/>
<text text-anchor="start" x="161" y="-289.5" font-family="Helvetica,sans-Serif" font-size="10.00">+ TcpServer()</text>
<text text-anchor="start" x="161" y="-278.5" font-family="Helvetica,sans-Serif" font-size="10.00">+ ~TcpServer()</text>
<text text-anchor="start" x="161" y="-267.5" font-family="Helvetica,sans-Serif" font-size="10.00">+ bind()</text>
<text text-anchor="start" x="161" y="-256.5" font-family="Helvetica,sans-Serif" font-size="10.00">+ bind()</text>
<text text-anchor="start" x="161" y="-245.5" font-family="Helvetica,sans-Serif" font-size="10.00">+ start()</text>
<text text-anchor="start" x="161" y="-234.5" font-family="Helvetica,sans-Serif" font-size="10.00">+ stop()</text>
<text text-anchor="start" x="161" y="-223.5" font-family="Helvetica,sans-Serif" font-size="10.00">+ getRecvTimeout()</text>
<text text-anchor="start" x="161" y="-212.5" font-family="Helvetica,sans-Serif" font-size="10.00">+ getName()</text>
<text text-anchor="start" x="161" y="-201.5" font-family="Helvetica,sans-Serif" font-size="10.00">+ setRecvTimeout()</text>
<text text-anchor="start" x="161" y="-190.5" font-family="Helvetica,sans-Serif" font-size="10.00">+ setName()</text>
<text text-anchor="start" x="161" y="-179.5" font-family="Helvetica,sans-Serif" font-size="10.00">+ isStop()</text>
<text text-anchor="start" x="161" y="-168.5" font-family="Helvetica,sans-Serif" font-size="10.00">+ toString()</text>
<text text-anchor="start" x="161" y="-157.5" font-family="Helvetica,sans-Serif" font-size="10.00"># handleClient()</text>
<text text-anchor="start" x="161" y="-146.5" font-family="Helvetica,sans-Serif" font-size="10.00"># startAccept()</text>
</a>
</g>
</g>
<!-- Node2&#45;&gt;Node1 -->
<g id="edge1" class="edge">
<title>Node2&#45;&gt;Node1</title>
<path fill="none" stroke="midnightblue" d="M211,-129.19C211,-119.66 211,-110.46 211,-101.93"/>
<polygon fill="none" stroke="midnightblue" points="207.5,-129.21 211,-139.21 214.5,-129.21 207.5,-129.21"/>
</g>
<!-- Node3 -->
<g id="node3" class="node">
<title>Node3</title>
<g id="a_node3"><a xlink:title=" ">
<polygon fill="white" stroke="#bfbfbf" points="0,-503 0,-571 138,-571 138,-503 0,-503"/>
<text text-anchor="start" x="8" y="-559" font-family="Helvetica,sans-Serif" font-size="10.00">std::enable_shared</text>
<text text-anchor="middle" x="69" y="-548" font-family="Helvetica,sans-Serif" font-size="10.00">_from_this&lt; TcpServer &gt;</text>
<polyline fill="none" stroke="#bfbfbf" points="0,-541 138,-541 "/>
<text text-anchor="middle" x="69" y="-529" font-family="Helvetica,sans-Serif" font-size="10.00"> </text>
<polyline fill="none" stroke="#bfbfbf" points="0,-522 138,-522 "/>
<text text-anchor="middle" x="69" y="-510" font-family="Helvetica,sans-Serif" font-size="10.00"> </text>
</a>
</g>
</g>
<!-- Node3&#45;&gt;Node2 -->
<g id="edge2" class="edge">
<title>Node3&#45;&gt;Node2</title>
<path fill="none" stroke="midnightblue" d="M90.96,-493.7C107.52,-461.8 131.04,-416.5 152.88,-374.45"/>
<polygon fill="none" stroke="midnightblue" points="87.77,-492.25 86.27,-502.74 93.98,-495.47 87.77,-492.25"/>
</g>
<!-- Node4 -->
<g id="node4" class="node">
<title>Node4</title>
<g id="a_node4"><a xlink:href="classsylar_1_1Noncopyable.html" target="_top" xlink:title="对象无法拷贝,赋值">
<polygon fill="white" stroke="black" points="156,-492 156,-582 266,-582 266,-492 156,-492"/>
<text text-anchor="middle" x="211" y="-570" font-family="Helvetica,sans-Serif" font-size="10.00">sylar::Noncopyable</text>
<polyline fill="none" stroke="black" points="156,-563 266,-563 "/>
<text text-anchor="middle" x="211" y="-551" font-family="Helvetica,sans-Serif" font-size="10.00"> </text>
<polyline fill="none" stroke="black" points="156,-544 266,-544 "/>
<text text-anchor="start" x="164" y="-532" font-family="Helvetica,sans-Serif" font-size="10.00">+ Noncopyable()</text>
<text text-anchor="start" x="164" y="-521" font-family="Helvetica,sans-Serif" font-size="10.00">+ ~Noncopyable()</text>
<text text-anchor="start" x="164" y="-510" font-family="Helvetica,sans-Serif" font-size="10.00">+ Noncopyable()</text>
<text text-anchor="start" x="164" y="-499" font-family="Helvetica,sans-Serif" font-size="10.00">+ operator=()</text>
</a>
</g>
</g>
<!-- Node4&#45;&gt;Node2 -->
<g id="edge3" class="edge">
<title>Node4&#45;&gt;Node2</title>
<path fill="none" stroke="#8b1a1a" d="M211,-481.74C211,-453.59 211,-417.99 211,-383.71"/>
<polygon fill="none" stroke="#8b1a1a" points="207.5,-481.75 211,-491.75 214.5,-481.75 207.5,-481.75"/>
</g>
<!-- Node5 -->
<g id="node5" class="node">
<title>Node5</title>
<g id="a_node5"><a xlink:href="classsylar_1_1IOManager.html" target="_top" xlink:title=" ">
<polygon fill="white" stroke="black" points="284.5,-442.5 284.5,-631.5 435.5,-631.5 435.5,-442.5 284.5,-442.5"/>
<text text-anchor="middle" x="360" y="-619.5" font-family="Helvetica,sans-Serif" font-size="10.00">sylar::IOManager</text>
<polyline fill="none" stroke="black" points="284.5,-612.5 435.5,-612.5 "/>
<text text-anchor="middle" x="360" y="-600.5" font-family="Helvetica,sans-Serif" font-size="10.00"> </text>
<polyline fill="none" stroke="black" points="284.5,-593.5 435.5,-593.5 "/>
<text text-anchor="start" x="292.5" y="-581.5" font-family="Helvetica,sans-Serif" font-size="10.00">+ IOManager()</text>
<text text-anchor="start" x="292.5" y="-570.5" font-family="Helvetica,sans-Serif" font-size="10.00">+ ~IOManager()</text>
<text text-anchor="start" x="292.5" y="-559.5" font-family="Helvetica,sans-Serif" font-size="10.00">+ addEvent()</text>
<text text-anchor="start" x="292.5" y="-548.5" font-family="Helvetica,sans-Serif" font-size="10.00">+ delEvent()</text>
<text text-anchor="start" x="292.5" y="-537.5" font-family="Helvetica,sans-Serif" font-size="10.00">+ cancelEvent()</text>
<text text-anchor="start" x="292.5" y="-526.5" font-family="Helvetica,sans-Serif" font-size="10.00">+ cancelAll()</text>
<text text-anchor="start" x="292.5" y="-515.5" font-family="Helvetica,sans-Serif" font-size="10.00">+ GetThis()</text>
<text text-anchor="start" x="292.5" y="-504.5" font-family="Helvetica,sans-Serif" font-size="10.00"># tickle()</text>
<text text-anchor="start" x="292.5" y="-493.5" font-family="Helvetica,sans-Serif" font-size="10.00"># stopping()</text>
<text text-anchor="start" x="292.5" y="-482.5" font-family="Helvetica,sans-Serif" font-size="10.00"># idle()</text>
<text text-anchor="start" x="292.5" y="-471.5" font-family="Helvetica,sans-Serif" font-size="10.00"># stopping()</text>
<text text-anchor="start" x="292.5" y="-460.5" font-family="Helvetica,sans-Serif" font-size="10.00"># onTimerInsertedAtFront()</text>
<text text-anchor="start" x="292.5" y="-449.5" font-family="Helvetica,sans-Serif" font-size="10.00"># contextResize()</text>
</a>
</g>
</g>
<!-- Node5&#45;&gt;Node2 -->
<g id="edge4" class="edge">
<title>Node5&#45;&gt;Node2</title>
<path fill="none" stroke="#404040" d="M308.93,-442.26C298.03,-422.24 286.38,-400.86 275.06,-380.08"/>
<polygon fill="none" stroke="#404040" points="274.91,-379.81 268.53,-376.46 269.17,-369.28 275.55,-372.63 274.91,-379.81"/>
<text text-anchor="middle" x="345.5" y="-416" font-family="Helvetica,sans-Serif" font-size="10.00"> #m_acceptWorker</text>
<text text-anchor="middle" x="345.5" y="-405" font-family="Helvetica,sans-Serif" font-size="10.00">#m_ioWorker</text>
</g>
<!-- Node6 -->
<g id="node6" class="node">
<title>Node6</title>
<g id="a_node6"><a xlink:href="classsylar_1_1Scheduler.html" target="_top" xlink:title="协程调度器">
<polygon fill="white" stroke="black" points="231,-669.5 231,-869.5 341,-869.5 341,-669.5 231,-669.5"/>
<text text-anchor="middle" x="286" y="-857.5" font-family="Helvetica,sans-Serif" font-size="10.00">sylar::Scheduler</text>
<polyline fill="none" stroke="black" points="231,-850.5 341,-850.5 "/>
<text text-anchor="middle" x="286" y="-838.5" font-family="Helvetica,sans-Serif" font-size="10.00"> </text>
<polyline fill="none" stroke="black" points="231,-831.5 341,-831.5 "/>
<text text-anchor="start" x="239" y="-819.5" font-family="Helvetica,sans-Serif" font-size="10.00">+ Scheduler()</text>
<text text-anchor="start" x="239" y="-808.5" font-family="Helvetica,sans-Serif" font-size="10.00">+ ~Scheduler()</text>
<text text-anchor="start" x="239" y="-797.5" font-family="Helvetica,sans-Serif" font-size="10.00">+ getName()</text>
<text text-anchor="start" x="239" y="-786.5" font-family="Helvetica,sans-Serif" font-size="10.00">+ schedule()</text>
<text text-anchor="start" x="239" y="-775.5" font-family="Helvetica,sans-Serif" font-size="10.00">+ start()</text>
<text text-anchor="start" x="239" y="-764.5" font-family="Helvetica,sans-Serif" font-size="10.00">+ stop()</text>
<text text-anchor="start" x="239" y="-753.5" font-family="Helvetica,sans-Serif" font-size="10.00">+ GetThis()</text>
<text text-anchor="start" x="239" y="-742.5" font-family="Helvetica,sans-Serif" font-size="10.00">+ GetMainFiber()</text>
<text text-anchor="start" x="239" y="-731.5" font-family="Helvetica,sans-Serif" font-size="10.00"># tickle()</text>
<text text-anchor="start" x="239" y="-720.5" font-family="Helvetica,sans-Serif" font-size="10.00"># run()</text>
<text text-anchor="start" x="239" y="-709.5" font-family="Helvetica,sans-Serif" font-size="10.00"># idle()</text>
<text text-anchor="start" x="239" y="-698.5" font-family="Helvetica,sans-Serif" font-size="10.00"># stopping()</text>
<text text-anchor="start" x="239" y="-687.5" font-family="Helvetica,sans-Serif" font-size="10.00"># setThis()</text>
<text text-anchor="start" x="239" y="-676.5" font-family="Helvetica,sans-Serif" font-size="10.00"># hasIdleThreads()</text>
</a>
</g>
</g>
<!-- Node6&#45;&gt;Node5 -->
<g id="edge5" class="edge">
<title>Node6&#45;&gt;Node5</title>
<path fill="none" stroke="midnightblue" d="M320.95,-659.65C323.96,-650.25 327,-640.8 329.97,-631.54"/>
<polygon fill="none" stroke="midnightblue" points="317.54,-658.82 317.81,-669.41 324.2,-660.96 317.54,-658.82"/>
</g>
<!-- Node7 -->
<g id="node7" class="node">
<title>Node7</title>
<g id="a_node7"><a xlink:href="classsylar_1_1TimerManager.html" target="_top" xlink:title="定时器管理器">
<polygon fill="white" stroke="black" points="359.5,-697 359.5,-842 510.5,-842 510.5,-697 359.5,-697"/>
<text text-anchor="middle" x="435" y="-830" font-family="Helvetica,sans-Serif" font-size="10.00">sylar::TimerManager</text>
<polyline fill="none" stroke="black" points="359.5,-823 510.5,-823 "/>
<text text-anchor="middle" x="435" y="-811" font-family="Helvetica,sans-Serif" font-size="10.00"> </text>
<polyline fill="none" stroke="black" points="359.5,-804 510.5,-804 "/>
<text text-anchor="start" x="367.5" y="-792" font-family="Helvetica,sans-Serif" font-size="10.00">+ TimerManager()</text>
<text text-anchor="start" x="367.5" y="-781" font-family="Helvetica,sans-Serif" font-size="10.00">+ ~TimerManager()</text>
<text text-anchor="start" x="367.5" y="-770" font-family="Helvetica,sans-Serif" font-size="10.00">+ addTimer()</text>
<text text-anchor="start" x="367.5" y="-759" font-family="Helvetica,sans-Serif" font-size="10.00">+ addConditionTimer()</text>
<text text-anchor="start" x="367.5" y="-748" font-family="Helvetica,sans-Serif" font-size="10.00">+ getNextTimer()</text>
<text text-anchor="start" x="367.5" y="-737" font-family="Helvetica,sans-Serif" font-size="10.00">+ listExpiredCb()</text>
<text text-anchor="start" x="367.5" y="-726" font-family="Helvetica,sans-Serif" font-size="10.00">+ hasTimer()</text>
<text text-anchor="start" x="367.5" y="-715" font-family="Helvetica,sans-Serif" font-size="10.00"># onTimerInsertedAtFront()</text>
<text text-anchor="start" x="367.5" y="-704" font-family="Helvetica,sans-Serif" font-size="10.00"># addTimer()</text>
</a>
</g>
</g>
<!-- Node7&#45;&gt;Node5 -->
<g id="edge6" class="edge">
<title>Node7&#45;&gt;Node5</title>
<path fill="none" stroke="midnightblue" d="M408.49,-687.02C402.66,-669.12 396.45,-650.02 390.48,-631.68"/>
<polygon fill="none" stroke="midnightblue" points="405.26,-688.41 411.68,-696.83 411.91,-686.24 405.26,-688.41"/>
</g>
</g>
</svg>
