<?xml version="1.0" encoding="UTF-8" standalone="no"?>
<!DOCTYPE svg PUBLIC "-//W3C//DTD SVG 1.1//EN"
 "http://www.w3.org/Graphics/SVG/1.1/DTD/svg11.dtd">
<!-- Generated by graphviz version 2.43.0 (0)
 -->
<!-- Title: sylar::http::FunctionServlet Pages: 1 -->
<svg width="156pt" height="204pt"
 viewBox="0.00 0.00 156.00 204.00" xmlns="http://www.w3.org/2000/svg" xmlns:xlink="http://www.w3.org/1999/xlink">
<g id="graph0" class="graph" transform="scale(1 1) rotate(0) translate(4 200)">
<title>sylar::http::FunctionServlet</title>
<polygon fill="white" stroke="transparent" points="-4,4 -4,-200 152,-200 152,4 -4,4"/>
<!-- Node1 -->
<g id="node1" class="node">
<title>Node1</title>
<g id="a_node1"><a xlink:title="函数式Servlet">
<polygon fill="#bfbfbf" stroke="black" points="0,-0.5 0,-68.5 148,-68.5 148,-0.5 0,-0.5"/>
<text text-anchor="middle" x="74" y="-56.5" font-family="Helvetica,sans-Serif" font-size="10.00">sylar::http::FunctionServlet</text>
<polyline fill="none" stroke="black" points="0,-49.5 148,-49.5 "/>
<text text-anchor="middle" x="74" y="-37.5" font-family="Helvetica,sans-Serif" font-size="10.00"> </text>
<polyline fill="none" stroke="black" points="0,-30.5 148,-30.5 "/>
<text text-anchor="start" x="8" y="-18.5" font-family="Helvetica,sans-Serif" font-size="10.00">+ FunctionServlet()</text>
<text text-anchor="start" x="8" y="-7.5" font-family="Helvetica,sans-Serif" font-size="10.00">+ handle()</text>
</a>
</g>
</g>
<!-- Node2 -->
<g id="node2" class="node">
<title>Node2</title>
<g id="a_node2"><a xlink:href="classsylar_1_1http_1_1Servlet.html" target="_top" xlink:title="Servlet封装">
<polygon fill="white" stroke="black" points="20.5,-105.5 20.5,-195.5 127.5,-195.5 127.5,-105.5 20.5,-105.5"/>
<text text-anchor="middle" x="74" y="-183.5" font-family="Helvetica,sans-Serif" font-size="10.00">sylar::http::Servlet</text>
<polyline fill="none" stroke="black" points="20.5,-176.5 127.5,-176.5 "/>
<text text-anchor="start" x="28.5" y="-164.5" font-family="Helvetica,sans-Serif" font-size="10.00"># m_name</text>
<polyline fill="none" stroke="black" points="20.5,-157.5 127.5,-157.5 "/>
<text text-anchor="start" x="28.5" y="-145.5" font-family="Helvetica,sans-Serif" font-size="10.00">+ Servlet()</text>
<text text-anchor="start" x="28.5" y="-134.5" font-family="Helvetica,sans-Serif" font-size="10.00">+ ~Servlet()</text>
<text text-anchor="start" x="28.5" y="-123.5" font-family="Helvetica,sans-Serif" font-size="10.00">+ handle()</text>
<text text-anchor="start" x="28.5" y="-112.5" font-family="Helvetica,sans-Serif" font-size="10.00">+ getName()</text>
</a>
</g>
</g>
<!-- Node2&#45;&gt;Node1 -->
<g id="edge1" class="edge">
<title>Node2&#45;&gt;Node1</title>
<path fill="none" stroke="midnightblue" d="M74,-95.32C74,-86.28 74,-77.16 74,-68.85"/>
<polygon fill="none" stroke="midnightblue" points="70.5,-95.42 74,-105.42 77.5,-95.42 70.5,-95.42"/>
</g>
</g>
</svg>
