<?xml version="1.0" encoding="UTF-8" standalone="no"?>
<!DOCTYPE svg PUBLIC "-//W3C//DTD SVG 1.1//EN"
 "http://www.w3.org/Graphics/SVG/1.1/DTD/svg11.dtd">
<!-- Generated by graphviz version 2.43.0 (0)
 -->
<!-- Title: sylar::ByteArray::writeStringVint Pages: 1 -->
<svg width="536pt" height="47pt"
 viewBox="0.00 0.00 536.00 47.00" xmlns="http://www.w3.org/2000/svg" xmlns:xlink="http://www.w3.org/1999/xlink">
<g id="graph0" class="graph" transform="scale(1 1) rotate(0) translate(4 43)">
<title>sylar::ByteArray::writeStringVint</title>
<polygon fill="white" stroke="transparent" points="-4,4 -4,-43 532,-43 532,4 -4,4"/>
<!-- Node1 -->
<g id="node1" class="node">
<title>Node1</title>
<g id="a_node1"><a xlink:title="写入std::string类型的数据,用无符号Varint64作为长度类型">
<polygon fill="#bfbfbf" stroke="black" points="0,-19.5 0,-38.5 173,-38.5 173,-19.5 0,-19.5"/>
<text text-anchor="middle" x="86.5" y="-26.5" font-family="Helvetica,sans-Serif" font-size="10.00">sylar::ByteArray::writeStringVint</text>
</a>
</g>
</g>
<!-- Node2 -->
<g id="node2" class="node">
<title>Node2</title>
<g id="a_node2"><a xlink:href="classsylar_1_1ByteArray.html#aa02ff9c7ab29ee312e3ad8043acf28dc" target="_top" xlink:title="写入size长度的数据">
<polygon fill="white" stroke="black" points="403,-19.5 403,-38.5 528,-38.5 528,-19.5 403,-19.5"/>
<text text-anchor="middle" x="465.5" y="-26.5" font-family="Helvetica,sans-Serif" font-size="10.00">sylar::ByteArray::write</text>
</a>
</g>
</g>
<!-- Node1&#45;&gt;Node2 -->
<g id="edge1" class="edge">
<title>Node1&#45;&gt;Node2</title>
<path fill="none" stroke="midnightblue" d="M173.05,-29C239.31,-29 330.06,-29 392.61,-29"/>
<polygon fill="midnightblue" stroke="midnightblue" points="392.78,-32.5 402.78,-29 392.78,-25.5 392.78,-32.5"/>
</g>
<!-- Node3 -->
<g id="node3" class="node">
<title>Node3</title>
<g id="a_node3"><a xlink:href="classsylar_1_1ByteArray.html#aea9565d96c17bb40b36902cb2910549f" target="_top" xlink:title="写入无符号Varint64类型的数据">
<polygon fill="white" stroke="black" points="209,-0.5 209,-19.5 367,-19.5 367,-0.5 209,-0.5"/>
<text text-anchor="middle" x="288" y="-7.5" font-family="Helvetica,sans-Serif" font-size="10.00">sylar::ByteArray::writeUint64</text>
</a>
</g>
</g>
<!-- Node1&#45;&gt;Node3 -->
<g id="edge2" class="edge">
<title>Node1&#45;&gt;Node3</title>
<path fill="none" stroke="midnightblue" d="M173.26,-20.83C181.67,-20.03 190.22,-19.22 198.65,-18.41"/>
<polygon fill="midnightblue" stroke="midnightblue" points="199.24,-21.87 208.87,-17.44 198.58,-14.91 199.24,-21.87"/>
</g>
<!-- Node3&#45;&gt;Node2 -->
<g id="edge3" class="edge">
<title>Node3&#45;&gt;Node2</title>
<path fill="none" stroke="midnightblue" d="M367.25,-18.47C375.77,-19.39 384.4,-20.33 392.83,-21.24"/>
<polygon fill="midnightblue" stroke="midnightblue" points="392.67,-24.74 402.99,-22.34 393.42,-17.78 392.67,-24.74"/>
</g>
</g>
</svg>
