<?xml version="1.0" encoding="UTF-8" standalone="no"?>
<!DOCTYPE svg PUBLIC "-//W3C//DTD SVG 1.1//EN"
 "http://www.w3.org/Graphics/SVG/1.1/DTD/svg11.dtd">
<!-- Generated by graphviz version 2.43.0 (0)
 -->
<!-- Title: sylar::IPv4Address::Create Pages: 1 -->
<svg width="316pt" height="52pt"
 viewBox="0.00 0.00 316.00 51.50" xmlns="http://www.w3.org/2000/svg" xmlns:xlink="http://www.w3.org/1999/xlink">
<g id="graph0" class="graph" transform="scale(1 1) rotate(0) translate(4 47.5)">
<title>sylar::IPv4Address::Create</title>
<polygon fill="white" stroke="transparent" points="-4,4 -4,-47.5 312,-47.5 312,4 -4,4"/>
<!-- Node1 -->
<g id="node1" class="node">
<title>Node1</title>
<g id="a_node1"><a xlink:title="使用点分十进制地址创建IPv4Address">
<polygon fill="#bfbfbf" stroke="black" points="0,-0.5 0,-30.5 107,-30.5 107,-0.5 0,-0.5"/>
<text text-anchor="start" x="8" y="-18.5" font-family="Helvetica,sans-Serif" font-size="10.00">sylar::IPv4Address</text>
<text text-anchor="middle" x="53.5" y="-7.5" font-family="Helvetica,sans-Serif" font-size="10.00">::Create</text>
</a>
</g>
</g>
<!-- Node2 -->
<g id="node2" class="node">
<title>Node2</title>
<g id="a_node2"><a xlink:href="endian_8h.html#ace3c6efe9da95573435daf6bd0509d31" target="_top" xlink:title="只在小端机器上执行byteswap, 在大端机器上什么都不做">
<polygon fill="white" stroke="black" points="143,-6 143,-25 308,-25 308,-6 143,-6"/>
<text text-anchor="middle" x="225.5" y="-13" font-family="Helvetica,sans-Serif" font-size="10.00">sylar::byteswapOnLittleEndian</text>
</a>
</g>
</g>
<!-- Node1&#45;&gt;Node2 -->
<g id="edge1" class="edge">
<title>Node1&#45;&gt;Node2</title>
<path fill="none" stroke="midnightblue" d="M107.36,-15.5C115.48,-15.5 124.07,-15.5 132.75,-15.5"/>
<polygon fill="midnightblue" stroke="midnightblue" points="132.96,-19 142.96,-15.5 132.96,-12 132.96,-19"/>
</g>
<!-- Node2&#45;&gt;Node2 -->
<g id="edge2" class="edge">
<title>Node2&#45;&gt;Node2</title>
<path fill="none" stroke="midnightblue" d="M198.99,-25.26C186.09,-34.07 194.93,-43.5 225.5,-43.5 246.04,-43.5 256.77,-39.24 257.69,-33.77"/>
<polygon fill="midnightblue" stroke="midnightblue" points="260.47,-31.64 252.01,-25.26 254.64,-35.52 260.47,-31.64"/>
</g>
</g>
</svg>
