<?xml version="1.0" encoding="UTF-8" standalone="no"?>
<!DOCTYPE svg PUBLIC "-//W3C//DTD SVG 1.1//EN"
 "http://www.w3.org/Graphics/SVG/1.1/DTD/svg11.dtd">
<!-- Generated by graphviz version 2.43.0 (0)
 -->
<!-- Title: sylar::Socket::connect Pages: 1 -->
<svg width="295pt" height="66pt"
 viewBox="0.00 0.00 295.00 66.00" xmlns="http://www.w3.org/2000/svg" xmlns:xlink="http://www.w3.org/1999/xlink">
<g id="graph0" class="graph" transform="scale(1 1) rotate(0) translate(4 62)">
<title>sylar::Socket::connect</title>
<polygon fill="white" stroke="transparent" points="-4,4 -4,-62 291,-62 291,4 -4,4"/>
<!-- Node1 -->
<g id="node1" class="node">
<title>Node1</title>
<g id="a_node1"><a xlink:title="连接地址">
<polygon fill="#bfbfbf" stroke="black" points="0,-19.5 0,-38.5 123,-38.5 123,-19.5 0,-19.5"/>
<text text-anchor="middle" x="61.5" y="-26.5" font-family="Helvetica,sans-Serif" font-size="10.00">sylar::Socket::connect</text>
</a>
</g>
</g>
<!-- Node2 -->
<g id="node2" class="node">
<title>Node2</title>
<g id="a_node2"><a xlink:href="classsylar_1_1Socket.html#a86d7b7034c6ee0462dbe6af951c078e6" target="_top" xlink:title="是否有效(m_sock != &#45;1)">
<polygon fill="white" stroke="black" points="164.5,-38.5 164.5,-57.5 281.5,-57.5 281.5,-38.5 164.5,-38.5"/>
<text text-anchor="middle" x="223" y="-45.5" font-family="Helvetica,sans-Serif" font-size="10.00">sylar::Socket::isValid</text>
</a>
</g>
</g>
<!-- Node1&#45;&gt;Node2 -->
<g id="edge1" class="edge">
<title>Node1&#45;&gt;Node2</title>
<path fill="none" stroke="midnightblue" d="M123.26,-36.24C133.36,-37.44 143.89,-38.7 154.16,-39.92"/>
<polygon fill="midnightblue" stroke="midnightblue" points="153.96,-43.42 164.3,-41.13 154.79,-36.47 153.96,-43.42"/>
</g>
<!-- Node3 -->
<g id="node3" class="node">
<title>Node3</title>
<g id="a_node3"><a xlink:href="classsylar_1_1Socket.html#a77c251c1e5bb0eceaad8493b90a04b6a" target="_top" xlink:title="创建socket">
<polygon fill="white" stroke="black" points="159,-0.5 159,-19.5 287,-19.5 287,-0.5 159,-0.5"/>
<text text-anchor="middle" x="223" y="-7.5" font-family="Helvetica,sans-Serif" font-size="10.00">sylar::Socket::newSock</text>
</a>
</g>
</g>
<!-- Node1&#45;&gt;Node3 -->
<g id="edge2" class="edge">
<title>Node1&#45;&gt;Node3</title>
<path fill="none" stroke="midnightblue" d="M123.26,-21.76C131.61,-20.77 140.26,-19.74 148.8,-18.72"/>
<polygon fill="midnightblue" stroke="midnightblue" points="149.25,-22.19 158.76,-17.53 148.42,-15.24 149.25,-22.19"/>
</g>
</g>
</svg>
