<?xml version="1.0" encoding="UTF-8" standalone="no"?>
<!DOCTYPE svg PUBLIC "-//W3C//DTD SVG 1.1//EN"
 "http://www.w3.org/Graphics/SVG/1.1/DTD/svg11.dtd">
<!-- Generated by graphviz version 2.43.0 (0)
 -->
<!-- Title: sylar::IOManager::IOManager Pages: 1 -->
<svg width="346pt" height="78pt"
 viewBox="0.00 0.00 346.00 77.50" xmlns="http://www.w3.org/2000/svg" xmlns:xlink="http://www.w3.org/1999/xlink">
<g id="graph0" class="graph" transform="scale(1 1) rotate(0) translate(4 73.5)">
<title>sylar::IOManager::IOManager</title>
<polygon fill="white" stroke="transparent" points="-4,4 -4,-73.5 342,-73.5 342,4 -4,4"/>
<!-- Node1 -->
<g id="node1" class="node">
<title>Node1</title>
<g id="a_node1"><a xlink:title="构造函数">
<polygon fill="#bfbfbf" stroke="black" points="0,-22.5 0,-41.5 159,-41.5 159,-22.5 0,-22.5"/>
<text text-anchor="middle" x="79.5" y="-29.5" font-family="Helvetica,sans-Serif" font-size="10.00">sylar::IOManager::IOManager</text>
</a>
</g>
</g>
<!-- Node2 -->
<g id="node2" class="node">
<title>Node2</title>
<g id="a_node2"><a xlink:href="classsylar_1_1IOManager.html#a887c03f40a7360591ca9b945b7a76714" target="_top" xlink:title="重置socket句柄上下文的容器大小">
<polygon fill="white" stroke="black" points="195,-39 195,-69 338,-69 338,-39 195,-39"/>
<text text-anchor="start" x="203" y="-57" font-family="Helvetica,sans-Serif" font-size="10.00">sylar::IOManager::context</text>
<text text-anchor="middle" x="266.5" y="-46" font-family="Helvetica,sans-Serif" font-size="10.00">Resize</text>
</a>
</g>
</g>
<!-- Node1&#45;&gt;Node2 -->
<g id="edge1" class="edge">
<title>Node1&#45;&gt;Node2</title>
<path fill="none" stroke="midnightblue" d="M159.22,-41.36C167.61,-42.36 176.16,-43.38 184.57,-44.38"/>
<polygon fill="midnightblue" stroke="midnightblue" points="184.41,-47.88 194.76,-45.59 185.24,-40.93 184.41,-47.88"/>
</g>
<!-- Node3 -->
<g id="node3" class="node">
<title>Node3</title>
<g id="a_node3"><a xlink:href="classsylar_1_1Scheduler.html#a028c935d19b263bd0c49c5f65201e8b5" target="_top" xlink:title="启动调度器">
<polygon fill="white" stroke="black" points="205,-0.5 205,-19.5 328,-19.5 328,-0.5 205,-0.5"/>
<text text-anchor="middle" x="266.5" y="-7.5" font-family="Helvetica,sans-Serif" font-size="10.00">sylar::Scheduler::start</text>
</a>
</g>
</g>
<!-- Node1&#45;&gt;Node3 -->
<g id="edge2" class="edge">
<title>Node1&#45;&gt;Node3</title>
<path fill="none" stroke="midnightblue" d="M159.22,-22.64C171.01,-21.24 183.11,-19.8 194.72,-18.42"/>
<polygon fill="midnightblue" stroke="midnightblue" points="195.26,-21.88 204.78,-17.22 194.44,-14.93 195.26,-21.88"/>
</g>
</g>
</svg>
