<?xml version="1.0" encoding="UTF-8" standalone="no"?>
<!DOCTYPE svg PUBLIC "-//W3C//DTD SVG 1.1//EN"
 "http://www.w3.org/Graphics/SVG/1.1/DTD/svg11.dtd">
<!-- Generated by graphviz version 2.43.0 (0)
 -->
<!-- Title: sylar::Fiber Pages: 1 -->
<svg width="123pt" height="292pt"
 viewBox="0.00 0.00 123.00 292.00" xmlns="http://www.w3.org/2000/svg" xmlns:xlink="http://www.w3.org/1999/xlink">
<g id="graph0" class="graph" transform="scale(1 1) rotate(0) translate(4 288)">
<title>sylar::Fiber</title>
<polygon fill="white" stroke="transparent" points="-4,4 -4,-288 119,-288 119,4 -4,4"/>
<!-- Node1 -->
<g id="node1" class="node">
<title>Node1</title>
<g id="a_node1"><a xlink:title="协程类">
<polygon fill="#bfbfbf" stroke="black" points="13.5,-0.5 13.5,-178.5 101.5,-178.5 101.5,-0.5 13.5,-0.5"/>
<text text-anchor="middle" x="57.5" y="-166.5" font-family="Helvetica,sans-Serif" font-size="10.00">sylar::Fiber</text>
<polyline fill="none" stroke="black" points="13.5,-159.5 101.5,-159.5 "/>
<text text-anchor="middle" x="57.5" y="-147.5" font-family="Helvetica,sans-Serif" font-size="10.00"> </text>
<polyline fill="none" stroke="black" points="13.5,-140.5 101.5,-140.5 "/>
<text text-anchor="start" x="21.5" y="-128.5" font-family="Helvetica,sans-Serif" font-size="10.00">+ Fiber()</text>
<text text-anchor="start" x="21.5" y="-117.5" font-family="Helvetica,sans-Serif" font-size="10.00">+ ~Fiber()</text>
<text text-anchor="start" x="21.5" y="-106.5" font-family="Helvetica,sans-Serif" font-size="10.00">+ reset()</text>
<text text-anchor="start" x="21.5" y="-95.5" font-family="Helvetica,sans-Serif" font-size="10.00">+ resume()</text>
<text text-anchor="start" x="21.5" y="-84.5" font-family="Helvetica,sans-Serif" font-size="10.00">+ yield()</text>
<text text-anchor="start" x="21.5" y="-73.5" font-family="Helvetica,sans-Serif" font-size="10.00">+ getId()</text>
<text text-anchor="start" x="21.5" y="-62.5" font-family="Helvetica,sans-Serif" font-size="10.00">+ getState()</text>
<text text-anchor="start" x="21.5" y="-51.5" font-family="Helvetica,sans-Serif" font-size="10.00">+ SetThis()</text>
<text text-anchor="start" x="21.5" y="-40.5" font-family="Helvetica,sans-Serif" font-size="10.00">+ GetThis()</text>
<text text-anchor="start" x="21.5" y="-29.5" font-family="Helvetica,sans-Serif" font-size="10.00">+ TotalFibers()</text>
<text text-anchor="start" x="21.5" y="-18.5" font-family="Helvetica,sans-Serif" font-size="10.00">+ MainFunc()</text>
<text text-anchor="start" x="21.5" y="-7.5" font-family="Helvetica,sans-Serif" font-size="10.00">+ GetFiberId()</text>
</a>
</g>
</g>
<!-- Node2 -->
<g id="node2" class="node">
<title>Node2</title>
<g id="a_node2"><a xlink:title=" ">
<polygon fill="white" stroke="#bfbfbf" points="0,-215.5 0,-283.5 115,-283.5 115,-215.5 0,-215.5"/>
<text text-anchor="start" x="8" y="-271.5" font-family="Helvetica,sans-Serif" font-size="10.00">std::enable_shared</text>
<text text-anchor="middle" x="57.5" y="-260.5" font-family="Helvetica,sans-Serif" font-size="10.00">_from_this&lt; Fiber &gt;</text>
<polyline fill="none" stroke="#bfbfbf" points="0,-253.5 115,-253.5 "/>
<text text-anchor="middle" x="57.5" y="-241.5" font-family="Helvetica,sans-Serif" font-size="10.00"> </text>
<polyline fill="none" stroke="#bfbfbf" points="0,-234.5 115,-234.5 "/>
<text text-anchor="middle" x="57.5" y="-222.5" font-family="Helvetica,sans-Serif" font-size="10.00"> </text>
</a>
</g>
</g>
<!-- Node2&#45;&gt;Node1 -->
<g id="edge1" class="edge">
<title>Node2&#45;&gt;Node1</title>
<path fill="none" stroke="midnightblue" d="M57.5,-205.19C57.5,-196.83 57.5,-187.8 57.5,-178.59"/>
<polygon fill="none" stroke="midnightblue" points="54,-205.38 57.5,-215.38 61,-205.38 54,-205.38"/>
</g>
</g>
</svg>
