<?xml version="1.0" encoding="UTF-8" standalone="no"?>
<!DOCTYPE svg PUBLIC "-//W3C//DTD SVG 1.1//EN"
 "http://www.w3.org/Graphics/SVG/1.1/DTD/svg11.dtd">
<!-- Generated by graphviz version 2.43.0 (0)
 -->
<!-- Title: sylar::ByteArray::readStringF64 Pages: 1 -->
<svg width="568pt" height="66pt"
 viewBox="0.00 0.00 568.00 66.00" xmlns="http://www.w3.org/2000/svg" xmlns:xlink="http://www.w3.org/1999/xlink">
<g id="graph0" class="graph" transform="scale(1 1) rotate(0) translate(4 62)">
<title>sylar::ByteArray::readStringF64</title>
<polygon fill="white" stroke="transparent" points="-4,4 -4,-62 564,-62 564,4 -4,4"/>
<!-- Node1 -->
<g id="node1" class="node">
<title>Node1</title>
<g id="a_node1"><a xlink:title="读取std::string类型的数据,用uint64_t作为长度">
<polygon fill="#bfbfbf" stroke="black" points="0,-19.5 0,-38.5 169,-38.5 169,-19.5 0,-19.5"/>
<text text-anchor="middle" x="84.5" y="-26.5" font-family="Helvetica,sans-Serif" font-size="10.00">sylar::ByteArray::readStringF64</text>
</a>
</g>
</g>
<!-- Node2 -->
<g id="node2" class="node">
<title>Node2</title>
<g id="a_node2"><a xlink:href="classsylar_1_1ByteArray.html#add0a86b9e7ac29fe11e9a9efc3f25699" target="_top" xlink:title="读取size长度的数据">
<polygon fill="white" stroke="black" points="223,-38.5 223,-57.5 345,-57.5 345,-38.5 223,-38.5"/>
<text text-anchor="middle" x="284" y="-45.5" font-family="Helvetica,sans-Serif" font-size="10.00">sylar::ByteArray::read</text>
</a>
</g>
</g>
<!-- Node1&#45;&gt;Node2 -->
<g id="edge1" class="edge">
<title>Node1&#45;&gt;Node2</title>
<path fill="none" stroke="midnightblue" d="M169.26,-37.06C183.72,-38.45 198.63,-39.88 212.69,-41.24"/>
<polygon fill="midnightblue" stroke="midnightblue" points="212.48,-44.73 222.77,-42.21 213.15,-37.76 212.48,-44.73"/>
</g>
<!-- Node4 -->
<g id="node4" class="node">
<title>Node4</title>
<g id="a_node4"><a xlink:href="classsylar_1_1ByteArray.html#aa9652f213ed9f4ffd1965fbdc444a9d9" target="_top" xlink:title="读取uint64_t类型的数据">
<polygon fill="white" stroke="black" points="205,-0.5 205,-19.5 363,-19.5 363,-0.5 205,-0.5"/>
<text text-anchor="middle" x="284" y="-7.5" font-family="Helvetica,sans-Serif" font-size="10.00">sylar::ByteArray::readFuint64</text>
</a>
</g>
</g>
<!-- Node1&#45;&gt;Node4 -->
<g id="edge3" class="edge">
<title>Node1&#45;&gt;Node4</title>
<path fill="none" stroke="midnightblue" d="M169.26,-20.94C177.63,-20.14 186.15,-19.32 194.56,-18.51"/>
<polygon fill="midnightblue" stroke="midnightblue" points="195.15,-21.97 204.77,-17.53 194.48,-15 195.15,-21.97"/>
</g>
<!-- Node3 -->
<g id="node3" class="node">
<title>Node3</title>
<g id="a_node3"><a xlink:href="classsylar_1_1ByteArray.html#a763d792f91cfd84072692ac0cdef8efc" target="_top" xlink:title="返回可读取数据大小">
<polygon fill="white" stroke="black" points="399,-38.5 399,-57.5 560,-57.5 560,-38.5 399,-38.5"/>
<text text-anchor="middle" x="479.5" y="-45.5" font-family="Helvetica,sans-Serif" font-size="10.00">sylar::ByteArray::getReadSize</text>
</a>
</g>
</g>
<!-- Node2&#45;&gt;Node3 -->
<g id="edge2" class="edge">
<title>Node2&#45;&gt;Node3</title>
<path fill="none" stroke="midnightblue" d="M345.16,-48C358.96,-48 373.91,-48 388.65,-48"/>
<polygon fill="midnightblue" stroke="midnightblue" points="388.8,-51.5 398.8,-48 388.8,-44.5 388.8,-51.5"/>
</g>
</g>
</svg>
