<?xml version="1.0" encoding="UTF-8" standalone="no"?>
<!DOCTYPE svg PUBLIC "-//W3C//DTD SVG 1.1//EN"
 "http://www.w3.org/Graphics/SVG/1.1/DTD/svg11.dtd">
<!-- Generated by graphviz version 2.43.0 (0)
 -->
<!-- Title: sylar::ConfigVar&lt; T, FromStr, ToStr &gt; Pages: 1 -->
<svg width="125pt" height="347pt"
 viewBox="0.00 0.00 125.00 347.00" xmlns="http://www.w3.org/2000/svg" xmlns:xlink="http://www.w3.org/1999/xlink">
<g id="graph0" class="graph" transform="scale(1 1) rotate(0) translate(4 343)">
<title>sylar::ConfigVar&lt; T, FromStr, ToStr &gt;</title>
<polygon fill="white" stroke="transparent" points="-4,4 -4,-343 121,-343 121,4 -4,4"/>
<!-- Node1 -->
<g id="node1" class="node">
<title>Node1</title>
<g id="a_node1"><a xlink:title="配置参数模板子类,保存对应类型的参数值">
<polygon fill="#bfbfbf" stroke="black" points="2,-0.5 2,-167.5 115,-167.5 115,-0.5 2,-0.5"/>
<text text-anchor="start" x="10" y="-155.5" font-family="Helvetica,sans-Serif" font-size="10.00">sylar::ConfigVar&lt; T,</text>
<text text-anchor="middle" x="58.5" y="-144.5" font-family="Helvetica,sans-Serif" font-size="10.00"> FromStr, ToStr &gt;</text>
<polyline fill="none" stroke="black" points="2,-137.5 115,-137.5 "/>
<text text-anchor="middle" x="58.5" y="-125.5" font-family="Helvetica,sans-Serif" font-size="10.00"> </text>
<polyline fill="none" stroke="black" points="2,-118.5 115,-118.5 "/>
<text text-anchor="start" x="10" y="-106.5" font-family="Helvetica,sans-Serif" font-size="10.00">+ ConfigVar()</text>
<text text-anchor="start" x="10" y="-95.5" font-family="Helvetica,sans-Serif" font-size="10.00">+ toString()</text>
<text text-anchor="start" x="10" y="-84.5" font-family="Helvetica,sans-Serif" font-size="10.00">+ fromString()</text>
<text text-anchor="start" x="10" y="-73.5" font-family="Helvetica,sans-Serif" font-size="10.00">+ getValue()</text>
<text text-anchor="start" x="10" y="-62.5" font-family="Helvetica,sans-Serif" font-size="10.00">+ setValue()</text>
<text text-anchor="start" x="10" y="-51.5" font-family="Helvetica,sans-Serif" font-size="10.00">+ getTypeName()</text>
<text text-anchor="start" x="10" y="-40.5" font-family="Helvetica,sans-Serif" font-size="10.00">+ addListener()</text>
<text text-anchor="start" x="10" y="-29.5" font-family="Helvetica,sans-Serif" font-size="10.00">+ delListener()</text>
<text text-anchor="start" x="10" y="-18.5" font-family="Helvetica,sans-Serif" font-size="10.00">+ getListener()</text>
<text text-anchor="start" x="10" y="-7.5" font-family="Helvetica,sans-Serif" font-size="10.00">+ clearListener()</text>
</a>
</g>
</g>
<!-- Node2 -->
<g id="node2" class="node">
<title>Node2</title>
<g id="a_node2"><a xlink:href="classsylar_1_1ConfigVarBase.html" target="_top" xlink:title="配置变量的基类">
<polygon fill="white" stroke="black" points="0,-204.5 0,-338.5 117,-338.5 117,-204.5 0,-204.5"/>
<text text-anchor="middle" x="58.5" y="-326.5" font-family="Helvetica,sans-Serif" font-size="10.00">sylar::ConfigVarBase</text>
<polyline fill="none" stroke="black" points="0,-319.5 117,-319.5 "/>
<text text-anchor="start" x="8" y="-307.5" font-family="Helvetica,sans-Serif" font-size="10.00"># m_name</text>
<text text-anchor="start" x="8" y="-296.5" font-family="Helvetica,sans-Serif" font-size="10.00"># m_description</text>
<polyline fill="none" stroke="black" points="0,-289.5 117,-289.5 "/>
<text text-anchor="start" x="8" y="-277.5" font-family="Helvetica,sans-Serif" font-size="10.00">+ ConfigVarBase()</text>
<text text-anchor="start" x="8" y="-266.5" font-family="Helvetica,sans-Serif" font-size="10.00">+ ~ConfigVarBase()</text>
<text text-anchor="start" x="8" y="-255.5" font-family="Helvetica,sans-Serif" font-size="10.00">+ getName()</text>
<text text-anchor="start" x="8" y="-244.5" font-family="Helvetica,sans-Serif" font-size="10.00">+ getDescription()</text>
<text text-anchor="start" x="8" y="-233.5" font-family="Helvetica,sans-Serif" font-size="10.00">+ toString()</text>
<text text-anchor="start" x="8" y="-222.5" font-family="Helvetica,sans-Serif" font-size="10.00">+ fromString()</text>
<text text-anchor="start" x="8" y="-211.5" font-family="Helvetica,sans-Serif" font-size="10.00">+ getTypeName()</text>
</a>
</g>
</g>
<!-- Node2&#45;&gt;Node1 -->
<g id="edge1" class="edge">
<title>Node2&#45;&gt;Node1</title>
<path fill="none" stroke="midnightblue" d="M58.5,-194.18C58.5,-185.44 58.5,-176.51 58.5,-167.7"/>
<polygon fill="none" stroke="midnightblue" points="55,-194.32 58.5,-204.32 62,-194.32 55,-194.32"/>
</g>
</g>
</svg>
