<?xml version="1.0" encoding="UTF-8" standalone="no"?>
<!DOCTYPE svg PUBLIC "-//W3C//DTD SVG 1.1//EN"
 "http://www.w3.org/Graphics/SVG/1.1/DTD/svg11.dtd">
<!-- Generated by graphviz version 2.43.0 (0)
 -->
<!-- Title: sylar::http::HttpRequest::checkGetCookieAs Pages: 1 -->
<svg width="479pt" height="96pt"
 viewBox="0.00 0.00 479.00 95.50" xmlns="http://www.w3.org/2000/svg" xmlns:xlink="http://www.w3.org/1999/xlink">
<g id="graph0" class="graph" transform="scale(1 1) rotate(0) translate(4 91.5)">
<title>sylar::http::HttpRequest::checkGetCookieAs</title>
<polygon fill="white" stroke="transparent" points="-4,4 -4,-91.5 475,-91.5 475,4 -4,4"/>
<!-- Node1 -->
<g id="node1" class="node">
<title>Node1</title>
<g id="a_node1"><a xlink:title="检查并获取HTTP请求的Cookie参数">
<polygon fill="#bfbfbf" stroke="black" points="0,-22.5 0,-52.5 133,-52.5 133,-22.5 0,-22.5"/>
<text text-anchor="start" x="8" y="-40.5" font-family="Helvetica,sans-Serif" font-size="10.00">sylar::http::HttpRequest</text>
<text text-anchor="middle" x="66.5" y="-29.5" font-family="Helvetica,sans-Serif" font-size="10.00">::checkGetCookieAs</text>
</a>
</g>
</g>
<!-- Node2 -->
<g id="node2" class="node">
<title>Node2</title>
<g id="a_node2"><a xlink:href="http_8h.html#ae706fa797ef4b8066246dccc0a905f46" target="_top" xlink:title="获取Map中的key值,并转成对应类型,返回是否成功">
<polygon fill="white" stroke="black" points="170.5,-50 170.5,-69 300.5,-69 300.5,-50 170.5,-50"/>
<text text-anchor="middle" x="235.5" y="-57" font-family="Helvetica,sans-Serif" font-size="10.00">sylar::http::checkGetAs</text>
</a>
</g>
</g>
<!-- Node1&#45;&gt;Node2 -->
<g id="edge1" class="edge">
<title>Node1&#45;&gt;Node2</title>
<path fill="none" stroke="midnightblue" d="M133.02,-46.13C141.92,-47.3 151.1,-48.51 160.14,-49.7"/>
<polygon fill="midnightblue" stroke="midnightblue" points="159.89,-53.2 170.26,-51.04 160.8,-46.26 159.89,-53.2"/>
</g>
<!-- Node3 -->
<g id="node3" class="node">
<title>Node3</title>
<g id="a_node3"><a xlink:href="classsylar_1_1http_1_1HttpRequest.html#a817303153d3154a04a92bd353f2d35cf" target="_top" xlink:title="提取请求中的cookies">
<polygon fill="white" stroke="black" points="169,-0.5 169,-30.5 302,-30.5 302,-0.5 169,-0.5"/>
<text text-anchor="start" x="177" y="-18.5" font-family="Helvetica,sans-Serif" font-size="10.00">sylar::http::HttpRequest</text>
<text text-anchor="middle" x="235.5" y="-7.5" font-family="Helvetica,sans-Serif" font-size="10.00">::initCookies</text>
</a>
</g>
</g>
<!-- Node1&#45;&gt;Node3 -->
<g id="edge3" class="edge">
<title>Node1&#45;&gt;Node3</title>
<path fill="none" stroke="midnightblue" d="M133.02,-28.87C141.5,-27.75 150.23,-26.6 158.85,-25.47"/>
<polygon fill="midnightblue" stroke="midnightblue" points="159.43,-28.92 168.89,-24.14 158.52,-21.98 159.43,-28.92"/>
</g>
<!-- Node2&#45;&gt;Node2 -->
<g id="edge2" class="edge">
<title>Node2&#45;&gt;Node2</title>
<path fill="none" stroke="midnightblue" d="M209.61,-69.26C197.01,-78.07 205.64,-87.5 235.5,-87.5 255.56,-87.5 266.04,-83.24 266.94,-77.77"/>
<polygon fill="midnightblue" stroke="midnightblue" points="269.78,-75.73 261.39,-69.26 263.92,-79.55 269.78,-75.73"/>
</g>
<!-- Node4 -->
<g id="node4" class="node">
<title>Node4</title>
<g id="a_node4"><a xlink:href="classsylar_1_1http_1_1HttpRequest.html#a30010fd520c46200b7ecbe2f0d2349fd" target="_top" xlink:title="获取HTTP请求的头部参数">
<polygon fill="white" stroke="black" points="338,-0.5 338,-30.5 471,-30.5 471,-0.5 338,-0.5"/>
<text text-anchor="start" x="346" y="-18.5" font-family="Helvetica,sans-Serif" font-size="10.00">sylar::http::HttpRequest</text>
<text text-anchor="middle" x="404.5" y="-7.5" font-family="Helvetica,sans-Serif" font-size="10.00">::getHeader</text>
</a>
</g>
</g>
<!-- Node3&#45;&gt;Node4 -->
<g id="edge4" class="edge">
<title>Node3&#45;&gt;Node4</title>
<path fill="none" stroke="midnightblue" d="M302.02,-15.5C310.5,-15.5 319.23,-15.5 327.85,-15.5"/>
<polygon fill="midnightblue" stroke="midnightblue" points="327.89,-19 337.89,-15.5 327.89,-12 327.89,-19"/>
</g>
</g>
</svg>
