<?xml version="1.0" encoding="UTF-8" standalone="no"?>
<!DOCTYPE svg PUBLIC "-//W3C//DTD SVG 1.1//EN"
 "http://www.w3.org/Graphics/SVG/1.1/DTD/svg11.dtd">
<!-- Generated by graphviz version 2.43.0 (0)
 -->
<!-- Title: sylar::IPv4Address::broadcastAddress Pages: 1 -->
<svg width="319pt" height="96pt"
 viewBox="0.00 0.00 319.00 95.50" xmlns="http://www.w3.org/2000/svg" xmlns:xlink="http://www.w3.org/1999/xlink">
<g id="graph0" class="graph" transform="scale(1 1) rotate(0) translate(4 91.5)">
<title>sylar::IPv4Address::broadcastAddress</title>
<polygon fill="white" stroke="transparent" points="-4,4 -4,-91.5 315,-91.5 315,4 -4,4"/>
<!-- Node1 -->
<g id="node1" class="node">
<title>Node1</title>
<g id="a_node1"><a xlink:title="获取该地址的广播地址">
<polygon fill="#bfbfbf" stroke="black" points="0,-22.5 0,-52.5 110,-52.5 110,-22.5 0,-22.5"/>
<text text-anchor="start" x="8" y="-40.5" font-family="Helvetica,sans-Serif" font-size="10.00">sylar::IPv4Address</text>
<text text-anchor="middle" x="55" y="-29.5" font-family="Helvetica,sans-Serif" font-size="10.00">::broadcastAddress</text>
</a>
</g>
</g>
<!-- Node2 -->
<g id="node2" class="node">
<title>Node2</title>
<g id="a_node2"><a xlink:href="endian_8h.html#ace3c6efe9da95573435daf6bd0509d31" target="_top" xlink:title="只在小端机器上执行byteswap, 在大端机器上什么都不做">
<polygon fill="white" stroke="black" points="146,-50 146,-69 311,-69 311,-50 146,-50"/>
<text text-anchor="middle" x="228.5" y="-57" font-family="Helvetica,sans-Serif" font-size="10.00">sylar::byteswapOnLittleEndian</text>
</a>
</g>
</g>
<!-- Node1&#45;&gt;Node2 -->
<g id="edge1" class="edge">
<title>Node1&#45;&gt;Node2</title>
<path fill="none" stroke="midnightblue" d="M110.26,-44.46C120.71,-45.8 131.87,-47.23 143.01,-48.66"/>
<polygon fill="midnightblue" stroke="midnightblue" points="142.85,-52.17 153.21,-49.97 143.74,-45.23 142.85,-52.17"/>
</g>
<!-- Node3 -->
<g id="node3" class="node">
<title>Node3</title>
<g id="a_node3"><a xlink:href="classsylar_1_1IPv4Address.html#a1f9d7d3be20b19bf491b5895e9595599" target="_top" xlink:title="通过sockaddr_in构造IPv4Address">
<polygon fill="white" stroke="black" points="175,-0.5 175,-30.5 282,-30.5 282,-0.5 175,-0.5"/>
<text text-anchor="start" x="183" y="-18.5" font-family="Helvetica,sans-Serif" font-size="10.00">sylar::IPv4Address</text>
<text text-anchor="middle" x="228.5" y="-7.5" font-family="Helvetica,sans-Serif" font-size="10.00">::IPv4Address</text>
</a>
</g>
</g>
<!-- Node1&#45;&gt;Node3 -->
<g id="edge3" class="edge">
<title>Node1&#45;&gt;Node3</title>
<path fill="none" stroke="midnightblue" d="M110.26,-30.54C127.49,-28.33 146.69,-25.87 164.48,-23.58"/>
<polygon fill="midnightblue" stroke="midnightblue" points="165.29,-27.01 174.76,-22.27 164.4,-20.07 165.29,-27.01"/>
</g>
<!-- Node2&#45;&gt;Node2 -->
<g id="edge2" class="edge">
<title>Node2&#45;&gt;Node2</title>
<path fill="none" stroke="midnightblue" d="M201.99,-69.26C189.09,-78.07 197.93,-87.5 228.5,-87.5 249.04,-87.5 259.77,-83.24 260.69,-77.77"/>
<polygon fill="midnightblue" stroke="midnightblue" points="263.47,-75.64 255.01,-69.26 257.64,-79.52 263.47,-75.64"/>
</g>
</g>
</svg>
