<?xml version="1.0" encoding="UTF-8" standalone="no"?>
<!DOCTYPE svg PUBLIC "-//W3C//DTD SVG 1.1//EN"
 "http://www.w3.org/Graphics/SVG/1.1/DTD/svg11.dtd">
<!-- Generated by graphviz version 2.43.0 (0)
 -->
<!-- Title: sylar::Logger::Logger Pages: 1 -->
<svg width="280pt" height="46pt"
 viewBox="0.00 0.00 280.00 46.00" xmlns="http://www.w3.org/2000/svg" xmlns:xlink="http://www.w3.org/1999/xlink">
<g id="graph0" class="graph" transform="scale(1 1) rotate(0) translate(4 42)">
<title>sylar::Logger::Logger</title>
<polygon fill="white" stroke="transparent" points="-4,4 -4,-42 276,-42 276,4 -4,4"/>
<!-- Node1 -->
<g id="node1" class="node">
<title>Node1</title>
<g id="a_node1"><a xlink:title="构造函数">
<polygon fill="#bfbfbf" stroke="black" points="0,-0.5 0,-19.5 119,-19.5 119,-0.5 0,-0.5"/>
<text text-anchor="middle" x="59.5" y="-7.5" font-family="Helvetica,sans-Serif" font-size="10.00">sylar::Logger::Logger</text>
</a>
</g>
</g>
<!-- Node2 -->
<g id="node2" class="node">
<title>Node2</title>
<g id="a_node2"><a xlink:href="util_8cpp.html#a3a496fbdbd27f04cba087a64add0306c" target="_top" xlink:title="获取当前启动的毫秒数，参考clock_gettime(2)，使用CLOCK_MONOTONIC_RAW">
<polygon fill="white" stroke="black" points="155,-0.5 155,-19.5 272,-19.5 272,-0.5 155,-0.5"/>
<text text-anchor="middle" x="213.5" y="-7.5" font-family="Helvetica,sans-Serif" font-size="10.00">sylar::GetElapsedMS</text>
</a>
</g>
</g>
<!-- Node1&#45;&gt;Node2 -->
<g id="edge1" class="edge">
<title>Node1&#45;&gt;Node2</title>
<path fill="none" stroke="midnightblue" d="M119.27,-10C127.58,-10 136.19,-10 144.66,-10"/>
<polygon fill="midnightblue" stroke="midnightblue" points="144.89,-13.5 154.89,-10 144.89,-6.5 144.89,-13.5"/>
</g>
<!-- Node2&#45;&gt;Node2 -->
<g id="edge2" class="edge">
<title>Node2&#45;&gt;Node2</title>
<path fill="none" stroke="midnightblue" d="M189.76,-19.76C178.22,-28.57 186.13,-38 213.5,-38 231.46,-38 241.04,-33.94 242.25,-28.65"/>
<polygon fill="midnightblue" stroke="midnightblue" points="245.19,-26.75 237.24,-19.76 239.09,-30.19 245.19,-26.75"/>
</g>
</g>
</svg>
