<?xml version="1.0" encoding="UTF-8" standalone="no"?>
<!DOCTYPE svg PUBLIC "-//W3C//DTD SVG 1.1//EN"
 "http://www.w3.org/Graphics/SVG/1.1/DTD/svg11.dtd">
<!-- Generated by graphviz version 2.43.0 (0)
 -->
<!-- Title: sylar::IPv4Address Pages: 1 -->
<svg width="154pt" height="595pt"
 viewBox="0.00 0.00 154.00 595.00" xmlns="http://www.w3.org/2000/svg" xmlns:xlink="http://www.w3.org/1999/xlink">
<g id="graph0" class="graph" transform="scale(1 1) rotate(0) translate(4 591)">
<title>sylar::IPv4Address</title>
<polygon fill="white" stroke="transparent" points="-4,4 -4,-591 150,-591 150,4 -4,4"/>
<!-- Node1 -->
<g id="node1" class="node">
<title>Node1</title>
<g id="a_node1"><a xlink:title="IPv4地址">
<polygon fill="#bfbfbf" stroke="black" points="12,-0.5 12,-178.5 134,-178.5 134,-0.5 12,-0.5"/>
<text text-anchor="middle" x="73" y="-166.5" font-family="Helvetica,sans-Serif" font-size="10.00">sylar::IPv4Address</text>
<polyline fill="none" stroke="black" points="12,-159.5 134,-159.5 "/>
<text text-anchor="middle" x="73" y="-147.5" font-family="Helvetica,sans-Serif" font-size="10.00"> </text>
<polyline fill="none" stroke="black" points="12,-140.5 134,-140.5 "/>
<text text-anchor="start" x="20" y="-128.5" font-family="Helvetica,sans-Serif" font-size="10.00">+ IPv4Address()</text>
<text text-anchor="start" x="20" y="-117.5" font-family="Helvetica,sans-Serif" font-size="10.00">+ IPv4Address()</text>
<text text-anchor="start" x="20" y="-106.5" font-family="Helvetica,sans-Serif" font-size="10.00">+ getAddr()</text>
<text text-anchor="start" x="20" y="-95.5" font-family="Helvetica,sans-Serif" font-size="10.00">+ getAddr()</text>
<text text-anchor="start" x="20" y="-84.5" font-family="Helvetica,sans-Serif" font-size="10.00">+ getAddrLen()</text>
<text text-anchor="start" x="20" y="-73.5" font-family="Helvetica,sans-Serif" font-size="10.00">+ insert()</text>
<text text-anchor="start" x="20" y="-62.5" font-family="Helvetica,sans-Serif" font-size="10.00">+ broadcastAddress()</text>
<text text-anchor="start" x="20" y="-51.5" font-family="Helvetica,sans-Serif" font-size="10.00">+ networkAddress()</text>
<text text-anchor="start" x="20" y="-40.5" font-family="Helvetica,sans-Serif" font-size="10.00">+ subnetMask()</text>
<text text-anchor="start" x="20" y="-29.5" font-family="Helvetica,sans-Serif" font-size="10.00">+ getPort()</text>
<text text-anchor="start" x="20" y="-18.5" font-family="Helvetica,sans-Serif" font-size="10.00">+ setPort()</text>
<text text-anchor="start" x="20" y="-7.5" font-family="Helvetica,sans-Serif" font-size="10.00">+ Create()</text>
</a>
</g>
</g>
<!-- Node2 -->
<g id="node2" class="node">
<title>Node2</title>
<g id="a_node2"><a xlink:href="classsylar_1_1IPAddress.html" target="_top" xlink:title="IP地址的基类">
<polygon fill="white" stroke="black" points="12,-215.5 12,-327.5 134,-327.5 134,-215.5 12,-215.5"/>
<text text-anchor="middle" x="73" y="-315.5" font-family="Helvetica,sans-Serif" font-size="10.00">sylar::IPAddress</text>
<polyline fill="none" stroke="black" points="12,-308.5 134,-308.5 "/>
<text text-anchor="middle" x="73" y="-296.5" font-family="Helvetica,sans-Serif" font-size="10.00"> </text>
<polyline fill="none" stroke="black" points="12,-289.5 134,-289.5 "/>
<text text-anchor="start" x="20" y="-277.5" font-family="Helvetica,sans-Serif" font-size="10.00">+ broadcastAddress()</text>
<text text-anchor="start" x="20" y="-266.5" font-family="Helvetica,sans-Serif" font-size="10.00">+ networkAddress()</text>
<text text-anchor="start" x="20" y="-255.5" font-family="Helvetica,sans-Serif" font-size="10.00">+ subnetMask()</text>
<text text-anchor="start" x="20" y="-244.5" font-family="Helvetica,sans-Serif" font-size="10.00">+ getPort()</text>
<text text-anchor="start" x="20" y="-233.5" font-family="Helvetica,sans-Serif" font-size="10.00">+ setPort()</text>
<text text-anchor="start" x="20" y="-222.5" font-family="Helvetica,sans-Serif" font-size="10.00">+ Create()</text>
</a>
</g>
</g>
<!-- Node2&#45;&gt;Node1 -->
<g id="edge1" class="edge">
<title>Node2&#45;&gt;Node1</title>
<path fill="none" stroke="midnightblue" d="M73,-204.79C73,-196.25 73,-187.4 73,-178.57"/>
<polygon fill="none" stroke="midnightblue" points="69.5,-205.03 73,-215.03 76.5,-205.03 69.5,-205.03"/>
</g>
<!-- Node3 -->
<g id="node3" class="node">
<title>Node3</title>
<g id="a_node3"><a xlink:href="classsylar_1_1Address.html" target="_top" xlink:title="网络地址的基类,抽象类">
<polygon fill="white" stroke="black" points="0,-364.5 0,-586.5 146,-586.5 146,-364.5 0,-364.5"/>
<text text-anchor="middle" x="73" y="-574.5" font-family="Helvetica,sans-Serif" font-size="10.00">sylar::Address</text>
<polyline fill="none" stroke="black" points="0,-567.5 146,-567.5 "/>
<text text-anchor="middle" x="73" y="-555.5" font-family="Helvetica,sans-Serif" font-size="10.00"> </text>
<polyline fill="none" stroke="black" points="0,-548.5 146,-548.5 "/>
<text text-anchor="start" x="8" y="-536.5" font-family="Helvetica,sans-Serif" font-size="10.00">+ ~Address()</text>
<text text-anchor="start" x="8" y="-525.5" font-family="Helvetica,sans-Serif" font-size="10.00">+ getFamily()</text>
<text text-anchor="start" x="8" y="-514.5" font-family="Helvetica,sans-Serif" font-size="10.00">+ getAddr()</text>
<text text-anchor="start" x="8" y="-503.5" font-family="Helvetica,sans-Serif" font-size="10.00">+ getAddr()</text>
<text text-anchor="start" x="8" y="-492.5" font-family="Helvetica,sans-Serif" font-size="10.00">+ getAddrLen()</text>
<text text-anchor="start" x="8" y="-481.5" font-family="Helvetica,sans-Serif" font-size="10.00">+ insert()</text>
<text text-anchor="start" x="8" y="-470.5" font-family="Helvetica,sans-Serif" font-size="10.00">+ toString()</text>
<text text-anchor="start" x="8" y="-459.5" font-family="Helvetica,sans-Serif" font-size="10.00">+ operator&lt;()</text>
<text text-anchor="start" x="8" y="-448.5" font-family="Helvetica,sans-Serif" font-size="10.00">+ operator==()</text>
<text text-anchor="start" x="8" y="-437.5" font-family="Helvetica,sans-Serif" font-size="10.00">+ operator!=()</text>
<text text-anchor="start" x="8" y="-426.5" font-family="Helvetica,sans-Serif" font-size="10.00">+ Create()</text>
<text text-anchor="start" x="8" y="-415.5" font-family="Helvetica,sans-Serif" font-size="10.00">+ Lookup()</text>
<text text-anchor="start" x="8" y="-404.5" font-family="Helvetica,sans-Serif" font-size="10.00">+ LookupAny()</text>
<text text-anchor="start" x="8" y="-393.5" font-family="Helvetica,sans-Serif" font-size="10.00">+ LookupAnyIPAddress()</text>
<text text-anchor="start" x="8" y="-382.5" font-family="Helvetica,sans-Serif" font-size="10.00">+ GetInterfaceAddresses()</text>
<text text-anchor="start" x="8" y="-371.5" font-family="Helvetica,sans-Serif" font-size="10.00">+ GetInterfaceAddresses()</text>
</a>
</g>
</g>
<!-- Node3&#45;&gt;Node2 -->
<g id="edge2" class="edge">
<title>Node3&#45;&gt;Node2</title>
<path fill="none" stroke="midnightblue" d="M73,-354.24C73,-345.01 73,-335.99 73,-327.53"/>
<polygon fill="none" stroke="midnightblue" points="69.5,-354.34 73,-364.34 76.5,-354.34 69.5,-354.34"/>
</g>
</g>
</svg>
