<?xml version="1.0" encoding="UTF-8" standalone="no"?>
<!DOCTYPE svg PUBLIC "-//W3C//DTD SVG 1.1//EN"
 "http://www.w3.org/Graphics/SVG/1.1/DTD/svg11.dtd">
<!-- Generated by graphviz version 2.43.0 (0)
 -->
<!-- Title: sylar::ElapseFormatItem Pages: 1 -->
<svg width="144pt" height="193pt"
 viewBox="0.00 0.00 144.00 193.00" xmlns="http://www.w3.org/2000/svg" xmlns:xlink="http://www.w3.org/1999/xlink">
<g id="graph0" class="graph" transform="scale(1 1) rotate(0) translate(4 189)">
<title>sylar::ElapseFormatItem</title>
<polygon fill="white" stroke="transparent" points="-4,4 -4,-189 140,-189 140,4 -4,4"/>
<!-- Node1 -->
<g id="node1" class="node">
<title>Node1</title>
<g id="a_node1"><a xlink:title=" ">
<polygon fill="#bfbfbf" stroke="black" points="0,-0.5 0,-68.5 136,-68.5 136,-0.5 0,-0.5"/>
<text text-anchor="middle" x="68" y="-56.5" font-family="Helvetica,sans-Serif" font-size="10.00">sylar::ElapseFormatItem</text>
<polyline fill="none" stroke="black" points="0,-49.5 136,-49.5 "/>
<text text-anchor="middle" x="68" y="-37.5" font-family="Helvetica,sans-Serif" font-size="10.00"> </text>
<polyline fill="none" stroke="black" points="0,-30.5 136,-30.5 "/>
<text text-anchor="start" x="8" y="-18.5" font-family="Helvetica,sans-Serif" font-size="10.00">+ ElapseFormatItem()</text>
<text text-anchor="start" x="8" y="-7.5" font-family="Helvetica,sans-Serif" font-size="10.00">+ format()</text>
</a>
</g>
</g>
<!-- Node2 -->
<g id="node2" class="node">
<title>Node2</title>
<g id="a_node2"><a xlink:href="classsylar_1_1LogFormatter_1_1FormatItem.html" target="_top" xlink:title="日志内容格式化项，虚基类，用于派生出不同的格式化项">
<polygon fill="white" stroke="black" points="12,-105.5 12,-184.5 124,-184.5 124,-105.5 12,-105.5"/>
<text text-anchor="start" x="20" y="-172.5" font-family="Helvetica,sans-Serif" font-size="10.00">sylar::LogFormatter</text>
<text text-anchor="middle" x="68" y="-161.5" font-family="Helvetica,sans-Serif" font-size="10.00">::FormatItem</text>
<polyline fill="none" stroke="black" points="12,-154.5 124,-154.5 "/>
<text text-anchor="middle" x="68" y="-142.5" font-family="Helvetica,sans-Serif" font-size="10.00"> </text>
<polyline fill="none" stroke="black" points="12,-135.5 124,-135.5 "/>
<text text-anchor="start" x="20" y="-123.5" font-family="Helvetica,sans-Serif" font-size="10.00">+ ~FormatItem()</text>
<text text-anchor="start" x="20" y="-112.5" font-family="Helvetica,sans-Serif" font-size="10.00">+ format()</text>
</a>
</g>
</g>
<!-- Node2&#45;&gt;Node1 -->
<g id="edge1" class="edge">
<title>Node2&#45;&gt;Node1</title>
<path fill="none" stroke="midnightblue" d="M68,-95.35C68,-86.28 68,-77 68,-68.54"/>
<polygon fill="none" stroke="midnightblue" points="64.5,-95.44 68,-105.44 71.5,-95.44 64.5,-95.44"/>
</g>
</g>
</svg>
