<?xml version="1.0" encoding="UTF-8" standalone="no"?>
<!DOCTYPE svg PUBLIC "-//W3C//DTD SVG 1.1//EN"
 "http://www.w3.org/Graphics/SVG/1.1/DTD/svg11.dtd">
<!-- Generated by graphviz version 2.43.0 (0)
 -->
<!-- Title: sylar::http::IServletCreator Pages: 1 -->
<svg width="326pt" height="215pt"
 viewBox="0.00 0.00 326.00 215.00" xmlns="http://www.w3.org/2000/svg" xmlns:xlink="http://www.w3.org/1999/xlink">
<g id="graph0" class="graph" transform="scale(1 1) rotate(0) translate(4 211)">
<title>sylar::http::IServletCreator</title>
<polygon fill="white" stroke="transparent" points="-4,4 -4,-211 322,-211 322,4 -4,4"/>
<!-- Node1 -->
<g id="node1" class="node">
<title>Node1</title>
<g id="a_node1"><a xlink:title=" ">
<polygon fill="#bfbfbf" stroke="black" points="75.5,-127.5 75.5,-206.5 221.5,-206.5 221.5,-127.5 75.5,-127.5"/>
<text text-anchor="middle" x="148.5" y="-194.5" font-family="Helvetica,sans-Serif" font-size="10.00">sylar::http::IServletCreator</text>
<polyline fill="none" stroke="black" points="75.5,-187.5 221.5,-187.5 "/>
<text text-anchor="middle" x="148.5" y="-175.5" font-family="Helvetica,sans-Serif" font-size="10.00"> </text>
<polyline fill="none" stroke="black" points="75.5,-168.5 221.5,-168.5 "/>
<text text-anchor="start" x="83.5" y="-156.5" font-family="Helvetica,sans-Serif" font-size="10.00">+ ~IServletCreator()</text>
<text text-anchor="start" x="83.5" y="-145.5" font-family="Helvetica,sans-Serif" font-size="10.00">+ get()</text>
<text text-anchor="start" x="83.5" y="-134.5" font-family="Helvetica,sans-Serif" font-size="10.00">+ getName()</text>
</a>
</g>
</g>
<!-- Node2 -->
<g id="node2" class="node">
<title>Node2</title>
<g id="a_node2"><a xlink:href="classsylar_1_1http_1_1HoldServletCreator.html" target="_top" xlink:title=" ">
<polygon fill="white" stroke="black" points="0,-0.5 0,-90.5 129,-90.5 129,-0.5 0,-0.5"/>
<text text-anchor="start" x="8" y="-78.5" font-family="Helvetica,sans-Serif" font-size="10.00">sylar::http::HoldServlet</text>
<text text-anchor="middle" x="64.5" y="-67.5" font-family="Helvetica,sans-Serif" font-size="10.00">Creator</text>
<polyline fill="none" stroke="black" points="0,-60.5 129,-60.5 "/>
<text text-anchor="middle" x="64.5" y="-48.5" font-family="Helvetica,sans-Serif" font-size="10.00"> </text>
<polyline fill="none" stroke="black" points="0,-41.5 129,-41.5 "/>
<text text-anchor="start" x="8" y="-29.5" font-family="Helvetica,sans-Serif" font-size="10.00">+ HoldServletCreator()</text>
<text text-anchor="start" x="8" y="-18.5" font-family="Helvetica,sans-Serif" font-size="10.00">+ get()</text>
<text text-anchor="start" x="8" y="-7.5" font-family="Helvetica,sans-Serif" font-size="10.00">+ getName()</text>
</a>
</g>
</g>
<!-- Node1&#45;&gt;Node2 -->
<g id="edge1" class="edge">
<title>Node1&#45;&gt;Node2</title>
<path fill="none" stroke="midnightblue" d="M115.38,-118.88C108.9,-109.67 102.13,-100.03 95.72,-90.91"/>
<polygon fill="none" stroke="midnightblue" points="112.61,-121.03 121.23,-127.2 118.34,-117.01 112.61,-121.03"/>
</g>
<!-- Node3 -->
<g id="node3" class="node">
<title>Node3</title>
<g id="a_node3"><a xlink:href="classsylar_1_1http_1_1ServletCreator.html" target="_top" xlink:title=" ">
<polygon fill="white" stroke="black" points="147,-6 147,-85 318,-85 318,-6 147,-6"/>
<text text-anchor="middle" x="232.5" y="-73" font-family="Helvetica,sans-Serif" font-size="10.00">sylar::http::ServletCreator&lt; T &gt;</text>
<polyline fill="none" stroke="black" points="147,-66 318,-66 "/>
<text text-anchor="middle" x="232.5" y="-54" font-family="Helvetica,sans-Serif" font-size="10.00"> </text>
<polyline fill="none" stroke="black" points="147,-47 318,-47 "/>
<text text-anchor="start" x="155" y="-35" font-family="Helvetica,sans-Serif" font-size="10.00">+ ServletCreator()</text>
<text text-anchor="start" x="155" y="-24" font-family="Helvetica,sans-Serif" font-size="10.00">+ get()</text>
<text text-anchor="start" x="155" y="-13" font-family="Helvetica,sans-Serif" font-size="10.00">+ getName()</text>
</a>
</g>
</g>
<!-- Node1&#45;&gt;Node3 -->
<g id="edge2" class="edge">
<title>Node1&#45;&gt;Node3</title>
<path fill="none" stroke="midnightblue" d="M181.68,-118.8C189.53,-107.63 197.81,-95.84 205.36,-85.1"/>
<polygon fill="none" stroke="midnightblue" points="178.66,-117.01 175.77,-127.2 184.39,-121.03 178.66,-117.01"/>
</g>
</g>
</svg>
