<?xml version="1.0" encoding="UTF-8" standalone="no"?>
<!DOCTYPE svg PUBLIC "-//W3C//DTD SVG 1.1//EN"
 "http://www.w3.org/Graphics/SVG/1.1/DTD/svg11.dtd">
<!-- Generated by graphviz version 2.43.0 (0)
 -->
<!-- Title: sylar::FileLogAppender Pages: 1 -->
<svg width="136pt" height="270pt"
 viewBox="0.00 0.00 136.00 270.00" xmlns="http://www.w3.org/2000/svg" xmlns:xlink="http://www.w3.org/1999/xlink">
<g id="graph0" class="graph" transform="scale(1 1) rotate(0) translate(4 266)">
<title>sylar::FileLogAppender</title>
<polygon fill="white" stroke="transparent" points="-4,4 -4,-266 132,-266 132,4 -4,4"/>
<!-- Node1 -->
<g id="node1" class="node">
<title>Node1</title>
<g id="a_node1"><a xlink:title="输出到文件">
<polygon fill="#bfbfbf" stroke="black" points="0,-0.5 0,-90.5 128,-90.5 128,-0.5 0,-0.5"/>
<text text-anchor="middle" x="64" y="-78.5" font-family="Helvetica,sans-Serif" font-size="10.00">sylar::FileLogAppender</text>
<polyline fill="none" stroke="black" points="0,-71.5 128,-71.5 "/>
<text text-anchor="middle" x="64" y="-59.5" font-family="Helvetica,sans-Serif" font-size="10.00"> </text>
<polyline fill="none" stroke="black" points="0,-52.5 128,-52.5 "/>
<text text-anchor="start" x="8" y="-40.5" font-family="Helvetica,sans-Serif" font-size="10.00">+ FileLogAppender()</text>
<text text-anchor="start" x="8" y="-29.5" font-family="Helvetica,sans-Serif" font-size="10.00">+ log()</text>
<text text-anchor="start" x="8" y="-18.5" font-family="Helvetica,sans-Serif" font-size="10.00">+ reopen()</text>
<text text-anchor="start" x="8" y="-7.5" font-family="Helvetica,sans-Serif" font-size="10.00">+ toYamlString()</text>
</a>
</g>
</g>
<!-- Node2 -->
<g id="node2" class="node">
<title>Node2</title>
<g id="a_node2"><a xlink:href="classsylar_1_1LogAppender.html" target="_top" xlink:title="日志输出地，虚基类，用于派生出不同的LogAppender">
<polygon fill="white" stroke="black" points="1.5,-127.5 1.5,-261.5 126.5,-261.5 126.5,-127.5 1.5,-127.5"/>
<text text-anchor="middle" x="64" y="-249.5" font-family="Helvetica,sans-Serif" font-size="10.00">sylar::LogAppender</text>
<polyline fill="none" stroke="black" points="1.5,-242.5 126.5,-242.5 "/>
<text text-anchor="start" x="9.5" y="-230.5" font-family="Helvetica,sans-Serif" font-size="10.00"># m_mutex</text>
<text text-anchor="start" x="9.5" y="-219.5" font-family="Helvetica,sans-Serif" font-size="10.00"># m_formatter</text>
<text text-anchor="start" x="9.5" y="-208.5" font-family="Helvetica,sans-Serif" font-size="10.00"># m_defaultFormatter</text>
<polyline fill="none" stroke="black" points="1.5,-201.5 126.5,-201.5 "/>
<text text-anchor="start" x="9.5" y="-189.5" font-family="Helvetica,sans-Serif" font-size="10.00">+ LogAppender()</text>
<text text-anchor="start" x="9.5" y="-178.5" font-family="Helvetica,sans-Serif" font-size="10.00">+ ~LogAppender()</text>
<text text-anchor="start" x="9.5" y="-167.5" font-family="Helvetica,sans-Serif" font-size="10.00">+ setFormatter()</text>
<text text-anchor="start" x="9.5" y="-156.5" font-family="Helvetica,sans-Serif" font-size="10.00">+ getFormatter()</text>
<text text-anchor="start" x="9.5" y="-145.5" font-family="Helvetica,sans-Serif" font-size="10.00">+ log()</text>
<text text-anchor="start" x="9.5" y="-134.5" font-family="Helvetica,sans-Serif" font-size="10.00">+ toYamlString()</text>
</a>
</g>
</g>
<!-- Node2&#45;&gt;Node1 -->
<g id="edge1" class="edge">
<title>Node2&#45;&gt;Node1</title>
<path fill="none" stroke="midnightblue" d="M64,-117.15C64,-108.15 64,-99.2 64,-90.85"/>
<polygon fill="none" stroke="midnightblue" points="60.5,-117.31 64,-127.31 67.5,-117.31 60.5,-117.31"/>
</g>
</g>
</svg>
