<?xml version="1.0" encoding="UTF-8" standalone="no"?>
<!DOCTYPE svg PUBLIC "-//W3C//DTD SVG 1.1//EN"
 "http://www.w3.org/Graphics/SVG/1.1/DTD/svg11.dtd">
<!-- Generated by graphviz version 2.43.0 (0)
 -->
<!-- Title: sylar::SocketStream Pages: 1 -->
<svg width="165pt" height="402pt"
 viewBox="0.00 0.00 165.00 402.00" xmlns="http://www.w3.org/2000/svg" xmlns:xlink="http://www.w3.org/1999/xlink">
<g id="graph0" class="graph" transform="scale(1 1) rotate(0) translate(4 398)">
<title>sylar::SocketStream</title>
<polygon fill="white" stroke="transparent" points="-4,4 -4,-398 161,-398 161,4 -4,4"/>
<!-- Node1 -->
<g id="node1" class="node">
<title>Node1</title>
<g id="a_node1"><a xlink:title="Socket流">
<polygon fill="#bfbfbf" stroke="black" points="0,-0.5 0,-200.5 157,-200.5 157,-0.5 0,-0.5"/>
<text text-anchor="middle" x="78.5" y="-188.5" font-family="Helvetica,sans-Serif" font-size="10.00">sylar::SocketStream</text>
<polyline fill="none" stroke="black" points="0,-181.5 157,-181.5 "/>
<text text-anchor="start" x="8" y="-169.5" font-family="Helvetica,sans-Serif" font-size="10.00"># m_socket</text>
<text text-anchor="start" x="8" y="-158.5" font-family="Helvetica,sans-Serif" font-size="10.00"># m_owner</text>
<polyline fill="none" stroke="black" points="0,-151.5 157,-151.5 "/>
<text text-anchor="start" x="8" y="-139.5" font-family="Helvetica,sans-Serif" font-size="10.00">+ SocketStream()</text>
<text text-anchor="start" x="8" y="-128.5" font-family="Helvetica,sans-Serif" font-size="10.00">+ ~SocketStream()</text>
<text text-anchor="start" x="8" y="-117.5" font-family="Helvetica,sans-Serif" font-size="10.00">+ read()</text>
<text text-anchor="start" x="8" y="-106.5" font-family="Helvetica,sans-Serif" font-size="10.00">+ read()</text>
<text text-anchor="start" x="8" y="-95.5" font-family="Helvetica,sans-Serif" font-size="10.00">+ write()</text>
<text text-anchor="start" x="8" y="-84.5" font-family="Helvetica,sans-Serif" font-size="10.00">+ write()</text>
<text text-anchor="start" x="8" y="-73.5" font-family="Helvetica,sans-Serif" font-size="10.00">+ close()</text>
<text text-anchor="start" x="8" y="-62.5" font-family="Helvetica,sans-Serif" font-size="10.00">+ getSocket()</text>
<text text-anchor="start" x="8" y="-51.5" font-family="Helvetica,sans-Serif" font-size="10.00">+ isConnected()</text>
<text text-anchor="start" x="8" y="-40.5" font-family="Helvetica,sans-Serif" font-size="10.00">+ getRemoteAddress()</text>
<text text-anchor="start" x="8" y="-29.5" font-family="Helvetica,sans-Serif" font-size="10.00">+ getLocalAddress()</text>
<text text-anchor="start" x="8" y="-18.5" font-family="Helvetica,sans-Serif" font-size="10.00">+ getRemoteAddressString()</text>
<text text-anchor="start" x="8" y="-7.5" font-family="Helvetica,sans-Serif" font-size="10.00">+ getLocalAddressString()</text>
</a>
</g>
</g>
<!-- Node2 -->
<g id="node2" class="node">
<title>Node2</title>
<g id="a_node2"><a xlink:href="classsylar_1_1Stream.html" target="_top" xlink:title="流结构">
<polygon fill="white" stroke="black" points="31,-237.5 31,-393.5 126,-393.5 126,-237.5 31,-237.5"/>
<text text-anchor="middle" x="78.5" y="-381.5" font-family="Helvetica,sans-Serif" font-size="10.00">sylar::Stream</text>
<polyline fill="none" stroke="black" points="31,-374.5 126,-374.5 "/>
<text text-anchor="middle" x="78.5" y="-362.5" font-family="Helvetica,sans-Serif" font-size="10.00"> </text>
<polyline fill="none" stroke="black" points="31,-355.5 126,-355.5 "/>
<text text-anchor="start" x="39" y="-343.5" font-family="Helvetica,sans-Serif" font-size="10.00">+ ~Stream()</text>
<text text-anchor="start" x="39" y="-332.5" font-family="Helvetica,sans-Serif" font-size="10.00">+ read()</text>
<text text-anchor="start" x="39" y="-321.5" font-family="Helvetica,sans-Serif" font-size="10.00">+ read()</text>
<text text-anchor="start" x="39" y="-310.5" font-family="Helvetica,sans-Serif" font-size="10.00">+ readFixSize()</text>
<text text-anchor="start" x="39" y="-299.5" font-family="Helvetica,sans-Serif" font-size="10.00">+ readFixSize()</text>
<text text-anchor="start" x="39" y="-288.5" font-family="Helvetica,sans-Serif" font-size="10.00">+ write()</text>
<text text-anchor="start" x="39" y="-277.5" font-family="Helvetica,sans-Serif" font-size="10.00">+ write()</text>
<text text-anchor="start" x="39" y="-266.5" font-family="Helvetica,sans-Serif" font-size="10.00">+ writeFixSize()</text>
<text text-anchor="start" x="39" y="-255.5" font-family="Helvetica,sans-Serif" font-size="10.00">+ writeFixSize()</text>
<text text-anchor="start" x="39" y="-244.5" font-family="Helvetica,sans-Serif" font-size="10.00">+ close()</text>
</a>
</g>
</g>
<!-- Node2&#45;&gt;Node1 -->
<g id="edge1" class="edge">
<title>Node2&#45;&gt;Node1</title>
<path fill="none" stroke="midnightblue" d="M78.5,-227.14C78.5,-218.41 78.5,-209.5 78.5,-200.66"/>
<polygon fill="none" stroke="midnightblue" points="75,-227.3 78.5,-237.3 82,-227.3 75,-227.3"/>
</g>
</g>
</svg>
