<?xml version="1.0" encoding="UTF-8" standalone="no"?>
<!DOCTYPE svg PUBLIC "-//W3C//DTD SVG 1.1//EN"
 "http://www.w3.org/Graphics/SVG/1.1/DTD/svg11.dtd">
<!-- Generated by graphviz version 2.43.0 (0)
 -->
<!-- Title: sylar::FSUtil::Mv Pages: 1 -->
<svg width="387pt" height="28pt"
 viewBox="0.00 0.00 387.00 28.00" xmlns="http://www.w3.org/2000/svg" xmlns:xlink="http://www.w3.org/1999/xlink">
<g id="graph0" class="graph" transform="scale(1 1) rotate(0) translate(4 24)">
<title>sylar::FSUtil::Mv</title>
<polygon fill="white" stroke="transparent" points="-4,4 -4,-24 383,-24 383,4 -4,4"/>
<!-- Node1 -->
<g id="node1" class="node">
<title>Node1</title>
<g id="a_node1"><a xlink:title="移动文件或路径，内部实现是先Rm(to)，再rename(from, to)，参考rename">
<polygon fill="#bfbfbf" stroke="black" points="0,-0.5 0,-19.5 96,-19.5 96,-0.5 0,-0.5"/>
<text text-anchor="middle" x="48" y="-7.5" font-family="Helvetica,sans-Serif" font-size="10.00">sylar::FSUtil::Mv</text>
</a>
</g>
</g>
<!-- Node2 -->
<g id="node2" class="node">
<title>Node2</title>
<g id="a_node2"><a xlink:href="classsylar_1_1FSUtil.html#a2c75a0dcd9a33a0a4e643df37237309b" target="_top" xlink:title="删除文件或路径">
<polygon fill="white" stroke="black" points="132,-0.5 132,-19.5 230,-19.5 230,-0.5 132,-0.5"/>
<text text-anchor="middle" x="181" y="-7.5" font-family="Helvetica,sans-Serif" font-size="10.00">sylar::FSUtil::Rm</text>
</a>
</g>
</g>
<!-- Node1&#45;&gt;Node2 -->
<g id="edge1" class="edge">
<title>Node1&#45;&gt;Node2</title>
<path fill="none" stroke="midnightblue" d="M96.29,-10C104.53,-10 113.18,-10 121.66,-10"/>
<polygon fill="midnightblue" stroke="midnightblue" points="121.89,-13.5 131.89,-10 121.89,-6.5 121.89,-13.5"/>
</g>
<!-- Node3 -->
<g id="node3" class="node">
<title>Node3</title>
<g id="a_node3"><a xlink:href="classsylar_1_1FSUtil.html#a02e6f68ccc238f7984e3085bd2a2f2c5" target="_top" xlink:title="删除文件，参考unlink(2)">
<polygon fill="white" stroke="black" points="266,-0.5 266,-19.5 379,-19.5 379,-0.5 266,-0.5"/>
<text text-anchor="middle" x="322.5" y="-7.5" font-family="Helvetica,sans-Serif" font-size="10.00">sylar::FSUtil::Unlink</text>
</a>
</g>
</g>
<!-- Node2&#45;&gt;Node3 -->
<g id="edge2" class="edge">
<title>Node2&#45;&gt;Node3</title>
<path fill="none" stroke="midnightblue" d="M230.01,-10C238.28,-10 247,-10 255.65,-10"/>
<polygon fill="midnightblue" stroke="midnightblue" points="255.72,-13.5 265.72,-10 255.72,-6.5 255.72,-13.5"/>
</g>
</g>
</svg>
