<?xml version="1.0" encoding="UTF-8" standalone="no"?>
<!DOCTYPE svg PUBLIC "-//W3C//DTD SVG 1.1//EN"
 "http://www.w3.org/Graphics/SVG/1.1/DTD/svg11.dtd">
<!-- Generated by graphviz version 2.43.0 (0)
 -->
<!-- Title: sylar::http::HttpRequest::checkGetParamAs Pages: 1 -->
<svg width="479pt" height="145pt"
 viewBox="0.00 0.00 479.00 144.50" xmlns="http://www.w3.org/2000/svg" xmlns:xlink="http://www.w3.org/1999/xlink">
<g id="graph0" class="graph" transform="scale(1 1) rotate(0) translate(4 140.5)">
<title>sylar::http::HttpRequest::checkGetParamAs</title>
<polygon fill="white" stroke="transparent" points="-4,4 -4,-140.5 475,-140.5 475,4 -4,4"/>
<!-- Node1 -->
<g id="node1" class="node">
<title>Node1</title>
<g id="a_node1"><a xlink:title="检查并获取HTTP请求的请求参数">
<polygon fill="#bfbfbf" stroke="black" points="0,-49.5 0,-79.5 133,-79.5 133,-49.5 0,-49.5"/>
<text text-anchor="start" x="8" y="-67.5" font-family="Helvetica,sans-Serif" font-size="10.00">sylar::http::HttpRequest</text>
<text text-anchor="middle" x="66.5" y="-56.5" font-family="Helvetica,sans-Serif" font-size="10.00">::checkGetParamAs</text>
</a>
</g>
</g>
<!-- Node2 -->
<g id="node2" class="node">
<title>Node2</title>
<g id="a_node2"><a xlink:href="http_8h.html#ae706fa797ef4b8066246dccc0a905f46" target="_top" xlink:title="获取Map中的key值,并转成对应类型,返回是否成功">
<polygon fill="white" stroke="black" points="170.5,-99 170.5,-118 300.5,-118 300.5,-99 170.5,-99"/>
<text text-anchor="middle" x="235.5" y="-106" font-family="Helvetica,sans-Serif" font-size="10.00">sylar::http::checkGetAs</text>
</a>
</g>
</g>
<!-- Node1&#45;&gt;Node2 -->
<g id="edge1" class="edge">
<title>Node1&#45;&gt;Node2</title>
<path fill="none" stroke="midnightblue" d="M124.5,-79.52C145.36,-85.01 168.67,-91.16 188.45,-96.37"/>
<polygon fill="midnightblue" stroke="midnightblue" points="187.58,-99.76 198.15,-98.92 189.37,-92.99 187.58,-99.76"/>
</g>
<!-- Node3 -->
<g id="node3" class="node">
<title>Node3</title>
<g id="a_node3"><a xlink:href="classsylar_1_1http_1_1HttpRequest.html#a761c7664fae782854b91cc5ff7a67a7c" target="_top" xlink:title="当content&#45;type是application/x&#45;www&#45;form&#45;urlencoded时，提取消息体中的表单参数">
<polygon fill="white" stroke="black" points="169,-49.5 169,-79.5 302,-79.5 302,-49.5 169,-49.5"/>
<text text-anchor="start" x="177" y="-67.5" font-family="Helvetica,sans-Serif" font-size="10.00">sylar::http::HttpRequest</text>
<text text-anchor="middle" x="235.5" y="-56.5" font-family="Helvetica,sans-Serif" font-size="10.00">::initBodyParam</text>
</a>
</g>
</g>
<!-- Node1&#45;&gt;Node3 -->
<g id="edge3" class="edge">
<title>Node1&#45;&gt;Node3</title>
<path fill="none" stroke="midnightblue" d="M133.02,-64.5C141.5,-64.5 150.23,-64.5 158.85,-64.5"/>
<polygon fill="midnightblue" stroke="midnightblue" points="158.89,-68 168.89,-64.5 158.89,-61 158.89,-68"/>
</g>
<!-- Node5 -->
<g id="node5" class="node">
<title>Node5</title>
<g id="a_node5"><a xlink:href="classsylar_1_1http_1_1HttpRequest.html#a4b0d927425fc97ecdc76d494890ed11d" target="_top" xlink:title="提取url中的查询参数">
<polygon fill="white" stroke="black" points="169,-0.5 169,-30.5 302,-30.5 302,-0.5 169,-0.5"/>
<text text-anchor="start" x="177" y="-18.5" font-family="Helvetica,sans-Serif" font-size="10.00">sylar::http::HttpRequest</text>
<text text-anchor="middle" x="235.5" y="-7.5" font-family="Helvetica,sans-Serif" font-size="10.00">::initQueryParam</text>
</a>
</g>
</g>
<!-- Node1&#45;&gt;Node5 -->
<g id="edge5" class="edge">
<title>Node1&#45;&gt;Node5</title>
<path fill="none" stroke="midnightblue" d="M118.97,-49.4C136.19,-44.34 155.56,-38.66 173.44,-33.42"/>
<polygon fill="midnightblue" stroke="midnightblue" points="174.59,-36.73 183.2,-30.55 172.62,-30.01 174.59,-36.73"/>
</g>
<!-- Node2&#45;&gt;Node2 -->
<g id="edge2" class="edge">
<title>Node2&#45;&gt;Node2</title>
<path fill="none" stroke="midnightblue" d="M209.61,-118.26C197.01,-127.07 205.64,-136.5 235.5,-136.5 255.56,-136.5 266.04,-132.24 266.94,-126.77"/>
<polygon fill="midnightblue" stroke="midnightblue" points="269.78,-124.73 261.39,-118.26 263.92,-128.55 269.78,-124.73"/>
</g>
<!-- Node4 -->
<g id="node4" class="node">
<title>Node4</title>
<g id="a_node4"><a xlink:href="classsylar_1_1http_1_1HttpRequest.html#a30010fd520c46200b7ecbe2f0d2349fd" target="_top" xlink:title="获取HTTP请求的头部参数">
<polygon fill="white" stroke="black" points="338,-49.5 338,-79.5 471,-79.5 471,-49.5 338,-49.5"/>
<text text-anchor="start" x="346" y="-67.5" font-family="Helvetica,sans-Serif" font-size="10.00">sylar::http::HttpRequest</text>
<text text-anchor="middle" x="404.5" y="-56.5" font-family="Helvetica,sans-Serif" font-size="10.00">::getHeader</text>
</a>
</g>
</g>
<!-- Node3&#45;&gt;Node4 -->
<g id="edge4" class="edge">
<title>Node3&#45;&gt;Node4</title>
<path fill="none" stroke="midnightblue" d="M302.02,-64.5C310.5,-64.5 319.23,-64.5 327.85,-64.5"/>
<polygon fill="midnightblue" stroke="midnightblue" points="327.89,-68 337.89,-64.5 327.89,-61 327.89,-68"/>
</g>
</g>
</svg>
