<?xml version="1.0" encoding="UTF-8" standalone="no"?>
<!DOCTYPE svg PUBLIC "-//W3C//DTD SVG 1.1//EN"
 "http://www.w3.org/Graphics/SVG/1.1/DTD/svg11.dtd">
<!-- Generated by graphviz version 2.43.0 (0)
 -->
<!-- Title: sylar::CASLock Pages: 1 -->
<svg width="118pt" height="226pt"
 viewBox="0.00 0.00 118.00 226.00" xmlns="http://www.w3.org/2000/svg" xmlns:xlink="http://www.w3.org/1999/xlink">
<g id="graph0" class="graph" transform="scale(1 1) rotate(0) translate(4 222)">
<title>sylar::CASLock</title>
<polygon fill="white" stroke="transparent" points="-4,4 -4,-222 114,-222 114,4 -4,4"/>
<!-- Node1 -->
<g id="node1" class="node">
<title>Node1</title>
<g id="a_node1"><a xlink:title="原子锁">
<polygon fill="#bfbfbf" stroke="black" points="10.5,-0.5 10.5,-90.5 99.5,-90.5 99.5,-0.5 10.5,-0.5"/>
<text text-anchor="middle" x="55" y="-78.5" font-family="Helvetica,sans-Serif" font-size="10.00">sylar::CASLock</text>
<polyline fill="none" stroke="black" points="10.5,-71.5 99.5,-71.5 "/>
<text text-anchor="middle" x="55" y="-59.5" font-family="Helvetica,sans-Serif" font-size="10.00"> </text>
<polyline fill="none" stroke="black" points="10.5,-52.5 99.5,-52.5 "/>
<text text-anchor="start" x="18.5" y="-40.5" font-family="Helvetica,sans-Serif" font-size="10.00">+ CASLock()</text>
<text text-anchor="start" x="18.5" y="-29.5" font-family="Helvetica,sans-Serif" font-size="10.00">+ ~CASLock()</text>
<text text-anchor="start" x="18.5" y="-18.5" font-family="Helvetica,sans-Serif" font-size="10.00">+ lock()</text>
<text text-anchor="start" x="18.5" y="-7.5" font-family="Helvetica,sans-Serif" font-size="10.00">+ unlock()</text>
</a>
</g>
</g>
<!-- Node2 -->
<g id="node2" class="node">
<title>Node2</title>
<g id="a_node2"><a xlink:href="classsylar_1_1Noncopyable.html" target="_top" xlink:title="对象无法拷贝,赋值">
<polygon fill="white" stroke="black" points="0,-127.5 0,-217.5 110,-217.5 110,-127.5 0,-127.5"/>
<text text-anchor="middle" x="55" y="-205.5" font-family="Helvetica,sans-Serif" font-size="10.00">sylar::Noncopyable</text>
<polyline fill="none" stroke="black" points="0,-198.5 110,-198.5 "/>
<text text-anchor="middle" x="55" y="-186.5" font-family="Helvetica,sans-Serif" font-size="10.00"> </text>
<polyline fill="none" stroke="black" points="0,-179.5 110,-179.5 "/>
<text text-anchor="start" x="8" y="-167.5" font-family="Helvetica,sans-Serif" font-size="10.00">+ Noncopyable()</text>
<text text-anchor="start" x="8" y="-156.5" font-family="Helvetica,sans-Serif" font-size="10.00">+ ~Noncopyable()</text>
<text text-anchor="start" x="8" y="-145.5" font-family="Helvetica,sans-Serif" font-size="10.00">+ Noncopyable()</text>
<text text-anchor="start" x="8" y="-134.5" font-family="Helvetica,sans-Serif" font-size="10.00">+ operator=()</text>
</a>
</g>
</g>
<!-- Node2&#45;&gt;Node1 -->
<g id="edge1" class="edge">
<title>Node2&#45;&gt;Node1</title>
<path fill="none" stroke="#8b1a1a" d="M55,-117.16C55,-108.28 55,-99.18 55,-90.59"/>
<polygon fill="none" stroke="#8b1a1a" points="51.5,-117.43 55,-127.43 58.5,-117.43 51.5,-117.43"/>
</g>
</g>
</svg>
