<?xml version="1.0" encoding="UTF-8" standalone="no"?>
<!DOCTYPE svg PUBLIC "-//W3C//DTD SVG 1.1//EN"
 "http://www.w3.org/Graphics/SVG/1.1/DTD/svg11.dtd">
<!-- Generated by graphviz version 2.43.0 (0)
 -->
<!-- Title: sylar::ByteArray::writeInt32 Pages: 1 -->
<svg width="513pt" height="28pt"
 viewBox="0.00 0.00 513.00 28.00" xmlns="http://www.w3.org/2000/svg" xmlns:xlink="http://www.w3.org/1999/xlink">
<g id="graph0" class="graph" transform="scale(1 1) rotate(0) translate(4 24)">
<title>sylar::ByteArray::writeInt32</title>
<polygon fill="white" stroke="transparent" points="-4,4 -4,-24 509,-24 509,4 -4,4"/>
<!-- Node1 -->
<g id="node1" class="node">
<title>Node1</title>
<g id="a_node1"><a xlink:title="写入有符号Varint32类型的数据">
<polygon fill="#bfbfbf" stroke="black" points="0,-0.5 0,-19.5 150,-19.5 150,-0.5 0,-0.5"/>
<text text-anchor="middle" x="75" y="-7.5" font-family="Helvetica,sans-Serif" font-size="10.00">sylar::ByteArray::writeInt32</text>
</a>
</g>
</g>
<!-- Node2 -->
<g id="node2" class="node">
<title>Node2</title>
<g id="a_node2"><a xlink:href="classsylar_1_1ByteArray.html#aacc7d361418de9bffd69a2c4bbf02f7d" target="_top" xlink:title="写入无符号Varint32类型的数据">
<polygon fill="white" stroke="black" points="186,-0.5 186,-19.5 344,-19.5 344,-0.5 186,-0.5"/>
<text text-anchor="middle" x="265" y="-7.5" font-family="Helvetica,sans-Serif" font-size="10.00">sylar::ByteArray::writeUint32</text>
</a>
</g>
</g>
<!-- Node1&#45;&gt;Node2 -->
<g id="edge1" class="edge">
<title>Node1&#45;&gt;Node2</title>
<path fill="none" stroke="midnightblue" d="M150.03,-10C158.45,-10 167.1,-10 175.68,-10"/>
<polygon fill="midnightblue" stroke="midnightblue" points="175.7,-13.5 185.7,-10 175.7,-6.5 175.7,-13.5"/>
</g>
<!-- Node3 -->
<g id="node3" class="node">
<title>Node3</title>
<g id="a_node3"><a xlink:href="classsylar_1_1ByteArray.html#aa02ff9c7ab29ee312e3ad8043acf28dc" target="_top" xlink:title="写入size长度的数据">
<polygon fill="white" stroke="black" points="380,-0.5 380,-19.5 505,-19.5 505,-0.5 380,-0.5"/>
<text text-anchor="middle" x="442.5" y="-7.5" font-family="Helvetica,sans-Serif" font-size="10.00">sylar::ByteArray::write</text>
</a>
</g>
</g>
<!-- Node2&#45;&gt;Node3 -->
<g id="edge2" class="edge">
<title>Node2&#45;&gt;Node3</title>
<path fill="none" stroke="midnightblue" d="M344.25,-10C352.77,-10 361.4,-10 369.83,-10"/>
<polygon fill="midnightblue" stroke="midnightblue" points="369.99,-13.5 379.99,-10 369.99,-6.5 369.99,-13.5"/>
</g>
</g>
</svg>
