<?xml version="1.0" encoding="UTF-8" standalone="no"?>
<!DOCTYPE svg PUBLIC "-//W3C//DTD SVG 1.1//EN"
 "http://www.w3.org/Graphics/SVG/1.1/DTD/svg11.dtd">
<!-- Generated by graphviz version 2.43.0 (0)
 -->
<!-- Title: sylar/config.h Pages: 1 -->
<svg width="1378pt" height="196pt"
 viewBox="0.00 0.00 1378.00 196.00" xmlns="http://www.w3.org/2000/svg" xmlns:xlink="http://www.w3.org/1999/xlink">
<g id="graph0" class="graph" transform="scale(1 1) rotate(0) translate(4 192)">
<title>sylar/config.h</title>
<polygon fill="white" stroke="transparent" points="-4,4 -4,-192 1374,-192 1374,4 -4,4"/>
<!-- Node1 -->
<g id="node1" class="node">
<title>Node1</title>
<g id="a_node1"><a xlink:title="配置模块">
<polygon fill="#bfbfbf" stroke="black" points="707,-168.5 707,-187.5 789,-187.5 789,-168.5 707,-168.5"/>
<text text-anchor="middle" x="748" y="-175.5" font-family="Helvetica,sans-Serif" font-size="10.00">sylar/config.h</text>
</a>
</g>
</g>
<!-- Node2 -->
<g id="node2" class="node">
<title>Node2</title>
<g id="a_node2"><a xlink:title=" ">
<polygon fill="white" stroke="#bfbfbf" points="0,-0.5 0,-19.5 58,-19.5 58,-0.5 0,-0.5"/>
<text text-anchor="middle" x="29" y="-7.5" font-family="Helvetica,sans-Serif" font-size="10.00">memory</text>
</a>
</g>
</g>
<!-- Node1&#45;&gt;Node2 -->
<g id="edge1" class="edge">
<title>Node1&#45;&gt;Node2</title>
<path fill="none" stroke="midnightblue" d="M706.74,-176.75C587.61,-175.59 244.92,-169.04 140,-132 98.73,-117.43 87.17,-109.5 59,-76 47.51,-62.34 39.47,-43.55 34.63,-29.69"/>
<polygon fill="midnightblue" stroke="midnightblue" points="37.84,-28.24 31.42,-19.81 31.18,-30.41 37.84,-28.24"/>
</g>
<!-- Node3 -->
<g id="node3" class="node">
<title>Node3</title>
<g id="a_node3"><a xlink:title=" ">
<polygon fill="white" stroke="#bfbfbf" points="76,-0.5 76,-19.5 120,-19.5 120,-0.5 76,-0.5"/>
<text text-anchor="middle" x="98" y="-7.5" font-family="Helvetica,sans-Serif" font-size="10.00">string</text>
</a>
</g>
</g>
<!-- Node1&#45;&gt;Node3 -->
<g id="edge2" class="edge">
<title>Node1&#45;&gt;Node3</title>
<path fill="none" stroke="midnightblue" d="M706.78,-177.49C574.57,-178.07 165.16,-171.97 86,-76 75.08,-62.77 81.01,-42.82 87.83,-28.52"/>
<polygon fill="midnightblue" stroke="midnightblue" points="90.93,-30.15 92.5,-19.67 84.74,-26.88 90.93,-30.15"/>
</g>
<!-- Node4 -->
<g id="node4" class="node">
<title>Node4</title>
<g id="a_node4"><a xlink:title=" ">
<polygon fill="white" stroke="#bfbfbf" points="655,-56.5 655,-75.5 711,-75.5 711,-56.5 655,-56.5"/>
<text text-anchor="middle" x="683" y="-63.5" font-family="Helvetica,sans-Serif" font-size="10.00">sstream</text>
</a>
</g>
</g>
<!-- Node1&#45;&gt;Node4 -->
<g id="edge3" class="edge">
<title>Node1&#45;&gt;Node4</title>
<path fill="none" stroke="midnightblue" d="M742.9,-168.37C732.22,-150.3 707.33,-108.18 693.23,-84.31"/>
<polygon fill="midnightblue" stroke="midnightblue" points="696.18,-82.42 688.08,-75.59 690.15,-85.98 696.18,-82.42"/>
</g>
<!-- Node5 -->
<g id="node5" class="node">
<title>Node5</title>
<g id="a_node5"><a xlink:title=" ">
<polygon fill="white" stroke="#bfbfbf" points="861.5,-112.5 861.5,-131.5 986.5,-131.5 986.5,-112.5 861.5,-112.5"/>
<text text-anchor="middle" x="924" y="-119.5" font-family="Helvetica,sans-Serif" font-size="10.00">boost/lexical_cast.hpp</text>
</a>
</g>
</g>
<!-- Node1&#45;&gt;Node5 -->
<g id="edge4" class="edge">
<title>Node1&#45;&gt;Node5</title>
<path fill="none" stroke="midnightblue" d="M775.89,-168.44C805.75,-159.28 853.31,-144.69 886.46,-134.52"/>
<polygon fill="midnightblue" stroke="midnightblue" points="887.71,-137.8 896.24,-131.52 885.66,-131.1 887.71,-137.8"/>
</g>
<!-- Node6 -->
<g id="node6" class="node">
<title>Node6</title>
<g id="a_node6"><a xlink:title=" ">
<polygon fill="white" stroke="#bfbfbf" points="1004.5,-112.5 1004.5,-131.5 1103.5,-131.5 1103.5,-112.5 1004.5,-112.5"/>
<text text-anchor="middle" x="1054" y="-119.5" font-family="Helvetica,sans-Serif" font-size="10.00">yaml&#45;cpp/yaml.h</text>
</a>
</g>
</g>
<!-- Node1&#45;&gt;Node6 -->
<g id="edge5" class="edge">
<title>Node1&#45;&gt;Node6</title>
<path fill="none" stroke="midnightblue" d="M789.27,-169.72C842.39,-160.34 935.04,-143.99 995.44,-133.33"/>
<polygon fill="midnightblue" stroke="midnightblue" points="996.34,-136.73 1005.58,-131.54 995.13,-129.84 996.34,-136.73"/>
</g>
<!-- Node7 -->
<g id="node7" class="node">
<title>Node7</title>
<g id="a_node7"><a xlink:title=" ">
<polygon fill="white" stroke="#bfbfbf" points="138.5,-0.5 138.5,-19.5 185.5,-19.5 185.5,-0.5 138.5,-0.5"/>
<text text-anchor="middle" x="162" y="-7.5" font-family="Helvetica,sans-Serif" font-size="10.00">vector</text>
</a>
</g>
</g>
<!-- Node1&#45;&gt;Node7 -->
<g id="edge6" class="edge">
<title>Node1&#45;&gt;Node7</title>
<path fill="none" stroke="midnightblue" d="M716.42,-168.5C685.32,-159.94 636.58,-146.03 595,-132 505.29,-101.73 487.22,-81.35 396,-56 311.55,-32.53 285.32,-39.43 195.51,-19.92"/>
<polygon fill="midnightblue" stroke="midnightblue" points="196.25,-16.5 185.73,-17.74 194.73,-23.33 196.25,-16.5"/>
</g>
<!-- Node8 -->
<g id="node8" class="node">
<title>Node8</title>
<g id="a_node8"><a xlink:title=" ">
<polygon fill="white" stroke="#bfbfbf" points="1026,-0.5 1026,-19.5 1058,-19.5 1058,-0.5 1026,-0.5"/>
<text text-anchor="middle" x="1042" y="-7.5" font-family="Helvetica,sans-Serif" font-size="10.00">list</text>
</a>
</g>
</g>
<!-- Node1&#45;&gt;Node8 -->
<g id="edge7" class="edge">
<title>Node1&#45;&gt;Node8</title>
<path fill="none" stroke="midnightblue" d="M750.36,-168.25C756.96,-145.58 777.88,-84.74 819,-56 889.73,-6.56 927.89,-40.63 1016.14,-19.72"/>
<polygon fill="midnightblue" stroke="midnightblue" points="1017.16,-23.07 1025.99,-17.21 1015.43,-16.29 1017.16,-23.07"/>
</g>
<!-- Node9 -->
<g id="node9" class="node">
<title>Node9</title>
<g id="a_node9"><a xlink:title=" ">
<polygon fill="white" stroke="#bfbfbf" points="729,-56.5 729,-75.5 767,-75.5 767,-56.5 729,-56.5"/>
<text text-anchor="middle" x="748" y="-63.5" font-family="Helvetica,sans-Serif" font-size="10.00">map</text>
</a>
</g>
</g>
<!-- Node1&#45;&gt;Node9 -->
<g id="edge8" class="edge">
<title>Node1&#45;&gt;Node9</title>
<path fill="none" stroke="midnightblue" d="M748,-168.37C748,-150.62 748,-109.67 748,-85.6"/>
<polygon fill="midnightblue" stroke="midnightblue" points="751.5,-85.59 748,-75.59 744.5,-85.59 751.5,-85.59"/>
</g>
<!-- Node10 -->
<g id="node10" class="node">
<title>Node10</title>
<g id="a_node10"><a xlink:title=" ">
<polygon fill="white" stroke="#bfbfbf" points="1122,-112.5 1122,-131.5 1154,-131.5 1154,-112.5 1122,-112.5"/>
<text text-anchor="middle" x="1138" y="-119.5" font-family="Helvetica,sans-Serif" font-size="10.00">set</text>
</a>
</g>
</g>
<!-- Node1&#45;&gt;Node10 -->
<g id="edge9" class="edge">
<title>Node1&#45;&gt;Node10</title>
<path fill="none" stroke="midnightblue" d="M789.04,-174.93C855.35,-170.93 990.13,-160.14 1111.89,-131.78"/>
<polygon fill="midnightblue" stroke="midnightblue" points="1112.83,-135.15 1121.75,-129.44 1111.21,-128.34 1112.83,-135.15"/>
</g>
<!-- Node11 -->
<g id="node11" class="node">
<title>Node11</title>
<g id="a_node11"><a xlink:title=" ">
<polygon fill="white" stroke="#bfbfbf" points="1172.5,-112.5 1172.5,-131.5 1265.5,-131.5 1265.5,-112.5 1172.5,-112.5"/>
<text text-anchor="middle" x="1219" y="-119.5" font-family="Helvetica,sans-Serif" font-size="10.00">unordered_map</text>
</a>
</g>
</g>
<!-- Node1&#45;&gt;Node11 -->
<g id="edge10" class="edge">
<title>Node1&#45;&gt;Node11</title>
<path fill="none" stroke="midnightblue" d="M789.02,-173.26C861.86,-166.46 1018.77,-151.12 1161.99,-132.07"/>
<polygon fill="midnightblue" stroke="midnightblue" points="1162.83,-135.49 1172.28,-130.69 1161.9,-128.55 1162.83,-135.49"/>
</g>
<!-- Node12 -->
<g id="node12" class="node">
<title>Node12</title>
<g id="a_node12"><a xlink:title=" ">
<polygon fill="white" stroke="#bfbfbf" points="1284,-112.5 1284,-131.5 1370,-131.5 1370,-112.5 1284,-112.5"/>
<text text-anchor="middle" x="1327" y="-119.5" font-family="Helvetica,sans-Serif" font-size="10.00">unordered_set</text>
</a>
</g>
</g>
<!-- Node1&#45;&gt;Node12 -->
<g id="edge11" class="edge">
<title>Node1&#45;&gt;Node12</title>
<path fill="none" stroke="midnightblue" d="M789.13,-174.7C876.47,-169.55 1087.1,-155.76 1273.91,-132.03"/>
<polygon fill="midnightblue" stroke="midnightblue" points="1274.44,-135.5 1283.91,-130.75 1273.55,-128.55 1274.44,-135.5"/>
</g>
<!-- Node13 -->
<g id="node13" class="node">
<title>Node13</title>
<g id="a_node13"><a xlink:title=" ">
<polygon fill="white" stroke="#bfbfbf" points="1076.5,-0.5 1076.5,-19.5 1141.5,-19.5 1141.5,-0.5 1076.5,-0.5"/>
<text text-anchor="middle" x="1109" y="-7.5" font-family="Helvetica,sans-Serif" font-size="10.00">functional</text>
</a>
</g>
</g>
<!-- Node1&#45;&gt;Node13 -->
<g id="edge12" class="edge">
<title>Node1&#45;&gt;Node13</title>
<path fill="none" stroke="midnightblue" d="M760.19,-168.45C779.35,-155.25 817.93,-129.6 853,-112 928.91,-73.91 1022.83,-40.02 1073.15,-22.86"/>
<polygon fill="midnightblue" stroke="midnightblue" points="1074.56,-26.08 1082.91,-19.56 1072.31,-19.45 1074.56,-26.08"/>
</g>
<!-- Node14 -->
<g id="node14" class="node">
<title>Node14</title>
<g id="a_node14"><a xlink:href="mutex_8h.html" target="_top" xlink:title="信号量，互斥锁，读写锁，范围锁模板，自旋锁，原子锁">
<polygon fill="white" stroke="black" points="541.5,-56.5 541.5,-75.5 598.5,-75.5 598.5,-56.5 541.5,-56.5"/>
<text text-anchor="middle" x="570" y="-63.5" font-family="Helvetica,sans-Serif" font-size="10.00">mutex.h</text>
</a>
</g>
</g>
<!-- Node1&#45;&gt;Node14 -->
<g id="edge13" class="edge">
<title>Node1&#45;&gt;Node14</title>
<path fill="none" stroke="midnightblue" d="M734.03,-168.37C703.36,-149.41 629.87,-104 592.56,-80.94"/>
<polygon fill="midnightblue" stroke="midnightblue" points="594.25,-77.87 583.9,-75.59 590.57,-83.83 594.25,-77.87"/>
</g>
<!-- Node21 -->
<g id="node21" class="node">
<title>Node21</title>
<g id="a_node21"><a xlink:href="log_8h.html" target="_top" xlink:title="日志模块">
<polygon fill="white" stroke="black" points="384.5,-112.5 384.5,-131.5 425.5,-131.5 425.5,-112.5 384.5,-112.5"/>
<text text-anchor="middle" x="405" y="-119.5" font-family="Helvetica,sans-Serif" font-size="10.00">log.h</text>
</a>
</g>
</g>
<!-- Node1&#45;&gt;Node21 -->
<g id="edge23" class="edge">
<title>Node1&#45;&gt;Node21</title>
<path fill="none" stroke="midnightblue" d="M706.91,-172.41C647.63,-165.47 534.83,-151.06 440,-132 438.54,-131.71 437.05,-131.39 435.55,-131.06"/>
<polygon fill="midnightblue" stroke="midnightblue" points="436.18,-127.61 425.64,-128.7 434.56,-134.42 436.18,-127.61"/>
</g>
<!-- Node25 -->
<g id="node25" class="node">
<title>Node25</title>
<g id="a_node25"><a xlink:href="util_8h.html" target="_top" xlink:title="util函数">
<polygon fill="white" stroke="black" points="482.5,-56.5 482.5,-75.5 523.5,-75.5 523.5,-56.5 482.5,-56.5"/>
<text text-anchor="middle" x="503" y="-63.5" font-family="Helvetica,sans-Serif" font-size="10.00">util.h</text>
</a>
</g>
</g>
<!-- Node1&#45;&gt;Node25 -->
<g id="edge44" class="edge">
<title>Node1&#45;&gt;Node25</title>
<path fill="none" stroke="midnightblue" d="M726.35,-168.34C704.45,-159.49 669.69,-145.22 640,-132 601.28,-114.76 557.07,-93.49 529.59,-80.08"/>
<polygon fill="midnightblue" stroke="midnightblue" points="531.13,-76.94 520.61,-75.69 528.05,-83.23 531.13,-76.94"/>
</g>
<!-- Node14&#45;&gt;Node2 -->
<g id="edge16" class="edge">
<title>Node14&#45;&gt;Node2</title>
<path fill="none" stroke="midnightblue" d="M541.46,-57.74C538.28,-57.08 535.08,-56.48 532,-56 330.4,-24.52 273.57,-51.12 68.26,-19.96"/>
<polygon fill="midnightblue" stroke="midnightblue" points="68.79,-16.5 58.37,-18.43 67.72,-23.42 68.79,-16.5"/>
</g>
<!-- Node14&#45;&gt;Node8 -->
<g id="edge21" class="edge">
<title>Node14&#45;&gt;Node8</title>
<path fill="none" stroke="midnightblue" d="M598.6,-58.53C603.39,-57.58 608.32,-56.7 613,-56 788.09,-29.97 839.13,-57.81 1015.89,-19.69"/>
<polygon fill="midnightblue" stroke="midnightblue" points="1016.76,-23.08 1025.77,-17.52 1015.25,-16.25 1016.76,-23.08"/>
</g>
<!-- Node14&#45;&gt;Node13 -->
<g id="edge15" class="edge">
<title>Node14&#45;&gt;Node13</title>
<path fill="none" stroke="midnightblue" d="M598.85,-61.36C613.04,-59.63 630.4,-57.59 646,-56 829.54,-37.29 879.52,-47.36 1065.92,-19.98"/>
<polygon fill="midnightblue" stroke="midnightblue" points="1066.68,-23.4 1076.06,-18.47 1065.65,-16.48 1066.68,-23.4"/>
</g>
<!-- Node15 -->
<g id="node15" class="node">
<title>Node15</title>
<g id="a_node15"><a xlink:title=" ">
<polygon fill="white" stroke="#bfbfbf" points="878,-0.5 878,-19.5 926,-19.5 926,-0.5 878,-0.5"/>
<text text-anchor="middle" x="902" y="-7.5" font-family="Helvetica,sans-Serif" font-size="10.00">thread</text>
</a>
</g>
</g>
<!-- Node14&#45;&gt;Node15 -->
<g id="edge14" class="edge">
<title>Node14&#45;&gt;Node15</title>
<path fill="none" stroke="midnightblue" d="M598.63,-58.73C603.42,-57.76 608.34,-56.81 613,-56 722.98,-36.78 754.68,-42.79 867.83,-20.01"/>
<polygon fill="midnightblue" stroke="midnightblue" points="868.84,-23.37 877.93,-17.94 867.44,-16.52 868.84,-23.37"/>
</g>
<!-- Node16 -->
<g id="node16" class="node">
<title>Node16</title>
<g id="a_node16"><a xlink:title=" ">
<polygon fill="white" stroke="#bfbfbf" points="944.5,-0.5 944.5,-19.5 1007.5,-19.5 1007.5,-0.5 944.5,-0.5"/>
<text text-anchor="middle" x="976" y="-7.5" font-family="Helvetica,sans-Serif" font-size="10.00">pthread.h</text>
</a>
</g>
</g>
<!-- Node14&#45;&gt;Node16 -->
<g id="edge17" class="edge">
<title>Node14&#45;&gt;Node16</title>
<path fill="none" stroke="midnightblue" d="M598.61,-58.62C603.4,-57.66 608.33,-56.75 613,-56 752,-33.74 791.17,-43.03 934.25,-19.95"/>
<polygon fill="midnightblue" stroke="midnightblue" points="934.98,-23.38 944.28,-18.31 933.85,-16.47 934.98,-23.38"/>
</g>
<!-- Node17 -->
<g id="node17" class="node">
<title>Node17</title>
<g id="a_node17"><a xlink:title=" ">
<polygon fill="white" stroke="#bfbfbf" points="606,-0.5 606,-19.5 686,-19.5 686,-0.5 606,-0.5"/>
<text text-anchor="middle" x="646" y="-7.5" font-family="Helvetica,sans-Serif" font-size="10.00">semaphore.h</text>
</a>
</g>
</g>
<!-- Node14&#45;&gt;Node17 -->
<g id="edge18" class="edge">
<title>Node14&#45;&gt;Node17</title>
<path fill="none" stroke="midnightblue" d="M582.21,-56.32C593.78,-48.11 611.38,-35.6 625.16,-25.81"/>
<polygon fill="midnightblue" stroke="midnightblue" points="627.44,-28.48 633.57,-19.83 623.39,-22.77 627.44,-28.48"/>
</g>
<!-- Node18 -->
<g id="node18" class="node">
<title>Node18</title>
<g id="a_node18"><a xlink:title=" ">
<polygon fill="white" stroke="#bfbfbf" points="534.5,-0.5 534.5,-19.5 587.5,-19.5 587.5,-0.5 534.5,-0.5"/>
<text text-anchor="middle" x="561" y="-7.5" font-family="Helvetica,sans-Serif" font-size="10.00">stdint.h</text>
</a>
</g>
</g>
<!-- Node14&#45;&gt;Node18 -->
<g id="edge19" class="edge">
<title>Node14&#45;&gt;Node18</title>
<path fill="none" stroke="midnightblue" d="M568.51,-56.08C567.32,-48.93 565.61,-38.64 564.12,-29.69"/>
<polygon fill="midnightblue" stroke="midnightblue" points="567.55,-29.04 562.46,-19.75 560.65,-30.19 567.55,-29.04"/>
</g>
<!-- Node19 -->
<g id="node19" class="node">
<title>Node19</title>
<g id="a_node19"><a xlink:title=" ">
<polygon fill="white" stroke="#bfbfbf" points="704,-0.5 704,-19.5 754,-19.5 754,-0.5 704,-0.5"/>
<text text-anchor="middle" x="729" y="-7.5" font-family="Helvetica,sans-Serif" font-size="10.00">atomic</text>
</a>
</g>
</g>
<!-- Node14&#45;&gt;Node19 -->
<g id="edge20" class="edge">
<title>Node14&#45;&gt;Node19</title>
<path fill="none" stroke="midnightblue" d="M595.19,-56.44C621.94,-47.36 664.4,-32.94 694.31,-22.78"/>
<polygon fill="midnightblue" stroke="midnightblue" points="695.58,-26.05 703.92,-19.52 693.33,-19.42 695.58,-26.05"/>
</g>
<!-- Node20 -->
<g id="node20" class="node">
<title>Node20</title>
<g id="a_node20"><a xlink:href="noncopyable_8h.html" target="_top" xlink:title="不可拷贝对象封装">
<polygon fill="white" stroke="black" points="772,-0.5 772,-19.5 860,-19.5 860,-0.5 772,-0.5"/>
<text text-anchor="middle" x="816" y="-7.5" font-family="Helvetica,sans-Serif" font-size="10.00">noncopyable.h</text>
</a>
</g>
</g>
<!-- Node14&#45;&gt;Node20 -->
<g id="edge22" class="edge">
<title>Node14&#45;&gt;Node20</title>
<path fill="none" stroke="midnightblue" d="M598.7,-58.7C639.96,-49.64 716.61,-32.82 766.96,-21.76"/>
<polygon fill="midnightblue" stroke="midnightblue" points="767.96,-25.13 776.97,-19.57 766.46,-18.29 767.96,-25.13"/>
</g>
<!-- Node21&#45;&gt;Node2 -->
<g id="edge25" class="edge">
<title>Node21&#45;&gt;Node2</title>
<path fill="none" stroke="midnightblue" d="M384.15,-119.94C321.83,-116.49 138.03,-104.12 86,-76 65.66,-65.01 49.16,-43.71 39.25,-28.49"/>
<polygon fill="midnightblue" stroke="midnightblue" points="42.19,-26.6 33.95,-19.94 36.24,-30.29 42.19,-26.6"/>
</g>
<!-- Node21&#45;&gt;Node3 -->
<g id="edge24" class="edge">
<title>Node21&#45;&gt;Node3</title>
<path fill="none" stroke="midnightblue" d="M384.44,-117.91C349.28,-112.24 275.73,-98.6 217,-76 197.97,-68.67 150.19,-41.49 121.3,-24.69"/>
<polygon fill="midnightblue" stroke="midnightblue" points="123.04,-21.65 112.64,-19.63 119.51,-27.7 123.04,-21.65"/>
</g>
<!-- Node21&#45;&gt;Node4 -->
<g id="edge27" class="edge">
<title>Node21&#45;&gt;Node4</title>
<path fill="none" stroke="midnightblue" d="M425.55,-117.24C466.57,-109.71 561.49,-92.1 641,-76 642.23,-75.75 643.49,-75.49 644.75,-75.23"/>
<polygon fill="midnightblue" stroke="midnightblue" points="645.48,-78.66 654.55,-73.19 644.05,-71.81 645.48,-78.66"/>
</g>
<!-- Node21&#45;&gt;Node7 -->
<g id="edge29" class="edge">
<title>Node21&#45;&gt;Node7</title>
<path fill="none" stroke="midnightblue" d="M384.38,-117.26C354.21,-111.27 296.75,-97.94 252,-76 224.63,-62.59 196.74,-40.94 179.41,-26.36"/>
<polygon fill="midnightblue" stroke="midnightblue" points="181.67,-23.68 171.8,-19.83 177.11,-29 181.67,-23.68"/>
</g>
<!-- Node21&#45;&gt;Node8 -->
<g id="edge31" class="edge">
<title>Node21&#45;&gt;Node8</title>
<path fill="none" stroke="midnightblue" d="M425.55,-118.19C462.62,-112.74 542.79,-99.18 607,-76 625.32,-69.38 627.31,-61.48 646,-56 801.86,-10.29 853.36,-54.54 1015.92,-19.68"/>
<polygon fill="midnightblue" stroke="midnightblue" points="1016.76,-23.08 1025.77,-17.5 1015.25,-16.24 1016.76,-23.08"/>
</g>
<!-- Node21&#45;&gt;Node9 -->
<g id="edge32" class="edge">
<title>Node21&#45;&gt;Node9</title>
<path fill="none" stroke="midnightblue" d="M425.86,-119.25C475.24,-114.85 603.19,-101.94 718.77,-75.94"/>
<polygon fill="midnightblue" stroke="midnightblue" points="719.87,-79.27 728.84,-73.63 718.31,-72.45 719.87,-79.27"/>
</g>
<!-- Node21&#45;&gt;Node14 -->
<g id="edge41" class="edge">
<title>Node21&#45;&gt;Node14</title>
<path fill="none" stroke="midnightblue" d="M425.56,-114.27C452.73,-105.38 501.01,-89.58 534.22,-78.71"/>
<polygon fill="midnightblue" stroke="midnightblue" points="535.59,-81.94 544.01,-75.51 533.41,-75.29 535.59,-81.94"/>
</g>
<!-- Node22 -->
<g id="node22" class="node">
<title>Node22</title>
<g id="a_node22"><a xlink:title=" ">
<polygon fill="white" stroke="#bfbfbf" points="204,-0.5 204,-19.5 264,-19.5 264,-0.5 204,-0.5"/>
<text text-anchor="middle" x="234" y="-7.5" font-family="Helvetica,sans-Serif" font-size="10.00">iostream</text>
</a>
</g>
</g>
<!-- Node21&#45;&gt;Node22 -->
<g id="edge26" class="edge">
<title>Node21&#45;&gt;Node22</title>
<path fill="none" stroke="midnightblue" d="M406.54,-112.21C408.41,-98.45 409.8,-71.78 396,-56 391.88,-51.29 320.64,-32.71 274.02,-20.95"/>
<polygon fill="midnightblue" stroke="midnightblue" points="274.74,-17.52 264.19,-18.48 273.03,-24.31 274.74,-17.52"/>
</g>
<!-- Node23 -->
<g id="node23" class="node">
<title>Node23</title>
<g id="a_node23"><a xlink:title=" ">
<polygon fill="white" stroke="#bfbfbf" points="261.5,-56.5 261.5,-75.5 316.5,-75.5 316.5,-56.5 261.5,-56.5"/>
<text text-anchor="middle" x="289" y="-63.5" font-family="Helvetica,sans-Serif" font-size="10.00">fstream</text>
</a>
</g>
</g>
<!-- Node21&#45;&gt;Node23 -->
<g id="edge28" class="edge">
<title>Node21&#45;&gt;Node23</title>
<path fill="none" stroke="midnightblue" d="M386.62,-112.44C367.78,-103.68 338.27,-89.94 316.62,-79.86"/>
<polygon fill="midnightblue" stroke="midnightblue" points="317.84,-76.56 307.29,-75.52 314.88,-82.91 317.84,-76.56"/>
</g>
<!-- Node24 -->
<g id="node24" class="node">
<title>Node24</title>
<g id="a_node24"><a xlink:title=" ">
<polygon fill="white" stroke="#bfbfbf" points="334.5,-56.5 334.5,-75.5 387.5,-75.5 387.5,-56.5 334.5,-56.5"/>
<text text-anchor="middle" x="361" y="-63.5" font-family="Helvetica,sans-Serif" font-size="10.00">cstdarg</text>
</a>
</g>
</g>
<!-- Node21&#45;&gt;Node24 -->
<g id="edge30" class="edge">
<title>Node21&#45;&gt;Node24</title>
<path fill="none" stroke="midnightblue" d="M397.73,-112.08C391.46,-104.38 382.21,-93.03 374.57,-83.65"/>
<polygon fill="midnightblue" stroke="midnightblue" points="377.16,-81.29 368.13,-75.75 371.73,-85.71 377.16,-81.29"/>
</g>
<!-- Node21&#45;&gt;Node25 -->
<g id="edge33" class="edge">
<title>Node21&#45;&gt;Node25</title>
<path fill="none" stroke="midnightblue" d="M420.75,-112.32C436.32,-103.74 460.38,-90.49 478.46,-80.52"/>
<polygon fill="midnightblue" stroke="midnightblue" points="480.22,-83.55 487.29,-75.65 476.85,-77.42 480.22,-83.55"/>
</g>
<!-- Node29 -->
<g id="node29" class="node">
<title>Node29</title>
<g id="a_node29"><a xlink:href="singleton_8h.html" target="_top" xlink:title="单例模式封装">
<polygon fill="white" stroke="black" points="95.5,-56.5 95.5,-75.5 166.5,-75.5 166.5,-56.5 95.5,-56.5"/>
<text text-anchor="middle" x="131" y="-63.5" font-family="Helvetica,sans-Serif" font-size="10.00">singleton.h</text>
</a>
</g>
</g>
<!-- Node21&#45;&gt;Node29 -->
<g id="edge42" class="edge">
<title>Node21&#45;&gt;Node29</title>
<path fill="none" stroke="midnightblue" d="M384.41,-116.94C340.52,-108.29 236.9,-87.87 176.63,-75.99"/>
<polygon fill="midnightblue" stroke="midnightblue" points="177.11,-72.52 166.63,-74.02 175.76,-79.39 177.11,-72.52"/>
</g>
<!-- Node25&#45;&gt;Node3 -->
<g id="edge38" class="edge">
<title>Node25&#45;&gt;Node3</title>
<path fill="none" stroke="midnightblue" d="M482.12,-62.94C416.59,-56.41 214.8,-35.76 130.2,-19.89"/>
<polygon fill="midnightblue" stroke="midnightblue" points="130.73,-16.43 120.24,-17.93 129.38,-23.29 130.73,-16.43"/>
</g>
<!-- Node25&#45;&gt;Node7 -->
<g id="edge39" class="edge">
<title>Node25&#45;&gt;Node7</title>
<path fill="none" stroke="midnightblue" d="M482.37,-59.25C477.67,-58.07 472.68,-56.91 468,-56 351.02,-33.33 316.77,-43.58 195.73,-19.88"/>
<polygon fill="midnightblue" stroke="midnightblue" points="196.19,-16.4 185.7,-17.88 194.82,-23.27 196.19,-16.4"/>
</g>
<!-- Node25&#45;&gt;Node18 -->
<g id="edge35" class="edge">
<title>Node25&#45;&gt;Node18</title>
<path fill="none" stroke="midnightblue" d="M512.32,-56.32C520.89,-48.34 533.81,-36.31 544.19,-26.65"/>
<polygon fill="midnightblue" stroke="midnightblue" points="546.58,-29.21 551.51,-19.83 541.81,-24.09 546.58,-29.21"/>
</g>
<!-- Node25&#45;&gt;Node22 -->
<g id="edge40" class="edge">
<title>Node25&#45;&gt;Node22</title>
<path fill="none" stroke="midnightblue" d="M482.33,-59.43C477.63,-58.24 472.66,-57.03 468,-56 385.05,-37.7 361.01,-37.87 274.23,-20.18"/>
<polygon fill="midnightblue" stroke="midnightblue" points="274.71,-16.7 264.2,-18.11 273.29,-23.56 274.71,-16.7"/>
</g>
<!-- Node26 -->
<g id="node26" class="node">
<title>Node26</title>
<g id="a_node26"><a xlink:title=" ">
<polygon fill="white" stroke="#bfbfbf" points="358,-0.5 358,-19.5 430,-19.5 430,-0.5 358,-0.5"/>
<text text-anchor="middle" x="394" y="-7.5" font-family="Helvetica,sans-Serif" font-size="10.00">sys/types.h</text>
</a>
</g>
</g>
<!-- Node25&#45;&gt;Node26 -->
<g id="edge34" class="edge">
<title>Node25&#45;&gt;Node26</title>
<path fill="none" stroke="midnightblue" d="M485.49,-56.32C467.93,-47.62 440.67,-34.12 420.47,-24.11"/>
<polygon fill="midnightblue" stroke="midnightblue" points="421.98,-20.96 411.47,-19.65 418.88,-27.23 421.98,-20.96"/>
</g>
<!-- Node27 -->
<g id="node27" class="node">
<title>Node27</title>
<g id="a_node27"><a xlink:title=" ">
<polygon fill="white" stroke="#bfbfbf" points="448,-0.5 448,-19.5 516,-19.5 516,-0.5 448,-0.5"/>
<text text-anchor="middle" x="482" y="-7.5" font-family="Helvetica,sans-Serif" font-size="10.00">sys/time.h</text>
</a>
</g>
</g>
<!-- Node25&#45;&gt;Node27 -->
<g id="edge36" class="edge">
<title>Node25&#45;&gt;Node27</title>
<path fill="none" stroke="midnightblue" d="M499.53,-56.08C496.69,-48.77 492.57,-38.18 489.04,-29.1"/>
<polygon fill="midnightblue" stroke="midnightblue" points="492.29,-27.8 485.4,-19.75 485.77,-30.34 492.29,-27.8"/>
</g>
<!-- Node28 -->
<g id="node28" class="node">
<title>Node28</title>
<g id="a_node28"><a xlink:title=" ">
<polygon fill="white" stroke="#bfbfbf" points="282,-0.5 282,-19.5 340,-19.5 340,-0.5 282,-0.5"/>
<text text-anchor="middle" x="311" y="-7.5" font-family="Helvetica,sans-Serif" font-size="10.00">cxxabi.h</text>
</a>
</g>
</g>
<!-- Node25&#45;&gt;Node28 -->
<g id="edge37" class="edge">
<title>Node25&#45;&gt;Node28</title>
<path fill="none" stroke="midnightblue" d="M482.45,-59.22C450.88,-50.34 389.9,-33.19 349.83,-21.92"/>
<polygon fill="midnightblue" stroke="midnightblue" points="350.7,-18.53 340.12,-19.19 348.8,-25.27 350.7,-18.53"/>
</g>
<!-- Node29&#45;&gt;Node2 -->
<g id="edge43" class="edge">
<title>Node29&#45;&gt;Node2</title>
<path fill="none" stroke="midnightblue" d="M114.61,-56.32C98.33,-47.7 73.13,-34.36 54.28,-24.39"/>
<polygon fill="midnightblue" stroke="midnightblue" points="55.82,-21.24 45.35,-19.65 52.55,-27.43 55.82,-21.24"/>
</g>
</g>
</svg>
