<?xml version="1.0" encoding="UTF-8" standalone="no"?>
<!DOCTYPE svg PUBLIC "-//W3C//DTD SVG 1.1//EN"
 "http://www.w3.org/Graphics/SVG/1.1/DTD/svg11.dtd">
<!-- Generated by graphviz version 2.43.0 (0)
 -->
<!-- Title: sylar/config.cc Pages: 1 -->
<svg width="1263pt" height="252pt"
 viewBox="0.00 0.00 1262.50 252.00" xmlns="http://www.w3.org/2000/svg" xmlns:xlink="http://www.w3.org/1999/xlink">
<g id="graph0" class="graph" transform="scale(1 1) rotate(0) translate(4 248)">
<title>sylar/config.cc</title>
<polygon fill="white" stroke="transparent" points="-4,4 -4,-248 1258.5,-248 1258.5,4 -4,4"/>
<!-- Node1 -->
<g id="node1" class="node">
<title>Node1</title>
<g id="a_node1"><a xlink:title="配置模块实现">
<polygon fill="#bfbfbf" stroke="black" points="1007.5,-224.5 1007.5,-243.5 1093.5,-243.5 1093.5,-224.5 1007.5,-224.5"/>
<text text-anchor="middle" x="1050.5" y="-231.5" font-family="Helvetica,sans-Serif" font-size="10.00">sylar/config.cc</text>
</a>
</g>
</g>
<!-- Node2 -->
<g id="node2" class="node">
<title>Node2</title>
<g id="a_node2"><a xlink:href="config_8h.html" target="_top" xlink:title="配置模块">
<polygon fill="white" stroke="black" points="628.5,-168.5 628.5,-187.5 710.5,-187.5 710.5,-168.5 628.5,-168.5"/>
<text text-anchor="middle" x="669.5" y="-175.5" font-family="Helvetica,sans-Serif" font-size="10.00">sylar/config.h</text>
</a>
</g>
</g>
<!-- Node1&#45;&gt;Node2 -->
<g id="edge1" class="edge">
<title>Node1&#45;&gt;Node2</title>
<path fill="none" stroke="midnightblue" d="M1007.17,-226.86C936.47,-216.84 796.65,-197.02 721,-186.3"/>
<polygon fill="midnightblue" stroke="midnightblue" points="721.16,-182.79 710.77,-184.85 720.18,-189.72 721.16,-182.79"/>
</g>
<!-- Node26 -->
<g id="node26" class="node">
<title>Node26</title>
<g id="a_node26"><a xlink:href="util_8h.html" target="_top" xlink:title="util函数">
<polygon fill="white" stroke="black" points="930,-56.5 930,-75.5 971,-75.5 971,-56.5 930,-56.5"/>
<text text-anchor="middle" x="950.5" y="-63.5" font-family="Helvetica,sans-Serif" font-size="10.00">util.h</text>
</a>
</g>
</g>
<!-- Node1&#45;&gt;Node26 -->
<g id="edge51" class="edge">
<title>Node1&#45;&gt;Node26</title>
<path fill="none" stroke="midnightblue" d="M1045.12,-224.08C1029.18,-197.61 981.95,-119.21 960.87,-84.21"/>
<polygon fill="midnightblue" stroke="midnightblue" points="963.82,-82.33 955.66,-75.57 957.82,-85.94 963.82,-82.33"/>
</g>
<!-- Node27 -->
<g id="node27" class="node">
<title>Node27</title>
<g id="a_node27"><a xlink:title=" ">
<polygon fill="white" stroke="#bfbfbf" points="1068.5,-0.5 1068.5,-19.5 1140.5,-19.5 1140.5,-0.5 1068.5,-0.5"/>
<text text-anchor="middle" x="1104.5" y="-7.5" font-family="Helvetica,sans-Serif" font-size="10.00">sys/types.h</text>
</a>
</g>
</g>
<!-- Node1&#45;&gt;Node27 -->
<g id="edge52" class="edge">
<title>Node1&#45;&gt;Node27</title>
<path fill="none" stroke="midnightblue" d="M1052.62,-224.3C1060.58,-191.56 1088.84,-75.38 1099.96,-29.67"/>
<polygon fill="midnightblue" stroke="midnightblue" points="1103.38,-30.43 1102.34,-19.88 1096.57,-28.77 1103.38,-30.43"/>
</g>
<!-- Node31 -->
<g id="node31" class="node">
<title>Node31</title>
<g id="a_node31"><a xlink:href="env_8h.html" target="_top" xlink:title="环境变量管理">
<polygon fill="white" stroke="black" points="136.5,-112.5 136.5,-131.5 206.5,-131.5 206.5,-112.5 136.5,-112.5"/>
<text text-anchor="middle" x="171.5" y="-119.5" font-family="Helvetica,sans-Serif" font-size="10.00">sylar/env.h</text>
</a>
</g>
</g>
<!-- Node1&#45;&gt;Node31 -->
<g id="edge46" class="edge">
<title>Node1&#45;&gt;Node31</title>
<path fill="none" stroke="midnightblue" d="M1007.26,-229.29C884.7,-218.45 524.51,-184.36 216.54,-132.08"/>
<polygon fill="midnightblue" stroke="midnightblue" points="216.97,-128.61 206.53,-130.38 215.79,-135.51 216.97,-128.61"/>
</g>
<!-- Node32 -->
<g id="node32" class="node">
<title>Node32</title>
<g id="a_node32"><a xlink:title=" ">
<polygon fill="white" stroke="#bfbfbf" points="1116.5,-168.5 1116.5,-187.5 1180.5,-187.5 1180.5,-168.5 1116.5,-168.5"/>
<text text-anchor="middle" x="1148.5" y="-175.5" font-family="Helvetica,sans-Serif" font-size="10.00">sys/stat.h</text>
</a>
</g>
</g>
<!-- Node1&#45;&gt;Node32 -->
<g id="edge53" class="edge">
<title>Node1&#45;&gt;Node32</title>
<path fill="none" stroke="midnightblue" d="M1066.25,-224.32C1081.82,-215.74 1105.88,-202.49 1123.96,-192.52"/>
<polygon fill="midnightblue" stroke="midnightblue" points="1125.72,-195.55 1132.79,-187.65 1122.35,-189.42 1125.72,-195.55"/>
</g>
<!-- Node33 -->
<g id="node33" class="node">
<title>Node33</title>
<g id="a_node33"><a xlink:title=" ">
<polygon fill="white" stroke="#bfbfbf" points="1198.5,-168.5 1198.5,-187.5 1254.5,-187.5 1254.5,-168.5 1198.5,-168.5"/>
<text text-anchor="middle" x="1226.5" y="-175.5" font-family="Helvetica,sans-Serif" font-size="10.00">unistd.h</text>
</a>
</g>
</g>
<!-- Node1&#45;&gt;Node33 -->
<g id="edge54" class="edge">
<title>Node1&#45;&gt;Node33</title>
<path fill="none" stroke="midnightblue" d="M1078.39,-224.44C1108.25,-215.28 1155.81,-200.69 1188.96,-190.52"/>
<polygon fill="midnightblue" stroke="midnightblue" points="1190.21,-193.8 1198.74,-187.52 1188.16,-187.1 1190.21,-193.8"/>
</g>
<!-- Node3 -->
<g id="node3" class="node">
<title>Node3</title>
<g id="a_node3"><a xlink:title=" ">
<polygon fill="white" stroke="#bfbfbf" points="83.5,-0.5 83.5,-19.5 141.5,-19.5 141.5,-0.5 83.5,-0.5"/>
<text text-anchor="middle" x="112.5" y="-7.5" font-family="Helvetica,sans-Serif" font-size="10.00">memory</text>
</a>
</g>
</g>
<!-- Node2&#45;&gt;Node3 -->
<g id="edge2" class="edge">
<title>Node2&#45;&gt;Node3</title>
<path fill="none" stroke="midnightblue" d="M628.45,-176.72C506.52,-175.46 152.72,-168.66 117.5,-132 91.37,-104.8 99.4,-56.31 106.55,-29.72"/>
<polygon fill="midnightblue" stroke="midnightblue" points="110.01,-30.37 109.46,-19.79 103.29,-28.41 110.01,-30.37"/>
</g>
<!-- Node4 -->
<g id="node4" class="node">
<title>Node4</title>
<g id="a_node4"><a xlink:title=" ">
<polygon fill="white" stroke="#bfbfbf" points="1006.5,-0.5 1006.5,-19.5 1050.5,-19.5 1050.5,-0.5 1006.5,-0.5"/>
<text text-anchor="middle" x="1028.5" y="-7.5" font-family="Helvetica,sans-Serif" font-size="10.00">string</text>
</a>
</g>
</g>
<!-- Node2&#45;&gt;Node4 -->
<g id="edge3" class="edge">
<title>Node2&#45;&gt;Node4</title>
<path fill="none" stroke="midnightblue" d="M710.77,-173.83C779.11,-168.03 912.31,-154.22 953.5,-132 983.13,-116.02 987.01,-104.77 1004.5,-76 1013.29,-61.54 1019.66,-43.36 1023.62,-29.9"/>
<polygon fill="midnightblue" stroke="midnightblue" points="1027.1,-30.46 1026.38,-19.89 1020.35,-28.6 1027.1,-30.46"/>
</g>
<!-- Node5 -->
<g id="node5" class="node">
<title>Node5</title>
<g id="a_node5"><a xlink:title=" ">
<polygon fill="white" stroke="#bfbfbf" points="851.5,-56.5 851.5,-75.5 907.5,-75.5 907.5,-56.5 851.5,-56.5"/>
<text text-anchor="middle" x="879.5" y="-63.5" font-family="Helvetica,sans-Serif" font-size="10.00">sstream</text>
</a>
</g>
</g>
<!-- Node2&#45;&gt;Node5 -->
<g id="edge4" class="edge">
<title>Node2&#45;&gt;Node5</title>
<path fill="none" stroke="midnightblue" d="M710.68,-175.68C774.23,-172.68 891.63,-162.99 917.5,-132 930.48,-116.45 913.82,-95.9 898.65,-82.11"/>
<polygon fill="midnightblue" stroke="midnightblue" points="900.88,-79.42 891.01,-75.58 896.33,-84.74 900.88,-79.42"/>
</g>
<!-- Node6 -->
<g id="node6" class="node">
<title>Node6</title>
<g id="a_node6"><a xlink:title=" ">
<polygon fill="white" stroke="#bfbfbf" points="491,-112.5 491,-131.5 616,-131.5 616,-112.5 491,-112.5"/>
<text text-anchor="middle" x="553.5" y="-119.5" font-family="Helvetica,sans-Serif" font-size="10.00">boost/lexical_cast.hpp</text>
</a>
</g>
</g>
<!-- Node2&#45;&gt;Node6 -->
<g id="edge5" class="edge">
<title>Node2&#45;&gt;Node6</title>
<path fill="none" stroke="midnightblue" d="M651.12,-168.44C632.28,-159.68 602.77,-145.94 581.12,-135.86"/>
<polygon fill="midnightblue" stroke="midnightblue" points="582.34,-132.56 571.79,-131.52 579.38,-138.91 582.34,-132.56"/>
</g>
<!-- Node7 -->
<g id="node7" class="node">
<title>Node7</title>
<g id="a_node7"><a xlink:title=" ">
<polygon fill="white" stroke="#bfbfbf" points="809,-112.5 809,-131.5 908,-131.5 908,-112.5 809,-112.5"/>
<text text-anchor="middle" x="858.5" y="-119.5" font-family="Helvetica,sans-Serif" font-size="10.00">yaml&#45;cpp/yaml.h</text>
</a>
</g>
</g>
<!-- Node2&#45;&gt;Node7 -->
<g id="edge6" class="edge">
<title>Node2&#45;&gt;Node7</title>
<path fill="none" stroke="midnightblue" d="M699.45,-168.44C731.66,-159.24 783.03,-144.56 818.64,-134.39"/>
<polygon fill="midnightblue" stroke="midnightblue" points="820.04,-137.63 828.69,-131.52 818.12,-130.9 820.04,-137.63"/>
</g>
<!-- Node8 -->
<g id="node8" class="node">
<title>Node8</title>
<g id="a_node8"><a xlink:title=" ">
<polygon fill="white" stroke="#bfbfbf" points="701,-0.5 701,-19.5 748,-19.5 748,-0.5 701,-0.5"/>
<text text-anchor="middle" x="724.5" y="-7.5" font-family="Helvetica,sans-Serif" font-size="10.00">vector</text>
</a>
</g>
</g>
<!-- Node2&#45;&gt;Node8 -->
<g id="edge7" class="edge">
<title>Node2&#45;&gt;Node8</title>
<path fill="none" stroke="midnightblue" d="M704.51,-168.45C723.43,-161.84 745.18,-150.59 756.5,-132 774.06,-103.15 766.77,-88.18 756.5,-56 753.16,-45.54 746.4,-35.43 739.95,-27.45"/>
<polygon fill="midnightblue" stroke="midnightblue" points="742.44,-24.98 733.25,-19.71 737.15,-29.56 742.44,-24.98"/>
</g>
<!-- Node9 -->
<g id="node9" class="node">
<title>Node9</title>
<g id="a_node9"><a xlink:title=" ">
<polygon fill="white" stroke="#bfbfbf" points="579.5,-0.5 579.5,-19.5 611.5,-19.5 611.5,-0.5 579.5,-0.5"/>
<text text-anchor="middle" x="595.5" y="-7.5" font-family="Helvetica,sans-Serif" font-size="10.00">list</text>
</a>
</g>
</g>
<!-- Node2&#45;&gt;Node9 -->
<g id="edge8" class="edge">
<title>Node2&#45;&gt;Node9</title>
<path fill="none" stroke="midnightblue" d="M686.13,-168.46C698.99,-160.84 715.84,-148.36 723.5,-132 727.27,-123.95 726.11,-120.5 723.5,-112 714.67,-83.25 708.13,-75.81 685.5,-56 675.21,-46.99 643.82,-32.16 621,-22"/>
<polygon fill="midnightblue" stroke="midnightblue" points="622.4,-18.79 611.84,-17.97 619.58,-25.2 622.4,-18.79"/>
</g>
<!-- Node10 -->
<g id="node10" class="node">
<title>Node10</title>
<g id="a_node10"><a xlink:title=" ">
<polygon fill="white" stroke="#bfbfbf" points="131.5,-56.5 131.5,-75.5 169.5,-75.5 169.5,-56.5 131.5,-56.5"/>
<text text-anchor="middle" x="150.5" y="-63.5" font-family="Helvetica,sans-Serif" font-size="10.00">map</text>
</a>
</g>
</g>
<!-- Node2&#45;&gt;Node10 -->
<g id="edge9" class="edge">
<title>Node2&#45;&gt;Node10</title>
<path fill="none" stroke="midnightblue" d="M628.27,-176.71C507.56,-175.45 161.23,-168.65 127.5,-132 115.15,-118.58 125.65,-98.11 136.17,-83.73"/>
<polygon fill="midnightblue" stroke="midnightblue" points="139.08,-85.7 142.53,-75.69 133.58,-81.37 139.08,-85.7"/>
</g>
<!-- Node11 -->
<g id="node11" class="node">
<title>Node11</title>
<g id="a_node11"><a xlink:title=" ">
<polygon fill="white" stroke="#bfbfbf" points="224.5,-112.5 224.5,-131.5 256.5,-131.5 256.5,-112.5 224.5,-112.5"/>
<text text-anchor="middle" x="240.5" y="-119.5" font-family="Helvetica,sans-Serif" font-size="10.00">set</text>
</a>
</g>
</g>
<!-- Node2&#45;&gt;Node11 -->
<g id="edge10" class="edge">
<title>Node2&#45;&gt;Node11</title>
<path fill="none" stroke="midnightblue" d="M628.39,-175.42C554.93,-171.93 396.63,-161.4 266.5,-132 266.4,-131.98 266.3,-131.95 266.19,-131.93"/>
<polygon fill="midnightblue" stroke="midnightblue" points="267.14,-128.56 256.57,-129.18 265.22,-135.29 267.14,-128.56"/>
</g>
<!-- Node12 -->
<g id="node12" class="node">
<title>Node12</title>
<g id="a_node12"><a xlink:title=" ">
<polygon fill="white" stroke="#bfbfbf" points="275,-112.5 275,-131.5 368,-131.5 368,-112.5 275,-112.5"/>
<text text-anchor="middle" x="321.5" y="-119.5" font-family="Helvetica,sans-Serif" font-size="10.00">unordered_map</text>
</a>
</g>
</g>
<!-- Node2&#45;&gt;Node12 -->
<g id="edge11" class="edge">
<title>Node2&#45;&gt;Node12</title>
<path fill="none" stroke="midnightblue" d="M628.38,-170.75C573.78,-162.43 474.05,-147.17 378.39,-132.13"/>
<polygon fill="midnightblue" stroke="midnightblue" points="378.67,-128.63 368.25,-130.54 377.58,-135.55 378.67,-128.63"/>
</g>
<!-- Node13 -->
<g id="node13" class="node">
<title>Node13</title>
<g id="a_node13"><a xlink:title=" ">
<polygon fill="white" stroke="#bfbfbf" points="386.5,-112.5 386.5,-131.5 472.5,-131.5 472.5,-112.5 386.5,-112.5"/>
<text text-anchor="middle" x="429.5" y="-119.5" font-family="Helvetica,sans-Serif" font-size="10.00">unordered_set</text>
</a>
</g>
</g>
<!-- Node2&#45;&gt;Node13 -->
<g id="edge12" class="edge">
<title>Node2&#45;&gt;Node13</title>
<path fill="none" stroke="midnightblue" d="M631.47,-168.44C589.69,-159.04 522.52,-143.93 477.23,-133.74"/>
<polygon fill="midnightblue" stroke="midnightblue" points="477.88,-130.3 467.35,-131.52 476.34,-137.13 477.88,-130.3"/>
</g>
<!-- Node14 -->
<g id="node14" class="node">
<title>Node14</title>
<g id="a_node14"><a xlink:title=" ">
<polygon fill="white" stroke="#bfbfbf" points="0,-0.5 0,-19.5 65,-19.5 65,-0.5 0,-0.5"/>
<text text-anchor="middle" x="32.5" y="-7.5" font-family="Helvetica,sans-Serif" font-size="10.00">functional</text>
</a>
</g>
</g>
<!-- Node2&#45;&gt;Node14 -->
<g id="edge13" class="edge">
<title>Node2&#45;&gt;Node14</title>
<path fill="none" stroke="midnightblue" d="M628.34,-175.96C505.07,-172.56 144.7,-160.26 100.5,-132 63.56,-108.38 44.78,-57.22 37.01,-29.59"/>
<polygon fill="midnightblue" stroke="midnightblue" points="40.32,-28.44 34.4,-19.65 33.55,-30.21 40.32,-28.44"/>
</g>
<!-- Node15 -->
<g id="node15" class="node">
<title>Node15</title>
<g id="a_node15"><a xlink:href="mutex_8h.html" target="_top" xlink:title="信号量，互斥锁，读写锁，范围锁模板，自旋锁，原子锁">
<polygon fill="white" stroke="black" points="350,-56.5 350,-75.5 407,-75.5 407,-56.5 350,-56.5"/>
<text text-anchor="middle" x="378.5" y="-63.5" font-family="Helvetica,sans-Serif" font-size="10.00">mutex.h</text>
</a>
</g>
</g>
<!-- Node2&#45;&gt;Node15 -->
<g id="edge14" class="edge">
<title>Node2&#45;&gt;Node15</title>
<path fill="none" stroke="midnightblue" d="M666.19,-168.18C660.34,-153.89 646.73,-125.85 625.5,-112 591.77,-90 478.01,-76.31 417.35,-70.4"/>
<polygon fill="midnightblue" stroke="midnightblue" points="417.67,-66.91 407.39,-69.45 417.01,-73.88 417.67,-66.91"/>
</g>
<!-- Node22 -->
<g id="node22" class="node">
<title>Node22</title>
<g id="a_node22"><a xlink:href="log_8h.html" target="_top" xlink:title="日志模块">
<polygon fill="white" stroke="black" points="673,-112.5 673,-131.5 714,-131.5 714,-112.5 673,-112.5"/>
<text text-anchor="middle" x="693.5" y="-119.5" font-family="Helvetica,sans-Serif" font-size="10.00">log.h</text>
</a>
</g>
</g>
<!-- Node2&#45;&gt;Node22 -->
<g id="edge24" class="edge">
<title>Node2&#45;&gt;Node22</title>
<path fill="none" stroke="midnightblue" d="M673.46,-168.08C676.71,-160.77 681.42,-150.18 685.45,-141.1"/>
<polygon fill="midnightblue" stroke="midnightblue" points="688.75,-142.31 689.61,-131.75 682.35,-139.47 688.75,-142.31"/>
</g>
<!-- Node2&#45;&gt;Node26 -->
<g id="edge45" class="edge">
<title>Node2&#45;&gt;Node26</title>
<path fill="none" stroke="midnightblue" d="M710.51,-175.31C776.37,-171.76 901.58,-161.26 933.5,-132 946.24,-120.32 949.93,-100.37 950.77,-85.65"/>
<polygon fill="midnightblue" stroke="midnightblue" points="954.27,-85.7 950.97,-75.63 947.28,-85.56 954.27,-85.7"/>
</g>
<!-- Node15&#45;&gt;Node3 -->
<g id="edge17" class="edge">
<title>Node15&#45;&gt;Node3</title>
<path fill="none" stroke="midnightblue" d="M349.99,-59.73C308.53,-51.99 228.94,-36.84 151.45,-20.14"/>
<polygon fill="midnightblue" stroke="midnightblue" points="152.03,-16.69 141.52,-17.99 150.55,-23.53 152.03,-16.69"/>
</g>
<!-- Node15&#45;&gt;Node9 -->
<g id="edge22" class="edge">
<title>Node15&#45;&gt;Node9</title>
<path fill="none" stroke="midnightblue" d="M407.07,-59.38C442.97,-52.08 506.61,-38.39 569.74,-19.96"/>
<polygon fill="midnightblue" stroke="midnightblue" points="570.86,-23.28 579.45,-17.09 568.87,-16.57 570.86,-23.28"/>
</g>
<!-- Node15&#45;&gt;Node14 -->
<g id="edge16" class="edge">
<title>Node15&#45;&gt;Node14</title>
<path fill="none" stroke="midnightblue" d="M349.9,-61.39C297.53,-54.64 182.54,-39.21 75.06,-19.99"/>
<polygon fill="midnightblue" stroke="midnightblue" points="75.48,-16.51 65.02,-18.18 74.24,-23.4 75.48,-16.51"/>
</g>
<!-- Node16 -->
<g id="node16" class="node">
<title>Node16</title>
<g id="a_node16"><a xlink:title=" ">
<polygon fill="white" stroke="#bfbfbf" points="333.5,-0.5 333.5,-19.5 381.5,-19.5 381.5,-0.5 333.5,-0.5"/>
<text text-anchor="middle" x="357.5" y="-7.5" font-family="Helvetica,sans-Serif" font-size="10.00">thread</text>
</a>
</g>
</g>
<!-- Node15&#45;&gt;Node16 -->
<g id="edge15" class="edge">
<title>Node15&#45;&gt;Node16</title>
<path fill="none" stroke="midnightblue" d="M375.03,-56.08C372.19,-48.77 368.07,-38.18 364.54,-29.1"/>
<polygon fill="midnightblue" stroke="midnightblue" points="367.79,-27.8 360.9,-19.75 361.27,-30.34 367.79,-27.8"/>
</g>
<!-- Node17 -->
<g id="node17" class="node">
<title>Node17</title>
<g id="a_node17"><a xlink:title=" ">
<polygon fill="white" stroke="#bfbfbf" points="400,-0.5 400,-19.5 463,-19.5 463,-0.5 400,-0.5"/>
<text text-anchor="middle" x="431.5" y="-7.5" font-family="Helvetica,sans-Serif" font-size="10.00">pthread.h</text>
</a>
</g>
</g>
<!-- Node15&#45;&gt;Node17 -->
<g id="edge18" class="edge">
<title>Node15&#45;&gt;Node17</title>
<path fill="none" stroke="midnightblue" d="M387.25,-56.08C394.97,-48.22 406.4,-36.57 415.72,-27.08"/>
<polygon fill="midnightblue" stroke="midnightblue" points="418.4,-29.34 422.91,-19.75 413.41,-24.44 418.4,-29.34"/>
</g>
<!-- Node18 -->
<g id="node18" class="node">
<title>Node18</title>
<g id="a_node18"><a xlink:title=" ">
<polygon fill="white" stroke="#bfbfbf" points="481.5,-0.5 481.5,-19.5 561.5,-19.5 561.5,-0.5 481.5,-0.5"/>
<text text-anchor="middle" x="521.5" y="-7.5" font-family="Helvetica,sans-Serif" font-size="10.00">semaphore.h</text>
</a>
</g>
</g>
<!-- Node15&#45;&gt;Node18 -->
<g id="edge19" class="edge">
<title>Node15&#45;&gt;Node18</title>
<path fill="none" stroke="midnightblue" d="M401.16,-56.44C424.9,-47.48 462.41,-33.31 489.24,-23.18"/>
<polygon fill="midnightblue" stroke="midnightblue" points="490.83,-26.32 498.95,-19.52 488.36,-19.77 490.83,-26.32"/>
</g>
<!-- Node19 -->
<g id="node19" class="node">
<title>Node19</title>
<g id="a_node19"><a xlink:title=" ">
<polygon fill="white" stroke="#bfbfbf" points="630,-0.5 630,-19.5 683,-19.5 683,-0.5 630,-0.5"/>
<text text-anchor="middle" x="656.5" y="-7.5" font-family="Helvetica,sans-Serif" font-size="10.00">stdint.h</text>
</a>
</g>
</g>
<!-- Node15&#45;&gt;Node19 -->
<g id="edge20" class="edge">
<title>Node15&#45;&gt;Node19</title>
<path fill="none" stroke="midnightblue" d="M407.3,-60.23C451.03,-52.86 537,-37.88 619.97,-20"/>
<polygon fill="midnightblue" stroke="midnightblue" points="620.78,-23.41 629.81,-17.87 619.29,-16.57 620.78,-23.41"/>
</g>
<!-- Node20 -->
<g id="node20" class="node">
<title>Node20</title>
<g id="a_node20"><a xlink:title=" ">
<polygon fill="white" stroke="#bfbfbf" points="159.5,-0.5 159.5,-19.5 209.5,-19.5 209.5,-0.5 159.5,-0.5"/>
<text text-anchor="middle" x="184.5" y="-7.5" font-family="Helvetica,sans-Serif" font-size="10.00">atomic</text>
</a>
</g>
</g>
<!-- Node15&#45;&gt;Node20 -->
<g id="edge21" class="edge">
<title>Node15&#45;&gt;Node20</title>
<path fill="none" stroke="midnightblue" d="M349.87,-57.03C315.19,-47.38 256.78,-31.12 219.47,-20.73"/>
<polygon fill="midnightblue" stroke="midnightblue" points="220.11,-17.28 209.54,-17.97 218.23,-24.02 220.11,-17.28"/>
</g>
<!-- Node21 -->
<g id="node21" class="node">
<title>Node21</title>
<g id="a_node21"><a xlink:href="noncopyable_8h.html" target="_top" xlink:title="不可拷贝对象封装">
<polygon fill="white" stroke="black" points="227.5,-0.5 227.5,-19.5 315.5,-19.5 315.5,-0.5 227.5,-0.5"/>
<text text-anchor="middle" x="271.5" y="-7.5" font-family="Helvetica,sans-Serif" font-size="10.00">noncopyable.h</text>
</a>
</g>
</g>
<!-- Node15&#45;&gt;Node21 -->
<g id="edge23" class="edge">
<title>Node15&#45;&gt;Node21</title>
<path fill="none" stroke="midnightblue" d="M361.31,-56.32C344.15,-47.66 317.55,-34.24 297.75,-24.25"/>
<polygon fill="midnightblue" stroke="midnightblue" points="299.15,-21.04 288.65,-19.65 296,-27.28 299.15,-21.04"/>
</g>
<!-- Node22&#45;&gt;Node3 -->
<g id="edge26" class="edge">
<title>Node22&#45;&gt;Node3</title>
<path fill="none" stroke="midnightblue" d="M672.97,-118.25C659.48,-116.46 641.44,-114.07 625.5,-112 499.32,-95.65 466.16,-101.44 341.5,-76 332.05,-74.07 214.7,-40.42 151.77,-22.31"/>
<polygon fill="midnightblue" stroke="midnightblue" points="152.37,-18.84 141.8,-19.44 150.44,-25.57 152.37,-18.84"/>
</g>
<!-- Node22&#45;&gt;Node4 -->
<g id="edge25" class="edge">
<title>Node22&#45;&gt;Node4</title>
<path fill="none" stroke="midnightblue" d="M714.43,-118.65C776.68,-111.52 957.7,-89.83 980.5,-76 998.63,-65.01 1012.08,-44.34 1020.06,-29.25"/>
<polygon fill="midnightblue" stroke="midnightblue" points="1023.4,-30.4 1024.7,-19.89 1017.12,-27.29 1023.4,-30.4"/>
</g>
<!-- Node22&#45;&gt;Node5 -->
<g id="edge28" class="edge">
<title>Node22&#45;&gt;Node5</title>
<path fill="none" stroke="midnightblue" d="M714.12,-115.01C744.77,-106.12 802.86,-89.25 841.39,-78.06"/>
<polygon fill="midnightblue" stroke="midnightblue" points="842.59,-81.36 851.22,-75.21 840.64,-74.64 842.59,-81.36"/>
</g>
<!-- Node22&#45;&gt;Node8 -->
<g id="edge30" class="edge">
<title>Node22&#45;&gt;Node8</title>
<path fill="none" stroke="midnightblue" d="M695.93,-112.37C700.96,-94.54 712.58,-53.3 719.35,-29.27"/>
<polygon fill="midnightblue" stroke="midnightblue" points="722.73,-30.17 722.08,-19.59 716,-28.27 722.73,-30.17"/>
</g>
<!-- Node22&#45;&gt;Node9 -->
<g id="edge32" class="edge">
<title>Node22&#45;&gt;Node9</title>
<path fill="none" stroke="midnightblue" d="M672.72,-115.55C632.05,-104.79 545.52,-81.39 541.5,-76 527.89,-57.77 550.58,-37.78 570.58,-24.85"/>
<polygon fill="midnightblue" stroke="midnightblue" points="572.46,-27.8 579.16,-19.6 568.81,-21.83 572.46,-27.8"/>
</g>
<!-- Node22&#45;&gt;Node10 -->
<g id="edge33" class="edge">
<title>Node22&#45;&gt;Node10</title>
<path fill="none" stroke="midnightblue" d="M672.7,-117.97C659.26,-116.08 641.37,-113.69 625.5,-112 427.75,-90.95 374.76,-113.7 179.5,-76 179.4,-75.98 179.3,-75.96 179.2,-75.94"/>
<polygon fill="midnightblue" stroke="midnightblue" points="180.24,-72.59 169.69,-73.6 178.57,-79.39 180.24,-72.59"/>
</g>
<!-- Node22&#45;&gt;Node15 -->
<g id="edge42" class="edge">
<title>Node22&#45;&gt;Node15</title>
<path fill="none" stroke="midnightblue" d="M672.85,-115.35C668.15,-114.16 663.17,-112.97 658.5,-112 573.1,-94.2 471.78,-79.48 417.49,-72.11"/>
<polygon fill="midnightblue" stroke="midnightblue" points="417.66,-68.6 407.28,-70.73 416.72,-75.54 417.66,-68.6"/>
</g>
<!-- Node23 -->
<g id="node23" class="node">
<title>Node23</title>
<g id="a_node23"><a xlink:title=" ">
<polygon fill="white" stroke="#bfbfbf" points="766.5,-0.5 766.5,-19.5 826.5,-19.5 826.5,-0.5 766.5,-0.5"/>
<text text-anchor="middle" x="796.5" y="-7.5" font-family="Helvetica,sans-Serif" font-size="10.00">iostream</text>
</a>
</g>
</g>
<!-- Node22&#45;&gt;Node23 -->
<g id="edge27" class="edge">
<title>Node22&#45;&gt;Node23</title>
<path fill="none" stroke="midnightblue" d="M701.58,-112.37C718.81,-93.97 759.35,-50.67 781.47,-27.05"/>
<polygon fill="midnightblue" stroke="midnightblue" points="784.18,-29.28 788.46,-19.59 779.07,-24.5 784.18,-29.28"/>
</g>
<!-- Node24 -->
<g id="node24" class="node">
<title>Node24</title>
<g id="a_node24"><a xlink:title=" ">
<polygon fill="white" stroke="#bfbfbf" points="621,-56.5 621,-75.5 676,-75.5 676,-56.5 621,-56.5"/>
<text text-anchor="middle" x="648.5" y="-63.5" font-family="Helvetica,sans-Serif" font-size="10.00">fstream</text>
</a>
</g>
</g>
<!-- Node22&#45;&gt;Node24 -->
<g id="edge29" class="edge">
<title>Node22&#45;&gt;Node24</title>
<path fill="none" stroke="midnightblue" d="M686.07,-112.08C679.65,-104.38 670.19,-93.03 662.38,-83.65"/>
<polygon fill="midnightblue" stroke="midnightblue" points="664.88,-81.19 655.79,-75.75 659.51,-85.67 664.88,-81.19"/>
</g>
<!-- Node25 -->
<g id="node25" class="node">
<title>Node25</title>
<g id="a_node25"><a xlink:title=" ">
<polygon fill="white" stroke="#bfbfbf" points="550,-56.5 550,-75.5 603,-75.5 603,-56.5 550,-56.5"/>
<text text-anchor="middle" x="576.5" y="-63.5" font-family="Helvetica,sans-Serif" font-size="10.00">cstdarg</text>
</a>
</g>
</g>
<!-- Node22&#45;&gt;Node25 -->
<g id="edge31" class="edge">
<title>Node22&#45;&gt;Node25</title>
<path fill="none" stroke="midnightblue" d="M674.96,-112.44C655.88,-103.64 625.93,-89.81 604.06,-79.72"/>
<polygon fill="midnightblue" stroke="midnightblue" points="605.5,-76.53 594.95,-75.52 602.57,-82.88 605.5,-76.53"/>
</g>
<!-- Node22&#45;&gt;Node26 -->
<g id="edge34" class="edge">
<title>Node22&#45;&gt;Node26</title>
<path fill="none" stroke="midnightblue" d="M714.19,-117.25C753.67,-110 842.45,-93.25 916.5,-76 917.57,-75.75 918.66,-75.49 919.76,-75.23"/>
<polygon fill="midnightblue" stroke="midnightblue" points="920.85,-78.56 929.69,-72.72 919.14,-71.77 920.85,-78.56"/>
</g>
<!-- Node30 -->
<g id="node30" class="node">
<title>Node30</title>
<g id="a_node30"><a xlink:href="singleton_8h.html" target="_top" xlink:title="单例模式封装">
<polygon fill="white" stroke="black" points="188,-56.5 188,-75.5 259,-75.5 259,-56.5 188,-56.5"/>
<text text-anchor="middle" x="223.5" y="-63.5" font-family="Helvetica,sans-Serif" font-size="10.00">singleton.h</text>
</a>
</g>
</g>
<!-- Node22&#45;&gt;Node30 -->
<g id="edge43" class="edge">
<title>Node22&#45;&gt;Node30</title>
<path fill="none" stroke="midnightblue" d="M672.98,-118.16C659.5,-116.33 641.46,-113.93 625.5,-112 479.47,-94.35 442.61,-93 296.5,-76 287.65,-74.97 278.21,-73.83 269.15,-72.73"/>
<polygon fill="midnightblue" stroke="midnightblue" points="269.49,-69.24 259.13,-71.49 268.63,-76.19 269.49,-69.24"/>
</g>
<!-- Node26&#45;&gt;Node4 -->
<g id="edge39" class="edge">
<title>Node26&#45;&gt;Node4</title>
<path fill="none" stroke="midnightblue" d="M963.03,-56.32C975.09,-47.98 993.53,-35.21 1007.77,-25.35"/>
<polygon fill="midnightblue" stroke="midnightblue" points="1009.77,-28.22 1016,-19.65 1005.78,-22.47 1009.77,-28.22"/>
</g>
<!-- Node26&#45;&gt;Node8 -->
<g id="edge40" class="edge">
<title>Node26&#45;&gt;Node8</title>
<path fill="none" stroke="midnightblue" d="M929.67,-59.36C925.33,-58.22 920.77,-57.05 916.5,-56 849.16,-39.47 829.47,-37.67 758.18,-20.08"/>
<polygon fill="midnightblue" stroke="midnightblue" points="758.81,-16.63 748.26,-17.61 757.12,-23.42 758.81,-16.63"/>
</g>
<!-- Node26&#45;&gt;Node19 -->
<g id="edge36" class="edge">
<title>Node26&#45;&gt;Node19</title>
<path fill="none" stroke="midnightblue" d="M929.72,-59.15C925.37,-58.02 920.8,-56.91 916.5,-56 820.94,-35.73 793.01,-39.95 693.08,-19.95"/>
<polygon fill="midnightblue" stroke="midnightblue" points="693.68,-16.5 683.18,-17.94 692.28,-23.36 693.68,-16.5"/>
</g>
<!-- Node26&#45;&gt;Node23 -->
<g id="edge41" class="edge">
<title>Node26&#45;&gt;Node23</title>
<path fill="none" stroke="midnightblue" d="M929.73,-57.72C904.36,-48.82 861.07,-33.64 830.74,-23.01"/>
<polygon fill="midnightblue" stroke="midnightblue" points="831.59,-19.6 821,-19.59 829.28,-26.2 831.59,-19.6"/>
</g>
<!-- Node26&#45;&gt;Node27 -->
<g id="edge35" class="edge">
<title>Node26&#45;&gt;Node27</title>
<path fill="none" stroke="midnightblue" d="M971.27,-57.72C996.64,-48.82 1039.93,-33.64 1070.26,-23.01"/>
<polygon fill="midnightblue" stroke="midnightblue" points="1071.72,-26.2 1080,-19.59 1069.41,-19.6 1071.72,-26.2"/>
</g>
<!-- Node28 -->
<g id="node28" class="node">
<title>Node28</title>
<g id="a_node28"><a xlink:title=" ">
<polygon fill="white" stroke="#bfbfbf" points="844.5,-0.5 844.5,-19.5 912.5,-19.5 912.5,-0.5 844.5,-0.5"/>
<text text-anchor="middle" x="878.5" y="-7.5" font-family="Helvetica,sans-Serif" font-size="10.00">sys/time.h</text>
</a>
</g>
</g>
<!-- Node26&#45;&gt;Node28 -->
<g id="edge37" class="edge">
<title>Node26&#45;&gt;Node28</title>
<path fill="none" stroke="midnightblue" d="M938.93,-56.32C928.08,-48.18 911.62,-35.84 898.62,-26.09"/>
<polygon fill="midnightblue" stroke="midnightblue" points="900.38,-23.03 890.28,-19.83 896.18,-28.63 900.38,-23.03"/>
</g>
<!-- Node29 -->
<g id="node29" class="node">
<title>Node29</title>
<g id="a_node29"><a xlink:title=" ">
<polygon fill="white" stroke="#bfbfbf" points="930.5,-0.5 930.5,-19.5 988.5,-19.5 988.5,-0.5 930.5,-0.5"/>
<text text-anchor="middle" x="959.5" y="-7.5" font-family="Helvetica,sans-Serif" font-size="10.00">cxxabi.h</text>
</a>
</g>
</g>
<!-- Node26&#45;&gt;Node29 -->
<g id="edge38" class="edge">
<title>Node26&#45;&gt;Node29</title>
<path fill="none" stroke="midnightblue" d="M951.99,-56.08C953.18,-48.93 954.89,-38.64 956.38,-29.69"/>
<polygon fill="midnightblue" stroke="midnightblue" points="959.85,-30.19 958.04,-19.75 952.95,-29.04 959.85,-30.19"/>
</g>
<!-- Node30&#45;&gt;Node3 -->
<g id="edge44" class="edge">
<title>Node30&#45;&gt;Node3</title>
<path fill="none" stroke="midnightblue" d="M205.67,-56.32C187.78,-47.62 160.02,-34.12 139.45,-24.11"/>
<polygon fill="midnightblue" stroke="midnightblue" points="140.81,-20.88 130.29,-19.65 137.75,-27.18 140.81,-20.88"/>
</g>
<!-- Node31&#45;&gt;Node8 -->
<g id="edge50" class="edge">
<title>Node31&#45;&gt;Node8</title>
<path fill="none" stroke="midnightblue" d="M206.55,-113.75C209.57,-113.15 212.59,-112.56 215.5,-112 424.33,-71.95 480.93,-70.76 690.99,-20.24"/>
<polygon fill="midnightblue" stroke="midnightblue" points="691.89,-23.63 700.79,-17.88 690.24,-16.82 691.89,-23.63"/>
</g>
<!-- Node31&#45;&gt;Node10 -->
<g id="edge49" class="edge">
<title>Node31&#45;&gt;Node10</title>
<path fill="none" stroke="midnightblue" d="M168.03,-112.08C165.19,-104.77 161.07,-94.18 157.54,-85.1"/>
<polygon fill="midnightblue" stroke="midnightblue" points="160.79,-83.8 153.9,-75.75 154.27,-86.34 160.79,-83.8"/>
</g>
<!-- Node31&#45;&gt;Node15 -->
<g id="edge48" class="edge">
<title>Node31&#45;&gt;Node15</title>
<path fill="none" stroke="midnightblue" d="M204.3,-112.44C241.14,-102.83 300.86,-87.25 339.91,-77.07"/>
<polygon fill="midnightblue" stroke="midnightblue" points="341.06,-80.38 349.85,-74.47 339.29,-73.61 341.06,-80.38"/>
</g>
<!-- Node31&#45;&gt;Node30 -->
<g id="edge47" class="edge">
<title>Node31&#45;&gt;Node30</title>
<path fill="none" stroke="midnightblue" d="M180.09,-112.08C187.66,-104.22 198.88,-92.57 208.01,-83.08"/>
<polygon fill="midnightblue" stroke="midnightblue" points="210.66,-85.38 215.07,-75.75 205.62,-80.53 210.66,-85.38"/>
</g>
</g>
</svg>
