<?xml version="1.0" encoding="UTF-8" standalone="no"?>
<!DOCTYPE svg PUBLIC "-//W3C//DTD SVG 1.1//EN"
 "http://www.w3.org/Graphics/SVG/1.1/DTD/svg11.dtd">
<!-- Generated by graphviz version 2.43.0 (0)
 -->
<!-- Title: sylar Pages: 1 -->
<svg width="96pt" height="220pt"
 viewBox="0.00 0.00 96.00 220.00" xmlns="http://www.w3.org/2000/svg" xmlns:xlink="http://www.w3.org/1999/xlink">
<g id="graph0" class="graph" transform="scale(1 1) rotate(0) translate(4 216)">
<title>sylar</title>
<polygon fill="white" stroke="transparent" points="-4,4 -4,-216 92,-216 92,4 -4,4"/>
<g id="clust1" class="cluster">
<title>clusterdir_85140288eee94f6c1dbd59c496fa876b</title>
<g id="a_clust1"><a xlink:href="dir_85140288eee94f6c1dbd59c496fa876b.html" target="_top">
<polygon fill="#eeeeff" stroke="black" points="8,-8 8,-204 80,-204 80,-8 8,-8"/>
</a>
</g>
</g>
<!-- dir_85140288eee94f6c1dbd59c496fa876b -->
<g id="node1" class="node">
<title>dir_85140288eee94f6c1dbd59c496fa876b</title>
<text text-anchor="middle" x="44" y="-175.5" font-family="Helvetica,sans-Serif" font-size="10.00">sylar</text>
</g>
<!-- dir_5fdfbf8b0b8272587873e17fac938b86 -->
<g id="node2" class="node">
<title>dir_5fdfbf8b0b8272587873e17fac938b86</title>
<g id="a_node2"><a xlink:href="dir_5fdfbf8b0b8272587873e17fac938b86.html" target="_top" xlink:title="http">
<polygon fill="white" stroke="red" points="71,-124 17,-124 17,-88 71,-88 71,-124"/>
<text text-anchor="middle" x="44" y="-103.5" font-family="Helvetica,sans-Serif" font-size="10.00">http</text>
</a>
</g>
</g>
<!-- dir_85140288eee94f6c1dbd59c496fa876b&#45;&gt;dir_5fdfbf8b0b8272587873e17fac938b86 -->
<g id="edge2" class="edge">
<title>dir_85140288eee94f6c1dbd59c496fa876b&#45;&gt;dir_5fdfbf8b0b8272587873e17fac938b86</title>
<path fill="none" stroke="black" d="M44,-159.7C44,-151.98 44,-142.71 44,-134.11"/>
<polygon fill="black" stroke="black" points="47.5,-134.1 44,-124.1 40.5,-134.1 47.5,-134.1"/>
<g id="a_edge2&#45;headlabel"><a xlink:href="dir_000035_000036.html" target="_top" xlink:title="5">
<text text-anchor="middle" x="50.34" y="-135.2" font-family="Helvetica,sans-Serif" font-size="10.00">5</text>
</a>
</g>
</g>
<!-- dir_5fecf1443bd42aaf252383bf16ba653f -->
<g id="node3" class="node">
<title>dir_5fecf1443bd42aaf252383bf16ba653f</title>
<g id="a_node3"><a xlink:href="dir_5fecf1443bd42aaf252383bf16ba653f.html" target="_top" xlink:title="streams">
<polygon fill="white" stroke="black" points="72,-52 16,-52 16,-16 72,-16 72,-52"/>
<text text-anchor="middle" x="44" y="-31.5" font-family="Helvetica,sans-Serif" font-size="10.00">streams</text>
</a>
</g>
</g>
<!-- dir_5fdfbf8b0b8272587873e17fac938b86&#45;&gt;dir_5fecf1443bd42aaf252383bf16ba653f -->
<g id="edge1" class="edge">
<title>dir_5fdfbf8b0b8272587873e17fac938b86&#45;&gt;dir_5fecf1443bd42aaf252383bf16ba653f</title>
<path fill="none" stroke="black" d="M44,-87.7C44,-79.98 44,-70.71 44,-62.11"/>
<polygon fill="black" stroke="black" points="47.5,-62.1 44,-52.1 40.5,-62.1 47.5,-62.1"/>
<g id="a_edge1&#45;headlabel"><a xlink:href="dir_000036_000038.html" target="_top" xlink:title="1">
<text text-anchor="middle" x="50.34" y="-63.2" font-family="Helvetica,sans-Serif" font-size="10.00">1</text>
</a>
</g>
</g>
</g>
</svg>
