<?xml version="1.0" encoding="UTF-8" standalone="no"?>
<!DOCTYPE svg PUBLIC "-//W3C//DTD SVG 1.1//EN"
 "http://www.w3.org/Graphics/SVG/1.1/DTD/svg11.dtd">
<!-- Generated by graphviz version 2.43.0 (0)
 -->
<!-- Title: sylar/http Pages: 1 -->
<svg width="200pt" height="175pt"
 viewBox="0.00 0.00 200.00 175.00" xmlns="http://www.w3.org/2000/svg" xmlns:xlink="http://www.w3.org/1999/xlink">
<g id="graph0" class="graph" transform="scale(1 1) rotate(0) translate(4 171)">
<title>sylar/http</title>
<polygon fill="white" stroke="transparent" points="-4,4 -4,-171 196,-171 196,4 -4,4"/>
<g id="clust1" class="cluster">
<title>clusterdir_85140288eee94f6c1dbd59c496fa876b</title>
<g id="a_clust1"><a xlink:href="dir_85140288eee94f6c1dbd59c496fa876b.html" target="_top" xlink:title="sylar">
<polygon fill="#ddddee" stroke="black" points="8,-8 8,-159 184,-159 184,-8 8,-8"/>
<text text-anchor="middle" x="96" y="-147" font-family="Helvetica,sans-Serif" font-size="10.00">sylar</text>
</a>
</g>
</g>
<g id="clust2" class="cluster">
<title>clusterdir_5fdfbf8b0b8272587873e17fac938b86</title>
<g id="a_clust2"><a xlink:href="dir_5fdfbf8b0b8272587873e17fac938b86.html" target="_top">
<polygon fill="#eeeeff" stroke="black" points="16,-80 16,-132 176,-132 176,-80 16,-80"/>
</a>
</g>
</g>
<!-- dir_5fecf1443bd42aaf252383bf16ba653f -->
<g id="node1" class="node">
<title>dir_5fecf1443bd42aaf252383bf16ba653f</title>
<g id="a_node1"><a xlink:href="dir_5fecf1443bd42aaf252383bf16ba653f.html" target="_top" xlink:title="streams">
<polygon fill="none" stroke="black" points="169,-52 113,-52 113,-16 169,-16 169,-52"/>
<text text-anchor="middle" x="141" y="-31.5" font-family="Helvetica,sans-Serif" font-size="10.00">streams</text>
</a>
</g>
</g>
<!-- dir_5fdfbf8b0b8272587873e17fac938b86 -->
<g id="node2" class="node">
<title>dir_5fdfbf8b0b8272587873e17fac938b86</title>
<text text-anchor="middle" x="141" y="-103.5" font-family="Helvetica,sans-Serif" font-size="10.00">http</text>
</g>
<!-- dir_5fdfbf8b0b8272587873e17fac938b86&#45;&gt;dir_5fecf1443bd42aaf252383bf16ba653f -->
<g id="edge1" class="edge">
<title>dir_5fdfbf8b0b8272587873e17fac938b86&#45;&gt;dir_5fecf1443bd42aaf252383bf16ba653f</title>
<path fill="none" stroke="black" d="M141,-87.7C141,-79.98 141,-70.71 141,-62.11"/>
<polygon fill="black" stroke="black" points="144.5,-62.1 141,-52.1 137.5,-62.1 144.5,-62.1"/>
<g id="a_edge1&#45;headlabel"><a xlink:href="dir_000036_000038.html" target="_top" xlink:title="1">
<text text-anchor="middle" x="147.34" y="-63.2" font-family="Helvetica,sans-Serif" font-size="10.00">1</text>
</a>
</g>
</g>
<!-- dir_cd48df820a6751a5c343783f7a3ed6a5 -->
<g id="node3" class="node">
<title>dir_cd48df820a6751a5c343783f7a3ed6a5</title>
<g id="a_node3"><a xlink:href="dir_cd48df820a6751a5c343783f7a3ed6a5.html" target="_top" xlink:title="http&#45;parser">
<polygon fill="white" stroke="black" points="95.5,-124 24.5,-124 24.5,-88 95.5,-88 95.5,-124"/>
<text text-anchor="middle" x="60" y="-103.5" font-family="Helvetica,sans-Serif" font-size="10.00">http&#45;parser</text>
</a>
</g>
</g>
</g>
</svg>
