<?xml version="1.0" encoding="UTF-8" standalone="no"?>
<!DOCTYPE svg PUBLIC "-//W3C//DTD SVG 1.1//EN"
 "http://www.w3.org/Graphics/SVG/1.1/DTD/svg11.dtd">
<!-- Generated by graphviz version 2.43.0 (0)
 -->
<!-- Title: sylar/endian.h Pages: 1 -->
<svg width="152pt" height="84pt"
 viewBox="0.00 0.00 152.00 84.00" xmlns="http://www.w3.org/2000/svg" xmlns:xlink="http://www.w3.org/1999/xlink">
<g id="graph0" class="graph" transform="scale(1 1) rotate(0) translate(4 80)">
<title>sylar/endian.h</title>
<polygon fill="white" stroke="transparent" points="-4,4 -4,-80 148,-80 148,4 -4,4"/>
<!-- Node1 -->
<g id="node1" class="node">
<title>Node1</title>
<g id="a_node1"><a xlink:title="字节序操作函数(大端/小端)">
<polygon fill="#bfbfbf" stroke="black" points="33.5,-56.5 33.5,-75.5 119.5,-75.5 119.5,-56.5 33.5,-56.5"/>
<text text-anchor="middle" x="76.5" y="-63.5" font-family="Helvetica,sans-Serif" font-size="10.00">sylar/endian.h</text>
</a>
</g>
</g>
<!-- Node2 -->
<g id="node2" class="node">
<title>Node2</title>
<g id="a_node2"><a xlink:title=" ">
<polygon fill="white" stroke="#bfbfbf" points="0,-0.5 0,-19.5 73,-19.5 73,-0.5 0,-0.5"/>
<text text-anchor="middle" x="36.5" y="-7.5" font-family="Helvetica,sans-Serif" font-size="10.00">byteswap.h</text>
</a>
</g>
</g>
<!-- Node1&#45;&gt;Node2 -->
<g id="edge1" class="edge">
<title>Node1&#45;&gt;Node2</title>
<path fill="none" stroke="midnightblue" d="M69.89,-56.08C64.24,-48.46 55.96,-37.26 49.05,-27.94"/>
<polygon fill="midnightblue" stroke="midnightblue" points="51.75,-25.7 42.98,-19.75 46.12,-29.87 51.75,-25.7"/>
</g>
<!-- Node3 -->
<g id="node3" class="node">
<title>Node3</title>
<g id="a_node3"><a xlink:title=" ">
<polygon fill="white" stroke="#bfbfbf" points="91,-0.5 91,-19.5 144,-19.5 144,-0.5 91,-0.5"/>
<text text-anchor="middle" x="117.5" y="-7.5" font-family="Helvetica,sans-Serif" font-size="10.00">stdint.h</text>
</a>
</g>
</g>
<!-- Node1&#45;&gt;Node3 -->
<g id="edge2" class="edge">
<title>Node1&#45;&gt;Node3</title>
<path fill="none" stroke="midnightblue" d="M83.27,-56.08C89.06,-48.46 97.56,-37.26 104.64,-27.94"/>
<polygon fill="midnightblue" stroke="midnightblue" points="107.6,-29.83 110.86,-19.75 102.02,-25.6 107.6,-29.83"/>
</g>
</g>
</svg>
