<?xml version="1.0" encoding="UTF-8" standalone="no"?>
<!DOCTYPE svg PUBLIC "-//W3C//DTD SVG 1.1//EN"
 "http://www.w3.org/Graphics/SVG/1.1/DTD/svg11.dtd">
<!-- Generated by graphviz version 2.43.0 (0)
 -->
<!-- Title: sylar/env.h Pages: 1 -->
<svg width="691pt" height="140pt"
 viewBox="0.00 0.00 691.00 140.00" xmlns="http://www.w3.org/2000/svg" xmlns:xlink="http://www.w3.org/1999/xlink">
<g id="graph0" class="graph" transform="scale(1 1) rotate(0) translate(4 136)">
<title>sylar/env.h</title>
<polygon fill="white" stroke="transparent" points="-4,4 -4,-136 687,-136 687,4 -4,4"/>
<!-- Node1 -->
<g id="node1" class="node">
<title>Node1</title>
<g id="a_node1"><a xlink:title="环境变量管理">
<polygon fill="#bfbfbf" stroke="black" points="300,-112.5 300,-131.5 370,-131.5 370,-112.5 300,-112.5"/>
<text text-anchor="middle" x="335" y="-119.5" font-family="Helvetica,sans-Serif" font-size="10.00">sylar/env.h</text>
</a>
</g>
</g>
<!-- Node2 -->
<g id="node2" class="node">
<title>Node2</title>
<g id="a_node2"><a xlink:href="singleton_8h.html" target="_top" xlink:title="单例模式封装">
<polygon fill="white" stroke="black" points="111.5,-56.5 111.5,-75.5 182.5,-75.5 182.5,-56.5 111.5,-56.5"/>
<text text-anchor="middle" x="147" y="-63.5" font-family="Helvetica,sans-Serif" font-size="10.00">singleton.h</text>
</a>
</g>
</g>
<!-- Node1&#45;&gt;Node2 -->
<g id="edge1" class="edge">
<title>Node1&#45;&gt;Node2</title>
<path fill="none" stroke="midnightblue" d="M305.21,-112.44C273.17,-103.24 222.07,-88.56 186.65,-78.39"/>
<polygon fill="midnightblue" stroke="midnightblue" points="187.23,-74.91 176.65,-75.52 185.29,-81.64 187.23,-74.91"/>
</g>
<!-- Node4 -->
<g id="node4" class="node">
<title>Node4</title>
<g id="a_node4"><a xlink:href="mutex_8h.html" target="_top" xlink:title="信号量，互斥锁，读写锁，范围锁模板，自旋锁，原子锁">
<polygon fill="white" stroke="black" points="273.5,-56.5 273.5,-75.5 330.5,-75.5 330.5,-56.5 273.5,-56.5"/>
<text text-anchor="middle" x="302" y="-63.5" font-family="Helvetica,sans-Serif" font-size="10.00">mutex.h</text>
</a>
</g>
</g>
<!-- Node1&#45;&gt;Node4 -->
<g id="edge3" class="edge">
<title>Node1&#45;&gt;Node4</title>
<path fill="none" stroke="midnightblue" d="M329.55,-112.08C324.99,-104.61 318.33,-93.72 312.71,-84.52"/>
<polygon fill="midnightblue" stroke="midnightblue" points="315.55,-82.46 307.35,-75.75 309.58,-86.11 315.55,-82.46"/>
</g>
<!-- Node13 -->
<g id="node13" class="node">
<title>Node13</title>
<g id="a_node13"><a xlink:title=" ">
<polygon fill="white" stroke="#bfbfbf" points="349,-56.5 349,-75.5 387,-75.5 387,-56.5 349,-56.5"/>
<text text-anchor="middle" x="368" y="-63.5" font-family="Helvetica,sans-Serif" font-size="10.00">map</text>
</a>
</g>
</g>
<!-- Node1&#45;&gt;Node13 -->
<g id="edge13" class="edge">
<title>Node1&#45;&gt;Node13</title>
<path fill="none" stroke="midnightblue" d="M340.45,-112.08C345.01,-104.61 351.67,-93.72 357.29,-84.52"/>
<polygon fill="midnightblue" stroke="midnightblue" points="360.42,-86.11 362.65,-75.75 354.45,-82.46 360.42,-86.11"/>
</g>
<!-- Node14 -->
<g id="node14" class="node">
<title>Node14</title>
<g id="a_node14"><a xlink:title=" ">
<polygon fill="white" stroke="#bfbfbf" points="405.5,-56.5 405.5,-75.5 452.5,-75.5 452.5,-56.5 405.5,-56.5"/>
<text text-anchor="middle" x="429" y="-63.5" font-family="Helvetica,sans-Serif" font-size="10.00">vector</text>
</a>
</g>
</g>
<!-- Node1&#45;&gt;Node14 -->
<g id="edge14" class="edge">
<title>Node1&#45;&gt;Node14</title>
<path fill="none" stroke="midnightblue" d="M350.1,-112.32C364.9,-103.82 387.69,-90.73 404.98,-80.8"/>
<polygon fill="midnightblue" stroke="midnightblue" points="407.01,-83.67 413.93,-75.65 403.52,-77.6 407.01,-83.67"/>
</g>
<!-- Node3 -->
<g id="node3" class="node">
<title>Node3</title>
<g id="a_node3"><a xlink:title=" ">
<polygon fill="white" stroke="#bfbfbf" points="0,-0.5 0,-19.5 58,-19.5 58,-0.5 0,-0.5"/>
<text text-anchor="middle" x="29" y="-7.5" font-family="Helvetica,sans-Serif" font-size="10.00">memory</text>
</a>
</g>
</g>
<!-- Node2&#45;&gt;Node3 -->
<g id="edge2" class="edge">
<title>Node2&#45;&gt;Node3</title>
<path fill="none" stroke="midnightblue" d="M128.3,-56.44C109.06,-47.64 78.85,-33.81 56.8,-23.72"/>
<polygon fill="midnightblue" stroke="midnightblue" points="58.16,-20.5 47.61,-19.52 55.25,-26.86 58.16,-20.5"/>
</g>
<!-- Node4&#45;&gt;Node3 -->
<g id="edge6" class="edge">
<title>Node4&#45;&gt;Node3</title>
<path fill="none" stroke="midnightblue" d="M273.34,-59.93C230.82,-52.31 148.27,-37.18 68.26,-20.2"/>
<polygon fill="midnightblue" stroke="midnightblue" points="68.53,-16.67 58.02,-18.01 67.07,-23.52 68.53,-16.67"/>
</g>
<!-- Node5 -->
<g id="node5" class="node">
<title>Node5</title>
<g id="a_node5"><a xlink:title=" ">
<polygon fill="white" stroke="#bfbfbf" points="76,-0.5 76,-19.5 124,-19.5 124,-0.5 76,-0.5"/>
<text text-anchor="middle" x="100" y="-7.5" font-family="Helvetica,sans-Serif" font-size="10.00">thread</text>
</a>
</g>
</g>
<!-- Node4&#45;&gt;Node5 -->
<g id="edge4" class="edge">
<title>Node4&#45;&gt;Node5</title>
<path fill="none" stroke="midnightblue" d="M273.28,-57.41C241.55,-49.01 188.68,-34.98 134.01,-20.26"/>
<polygon fill="midnightblue" stroke="midnightblue" points="134.71,-16.83 124.15,-17.6 132.89,-23.58 134.71,-16.83"/>
</g>
<!-- Node6 -->
<g id="node6" class="node">
<title>Node6</title>
<g id="a_node6"><a xlink:title=" ">
<polygon fill="white" stroke="#bfbfbf" points="142.5,-0.5 142.5,-19.5 207.5,-19.5 207.5,-0.5 142.5,-0.5"/>
<text text-anchor="middle" x="175" y="-7.5" font-family="Helvetica,sans-Serif" font-size="10.00">functional</text>
</a>
</g>
</g>
<!-- Node4&#45;&gt;Node6 -->
<g id="edge5" class="edge">
<title>Node4&#45;&gt;Node6</title>
<path fill="none" stroke="midnightblue" d="M281.88,-56.44C260.98,-47.56 228.07,-33.56 204.28,-23.45"/>
<polygon fill="midnightblue" stroke="midnightblue" points="205.6,-20.21 195.03,-19.52 202.86,-26.65 205.6,-20.21"/>
</g>
<!-- Node7 -->
<g id="node7" class="node">
<title>Node7</title>
<g id="a_node7"><a xlink:title=" ">
<polygon fill="white" stroke="#bfbfbf" points="225.5,-0.5 225.5,-19.5 288.5,-19.5 288.5,-0.5 225.5,-0.5"/>
<text text-anchor="middle" x="257" y="-7.5" font-family="Helvetica,sans-Serif" font-size="10.00">pthread.h</text>
</a>
</g>
</g>
<!-- Node4&#45;&gt;Node7 -->
<g id="edge7" class="edge">
<title>Node4&#45;&gt;Node7</title>
<path fill="none" stroke="midnightblue" d="M294.57,-56.08C288.15,-48.38 278.69,-37.03 270.88,-27.65"/>
<polygon fill="midnightblue" stroke="midnightblue" points="273.38,-25.19 264.29,-19.75 268.01,-29.67 273.38,-25.19"/>
</g>
<!-- Node8 -->
<g id="node8" class="node">
<title>Node8</title>
<g id="a_node8"><a xlink:title=" ">
<polygon fill="white" stroke="#bfbfbf" points="307,-0.5 307,-19.5 387,-19.5 387,-0.5 307,-0.5"/>
<text text-anchor="middle" x="347" y="-7.5" font-family="Helvetica,sans-Serif" font-size="10.00">semaphore.h</text>
</a>
</g>
</g>
<!-- Node4&#45;&gt;Node8 -->
<g id="edge8" class="edge">
<title>Node4&#45;&gt;Node8</title>
<path fill="none" stroke="midnightblue" d="M309.43,-56.08C315.85,-48.38 325.31,-37.03 333.12,-27.65"/>
<polygon fill="midnightblue" stroke="midnightblue" points="335.99,-29.67 339.71,-19.75 330.62,-25.19 335.99,-29.67"/>
</g>
<!-- Node9 -->
<g id="node9" class="node">
<title>Node9</title>
<g id="a_node9"><a xlink:title=" ">
<polygon fill="white" stroke="#bfbfbf" points="405.5,-0.5 405.5,-19.5 458.5,-19.5 458.5,-0.5 405.5,-0.5"/>
<text text-anchor="middle" x="432" y="-7.5" font-family="Helvetica,sans-Serif" font-size="10.00">stdint.h</text>
</a>
</g>
</g>
<!-- Node4&#45;&gt;Node9 -->
<g id="edge9" class="edge">
<title>Node4&#45;&gt;Node9</title>
<path fill="none" stroke="midnightblue" d="M322.6,-56.44C343.99,-47.56 377.68,-33.56 402.02,-23.45"/>
<polygon fill="midnightblue" stroke="midnightblue" points="403.61,-26.58 411.5,-19.52 400.92,-20.12 403.61,-26.58"/>
</g>
<!-- Node10 -->
<g id="node10" class="node">
<title>Node10</title>
<g id="a_node10"><a xlink:title=" ">
<polygon fill="white" stroke="#bfbfbf" points="477,-0.5 477,-19.5 527,-19.5 527,-0.5 477,-0.5"/>
<text text-anchor="middle" x="502" y="-7.5" font-family="Helvetica,sans-Serif" font-size="10.00">atomic</text>
</a>
</g>
</g>
<!-- Node4&#45;&gt;Node10 -->
<g id="edge10" class="edge">
<title>Node4&#45;&gt;Node10</title>
<path fill="none" stroke="midnightblue" d="M330.66,-57.26C366.65,-47.55 428.37,-30.88 467.08,-20.43"/>
<polygon fill="midnightblue" stroke="midnightblue" points="468.13,-23.77 476.87,-17.78 466.31,-17.01 468.13,-23.77"/>
</g>
<!-- Node11 -->
<g id="node11" class="node">
<title>Node11</title>
<g id="a_node11"><a xlink:title=" ">
<polygon fill="white" stroke="#bfbfbf" points="545,-0.5 545,-19.5 577,-19.5 577,-0.5 545,-0.5"/>
<text text-anchor="middle" x="561" y="-7.5" font-family="Helvetica,sans-Serif" font-size="10.00">list</text>
</a>
</g>
</g>
<!-- Node4&#45;&gt;Node11 -->
<g id="edge11" class="edge">
<title>Node4&#45;&gt;Node11</title>
<path fill="none" stroke="midnightblue" d="M330.6,-58.06C333.77,-57.34 336.95,-56.64 340,-56 423.63,-38.43 448.74,-42.73 535.28,-19.82"/>
<polygon fill="midnightblue" stroke="midnightblue" points="536.24,-23.18 544.99,-17.2 534.42,-16.42 536.24,-23.18"/>
</g>
<!-- Node12 -->
<g id="node12" class="node">
<title>Node12</title>
<g id="a_node12"><a xlink:href="noncopyable_8h.html" target="_top" xlink:title="不可拷贝对象封装">
<polygon fill="white" stroke="black" points="595,-0.5 595,-19.5 683,-19.5 683,-0.5 595,-0.5"/>
<text text-anchor="middle" x="639" y="-7.5" font-family="Helvetica,sans-Serif" font-size="10.00">noncopyable.h</text>
</a>
</g>
</g>
<!-- Node4&#45;&gt;Node12 -->
<g id="edge12" class="edge">
<title>Node4&#45;&gt;Node12</title>
<path fill="none" stroke="midnightblue" d="M330.58,-57.95C333.75,-57.25 336.94,-56.59 340,-56 445.35,-35.86 475.13,-37.15 584.63,-20.18"/>
<polygon fill="midnightblue" stroke="midnightblue" points="585.43,-23.59 594.77,-18.59 584.34,-16.68 585.43,-23.59"/>
</g>
</g>
</svg>
