<?xml version="1.0" encoding="UTF-8" standalone="no"?>
<!DOCTYPE svg PUBLIC "-//W3C//DTD SVG 1.1//EN"
 "http://www.w3.org/Graphics/SVG/1.1/DTD/svg11.dtd">
<!-- Generated by graphviz version 2.43.0 (0)
 -->
<!-- Title: sylar/env.cc Pages: 1 -->
<svg width="1553pt" height="252pt"
 viewBox="0.00 0.00 1553.00 252.00" xmlns="http://www.w3.org/2000/svg" xmlns:xlink="http://www.w3.org/1999/xlink">
<g id="graph0" class="graph" transform="scale(1 1) rotate(0) translate(4 248)">
<title>sylar/env.cc</title>
<polygon fill="white" stroke="transparent" points="-4,4 -4,-248 1549,-248 1549,4 -4,4"/>
<!-- Node1 -->
<g id="node1" class="node">
<title>Node1</title>
<g id="a_node1"><a xlink:title="环境变量管理接口实现">
<polygon fill="#bfbfbf" stroke="black" points="1233.5,-224.5 1233.5,-243.5 1307.5,-243.5 1307.5,-224.5 1233.5,-224.5"/>
<text text-anchor="middle" x="1270.5" y="-231.5" font-family="Helvetica,sans-Serif" font-size="10.00">sylar/env.cc</text>
</a>
</g>
</g>
<!-- Node2 -->
<g id="node2" class="node">
<title>Node2</title>
<g id="a_node2"><a xlink:href="env_8h.html" target="_top" xlink:title="环境变量管理">
<polygon fill="white" stroke="black" points="778,-112.5 778,-131.5 821,-131.5 821,-112.5 778,-112.5"/>
<text text-anchor="middle" x="799.5" y="-119.5" font-family="Helvetica,sans-Serif" font-size="10.00">env.h</text>
</a>
</g>
</g>
<!-- Node1&#45;&gt;Node2 -->
<g id="edge1" class="edge">
<title>Node1&#45;&gt;Node2</title>
<path fill="none" stroke="midnightblue" d="M1233.32,-225.77C1190.19,-217.27 1117.01,-202.47 1054.5,-188 973.64,-169.28 879.13,-144.4 831.06,-131.52"/>
<polygon fill="midnightblue" stroke="midnightblue" points="831.82,-128.1 821.25,-128.89 830,-134.86 831.82,-128.1"/>
</g>
<!-- Node16 -->
<g id="node16" class="node">
<title>Node16</title>
<g id="a_node16"><a xlink:href="log_8h.html" target="_top" xlink:title="日志模块">
<polygon fill="white" stroke="black" points="877.5,-112.5 877.5,-131.5 945.5,-131.5 945.5,-112.5 877.5,-112.5"/>
<text text-anchor="middle" x="911.5" y="-119.5" font-family="Helvetica,sans-Serif" font-size="10.00">sylar/log.h</text>
</a>
</g>
</g>
<!-- Node1&#45;&gt;Node16 -->
<g id="edge16" class="edge">
<title>Node1&#45;&gt;Node16</title>
<path fill="none" stroke="midnightblue" d="M1242.63,-224.46C1178.75,-204.89 1021.7,-156.77 949.24,-134.57"/>
<polygon fill="midnightblue" stroke="midnightblue" points="950.19,-131.19 939.6,-131.61 948.14,-137.89 950.19,-131.19"/>
</g>
<!-- Node18 -->
<g id="node18" class="node">
<title>Node18</title>
<g id="a_node18"><a xlink:title=" ">
<polygon fill="white" stroke="#bfbfbf" points="1205.5,-0.5 1205.5,-19.5 1265.5,-19.5 1265.5,-0.5 1205.5,-0.5"/>
<text text-anchor="middle" x="1235.5" y="-7.5" font-family="Helvetica,sans-Serif" font-size="10.00">iostream</text>
</a>
</g>
</g>
<!-- Node1&#45;&gt;Node18 -->
<g id="edge37" class="edge">
<title>Node1&#45;&gt;Node18</title>
<path fill="none" stroke="midnightblue" d="M1269.13,-224.3C1263.98,-191.63 1245.73,-75.87 1238.49,-29.96"/>
<polygon fill="midnightblue" stroke="midnightblue" points="1241.92,-29.22 1236.9,-19.88 1235,-30.31 1241.92,-29.22"/>
</g>
<!-- Node26 -->
<g id="node26" class="node">
<title>Node26</title>
<g id="a_node26"><a xlink:title=" ">
<polygon fill="white" stroke="#bfbfbf" points="1272,-168.5 1272,-187.5 1325,-187.5 1325,-168.5 1272,-168.5"/>
<text text-anchor="middle" x="1298.5" y="-175.5" font-family="Helvetica,sans-Serif" font-size="10.00">string.h</text>
</a>
</g>
</g>
<!-- Node1&#45;&gt;Node26 -->
<g id="edge36" class="edge">
<title>Node1&#45;&gt;Node26</title>
<path fill="none" stroke="midnightblue" d="M1275.12,-224.08C1278.96,-216.69 1284.52,-205.95 1289.26,-196.81"/>
<polygon fill="midnightblue" stroke="midnightblue" points="1292.47,-198.24 1293.96,-187.75 1286.25,-195.02 1292.47,-198.24"/>
</g>
<!-- Node27 -->
<g id="node27" class="node">
<title>Node27</title>
<g id="a_node27"><a xlink:title=" ">
<polygon fill="white" stroke="#bfbfbf" points="1343.5,-168.5 1343.5,-187.5 1399.5,-187.5 1399.5,-168.5 1343.5,-168.5"/>
<text text-anchor="middle" x="1371.5" y="-175.5" font-family="Helvetica,sans-Serif" font-size="10.00">iomanip</text>
</a>
</g>
</g>
<!-- Node1&#45;&gt;Node27 -->
<g id="edge38" class="edge">
<title>Node1&#45;&gt;Node27</title>
<path fill="none" stroke="midnightblue" d="M1286.73,-224.32C1302.85,-215.7 1327.8,-202.36 1346.46,-192.39"/>
<polygon fill="midnightblue" stroke="midnightblue" points="1348.14,-195.46 1355.31,-187.65 1344.84,-189.28 1348.14,-195.46"/>
</g>
<!-- Node28 -->
<g id="node28" class="node">
<title>Node28</title>
<g id="a_node28"><a xlink:title=" ">
<polygon fill="white" stroke="#bfbfbf" points="1417.5,-168.5 1417.5,-187.5 1473.5,-187.5 1473.5,-168.5 1417.5,-168.5"/>
<text text-anchor="middle" x="1445.5" y="-175.5" font-family="Helvetica,sans-Serif" font-size="10.00">unistd.h</text>
</a>
</g>
</g>
<!-- Node1&#45;&gt;Node28 -->
<g id="edge39" class="edge">
<title>Node1&#45;&gt;Node28</title>
<path fill="none" stroke="midnightblue" d="M1298.23,-224.44C1327.93,-215.28 1375.22,-200.69 1408.17,-190.52"/>
<polygon fill="midnightblue" stroke="midnightblue" points="1409.38,-193.81 1417.9,-187.52 1407.31,-187.12 1409.38,-193.81"/>
</g>
<!-- Node29 -->
<g id="node29" class="node">
<title>Node29</title>
<g id="a_node29"><a xlink:title=" ">
<polygon fill="white" stroke="#bfbfbf" points="1492,-168.5 1492,-187.5 1545,-187.5 1545,-168.5 1492,-168.5"/>
<text text-anchor="middle" x="1518.5" y="-175.5" font-family="Helvetica,sans-Serif" font-size="10.00">stdlib.h</text>
</a>
</g>
</g>
<!-- Node1&#45;&gt;Node29 -->
<g id="edge40" class="edge">
<title>Node1&#45;&gt;Node29</title>
<path fill="none" stroke="midnightblue" d="M1307.74,-225.52C1348.16,-217.3 1414.84,-203.48 1481.9,-188.07"/>
<polygon fill="midnightblue" stroke="midnightblue" points="1482.83,-191.45 1491.79,-185.79 1481.26,-184.63 1482.83,-191.45"/>
</g>
<!-- Node30 -->
<g id="node30" class="node">
<title>Node30</title>
<g id="a_node30"><a xlink:href="config_8h.html" target="_top" xlink:title="配置模块">
<polygon fill="white" stroke="black" points="611,-168.5 611,-187.5 666,-187.5 666,-168.5 611,-168.5"/>
<text text-anchor="middle" x="638.5" y="-175.5" font-family="Helvetica,sans-Serif" font-size="10.00">config.h</text>
</a>
</g>
</g>
<!-- Node1&#45;&gt;Node30 -->
<g id="edge41" class="edge">
<title>Node1&#45;&gt;Node30</title>
<path fill="none" stroke="midnightblue" d="M1233.33,-229.82C1121.57,-220.27 789.39,-191.89 676.53,-182.25"/>
<polygon fill="midnightblue" stroke="midnightblue" points="676.56,-178.74 666.3,-181.38 675.97,-185.71 676.56,-178.74"/>
</g>
<!-- Node3 -->
<g id="node3" class="node">
<title>Node3</title>
<g id="a_node3"><a xlink:href="singleton_8h.html" target="_top" xlink:title="单例模式封装">
<polygon fill="white" stroke="black" points="712,-56.5 712,-75.5 783,-75.5 783,-56.5 712,-56.5"/>
<text text-anchor="middle" x="747.5" y="-63.5" font-family="Helvetica,sans-Serif" font-size="10.00">singleton.h</text>
</a>
</g>
</g>
<!-- Node2&#45;&gt;Node3 -->
<g id="edge2" class="edge">
<title>Node2&#45;&gt;Node3</title>
<path fill="none" stroke="midnightblue" d="M790.91,-112.08C783.34,-104.22 772.12,-92.57 762.99,-83.08"/>
<polygon fill="midnightblue" stroke="midnightblue" points="765.38,-80.53 755.93,-75.75 760.34,-85.38 765.38,-80.53"/>
</g>
<!-- Node5 -->
<g id="node5" class="node">
<title>Node5</title>
<g id="a_node5"><a xlink:href="mutex_8h.html" target="_top" xlink:title="信号量，互斥锁，读写锁，范围锁模板，自旋锁，原子锁">
<polygon fill="white" stroke="black" points="265,-56.5 265,-75.5 322,-75.5 322,-56.5 265,-56.5"/>
<text text-anchor="middle" x="293.5" y="-63.5" font-family="Helvetica,sans-Serif" font-size="10.00">mutex.h</text>
</a>
</g>
</g>
<!-- Node2&#45;&gt;Node5 -->
<g id="edge4" class="edge">
<title>Node2&#45;&gt;Node5</title>
<path fill="none" stroke="midnightblue" d="M777.76,-118.68C699.65,-110.34 432.6,-81.84 332.13,-71.12"/>
<polygon fill="midnightblue" stroke="midnightblue" points="332.42,-67.63 322.11,-70.05 331.68,-74.59 332.42,-67.63"/>
</g>
<!-- Node14 -->
<g id="node14" class="node">
<title>Node14</title>
<g id="a_node14"><a xlink:title=" ">
<polygon fill="white" stroke="#bfbfbf" points="579.5,-56.5 579.5,-75.5 617.5,-75.5 617.5,-56.5 579.5,-56.5"/>
<text text-anchor="middle" x="598.5" y="-63.5" font-family="Helvetica,sans-Serif" font-size="10.00">map</text>
</a>
</g>
</g>
<!-- Node2&#45;&gt;Node14 -->
<g id="edge14" class="edge">
<title>Node2&#45;&gt;Node14</title>
<path fill="none" stroke="midnightblue" d="M777.74,-115.21C745.71,-106.67 683.97,-90.18 631.5,-76 630.24,-75.66 628.96,-75.31 627.66,-74.96"/>
<polygon fill="midnightblue" stroke="midnightblue" points="628.26,-71.5 617.69,-72.25 626.42,-78.25 628.26,-71.5"/>
</g>
<!-- Node15 -->
<g id="node15" class="node">
<title>Node15</title>
<g id="a_node15"><a xlink:title=" ">
<polygon fill="white" stroke="#bfbfbf" points="826,-0.5 826,-19.5 873,-19.5 873,-0.5 826,-0.5"/>
<text text-anchor="middle" x="849.5" y="-7.5" font-family="Helvetica,sans-Serif" font-size="10.00">vector</text>
</a>
</g>
</g>
<!-- Node2&#45;&gt;Node15 -->
<g id="edge15" class="edge">
<title>Node2&#45;&gt;Node15</title>
<path fill="none" stroke="midnightblue" d="M777.81,-116.16C742.77,-107.33 679.84,-86.64 702.5,-56 716.05,-37.68 776.92,-23.78 815.96,-16.55"/>
<polygon fill="midnightblue" stroke="midnightblue" points="816.62,-19.99 825.85,-14.78 815.39,-13.1 816.62,-19.99"/>
</g>
<!-- Node4 -->
<g id="node4" class="node">
<title>Node4</title>
<g id="a_node4"><a xlink:title=" ">
<polygon fill="white" stroke="#bfbfbf" points="585.5,-0.5 585.5,-19.5 643.5,-19.5 643.5,-0.5 585.5,-0.5"/>
<text text-anchor="middle" x="614.5" y="-7.5" font-family="Helvetica,sans-Serif" font-size="10.00">memory</text>
</a>
</g>
</g>
<!-- Node3&#45;&gt;Node4 -->
<g id="edge3" class="edge">
<title>Node3&#45;&gt;Node4</title>
<path fill="none" stroke="midnightblue" d="M726.43,-56.44C704.44,-47.52 669.77,-33.44 644.84,-23.32"/>
<polygon fill="midnightblue" stroke="midnightblue" points="646.06,-20.04 635.48,-19.52 643.42,-26.52 646.06,-20.04"/>
</g>
<!-- Node5&#45;&gt;Node4 -->
<g id="edge7" class="edge">
<title>Node5&#45;&gt;Node4</title>
<path fill="none" stroke="midnightblue" d="M322.27,-60.16C379.97,-50.45 509.88,-28.6 575.29,-17.6"/>
<polygon fill="midnightblue" stroke="midnightblue" points="575.94,-21.04 585.22,-15.93 574.77,-14.13 575.94,-21.04"/>
</g>
<!-- Node6 -->
<g id="node6" class="node">
<title>Node6</title>
<g id="a_node6"><a xlink:title=" ">
<polygon fill="white" stroke="#bfbfbf" points="355.5,-0.5 355.5,-19.5 403.5,-19.5 403.5,-0.5 355.5,-0.5"/>
<text text-anchor="middle" x="379.5" y="-7.5" font-family="Helvetica,sans-Serif" font-size="10.00">thread</text>
</a>
</g>
</g>
<!-- Node5&#45;&gt;Node6 -->
<g id="edge5" class="edge">
<title>Node5&#45;&gt;Node6</title>
<path fill="none" stroke="midnightblue" d="M307.32,-56.32C320.73,-47.9 341.32,-34.97 357.09,-25.07"/>
<polygon fill="midnightblue" stroke="midnightblue" points="359.11,-27.94 365.72,-19.65 355.39,-22.01 359.11,-27.94"/>
</g>
<!-- Node7 -->
<g id="node7" class="node">
<title>Node7</title>
<g id="a_node7"><a xlink:title=" ">
<polygon fill="white" stroke="#bfbfbf" points="0,-0.5 0,-19.5 65,-19.5 65,-0.5 0,-0.5"/>
<text text-anchor="middle" x="32.5" y="-7.5" font-family="Helvetica,sans-Serif" font-size="10.00">functional</text>
</a>
</g>
</g>
<!-- Node5&#45;&gt;Node7 -->
<g id="edge6" class="edge">
<title>Node5&#45;&gt;Node7</title>
<path fill="none" stroke="midnightblue" d="M264.79,-59.18C224.72,-51.04 149.51,-35.7 75.07,-20.11"/>
<polygon fill="midnightblue" stroke="midnightblue" points="75.56,-16.63 65.05,-18 74.12,-23.48 75.56,-16.63"/>
</g>
<!-- Node8 -->
<g id="node8" class="node">
<title>Node8</title>
<g id="a_node8"><a xlink:title=" ">
<polygon fill="white" stroke="#bfbfbf" points="422,-0.5 422,-19.5 485,-19.5 485,-0.5 422,-0.5"/>
<text text-anchor="middle" x="453.5" y="-7.5" font-family="Helvetica,sans-Serif" font-size="10.00">pthread.h</text>
</a>
</g>
</g>
<!-- Node5&#45;&gt;Node8 -->
<g id="edge8" class="edge">
<title>Node5&#45;&gt;Node8</title>
<path fill="none" stroke="midnightblue" d="M318.85,-56.44C345.77,-47.36 388.5,-32.94 418.59,-22.78"/>
<polygon fill="midnightblue" stroke="midnightblue" points="419.91,-26.03 428.27,-19.52 417.67,-19.4 419.91,-26.03"/>
</g>
<!-- Node9 -->
<g id="node9" class="node">
<title>Node9</title>
<g id="a_node9"><a xlink:title=" ">
<polygon fill="white" stroke="#bfbfbf" points="83.5,-0.5 83.5,-19.5 163.5,-19.5 163.5,-0.5 83.5,-0.5"/>
<text text-anchor="middle" x="123.5" y="-7.5" font-family="Helvetica,sans-Serif" font-size="10.00">semaphore.h</text>
</a>
</g>
</g>
<!-- Node5&#45;&gt;Node9 -->
<g id="edge9" class="edge">
<title>Node5&#45;&gt;Node9</title>
<path fill="none" stroke="midnightblue" d="M266.56,-56.44C237.84,-47.32 192.17,-32.81 160.18,-22.65"/>
<polygon fill="midnightblue" stroke="midnightblue" points="160.9,-19.21 150.31,-19.52 158.78,-25.88 160.9,-19.21"/>
</g>
<!-- Node10 -->
<g id="node10" class="node">
<title>Node10</title>
<g id="a_node10"><a xlink:title=" ">
<polygon fill="white" stroke="#bfbfbf" points="724,-0.5 724,-19.5 777,-19.5 777,-0.5 724,-0.5"/>
<text text-anchor="middle" x="750.5" y="-7.5" font-family="Helvetica,sans-Serif" font-size="10.00">stdint.h</text>
</a>
</g>
</g>
<!-- Node5&#45;&gt;Node10 -->
<g id="edge10" class="edge">
<title>Node5&#45;&gt;Node10</title>
<path fill="none" stroke="midnightblue" d="M322.09,-61.62C401.61,-52.23 625.37,-25.79 713.84,-15.33"/>
<polygon fill="midnightblue" stroke="midnightblue" points="714.42,-18.79 723.94,-14.14 713.6,-11.84 714.42,-18.79"/>
</g>
<!-- Node11 -->
<g id="node11" class="node">
<title>Node11</title>
<g id="a_node11"><a xlink:title=" ">
<polygon fill="white" stroke="#bfbfbf" points="181.5,-0.5 181.5,-19.5 231.5,-19.5 231.5,-0.5 181.5,-0.5"/>
<text text-anchor="middle" x="206.5" y="-7.5" font-family="Helvetica,sans-Serif" font-size="10.00">atomic</text>
</a>
</g>
</g>
<!-- Node5&#45;&gt;Node11 -->
<g id="edge11" class="edge">
<title>Node5&#45;&gt;Node11</title>
<path fill="none" stroke="midnightblue" d="M279.52,-56.32C265.95,-47.9 245.12,-34.97 229.18,-25.07"/>
<polygon fill="midnightblue" stroke="midnightblue" points="230.79,-21.95 220.44,-19.65 227.09,-27.9 230.79,-21.95"/>
</g>
<!-- Node12 -->
<g id="node12" class="node">
<title>Node12</title>
<g id="a_node12"><a xlink:title=" ">
<polygon fill="white" stroke="#bfbfbf" points="503.5,-0.5 503.5,-19.5 535.5,-19.5 535.5,-0.5 503.5,-0.5"/>
<text text-anchor="middle" x="519.5" y="-7.5" font-family="Helvetica,sans-Serif" font-size="10.00">list</text>
</a>
</g>
</g>
<!-- Node5&#45;&gt;Node12 -->
<g id="edge12" class="edge">
<title>Node5&#45;&gt;Node12</title>
<path fill="none" stroke="midnightblue" d="M322.28,-58.94C369.53,-48.92 461.49,-29.11 493.5,-20 493.6,-19.97 493.7,-19.94 493.8,-19.91"/>
<polygon fill="midnightblue" stroke="midnightblue" points="494.88,-23.24 503.36,-16.9 492.77,-16.57 494.88,-23.24"/>
</g>
<!-- Node13 -->
<g id="node13" class="node">
<title>Node13</title>
<g id="a_node13"><a xlink:href="noncopyable_8h.html" target="_top" xlink:title="不可拷贝对象封装">
<polygon fill="white" stroke="black" points="249.5,-0.5 249.5,-19.5 337.5,-19.5 337.5,-0.5 249.5,-0.5"/>
<text text-anchor="middle" x="293.5" y="-7.5" font-family="Helvetica,sans-Serif" font-size="10.00">noncopyable.h</text>
</a>
</g>
</g>
<!-- Node5&#45;&gt;Node13 -->
<g id="edge13" class="edge">
<title>Node5&#45;&gt;Node13</title>
<path fill="none" stroke="midnightblue" d="M293.5,-56.08C293.5,-49.01 293.5,-38.86 293.5,-29.99"/>
<polygon fill="midnightblue" stroke="midnightblue" points="297,-29.75 293.5,-19.75 290,-29.75 297,-29.75"/>
</g>
<!-- Node16&#45;&gt;Node3 -->
<g id="edge35" class="edge">
<title>Node16&#45;&gt;Node3</title>
<path fill="none" stroke="midnightblue" d="M885.51,-112.44C857.8,-103.32 813.75,-88.81 782.88,-78.65"/>
<polygon fill="midnightblue" stroke="midnightblue" points="783.96,-75.32 773.36,-75.52 781.77,-81.97 783.96,-75.32"/>
</g>
<!-- Node16&#45;&gt;Node4 -->
<g id="edge18" class="edge">
<title>Node16&#45;&gt;Node4</title>
<path fill="none" stroke="midnightblue" d="M898.35,-112.46C876.81,-98.8 832.32,-71.96 791.5,-56 745.67,-38.08 690.37,-25.35 653.91,-18.1"/>
<polygon fill="midnightblue" stroke="midnightblue" points="654.18,-14.59 643.69,-16.12 652.84,-21.46 654.18,-14.59"/>
</g>
<!-- Node16&#45;&gt;Node5 -->
<g id="edge34" class="edge">
<title>Node16&#45;&gt;Node5</title>
<path fill="none" stroke="midnightblue" d="M877.21,-117.04C862.53,-115.39 845.18,-113.52 829.5,-112 643.5,-93.99 420.77,-76.64 332.39,-69.92"/>
<polygon fill="midnightblue" stroke="midnightblue" points="332.52,-66.42 322.28,-69.16 331.99,-73.4 332.52,-66.42"/>
</g>
<!-- Node16&#45;&gt;Node12 -->
<g id="edge24" class="edge">
<title>Node16&#45;&gt;Node12</title>
<path fill="none" stroke="midnightblue" d="M877.14,-115.01C835.45,-107.42 763.2,-93.24 702.5,-76 645.53,-59.82 580.58,-35.24 545.42,-21.41"/>
<polygon fill="midnightblue" stroke="midnightblue" points="546.51,-18.07 535.92,-17.64 543.93,-24.58 546.51,-18.07"/>
</g>
<!-- Node16&#45;&gt;Node14 -->
<g id="edge25" class="edge">
<title>Node16&#45;&gt;Node14</title>
<path fill="none" stroke="midnightblue" d="M877.41,-115.12C815.51,-104.44 685.68,-82.04 627.63,-72.03"/>
<polygon fill="midnightblue" stroke="midnightblue" points="628.11,-68.56 617.66,-70.31 626.92,-75.45 628.11,-68.56"/>
</g>
<!-- Node16&#45;&gt;Node15 -->
<g id="edge22" class="edge">
<title>Node16&#45;&gt;Node15</title>
<path fill="none" stroke="midnightblue" d="M906.63,-112.37C896.45,-94.3 872.71,-52.18 859.26,-28.31"/>
<polygon fill="midnightblue" stroke="midnightblue" points="862.3,-26.58 854.34,-19.59 856.2,-30.02 862.3,-26.58"/>
</g>
<!-- Node17 -->
<g id="node17" class="node">
<title>Node17</title>
<g id="a_node17"><a xlink:title=" ">
<polygon fill="white" stroke="#bfbfbf" points="1143.5,-0.5 1143.5,-19.5 1187.5,-19.5 1187.5,-0.5 1143.5,-0.5"/>
<text text-anchor="middle" x="1165.5" y="-7.5" font-family="Helvetica,sans-Serif" font-size="10.00">string</text>
</a>
</g>
</g>
<!-- Node16&#45;&gt;Node17 -->
<g id="edge17" class="edge">
<title>Node16&#45;&gt;Node17</title>
<path fill="none" stroke="midnightblue" d="M945.62,-119.8C987.32,-116.95 1058.72,-107.42 1110.5,-76 1129.78,-64.3 1145.62,-43.46 1155.26,-28.52"/>
<polygon fill="midnightblue" stroke="midnightblue" points="1158.42,-30.07 1160.68,-19.72 1152.46,-26.4 1158.42,-30.07"/>
</g>
<!-- Node16&#45;&gt;Node18 -->
<g id="edge19" class="edge">
<title>Node16&#45;&gt;Node18</title>
<path fill="none" stroke="midnightblue" d="M945.67,-118.17C990.61,-113.55 1071.41,-102.14 1135.5,-76 1166.42,-63.39 1198.08,-40.86 1217.27,-25.93"/>
<polygon fill="midnightblue" stroke="midnightblue" points="1219.5,-28.62 1225.16,-19.66 1215.15,-23.14 1219.5,-28.62"/>
</g>
<!-- Node19 -->
<g id="node19" class="node">
<title>Node19</title>
<g id="a_node19"><a xlink:title=" ">
<polygon fill="white" stroke="#bfbfbf" points="505.5,-56.5 505.5,-75.5 561.5,-75.5 561.5,-56.5 505.5,-56.5"/>
<text text-anchor="middle" x="533.5" y="-63.5" font-family="Helvetica,sans-Serif" font-size="10.00">sstream</text>
</a>
</g>
</g>
<!-- Node16&#45;&gt;Node19 -->
<g id="edge20" class="edge">
<title>Node16&#45;&gt;Node19</title>
<path fill="none" stroke="midnightblue" d="M877.28,-116.96C806.48,-108.52 645.07,-88.9 571.86,-76.04"/>
<polygon fill="midnightblue" stroke="midnightblue" points="572.18,-72.54 561.71,-74.19 570.93,-79.43 572.18,-72.54"/>
</g>
<!-- Node20 -->
<g id="node20" class="node">
<title>Node20</title>
<g id="a_node20"><a xlink:title=" ">
<polygon fill="white" stroke="#bfbfbf" points="916,-56.5 916,-75.5 971,-75.5 971,-56.5 916,-56.5"/>
<text text-anchor="middle" x="943.5" y="-63.5" font-family="Helvetica,sans-Serif" font-size="10.00">fstream</text>
</a>
</g>
</g>
<!-- Node16&#45;&gt;Node20 -->
<g id="edge21" class="edge">
<title>Node16&#45;&gt;Node20</title>
<path fill="none" stroke="midnightblue" d="M916.78,-112.08C921.21,-104.61 927.66,-93.72 933.12,-84.52"/>
<polygon fill="midnightblue" stroke="midnightblue" points="936.23,-86.14 938.31,-75.75 930.21,-82.57 936.23,-86.14"/>
</g>
<!-- Node21 -->
<g id="node21" class="node">
<title>Node21</title>
<g id="a_node21"><a xlink:title=" ">
<polygon fill="white" stroke="#bfbfbf" points="989,-56.5 989,-75.5 1042,-75.5 1042,-56.5 989,-56.5"/>
<text text-anchor="middle" x="1015.5" y="-63.5" font-family="Helvetica,sans-Serif" font-size="10.00">cstdarg</text>
</a>
</g>
</g>
<!-- Node16&#45;&gt;Node21 -->
<g id="edge23" class="edge">
<title>Node16&#45;&gt;Node21</title>
<path fill="none" stroke="midnightblue" d="M928.21,-112.32C944.81,-103.7 970.5,-90.36 989.72,-80.39"/>
<polygon fill="midnightblue" stroke="midnightblue" points="991.57,-83.37 998.83,-75.65 988.34,-77.16 991.57,-83.37"/>
</g>
<!-- Node22 -->
<g id="node22" class="node">
<title>Node22</title>
<g id="a_node22"><a xlink:href="util_8h.html" target="_top" xlink:title="util函数">
<polygon fill="white" stroke="black" points="1060,-56.5 1060,-75.5 1101,-75.5 1101,-56.5 1060,-56.5"/>
<text text-anchor="middle" x="1080.5" y="-63.5" font-family="Helvetica,sans-Serif" font-size="10.00">util.h</text>
</a>
</g>
</g>
<!-- Node16&#45;&gt;Node22 -->
<g id="edge26" class="edge">
<title>Node16&#45;&gt;Node22</title>
<path fill="none" stroke="midnightblue" d="M938.28,-112.44C968.76,-102.7 1018.45,-86.83 1050.3,-76.65"/>
<polygon fill="midnightblue" stroke="midnightblue" points="1051.5,-79.94 1059.96,-73.56 1049.37,-73.27 1051.5,-79.94"/>
</g>
<!-- Node22&#45;&gt;Node10 -->
<g id="edge28" class="edge">
<title>Node22&#45;&gt;Node10</title>
<path fill="none" stroke="midnightblue" d="M1059.95,-58.41C1056.8,-57.53 1053.58,-56.69 1050.5,-56 1025.27,-50.35 862.27,-26.9 787.67,-16.27"/>
<polygon fill="midnightblue" stroke="midnightblue" points="787.73,-12.75 777.33,-14.8 786.74,-19.68 787.73,-12.75"/>
</g>
<!-- Node22&#45;&gt;Node15 -->
<g id="edge32" class="edge">
<title>Node22&#45;&gt;Node15</title>
<path fill="none" stroke="midnightblue" d="M1059.9,-58.58C1056.77,-57.67 1053.55,-56.78 1050.5,-56 979.57,-37.79 958.42,-38 883.21,-20.05"/>
<polygon fill="midnightblue" stroke="midnightblue" points="883.79,-16.59 873.25,-17.65 882.15,-23.4 883.79,-16.59"/>
</g>
<!-- Node22&#45;&gt;Node17 -->
<g id="edge31" class="edge">
<title>Node22&#45;&gt;Node17</title>
<path fill="none" stroke="midnightblue" d="M1094.16,-56.32C1107.42,-47.9 1127.77,-34.97 1143.35,-25.07"/>
<polygon fill="midnightblue" stroke="midnightblue" points="1145.31,-27.97 1151.88,-19.65 1141.56,-22.06 1145.31,-27.97"/>
</g>
<!-- Node22&#45;&gt;Node18 -->
<g id="edge33" class="edge">
<title>Node22&#45;&gt;Node18</title>
<path fill="none" stroke="midnightblue" d="M1101.08,-57.83C1126.72,-48.9 1170.87,-33.52 1201.55,-22.83"/>
<polygon fill="midnightblue" stroke="midnightblue" points="1202.7,-26.13 1211,-19.54 1200.4,-19.52 1202.7,-26.13"/>
</g>
<!-- Node23 -->
<g id="node23" class="node">
<title>Node23</title>
<g id="a_node23"><a xlink:title=" ">
<polygon fill="white" stroke="#bfbfbf" points="891.5,-0.5 891.5,-19.5 963.5,-19.5 963.5,-0.5 891.5,-0.5"/>
<text text-anchor="middle" x="927.5" y="-7.5" font-family="Helvetica,sans-Serif" font-size="10.00">sys/types.h</text>
</a>
</g>
</g>
<!-- Node22&#45;&gt;Node23 -->
<g id="edge27" class="edge">
<title>Node22&#45;&gt;Node23</title>
<path fill="none" stroke="midnightblue" d="M1059.87,-57.72C1034.66,-48.82 991.65,-33.64 961.52,-23.01"/>
<polygon fill="midnightblue" stroke="midnightblue" points="962.43,-19.62 951.84,-19.59 960.1,-26.22 962.43,-19.62"/>
</g>
<!-- Node24 -->
<g id="node24" class="node">
<title>Node24</title>
<g id="a_node24"><a xlink:title=" ">
<polygon fill="white" stroke="#bfbfbf" points="981.5,-0.5 981.5,-19.5 1049.5,-19.5 1049.5,-0.5 981.5,-0.5"/>
<text text-anchor="middle" x="1015.5" y="-7.5" font-family="Helvetica,sans-Serif" font-size="10.00">sys/time.h</text>
</a>
</g>
</g>
<!-- Node22&#45;&gt;Node24 -->
<g id="edge29" class="edge">
<title>Node22&#45;&gt;Node24</title>
<path fill="none" stroke="midnightblue" d="M1070.06,-56.32C1060.35,-48.26 1045.68,-36.08 1034,-26.37"/>
<polygon fill="midnightblue" stroke="midnightblue" points="1036.06,-23.53 1026.13,-19.83 1031.59,-28.92 1036.06,-23.53"/>
</g>
<!-- Node25 -->
<g id="node25" class="node">
<title>Node25</title>
<g id="a_node25"><a xlink:title=" ">
<polygon fill="white" stroke="#bfbfbf" points="1067.5,-0.5 1067.5,-19.5 1125.5,-19.5 1125.5,-0.5 1067.5,-0.5"/>
<text text-anchor="middle" x="1096.5" y="-7.5" font-family="Helvetica,sans-Serif" font-size="10.00">cxxabi.h</text>
</a>
</g>
</g>
<!-- Node22&#45;&gt;Node25 -->
<g id="edge30" class="edge">
<title>Node22&#45;&gt;Node25</title>
<path fill="none" stroke="midnightblue" d="M1083.14,-56.08C1085.29,-48.85 1088.38,-38.41 1091.05,-29.4"/>
<polygon fill="midnightblue" stroke="midnightblue" points="1094.42,-30.33 1093.91,-19.75 1087.71,-28.34 1094.42,-30.33"/>
</g>
<!-- Node30&#45;&gt;Node4 -->
<g id="edge42" class="edge">
<title>Node30&#45;&gt;Node4</title>
<path fill="none" stroke="midnightblue" d="M644.75,-168.43C653.74,-154.98 667.84,-128.72 654.5,-112 609.58,-55.7 541.42,-132.3 496.5,-76 471.65,-44.86 532.12,-26.38 575.36,-17.5"/>
<polygon fill="midnightblue" stroke="midnightblue" points="576.23,-20.9 585.38,-15.55 574.89,-14.03 576.23,-20.9"/>
</g>
<!-- Node30&#45;&gt;Node5 -->
<g id="edge54" class="edge">
<title>Node30&#45;&gt;Node5</title>
<path fill="none" stroke="midnightblue" d="M610.99,-176.85C505.33,-176.01 129.76,-170.3 94.5,-132 47.08,-80.5 183.67,-69.7 254.22,-67.51"/>
<polygon fill="midnightblue" stroke="midnightblue" points="254.62,-71 264.53,-67.24 254.44,-64 254.62,-71"/>
</g>
<!-- Node30&#45;&gt;Node7 -->
<g id="edge53" class="edge">
<title>Node30&#45;&gt;Node7</title>
<path fill="none" stroke="midnightblue" d="M610.74,-176.45C504.09,-174.09 124.46,-163.54 81.5,-132 48.41,-107.71 37.62,-57.22 34.13,-29.76"/>
<polygon fill="midnightblue" stroke="midnightblue" points="37.58,-29.12 33.04,-19.55 30.62,-29.87 37.58,-29.12"/>
</g>
<!-- Node30&#45;&gt;Node12 -->
<g id="edge48" class="edge">
<title>Node30&#45;&gt;Node12</title>
<path fill="none" stroke="midnightblue" d="M610.93,-176.7C509.38,-175.29 160.36,-167.88 127.5,-132 121.5,-125.44 121.79,-118.81 127.5,-112 156.93,-76.89 286.15,-87.48 330.5,-76 404.66,-56.81 421.08,-44.97 493.5,-20 493.6,-19.97 493.7,-19.93 493.8,-19.9"/>
<polygon fill="midnightblue" stroke="midnightblue" points="494.97,-23.2 503.27,-16.62 492.68,-16.58 494.97,-23.2"/>
</g>
<!-- Node30&#45;&gt;Node14 -->
<g id="edge49" class="edge">
<title>Node30&#45;&gt;Node14</title>
<path fill="none" stroke="midnightblue" d="M666.22,-169.24C698.24,-158.84 744.27,-138.56 725.5,-112 719.63,-103.7 663.17,-85.92 627.53,-75.36"/>
<polygon fill="midnightblue" stroke="midnightblue" points="628.24,-71.92 617.66,-72.47 626.27,-78.64 628.24,-71.92"/>
</g>
<!-- Node30&#45;&gt;Node15 -->
<g id="edge47" class="edge">
<title>Node30&#45;&gt;Node15</title>
<path fill="none" stroke="midnightblue" d="M666.01,-174.24C713.39,-168.91 807.46,-155.58 829.5,-132 855.46,-104.22 854.94,-56.32 852.24,-29.89"/>
<polygon fill="midnightblue" stroke="midnightblue" points="855.68,-29.19 850.98,-19.7 848.74,-30.05 855.68,-29.19"/>
</g>
<!-- Node30&#45;&gt;Node16 -->
<g id="edge55" class="edge">
<title>Node30&#45;&gt;Node16</title>
<path fill="none" stroke="midnightblue" d="M666.18,-171.53C713.52,-162.16 810.43,-142.99 867.25,-131.75"/>
<polygon fill="midnightblue" stroke="midnightblue" points="868.24,-135.12 877.37,-129.75 866.89,-128.26 868.24,-135.12"/>
</g>
<!-- Node30&#45;&gt;Node17 -->
<g id="edge43" class="edge">
<title>Node30&#45;&gt;Node17</title>
<path fill="none" stroke="midnightblue" d="M666.02,-175.81C726.14,-172.71 873.34,-162.41 992.5,-132 1058.64,-115.12 1085.83,-122.82 1135.5,-76 1148.76,-63.5 1156.67,-44 1161.01,-29.61"/>
<polygon fill="midnightblue" stroke="midnightblue" points="1164.43,-30.38 1163.66,-19.81 1157.67,-28.55 1164.43,-30.38"/>
</g>
<!-- Node30&#45;&gt;Node19 -->
<g id="edge44" class="edge">
<title>Node30&#45;&gt;Node19</title>
<path fill="none" stroke="midnightblue" d="M653.25,-168.39C672.67,-155.96 702.67,-132.24 687.5,-112 683.92,-107.22 615.92,-88.62 571.49,-76.88"/>
<polygon fill="midnightblue" stroke="midnightblue" points="572.14,-73.44 561.57,-74.27 570.35,-80.2 572.14,-73.44"/>
</g>
<!-- Node30&#45;&gt;Node22 -->
<g id="edge56" class="edge">
<title>Node30&#45;&gt;Node22</title>
<path fill="none" stroke="midnightblue" d="M666.24,-176.15C722.09,-173.76 851.55,-164.85 954.5,-132 993.21,-119.65 1034.39,-96.2 1058.76,-81.1"/>
<polygon fill="midnightblue" stroke="midnightblue" points="1060.94,-83.86 1067.53,-75.57 1057.2,-77.94 1060.94,-83.86"/>
</g>
<!-- Node31 -->
<g id="node31" class="node">
<title>Node31</title>
<g id="a_node31"><a xlink:title=" ">
<polygon fill="white" stroke="#bfbfbf" points="137,-112.5 137,-131.5 262,-131.5 262,-112.5 137,-112.5"/>
<text text-anchor="middle" x="199.5" y="-119.5" font-family="Helvetica,sans-Serif" font-size="10.00">boost/lexical_cast.hpp</text>
</a>
</g>
</g>
<!-- Node30&#45;&gt;Node31 -->
<g id="edge45" class="edge">
<title>Node30&#45;&gt;Node31</title>
<path fill="none" stroke="midnightblue" d="M610.8,-173.65C550.97,-166.42 404.97,-148.72 272.16,-132.2"/>
<polygon fill="midnightblue" stroke="midnightblue" points="272.57,-128.73 262.22,-130.97 271.71,-135.67 272.57,-128.73"/>
</g>
<!-- Node32 -->
<g id="node32" class="node">
<title>Node32</title>
<g id="a_node32"><a xlink:title=" ">
<polygon fill="white" stroke="#bfbfbf" points="280,-112.5 280,-131.5 379,-131.5 379,-112.5 280,-112.5"/>
<text text-anchor="middle" x="329.5" y="-119.5" font-family="Helvetica,sans-Serif" font-size="10.00">yaml&#45;cpp/yaml.h</text>
</a>
</g>
</g>
<!-- Node30&#45;&gt;Node32 -->
<g id="edge46" class="edge">
<title>Node30&#45;&gt;Node32</title>
<path fill="none" stroke="midnightblue" d="M610.81,-172.16C560.93,-163.44 454.99,-144.93 388.3,-133.28"/>
<polygon fill="midnightblue" stroke="midnightblue" points="388.8,-129.81 378.35,-131.54 387.6,-136.71 388.8,-129.81"/>
</g>
<!-- Node33 -->
<g id="node33" class="node">
<title>Node33</title>
<g id="a_node33"><a xlink:title=" ">
<polygon fill="white" stroke="#bfbfbf" points="397.5,-112.5 397.5,-131.5 429.5,-131.5 429.5,-112.5 397.5,-112.5"/>
<text text-anchor="middle" x="413.5" y="-119.5" font-family="Helvetica,sans-Serif" font-size="10.00">set</text>
</a>
</g>
</g>
<!-- Node30&#45;&gt;Node33 -->
<g id="edge50" class="edge">
<title>Node30&#45;&gt;Node33</title>
<path fill="none" stroke="midnightblue" d="M610.73,-171.88C573.67,-164.82 505.89,-151.04 439.35,-131.96"/>
<polygon fill="midnightblue" stroke="midnightblue" points="440.12,-128.54 429.54,-129.11 438.17,-135.26 440.12,-128.54"/>
</g>
<!-- Node34 -->
<g id="node34" class="node">
<title>Node34</title>
<g id="a_node34"><a xlink:title=" ">
<polygon fill="white" stroke="#bfbfbf" points="448,-112.5 448,-131.5 541,-131.5 541,-112.5 448,-112.5"/>
<text text-anchor="middle" x="494.5" y="-119.5" font-family="Helvetica,sans-Serif" font-size="10.00">unordered_map</text>
</a>
</g>
</g>
<!-- Node30&#45;&gt;Node34 -->
<g id="edge51" class="edge">
<title>Node30&#45;&gt;Node34</title>
<path fill="none" stroke="midnightblue" d="M615.68,-168.44C591.67,-159.44 553.67,-145.19 526.63,-135.05"/>
<polygon fill="midnightblue" stroke="midnightblue" points="527.8,-131.75 517.21,-131.52 525.34,-138.3 527.8,-131.75"/>
</g>
<!-- Node35 -->
<g id="node35" class="node">
<title>Node35</title>
<g id="a_node35"><a xlink:title=" ">
<polygon fill="white" stroke="#bfbfbf" points="559.5,-112.5 559.5,-131.5 645.5,-131.5 645.5,-112.5 559.5,-112.5"/>
<text text-anchor="middle" x="602.5" y="-119.5" font-family="Helvetica,sans-Serif" font-size="10.00">unordered_set</text>
</a>
</g>
</g>
<!-- Node30&#45;&gt;Node35 -->
<g id="edge52" class="edge">
<title>Node30&#45;&gt;Node35</title>
<path fill="none" stroke="midnightblue" d="M632.56,-168.08C627.52,-160.53 620.16,-149.49 613.99,-140.23"/>
<polygon fill="midnightblue" stroke="midnightblue" points="616.79,-138.13 608.33,-131.75 610.97,-142.01 616.79,-138.13"/>
</g>
</g>
</svg>
