<?xml version="1.0" encoding="UTF-8" standalone="no"?>
<!DOCTYPE svg PUBLIC "-//W3C//DTD SVG 1.1//EN"
 "http://www.w3.org/Graphics/SVG/1.1/DTD/svg11.dtd">
<!-- Generated by graphviz version 2.43.0 (0)
 -->
<!-- Title: sylar/fd_manager.cc Pages: 1 -->
<svg width="800pt" height="252pt"
 viewBox="0.00 0.00 800.00 252.00" xmlns="http://www.w3.org/2000/svg" xmlns:xlink="http://www.w3.org/1999/xlink">
<g id="graph0" class="graph" transform="scale(1 1) rotate(0) translate(4 248)">
<title>sylar/fd_manager.cc</title>
<polygon fill="white" stroke="transparent" points="-4,4 -4,-248 796,-248 796,4 -4,4"/>
<!-- Node1 -->
<g id="node1" class="node">
<title>Node1</title>
<g id="a_node1"><a xlink:title="文件句柄管理类实现">
<polygon fill="#bfbfbf" stroke="black" points="604.5,-224.5 604.5,-243.5 719.5,-243.5 719.5,-224.5 604.5,-224.5"/>
<text text-anchor="middle" x="662" y="-231.5" font-family="Helvetica,sans-Serif" font-size="10.00">sylar/fd_manager.cc</text>
</a>
</g>
</g>
<!-- Node2 -->
<g id="node2" class="node">
<title>Node2</title>
<g id="a_node2"><a xlink:href="fd__manager_8h.html" target="_top" xlink:title="文件句柄管理类">
<polygon fill="white" stroke="black" points="97.5,-168.5 97.5,-187.5 180.5,-187.5 180.5,-168.5 97.5,-168.5"/>
<text text-anchor="middle" x="139" y="-175.5" font-family="Helvetica,sans-Serif" font-size="10.00">fd_manager.h</text>
</a>
</g>
</g>
<!-- Node1&#45;&gt;Node2 -->
<g id="edge1" class="edge">
<title>Node1&#45;&gt;Node2</title>
<path fill="none" stroke="midnightblue" d="M604.28,-227.04C501.65,-216.44 289,-194.49 190.79,-184.35"/>
<polygon fill="midnightblue" stroke="midnightblue" points="191.1,-180.86 180.8,-183.32 190.39,-187.82 191.1,-180.86"/>
</g>
<!-- Node17 -->
<g id="node17" class="node">
<title>Node17</title>
<g id="a_node17"><a xlink:href="hook_8h.html" target="_top" xlink:title="hook函数封装">
<polygon fill="white" stroke="black" points="553,-168.5 553,-187.5 603,-187.5 603,-168.5 553,-168.5"/>
<text text-anchor="middle" x="578" y="-175.5" font-family="Helvetica,sans-Serif" font-size="10.00">hook.h</text>
</a>
</g>
</g>
<!-- Node1&#45;&gt;Node17 -->
<g id="edge18" class="edge">
<title>Node1&#45;&gt;Node17</title>
<path fill="none" stroke="midnightblue" d="M648.5,-224.32C635.4,-215.9 615.29,-202.97 599.89,-193.07"/>
<polygon fill="midnightblue" stroke="midnightblue" points="601.77,-190.12 591.46,-187.65 597.98,-196.01 601.77,-190.12"/>
</g>
<!-- Node20 -->
<g id="node20" class="node">
<title>Node20</title>
<g id="a_node20"><a xlink:title=" ">
<polygon fill="white" stroke="#bfbfbf" points="642,-112.5 642,-131.5 714,-131.5 714,-112.5 642,-112.5"/>
<text text-anchor="middle" x="678" y="-119.5" font-family="Helvetica,sans-Serif" font-size="10.00">sys/types.h</text>
</a>
</g>
</g>
<!-- Node1&#45;&gt;Node20 -->
<g id="edge26" class="edge">
<title>Node1&#45;&gt;Node20</title>
<path fill="none" stroke="midnightblue" d="M663.26,-224.37C665.84,-206.62 671.79,-165.67 675.29,-141.6"/>
<polygon fill="midnightblue" stroke="midnightblue" points="678.77,-141.99 676.75,-131.59 671.85,-140.98 678.77,-141.99"/>
</g>
<!-- Node23 -->
<g id="node23" class="node">
<title>Node23</title>
<g id="a_node23"><a xlink:title=" ">
<polygon fill="white" stroke="#bfbfbf" points="732,-112.5 732,-131.5 788,-131.5 788,-112.5 732,-112.5"/>
<text text-anchor="middle" x="760" y="-119.5" font-family="Helvetica,sans-Serif" font-size="10.00">unistd.h</text>
</a>
</g>
</g>
<!-- Node1&#45;&gt;Node23 -->
<g id="edge28" class="edge">
<title>Node1&#45;&gt;Node23</title>
<path fill="none" stroke="midnightblue" d="M669.69,-224.12C680.59,-211.56 701.2,-187.92 719,-168 727.65,-158.33 737.43,-147.58 745.27,-139.02"/>
<polygon fill="midnightblue" stroke="midnightblue" points="747.91,-141.32 752.09,-131.58 742.75,-136.59 747.91,-141.32"/>
</g>
<!-- Node24 -->
<g id="node24" class="node">
<title>Node24</title>
<g id="a_node24"><a xlink:title=" ">
<polygon fill="white" stroke="#bfbfbf" points="728,-168.5 728,-187.5 792,-187.5 792,-168.5 728,-168.5"/>
<text text-anchor="middle" x="760" y="-175.5" font-family="Helvetica,sans-Serif" font-size="10.00">sys/stat.h</text>
</a>
</g>
</g>
<!-- Node1&#45;&gt;Node24 -->
<g id="edge27" class="edge">
<title>Node1&#45;&gt;Node24</title>
<path fill="none" stroke="midnightblue" d="M677.75,-224.32C693.32,-215.74 717.38,-202.49 735.46,-192.52"/>
<polygon fill="midnightblue" stroke="midnightblue" points="737.22,-195.55 744.29,-187.65 733.85,-189.42 737.22,-195.55"/>
</g>
<!-- Node3 -->
<g id="node3" class="node">
<title>Node3</title>
<g id="a_node3"><a xlink:title=" ">
<polygon fill="white" stroke="#bfbfbf" points="0,-0.5 0,-19.5 58,-19.5 58,-0.5 0,-0.5"/>
<text text-anchor="middle" x="29" y="-7.5" font-family="Helvetica,sans-Serif" font-size="10.00">memory</text>
</a>
</g>
</g>
<!-- Node2&#45;&gt;Node3 -->
<g id="edge2" class="edge">
<title>Node2&#45;&gt;Node3</title>
<path fill="none" stroke="midnightblue" d="M138.62,-168.43C137.28,-147.2 131.21,-91.35 104,-56 93.14,-41.88 76.48,-31.26 61.62,-23.88"/>
<polygon fill="midnightblue" stroke="midnightblue" points="62.74,-20.54 52.2,-19.5 59.79,-26.89 62.74,-20.54"/>
</g>
<!-- Node4 -->
<g id="node4" class="node">
<title>Node4</title>
<g id="a_node4"><a xlink:title=" ">
<polygon fill="white" stroke="#bfbfbf" points="25.5,-112.5 25.5,-131.5 72.5,-131.5 72.5,-112.5 25.5,-112.5"/>
<text text-anchor="middle" x="49" y="-119.5" font-family="Helvetica,sans-Serif" font-size="10.00">vector</text>
</a>
</g>
</g>
<!-- Node2&#45;&gt;Node4 -->
<g id="edge3" class="edge">
<title>Node2&#45;&gt;Node4</title>
<path fill="none" stroke="midnightblue" d="M124.54,-168.32C110.5,-159.9 88.95,-146.97 72.46,-137.07"/>
<polygon fill="midnightblue" stroke="midnightblue" points="73.8,-133.8 63.42,-131.65 70.2,-139.8 73.8,-133.8"/>
</g>
<!-- Node5 -->
<g id="node5" class="node">
<title>Node5</title>
<g id="a_node5"><a xlink:href="thread_8h.html" target="_top" xlink:title="线程相关的封装">
<polygon fill="white" stroke="black" points="175.5,-112.5 175.5,-131.5 232.5,-131.5 232.5,-112.5 175.5,-112.5"/>
<text text-anchor="middle" x="204" y="-119.5" font-family="Helvetica,sans-Serif" font-size="10.00">thread.h</text>
</a>
</g>
</g>
<!-- Node2&#45;&gt;Node5 -->
<g id="edge4" class="edge">
<title>Node2&#45;&gt;Node5</title>
<path fill="none" stroke="midnightblue" d="M149.44,-168.32C159.15,-160.26 173.82,-148.08 185.5,-138.37"/>
<polygon fill="midnightblue" stroke="midnightblue" points="187.91,-140.92 193.37,-131.83 183.44,-135.53 187.91,-140.92"/>
</g>
<!-- Node16 -->
<g id="node16" class="node">
<title>Node16</title>
<g id="a_node16"><a xlink:href="singleton_8h.html" target="_top" xlink:title="单例模式封装">
<polygon fill="white" stroke="black" points="24.5,-56.5 24.5,-75.5 95.5,-75.5 95.5,-56.5 24.5,-56.5"/>
<text text-anchor="middle" x="60" y="-63.5" font-family="Helvetica,sans-Serif" font-size="10.00">singleton.h</text>
</a>
</g>
</g>
<!-- Node2&#45;&gt;Node16 -->
<g id="edge16" class="edge">
<title>Node2&#45;&gt;Node16</title>
<path fill="none" stroke="midnightblue" d="M132.8,-168.37C119.76,-150.22 89.3,-107.8 72.2,-83.99"/>
<polygon fill="midnightblue" stroke="midnightblue" points="74.85,-81.67 66.17,-75.59 69.16,-85.76 74.85,-81.67"/>
</g>
<!-- Node6 -->
<g id="node6" class="node">
<title>Node6</title>
<g id="a_node6"><a xlink:title=" ">
<polygon fill="white" stroke="#bfbfbf" points="182,-56.5 182,-75.5 226,-75.5 226,-56.5 182,-56.5"/>
<text text-anchor="middle" x="204" y="-63.5" font-family="Helvetica,sans-Serif" font-size="10.00">string</text>
</a>
</g>
</g>
<!-- Node5&#45;&gt;Node6 -->
<g id="edge5" class="edge">
<title>Node5&#45;&gt;Node6</title>
<path fill="none" stroke="midnightblue" d="M204,-112.08C204,-105.01 204,-94.86 204,-85.99"/>
<polygon fill="midnightblue" stroke="midnightblue" points="207.5,-85.75 204,-75.75 200.5,-85.75 207.5,-85.75"/>
</g>
<!-- Node7 -->
<g id="node7" class="node">
<title>Node7</title>
<g id="a_node7"><a xlink:href="mutex_8h.html" target="_top" xlink:title="信号量，互斥锁，读写锁，范围锁模板，自旋锁，原子锁">
<polygon fill="white" stroke="black" points="281.5,-56.5 281.5,-75.5 338.5,-75.5 338.5,-56.5 281.5,-56.5"/>
<text text-anchor="middle" x="310" y="-63.5" font-family="Helvetica,sans-Serif" font-size="10.00">mutex.h</text>
</a>
</g>
</g>
<!-- Node5&#45;&gt;Node7 -->
<g id="edge6" class="edge">
<title>Node5&#45;&gt;Node7</title>
<path fill="none" stroke="midnightblue" d="M221.03,-112.32C238.03,-103.66 264.38,-90.24 283.99,-80.25"/>
<polygon fill="midnightblue" stroke="midnightblue" points="285.69,-83.31 293.01,-75.65 282.51,-77.08 285.69,-83.31"/>
</g>
<!-- Node7&#45;&gt;Node3 -->
<g id="edge9" class="edge">
<title>Node7&#45;&gt;Node3</title>
<path fill="none" stroke="midnightblue" d="M281.48,-60.19C237.72,-52.71 151.17,-37.51 67.89,-20.1"/>
<polygon fill="midnightblue" stroke="midnightblue" points="68.52,-16.66 58.01,-18.03 67.08,-23.51 68.52,-16.66"/>
</g>
<!-- Node8 -->
<g id="node8" class="node">
<title>Node8</title>
<g id="a_node8"><a xlink:title=" ">
<polygon fill="white" stroke="#bfbfbf" points="480,-0.5 480,-19.5 528,-19.5 528,-0.5 480,-0.5"/>
<text text-anchor="middle" x="504" y="-7.5" font-family="Helvetica,sans-Serif" font-size="10.00">thread</text>
</a>
</g>
</g>
<!-- Node7&#45;&gt;Node8 -->
<g id="edge7" class="edge">
<title>Node7&#45;&gt;Node8</title>
<path fill="none" stroke="midnightblue" d="M338.63,-57.03C373.6,-47.3 432.7,-30.85 469.96,-20.47"/>
<polygon fill="midnightblue" stroke="midnightblue" points="471.16,-23.77 479.86,-17.72 469.28,-17.03 471.16,-23.77"/>
</g>
<!-- Node9 -->
<g id="node9" class="node">
<title>Node9</title>
<g id="a_node9"><a xlink:title=" ">
<polygon fill="white" stroke="#bfbfbf" points="546.5,-0.5 546.5,-19.5 611.5,-19.5 611.5,-0.5 546.5,-0.5"/>
<text text-anchor="middle" x="579" y="-7.5" font-family="Helvetica,sans-Serif" font-size="10.00">functional</text>
</a>
</g>
</g>
<!-- Node7&#45;&gt;Node9 -->
<g id="edge8" class="edge">
<title>Node7&#45;&gt;Node9</title>
<path fill="none" stroke="midnightblue" d="M338.7,-59.46C380.03,-51.44 458.96,-36.02 536.51,-20.07"/>
<polygon fill="midnightblue" stroke="midnightblue" points="537.36,-23.47 546.45,-18.03 535.95,-16.62 537.36,-23.47"/>
</g>
<!-- Node10 -->
<g id="node10" class="node">
<title>Node10</title>
<g id="a_node10"><a xlink:title=" ">
<polygon fill="white" stroke="#bfbfbf" points="76.5,-0.5 76.5,-19.5 139.5,-19.5 139.5,-0.5 76.5,-0.5"/>
<text text-anchor="middle" x="108" y="-7.5" font-family="Helvetica,sans-Serif" font-size="10.00">pthread.h</text>
</a>
</g>
</g>
<!-- Node7&#45;&gt;Node10 -->
<g id="edge10" class="edge">
<title>Node7&#45;&gt;Node10</title>
<path fill="none" stroke="midnightblue" d="M281.49,-57.38C247.07,-48.18 188.92,-32.63 149.53,-22.1"/>
<polygon fill="midnightblue" stroke="midnightblue" points="150.26,-18.67 139.69,-19.47 148.45,-25.44 150.26,-18.67"/>
</g>
<!-- Node11 -->
<g id="node11" class="node">
<title>Node11</title>
<g id="a_node11"><a xlink:title=" ">
<polygon fill="white" stroke="#bfbfbf" points="158,-0.5 158,-19.5 238,-19.5 238,-0.5 158,-0.5"/>
<text text-anchor="middle" x="198" y="-7.5" font-family="Helvetica,sans-Serif" font-size="10.00">semaphore.h</text>
</a>
</g>
</g>
<!-- Node7&#45;&gt;Node11 -->
<g id="edge11" class="edge">
<title>Node7&#45;&gt;Node11</title>
<path fill="none" stroke="midnightblue" d="M292.01,-56.32C273.96,-47.62 245.95,-34.12 225.2,-24.11"/>
<polygon fill="midnightblue" stroke="midnightblue" points="226.48,-20.84 215.95,-19.65 223.44,-27.15 226.48,-20.84"/>
</g>
<!-- Node12 -->
<g id="node12" class="node">
<title>Node12</title>
<g id="a_node12"><a xlink:title=" ">
<polygon fill="white" stroke="#bfbfbf" points="629.5,-0.5 629.5,-19.5 682.5,-19.5 682.5,-0.5 629.5,-0.5"/>
<text text-anchor="middle" x="656" y="-7.5" font-family="Helvetica,sans-Serif" font-size="10.00">stdint.h</text>
</a>
</g>
</g>
<!-- Node7&#45;&gt;Node12 -->
<g id="edge12" class="edge">
<title>Node7&#45;&gt;Node12</title>
<path fill="none" stroke="midnightblue" d="M338.91,-61.87C392.45,-55.86 510.82,-41.5 619.5,-20.13"/>
<polygon fill="midnightblue" stroke="midnightblue" points="620.19,-23.56 629.32,-18.18 618.82,-16.7 620.19,-23.56"/>
</g>
<!-- Node13 -->
<g id="node13" class="node">
<title>Node13</title>
<g id="a_node13"><a xlink:title=" ">
<polygon fill="white" stroke="#bfbfbf" points="256,-0.5 256,-19.5 306,-19.5 306,-0.5 256,-0.5"/>
<text text-anchor="middle" x="281" y="-7.5" font-family="Helvetica,sans-Serif" font-size="10.00">atomic</text>
</a>
</g>
</g>
<!-- Node7&#45;&gt;Node13 -->
<g id="edge13" class="edge">
<title>Node7&#45;&gt;Node13</title>
<path fill="none" stroke="midnightblue" d="M305.21,-56.08C301.24,-48.69 295.47,-37.95 290.57,-28.81"/>
<polygon fill="midnightblue" stroke="midnightblue" points="293.51,-26.91 285.7,-19.75 287.35,-30.22 293.51,-26.91"/>
</g>
<!-- Node14 -->
<g id="node14" class="node">
<title>Node14</title>
<g id="a_node14"><a xlink:title=" ">
<polygon fill="white" stroke="#bfbfbf" points="324,-0.5 324,-19.5 356,-19.5 356,-0.5 324,-0.5"/>
<text text-anchor="middle" x="340" y="-7.5" font-family="Helvetica,sans-Serif" font-size="10.00">list</text>
</a>
</g>
</g>
<!-- Node7&#45;&gt;Node14 -->
<g id="edge14" class="edge">
<title>Node7&#45;&gt;Node14</title>
<path fill="none" stroke="midnightblue" d="M314.95,-56.08C319.1,-48.61 325.15,-37.72 330.27,-28.52"/>
<polygon fill="midnightblue" stroke="midnightblue" points="333.34,-30.19 335.14,-19.75 327.22,-26.79 333.34,-30.19"/>
</g>
<!-- Node15 -->
<g id="node15" class="node">
<title>Node15</title>
<g id="a_node15"><a xlink:href="noncopyable_8h.html" target="_top" xlink:title="不可拷贝对象封装">
<polygon fill="white" stroke="black" points="374,-0.5 374,-19.5 462,-19.5 462,-0.5 374,-0.5"/>
<text text-anchor="middle" x="418" y="-7.5" font-family="Helvetica,sans-Serif" font-size="10.00">noncopyable.h</text>
</a>
</g>
</g>
<!-- Node7&#45;&gt;Node15 -->
<g id="edge15" class="edge">
<title>Node7&#45;&gt;Node15</title>
<path fill="none" stroke="midnightblue" d="M327.35,-56.32C344.67,-47.66 371.52,-34.24 391.5,-24.25"/>
<polygon fill="midnightblue" stroke="midnightblue" points="393.31,-27.26 400.69,-19.65 390.18,-21 393.31,-27.26"/>
</g>
<!-- Node16&#45;&gt;Node3 -->
<g id="edge17" class="edge">
<title>Node16&#45;&gt;Node3</title>
<path fill="none" stroke="midnightblue" d="M54.88,-56.08C50.59,-48.61 44.34,-37.72 39.06,-28.52"/>
<polygon fill="midnightblue" stroke="midnightblue" points="42.04,-26.68 34.02,-19.75 35.97,-30.17 42.04,-26.68"/>
</g>
<!-- Node17&#45;&gt;Node12 -->
<g id="edge23" class="edge">
<title>Node17&#45;&gt;Node12</title>
<path fill="none" stroke="midnightblue" d="M582.19,-168.08C594.58,-141.72 631.15,-63.88 647.7,-28.66"/>
<polygon fill="midnightblue" stroke="midnightblue" points="650.89,-30.11 651.97,-19.57 644.55,-27.13 650.89,-30.11"/>
</g>
<!-- Node18 -->
<g id="node18" class="node">
<title>Node18</title>
<g id="a_node18"><a xlink:title=" ">
<polygon fill="white" stroke="#bfbfbf" points="292.5,-112.5 292.5,-131.5 339.5,-131.5 339.5,-112.5 292.5,-112.5"/>
<text text-anchor="middle" x="316" y="-119.5" font-family="Helvetica,sans-Serif" font-size="10.00">fcntl.h</text>
</a>
</g>
</g>
<!-- Node17&#45;&gt;Node18 -->
<g id="edge19" class="edge">
<title>Node17&#45;&gt;Node18</title>
<path fill="none" stroke="midnightblue" d="M552.8,-172.66C512.22,-165.55 429.71,-150.54 349.96,-132.08"/>
<polygon fill="midnightblue" stroke="midnightblue" points="350.27,-128.56 339.74,-129.69 348.68,-135.38 350.27,-128.56"/>
</g>
<!-- Node19 -->
<g id="node19" class="node">
<title>Node19</title>
<g id="a_node19"><a xlink:title=" ">
<polygon fill="white" stroke="#bfbfbf" points="358,-112.5 358,-131.5 424,-131.5 424,-112.5 358,-112.5"/>
<text text-anchor="middle" x="391" y="-119.5" font-family="Helvetica,sans-Serif" font-size="10.00">sys/ioctl.h</text>
</a>
</g>
</g>
<!-- Node17&#45;&gt;Node19 -->
<g id="edge20" class="edge">
<title>Node17&#45;&gt;Node19</title>
<path fill="none" stroke="midnightblue" d="M552.78,-169.72C521.43,-160.67 467.57,-145.11 430.67,-134.46"/>
<polygon fill="midnightblue" stroke="midnightblue" points="431.33,-131 420.75,-131.59 429.38,-137.73 431.33,-131"/>
</g>
<!-- Node17&#45;&gt;Node20 -->
<g id="edge21" class="edge">
<title>Node17&#45;&gt;Node20</title>
<path fill="none" stroke="midnightblue" d="M594.07,-168.32C609.96,-159.74 634.51,-146.49 652.96,-136.52"/>
<polygon fill="midnightblue" stroke="midnightblue" points="654.84,-139.49 661.97,-131.65 651.51,-133.33 654.84,-139.49"/>
</g>
<!-- Node21 -->
<g id="node21" class="node">
<title>Node21</title>
<g id="a_node21"><a xlink:title=" ">
<polygon fill="white" stroke="#bfbfbf" points="442.5,-112.5 442.5,-131.5 519.5,-131.5 519.5,-112.5 442.5,-112.5"/>
<text text-anchor="middle" x="481" y="-119.5" font-family="Helvetica,sans-Serif" font-size="10.00">sys/socket.h</text>
</a>
</g>
</g>
<!-- Node17&#45;&gt;Node21 -->
<g id="edge22" class="edge">
<title>Node17&#45;&gt;Node21</title>
<path fill="none" stroke="midnightblue" d="M562.42,-168.32C547,-159.74 523.19,-146.49 505.29,-136.52"/>
<polygon fill="midnightblue" stroke="midnightblue" points="506.99,-133.46 496.55,-131.65 503.58,-139.58 506.99,-133.46"/>
</g>
<!-- Node22 -->
<g id="node22" class="node">
<title>Node22</title>
<g id="a_node22"><a xlink:title=" ">
<polygon fill="white" stroke="#bfbfbf" points="538,-112.5 538,-131.5 586,-131.5 586,-112.5 538,-112.5"/>
<text text-anchor="middle" x="562" y="-119.5" font-family="Helvetica,sans-Serif" font-size="10.00">time.h</text>
</a>
</g>
</g>
<!-- Node17&#45;&gt;Node22 -->
<g id="edge24" class="edge">
<title>Node17&#45;&gt;Node22</title>
<path fill="none" stroke="midnightblue" d="M575.36,-168.08C573.21,-160.85 570.12,-150.41 567.45,-141.4"/>
<polygon fill="midnightblue" stroke="midnightblue" points="570.79,-140.34 564.59,-131.75 564.08,-142.33 570.79,-140.34"/>
</g>
<!-- Node17&#45;&gt;Node23 -->
<g id="edge25" class="edge">
<title>Node17&#45;&gt;Node23</title>
<path fill="none" stroke="midnightblue" d="M603.31,-169.49C634.06,-160.37 686.26,-144.88 721.89,-134.31"/>
<polygon fill="midnightblue" stroke="midnightblue" points="723.33,-137.53 731.92,-131.33 721.34,-130.82 723.33,-137.53"/>
</g>
</g>
</svg>
