<?xml version="1.0" encoding="UTF-8" standalone="no"?>
<!DOCTYPE svg PUBLIC "-//W3C//DTD SVG 1.1//EN"
 "http://www.w3.org/Graphics/SVG/1.1/DTD/svg11.dtd">
<!-- Generated by graphviz version 2.43.0 (0)
 -->
<!-- Title: sylar/fd_manager.h Pages: 1 -->
<svg width="698pt" height="196pt"
 viewBox="0.00 0.00 697.50 196.00" xmlns="http://www.w3.org/2000/svg" xmlns:xlink="http://www.w3.org/1999/xlink">
<g id="graph0" class="graph" transform="scale(1 1) rotate(0) translate(4 192)">
<title>sylar/fd_manager.h</title>
<polygon fill="white" stroke="transparent" points="-4,4 -4,-192 693.5,-192 693.5,4 -4,4"/>
<!-- Node1 -->
<g id="node1" class="node">
<title>Node1</title>
<g id="a_node1"><a xlink:title="文件句柄管理类">
<polygon fill="#bfbfbf" stroke="black" points="58.5,-168.5 58.5,-187.5 168.5,-187.5 168.5,-168.5 58.5,-168.5"/>
<text text-anchor="middle" x="113.5" y="-175.5" font-family="Helvetica,sans-Serif" font-size="10.00">sylar/fd_manager.h</text>
</a>
</g>
</g>
<!-- Node2 -->
<g id="node2" class="node">
<title>Node2</title>
<g id="a_node2"><a xlink:title=" ">
<polygon fill="white" stroke="#bfbfbf" points="6.5,-0.5 6.5,-19.5 64.5,-19.5 64.5,-0.5 6.5,-0.5"/>
<text text-anchor="middle" x="35.5" y="-7.5" font-family="Helvetica,sans-Serif" font-size="10.00">memory</text>
</a>
</g>
</g>
<!-- Node1&#45;&gt;Node2 -->
<g id="edge1" class="edge">
<title>Node1&#45;&gt;Node2</title>
<path fill="none" stroke="midnightblue" d="M116.42,-168.35C120.23,-155.67 125.73,-131.43 119.5,-112 107.94,-75.92 76.01,-44.14 55.02,-26.27"/>
<polygon fill="midnightblue" stroke="midnightblue" points="56.99,-23.36 47.05,-19.7 52.54,-28.76 56.99,-23.36"/>
</g>
<!-- Node3 -->
<g id="node3" class="node">
<title>Node3</title>
<g id="a_node3"><a xlink:title=" ">
<polygon fill="white" stroke="#bfbfbf" points="64,-112.5 64,-131.5 111,-131.5 111,-112.5 64,-112.5"/>
<text text-anchor="middle" x="87.5" y="-119.5" font-family="Helvetica,sans-Serif" font-size="10.00">vector</text>
</a>
</g>
</g>
<!-- Node1&#45;&gt;Node3 -->
<g id="edge2" class="edge">
<title>Node1&#45;&gt;Node3</title>
<path fill="none" stroke="midnightblue" d="M109.21,-168.08C105.65,-160.69 100.48,-149.95 96.08,-140.81"/>
<polygon fill="midnightblue" stroke="midnightblue" points="99.21,-139.24 91.71,-131.75 92.9,-142.28 99.21,-139.24"/>
</g>
<!-- Node4 -->
<g id="node4" class="node">
<title>Node4</title>
<g id="a_node4"><a xlink:href="thread_8h.html" target="_top" xlink:title="线程相关的封装">
<polygon fill="white" stroke="black" points="212,-112.5 212,-131.5 269,-131.5 269,-112.5 212,-112.5"/>
<text text-anchor="middle" x="240.5" y="-119.5" font-family="Helvetica,sans-Serif" font-size="10.00">thread.h</text>
</a>
</g>
</g>
<!-- Node1&#45;&gt;Node4 -->
<g id="edge3" class="edge">
<title>Node1&#45;&gt;Node4</title>
<path fill="none" stroke="midnightblue" d="M133.62,-168.44C154.52,-159.56 187.43,-145.56 211.22,-135.45"/>
<polygon fill="midnightblue" stroke="midnightblue" points="212.64,-138.65 220.47,-131.52 209.9,-132.21 212.64,-138.65"/>
</g>
<!-- Node15 -->
<g id="node15" class="node">
<title>Node15</title>
<g id="a_node15"><a xlink:href="singleton_8h.html" target="_top" xlink:title="单例模式封装">
<polygon fill="white" stroke="black" points="0,-56.5 0,-75.5 71,-75.5 71,-56.5 0,-56.5"/>
<text text-anchor="middle" x="35.5" y="-63.5" font-family="Helvetica,sans-Serif" font-size="10.00">singleton.h</text>
</a>
</g>
</g>
<!-- Node1&#45;&gt;Node15 -->
<g id="edge15" class="edge">
<title>Node1&#45;&gt;Node15</title>
<path fill="none" stroke="midnightblue" d="M97.16,-168.44C83.82,-160.64 65.44,-147.93 54.5,-132 45.04,-118.22 40.22,-99.7 37.82,-85.95"/>
<polygon fill="midnightblue" stroke="midnightblue" points="41.23,-85.11 36.31,-75.73 34.31,-86.14 41.23,-85.11"/>
</g>
<!-- Node5 -->
<g id="node5" class="node">
<title>Node5</title>
<g id="a_node5"><a xlink:title=" ">
<polygon fill="white" stroke="#bfbfbf" points="218.5,-56.5 218.5,-75.5 262.5,-75.5 262.5,-56.5 218.5,-56.5"/>
<text text-anchor="middle" x="240.5" y="-63.5" font-family="Helvetica,sans-Serif" font-size="10.00">string</text>
</a>
</g>
</g>
<!-- Node4&#45;&gt;Node5 -->
<g id="edge4" class="edge">
<title>Node4&#45;&gt;Node5</title>
<path fill="none" stroke="midnightblue" d="M240.5,-112.08C240.5,-105.01 240.5,-94.86 240.5,-85.99"/>
<polygon fill="midnightblue" stroke="midnightblue" points="244,-85.75 240.5,-75.75 237,-85.75 244,-85.75"/>
</g>
<!-- Node6 -->
<g id="node6" class="node">
<title>Node6</title>
<g id="a_node6"><a xlink:href="mutex_8h.html" target="_top" xlink:title="信号量，互斥锁，读写锁，范围锁模板，自旋锁，原子锁">
<polygon fill="white" stroke="black" points="303,-56.5 303,-75.5 360,-75.5 360,-56.5 303,-56.5"/>
<text text-anchor="middle" x="331.5" y="-63.5" font-family="Helvetica,sans-Serif" font-size="10.00">mutex.h</text>
</a>
</g>
</g>
<!-- Node4&#45;&gt;Node6 -->
<g id="edge5" class="edge">
<title>Node4&#45;&gt;Node6</title>
<path fill="none" stroke="midnightblue" d="M255.12,-112.32C269.45,-103.82 291.51,-90.73 308.25,-80.8"/>
<polygon fill="midnightblue" stroke="midnightblue" points="310.1,-83.77 316.92,-75.65 306.53,-77.75 310.1,-83.77"/>
</g>
<!-- Node6&#45;&gt;Node2 -->
<g id="edge8" class="edge">
<title>Node6&#45;&gt;Node2</title>
<path fill="none" stroke="midnightblue" d="M302.76,-60.56C256.73,-53.33 163.4,-38.17 74.49,-20.1"/>
<polygon fill="midnightblue" stroke="midnightblue" points="75.01,-16.64 64.51,-18.06 73.6,-23.49 75.01,-16.64"/>
</g>
<!-- Node7 -->
<g id="node7" class="node">
<title>Node7</title>
<g id="a_node7"><a xlink:title=" ">
<polygon fill="white" stroke="#bfbfbf" points="82.5,-0.5 82.5,-19.5 130.5,-19.5 130.5,-0.5 82.5,-0.5"/>
<text text-anchor="middle" x="106.5" y="-7.5" font-family="Helvetica,sans-Serif" font-size="10.00">thread</text>
</a>
</g>
</g>
<!-- Node6&#45;&gt;Node7 -->
<g id="edge6" class="edge">
<title>Node6&#45;&gt;Node7</title>
<path fill="none" stroke="midnightblue" d="M302.8,-58.61C267.03,-50.58 203.81,-36.14 140.39,-20.16"/>
<polygon fill="midnightblue" stroke="midnightblue" points="141.18,-16.75 130.62,-17.69 139.46,-23.53 141.18,-16.75"/>
</g>
<!-- Node8 -->
<g id="node8" class="node">
<title>Node8</title>
<g id="a_node8"><a xlink:title=" ">
<polygon fill="white" stroke="#bfbfbf" points="149,-0.5 149,-19.5 214,-19.5 214,-0.5 149,-0.5"/>
<text text-anchor="middle" x="181.5" y="-7.5" font-family="Helvetica,sans-Serif" font-size="10.00">functional</text>
</a>
</g>
</g>
<!-- Node6&#45;&gt;Node8 -->
<g id="edge7" class="edge">
<title>Node6&#45;&gt;Node8</title>
<path fill="none" stroke="midnightblue" d="M307.73,-56.44C282.61,-47.4 242.79,-33.06 214.6,-22.92"/>
<polygon fill="midnightblue" stroke="midnightblue" points="215.75,-19.61 205.16,-19.52 213.38,-26.2 215.75,-19.61"/>
</g>
<!-- Node9 -->
<g id="node9" class="node">
<title>Node9</title>
<g id="a_node9"><a xlink:title=" ">
<polygon fill="white" stroke="#bfbfbf" points="232,-0.5 232,-19.5 295,-19.5 295,-0.5 232,-0.5"/>
<text text-anchor="middle" x="263.5" y="-7.5" font-family="Helvetica,sans-Serif" font-size="10.00">pthread.h</text>
</a>
</g>
</g>
<!-- Node6&#45;&gt;Node9 -->
<g id="edge9" class="edge">
<title>Node6&#45;&gt;Node9</title>
<path fill="none" stroke="midnightblue" d="M320.57,-56.32C310.33,-48.18 294.78,-35.84 282.5,-26.09"/>
<polygon fill="midnightblue" stroke="midnightblue" points="284.63,-23.31 274.62,-19.83 280.28,-28.79 284.63,-23.31"/>
</g>
<!-- Node10 -->
<g id="node10" class="node">
<title>Node10</title>
<g id="a_node10"><a xlink:title=" ">
<polygon fill="white" stroke="#bfbfbf" points="313.5,-0.5 313.5,-19.5 393.5,-19.5 393.5,-0.5 313.5,-0.5"/>
<text text-anchor="middle" x="353.5" y="-7.5" font-family="Helvetica,sans-Serif" font-size="10.00">semaphore.h</text>
</a>
</g>
</g>
<!-- Node6&#45;&gt;Node10 -->
<g id="edge10" class="edge">
<title>Node6&#45;&gt;Node10</title>
<path fill="none" stroke="midnightblue" d="M335.13,-56.08C338.11,-48.77 342.43,-38.18 346.12,-29.1"/>
<polygon fill="midnightblue" stroke="midnightblue" points="349.4,-30.33 349.93,-19.75 342.92,-27.69 349.4,-30.33"/>
</g>
<!-- Node11 -->
<g id="node11" class="node">
<title>Node11</title>
<g id="a_node11"><a xlink:title=" ">
<polygon fill="white" stroke="#bfbfbf" points="412,-0.5 412,-19.5 465,-19.5 465,-0.5 412,-0.5"/>
<text text-anchor="middle" x="438.5" y="-7.5" font-family="Helvetica,sans-Serif" font-size="10.00">stdint.h</text>
</a>
</g>
</g>
<!-- Node6&#45;&gt;Node11 -->
<g id="edge11" class="edge">
<title>Node6&#45;&gt;Node11</title>
<path fill="none" stroke="midnightblue" d="M348.69,-56.32C365.85,-47.66 392.45,-34.24 412.25,-24.25"/>
<polygon fill="midnightblue" stroke="midnightblue" points="414,-27.28 421.35,-19.65 410.85,-21.04 414,-27.28"/>
</g>
<!-- Node12 -->
<g id="node12" class="node">
<title>Node12</title>
<g id="a_node12"><a xlink:title=" ">
<polygon fill="white" stroke="#bfbfbf" points="483.5,-0.5 483.5,-19.5 533.5,-19.5 533.5,-0.5 483.5,-0.5"/>
<text text-anchor="middle" x="508.5" y="-7.5" font-family="Helvetica,sans-Serif" font-size="10.00">atomic</text>
</a>
</g>
</g>
<!-- Node6&#45;&gt;Node12 -->
<g id="edge12" class="edge">
<title>Node6&#45;&gt;Node12</title>
<path fill="none" stroke="midnightblue" d="M359.55,-56.44C390.47,-47.01 440.24,-31.82 473.65,-21.63"/>
<polygon fill="midnightblue" stroke="midnightblue" points="474.9,-24.91 483.45,-18.64 472.86,-18.21 474.9,-24.91"/>
</g>
<!-- Node13 -->
<g id="node13" class="node">
<title>Node13</title>
<g id="a_node13"><a xlink:title=" ">
<polygon fill="white" stroke="#bfbfbf" points="551.5,-0.5 551.5,-19.5 583.5,-19.5 583.5,-0.5 551.5,-0.5"/>
<text text-anchor="middle" x="567.5" y="-7.5" font-family="Helvetica,sans-Serif" font-size="10.00">list</text>
</a>
</g>
</g>
<!-- Node6&#45;&gt;Node13 -->
<g id="edge13" class="edge">
<title>Node6&#45;&gt;Node13</title>
<path fill="none" stroke="midnightblue" d="M360.13,-60.17C399.15,-53.3 471.34,-39.64 541.57,-19.95"/>
<polygon fill="midnightblue" stroke="midnightblue" points="542.81,-23.24 551.47,-17.13 540.89,-16.51 542.81,-23.24"/>
</g>
<!-- Node14 -->
<g id="node14" class="node">
<title>Node14</title>
<g id="a_node14"><a xlink:href="noncopyable_8h.html" target="_top" xlink:title="不可拷贝对象封装">
<polygon fill="white" stroke="black" points="601.5,-0.5 601.5,-19.5 689.5,-19.5 689.5,-0.5 601.5,-0.5"/>
<text text-anchor="middle" x="645.5" y="-7.5" font-family="Helvetica,sans-Serif" font-size="10.00">noncopyable.h</text>
</a>
</g>
</g>
<!-- Node6&#45;&gt;Node14 -->
<g id="edge14" class="edge">
<title>Node6&#45;&gt;Node14</title>
<path fill="none" stroke="midnightblue" d="M360.2,-60.06C412.54,-51.06 524.3,-31.84 591.35,-20.31"/>
<polygon fill="midnightblue" stroke="midnightblue" points="592.05,-23.74 601.31,-18.6 590.86,-16.85 592.05,-23.74"/>
</g>
<!-- Node15&#45;&gt;Node2 -->
<g id="edge16" class="edge">
<title>Node15&#45;&gt;Node2</title>
<path fill="none" stroke="midnightblue" d="M35.5,-56.08C35.5,-49.01 35.5,-38.86 35.5,-29.99"/>
<polygon fill="midnightblue" stroke="midnightblue" points="39,-29.75 35.5,-19.75 32,-29.75 39,-29.75"/>
</g>
</g>
</svg>
