<?xml version="1.0" encoding="UTF-8" standalone="no"?>
<!DOCTYPE svg PUBLIC "-//W3C//DTD SVG 1.1//EN"
 "http://www.w3.org/Graphics/SVG/1.1/DTD/svg11.dtd">
<!-- Generated by graphviz version 2.43.0 (0)
 -->
<!-- Title: sylar/fiber.h Pages: 1 -->
<svg width="692pt" height="196pt"
 viewBox="0.00 0.00 691.50 196.00" xmlns="http://www.w3.org/2000/svg" xmlns:xlink="http://www.w3.org/1999/xlink">
<g id="graph0" class="graph" transform="scale(1 1) rotate(0) translate(4 192)">
<title>sylar/fiber.h</title>
<polygon fill="white" stroke="transparent" points="-4,4 -4,-192 687.5,-192 687.5,4 -4,4"/>
<!-- Node1 -->
<g id="node1" class="node">
<title>Node1</title>
<g id="a_node1"><a xlink:title="协程模块">
<polygon fill="#bfbfbf" stroke="black" points="133.5,-168.5 133.5,-187.5 207.5,-187.5 207.5,-168.5 133.5,-168.5"/>
<text text-anchor="middle" x="170.5" y="-175.5" font-family="Helvetica,sans-Serif" font-size="10.00">sylar/fiber.h</text>
</a>
</g>
</g>
<!-- Node2 -->
<g id="node2" class="node">
<title>Node2</title>
<g id="a_node2"><a xlink:title=" ">
<polygon fill="white" stroke="#bfbfbf" points="0,-0.5 0,-19.5 65,-19.5 65,-0.5 0,-0.5"/>
<text text-anchor="middle" x="32.5" y="-7.5" font-family="Helvetica,sans-Serif" font-size="10.00">functional</text>
</a>
</g>
</g>
<!-- Node1&#45;&gt;Node2 -->
<g id="edge1" class="edge">
<title>Node1&#45;&gt;Node2</title>
<path fill="none" stroke="midnightblue" d="M163.08,-168.08C140.89,-141.38 74.79,-61.87 46.07,-27.32"/>
<polygon fill="midnightblue" stroke="midnightblue" points="48.71,-25.02 39.62,-19.57 43.32,-29.5 48.71,-25.02"/>
</g>
<!-- Node3 -->
<g id="node3" class="node">
<title>Node3</title>
<g id="a_node3"><a xlink:title=" ">
<polygon fill="white" stroke="#bfbfbf" points="83.5,-0.5 83.5,-19.5 141.5,-19.5 141.5,-0.5 83.5,-0.5"/>
<text text-anchor="middle" x="112.5" y="-7.5" font-family="Helvetica,sans-Serif" font-size="10.00">memory</text>
</a>
</g>
</g>
<!-- Node1&#45;&gt;Node3 -->
<g id="edge2" class="edge">
<title>Node1&#45;&gt;Node3</title>
<path fill="none" stroke="midnightblue" d="M167.38,-168.08C158.21,-141.83 131.21,-64.55 118.83,-29.12"/>
<polygon fill="midnightblue" stroke="midnightblue" points="122.1,-27.85 115.49,-19.57 115.49,-30.16 122.1,-27.85"/>
</g>
<!-- Node4 -->
<g id="node4" class="node">
<title>Node4</title>
<g id="a_node4"><a xlink:title=" ">
<polygon fill="white" stroke="#bfbfbf" points="306.5,-112.5 306.5,-131.5 374.5,-131.5 374.5,-112.5 306.5,-112.5"/>
<text text-anchor="middle" x="340.5" y="-119.5" font-family="Helvetica,sans-Serif" font-size="10.00">ucontext.h</text>
</a>
</g>
</g>
<!-- Node1&#45;&gt;Node4 -->
<g id="edge3" class="edge">
<title>Node1&#45;&gt;Node4</title>
<path fill="none" stroke="midnightblue" d="M197.44,-168.44C226.16,-159.32 271.83,-144.81 303.82,-134.65"/>
<polygon fill="midnightblue" stroke="midnightblue" points="305.22,-137.88 313.69,-131.52 303.1,-131.21 305.22,-137.88"/>
</g>
<!-- Node5 -->
<g id="node5" class="node">
<title>Node5</title>
<g id="a_node5"><a xlink:href="thread_8h.html" target="_top" xlink:title="线程相关的封装">
<polygon fill="white" stroke="black" points="231,-112.5 231,-131.5 288,-131.5 288,-112.5 231,-112.5"/>
<text text-anchor="middle" x="259.5" y="-119.5" font-family="Helvetica,sans-Serif" font-size="10.00">thread.h</text>
</a>
</g>
</g>
<!-- Node1&#45;&gt;Node5 -->
<g id="edge4" class="edge">
<title>Node1&#45;&gt;Node5</title>
<path fill="none" stroke="midnightblue" d="M184.8,-168.32C198.68,-159.9 219.99,-146.97 236.3,-137.07"/>
<polygon fill="midnightblue" stroke="midnightblue" points="238.5,-139.83 245.24,-131.65 234.87,-133.85 238.5,-139.83"/>
</g>
<!-- Node6 -->
<g id="node6" class="node">
<title>Node6</title>
<g id="a_node6"><a xlink:title=" ">
<polygon fill="white" stroke="#bfbfbf" points="336.5,-56.5 336.5,-75.5 380.5,-75.5 380.5,-56.5 336.5,-56.5"/>
<text text-anchor="middle" x="358.5" y="-63.5" font-family="Helvetica,sans-Serif" font-size="10.00">string</text>
</a>
</g>
</g>
<!-- Node5&#45;&gt;Node6 -->
<g id="edge5" class="edge">
<title>Node5&#45;&gt;Node6</title>
<path fill="none" stroke="midnightblue" d="M275.41,-112.32C291.14,-103.74 315.44,-90.49 333.71,-80.52"/>
<polygon fill="midnightblue" stroke="midnightblue" points="335.53,-83.52 342.63,-75.65 332.18,-77.37 335.53,-83.52"/>
</g>
<!-- Node7 -->
<g id="node7" class="node">
<title>Node7</title>
<g id="a_node7"><a xlink:href="mutex_8h.html" target="_top" xlink:title="信号量，互斥锁，读写锁，范围锁模板，自旋锁，原子锁">
<polygon fill="white" stroke="black" points="261,-56.5 261,-75.5 318,-75.5 318,-56.5 261,-56.5"/>
<text text-anchor="middle" x="289.5" y="-63.5" font-family="Helvetica,sans-Serif" font-size="10.00">mutex.h</text>
</a>
</g>
</g>
<!-- Node5&#45;&gt;Node7 -->
<g id="edge6" class="edge">
<title>Node5&#45;&gt;Node7</title>
<path fill="none" stroke="midnightblue" d="M264.45,-112.08C268.6,-104.61 274.65,-93.72 279.77,-84.52"/>
<polygon fill="midnightblue" stroke="midnightblue" points="282.84,-86.19 284.64,-75.75 276.72,-82.79 282.84,-86.19"/>
</g>
<!-- Node7&#45;&gt;Node2 -->
<g id="edge8" class="edge">
<title>Node7&#45;&gt;Node2</title>
<path fill="none" stroke="midnightblue" d="M260.97,-59.07C221.56,-50.88 147.96,-35.54 74.89,-20.07"/>
<polygon fill="midnightblue" stroke="midnightblue" points="75.56,-16.64 65.06,-17.99 74.11,-23.49 75.56,-16.64"/>
</g>
<!-- Node7&#45;&gt;Node3 -->
<g id="edge9" class="edge">
<title>Node7&#45;&gt;Node3</title>
<path fill="none" stroke="midnightblue" d="M261.45,-56.44C231.42,-47.28 183.59,-32.69 150.26,-22.52"/>
<polygon fill="midnightblue" stroke="midnightblue" points="151,-19.09 140.41,-19.52 148.96,-25.78 151,-19.09"/>
</g>
<!-- Node8 -->
<g id="node8" class="node">
<title>Node8</title>
<g id="a_node8"><a xlink:title=" ">
<polygon fill="white" stroke="#bfbfbf" points="265.5,-0.5 265.5,-19.5 313.5,-19.5 313.5,-0.5 265.5,-0.5"/>
<text text-anchor="middle" x="289.5" y="-7.5" font-family="Helvetica,sans-Serif" font-size="10.00">thread</text>
</a>
</g>
</g>
<!-- Node7&#45;&gt;Node8 -->
<g id="edge7" class="edge">
<title>Node7&#45;&gt;Node8</title>
<path fill="none" stroke="midnightblue" d="M289.5,-56.08C289.5,-49.01 289.5,-38.86 289.5,-29.99"/>
<polygon fill="midnightblue" stroke="midnightblue" points="293,-29.75 289.5,-19.75 286,-29.75 293,-29.75"/>
</g>
<!-- Node9 -->
<g id="node9" class="node">
<title>Node9</title>
<g id="a_node9"><a xlink:title=" ">
<polygon fill="white" stroke="#bfbfbf" points="332,-0.5 332,-19.5 395,-19.5 395,-0.5 332,-0.5"/>
<text text-anchor="middle" x="363.5" y="-7.5" font-family="Helvetica,sans-Serif" font-size="10.00">pthread.h</text>
</a>
</g>
</g>
<!-- Node7&#45;&gt;Node9 -->
<g id="edge10" class="edge">
<title>Node7&#45;&gt;Node9</title>
<path fill="none" stroke="midnightblue" d="M301.39,-56.32C312.65,-48.11 329.79,-35.6 343.21,-25.81"/>
<polygon fill="midnightblue" stroke="midnightblue" points="345.38,-28.56 351.39,-19.83 341.25,-22.9 345.38,-28.56"/>
</g>
<!-- Node10 -->
<g id="node10" class="node">
<title>Node10</title>
<g id="a_node10"><a xlink:title=" ">
<polygon fill="white" stroke="#bfbfbf" points="413.5,-0.5 413.5,-19.5 493.5,-19.5 493.5,-0.5 413.5,-0.5"/>
<text text-anchor="middle" x="453.5" y="-7.5" font-family="Helvetica,sans-Serif" font-size="10.00">semaphore.h</text>
</a>
</g>
</g>
<!-- Node7&#45;&gt;Node10 -->
<g id="edge11" class="edge">
<title>Node7&#45;&gt;Node10</title>
<path fill="none" stroke="midnightblue" d="M315.49,-56.44C343.2,-47.32 387.25,-32.81 418.12,-22.65"/>
<polygon fill="midnightblue" stroke="midnightblue" points="419.23,-25.97 427.64,-19.52 417.04,-19.32 419.23,-25.97"/>
</g>
<!-- Node11 -->
<g id="node11" class="node">
<title>Node11</title>
<g id="a_node11"><a xlink:title=" ">
<polygon fill="white" stroke="#bfbfbf" points="512,-0.5 512,-19.5 565,-19.5 565,-0.5 512,-0.5"/>
<text text-anchor="middle" x="538.5" y="-7.5" font-family="Helvetica,sans-Serif" font-size="10.00">stdint.h</text>
</a>
</g>
</g>
<!-- Node7&#45;&gt;Node11 -->
<g id="edge12" class="edge">
<title>Node7&#45;&gt;Node11</title>
<path fill="none" stroke="midnightblue" d="M318.11,-58.13C321.28,-57.4 324.45,-56.67 327.5,-56 402,-39.52 423.42,-37.75 501.93,-20.05"/>
<polygon fill="midnightblue" stroke="midnightblue" points="502.82,-23.44 511.79,-17.81 501.27,-16.61 502.82,-23.44"/>
</g>
<!-- Node12 -->
<g id="node12" class="node">
<title>Node12</title>
<g id="a_node12"><a xlink:title=" ">
<polygon fill="white" stroke="#bfbfbf" points="583.5,-0.5 583.5,-19.5 633.5,-19.5 633.5,-0.5 583.5,-0.5"/>
<text text-anchor="middle" x="608.5" y="-7.5" font-family="Helvetica,sans-Serif" font-size="10.00">atomic</text>
</a>
</g>
</g>
<!-- Node7&#45;&gt;Node12 -->
<g id="edge13" class="edge">
<title>Node7&#45;&gt;Node12</title>
<path fill="none" stroke="midnightblue" d="M318.08,-57.95C321.25,-57.25 324.44,-56.58 327.5,-56 433.28,-35.81 464.02,-41.84 573.22,-20.06"/>
<polygon fill="midnightblue" stroke="midnightblue" points="574.22,-23.42 583.32,-18.01 572.83,-16.56 574.22,-23.42"/>
</g>
<!-- Node13 -->
<g id="node13" class="node">
<title>Node13</title>
<g id="a_node13"><a xlink:title=" ">
<polygon fill="white" stroke="#bfbfbf" points="651.5,-0.5 651.5,-19.5 683.5,-19.5 683.5,-0.5 651.5,-0.5"/>
<text text-anchor="middle" x="667.5" y="-7.5" font-family="Helvetica,sans-Serif" font-size="10.00">list</text>
</a>
</g>
</g>
<!-- Node7&#45;&gt;Node13 -->
<g id="edge14" class="edge">
<title>Node7&#45;&gt;Node13</title>
<path fill="none" stroke="midnightblue" d="M318.06,-57.85C321.23,-57.17 324.43,-56.54 327.5,-56 463.05,-32.29 503.41,-51.15 641.17,-19.8"/>
<polygon fill="midnightblue" stroke="midnightblue" points="642.31,-23.13 651.26,-17.46 640.72,-16.31 642.31,-23.13"/>
</g>
<!-- Node14 -->
<g id="node14" class="node">
<title>Node14</title>
<g id="a_node14"><a xlink:href="noncopyable_8h.html" target="_top" xlink:title="不可拷贝对象封装">
<polygon fill="white" stroke="black" points="159.5,-0.5 159.5,-19.5 247.5,-19.5 247.5,-0.5 159.5,-0.5"/>
<text text-anchor="middle" x="203.5" y="-7.5" font-family="Helvetica,sans-Serif" font-size="10.00">noncopyable.h</text>
</a>
</g>
</g>
<!-- Node7&#45;&gt;Node14 -->
<g id="edge15" class="edge">
<title>Node7&#45;&gt;Node14</title>
<path fill="none" stroke="midnightblue" d="M275.68,-56.32C262.27,-47.9 241.68,-34.97 225.91,-25.07"/>
<polygon fill="midnightblue" stroke="midnightblue" points="227.61,-22.01 217.28,-19.65 223.89,-27.94 227.61,-22.01"/>
</g>
</g>
</svg>
