<?xml version="1.0" encoding="UTF-8" standalone="no"?>
<!DOCTYPE svg PUBLIC "-//W3C//DTD SVG 1.1//EN"
 "http://www.w3.org/Graphics/SVG/1.1/DTD/svg11.dtd">
<!-- Generated by graphviz version 2.43.0 (0)
 -->
<!-- Title: sylar/fiber.h Pages: 1 -->
<svg width="2399pt" height="498pt"
 viewBox="0.00 0.00 2399.00 498.00" xmlns="http://www.w3.org/2000/svg" xmlns:xlink="http://www.w3.org/1999/xlink">
<g id="graph0" class="graph" transform="scale(1 1) rotate(0) translate(4 494)">
<title>sylar/fiber.h</title>
<polygon fill="white" stroke="transparent" points="-4,4 -4,-494 2395,-494 2395,4 -4,4"/>
<!-- Node1 -->
<g id="node1" class="node">
<title>Node1</title>
<g id="a_node1"><a xlink:title="协程模块">
<polygon fill="#bfbfbf" stroke="black" points="1509.5,-470.5 1509.5,-489.5 1583.5,-489.5 1583.5,-470.5 1509.5,-470.5"/>
<text text-anchor="middle" x="1546.5" y="-477.5" font-family="Helvetica,sans-Serif" font-size="10.00">sylar/fiber.h</text>
</a>
</g>
</g>
<!-- Node2 -->
<g id="node2" class="node">
<title>Node2</title>
<g id="a_node2"><a xlink:href="scheduler_8h.html" target="_top" xlink:title="协程调度器实现">
<polygon fill="white" stroke="black" points="1203,-414.5 1203,-433.5 1302,-433.5 1302,-414.5 1203,-414.5"/>
<text text-anchor="middle" x="1252.5" y="-421.5" font-family="Helvetica,sans-Serif" font-size="10.00">sylar/scheduler.h</text>
</a>
</g>
</g>
<!-- Node1&#45;&gt;Node2 -->
<g id="edge1" class="edge">
<title>Node1&#45;&gt;Node2</title>
<path fill="none" stroke="midnightblue" d="M1499.41,-470.35C1444.3,-460.23 1353.64,-443.58 1298.86,-433.51"/>
<polygon fill="midnightblue" stroke="midnightblue" points="1498.8,-473.8 1509.26,-472.16 1500.06,-466.91 1498.8,-473.8"/>
</g>
<!-- Node8 -->
<g id="node8" class="node">
<title>Node8</title>
<g id="a_node8"><a xlink:href="sylar_8h_source.html" target="_top" xlink:title=" ">
<polygon fill="white" stroke="black" points="1225.5,-67.5 1225.5,-86.5 1301.5,-86.5 1301.5,-67.5 1225.5,-67.5"/>
<text text-anchor="middle" x="1263.5" y="-74.5" font-family="Helvetica,sans-Serif" font-size="10.00">sylar/sylar.h</text>
</a>
</g>
</g>
<!-- Node1&#45;&gt;Node8 -->
<g id="edge36" class="edge">
<title>Node1&#45;&gt;Node8</title>
<path fill="none" stroke="midnightblue" d="M1541.28,-460.39C1535.66,-438.65 1527.5,-401.51 1527.5,-369 1527.5,-369 1527.5,-369 1527.5,-188 1527.5,-91.3 1374.72,-78.07 1301.61,-77.27"/>
<polygon fill="midnightblue" stroke="midnightblue" points="1537.96,-461.5 1543.94,-470.25 1544.72,-459.68 1537.96,-461.5"/>
</g>
<!-- Node14 -->
<g id="node14" class="node">
<title>Node14</title>
<g id="a_node14"><a xlink:href="test__fiber2_8cc.html" target="_top" xlink:title="协程测试，用于演示非对称协程">
<polygon fill="white" stroke="black" points="2282,-6 2282,-25 2391,-25 2391,-6 2282,-6"/>
<text text-anchor="middle" x="2336.5" y="-13" font-family="Helvetica,sans-Serif" font-size="10.00">tests/test_fiber2.cc</text>
</a>
</g>
</g>
<!-- Node1&#45;&gt;Node14 -->
<g id="edge38" class="edge">
<title>Node1&#45;&gt;Node14</title>
<path fill="none" stroke="midnightblue" d="M1551.72,-460.39C1557.34,-438.65 1565.5,-401.51 1565.5,-369 1565.5,-369 1565.5,-369 1565.5,-132 1565.5,26.93 2117.26,-60.07 2273.5,-31 2282.77,-29.28 2292.74,-27.12 2301.95,-25.01"/>
<polygon fill="midnightblue" stroke="midnightblue" points="1548.28,-459.68 1549.06,-470.25 1555.04,-461.5 1548.28,-459.68"/>
</g>
<!-- Node30 -->
<g id="node30" class="node">
<title>Node30</title>
<g id="a_node30"><a xlink:href="util_8cpp.html" target="_top" xlink:title="util函数实现">
<polygon fill="white" stroke="black" points="1593.5,-414.5 1593.5,-433.5 1673.5,-433.5 1673.5,-414.5 1593.5,-414.5"/>
<text text-anchor="middle" x="1633.5" y="-421.5" font-family="Helvetica,sans-Serif" font-size="10.00">sylar/util.cpp</text>
</a>
</g>
</g>
<!-- Node1&#45;&gt;Node30 -->
<g id="edge37" class="edge">
<title>Node1&#45;&gt;Node30</title>
<path fill="none" stroke="midnightblue" d="M1569.22,-464.9C1585.17,-455 1606,-442.07 1619.56,-433.65"/>
<polygon fill="midnightblue" stroke="midnightblue" points="1567.13,-462.08 1560.48,-470.32 1570.82,-468.02 1567.13,-462.08"/>
</g>
<!-- Node3 -->
<g id="node3" class="node">
<title>Node3</title>
<g id="a_node3"><a xlink:href="iomanager_8h.html" target="_top" xlink:title="IO协程调度器">
<polygon fill="white" stroke="black" points="1261.5,-358.5 1261.5,-377.5 1365.5,-377.5 1365.5,-358.5 1261.5,-358.5"/>
<text text-anchor="middle" x="1313.5" y="-365.5" font-family="Helvetica,sans-Serif" font-size="10.00">sylar/iomanager.h</text>
</a>
</g>
</g>
<!-- Node2&#45;&gt;Node3 -->
<g id="edge2" class="edge">
<title>Node2&#45;&gt;Node3</title>
<path fill="none" stroke="midnightblue" d="M1269.97,-407.54C1280.84,-397.91 1294.44,-385.87 1303.52,-377.83"/>
<polygon fill="midnightblue" stroke="midnightblue" points="1267.47,-405.07 1262.3,-414.32 1272.11,-410.32 1267.47,-405.07"/>
</g>
<!-- Node2&#45;&gt;Node8 -->
<g id="edge35" class="edge">
<title>Node2&#45;&gt;Node8</title>
<path fill="none" stroke="midnightblue" d="M1193,-413.08C1170.65,-406.56 1146.75,-395.78 1130.5,-378 1108.61,-354.04 1111.5,-339.95 1111.5,-307.5 1111.5,-307.5 1111.5,-307.5 1111.5,-188 1111.5,-130.51 1183.75,-100 1228.63,-86.6"/>
<polygon fill="midnightblue" stroke="midnightblue" points="1192.22,-416.5 1202.79,-415.71 1194.04,-409.74 1192.22,-416.5"/>
</g>
<!-- Node29 -->
<g id="node29" class="node">
<title>Node29</title>
<g id="a_node29"><a xlink:href="scheduler_8cc.html" target="_top" xlink:title="协程调度器实现">
<polygon fill="white" stroke="black" points="1139.5,-358.5 1139.5,-377.5 1243.5,-377.5 1243.5,-358.5 1139.5,-358.5"/>
<text text-anchor="middle" x="1191.5" y="-365.5" font-family="Helvetica,sans-Serif" font-size="10.00">sylar/scheduler.cc</text>
</a>
</g>
</g>
<!-- Node2&#45;&gt;Node29 -->
<g id="edge34" class="edge">
<title>Node2&#45;&gt;Node29</title>
<path fill="none" stroke="midnightblue" d="M1235.03,-407.54C1224.16,-397.91 1210.56,-385.87 1201.48,-377.83"/>
<polygon fill="midnightblue" stroke="midnightblue" points="1232.89,-410.32 1242.7,-414.32 1237.53,-405.07 1232.89,-410.32"/>
</g>
<!-- Node4 -->
<g id="node4" class="node">
<title>Node4</title>
<g id="a_node4"><a xlink:href="iomanager_8cc.html" target="_top" xlink:title="IO协程调度器实现">
<polygon fill="white" stroke="black" points="1254,-297 1254,-316 1363,-316 1363,-297 1254,-297"/>
<text text-anchor="middle" x="1308.5" y="-304" font-family="Helvetica,sans-Serif" font-size="10.00">sylar/iomanager.cc</text>
</a>
</g>
</g>
<!-- Node3&#45;&gt;Node4 -->
<g id="edge3" class="edge">
<title>Node3&#45;&gt;Node4</title>
<path fill="none" stroke="midnightblue" d="M1311.93,-348.32C1311.02,-337.5 1309.92,-324.4 1309.22,-316.01"/>
<polygon fill="midnightblue" stroke="midnightblue" points="1308.46,-348.8 1312.78,-358.48 1315.43,-348.22 1308.46,-348.8"/>
</g>
<!-- Node5 -->
<g id="node5" class="node">
<title>Node5</title>
<g id="a_node5"><a xlink:href="socket__stream_8h.html" target="_top" xlink:title="Socket流式接口封装">
<polygon fill="white" stroke="black" points="1381.5,-291.5 1381.5,-321.5 1499.5,-321.5 1499.5,-291.5 1381.5,-291.5"/>
<text text-anchor="start" x="1389.5" y="-309.5" font-family="Helvetica,sans-Serif" font-size="10.00">sylar/streams/socket</text>
<text text-anchor="middle" x="1440.5" y="-298.5" font-family="Helvetica,sans-Serif" font-size="10.00">_stream.h</text>
</a>
</g>
</g>
<!-- Node3&#45;&gt;Node5 -->
<g id="edge4" class="edge">
<title>Node3&#45;&gt;Node5</title>
<path fill="none" stroke="midnightblue" d="M1340.82,-354.2C1361.34,-344.58 1389.44,-331.42 1410.57,-321.52"/>
<polygon fill="midnightblue" stroke="midnightblue" points="1339.27,-351.06 1331.7,-358.48 1342.24,-357.4 1339.27,-351.06"/>
</g>
<!-- Node3&#45;&gt;Node8 -->
<g id="edge30" class="edge">
<title>Node3&#45;&gt;Node8</title>
<path fill="none" stroke="midnightblue" d="M1272.04,-355.28C1224.93,-339.13 1154.5,-305.1 1154.5,-246 1154.5,-246 1154.5,-246 1154.5,-188 1154.5,-137.59 1212.97,-102.01 1244.26,-86.58"/>
<polygon fill="midnightblue" stroke="midnightblue" points="1271.11,-358.66 1281.71,-358.46 1273.3,-352.01 1271.11,-358.66"/>
</g>
<!-- Node28 -->
<g id="node28" class="node">
<title>Node28</title>
<g id="a_node28"><a xlink:href="tcp__server_8h.html" target="_top" xlink:title="TCP服务器的封装">
<polygon fill="white" stroke="black" points="1183,-179.5 1183,-198.5 1286,-198.5 1286,-179.5 1183,-179.5"/>
<text text-anchor="middle" x="1234.5" y="-186.5" font-family="Helvetica,sans-Serif" font-size="10.00">sylar/tcp_server.h</text>
</a>
</g>
</g>
<!-- Node3&#45;&gt;Node28 -->
<g id="edge31" class="edge">
<title>Node3&#45;&gt;Node28</title>
<path fill="none" stroke="midnightblue" d="M1282.02,-353.9C1268.46,-346.58 1253.82,-336.05 1245.5,-322 1221.48,-281.44 1228.88,-221.19 1232.78,-198.8"/>
<polygon fill="midnightblue" stroke="midnightblue" points="1280.64,-357.13 1291.15,-358.47 1283.77,-350.87 1280.64,-357.13"/>
</g>
<!-- Node6 -->
<g id="node6" class="node">
<title>Node6</title>
<g id="a_node6"><a xlink:href="http__session_8h.html" target="_top" xlink:title="HTTPSession封装">
<polygon fill="white" stroke="black" points="1345,-235.5 1345,-254.5 1482,-254.5 1482,-235.5 1345,-235.5"/>
<text text-anchor="middle" x="1413.5" y="-242.5" font-family="Helvetica,sans-Serif" font-size="10.00">sylar/http/http_session.h</text>
</a>
</g>
</g>
<!-- Node5&#45;&gt;Node6 -->
<g id="edge5" class="edge">
<title>Node5&#45;&gt;Node6</title>
<path fill="none" stroke="midnightblue" d="M1429.93,-282.2C1425.53,-272.52 1420.71,-261.88 1417.43,-254.66"/>
<polygon fill="midnightblue" stroke="midnightblue" points="1426.78,-283.74 1434.1,-291.4 1433.16,-280.85 1426.78,-283.74"/>
</g>
<!-- Node7 -->
<g id="node7" class="node">
<title>Node7</title>
<g id="a_node7"><a xlink:href="http__server_8h.html" target="_top" xlink:title="HTTP服务器封装">
<polygon fill="white" stroke="black" points="1244.5,-123.5 1244.5,-142.5 1374.5,-142.5 1374.5,-123.5 1244.5,-123.5"/>
<text text-anchor="middle" x="1309.5" y="-130.5" font-family="Helvetica,sans-Serif" font-size="10.00">sylar/http/http_server.h</text>
</a>
</g>
</g>
<!-- Node6&#45;&gt;Node7 -->
<g id="edge6" class="edge">
<title>Node6&#45;&gt;Node7</title>
<path fill="none" stroke="midnightblue" d="M1380.13,-231.26C1364.5,-223.86 1346.69,-213.17 1334.5,-199 1320,-182.13 1313.43,-155.93 1310.88,-142.53"/>
<polygon fill="midnightblue" stroke="midnightblue" points="1378.95,-234.57 1389.51,-235.44 1381.8,-228.17 1378.95,-234.57"/>
</g>
<!-- Node6&#45;&gt;Node8 -->
<g id="edge29" class="edge">
<title>Node6&#45;&gt;Node8</title>
<path fill="none" stroke="midnightblue" d="M1435.96,-229.5C1452.13,-217.08 1469.75,-198.21 1461.5,-179 1434.69,-116.6 1351.16,-92.26 1301.57,-83.14"/>
<polygon fill="midnightblue" stroke="midnightblue" points="1433.87,-226.69 1427.79,-235.37 1437.95,-232.38 1433.87,-226.69"/>
</g>
<!-- Node27 -->
<g id="node27" class="node">
<title>Node27</title>
<g id="a_node27"><a xlink:href="servlet_8h.html" target="_top" xlink:title="Servlet封装">
<polygon fill="white" stroke="black" points="1343,-179.5 1343,-198.5 1452,-198.5 1452,-179.5 1343,-179.5"/>
<text text-anchor="middle" x="1397.5" y="-186.5" font-family="Helvetica,sans-Serif" font-size="10.00">sylar/http/servlet.h</text>
</a>
</g>
</g>
<!-- Node6&#45;&gt;Node27 -->
<g id="edge26" class="edge">
<title>Node6&#45;&gt;Node27</title>
<path fill="none" stroke="midnightblue" d="M1407.99,-225.4C1405.31,-216.36 1402.22,-205.94 1400.09,-198.75"/>
<polygon fill="midnightblue" stroke="midnightblue" points="1404.66,-226.49 1410.86,-235.08 1411.37,-224.5 1404.66,-226.49"/>
</g>
<!-- Node7&#45;&gt;Node8 -->
<g id="edge7" class="edge">
<title>Node7&#45;&gt;Node8</title>
<path fill="none" stroke="midnightblue" d="M1295.39,-115.43C1287.32,-105.97 1277.54,-94.48 1270.95,-86.75"/>
<polygon fill="midnightblue" stroke="midnightblue" points="1292.75,-117.74 1301.9,-123.08 1298.08,-113.2 1292.75,-117.74"/>
</g>
<!-- Node9 -->
<g id="node9" class="node">
<title>Node9</title>
<g id="a_node9"><a xlink:href="test__address_8cc.html" target="_top" xlink:title="网络地址类测试">
<polygon fill="white" stroke="black" points="2145,-6 2145,-25 2264,-25 2264,-6 2145,-6"/>
<text text-anchor="middle" x="2204.5" y="-13" font-family="Helvetica,sans-Serif" font-size="10.00">tests/test_address.cc</text>
</a>
</g>
</g>
<!-- Node8&#45;&gt;Node9 -->
<g id="edge8" class="edge">
<title>Node8&#45;&gt;Node9</title>
<path fill="none" stroke="midnightblue" d="M1311.95,-74.49C1470.7,-69.4 1974.22,-51.98 2135.5,-31 2146.55,-29.56 2158.46,-27.32 2169.22,-25.02"/>
<polygon fill="midnightblue" stroke="midnightblue" points="1311.45,-71.01 1301.56,-74.83 1311.67,-78 1311.45,-71.01"/>
</g>
<!-- Node10 -->
<g id="node10" class="node">
<title>Node10</title>
<g id="a_node10"><a xlink:href="test__bytearray_8cc.html" target="_top" xlink:title="Bytearray类测试">
<polygon fill="white" stroke="black" points="0,-6 0,-25 127,-25 127,-6 0,-6"/>
<text text-anchor="middle" x="63.5" y="-13" font-family="Helvetica,sans-Serif" font-size="10.00">tests/test_bytearray.cc</text>
</a>
</g>
</g>
<!-- Node8&#45;&gt;Node10 -->
<g id="edge9" class="edge">
<title>Node8&#45;&gt;Node10</title>
<path fill="none" stroke="midnightblue" d="M1215.2,-75.08C1028.01,-71.34 350.25,-56.34 136.5,-31 124.7,-29.6 111.95,-27.33 100.46,-25.01"/>
<polygon fill="midnightblue" stroke="midnightblue" points="1215.22,-78.58 1225.28,-75.28 1215.35,-71.58 1215.22,-78.58"/>
</g>
<!-- Node11 -->
<g id="node11" class="node">
<title>Node11</title>
<g id="a_node11"><a xlink:href="test__config_8cc.html" target="_top" xlink:title="配置模块测试">
<polygon fill="white" stroke="black" points="145.5,-6 145.5,-25 255.5,-25 255.5,-6 145.5,-6"/>
<text text-anchor="middle" x="200.5" y="-13" font-family="Helvetica,sans-Serif" font-size="10.00">tests/test_config.cc</text>
</a>
</g>
</g>
<!-- Node8&#45;&gt;Node11 -->
<g id="edge10" class="edge">
<title>Node8&#45;&gt;Node11</title>
<path fill="none" stroke="midnightblue" d="M1215.34,-74.97C1042.2,-71.07 451.66,-56.21 264.5,-31 254.11,-29.6 242.93,-27.33 232.85,-25.01"/>
<polygon fill="midnightblue" stroke="midnightblue" points="1215.35,-78.47 1225.42,-75.19 1215.5,-71.47 1215.35,-78.47"/>
</g>
<!-- Node12 -->
<g id="node12" class="node">
<title>Node12</title>
<g id="a_node12"><a xlink:href="test__env_8cc.html" target="_top" xlink:title="环境变量测试">
<polygon fill="white" stroke="black" points="273.5,-6 273.5,-25 371.5,-25 371.5,-6 273.5,-6"/>
<text text-anchor="middle" x="322.5" y="-13" font-family="Helvetica,sans-Serif" font-size="10.00">tests/test_env.cc</text>
</a>
</g>
</g>
<!-- Node8&#45;&gt;Node12 -->
<g id="edge11" class="edge">
<title>Node8&#45;&gt;Node12</title>
<path fill="none" stroke="midnightblue" d="M1215.43,-74.78C1055.73,-70.54 543.73,-55.33 380.5,-31 371.16,-29.61 361.13,-27.37 352.08,-25.07"/>
<polygon fill="midnightblue" stroke="midnightblue" points="1215.34,-78.28 1225.43,-75.04 1215.53,-71.28 1215.34,-78.28"/>
</g>
<!-- Node13 -->
<g id="node13" class="node">
<title>Node13</title>
<g id="a_node13"><a xlink:href="test__fiber_8cc.html" target="_top" xlink:title="协程测试">
<polygon fill="white" stroke="black" points="389.5,-6 389.5,-25 491.5,-25 491.5,-6 389.5,-6"/>
<text text-anchor="middle" x="440.5" y="-13" font-family="Helvetica,sans-Serif" font-size="10.00">tests/test_fiber.cc</text>
</a>
</g>
</g>
<!-- Node8&#45;&gt;Node13 -->
<g id="edge12" class="edge">
<title>Node8&#45;&gt;Node13</title>
<path fill="none" stroke="midnightblue" d="M1215.08,-76.13C1093.95,-75.8 768.31,-70.93 500.5,-31 490.85,-29.56 480.48,-27.31 471.12,-25.01"/>
<polygon fill="midnightblue" stroke="midnightblue" points="1215.14,-79.63 1225.14,-76.14 1215.15,-72.63 1215.14,-79.63"/>
</g>
<!-- Node8&#45;&gt;Node14 -->
<g id="edge13" class="edge">
<title>Node8&#45;&gt;Node14</title>
<path fill="none" stroke="midnightblue" d="M1311.9,-74.36C1500.14,-67.92 2177.81,-44.03 2273.5,-31 2283.73,-29.61 2294.75,-27.34 2304.66,-25.01"/>
<polygon fill="midnightblue" stroke="midnightblue" points="1311.63,-70.87 1301.75,-74.71 1311.87,-77.86 1311.63,-70.87"/>
</g>
<!-- Node15 -->
<g id="node15" class="node">
<title>Node15</title>
<g id="a_node15"><a xlink:href="test__hook_8cc.html" target="_top" xlink:title="hook模块测试">
<polygon fill="white" stroke="black" points="510,-6 510,-25 615,-25 615,-6 510,-6"/>
<text text-anchor="middle" x="562.5" y="-13" font-family="Helvetica,sans-Serif" font-size="10.00">tests/test_hook.cc</text>
</a>
</g>
</g>
<!-- Node8&#45;&gt;Node15 -->
<g id="edge14" class="edge">
<title>Node8&#45;&gt;Node15</title>
<path fill="none" stroke="midnightblue" d="M1215.22,-75.29C1108.12,-73.13 842.74,-64.54 623.5,-31 613.82,-29.52 603.4,-27.29 593.97,-25.02"/>
<polygon fill="midnightblue" stroke="midnightblue" points="1215.32,-78.79 1225.39,-75.48 1215.46,-71.79 1215.32,-78.79"/>
</g>
<!-- Node16 -->
<g id="node16" class="node">
<title>Node16</title>
<g id="a_node16"><a xlink:href="test__http_8cc.html" target="_top" xlink:title="HTTP请求类与响应类测试">
<polygon fill="white" stroke="black" points="633,-6 633,-25 734,-25 734,-6 633,-6"/>
<text text-anchor="middle" x="683.5" y="-13" font-family="Helvetica,sans-Serif" font-size="10.00">tests/test_http.cc</text>
</a>
</g>
</g>
<!-- Node8&#45;&gt;Node16 -->
<g id="edge15" class="edge">
<title>Node8&#45;&gt;Node16</title>
<path fill="none" stroke="midnightblue" d="M1215.28,-74.26C1123.1,-70.39 915.73,-59.1 743.5,-31 734.09,-29.46 723.97,-27.24 714.77,-25"/>
<polygon fill="midnightblue" stroke="midnightblue" points="1215.28,-77.76 1225.41,-74.67 1215.57,-70.77 1215.28,-77.76"/>
</g>
<!-- Node17 -->
<g id="node17" class="node">
<title>Node17</title>
<g id="a_node17"><a xlink:href="test__http__parser_8cc.html" target="_top" xlink:title="测试HTTP协议解析">
<polygon fill="white" stroke="black" points="752.5,-6 752.5,-25 888.5,-25 888.5,-6 752.5,-6"/>
<text text-anchor="middle" x="820.5" y="-13" font-family="Helvetica,sans-Serif" font-size="10.00">tests/test_http_parser.cc</text>
</a>
</g>
</g>
<!-- Node8&#45;&gt;Node17 -->
<g id="edge16" class="edge">
<title>Node8&#45;&gt;Node17</title>
<path fill="none" stroke="midnightblue" d="M1215.16,-71.05C1145,-63.64 1010.92,-48.63 897.5,-31 886.34,-29.27 874.33,-27.13 863.18,-25.04"/>
<polygon fill="midnightblue" stroke="midnightblue" points="1215.14,-74.57 1225.45,-72.13 1215.87,-67.61 1215.14,-74.57"/>
</g>
<!-- Node18 -->
<g id="node18" class="node">
<title>Node18</title>
<g id="a_node18"><a xlink:href="test__http__server_8cc.html" target="_top" xlink:title="HttpServer测试">
<polygon fill="white" stroke="black" points="906.5,-6 906.5,-25 1042.5,-25 1042.5,-6 906.5,-6"/>
<text text-anchor="middle" x="974.5" y="-13" font-family="Helvetica,sans-Serif" font-size="10.00">tests/test_http_server.cc</text>
</a>
</g>
</g>
<!-- Node8&#45;&gt;Node18 -->
<g id="edge17" class="edge">
<title>Node8&#45;&gt;Node18</title>
<path fill="none" stroke="midnightblue" d="M1215.44,-66.1C1159.69,-54.63 1068.7,-35.89 1015.94,-25.03"/>
<polygon fill="midnightblue" stroke="midnightblue" points="1214.92,-69.57 1225.42,-68.16 1216.33,-62.72 1214.92,-69.57"/>
</g>
<!-- Node19 -->
<g id="node19" class="node">
<title>Node19</title>
<g id="a_node19"><a xlink:href="test__iomanager_8cc.html" target="_top" xlink:title="IO协程调度器测试">
<polygon fill="white" stroke="black" points="1061,-6 1061,-25 1194,-25 1194,-6 1061,-6"/>
<text text-anchor="middle" x="1127.5" y="-13" font-family="Helvetica,sans-Serif" font-size="10.00">tests/test_iomanager.cc</text>
</a>
</g>
</g>
<!-- Node8&#45;&gt;Node19 -->
<g id="edge18" class="edge">
<title>Node8&#45;&gt;Node19</title>
<path fill="none" stroke="midnightblue" d="M1234.53,-63.33C1208.13,-51.78 1169.86,-35.03 1146.95,-25.01"/>
<polygon fill="midnightblue" stroke="midnightblue" points="1233.45,-66.67 1244.01,-67.48 1236.26,-60.26 1233.45,-66.67"/>
</g>
<!-- Node20 -->
<g id="node20" class="node">
<title>Node20</title>
<g id="a_node20"><a xlink:href="test__log_8cpp.html" target="_top" xlink:title="日志类测试">
<polygon fill="white" stroke="black" points="1212,-6 1212,-25 1315,-25 1315,-6 1212,-6"/>
<text text-anchor="middle" x="1263.5" y="-13" font-family="Helvetica,sans-Serif" font-size="10.00">tests/test_log.cpp</text>
</a>
</g>
</g>
<!-- Node8&#45;&gt;Node20 -->
<g id="edge19" class="edge">
<title>Node8&#45;&gt;Node20</title>
<path fill="none" stroke="midnightblue" d="M1263.5,-57.32C1263.5,-46.5 1263.5,-33.4 1263.5,-25.01"/>
<polygon fill="midnightblue" stroke="midnightblue" points="1260,-57.48 1263.5,-67.48 1267,-57.48 1260,-57.48"/>
</g>
<!-- Node21 -->
<g id="node21" class="node">
<title>Node21</title>
<g id="a_node21"><a xlink:href="test__scheduler_8cc.html" target="_top" xlink:title="协程调度器测试">
<polygon fill="white" stroke="black" points="1333.5,-6 1333.5,-25 1461.5,-25 1461.5,-6 1333.5,-6"/>
<text text-anchor="middle" x="1397.5" y="-13" font-family="Helvetica,sans-Serif" font-size="10.00">tests/test_scheduler.cc</text>
</a>
</g>
</g>
<!-- Node8&#45;&gt;Node21 -->
<g id="edge20" class="edge">
<title>Node8&#45;&gt;Node21</title>
<path fill="none" stroke="midnightblue" d="M1292.04,-63.33C1318.05,-51.78 1355.76,-35.03 1378.34,-25.01"/>
<polygon fill="midnightblue" stroke="midnightblue" points="1290.42,-60.22 1282.7,-67.48 1293.26,-66.62 1290.42,-60.22"/>
</g>
<!-- Node22 -->
<g id="node22" class="node">
<title>Node22</title>
<g id="a_node22"><a xlink:href="test__socket__tcp__client_8cc.html" target="_top" xlink:title="测试Socket类，tcp客户端">
<polygon fill="white" stroke="black" points="1480,-0.5 1480,-30.5 1599,-30.5 1599,-0.5 1480,-0.5"/>
<text text-anchor="start" x="1488" y="-18.5" font-family="Helvetica,sans-Serif" font-size="10.00">tests/test_socket_tcp</text>
<text text-anchor="middle" x="1539.5" y="-7.5" font-family="Helvetica,sans-Serif" font-size="10.00">_client.cc</text>
</a>
</g>
</g>
<!-- Node8&#45;&gt;Node22 -->
<g id="edge21" class="edge">
<title>Node8&#45;&gt;Node22</title>
<path fill="none" stroke="midnightblue" d="M1311.46,-65.66C1358.21,-55.58 1429.43,-40.23 1479.81,-29.37"/>
<polygon fill="midnightblue" stroke="midnightblue" points="1310.62,-62.26 1301.59,-67.79 1312.1,-69.1 1310.62,-62.26"/>
</g>
<!-- Node23 -->
<g id="node23" class="node">
<title>Node23</title>
<g id="a_node23"><a xlink:href="test__tcp__server_8cc.html" target="_top" xlink:title="TcpServer类测试">
<polygon fill="white" stroke="black" points="1617,-6 1617,-25 1748,-25 1748,-6 1617,-6"/>
<text text-anchor="middle" x="1682.5" y="-13" font-family="Helvetica,sans-Serif" font-size="10.00">tests/test_tcp_server.cc</text>
</a>
</g>
</g>
<!-- Node8&#45;&gt;Node23 -->
<g id="edge22" class="edge">
<title>Node8&#45;&gt;Node23</title>
<path fill="none" stroke="midnightblue" d="M1311.88,-70.68C1378.74,-63.09 1503.1,-48.18 1608.5,-31 1619.22,-29.25 1630.77,-27.11 1641.49,-25.02"/>
<polygon fill="midnightblue" stroke="midnightblue" points="1311.19,-67.23 1301.65,-71.83 1311.98,-74.19 1311.19,-67.23"/>
</g>
<!-- Node24 -->
<g id="node24" class="node">
<title>Node24</title>
<g id="a_node24"><a xlink:href="test__thread_8cc.html" target="_top" xlink:title="线程模块测试">
<polygon fill="white" stroke="black" points="1766,-6 1766,-25 1879,-25 1879,-6 1766,-6"/>
<text text-anchor="middle" x="1822.5" y="-13" font-family="Helvetica,sans-Serif" font-size="10.00">tests/test_thread.cc</text>
</a>
</g>
</g>
<!-- Node8&#45;&gt;Node24 -->
<g id="edge23" class="edge">
<title>Node8&#45;&gt;Node24</title>
<path fill="none" stroke="midnightblue" d="M1311.52,-73.68C1400.11,-68.95 1595.04,-56.41 1757.5,-31 1767.55,-29.43 1778.37,-27.22 1788.25,-25.01"/>
<polygon fill="midnightblue" stroke="midnightblue" points="1311.31,-70.19 1301.51,-74.21 1311.68,-77.18 1311.31,-70.19"/>
</g>
<!-- Node25 -->
<g id="node25" class="node">
<title>Node25</title>
<g id="a_node25"><a xlink:href="test__timer_8cc.html" target="_top" xlink:title="IO协程测试器定时器测试">
<polygon fill="white" stroke="black" points="1897,-6 1897,-25 2004,-25 2004,-6 1897,-6"/>
<text text-anchor="middle" x="1950.5" y="-13" font-family="Helvetica,sans-Serif" font-size="10.00">tests/test_timer.cc</text>
</a>
</g>
</g>
<!-- Node8&#45;&gt;Node25 -->
<g id="edge24" class="edge">
<title>Node8&#45;&gt;Node25</title>
<path fill="none" stroke="midnightblue" d="M1311.79,-75.12C1417.1,-72.62 1675.12,-63.43 1888.5,-31 1898.23,-29.52 1908.68,-27.32 1918.19,-25.07"/>
<polygon fill="midnightblue" stroke="midnightblue" points="1311.7,-71.62 1301.78,-75.34 1311.86,-78.61 1311.7,-71.62"/>
</g>
<!-- Node26 -->
<g id="node26" class="node">
<title>Node26</title>
<g id="a_node26"><a xlink:href="test__util_8cpp.html" target="_top" xlink:title="util与macro测试">
<polygon fill="white" stroke="black" points="2022.5,-6 2022.5,-25 2126.5,-25 2126.5,-6 2022.5,-6"/>
<text text-anchor="middle" x="2074.5" y="-13" font-family="Helvetica,sans-Serif" font-size="10.00">tests/test_util.cpp</text>
</a>
</g>
</g>
<!-- Node8&#45;&gt;Node26 -->
<g id="edge25" class="edge">
<title>Node8&#45;&gt;Node26</title>
<path fill="none" stroke="midnightblue" d="M1311.82,-74.2C1455.28,-68.68 1877.22,-51.13 2013.5,-31 2023.3,-29.55 2033.84,-27.3 2043.36,-25"/>
<polygon fill="midnightblue" stroke="midnightblue" points="1311.44,-70.71 1301.58,-74.59 1311.71,-77.71 1311.44,-70.71"/>
</g>
<!-- Node27&#45;&gt;Node7 -->
<g id="edge27" class="edge">
<title>Node27&#45;&gt;Node7</title>
<path fill="none" stroke="midnightblue" d="M1374.52,-173.9C1358.39,-164 1337.32,-151.07 1323.6,-142.65"/>
<polygon fill="midnightblue" stroke="midnightblue" points="1373.01,-177.08 1383.36,-179.32 1376.67,-171.11 1373.01,-177.08"/>
</g>
<!-- Node27&#45;&gt;Node8 -->
<g id="edge28" class="edge">
<title>Node27&#45;&gt;Node8</title>
<path fill="none" stroke="midnightblue" d="M1398.06,-169.14C1397.48,-154.89 1394.45,-135.69 1383.5,-123 1362.93,-99.17 1328.44,-87.93 1301.7,-82.65"/>
<polygon fill="midnightblue" stroke="midnightblue" points="1394.56,-169.3 1398.09,-179.28 1401.56,-169.27 1394.56,-169.3"/>
</g>
<!-- Node28&#45;&gt;Node7 -->
<g id="edge32" class="edge">
<title>Node28&#45;&gt;Node7</title>
<path fill="none" stroke="midnightblue" d="M1254.81,-173.38C1268.36,-163.62 1285.74,-151.11 1297.23,-142.83"/>
<polygon fill="midnightblue" stroke="midnightblue" points="1252.62,-170.64 1246.55,-179.32 1256.71,-176.32 1252.62,-170.64"/>
</g>
<!-- Node28&#45;&gt;Node8 -->
<g id="edge33" class="edge">
<title>Node28&#45;&gt;Node8</title>
<path fill="none" stroke="midnightblue" d="M1232.17,-169.17C1231.16,-155.98 1231.07,-138.07 1235.5,-123 1239.6,-109.05 1249.31,-95.18 1256.13,-86.6"/>
<polygon fill="midnightblue" stroke="midnightblue" points="1228.71,-169.77 1233.2,-179.37 1235.67,-169.07 1228.71,-169.77"/>
</g>
</g>
</svg>
