<?xml version="1.0" encoding="UTF-8" standalone="no"?>
<!DOCTYPE svg PUBLIC "-//W3C//DTD SVG 1.1//EN"
 "http://www.w3.org/Graphics/SVG/1.1/DTD/svg11.dtd">
<!-- Generated by graphviz version 2.43.0 (0)
 -->
<!-- Title: sylar/hook.h Pages: 1 -->
<svg width="2399pt" height="151pt"
 viewBox="0.00 0.00 2398.50 151.00" xmlns="http://www.w3.org/2000/svg" xmlns:xlink="http://www.w3.org/1999/xlink">
<g id="graph0" class="graph" transform="scale(1 1) rotate(0) translate(4 147)">
<title>sylar/hook.h</title>
<polygon fill="white" stroke="transparent" points="-4,4 -4,-147 2394.5,-147 2394.5,4 -4,4"/>
<!-- Node1 -->
<g id="node1" class="node">
<title>Node1</title>
<g id="a_node1"><a xlink:title="hook函数封装">
<polygon fill="#bfbfbf" stroke="black" points="1015,-123.5 1015,-142.5 1092,-142.5 1092,-123.5 1015,-123.5"/>
<text text-anchor="middle" x="1053.5" y="-130.5" font-family="Helvetica,sans-Serif" font-size="10.00">sylar/hook.h</text>
</a>
</g>
</g>
<!-- Node2 -->
<g id="node2" class="node">
<title>Node2</title>
<g id="a_node2"><a xlink:href="fd__manager_8cc.html" target="_top" xlink:title="文件句柄管理类实现">
<polygon fill="white" stroke="black" points="868,-67.5 868,-86.5 983,-86.5 983,-67.5 868,-67.5"/>
<text text-anchor="middle" x="925.5" y="-74.5" font-family="Helvetica,sans-Serif" font-size="10.00">sylar/fd_manager.cc</text>
</a>
</g>
</g>
<!-- Node1&#45;&gt;Node2 -->
<g id="edge1" class="edge">
<title>Node1&#45;&gt;Node2</title>
<path fill="none" stroke="midnightblue" d="M1023.88,-119.5C999.88,-109.38 966.72,-95.39 945.69,-86.52"/>
<polygon fill="midnightblue" stroke="midnightblue" points="1022.64,-122.78 1033.22,-123.44 1025.36,-116.33 1022.64,-122.78"/>
</g>
<!-- Node3 -->
<g id="node3" class="node">
<title>Node3</title>
<g id="a_node3"><a xlink:href="scheduler_8cc.html" target="_top" xlink:title="协程调度器实现">
<polygon fill="white" stroke="black" points="1001.5,-67.5 1001.5,-86.5 1105.5,-86.5 1105.5,-67.5 1001.5,-67.5"/>
<text text-anchor="middle" x="1053.5" y="-74.5" font-family="Helvetica,sans-Serif" font-size="10.00">sylar/scheduler.cc</text>
</a>
</g>
</g>
<!-- Node1&#45;&gt;Node3 -->
<g id="edge2" class="edge">
<title>Node1&#45;&gt;Node3</title>
<path fill="none" stroke="midnightblue" d="M1053.5,-112.8C1053.5,-103.91 1053.5,-93.78 1053.5,-86.75"/>
<polygon fill="midnightblue" stroke="midnightblue" points="1050,-113.08 1053.5,-123.08 1057,-113.08 1050,-113.08"/>
</g>
<!-- Node4 -->
<g id="node4" class="node">
<title>Node4</title>
<g id="a_node4"><a xlink:href="sylar_8h_source.html" target="_top" xlink:title=" ">
<polygon fill="white" stroke="black" points="1123.5,-67.5 1123.5,-86.5 1199.5,-86.5 1199.5,-67.5 1123.5,-67.5"/>
<text text-anchor="middle" x="1161.5" y="-74.5" font-family="Helvetica,sans-Serif" font-size="10.00">sylar/sylar.h</text>
</a>
</g>
</g>
<!-- Node1&#45;&gt;Node4 -->
<g id="edge3" class="edge">
<title>Node1&#45;&gt;Node4</title>
<path fill="none" stroke="midnightblue" d="M1080.05,-118.73C1100.05,-108.73 1126.89,-95.31 1144.19,-86.65"/>
<polygon fill="midnightblue" stroke="midnightblue" points="1078.23,-115.72 1070.85,-123.32 1081.36,-121.98 1078.23,-115.72"/>
</g>
<!-- Node5 -->
<g id="node5" class="node">
<title>Node5</title>
<g id="a_node5"><a xlink:href="test__address_8cc.html" target="_top" xlink:title="网络地址类测试">
<polygon fill="white" stroke="black" points="0,-6 0,-25 119,-25 119,-6 0,-6"/>
<text text-anchor="middle" x="59.5" y="-13" font-family="Helvetica,sans-Serif" font-size="10.00">tests/test_address.cc</text>
</a>
</g>
</g>
<!-- Node4&#45;&gt;Node5 -->
<g id="edge4" class="edge">
<title>Node4&#45;&gt;Node5</title>
<path fill="none" stroke="midnightblue" d="M1113.31,-67.06C676.57,-18.59 559.83,-84.57 127.5,-31 116.48,-29.63 104.6,-27.38 93.9,-25.05"/>
<polygon fill="midnightblue" stroke="midnightblue" points="1113.03,-70.55 1123.36,-68.19 1113.81,-63.6 1113.03,-70.55"/>
</g>
<!-- Node6 -->
<g id="node6" class="node">
<title>Node6</title>
<g id="a_node6"><a xlink:href="test__bytearray_8cc.html" target="_top" xlink:title="Bytearray类测试">
<polygon fill="white" stroke="black" points="137,-6 137,-25 264,-25 264,-6 137,-6"/>
<text text-anchor="middle" x="200.5" y="-13" font-family="Helvetica,sans-Serif" font-size="10.00">tests/test_bytearray.cc</text>
</a>
</g>
</g>
<!-- Node4&#45;&gt;Node6 -->
<g id="edge5" class="edge">
<title>Node4&#45;&gt;Node6</title>
<path fill="none" stroke="midnightblue" d="M1113.39,-67.06C741.15,-24.61 641.69,-75.18 273.5,-31 261.83,-29.6 249.23,-27.36 237.84,-25.06"/>
<polygon fill="midnightblue" stroke="midnightblue" points="1113.02,-70.54 1123.35,-68.21 1113.82,-63.59 1113.02,-70.54"/>
</g>
<!-- Node7 -->
<g id="node7" class="node">
<title>Node7</title>
<g id="a_node7"><a xlink:href="test__config_8cc.html" target="_top" xlink:title="配置模块测试">
<polygon fill="white" stroke="black" points="282.5,-6 282.5,-25 392.5,-25 392.5,-6 282.5,-6"/>
<text text-anchor="middle" x="337.5" y="-13" font-family="Helvetica,sans-Serif" font-size="10.00">tests/test_config.cc</text>
</a>
</g>
</g>
<!-- Node4&#45;&gt;Node7 -->
<g id="edge6" class="edge">
<title>Node4&#45;&gt;Node7</title>
<path fill="none" stroke="midnightblue" d="M1113,-67C797.66,-30.03 712.46,-73.75 401.5,-31 391.23,-29.59 380.17,-27.35 370.19,-25.05"/>
<polygon fill="midnightblue" stroke="midnightblue" points="1113.01,-70.53 1123.35,-68.24 1113.83,-63.58 1113.01,-70.53"/>
</g>
<!-- Node8 -->
<g id="node8" class="node">
<title>Node8</title>
<g id="a_node8"><a xlink:href="test__env_8cc.html" target="_top" xlink:title="环境变量测试">
<polygon fill="white" stroke="black" points="410.5,-6 410.5,-25 508.5,-25 508.5,-6 410.5,-6"/>
<text text-anchor="middle" x="459.5" y="-13" font-family="Helvetica,sans-Serif" font-size="10.00">tests/test_env.cc</text>
</a>
</g>
</g>
<!-- Node4&#45;&gt;Node8 -->
<g id="edge7" class="edge">
<title>Node4&#45;&gt;Node8</title>
<path fill="none" stroke="midnightblue" d="M1113.06,-66.99C848.93,-34.87 776.89,-70.89 517.5,-31 508.16,-29.56 498.14,-27.32 489.09,-25.02"/>
<polygon fill="midnightblue" stroke="midnightblue" points="1112.99,-70.51 1123.35,-68.27 1113.85,-63.57 1112.99,-70.51"/>
</g>
<!-- Node9 -->
<g id="node9" class="node">
<title>Node9</title>
<g id="a_node9"><a xlink:href="test__fiber_8cc.html" target="_top" xlink:title="协程测试">
<polygon fill="white" stroke="black" points="526.5,-6 526.5,-25 628.5,-25 628.5,-6 526.5,-6"/>
<text text-anchor="middle" x="577.5" y="-13" font-family="Helvetica,sans-Serif" font-size="10.00">tests/test_fiber.cc</text>
</a>
</g>
</g>
<!-- Node4&#45;&gt;Node9 -->
<g id="edge8" class="edge">
<title>Node4&#45;&gt;Node9</title>
<path fill="none" stroke="midnightblue" d="M1113.17,-66.98C901.96,-39.73 844.23,-63.56 637.5,-31 628.08,-29.52 617.96,-27.31 608.76,-25.07"/>
<polygon fill="midnightblue" stroke="midnightblue" points="1112.97,-70.48 1123.34,-68.32 1113.88,-63.54 1112.97,-70.48"/>
</g>
<!-- Node10 -->
<g id="node10" class="node">
<title>Node10</title>
<g id="a_node10"><a xlink:href="test__fiber2_8cc.html" target="_top" xlink:title="协程测试，用于演示非对称协程">
<polygon fill="white" stroke="black" points="647,-6 647,-25 756,-25 756,-6 647,-6"/>
<text text-anchor="middle" x="701.5" y="-13" font-family="Helvetica,sans-Serif" font-size="10.00">tests/test_fiber2.cc</text>
</a>
</g>
</g>
<!-- Node4&#45;&gt;Node10 -->
<g id="edge9" class="edge">
<title>Node4&#45;&gt;Node10</title>
<path fill="none" stroke="midnightblue" d="M1113.42,-66.96C958.05,-44.76 915.61,-56.06 764.5,-31 754.87,-29.4 744.51,-27.22 735.02,-25.03"/>
<polygon fill="midnightblue" stroke="midnightblue" points="1112.93,-70.43 1123.33,-68.4 1113.93,-63.5 1112.93,-70.43"/>
</g>
<!-- Node11 -->
<g id="node11" class="node">
<title>Node11</title>
<g id="a_node11"><a xlink:href="test__hook_8cc.html" target="_top" xlink:title="hook模块测试">
<polygon fill="white" stroke="black" points="774,-6 774,-25 879,-25 879,-6 774,-6"/>
<text text-anchor="middle" x="826.5" y="-13" font-family="Helvetica,sans-Serif" font-size="10.00">tests/test_hook.cc</text>
</a>
</g>
</g>
<!-- Node4&#45;&gt;Node11 -->
<g id="edge10" class="edge">
<title>Node4&#45;&gt;Node11</title>
<path fill="none" stroke="midnightblue" d="M1113.28,-66.84C1012.17,-49.46 984.58,-50.21 887.5,-31 878.64,-29.25 869.11,-27.11 860.28,-25.01"/>
<polygon fill="midnightblue" stroke="midnightblue" points="1112.85,-70.32 1123.3,-68.58 1114.05,-63.42 1112.85,-70.32"/>
</g>
<!-- Node12 -->
<g id="node12" class="node">
<title>Node12</title>
<g id="a_node12"><a xlink:href="test__http_8cc.html" target="_top" xlink:title="HTTP请求类与响应类测试">
<polygon fill="white" stroke="black" points="897,-6 897,-25 998,-25 998,-6 897,-6"/>
<text text-anchor="middle" x="947.5" y="-13" font-family="Helvetica,sans-Serif" font-size="10.00">tests/test_http.cc</text>
</a>
</g>
</g>
<!-- Node4&#45;&gt;Node12 -->
<g id="edge11" class="edge">
<title>Node4&#45;&gt;Node12</title>
<path fill="none" stroke="midnightblue" d="M1121.04,-64.75C1079.46,-53.19 1015.66,-35.45 978.1,-25.01"/>
<polygon fill="midnightblue" stroke="midnightblue" points="1120.27,-68.17 1130.84,-67.48 1122.14,-61.42 1120.27,-68.17"/>
</g>
<!-- Node13 -->
<g id="node13" class="node">
<title>Node13</title>
<g id="a_node13"><a xlink:href="test__http__parser_8cc.html" target="_top" xlink:title="测试HTTP协议解析">
<polygon fill="white" stroke="black" points="1016.5,-6 1016.5,-25 1152.5,-25 1152.5,-6 1016.5,-6"/>
<text text-anchor="middle" x="1084.5" y="-13" font-family="Helvetica,sans-Serif" font-size="10.00">tests/test_http_parser.cc</text>
</a>
</g>
</g>
<!-- Node4&#45;&gt;Node13 -->
<g id="edge12" class="edge">
<title>Node4&#45;&gt;Node13</title>
<path fill="none" stroke="midnightblue" d="M1142.47,-61.29C1127.7,-49.88 1107.74,-34.46 1095.51,-25.01"/>
<polygon fill="midnightblue" stroke="midnightblue" points="1140.41,-64.13 1150.47,-67.48 1144.69,-58.59 1140.41,-64.13"/>
</g>
<!-- Node14 -->
<g id="node14" class="node">
<title>Node14</title>
<g id="a_node14"><a xlink:href="test__http__server_8cc.html" target="_top" xlink:title="HttpServer测试">
<polygon fill="white" stroke="black" points="1170.5,-6 1170.5,-25 1306.5,-25 1306.5,-6 1170.5,-6"/>
<text text-anchor="middle" x="1238.5" y="-13" font-family="Helvetica,sans-Serif" font-size="10.00">tests/test_http_server.cc</text>
</a>
</g>
</g>
<!-- Node4&#45;&gt;Node14 -->
<g id="edge13" class="edge">
<title>Node4&#45;&gt;Node14</title>
<path fill="none" stroke="midnightblue" d="M1180.53,-61.29C1195.3,-49.88 1215.26,-34.46 1227.49,-25.01"/>
<polygon fill="midnightblue" stroke="midnightblue" points="1178.31,-58.59 1172.53,-67.48 1182.59,-64.13 1178.31,-58.59"/>
</g>
<!-- Node15 -->
<g id="node15" class="node">
<title>Node15</title>
<g id="a_node15"><a xlink:href="test__iomanager_8cc.html" target="_top" xlink:title="IO协程调度器测试">
<polygon fill="white" stroke="black" points="1325,-6 1325,-25 1458,-25 1458,-6 1325,-6"/>
<text text-anchor="middle" x="1391.5" y="-13" font-family="Helvetica,sans-Serif" font-size="10.00">tests/test_iomanager.cc</text>
</a>
</g>
</g>
<!-- Node4&#45;&gt;Node15 -->
<g id="edge14" class="edge">
<title>Node4&#45;&gt;Node15</title>
<path fill="none" stroke="midnightblue" d="M1204.14,-64.97C1248.8,-53.41 1317.99,-35.52 1358.61,-25.01"/>
<polygon fill="midnightblue" stroke="midnightblue" points="1203.26,-61.58 1194.45,-67.48 1205.01,-68.36 1203.26,-61.58"/>
</g>
<!-- Node16 -->
<g id="node16" class="node">
<title>Node16</title>
<g id="a_node16"><a xlink:href="test__log_8cpp.html" target="_top" xlink:title="日志类测试">
<polygon fill="white" stroke="black" points="1476,-6 1476,-25 1579,-25 1579,-6 1476,-6"/>
<text text-anchor="middle" x="1527.5" y="-13" font-family="Helvetica,sans-Serif" font-size="10.00">tests/test_log.cpp</text>
</a>
</g>
</g>
<!-- Node4&#45;&gt;Node16 -->
<g id="edge15" class="edge">
<title>Node4&#45;&gt;Node16</title>
<path fill="none" stroke="midnightblue" d="M1209.88,-70.27C1270.4,-62.78 1377.06,-48.54 1467.5,-31 1476.34,-29.29 1485.83,-27.14 1494.61,-25.02"/>
<polygon fill="midnightblue" stroke="midnightblue" points="1209.35,-66.81 1199.85,-71.5 1210.21,-73.76 1209.35,-66.81"/>
</g>
<!-- Node17 -->
<g id="node17" class="node">
<title>Node17</title>
<g id="a_node17"><a xlink:href="test__scheduler_8cc.html" target="_top" xlink:title="协程调度器测试">
<polygon fill="white" stroke="black" points="1597.5,-6 1597.5,-25 1725.5,-25 1725.5,-6 1597.5,-6"/>
<text text-anchor="middle" x="1661.5" y="-13" font-family="Helvetica,sans-Serif" font-size="10.00">tests/test_scheduler.cc</text>
</a>
</g>
</g>
<!-- Node4&#45;&gt;Node17 -->
<g id="edge16" class="edge">
<title>Node4&#45;&gt;Node17</title>
<path fill="none" stroke="midnightblue" d="M1209.81,-72.35C1289.13,-66.04 1451.84,-51.73 1588.5,-31 1599.36,-29.35 1611.05,-27.2 1621.83,-25.06"/>
<polygon fill="midnightblue" stroke="midnightblue" points="1209.33,-68.88 1199.64,-73.15 1209.88,-75.86 1209.33,-68.88"/>
</g>
<!-- Node18 -->
<g id="node18" class="node">
<title>Node18</title>
<g id="a_node18"><a xlink:href="test__socket__tcp__client_8cc.html" target="_top" xlink:title="测试Socket类，tcp客户端">
<polygon fill="white" stroke="black" points="1744,-0.5 1744,-30.5 1863,-30.5 1863,-0.5 1744,-0.5"/>
<text text-anchor="start" x="1752" y="-18.5" font-family="Helvetica,sans-Serif" font-size="10.00">tests/test_socket_tcp</text>
<text text-anchor="middle" x="1803.5" y="-7.5" font-family="Helvetica,sans-Serif" font-size="10.00">_client.cc</text>
</a>
</g>
</g>
<!-- Node4&#45;&gt;Node18 -->
<g id="edge17" class="edge">
<title>Node4&#45;&gt;Node18</title>
<path fill="none" stroke="midnightblue" d="M1209.84,-74.31C1308.77,-70.38 1541.28,-58.77 1734.5,-31 1737.53,-30.56 1740.62,-30.08 1743.74,-29.55"/>
<polygon fill="midnightblue" stroke="midnightblue" points="1209.43,-70.82 1199.57,-74.7 1209.7,-77.81 1209.43,-70.82"/>
</g>
<!-- Node19 -->
<g id="node19" class="node">
<title>Node19</title>
<g id="a_node19"><a xlink:href="test__tcp__server_8cc.html" target="_top" xlink:title="TcpServer类测试">
<polygon fill="white" stroke="black" points="1881,-6 1881,-25 2012,-25 2012,-6 1881,-6"/>
<text text-anchor="middle" x="1946.5" y="-13" font-family="Helvetica,sans-Serif" font-size="10.00">tests/test_tcp_server.cc</text>
</a>
</g>
</g>
<!-- Node4&#45;&gt;Node19 -->
<g id="edge18" class="edge">
<title>Node4&#45;&gt;Node19</title>
<path fill="none" stroke="midnightblue" d="M1210.08,-75.1C1325.44,-72.5 1624.78,-62.97 1872.5,-31 1884.06,-29.51 1896.52,-27.3 1907.87,-25.06"/>
<polygon fill="midnightblue" stroke="midnightblue" points="1209.74,-71.61 1199.82,-75.33 1209.89,-78.61 1209.74,-71.61"/>
</g>
<!-- Node20 -->
<g id="node20" class="node">
<title>Node20</title>
<g id="a_node20"><a xlink:href="test__thread_8cc.html" target="_top" xlink:title="线程模块测试">
<polygon fill="white" stroke="black" points="2030,-6 2030,-25 2143,-25 2143,-6 2030,-6"/>
<text text-anchor="middle" x="2086.5" y="-13" font-family="Helvetica,sans-Serif" font-size="10.00">tests/test_thread.cc</text>
</a>
</g>
</g>
<!-- Node4&#45;&gt;Node20 -->
<g id="edge19" class="edge">
<title>Node4&#45;&gt;Node20</title>
<path fill="none" stroke="midnightblue" d="M1209.99,-76.29C1341.32,-76.48 1714.66,-72.95 2021.5,-31 2031.92,-29.57 2043.15,-27.33 2053.29,-25.03"/>
<polygon fill="midnightblue" stroke="midnightblue" points="1209.87,-72.79 1199.86,-76.27 1209.85,-79.79 1209.87,-72.79"/>
</g>
<!-- Node21 -->
<g id="node21" class="node">
<title>Node21</title>
<g id="a_node21"><a xlink:href="test__timer_8cc.html" target="_top" xlink:title="IO协程测试器定时器测试">
<polygon fill="white" stroke="black" points="2161,-6 2161,-25 2268,-25 2268,-6 2161,-6"/>
<text text-anchor="middle" x="2214.5" y="-13" font-family="Helvetica,sans-Serif" font-size="10.00">tests/test_timer.cc</text>
</a>
</g>
</g>
<!-- Node4&#45;&gt;Node21 -->
<g id="edge20" class="edge">
<title>Node4&#45;&gt;Node21</title>
<path fill="none" stroke="midnightblue" d="M1209.57,-74.99C1381.72,-71.2 1967.03,-56.68 2152.5,-31 2162.57,-29.61 2173.41,-27.34 2183.17,-25.01"/>
<polygon fill="midnightblue" stroke="midnightblue" points="1209.47,-71.49 1199.54,-75.21 1209.62,-78.49 1209.47,-71.49"/>
</g>
<!-- Node22 -->
<g id="node22" class="node">
<title>Node22</title>
<g id="a_node22"><a xlink:href="test__util_8cpp.html" target="_top" xlink:title="util与macro测试">
<polygon fill="white" stroke="black" points="2286.5,-6 2286.5,-25 2390.5,-25 2390.5,-6 2286.5,-6"/>
<text text-anchor="middle" x="2338.5" y="-13" font-family="Helvetica,sans-Serif" font-size="10.00">tests/test_util.cpp</text>
</a>
</g>
</g>
<!-- Node4&#45;&gt;Node22 -->
<g id="edge21" class="edge">
<title>Node4&#45;&gt;Node22</title>
<path fill="none" stroke="midnightblue" d="M1209.67,-75.3C1395.58,-72.39 2066.46,-60.06 2277.5,-31 2287.42,-29.63 2298.09,-27.38 2307.69,-25.05"/>
<polygon fill="midnightblue" stroke="midnightblue" points="1209.6,-71.8 1199.65,-75.45 1209.71,-78.8 1209.6,-71.8"/>
</g>
</g>
</svg>
