<?xml version="1.0" encoding="UTF-8" standalone="no"?>
<!DOCTYPE svg PUBLIC "-//W3C//DTD SVG 1.1//EN"
 "http://www.w3.org/Graphics/SVG/1.1/DTD/svg11.dtd">
<!-- Generated by graphviz version 2.43.0 (0)
 -->
<!-- Title: sylar::http::operator&lt;&lt; Pages: 1 -->
<svg width="483pt" height="57pt"
 viewBox="0.00 0.00 483.00 57.00" xmlns="http://www.w3.org/2000/svg" xmlns:xlink="http://www.w3.org/1999/xlink">
<g id="graph0" class="graph" transform="scale(1 1) rotate(0) translate(4 53)">
<title>sylar::http::operator&lt;&lt;</title>
<polygon fill="white" stroke="transparent" points="-4,4 -4,-53 479,-53 479,4 -4,4"/>
<!-- Node1 -->
<g id="node1" class="node">
<title>Node1</title>
<g id="a_node1"><a xlink:title="流式输出HttpRequest">
<polygon fill="#bfbfbf" stroke="black" points="0,-6 0,-25 130,-25 130,-6 0,-6"/>
<text text-anchor="middle" x="65" y="-13" font-family="Helvetica,sans-Serif" font-size="10.00">sylar::http::operator&lt;&lt;</text>
</a>
</g>
</g>
<!-- Node2 -->
<g id="node2" class="node">
<title>Node2</title>
<g id="a_node2"><a xlink:href="classsylar_1_1http_1_1HttpRequest.html#af08183356fe022e9f23cb66460e36c73" target="_top" xlink:title="序列化输出到流中">
<polygon fill="white" stroke="black" points="166,-0.5 166,-30.5 299,-30.5 299,-0.5 166,-0.5"/>
<text text-anchor="start" x="174" y="-18.5" font-family="Helvetica,sans-Serif" font-size="10.00">sylar::http::HttpRequest</text>
<text text-anchor="middle" x="232.5" y="-7.5" font-family="Helvetica,sans-Serif" font-size="10.00">::dump</text>
</a>
</g>
</g>
<!-- Node1&#45;&gt;Node2 -->
<g id="edge1" class="edge">
<title>Node1&#45;&gt;Node2</title>
<path fill="none" stroke="midnightblue" d="M130.46,-15.5C138.72,-15.5 147.23,-15.5 155.65,-15.5"/>
<polygon fill="midnightblue" stroke="midnightblue" points="155.85,-19 165.85,-15.5 155.85,-12 155.85,-19"/>
</g>
<!-- Node3 -->
<g id="node3" class="node">
<title>Node3</title>
<g id="a_node3"><a xlink:href="http_8cc.html#a371c464090835dffd6f29dd618cdb01c" target="_top" xlink:title="将HTTP方法枚举转换成字符串">
<polygon fill="white" stroke="black" points="335,-0.5 335,-30.5 475,-30.5 475,-0.5 335,-0.5"/>
<text text-anchor="start" x="343" y="-18.5" font-family="Helvetica,sans-Serif" font-size="10.00">sylar::http::HttpMethodTo</text>
<text text-anchor="middle" x="405" y="-7.5" font-family="Helvetica,sans-Serif" font-size="10.00">String</text>
</a>
</g>
</g>
<!-- Node2&#45;&gt;Node3 -->
<g id="edge2" class="edge">
<title>Node2&#45;&gt;Node3</title>
<path fill="none" stroke="midnightblue" d="M299.42,-15.5C307.68,-15.5 316.2,-15.5 324.64,-15.5"/>
<polygon fill="midnightblue" stroke="midnightblue" points="324.87,-19 334.87,-15.5 324.87,-12 324.87,-19"/>
</g>
<!-- Node3&#45;&gt;Node3 -->
<g id="edge3" class="edge">
<title>Node3&#45;&gt;Node3</title>
<path fill="none" stroke="midnightblue" d="M375.03,-30.66C367.8,-40.06 377.79,-49 405,-49 421.58,-49 431.77,-45.68 435.56,-40.96"/>
<polygon fill="midnightblue" stroke="midnightblue" points="439.04,-40.44 434.97,-30.66 432.05,-40.84 439.04,-40.44"/>
</g>
</g>
</svg>
