<?xml version="1.0" encoding="UTF-8" standalone="no"?>
<!DOCTYPE svg PUBLIC "-//W3C//DTD SVG 1.1//EN"
 "http://www.w3.org/Graphics/SVG/1.1/DTD/svg11.dtd">
<!-- Generated by graphviz version 2.43.0 (0)
 -->
<!-- Title: sylar::http::operator&lt;&lt; Pages: 1 -->
<svg width="484pt" height="57pt"
 viewBox="0.00 0.00 484.00 57.00" xmlns="http://www.w3.org/2000/svg" xmlns:xlink="http://www.w3.org/1999/xlink">
<g id="graph0" class="graph" transform="scale(1 1) rotate(0) translate(4 53)">
<title>sylar::http::operator&lt;&lt;</title>
<polygon fill="white" stroke="transparent" points="-4,4 -4,-53 480,-53 480,4 -4,4"/>
<!-- Node1 -->
<g id="node1" class="node">
<title>Node1</title>
<g id="a_node1"><a xlink:title="流式输出HttpResponse">
<polygon fill="#bfbfbf" stroke="black" points="0,-6 0,-25 130,-25 130,-6 0,-6"/>
<text text-anchor="middle" x="65" y="-13" font-family="Helvetica,sans-Serif" font-size="10.00">sylar::http::operator&lt;&lt;</text>
</a>
</g>
</g>
<!-- Node2 -->
<g id="node2" class="node">
<title>Node2</title>
<g id="a_node2"><a xlink:href="classsylar_1_1http_1_1HttpResponse.html#a5d76693162fa70d965974e63d6b534a9" target="_top" xlink:title="序列化输出到流">
<polygon fill="white" stroke="black" points="166,-0.5 166,-30.5 306,-30.5 306,-0.5 166,-0.5"/>
<text text-anchor="start" x="174" y="-18.5" font-family="Helvetica,sans-Serif" font-size="10.00">sylar::http::HttpResponse</text>
<text text-anchor="middle" x="236" y="-7.5" font-family="Helvetica,sans-Serif" font-size="10.00">::dump</text>
</a>
</g>
</g>
<!-- Node1&#45;&gt;Node2 -->
<g id="edge1" class="edge">
<title>Node1&#45;&gt;Node2</title>
<path fill="none" stroke="midnightblue" d="M130.37,-15.5C138.6,-15.5 147.09,-15.5 155.52,-15.5"/>
<polygon fill="midnightblue" stroke="midnightblue" points="155.74,-19 165.74,-15.5 155.74,-12 155.74,-19"/>
</g>
<!-- Node3 -->
<g id="node3" class="node">
<title>Node3</title>
<g id="a_node3"><a xlink:href="http_8cc.html#ae173fedd3819839ca2d0dcd6834f7245" target="_top" xlink:title="将HTTP状态枚举转换成字符串">
<polygon fill="white" stroke="black" points="342,-0.5 342,-30.5 476,-30.5 476,-0.5 342,-0.5"/>
<text text-anchor="start" x="350" y="-18.5" font-family="Helvetica,sans-Serif" font-size="10.00">sylar::http::HttpStatusTo</text>
<text text-anchor="middle" x="409" y="-7.5" font-family="Helvetica,sans-Serif" font-size="10.00">String</text>
</a>
</g>
</g>
<!-- Node2&#45;&gt;Node3 -->
<g id="edge2" class="edge">
<title>Node2&#45;&gt;Node3</title>
<path fill="none" stroke="midnightblue" d="M306.06,-15.5C314.43,-15.5 323.02,-15.5 331.48,-15.5"/>
<polygon fill="midnightblue" stroke="midnightblue" points="331.73,-19 341.73,-15.5 331.73,-12 331.73,-19"/>
</g>
<!-- Node3&#45;&gt;Node3 -->
<g id="edge3" class="edge">
<title>Node3&#45;&gt;Node3</title>
<path fill="none" stroke="midnightblue" d="M379.03,-30.66C371.8,-40.06 381.79,-49 409,-49 425.58,-49 435.77,-45.68 439.56,-40.96"/>
<polygon fill="midnightblue" stroke="midnightblue" points="443.04,-40.44 438.97,-30.66 436.05,-40.84 443.04,-40.44"/>
</g>
</g>
</svg>
