<?xml version="1.0" encoding="UTF-8" standalone="no"?>
<!DOCTYPE svg PUBLIC "-//W3C//DTD SVG 1.1//EN"
 "http://www.w3.org/Graphics/SVG/1.1/DTD/svg11.dtd">
<!-- Generated by graphviz version 2.43.0 (0)
 -->
<!-- Title: sylar/http/http.h Pages: 1 -->
<svg width="2399pt" height="319pt"
 viewBox="0.00 0.00 2398.50 319.00" xmlns="http://www.w3.org/2000/svg" xmlns:xlink="http://www.w3.org/1999/xlink">
<g id="graph0" class="graph" transform="scale(1 1) rotate(0) translate(4 315)">
<title>sylar/http/http.h</title>
<polygon fill="white" stroke="transparent" points="-4,4 -4,-315 2394.5,-315 2394.5,4 -4,4"/>
<!-- Node1 -->
<g id="node1" class="node">
<title>Node1</title>
<g id="a_node1"><a xlink:title="HTTP定义结构体封装">
<polygon fill="#bfbfbf" stroke="black" points="1076,-291.5 1076,-310.5 1171,-310.5 1171,-291.5 1076,-291.5"/>
<text text-anchor="middle" x="1123.5" y="-298.5" font-family="Helvetica,sans-Serif" font-size="10.00">sylar/http/http.h</text>
</a>
</g>
</g>
<!-- Node2 -->
<g id="node2" class="node">
<title>Node2</title>
<g id="a_node2"><a xlink:href="http_8cc.html" target="_top" xlink:title="HTTP相关方法实现">
<polygon fill="white" stroke="black" points="848,-235.5 848,-254.5 947,-254.5 947,-235.5 848,-235.5"/>
<text text-anchor="middle" x="897.5" y="-242.5" font-family="Helvetica,sans-Serif" font-size="10.00">sylar/http/http.cc</text>
</a>
</g>
</g>
<!-- Node1&#45;&gt;Node2 -->
<g id="edge1" class="edge">
<title>Node1&#45;&gt;Node2</title>
<path fill="none" stroke="midnightblue" d="M1077.83,-289.09C1035.14,-278.89 972.25,-263.86 933.14,-254.52"/>
<polygon fill="midnightblue" stroke="midnightblue" points="1077.15,-292.52 1087.69,-291.44 1078.78,-285.72 1077.15,-292.52"/>
</g>
<!-- Node3 -->
<g id="node3" class="node">
<title>Node3</title>
<g id="a_node3"><a xlink:href="http__parser_8h.html" target="_top" xlink:title="HTTP协议解析封装">
<polygon fill="white" stroke="black" points="965.5,-235.5 965.5,-254.5 1095.5,-254.5 1095.5,-235.5 965.5,-235.5"/>
<text text-anchor="middle" x="1030.5" y="-242.5" font-family="Helvetica,sans-Serif" font-size="10.00">sylar/http/http_parser.h</text>
</a>
</g>
</g>
<!-- Node1&#45;&gt;Node3 -->
<g id="edge2" class="edge">
<title>Node1&#45;&gt;Node3</title>
<path fill="none" stroke="midnightblue" d="M1099.69,-286.18C1082.58,-276.24 1060.03,-263.15 1045.4,-254.65"/>
<polygon fill="midnightblue" stroke="midnightblue" points="1098.15,-289.33 1108.56,-291.32 1101.67,-283.28 1098.15,-289.33"/>
</g>
<!-- Node5 -->
<g id="node5" class="node">
<title>Node5</title>
<g id="a_node5"><a xlink:href="sylar_8h_source.html" target="_top" xlink:title=" ">
<polygon fill="white" stroke="black" points="1123.5,-67.5 1123.5,-86.5 1199.5,-86.5 1199.5,-67.5 1123.5,-67.5"/>
<text text-anchor="middle" x="1161.5" y="-74.5" font-family="Helvetica,sans-Serif" font-size="10.00">sylar/sylar.h</text>
</a>
</g>
</g>
<!-- Node1&#45;&gt;Node5 -->
<g id="edge31" class="edge">
<title>Node1&#45;&gt;Node5</title>
<path fill="none" stroke="midnightblue" d="M1126.7,-281.3C1134.52,-235.64 1154.34,-119.85 1159.98,-86.88"/>
<polygon fill="midnightblue" stroke="midnightblue" points="1123.23,-280.85 1124.99,-291.3 1130.13,-282.03 1123.23,-280.85"/>
</g>
<!-- Node24 -->
<g id="node24" class="node">
<title>Node24</title>
<g id="a_node24"><a xlink:href="http__session_8h.html" target="_top" xlink:title="HTTPSession封装">
<polygon fill="white" stroke="black" points="1152,-235.5 1152,-254.5 1289,-254.5 1289,-235.5 1152,-235.5"/>
<text text-anchor="middle" x="1220.5" y="-242.5" font-family="Helvetica,sans-Serif" font-size="10.00">sylar/http/http_session.h</text>
</a>
</g>
</g>
<!-- Node1&#45;&gt;Node24 -->
<g id="edge23" class="edge">
<title>Node1&#45;&gt;Node24</title>
<path fill="none" stroke="midnightblue" d="M1147.84,-286.45C1165.74,-276.48 1189.55,-263.23 1204.95,-254.65"/>
<polygon fill="midnightblue" stroke="midnightblue" points="1146.12,-283.4 1139.08,-291.32 1149.52,-289.52 1146.12,-283.4"/>
</g>
<!-- Node26 -->
<g id="node26" class="node">
<title>Node26</title>
<g id="a_node26"><a xlink:href="servlet_8h.html" target="_top" xlink:title="Servlet封装">
<polygon fill="white" stroke="black" points="1259,-179.5 1259,-198.5 1368,-198.5 1368,-179.5 1259,-179.5"/>
<text text-anchor="middle" x="1313.5" y="-186.5" font-family="Helvetica,sans-Serif" font-size="10.00">sylar/http/servlet.h</text>
</a>
</g>
</g>
<!-- Node1&#45;&gt;Node26 -->
<g id="edge30" class="edge">
<title>Node1&#45;&gt;Node26</title>
<path fill="none" stroke="midnightblue" d="M1181.2,-291.74C1225.65,-284.21 1282.19,-271.72 1298.5,-255 1313.38,-239.75 1314.62,-212.84 1314.14,-198.91"/>
<polygon fill="midnightblue" stroke="midnightblue" points="1180.35,-288.33 1171.05,-293.41 1181.49,-295.24 1180.35,-288.33"/>
</g>
<!-- Node4 -->
<g id="node4" class="node">
<title>Node4</title>
<g id="a_node4"><a xlink:href="http__parser_8cc.html" target="_top" xlink:title="HTTP协议解析实现">
<polygon fill="white" stroke="black" points="923.5,-179.5 923.5,-198.5 1057.5,-198.5 1057.5,-179.5 923.5,-179.5"/>
<text text-anchor="middle" x="990.5" y="-186.5" font-family="Helvetica,sans-Serif" font-size="10.00">sylar/http/http_parser.cc</text>
</a>
</g>
</g>
<!-- Node3&#45;&gt;Node4 -->
<g id="edge3" class="edge">
<title>Node3&#45;&gt;Node4</title>
<path fill="none" stroke="midnightblue" d="M1017.8,-226.86C1010.87,-217.5 1002.59,-206.33 996.98,-198.75"/>
<polygon fill="midnightblue" stroke="midnightblue" points="1015.13,-229.13 1023.89,-235.08 1020.75,-224.96 1015.13,-229.13"/>
</g>
<!-- Node3&#45;&gt;Node5 -->
<g id="edge4" class="edge">
<title>Node3&#45;&gt;Node5</title>
<path fill="none" stroke="midnightblue" d="M1044.71,-227.55C1051.62,-219.23 1059.84,-208.84 1066.5,-199 1088.25,-166.86 1084.91,-153.03 1109.5,-123 1121.3,-108.59 1138.03,-95.03 1149.3,-86.64"/>
<polygon fill="midnightblue" stroke="midnightblue" points="1041.89,-225.46 1038.11,-235.36 1047.24,-229.98 1041.89,-225.46"/>
</g>
<!-- Node6 -->
<g id="node6" class="node">
<title>Node6</title>
<g id="a_node6"><a xlink:href="test__address_8cc.html" target="_top" xlink:title="网络地址类测试">
<polygon fill="white" stroke="black" points="0,-6 0,-25 119,-25 119,-6 0,-6"/>
<text text-anchor="middle" x="59.5" y="-13" font-family="Helvetica,sans-Serif" font-size="10.00">tests/test_address.cc</text>
</a>
</g>
</g>
<!-- Node5&#45;&gt;Node6 -->
<g id="edge5" class="edge">
<title>Node5&#45;&gt;Node6</title>
<path fill="none" stroke="midnightblue" d="M1113.43,-74.97C936.55,-71.02 322.03,-55.8 127.5,-31 116.6,-29.61 104.86,-27.38 94.25,-25.07"/>
<polygon fill="midnightblue" stroke="midnightblue" points="1113.4,-78.47 1123.48,-75.19 1113.56,-71.47 1113.4,-78.47"/>
</g>
<!-- Node7 -->
<g id="node7" class="node">
<title>Node7</title>
<g id="a_node7"><a xlink:href="test__bytearray_8cc.html" target="_top" xlink:title="Bytearray类测试">
<polygon fill="white" stroke="black" points="137,-6 137,-25 264,-25 264,-6 137,-6"/>
<text text-anchor="middle" x="200.5" y="-13" font-family="Helvetica,sans-Serif" font-size="10.00">tests/test_bytearray.cc</text>
</a>
</g>
</g>
<!-- Node5&#45;&gt;Node7 -->
<g id="edge6" class="edge">
<title>Node5&#45;&gt;Node7</title>
<path fill="none" stroke="midnightblue" d="M1112.91,-76.01C978.73,-75.52 591.94,-70.48 273.5,-31 261.83,-29.55 249.23,-27.3 237.84,-25"/>
<polygon fill="midnightblue" stroke="midnightblue" points="1113.24,-79.51 1123.25,-76.04 1113.26,-72.51 1113.24,-79.51"/>
</g>
<!-- Node8 -->
<g id="node8" class="node">
<title>Node8</title>
<g id="a_node8"><a xlink:href="test__config_8cc.html" target="_top" xlink:title="配置模块测试">
<polygon fill="white" stroke="black" points="282.5,-6 282.5,-25 392.5,-25 392.5,-6 282.5,-6"/>
<text text-anchor="middle" x="337.5" y="-13" font-family="Helvetica,sans-Serif" font-size="10.00">tests/test_config.cc</text>
</a>
</g>
</g>
<!-- Node5&#45;&gt;Node8 -->
<g id="edge7" class="edge">
<title>Node5&#45;&gt;Node8</title>
<path fill="none" stroke="midnightblue" d="M1113.3,-75.87C992.73,-74.97 668.53,-68.9 401.5,-31 391.35,-29.56 380.42,-27.34 370.53,-25.07"/>
<polygon fill="midnightblue" stroke="midnightblue" points="1113.3,-79.37 1123.32,-75.94 1113.35,-72.37 1113.3,-79.37"/>
</g>
<!-- Node9 -->
<g id="node9" class="node">
<title>Node9</title>
<g id="a_node9"><a xlink:href="test__env_8cc.html" target="_top" xlink:title="环境变量测试">
<polygon fill="white" stroke="black" points="410.5,-6 410.5,-25 508.5,-25 508.5,-6 410.5,-6"/>
<text text-anchor="middle" x="459.5" y="-13" font-family="Helvetica,sans-Serif" font-size="10.00">tests/test_env.cc</text>
</a>
</g>
</g>
<!-- Node5&#45;&gt;Node9 -->
<g id="edge8" class="edge">
<title>Node5&#45;&gt;Node9</title>
<path fill="none" stroke="midnightblue" d="M1113.29,-75.51C1005.71,-73.79 738.18,-66.02 517.5,-31 508.27,-29.54 498.37,-27.31 489.4,-25.04"/>
<polygon fill="midnightblue" stroke="midnightblue" points="1113.44,-79.01 1123.49,-75.66 1113.55,-72.01 1113.44,-79.01"/>
</g>
<!-- Node10 -->
<g id="node10" class="node">
<title>Node10</title>
<g id="a_node10"><a xlink:href="test__fiber_8cc.html" target="_top" xlink:title="协程测试">
<polygon fill="white" stroke="black" points="526.5,-6 526.5,-25 628.5,-25 628.5,-6 526.5,-6"/>
<text text-anchor="middle" x="577.5" y="-13" font-family="Helvetica,sans-Serif" font-size="10.00">tests/test_fiber.cc</text>
</a>
</g>
</g>
<!-- Node5&#45;&gt;Node10 -->
<g id="edge9" class="edge">
<title>Node5&#45;&gt;Node10</title>
<path fill="none" stroke="midnightblue" d="M1113.26,-74.3C1020.54,-70.49 811.27,-59.29 637.5,-31 628.09,-29.47 617.97,-27.25 608.77,-25"/>
<polygon fill="midnightblue" stroke="midnightblue" points="1113.32,-77.8 1123.45,-74.71 1113.6,-70.81 1113.32,-77.8"/>
</g>
<!-- Node11 -->
<g id="node11" class="node">
<title>Node11</title>
<g id="a_node11"><a xlink:href="test__fiber2_8cc.html" target="_top" xlink:title="协程测试，用于演示非对称协程">
<polygon fill="white" stroke="black" points="647,-6 647,-25 756,-25 756,-6 647,-6"/>
<text text-anchor="middle" x="701.5" y="-13" font-family="Helvetica,sans-Serif" font-size="10.00">tests/test_fiber2.cc</text>
</a>
</g>
</g>
<!-- Node5&#45;&gt;Node11 -->
<g id="edge10" class="edge">
<title>Node5&#45;&gt;Node11</title>
<path fill="none" stroke="midnightblue" d="M1113.17,-72.3C1038.17,-66.16 889.38,-52.38 764.5,-31 754.99,-29.37 744.75,-27.2 735.36,-25.04"/>
<polygon fill="midnightblue" stroke="midnightblue" points="1113,-75.8 1123.25,-73.12 1113.57,-68.82 1113,-75.8"/>
</g>
<!-- Node12 -->
<g id="node12" class="node">
<title>Node12</title>
<g id="a_node12"><a xlink:href="test__hook_8cc.html" target="_top" xlink:title="hook模块测试">
<polygon fill="white" stroke="black" points="774,-6 774,-25 879,-25 879,-6 774,-6"/>
<text text-anchor="middle" x="826.5" y="-13" font-family="Helvetica,sans-Serif" font-size="10.00">tests/test_hook.cc</text>
</a>
</g>
</g>
<!-- Node5&#45;&gt;Node12 -->
<g id="edge11" class="edge">
<title>Node5&#45;&gt;Node12</title>
<path fill="none" stroke="midnightblue" d="M1113.09,-69.11C1058.19,-61.04 966.09,-46.77 887.5,-31 878.75,-29.24 869.34,-27.12 860.6,-25.06"/>
<polygon fill="midnightblue" stroke="midnightblue" points="1112.82,-72.6 1123.23,-70.59 1113.84,-65.68 1112.82,-72.6"/>
</g>
<!-- Node13 -->
<g id="node13" class="node">
<title>Node13</title>
<g id="a_node13"><a xlink:href="test__http_8cc.html" target="_top" xlink:title="HTTP请求类与响应类测试">
<polygon fill="white" stroke="black" points="897,-6 897,-25 998,-25 998,-6 897,-6"/>
<text text-anchor="middle" x="947.5" y="-13" font-family="Helvetica,sans-Serif" font-size="10.00">tests/test_http.cc</text>
</a>
</g>
</g>
<!-- Node5&#45;&gt;Node13 -->
<g id="edge12" class="edge">
<title>Node5&#45;&gt;Node13</title>
<path fill="none" stroke="midnightblue" d="M1121.04,-64.75C1079.46,-53.19 1015.66,-35.45 978.1,-25.01"/>
<polygon fill="midnightblue" stroke="midnightblue" points="1120.27,-68.17 1130.84,-67.48 1122.14,-61.42 1120.27,-68.17"/>
</g>
<!-- Node14 -->
<g id="node14" class="node">
<title>Node14</title>
<g id="a_node14"><a xlink:href="test__http__parser_8cc.html" target="_top" xlink:title="测试HTTP协议解析">
<polygon fill="white" stroke="black" points="1016.5,-6 1016.5,-25 1152.5,-25 1152.5,-6 1016.5,-6"/>
<text text-anchor="middle" x="1084.5" y="-13" font-family="Helvetica,sans-Serif" font-size="10.00">tests/test_http_parser.cc</text>
</a>
</g>
</g>
<!-- Node5&#45;&gt;Node14 -->
<g id="edge13" class="edge">
<title>Node5&#45;&gt;Node14</title>
<path fill="none" stroke="midnightblue" d="M1142.47,-61.29C1127.7,-49.88 1107.74,-34.46 1095.51,-25.01"/>
<polygon fill="midnightblue" stroke="midnightblue" points="1140.41,-64.13 1150.47,-67.48 1144.69,-58.59 1140.41,-64.13"/>
</g>
<!-- Node15 -->
<g id="node15" class="node">
<title>Node15</title>
<g id="a_node15"><a xlink:href="test__http__server_8cc.html" target="_top" xlink:title="HttpServer测试">
<polygon fill="white" stroke="black" points="1170.5,-6 1170.5,-25 1306.5,-25 1306.5,-6 1170.5,-6"/>
<text text-anchor="middle" x="1238.5" y="-13" font-family="Helvetica,sans-Serif" font-size="10.00">tests/test_http_server.cc</text>
</a>
</g>
</g>
<!-- Node5&#45;&gt;Node15 -->
<g id="edge14" class="edge">
<title>Node5&#45;&gt;Node15</title>
<path fill="none" stroke="midnightblue" d="M1180.53,-61.29C1195.3,-49.88 1215.26,-34.46 1227.49,-25.01"/>
<polygon fill="midnightblue" stroke="midnightblue" points="1178.31,-58.59 1172.53,-67.48 1182.59,-64.13 1178.31,-58.59"/>
</g>
<!-- Node16 -->
<g id="node16" class="node">
<title>Node16</title>
<g id="a_node16"><a xlink:href="test__iomanager_8cc.html" target="_top" xlink:title="IO协程调度器测试">
<polygon fill="white" stroke="black" points="1325,-6 1325,-25 1458,-25 1458,-6 1325,-6"/>
<text text-anchor="middle" x="1391.5" y="-13" font-family="Helvetica,sans-Serif" font-size="10.00">tests/test_iomanager.cc</text>
</a>
</g>
</g>
<!-- Node5&#45;&gt;Node16 -->
<g id="edge15" class="edge">
<title>Node5&#45;&gt;Node16</title>
<path fill="none" stroke="midnightblue" d="M1204.14,-64.97C1248.8,-53.41 1317.99,-35.52 1358.61,-25.01"/>
<polygon fill="midnightblue" stroke="midnightblue" points="1203.26,-61.58 1194.45,-67.48 1205.01,-68.36 1203.26,-61.58"/>
</g>
<!-- Node17 -->
<g id="node17" class="node">
<title>Node17</title>
<g id="a_node17"><a xlink:href="test__log_8cpp.html" target="_top" xlink:title="日志类测试">
<polygon fill="white" stroke="black" points="1476,-6 1476,-25 1579,-25 1579,-6 1476,-6"/>
<text text-anchor="middle" x="1527.5" y="-13" font-family="Helvetica,sans-Serif" font-size="10.00">tests/test_log.cpp</text>
</a>
</g>
</g>
<!-- Node5&#45;&gt;Node17 -->
<g id="edge16" class="edge">
<title>Node5&#45;&gt;Node17</title>
<path fill="none" stroke="midnightblue" d="M1209.88,-70.27C1270.4,-62.78 1377.06,-48.54 1467.5,-31 1476.34,-29.29 1485.83,-27.14 1494.61,-25.02"/>
<polygon fill="midnightblue" stroke="midnightblue" points="1209.35,-66.81 1199.85,-71.5 1210.21,-73.76 1209.35,-66.81"/>
</g>
<!-- Node18 -->
<g id="node18" class="node">
<title>Node18</title>
<g id="a_node18"><a xlink:href="test__scheduler_8cc.html" target="_top" xlink:title="协程调度器测试">
<polygon fill="white" stroke="black" points="1597.5,-6 1597.5,-25 1725.5,-25 1725.5,-6 1597.5,-6"/>
<text text-anchor="middle" x="1661.5" y="-13" font-family="Helvetica,sans-Serif" font-size="10.00">tests/test_scheduler.cc</text>
</a>
</g>
</g>
<!-- Node5&#45;&gt;Node18 -->
<g id="edge17" class="edge">
<title>Node5&#45;&gt;Node18</title>
<path fill="none" stroke="midnightblue" d="M1209.81,-72.35C1289.13,-66.04 1451.84,-51.73 1588.5,-31 1599.36,-29.35 1611.05,-27.2 1621.83,-25.06"/>
<polygon fill="midnightblue" stroke="midnightblue" points="1209.33,-68.88 1199.64,-73.15 1209.88,-75.86 1209.33,-68.88"/>
</g>
<!-- Node19 -->
<g id="node19" class="node">
<title>Node19</title>
<g id="a_node19"><a xlink:href="test__socket__tcp__client_8cc.html" target="_top" xlink:title="测试Socket类，tcp客户端">
<polygon fill="white" stroke="black" points="1744,-0.5 1744,-30.5 1863,-30.5 1863,-0.5 1744,-0.5"/>
<text text-anchor="start" x="1752" y="-18.5" font-family="Helvetica,sans-Serif" font-size="10.00">tests/test_socket_tcp</text>
<text text-anchor="middle" x="1803.5" y="-7.5" font-family="Helvetica,sans-Serif" font-size="10.00">_client.cc</text>
</a>
</g>
</g>
<!-- Node5&#45;&gt;Node19 -->
<g id="edge18" class="edge">
<title>Node5&#45;&gt;Node19</title>
<path fill="none" stroke="midnightblue" d="M1209.84,-74.31C1308.77,-70.38 1541.28,-58.77 1734.5,-31 1737.53,-30.56 1740.62,-30.08 1743.74,-29.55"/>
<polygon fill="midnightblue" stroke="midnightblue" points="1209.43,-70.82 1199.57,-74.7 1209.7,-77.81 1209.43,-70.82"/>
</g>
<!-- Node20 -->
<g id="node20" class="node">
<title>Node20</title>
<g id="a_node20"><a xlink:href="test__tcp__server_8cc.html" target="_top" xlink:title="TcpServer类测试">
<polygon fill="white" stroke="black" points="1881,-6 1881,-25 2012,-25 2012,-6 1881,-6"/>
<text text-anchor="middle" x="1946.5" y="-13" font-family="Helvetica,sans-Serif" font-size="10.00">tests/test_tcp_server.cc</text>
</a>
</g>
</g>
<!-- Node5&#45;&gt;Node20 -->
<g id="edge19" class="edge">
<title>Node5&#45;&gt;Node20</title>
<path fill="none" stroke="midnightblue" d="M1210.08,-75.1C1325.44,-72.5 1624.78,-62.97 1872.5,-31 1884.06,-29.51 1896.52,-27.3 1907.87,-25.06"/>
<polygon fill="midnightblue" stroke="midnightblue" points="1209.74,-71.61 1199.82,-75.33 1209.89,-78.61 1209.74,-71.61"/>
</g>
<!-- Node21 -->
<g id="node21" class="node">
<title>Node21</title>
<g id="a_node21"><a xlink:href="test__thread_8cc.html" target="_top" xlink:title="线程模块测试">
<polygon fill="white" stroke="black" points="2030,-6 2030,-25 2143,-25 2143,-6 2030,-6"/>
<text text-anchor="middle" x="2086.5" y="-13" font-family="Helvetica,sans-Serif" font-size="10.00">tests/test_thread.cc</text>
</a>
</g>
</g>
<!-- Node5&#45;&gt;Node21 -->
<g id="edge20" class="edge">
<title>Node5&#45;&gt;Node21</title>
<path fill="none" stroke="midnightblue" d="M1209.99,-76.29C1341.32,-76.48 1714.66,-72.95 2021.5,-31 2031.92,-29.57 2043.15,-27.33 2053.29,-25.03"/>
<polygon fill="midnightblue" stroke="midnightblue" points="1209.87,-72.79 1199.86,-76.27 1209.85,-79.79 1209.87,-72.79"/>
</g>
<!-- Node22 -->
<g id="node22" class="node">
<title>Node22</title>
<g id="a_node22"><a xlink:href="test__timer_8cc.html" target="_top" xlink:title="IO协程测试器定时器测试">
<polygon fill="white" stroke="black" points="2161,-6 2161,-25 2268,-25 2268,-6 2161,-6"/>
<text text-anchor="middle" x="2214.5" y="-13" font-family="Helvetica,sans-Serif" font-size="10.00">tests/test_timer.cc</text>
</a>
</g>
</g>
<!-- Node5&#45;&gt;Node22 -->
<g id="edge21" class="edge">
<title>Node5&#45;&gt;Node22</title>
<path fill="none" stroke="midnightblue" d="M1209.57,-74.99C1381.72,-71.2 1967.03,-56.68 2152.5,-31 2162.57,-29.61 2173.41,-27.34 2183.17,-25.01"/>
<polygon fill="midnightblue" stroke="midnightblue" points="1209.47,-71.49 1199.54,-75.21 1209.62,-78.49 1209.47,-71.49"/>
</g>
<!-- Node23 -->
<g id="node23" class="node">
<title>Node23</title>
<g id="a_node23"><a xlink:href="test__util_8cpp.html" target="_top" xlink:title="util与macro测试">
<polygon fill="white" stroke="black" points="2286.5,-6 2286.5,-25 2390.5,-25 2390.5,-6 2286.5,-6"/>
<text text-anchor="middle" x="2338.5" y="-13" font-family="Helvetica,sans-Serif" font-size="10.00">tests/test_util.cpp</text>
</a>
</g>
</g>
<!-- Node5&#45;&gt;Node23 -->
<g id="edge22" class="edge">
<title>Node5&#45;&gt;Node23</title>
<path fill="none" stroke="midnightblue" d="M1209.67,-75.3C1395.58,-72.39 2066.46,-60.06 2277.5,-31 2287.42,-29.63 2298.09,-27.38 2307.69,-25.05"/>
<polygon fill="midnightblue" stroke="midnightblue" points="1209.6,-71.8 1199.65,-75.45 1209.71,-78.8 1209.6,-71.8"/>
</g>
<!-- Node24&#45;&gt;Node5 -->
<g id="edge29" class="edge">
<title>Node24&#45;&gt;Node5</title>
<path fill="none" stroke="midnightblue" d="M1212.81,-226.05C1204.35,-206 1190.62,-172.48 1180.5,-143 1173.7,-123.21 1167.17,-99.51 1163.82,-86.91"/>
<polygon fill="midnightblue" stroke="midnightblue" points="1209.67,-227.62 1216.8,-235.45 1216.11,-224.88 1209.67,-227.62"/>
</g>
<!-- Node25 -->
<g id="node25" class="node">
<title>Node25</title>
<g id="a_node25"><a xlink:href="http__server_8h.html" target="_top" xlink:title="HTTP服务器封装">
<polygon fill="white" stroke="black" points="1189.5,-123.5 1189.5,-142.5 1319.5,-142.5 1319.5,-123.5 1189.5,-123.5"/>
<text text-anchor="middle" x="1254.5" y="-130.5" font-family="Helvetica,sans-Serif" font-size="10.00">sylar/http/http_server.h</text>
</a>
</g>
</g>
<!-- Node24&#45;&gt;Node25 -->
<g id="edge24" class="edge">
<title>Node24&#45;&gt;Node25</title>
<path fill="none" stroke="midnightblue" d="M1226.16,-225.67C1233.6,-201.62 1246.34,-160.39 1251.84,-142.59"/>
<polygon fill="midnightblue" stroke="midnightblue" points="1222.78,-224.78 1223.17,-235.37 1229.46,-226.85 1222.78,-224.78"/>
</g>
<!-- Node24&#45;&gt;Node26 -->
<g id="edge26" class="edge">
<title>Node24&#45;&gt;Node26</title>
<path fill="none" stroke="midnightblue" d="M1244.31,-230.18C1261.42,-220.24 1283.97,-207.15 1298.6,-198.65"/>
<polygon fill="midnightblue" stroke="midnightblue" points="1242.33,-227.28 1235.44,-235.32 1245.85,-233.33 1242.33,-227.28"/>
</g>
<!-- Node25&#45;&gt;Node5 -->
<g id="edge25" class="edge">
<title>Node25&#45;&gt;Node5</title>
<path fill="none" stroke="midnightblue" d="M1230.69,-118.18C1213.58,-108.24 1191.03,-95.15 1176.4,-86.65"/>
<polygon fill="midnightblue" stroke="midnightblue" points="1229.15,-121.33 1239.56,-123.32 1232.67,-115.28 1229.15,-121.33"/>
</g>
<!-- Node26&#45;&gt;Node5 -->
<g id="edge28" class="edge">
<title>Node26&#45;&gt;Node5</title>
<path fill="none" stroke="midnightblue" d="M1324.6,-170.75C1332.15,-156.6 1339.03,-136.74 1328.5,-123 1312.93,-102.68 1244.02,-89.47 1199.73,-82.91"/>
<polygon fill="midnightblue" stroke="midnightblue" points="1321.51,-169.09 1319.47,-179.48 1327.55,-172.63 1321.51,-169.09"/>
</g>
<!-- Node26&#45;&gt;Node25 -->
<g id="edge27" class="edge">
<title>Node26&#45;&gt;Node25</title>
<path fill="none" stroke="midnightblue" d="M1296.61,-172.54C1286.09,-162.91 1272.93,-150.87 1264.15,-142.83"/>
<polygon fill="midnightblue" stroke="midnightblue" points="1294.28,-175.15 1304.02,-179.32 1299.01,-169.99 1294.28,-175.15"/>
</g>
</g>
</svg>
