<?xml version="1.0" encoding="UTF-8" standalone="no"?>
<!DOCTYPE svg PUBLIC "-//W3C//DTD SVG 1.1//EN"
 "http://www.w3.org/Graphics/SVG/1.1/DTD/svg11.dtd">
<!-- Generated by graphviz version 2.43.0 (0)
 -->
<!-- Title: sylar/http/http_parser.h Pages: 1 -->
<svg width="701pt" height="196pt"
 viewBox="0.00 0.00 701.00 196.00" xmlns="http://www.w3.org/2000/svg" xmlns:xlink="http://www.w3.org/1999/xlink">
<g id="graph0" class="graph" transform="scale(1 1) rotate(0) translate(4 192)">
<title>sylar/http/http_parser.h</title>
<polygon fill="white" stroke="transparent" points="-4,4 -4,-192 697,-192 697,4 -4,4"/>
<!-- Node1 -->
<g id="node1" class="node">
<title>Node1</title>
<g id="a_node1"><a xlink:title="HTTP协议解析封装">
<polygon fill="#bfbfbf" stroke="black" points="268.5,-168.5 268.5,-187.5 398.5,-187.5 398.5,-168.5 268.5,-168.5"/>
<text text-anchor="middle" x="333.5" y="-175.5" font-family="Helvetica,sans-Serif" font-size="10.00">sylar/http/http_parser.h</text>
</a>
</g>
</g>
<!-- Node2 -->
<g id="node2" class="node">
<title>Node2</title>
<g id="a_node2"><a xlink:href="http_8h.html" target="_top" xlink:title="HTTP定义结构体封装">
<polygon fill="white" stroke="black" points="311,-112.5 311,-131.5 356,-131.5 356,-112.5 311,-112.5"/>
<text text-anchor="middle" x="333.5" y="-119.5" font-family="Helvetica,sans-Serif" font-size="10.00">http.h</text>
</a>
</g>
</g>
<!-- Node1&#45;&gt;Node2 -->
<g id="edge1" class="edge">
<title>Node1&#45;&gt;Node2</title>
<path fill="none" stroke="midnightblue" d="M333.5,-168.08C333.5,-161.01 333.5,-150.86 333.5,-141.99"/>
<polygon fill="midnightblue" stroke="midnightblue" points="337,-141.75 333.5,-131.75 330,-141.75 337,-141.75"/>
</g>
<!-- Node3 -->
<g id="node3" class="node">
<title>Node3</title>
<g id="a_node3"><a xlink:href="http-parser_2http__parser_8h_source.html" target="_top" xlink:title=" ">
<polygon fill="white" stroke="black" points="0,-56.5 0,-75.5 137,-75.5 137,-56.5 0,-56.5"/>
<text text-anchor="middle" x="68.5" y="-63.5" font-family="Helvetica,sans-Serif" font-size="10.00">http&#45;parser/http_parser.h</text>
</a>
</g>
</g>
<!-- Node2&#45;&gt;Node3 -->
<g id="edge2" class="edge">
<title>Node2&#45;&gt;Node3</title>
<path fill="none" stroke="midnightblue" d="M310.91,-116.4C268.99,-107.85 178.2,-89.35 120.4,-77.58"/>
<polygon fill="midnightblue" stroke="midnightblue" points="120.86,-74.1 110.37,-75.53 119.47,-80.96 120.86,-74.1"/>
</g>
<!-- Node6 -->
<g id="node6" class="node">
<title>Node6</title>
<g id="a_node6"><a xlink:title=" ">
<polygon fill="white" stroke="#bfbfbf" points="155.5,-56.5 155.5,-75.5 199.5,-75.5 199.5,-56.5 155.5,-56.5"/>
<text text-anchor="middle" x="177.5" y="-63.5" font-family="Helvetica,sans-Serif" font-size="10.00">string</text>
</a>
</g>
</g>
<!-- Node2&#45;&gt;Node6 -->
<g id="edge5" class="edge">
<title>Node2&#45;&gt;Node6</title>
<path fill="none" stroke="midnightblue" d="M310.82,-113.15C284.09,-103.9 239.52,-88.47 209.34,-78.02"/>
<polygon fill="midnightblue" stroke="midnightblue" points="210.3,-74.65 199.71,-74.69 208.01,-81.27 210.3,-74.65"/>
</g>
<!-- Node7 -->
<g id="node7" class="node">
<title>Node7</title>
<g id="a_node7"><a xlink:title=" ">
<polygon fill="white" stroke="#bfbfbf" points="217.5,-56.5 217.5,-75.5 255.5,-75.5 255.5,-56.5 217.5,-56.5"/>
<text text-anchor="middle" x="236.5" y="-63.5" font-family="Helvetica,sans-Serif" font-size="10.00">map</text>
</a>
</g>
</g>
<!-- Node2&#45;&gt;Node7 -->
<g id="edge6" class="edge">
<title>Node2&#45;&gt;Node7</title>
<path fill="none" stroke="midnightblue" d="M317.92,-112.32C302.5,-103.74 278.69,-90.49 260.79,-80.52"/>
<polygon fill="midnightblue" stroke="midnightblue" points="262.49,-77.46 252.05,-75.65 259.08,-83.58 262.49,-77.46"/>
</g>
<!-- Node8 -->
<g id="node8" class="node">
<title>Node8</title>
<g id="a_node8"><a xlink:title=" ">
<polygon fill="white" stroke="#bfbfbf" points="274,-56.5 274,-75.5 321,-75.5 321,-56.5 274,-56.5"/>
<text text-anchor="middle" x="297.5" y="-63.5" font-family="Helvetica,sans-Serif" font-size="10.00">vector</text>
</a>
</g>
</g>
<!-- Node2&#45;&gt;Node8 -->
<g id="edge7" class="edge">
<title>Node2&#45;&gt;Node8</title>
<path fill="none" stroke="midnightblue" d="M327.56,-112.08C322.52,-104.53 315.16,-93.49 308.99,-84.23"/>
<polygon fill="midnightblue" stroke="midnightblue" points="311.79,-82.13 303.33,-75.75 305.97,-86.01 311.79,-82.13"/>
</g>
<!-- Node9 -->
<g id="node9" class="node">
<title>Node9</title>
<g id="a_node9"><a xlink:title=" ">
<polygon fill="white" stroke="#bfbfbf" points="339.5,-56.5 339.5,-75.5 399.5,-75.5 399.5,-56.5 339.5,-56.5"/>
<text text-anchor="middle" x="369.5" y="-63.5" font-family="Helvetica,sans-Serif" font-size="10.00">iostream</text>
</a>
</g>
</g>
<!-- Node2&#45;&gt;Node9 -->
<g id="edge8" class="edge">
<title>Node2&#45;&gt;Node9</title>
<path fill="none" stroke="midnightblue" d="M339.44,-112.08C344.48,-104.53 351.84,-93.49 358.01,-84.23"/>
<polygon fill="midnightblue" stroke="midnightblue" points="361.03,-86.01 363.67,-75.75 355.21,-82.13 361.03,-86.01"/>
</g>
<!-- Node10 -->
<g id="node10" class="node">
<title>Node10</title>
<g id="a_node10"><a xlink:title=" ">
<polygon fill="white" stroke="#bfbfbf" points="417.5,-56.5 417.5,-75.5 473.5,-75.5 473.5,-56.5 417.5,-56.5"/>
<text text-anchor="middle" x="445.5" y="-63.5" font-family="Helvetica,sans-Serif" font-size="10.00">sstream</text>
</a>
</g>
</g>
<!-- Node2&#45;&gt;Node10 -->
<g id="edge9" class="edge">
<title>Node2&#45;&gt;Node10</title>
<path fill="none" stroke="midnightblue" d="M351.49,-112.32C369.54,-103.62 397.55,-90.12 418.3,-80.11"/>
<polygon fill="midnightblue" stroke="midnightblue" points="420.06,-83.15 427.55,-75.65 417.02,-76.84 420.06,-83.15"/>
</g>
<!-- Node11 -->
<g id="node11" class="node">
<title>Node11</title>
<g id="a_node11"><a xlink:title=" ">
<polygon fill="white" stroke="#bfbfbf" points="491.5,-56.5 491.5,-75.5 549.5,-75.5 549.5,-56.5 491.5,-56.5"/>
<text text-anchor="middle" x="520.5" y="-63.5" font-family="Helvetica,sans-Serif" font-size="10.00">memory</text>
</a>
</g>
</g>
<!-- Node2&#45;&gt;Node11 -->
<g id="edge10" class="edge">
<title>Node2&#45;&gt;Node11</title>
<path fill="none" stroke="midnightblue" d="M356.06,-114.49C387.18,-105.5 443.74,-89.17 481.72,-78.2"/>
<polygon fill="midnightblue" stroke="midnightblue" points="482.78,-81.53 491.42,-75.4 480.84,-74.81 482.78,-81.53"/>
</g>
<!-- Node12 -->
<g id="node12" class="node">
<title>Node12</title>
<g id="a_node12"><a xlink:title=" ">
<polygon fill="white" stroke="#bfbfbf" points="568,-56.5 568,-75.5 693,-75.5 693,-56.5 568,-56.5"/>
<text text-anchor="middle" x="630.5" y="-63.5" font-family="Helvetica,sans-Serif" font-size="10.00">boost/lexical_cast.hpp</text>
</a>
</g>
</g>
<!-- Node2&#45;&gt;Node12 -->
<g id="edge11" class="edge">
<title>Node2&#45;&gt;Node12</title>
<path fill="none" stroke="midnightblue" d="M356.31,-116.85C402.34,-108.48 507.55,-89.35 573.44,-77.37"/>
<polygon fill="midnightblue" stroke="midnightblue" points="574.45,-80.75 583.66,-75.52 573.2,-73.86 574.45,-80.75"/>
</g>
<!-- Node4 -->
<g id="node4" class="node">
<title>Node4</title>
<g id="a_node4"><a xlink:title=" ">
<polygon fill="white" stroke="#bfbfbf" points="4.5,-0.5 4.5,-19.5 60.5,-19.5 60.5,-0.5 4.5,-0.5"/>
<text text-anchor="middle" x="32.5" y="-7.5" font-family="Helvetica,sans-Serif" font-size="10.00">stddef.h</text>
</a>
</g>
</g>
<!-- Node3&#45;&gt;Node4 -->
<g id="edge3" class="edge">
<title>Node3&#45;&gt;Node4</title>
<path fill="none" stroke="midnightblue" d="M62.56,-56.08C57.52,-48.53 50.16,-37.49 43.99,-28.23"/>
<polygon fill="midnightblue" stroke="midnightblue" points="46.79,-26.13 38.33,-19.75 40.97,-30.01 46.79,-26.13"/>
</g>
<!-- Node5 -->
<g id="node5" class="node">
<title>Node5</title>
<g id="a_node5"><a xlink:title=" ">
<polygon fill="white" stroke="#bfbfbf" points="79,-0.5 79,-19.5 132,-19.5 132,-0.5 79,-0.5"/>
<text text-anchor="middle" x="105.5" y="-7.5" font-family="Helvetica,sans-Serif" font-size="10.00">stdint.h</text>
</a>
</g>
</g>
<!-- Node3&#45;&gt;Node5 -->
<g id="edge4" class="edge">
<title>Node3&#45;&gt;Node5</title>
<path fill="none" stroke="midnightblue" d="M74.61,-56.08C79.78,-48.53 87.35,-37.49 93.69,-28.23"/>
<polygon fill="midnightblue" stroke="midnightblue" points="96.74,-29.98 99.5,-19.75 90.96,-26.02 96.74,-29.98"/>
</g>
</g>
</svg>
