<?xml version="1.0" encoding="UTF-8" standalone="no"?>
<!DOCTYPE svg PUBLIC "-//W3C//DTD SVG 1.1//EN"
 "http://www.w3.org/Graphics/SVG/1.1/DTD/svg11.dtd">
<!-- Generated by graphviz version 2.43.0 (0)
 -->
<!-- Title: sylar/http/http_parser.cc Pages: 1 -->
<svg width="1402pt" height="252pt"
 viewBox="0.00 0.00 1401.58 252.00" xmlns="http://www.w3.org/2000/svg" xmlns:xlink="http://www.w3.org/1999/xlink">
<g id="graph0" class="graph" transform="scale(1 1) rotate(0) translate(4 248)">
<title>sylar/http/http_parser.cc</title>
<polygon fill="white" stroke="transparent" points="-4,4 -4,-248 1397.58,-248 1397.58,4 -4,4"/>
<!-- Node1 -->
<g id="node1" class="node">
<title>Node1</title>
<g id="a_node1"><a xlink:title="HTTP协议解析实现">
<polygon fill="#bfbfbf" stroke="black" points="530.58,-224.5 530.58,-243.5 664.58,-243.5 664.58,-224.5 530.58,-224.5"/>
<text text-anchor="middle" x="597.58" y="-231.5" font-family="Helvetica,sans-Serif" font-size="10.00">sylar/http/http_parser.cc</text>
</a>
</g>
</g>
<!-- Node2 -->
<g id="node2" class="node">
<title>Node2</title>
<g id="a_node2"><a xlink:href="http__parser_8h.html" target="_top" xlink:title="HTTP协议解析封装">
<polygon fill="white" stroke="black" points="346.58,-168.5 346.58,-187.5 426.58,-187.5 426.58,-168.5 346.58,-168.5"/>
<text text-anchor="middle" x="386.58" y="-175.5" font-family="Helvetica,sans-Serif" font-size="10.00">http_parser.h</text>
</a>
</g>
</g>
<!-- Node1&#45;&gt;Node2 -->
<g id="edge1" class="edge">
<title>Node1&#45;&gt;Node2</title>
<path fill="none" stroke="midnightblue" d="M564.14,-224.44C527.72,-215.12 469.35,-200.18 429.55,-190"/>
<polygon fill="midnightblue" stroke="midnightblue" points="430.41,-186.61 419.85,-187.52 428.67,-193.39 430.41,-186.61"/>
</g>
<!-- Node14 -->
<g id="node14" class="node">
<title>Node14</title>
<g id="a_node14"><a xlink:href="config_8h.html" target="_top" xlink:title="配置模块">
<polygon fill="white" stroke="black" points="565.58,-168.5 565.58,-187.5 629.58,-187.5 629.58,-168.5 565.58,-168.5"/>
<text text-anchor="middle" x="597.58" y="-175.5" font-family="Helvetica,sans-Serif" font-size="10.00">../config.h</text>
</a>
</g>
</g>
<!-- Node1&#45;&gt;Node14 -->
<g id="edge13" class="edge">
<title>Node1&#45;&gt;Node14</title>
<path fill="none" stroke="midnightblue" d="M597.58,-224.08C597.58,-217.01 597.58,-206.86 597.58,-197.99"/>
<polygon fill="midnightblue" stroke="midnightblue" points="601.08,-197.75 597.58,-187.75 594.08,-197.75 601.08,-197.75"/>
</g>
<!-- Node27 -->
<g id="node27" class="node">
<title>Node27</title>
<g id="a_node27"><a xlink:href="log_8h.html" target="_top" xlink:title="日志模块">
<polygon fill="white" stroke="black" points="843.08,-112.5 843.08,-131.5 884.08,-131.5 884.08,-112.5 843.08,-112.5"/>
<text text-anchor="middle" x="863.58" y="-119.5" font-family="Helvetica,sans-Serif" font-size="10.00">log.h</text>
</a>
</g>
</g>
<!-- Node1&#45;&gt;Node27 -->
<g id="edge58" class="edge">
<title>Node1&#45;&gt;Node27</title>
<path fill="none" stroke="midnightblue" d="M618.45,-224.37C665.26,-205.01 778.78,-158.06 833.33,-135.51"/>
<polygon fill="midnightblue" stroke="midnightblue" points="834.9,-138.65 842.8,-131.59 832.22,-132.18 834.9,-138.65"/>
</g>
<!-- Node3 -->
<g id="node3" class="node">
<title>Node3</title>
<g id="a_node3"><a xlink:href="http_8h.html" target="_top" xlink:title="HTTP定义结构体封装">
<polygon fill="white" stroke="black" points="243.08,-112.5 243.08,-131.5 288.08,-131.5 288.08,-112.5 243.08,-112.5"/>
<text text-anchor="middle" x="265.58" y="-119.5" font-family="Helvetica,sans-Serif" font-size="10.00">http.h</text>
</a>
</g>
</g>
<!-- Node2&#45;&gt;Node3 -->
<g id="edge2" class="edge">
<title>Node2&#45;&gt;Node3</title>
<path fill="none" stroke="midnightblue" d="M367.4,-168.44C347.67,-159.64 316.69,-145.81 294.08,-135.72"/>
<polygon fill="midnightblue" stroke="midnightblue" points="295.22,-132.4 284.66,-131.52 292.36,-138.79 295.22,-132.4"/>
</g>
<!-- Node4 -->
<g id="node4" class="node">
<title>Node4</title>
<g id="a_node4"><a xlink:href="http-parser_2http__parser_8h_source.html" target="_top" xlink:title=" ">
<polygon fill="white" stroke="black" points="528.08,-56.5 528.08,-75.5 665.08,-75.5 665.08,-56.5 528.08,-56.5"/>
<text text-anchor="middle" x="596.58" y="-63.5" font-family="Helvetica,sans-Serif" font-size="10.00">http&#45;parser/http_parser.h</text>
</a>
</g>
</g>
<!-- Node3&#45;&gt;Node4 -->
<g id="edge3" class="edge">
<title>Node3&#45;&gt;Node4</title>
<path fill="none" stroke="midnightblue" d="M288.33,-117.29C338.34,-109.13 459.31,-89.39 533.97,-77.21"/>
<polygon fill="midnightblue" stroke="midnightblue" points="534.88,-80.61 544.19,-75.55 533.76,-73.7 534.88,-80.61"/>
</g>
<!-- Node7 -->
<g id="node7" class="node">
<title>Node7</title>
<g id="a_node7"><a xlink:title=" ">
<polygon fill="white" stroke="#bfbfbf" points="177.58,-0.5 177.58,-19.5 221.58,-19.5 221.58,-0.5 177.58,-0.5"/>
<text text-anchor="middle" x="199.58" y="-7.5" font-family="Helvetica,sans-Serif" font-size="10.00">string</text>
</a>
</g>
</g>
<!-- Node3&#45;&gt;Node7 -->
<g id="edge6" class="edge">
<title>Node3&#45;&gt;Node7</title>
<path fill="none" stroke="midnightblue" d="M260.4,-112.37C249.55,-94.3 224.28,-52.18 209.96,-28.31"/>
<polygon fill="midnightblue" stroke="midnightblue" points="212.88,-26.37 204.73,-19.59 206.87,-29.97 212.88,-26.37"/>
</g>
<!-- Node8 -->
<g id="node8" class="node">
<title>Node8</title>
<g id="a_node8"><a xlink:title=" ">
<polygon fill="white" stroke="#bfbfbf" points="395.58,-56.5 395.58,-75.5 433.58,-75.5 433.58,-56.5 395.58,-56.5"/>
<text text-anchor="middle" x="414.58" y="-63.5" font-family="Helvetica,sans-Serif" font-size="10.00">map</text>
</a>
</g>
</g>
<!-- Node3&#45;&gt;Node8 -->
<g id="edge7" class="edge">
<title>Node3&#45;&gt;Node8</title>
<path fill="none" stroke="midnightblue" d="M288.21,-112.8C314.42,-103.3 357.65,-87.63 386.12,-77.31"/>
<polygon fill="midnightblue" stroke="midnightblue" points="387.32,-80.6 395.53,-73.9 384.93,-74.02 387.32,-80.6"/>
</g>
<!-- Node9 -->
<g id="node9" class="node">
<title>Node9</title>
<g id="a_node9"><a xlink:title=" ">
<polygon fill="white" stroke="#bfbfbf" points="240.08,-0.5 240.08,-19.5 287.08,-19.5 287.08,-0.5 240.08,-0.5"/>
<text text-anchor="middle" x="263.58" y="-7.5" font-family="Helvetica,sans-Serif" font-size="10.00">vector</text>
</a>
</g>
</g>
<!-- Node3&#45;&gt;Node9 -->
<g id="edge8" class="edge">
<title>Node3&#45;&gt;Node9</title>
<path fill="none" stroke="midnightblue" d="M265.42,-112.37C265.1,-94.62 264.35,-53.67 263.91,-29.6"/>
<polygon fill="midnightblue" stroke="midnightblue" points="267.41,-29.53 263.73,-19.59 260.41,-29.65 267.41,-29.53"/>
</g>
<!-- Node10 -->
<g id="node10" class="node">
<title>Node10</title>
<g id="a_node10"><a xlink:title=" ">
<polygon fill="white" stroke="#bfbfbf" points="379.58,-0.5 379.58,-19.5 439.58,-19.5 439.58,-0.5 379.58,-0.5"/>
<text text-anchor="middle" x="409.58" y="-7.5" font-family="Helvetica,sans-Serif" font-size="10.00">iostream</text>
</a>
</g>
</g>
<!-- Node3&#45;&gt;Node10 -->
<g id="edge9" class="edge">
<title>Node3&#45;&gt;Node10</title>
<path fill="none" stroke="midnightblue" d="M269.95,-112.34C277.18,-98.75 292.81,-72.3 312.58,-56 330.22,-41.45 353.34,-30.48 372.59,-23.02"/>
<polygon fill="midnightblue" stroke="midnightblue" points="373.81,-26.3 381.97,-19.54 371.37,-19.74 373.81,-26.3"/>
</g>
<!-- Node11 -->
<g id="node11" class="node">
<title>Node11</title>
<g id="a_node11"><a xlink:title=" ">
<polygon fill="white" stroke="#bfbfbf" points="321.58,-56.5 321.58,-75.5 377.58,-75.5 377.58,-56.5 321.58,-56.5"/>
<text text-anchor="middle" x="349.58" y="-63.5" font-family="Helvetica,sans-Serif" font-size="10.00">sstream</text>
</a>
</g>
</g>
<!-- Node3&#45;&gt;Node11 -->
<g id="edge10" class="edge">
<title>Node3&#45;&gt;Node11</title>
<path fill="none" stroke="midnightblue" d="M279.07,-112.32C292.18,-103.9 312.29,-90.97 327.68,-81.07"/>
<polygon fill="midnightblue" stroke="midnightblue" points="329.59,-84.01 336.11,-75.65 325.81,-78.12 329.59,-84.01"/>
</g>
<!-- Node12 -->
<g id="node12" class="node">
<title>Node12</title>
<g id="a_node12"><a xlink:title=" ">
<polygon fill="white" stroke="#bfbfbf" points="1285.58,-0.5 1285.58,-19.5 1343.58,-19.5 1343.58,-0.5 1285.58,-0.5"/>
<text text-anchor="middle" x="1314.58" y="-7.5" font-family="Helvetica,sans-Serif" font-size="10.00">memory</text>
</a>
</g>
</g>
<!-- Node3&#45;&gt;Node12 -->
<g id="edge11" class="edge">
<title>Node3&#45;&gt;Node12</title>
<path fill="none" stroke="midnightblue" d="M288.23,-117.68C301.91,-115.78 319.72,-113.48 335.58,-112 471.88,-99.26 818.5,-112.01 950.58,-76 969.37,-70.88 970.96,-61.74 989.58,-56 1109.3,-19.06 1148.1,-41.63 1275.08,-20.07"/>
<polygon fill="midnightblue" stroke="midnightblue" points="1275.94,-23.47 1285.18,-18.29 1274.73,-16.58 1275.94,-23.47"/>
</g>
<!-- Node13 -->
<g id="node13" class="node">
<title>Node13</title>
<g id="a_node13"><a xlink:title=" ">
<polygon fill="white" stroke="#bfbfbf" points="64.08,-56.5 64.08,-75.5 189.08,-75.5 189.08,-56.5 64.08,-56.5"/>
<text text-anchor="middle" x="126.58" y="-63.5" font-family="Helvetica,sans-Serif" font-size="10.00">boost/lexical_cast.hpp</text>
</a>
</g>
</g>
<!-- Node3&#45;&gt;Node13 -->
<g id="edge12" class="edge">
<title>Node3&#45;&gt;Node13</title>
<path fill="none" stroke="midnightblue" d="M243.55,-112.44C220.47,-103.48 184.01,-89.31 157.94,-79.18"/>
<polygon fill="midnightblue" stroke="midnightblue" points="159.09,-75.88 148.5,-75.52 156.55,-82.4 159.09,-75.88"/>
</g>
<!-- Node5 -->
<g id="node5" class="node">
<title>Node5</title>
<g id="a_node5"><a xlink:title=" ">
<polygon fill="white" stroke="#bfbfbf" points="305.58,-0.5 305.58,-19.5 361.58,-19.5 361.58,-0.5 305.58,-0.5"/>
<text text-anchor="middle" x="333.58" y="-7.5" font-family="Helvetica,sans-Serif" font-size="10.00">stddef.h</text>
</a>
</g>
</g>
<!-- Node4&#45;&gt;Node5 -->
<g id="edge4" class="edge">
<title>Node4&#45;&gt;Node5</title>
<path fill="none" stroke="midnightblue" d="M550.58,-56.43C506.97,-48.17 439.39,-35.03 371.8,-20.2"/>
<polygon fill="midnightblue" stroke="midnightblue" points="372.35,-16.74 361.83,-18 370.84,-23.57 372.35,-16.74"/>
</g>
<!-- Node6 -->
<g id="node6" class="node">
<title>Node6</title>
<g id="a_node6"><a xlink:title=" ">
<polygon fill="white" stroke="#bfbfbf" points="458.08,-0.5 458.08,-19.5 511.08,-19.5 511.08,-0.5 458.08,-0.5"/>
<text text-anchor="middle" x="484.58" y="-7.5" font-family="Helvetica,sans-Serif" font-size="10.00">stdint.h</text>
</a>
</g>
</g>
<!-- Node4&#45;&gt;Node6 -->
<g id="edge5" class="edge">
<title>Node4&#45;&gt;Node6</title>
<path fill="none" stroke="midnightblue" d="M578.58,-56.32C560.54,-47.62 532.53,-34.12 511.77,-24.11"/>
<polygon fill="midnightblue" stroke="midnightblue" points="513.05,-20.84 502.53,-19.65 510.01,-27.15 513.05,-20.84"/>
</g>
<!-- Node14&#45;&gt;Node7 -->
<g id="edge15" class="edge">
<title>Node14&#45;&gt;Node7</title>
<path fill="none" stroke="midnightblue" d="M565.52,-174.77C457.46,-167.16 112.12,-142.18 90.58,-132 52.88,-114.19 10.29,-89.15 35.58,-56 51.5,-35.12 124.44,-21.54 167.5,-15.19"/>
<polygon fill="midnightblue" stroke="midnightblue" points="168.08,-18.64 177.49,-13.76 167.1,-11.71 168.08,-18.64"/>
</g>
<!-- Node14&#45;&gt;Node8 -->
<g id="edge21" class="edge">
<title>Node14&#45;&gt;Node8</title>
<path fill="none" stroke="midnightblue" d="M571.69,-168.48C549.55,-160.63 517.29,-147.81 491.58,-132 468.44,-117.77 445.05,-96.9 430.22,-82.67"/>
<polygon fill="midnightblue" stroke="midnightblue" points="432.51,-80.02 422.92,-75.53 427.62,-85.02 432.51,-80.02"/>
</g>
<!-- Node14&#45;&gt;Node9 -->
<g id="edge19" class="edge">
<title>Node14&#45;&gt;Node9</title>
<path fill="none" stroke="midnightblue" d="M565.4,-174.63C482.07,-168.32 260.75,-150.29 189.58,-132 126.66,-115.83 90.65,-130.02 54.58,-76 -6.68,15.72 -80.41,-92.24 230.06,-19.98"/>
<polygon fill="midnightblue" stroke="midnightblue" points="230.9,-23.37 239.83,-17.67 229.29,-16.56 230.9,-23.37"/>
</g>
<!-- Node14&#45;&gt;Node11 -->
<g id="edge16" class="edge">
<title>Node14&#45;&gt;Node11</title>
<path fill="none" stroke="midnightblue" d="M565.47,-176.43C502.12,-174.55 364.65,-166.49 335.58,-132 324.45,-118.8 331.1,-98.85 338.55,-84.54"/>
<polygon fill="midnightblue" stroke="midnightblue" points="341.69,-86.09 343.63,-75.68 335.62,-82.61 341.69,-86.09"/>
</g>
<!-- Node14&#45;&gt;Node12 -->
<g id="edge14" class="edge">
<title>Node14&#45;&gt;Node12</title>
<path fill="none" stroke="midnightblue" d="M629.85,-175.18C747.39,-168.09 1151.48,-139.5 1261.58,-76 1280.82,-64.9 1295.95,-43.94 1305.04,-28.82"/>
<polygon fill="midnightblue" stroke="midnightblue" points="1308.22,-30.31 1310.12,-19.89 1302.13,-26.85 1308.22,-30.31"/>
</g>
<!-- Node14&#45;&gt;Node13 -->
<g id="edge17" class="edge">
<title>Node14&#45;&gt;Node13</title>
<path fill="none" stroke="midnightblue" d="M565.37,-174.76C488.21,-169.12 294.7,-153.24 233.58,-132 200.13,-120.38 165.93,-97.23 145.47,-81.93"/>
<polygon fill="midnightblue" stroke="midnightblue" points="147.41,-79 137.34,-75.71 143.16,-84.57 147.41,-79"/>
</g>
<!-- Node15 -->
<g id="node15" class="node">
<title>Node15</title>
<g id="a_node15"><a xlink:title=" ">
<polygon fill="white" stroke="#bfbfbf" points="345.08,-112.5 345.08,-131.5 444.08,-131.5 444.08,-112.5 345.08,-112.5"/>
<text text-anchor="middle" x="394.58" y="-119.5" font-family="Helvetica,sans-Serif" font-size="10.00">yaml&#45;cpp/yaml.h</text>
</a>
</g>
</g>
<!-- Node14&#45;&gt;Node15 -->
<g id="edge18" class="edge">
<title>Node14&#45;&gt;Node15</title>
<path fill="none" stroke="midnightblue" d="M565.41,-168.44C530.52,-159.16 474.68,-144.31 436.41,-134.13"/>
<polygon fill="midnightblue" stroke="midnightblue" points="437.16,-130.7 426.59,-131.52 435.36,-137.47 437.16,-130.7"/>
</g>
<!-- Node16 -->
<g id="node16" class="node">
<title>Node16</title>
<g id="a_node16"><a xlink:title=" ">
<polygon fill="white" stroke="#bfbfbf" points="1361.58,-0.5 1361.58,-19.5 1393.58,-19.5 1393.58,-0.5 1361.58,-0.5"/>
<text text-anchor="middle" x="1377.58" y="-7.5" font-family="Helvetica,sans-Serif" font-size="10.00">list</text>
</a>
</g>
</g>
<!-- Node14&#45;&gt;Node16 -->
<g id="edge20" class="edge">
<title>Node14&#45;&gt;Node16</title>
<path fill="none" stroke="midnightblue" d="M629.76,-176.71C712.2,-175.42 937.36,-168.56 1120.58,-132 1201.08,-115.94 1224.23,-114.79 1296.58,-76 1321.25,-62.77 1345.78,-41.68 1361.28,-27.13"/>
<polygon fill="midnightblue" stroke="midnightblue" points="1364.11,-29.26 1368.9,-19.81 1359.26,-24.22 1364.11,-29.26"/>
</g>
<!-- Node17 -->
<g id="node17" class="node">
<title>Node17</title>
<g id="a_node17"><a xlink:title=" ">
<polygon fill="white" stroke="#bfbfbf" points="500.58,-112.5 500.58,-131.5 532.58,-131.5 532.58,-112.5 500.58,-112.5"/>
<text text-anchor="middle" x="516.58" y="-119.5" font-family="Helvetica,sans-Serif" font-size="10.00">set</text>
</a>
</g>
</g>
<!-- Node14&#45;&gt;Node17 -->
<g id="edge22" class="edge">
<title>Node14&#45;&gt;Node17</title>
<path fill="none" stroke="midnightblue" d="M584.56,-168.32C572.04,-159.98 552.89,-147.21 538.1,-137.35"/>
<polygon fill="midnightblue" stroke="midnightblue" points="539.82,-134.29 529.56,-131.65 535.94,-140.11 539.82,-134.29"/>
</g>
<!-- Node18 -->
<g id="node18" class="node">
<title>Node18</title>
<g id="a_node18"><a xlink:title=" ">
<polygon fill="white" stroke="#bfbfbf" points="551.08,-112.5 551.08,-131.5 644.08,-131.5 644.08,-112.5 551.08,-112.5"/>
<text text-anchor="middle" x="597.58" y="-119.5" font-family="Helvetica,sans-Serif" font-size="10.00">unordered_map</text>
</a>
</g>
</g>
<!-- Node14&#45;&gt;Node18 -->
<g id="edge23" class="edge">
<title>Node14&#45;&gt;Node18</title>
<path fill="none" stroke="midnightblue" d="M597.58,-168.08C597.58,-161.01 597.58,-150.86 597.58,-141.99"/>
<polygon fill="midnightblue" stroke="midnightblue" points="601.08,-141.75 597.58,-131.75 594.08,-141.75 601.08,-141.75"/>
</g>
<!-- Node19 -->
<g id="node19" class="node">
<title>Node19</title>
<g id="a_node19"><a xlink:title=" ">
<polygon fill="white" stroke="#bfbfbf" points="662.58,-112.5 662.58,-131.5 748.58,-131.5 748.58,-112.5 662.58,-112.5"/>
<text text-anchor="middle" x="705.58" y="-119.5" font-family="Helvetica,sans-Serif" font-size="10.00">unordered_set</text>
</a>
</g>
</g>
<!-- Node14&#45;&gt;Node19 -->
<g id="edge24" class="edge">
<title>Node14&#45;&gt;Node19</title>
<path fill="none" stroke="midnightblue" d="M614.93,-168.32C632.25,-159.66 659.09,-146.24 679.08,-136.25"/>
<polygon fill="midnightblue" stroke="midnightblue" points="680.89,-139.26 688.27,-131.65 677.76,-133 680.89,-139.26"/>
</g>
<!-- Node20 -->
<g id="node20" class="node">
<title>Node20</title>
<g id="a_node20"><a xlink:title=" ">
<polygon fill="white" stroke="#bfbfbf" points="782.08,-0.5 782.08,-19.5 847.08,-19.5 847.08,-0.5 782.08,-0.5"/>
<text text-anchor="middle" x="814.58" y="-7.5" font-family="Helvetica,sans-Serif" font-size="10.00">functional</text>
</a>
</g>
</g>
<!-- Node14&#45;&gt;Node20 -->
<g id="edge25" class="edge">
<title>Node14&#45;&gt;Node20</title>
<path fill="none" stroke="midnightblue" d="M629.82,-177.53C668.78,-176.42 734.01,-168.65 773.58,-132 802.63,-105.08 811.1,-56.84 813.57,-30.12"/>
<polygon fill="midnightblue" stroke="midnightblue" points="817.08,-30.04 814.31,-19.81 810.1,-29.53 817.08,-30.04"/>
</g>
<!-- Node21 -->
<g id="node21" class="node">
<title>Node21</title>
<g id="a_node21"><a xlink:href="mutex_8h.html" target="_top" xlink:title="信号量，互斥锁，读写锁，范围锁模板，自旋锁，原子锁">
<polygon fill="white" stroke="black" points="884.08,-56.5 884.08,-75.5 941.08,-75.5 941.08,-56.5 884.08,-56.5"/>
<text text-anchor="middle" x="912.58" y="-63.5" font-family="Helvetica,sans-Serif" font-size="10.00">mutex.h</text>
</a>
</g>
</g>
<!-- Node14&#45;&gt;Node21 -->
<g id="edge26" class="edge">
<title>Node14&#45;&gt;Node21</title>
<path fill="none" stroke="midnightblue" d="M629.79,-176.35C698.17,-174.31 854.74,-165.96 893.58,-132 906.69,-120.53 910.99,-100.55 912.28,-85.76"/>
<polygon fill="midnightblue" stroke="midnightblue" points="915.78,-85.85 912.78,-75.69 908.79,-85.51 915.78,-85.85"/>
</g>
<!-- Node14&#45;&gt;Node27 -->
<g id="edge36" class="edge">
<title>Node14&#45;&gt;Node27</title>
<path fill="none" stroke="midnightblue" d="M629.84,-171.34C674.61,-163.34 758.03,-147.93 828.58,-132 830.03,-131.67 831.51,-131.33 833.01,-130.97"/>
<polygon fill="midnightblue" stroke="midnightblue" points="834.03,-134.33 842.9,-128.53 832.35,-127.53 834.03,-134.33"/>
</g>
<!-- Node30 -->
<g id="node30" class="node">
<title>Node30</title>
<g id="a_node30"><a xlink:href="util_8h.html" target="_top" xlink:title="util函数">
<polygon fill="white" stroke="black" points="722.08,-56.5 722.08,-75.5 763.08,-75.5 763.08,-56.5 722.08,-56.5"/>
<text text-anchor="middle" x="742.58" y="-63.5" font-family="Helvetica,sans-Serif" font-size="10.00">util.h</text>
</a>
</g>
</g>
<!-- Node14&#45;&gt;Node30 -->
<g id="edge57" class="edge">
<title>Node14&#45;&gt;Node30</title>
<path fill="none" stroke="midnightblue" d="M629.83,-172.55C671.97,-166 742.2,-152.3 757.58,-132 768.03,-118.2 761.16,-98.35 753.63,-84.22"/>
<polygon fill="midnightblue" stroke="midnightblue" points="756.6,-82.36 748.52,-75.5 750.56,-85.9 756.6,-82.36"/>
</g>
<!-- Node21&#45;&gt;Node6 -->
<g id="edge32" class="edge">
<title>Node21&#45;&gt;Node6</title>
<path fill="none" stroke="midnightblue" d="M883.86,-63C820.33,-58.29 662.98,-45.12 521.39,-19.91"/>
<polygon fill="midnightblue" stroke="midnightblue" points="521.69,-16.41 511.23,-18.08 520.45,-23.3 521.69,-16.41"/>
</g>
<!-- Node21&#45;&gt;Node12 -->
<g id="edge29" class="edge">
<title>Node21&#45;&gt;Node12</title>
<path fill="none" stroke="midnightblue" d="M941.19,-58.62C945.98,-57.66 950.91,-56.75 955.58,-56 1094.14,-33.78 1133.39,-44.1 1275.25,-20.04"/>
<polygon fill="midnightblue" stroke="midnightblue" points="1275.93,-23.48 1285.19,-18.33 1274.74,-16.58 1275.93,-23.48"/>
</g>
<!-- Node21&#45;&gt;Node16 -->
<g id="edge34" class="edge">
<title>Node21&#45;&gt;Node16</title>
<path fill="none" stroke="midnightblue" d="M941.09,-61.55C955.6,-59.82 973.52,-57.73 989.58,-56 1147.46,-38.95 1192.6,-55.04 1351.23,-19.78"/>
<polygon fill="midnightblue" stroke="midnightblue" points="1352.36,-23.11 1361.34,-17.5 1350.82,-16.28 1352.36,-23.11"/>
</g>
<!-- Node21&#45;&gt;Node20 -->
<g id="edge28" class="edge">
<title>Node21&#45;&gt;Node20</title>
<path fill="none" stroke="midnightblue" d="M896.83,-56.32C881.26,-47.74 857.2,-34.49 839.12,-24.52"/>
<polygon fill="midnightblue" stroke="midnightblue" points="840.73,-21.42 830.28,-19.65 837.35,-27.55 840.73,-21.42"/>
</g>
<!-- Node22 -->
<g id="node22" class="node">
<title>Node22</title>
<g id="a_node22"><a xlink:title=" ">
<polygon fill="white" stroke="#bfbfbf" points="865.58,-0.5 865.58,-19.5 913.58,-19.5 913.58,-0.5 865.58,-0.5"/>
<text text-anchor="middle" x="889.58" y="-7.5" font-family="Helvetica,sans-Serif" font-size="10.00">thread</text>
</a>
</g>
</g>
<!-- Node21&#45;&gt;Node22 -->
<g id="edge27" class="edge">
<title>Node21&#45;&gt;Node22</title>
<path fill="none" stroke="midnightblue" d="M908.78,-56.08C905.66,-48.77 901.15,-38.18 897.29,-29.1"/>
<polygon fill="midnightblue" stroke="midnightblue" points="900.44,-27.58 893.3,-19.75 894,-30.32 900.44,-27.58"/>
</g>
<!-- Node23 -->
<g id="node23" class="node">
<title>Node23</title>
<g id="a_node23"><a xlink:title=" ">
<polygon fill="white" stroke="#bfbfbf" points="932.08,-0.5 932.08,-19.5 995.08,-19.5 995.08,-0.5 932.08,-0.5"/>
<text text-anchor="middle" x="963.58" y="-7.5" font-family="Helvetica,sans-Serif" font-size="10.00">pthread.h</text>
</a>
</g>
</g>
<!-- Node21&#45;&gt;Node23 -->
<g id="edge30" class="edge">
<title>Node21&#45;&gt;Node23</title>
<path fill="none" stroke="midnightblue" d="M921,-56.08C928.42,-48.22 939.43,-36.57 948.39,-27.08"/>
<polygon fill="midnightblue" stroke="midnightblue" points="950.99,-29.42 955.31,-19.75 945.9,-24.62 950.99,-29.42"/>
</g>
<!-- Node24 -->
<g id="node24" class="node">
<title>Node24</title>
<g id="a_node24"><a xlink:title=" ">
<polygon fill="white" stroke="#bfbfbf" points="1013.58,-0.5 1013.58,-19.5 1093.58,-19.5 1093.58,-0.5 1013.58,-0.5"/>
<text text-anchor="middle" x="1053.58" y="-7.5" font-family="Helvetica,sans-Serif" font-size="10.00">semaphore.h</text>
</a>
</g>
</g>
<!-- Node21&#45;&gt;Node24 -->
<g id="edge31" class="edge">
<title>Node21&#45;&gt;Node24</title>
<path fill="none" stroke="midnightblue" d="M934.92,-56.44C958.33,-47.48 995.31,-33.31 1021.77,-23.18"/>
<polygon fill="midnightblue" stroke="midnightblue" points="1023.25,-26.36 1031.34,-19.52 1020.75,-19.82 1023.25,-26.36"/>
</g>
<!-- Node25 -->
<g id="node25" class="node">
<title>Node25</title>
<g id="a_node25"><a xlink:title=" ">
<polygon fill="white" stroke="#bfbfbf" points="1111.58,-0.5 1111.58,-19.5 1161.58,-19.5 1161.58,-0.5 1111.58,-0.5"/>
<text text-anchor="middle" x="1136.58" y="-7.5" font-family="Helvetica,sans-Serif" font-size="10.00">atomic</text>
</a>
</g>
</g>
<!-- Node21&#45;&gt;Node25 -->
<g id="edge33" class="edge">
<title>Node21&#45;&gt;Node25</title>
<path fill="none" stroke="midnightblue" d="M941.28,-58.45C976.64,-50.32 1038.8,-35.87 1101.31,-20.27"/>
<polygon fill="midnightblue" stroke="midnightblue" points="1102.49,-23.58 1111.34,-17.76 1100.79,-16.79 1102.49,-23.58"/>
</g>
<!-- Node26 -->
<g id="node26" class="node">
<title>Node26</title>
<g id="a_node26"><a xlink:href="noncopyable_8h.html" target="_top" xlink:title="不可拷贝对象封装">
<polygon fill="white" stroke="black" points="1179.58,-0.5 1179.58,-19.5 1267.58,-19.5 1267.58,-0.5 1179.58,-0.5"/>
<text text-anchor="middle" x="1223.58" y="-7.5" font-family="Helvetica,sans-Serif" font-size="10.00">noncopyable.h</text>
</a>
</g>
</g>
<!-- Node21&#45;&gt;Node26 -->
<g id="edge35" class="edge">
<title>Node21&#45;&gt;Node26</title>
<path fill="none" stroke="midnightblue" d="M941.23,-58.84C946.01,-57.85 950.93,-56.88 955.58,-56 1047.63,-38.67 1073.35,-36.26 1169.2,-20.22"/>
<polygon fill="midnightblue" stroke="midnightblue" points="1170.05,-23.63 1179.33,-18.52 1168.89,-16.73 1170.05,-23.63"/>
</g>
<!-- Node27&#45;&gt;Node7 -->
<g id="edge37" class="edge">
<title>Node27&#45;&gt;Node7</title>
<path fill="none" stroke="midnightblue" d="M843.04,-119.14C767.91,-112.24 510.58,-88 475.58,-76 459.35,-70.44 458.65,-61.99 442.58,-56 355.99,-23.75 325.74,-40.17 231.76,-20.01"/>
<polygon fill="midnightblue" stroke="midnightblue" points="232.37,-16.56 221.85,-17.8 230.85,-23.39 232.37,-16.56"/>
</g>
<!-- Node27&#45;&gt;Node8 -->
<g id="edge45" class="edge">
<title>Node27&#45;&gt;Node8</title>
<path fill="none" stroke="midnightblue" d="M842.95,-119.21C770.08,-112.8 525.02,-90.65 447.58,-76 446.3,-75.76 444.99,-75.49 443.68,-75.21"/>
<polygon fill="midnightblue" stroke="midnightblue" points="444.2,-71.73 433.65,-72.75 442.53,-78.53 444.2,-71.73"/>
</g>
<!-- Node27&#45;&gt;Node9 -->
<g id="edge42" class="edge">
<title>Node27&#45;&gt;Node9</title>
<path fill="none" stroke="midnightblue" d="M842.87,-119.14C778.17,-113.18 580.36,-93.93 518.58,-76 498.33,-70.12 495.6,-62.57 475.58,-56 401.48,-31.7 377.42,-38.11 297.37,-20.01"/>
<polygon fill="midnightblue" stroke="midnightblue" points="297.85,-16.53 287.32,-17.68 296.27,-23.35 297.85,-16.53"/>
</g>
<!-- Node27&#45;&gt;Node10 -->
<g id="edge39" class="edge">
<title>Node27&#45;&gt;Node10</title>
<path fill="none" stroke="midnightblue" d="M842.65,-116.06C813.11,-108.81 757.76,-94.14 712.58,-76 694.5,-68.74 692.09,-62.06 673.58,-56 580.33,-25.49 549.87,-38.51 449.68,-20.07"/>
<polygon fill="midnightblue" stroke="midnightblue" points="450.24,-16.61 439.77,-18.18 448.94,-23.49 450.24,-16.61"/>
</g>
<!-- Node27&#45;&gt;Node11 -->
<g id="edge40" class="edge">
<title>Node27&#45;&gt;Node11</title>
<path fill="none" stroke="midnightblue" d="M842.98,-119.23C761.73,-112.24 464.52,-86.46 388.08,-75.87"/>
<polygon fill="midnightblue" stroke="midnightblue" points="388.18,-72.34 377.77,-74.3 387.13,-79.26 388.18,-72.34"/>
</g>
<!-- Node27&#45;&gt;Node12 -->
<g id="edge38" class="edge">
<title>Node27&#45;&gt;Node12</title>
<path fill="none" stroke="midnightblue" d="M884.23,-118.55C923.13,-113.52 1009.55,-100.42 1078.58,-76 1096.94,-69.5 1099.27,-62.65 1117.58,-56 1182.76,-32.34 1204.16,-35.97 1275.6,-20.16"/>
<polygon fill="midnightblue" stroke="midnightblue" points="1276.56,-23.53 1285.54,-17.91 1275.01,-16.71 1276.56,-23.53"/>
</g>
<!-- Node27&#45;&gt;Node16 -->
<g id="edge44" class="edge">
<title>Node27&#45;&gt;Node16</title>
<path fill="none" stroke="midnightblue" d="M884.48,-121.51C944.66,-122.37 1122.91,-120.67 1261.58,-76 1297.88,-64.3 1335.65,-40.63 1357.86,-25.31"/>
<polygon fill="midnightblue" stroke="midnightblue" points="1359.95,-28.12 1366.11,-19.51 1355.92,-22.39 1359.95,-28.12"/>
</g>
<!-- Node27&#45;&gt;Node21 -->
<g id="edge54" class="edge">
<title>Node27&#45;&gt;Node21</title>
<path fill="none" stroke="midnightblue" d="M871.67,-112.08C878.73,-104.3 889.16,-92.8 897.73,-83.37"/>
<polygon fill="midnightblue" stroke="midnightblue" points="900.51,-85.51 904.64,-75.75 895.32,-80.8 900.51,-85.51"/>
</g>
<!-- Node28 -->
<g id="node28" class="node">
<title>Node28</title>
<g id="a_node28"><a xlink:title=" ">
<polygon fill="white" stroke="#bfbfbf" points="1126.08,-56.5 1126.08,-75.5 1181.08,-75.5 1181.08,-56.5 1126.08,-56.5"/>
<text text-anchor="middle" x="1153.58" y="-63.5" font-family="Helvetica,sans-Serif" font-size="10.00">fstream</text>
</a>
</g>
</g>
<!-- Node27&#45;&gt;Node28 -->
<g id="edge41" class="edge">
<title>Node27&#45;&gt;Node28</title>
<path fill="none" stroke="midnightblue" d="M884.19,-117.49C926.76,-110.18 1027.44,-92.64 1111.58,-76 1113.04,-75.71 1114.53,-75.41 1116.04,-75.11"/>
<polygon fill="midnightblue" stroke="midnightblue" points="1116.96,-78.49 1126.04,-73.03 1115.54,-71.63 1116.96,-78.49"/>
</g>
<!-- Node29 -->
<g id="node29" class="node">
<title>Node29</title>
<g id="a_node29"><a xlink:title=" ">
<polygon fill="white" stroke="#bfbfbf" points="1199.08,-56.5 1199.08,-75.5 1252.08,-75.5 1252.08,-56.5 1199.08,-56.5"/>
<text text-anchor="middle" x="1225.58" y="-63.5" font-family="Helvetica,sans-Serif" font-size="10.00">cstdarg</text>
</a>
</g>
</g>
<!-- Node27&#45;&gt;Node29 -->
<g id="edge43" class="edge">
<title>Node27&#45;&gt;Node29</title>
<path fill="none" stroke="midnightblue" d="M884.37,-118.98C934.91,-113.88 1068.3,-99.39 1188.77,-76.18"/>
<polygon fill="midnightblue" stroke="midnightblue" points="1189.75,-79.55 1198.9,-74.2 1188.41,-72.68 1189.75,-79.55"/>
</g>
<!-- Node27&#45;&gt;Node30 -->
<g id="edge46" class="edge">
<title>Node27&#45;&gt;Node30</title>
<path fill="none" stroke="midnightblue" d="M844.4,-112.44C824.67,-103.64 793.69,-89.81 771.08,-79.72"/>
<polygon fill="midnightblue" stroke="midnightblue" points="772.22,-76.4 761.66,-75.52 769.36,-82.79 772.22,-76.4"/>
</g>
<!-- Node34 -->
<g id="node34" class="node">
<title>Node34</title>
<g id="a_node34"><a xlink:href="singleton_8h.html" target="_top" xlink:title="单例模式封装">
<polygon fill="white" stroke="black" points="998.08,-56.5 998.08,-75.5 1069.08,-75.5 1069.08,-56.5 998.08,-56.5"/>
<text text-anchor="middle" x="1033.58" y="-63.5" font-family="Helvetica,sans-Serif" font-size="10.00">singleton.h</text>
</a>
</g>
</g>
<!-- Node27&#45;&gt;Node34 -->
<g id="edge55" class="edge">
<title>Node27&#45;&gt;Node34</title>
<path fill="none" stroke="midnightblue" d="M884.08,-114.49C911.97,-105.63 962.34,-89.63 996.84,-78.67"/>
<polygon fill="midnightblue" stroke="midnightblue" points="998.08,-81.95 1006.55,-75.58 995.96,-75.28 998.08,-81.95"/>
</g>
<!-- Node30&#45;&gt;Node6 -->
<g id="edge48" class="edge">
<title>Node30&#45;&gt;Node6</title>
<path fill="none" stroke="midnightblue" d="M721.9,-59.46C717.2,-58.26 712.23,-57.04 707.58,-56 628.06,-38.14 604.92,-38.24 521.23,-20.04"/>
<polygon fill="midnightblue" stroke="midnightblue" points="521.79,-16.58 511.27,-17.85 520.29,-23.41 521.79,-16.58"/>
</g>
<!-- Node30&#45;&gt;Node7 -->
<g id="edge51" class="edge">
<title>Node30&#45;&gt;Node7</title>
<path fill="none" stroke="midnightblue" d="M721.77,-62.02C708.1,-60.12 689.79,-57.72 673.58,-56 480.4,-35.56 426.63,-55.05 231.79,-19.86"/>
<polygon fill="midnightblue" stroke="midnightblue" points="232.27,-16.39 221.8,-18.03 231,-23.28 232.27,-16.39"/>
</g>
<!-- Node30&#45;&gt;Node9 -->
<g id="edge52" class="edge">
<title>Node30&#45;&gt;Node9</title>
<path fill="none" stroke="midnightblue" d="M722.07,-62.14C708.36,-60.27 689.9,-57.84 673.58,-56 509.59,-37.48 463.92,-49.75 297.36,-19.82"/>
<polygon fill="midnightblue" stroke="midnightblue" points="297.72,-16.33 287.26,-17.98 296.47,-23.21 297.72,-16.33"/>
</g>
<!-- Node30&#45;&gt;Node10 -->
<g id="edge53" class="edge">
<title>Node30&#45;&gt;Node10</title>
<path fill="none" stroke="midnightblue" d="M721.94,-59.28C717.24,-58.09 712.25,-56.92 707.58,-56 596.68,-34.11 564.61,-40.69 449.65,-20.05"/>
<polygon fill="midnightblue" stroke="midnightblue" points="450.22,-16.6 439.75,-18.24 448.96,-23.48 450.22,-16.6"/>
</g>
<!-- Node31 -->
<g id="node31" class="node">
<title>Node31</title>
<g id="a_node31"><a xlink:title=" ">
<polygon fill="white" stroke="#bfbfbf" points="529.58,-0.5 529.58,-19.5 601.58,-19.5 601.58,-0.5 529.58,-0.5"/>
<text text-anchor="middle" x="565.58" y="-7.5" font-family="Helvetica,sans-Serif" font-size="10.00">sys/types.h</text>
</a>
</g>
</g>
<!-- Node30&#45;&gt;Node31 -->
<g id="edge47" class="edge">
<title>Node30&#45;&gt;Node31</title>
<path fill="none" stroke="midnightblue" d="M721.93,-58.7C692.92,-49.85 639.61,-33.59 603.38,-22.53"/>
<polygon fill="midnightblue" stroke="midnightblue" points="604.24,-19.14 593.66,-19.57 602.2,-25.83 604.24,-19.14"/>
</g>
<!-- Node32 -->
<g id="node32" class="node">
<title>Node32</title>
<g id="a_node32"><a xlink:title=" ">
<polygon fill="white" stroke="#bfbfbf" points="619.58,-0.5 619.58,-19.5 687.58,-19.5 687.58,-0.5 619.58,-0.5"/>
<text text-anchor="middle" x="653.58" y="-7.5" font-family="Helvetica,sans-Serif" font-size="10.00">sys/time.h</text>
</a>
</g>
</g>
<!-- Node30&#45;&gt;Node32 -->
<g id="edge49" class="edge">
<title>Node30&#45;&gt;Node32</title>
<path fill="none" stroke="midnightblue" d="M728.28,-56.32C714.39,-47.9 693.08,-34.97 676.77,-25.07"/>
<polygon fill="midnightblue" stroke="midnightblue" points="678.21,-21.85 667.84,-19.65 674.57,-27.83 678.21,-21.85"/>
</g>
<!-- Node33 -->
<g id="node33" class="node">
<title>Node33</title>
<g id="a_node33"><a xlink:title=" ">
<polygon fill="white" stroke="#bfbfbf" points="705.58,-0.5 705.58,-19.5 763.58,-19.5 763.58,-0.5 705.58,-0.5"/>
<text text-anchor="middle" x="734.58" y="-7.5" font-family="Helvetica,sans-Serif" font-size="10.00">cxxabi.h</text>
</a>
</g>
</g>
<!-- Node30&#45;&gt;Node33 -->
<g id="edge50" class="edge">
<title>Node30&#45;&gt;Node33</title>
<path fill="none" stroke="midnightblue" d="M741.26,-56.08C740.2,-48.93 738.67,-38.64 737.35,-29.69"/>
<polygon fill="midnightblue" stroke="midnightblue" points="740.8,-29.13 735.87,-19.75 733.88,-30.16 740.8,-29.13"/>
</g>
<!-- Node34&#45;&gt;Node12 -->
<g id="edge56" class="edge">
<title>Node34&#45;&gt;Node12</title>
<path fill="none" stroke="midnightblue" d="M1069.23,-58.5C1126.17,-48.1 1234.66,-28.23 1275.55,-20.08"/>
<polygon fill="midnightblue" stroke="midnightblue" points="1276.47,-23.46 1285.56,-18.03 1275.06,-16.6 1276.47,-23.46"/>
</g>
</g>
</svg>
