<?xml version="1.0" encoding="UTF-8" standalone="no"?>
<!DOCTYPE svg PUBLIC "-//W3C//DTD SVG 1.1//EN"
 "http://www.w3.org/Graphics/SVG/1.1/DTD/svg11.dtd">
<!-- Generated by graphviz version 2.43.0 (0)
 -->
<!-- Title: sylar/http/http_session.h Pages: 1 -->
<svg width="2097pt" height="420pt"
 viewBox="0.00 0.00 2097.17 420.00" xmlns="http://www.w3.org/2000/svg" xmlns:xlink="http://www.w3.org/1999/xlink">
<g id="graph0" class="graph" transform="scale(1 1) rotate(0) translate(4 416)">
<title>sylar/http/http_session.h</title>
<polygon fill="white" stroke="transparent" points="-4,4 -4,-416 2093.17,-416 2093.17,4 -4,4"/>
<!-- Node1 -->
<g id="node1" class="node">
<title>Node1</title>
<g id="a_node1"><a xlink:title="HTTPSession封装">
<polygon fill="#bfbfbf" stroke="black" points="738,-392.5 738,-411.5 875,-411.5 875,-392.5 738,-392.5"/>
<text text-anchor="middle" x="806.5" y="-399.5" font-family="Helvetica,sans-Serif" font-size="10.00">sylar/http/http_session.h</text>
</a>
</g>
</g>
<!-- Node2 -->
<g id="node2" class="node">
<title>Node2</title>
<g id="a_node2"><a xlink:href="socket__stream_8h.html" target="_top" xlink:title="Socket流式接口封装">
<polygon fill="white" stroke="black" points="611,-336.5 611,-355.5 760,-355.5 760,-336.5 611,-336.5"/>
<text text-anchor="middle" x="685.5" y="-343.5" font-family="Helvetica,sans-Serif" font-size="10.00">../streams/socket_stream.h</text>
</a>
</g>
</g>
<!-- Node1&#45;&gt;Node2 -->
<g id="edge1" class="edge">
<title>Node1&#45;&gt;Node2</title>
<path fill="none" stroke="midnightblue" d="M787.33,-392.44C767.59,-383.64 736.61,-369.81 714.01,-359.72"/>
<polygon fill="midnightblue" stroke="midnightblue" points="715.14,-356.4 704.58,-355.52 712.29,-362.79 715.14,-356.4"/>
</g>
<!-- Node42 -->
<g id="node42" class="node">
<title>Node42</title>
<g id="a_node42"><a xlink:href="http_8h.html" target="_top" xlink:title="HTTP定义结构体封装">
<polygon fill="white" stroke="black" points="1581,-112.5 1581,-131.5 1626,-131.5 1626,-112.5 1581,-112.5"/>
<text text-anchor="middle" x="1603.5" y="-119.5" font-family="Helvetica,sans-Serif" font-size="10.00">http.h</text>
</a>
</g>
</g>
<!-- Node1&#45;&gt;Node42 -->
<g id="edge78" class="edge">
<title>Node1&#45;&gt;Node42</title>
<path fill="none" stroke="midnightblue" d="M875.26,-395.84C1035.74,-382.87 1421.5,-345.98 1421.5,-291 1421.5,-291 1421.5,-291 1421.5,-233 1421.5,-164.09 1518.24,-137.19 1570.66,-127.67"/>
<polygon fill="midnightblue" stroke="midnightblue" points="1571.55,-131.07 1580.82,-125.95 1570.37,-124.17 1571.55,-131.07"/>
</g>
<!-- Node3 -->
<g id="node3" class="node">
<title>Node3</title>
<g id="a_node3"><a xlink:href="stream_8h.html" target="_top" xlink:title="流接口">
<polygon fill="white" stroke="black" points="651,-112.5 651,-131.5 720,-131.5 720,-112.5 651,-112.5"/>
<text text-anchor="middle" x="685.5" y="-119.5" font-family="Helvetica,sans-Serif" font-size="10.00">../stream.h</text>
</a>
</g>
</g>
<!-- Node2&#45;&gt;Node3 -->
<g id="edge2" class="edge">
<title>Node2&#45;&gt;Node3</title>
<path fill="none" stroke="midnightblue" d="M685.5,-336.3C685.5,-303.63 685.5,-187.87 685.5,-141.96"/>
<polygon fill="midnightblue" stroke="midnightblue" points="689,-141.88 685.5,-131.88 682,-141.88 689,-141.88"/>
</g>
<!-- Node11 -->
<g id="node11" class="node">
<title>Node11</title>
<g id="a_node11"><a xlink:href="socket_8h.html" target="_top" xlink:title="Socket封装">
<polygon fill="white" stroke="black" points="1427.5,-112.5 1427.5,-131.5 1493.5,-131.5 1493.5,-112.5 1427.5,-112.5"/>
<text text-anchor="middle" x="1460.5" y="-119.5" font-family="Helvetica,sans-Serif" font-size="10.00">../socket.h</text>
</a>
</g>
</g>
<!-- Node2&#45;&gt;Node11 -->
<g id="edge11" class="edge">
<title>Node2&#45;&gt;Node11</title>
<path fill="none" stroke="midnightblue" d="M715.41,-336.43C835.77,-301.96 1284.8,-173.33 1421.05,-134.3"/>
<polygon fill="midnightblue" stroke="midnightblue" points="1422.03,-137.66 1430.68,-131.54 1420.11,-130.93 1422.03,-137.66"/>
</g>
<!-- Node20 -->
<g id="node20" class="node">
<title>Node20</title>
<g id="a_node20"><a xlink:href="mutex_8h.html" target="_top" xlink:title="信号量，互斥锁，读写锁，范围锁模板，自旋锁，原子锁">
<polygon fill="white" stroke="black" points="234.5,-56.5 234.5,-75.5 300.5,-75.5 300.5,-56.5 234.5,-56.5"/>
<text text-anchor="middle" x="267.5" y="-63.5" font-family="Helvetica,sans-Serif" font-size="10.00">../mutex.h</text>
</a>
</g>
</g>
<!-- Node2&#45;&gt;Node20 -->
<g id="edge28" class="edge">
<title>Node2&#45;&gt;Node20</title>
<path fill="none" stroke="midnightblue" d="M610.87,-343.25C475.77,-338.05 204.5,-317.34 204.5,-235 204.5,-235 204.5,-235 204.5,-177 204.5,-139.48 232.45,-103.14 251.11,-83.05"/>
<polygon fill="midnightblue" stroke="midnightblue" points="253.77,-85.34 258.2,-75.72 248.74,-80.48 253.77,-85.34"/>
</g>
<!-- Node27 -->
<g id="node27" class="node">
<title>Node27</title>
<g id="a_node27"><a xlink:href="iomanager_8h.html" target="_top" xlink:title="IO协程调度器">
<polygon fill="white" stroke="black" points="456.5,-280.5 456.5,-299.5 542.5,-299.5 542.5,-280.5 456.5,-280.5"/>
<text text-anchor="middle" x="499.5" y="-287.5" font-family="Helvetica,sans-Serif" font-size="10.00">../iomanager.h</text>
</a>
</g>
</g>
<!-- Node2&#45;&gt;Node27 -->
<g id="edge38" class="edge">
<title>Node2&#45;&gt;Node27</title>
<path fill="none" stroke="midnightblue" d="M656.03,-336.44C624.33,-327.24 573.77,-312.56 538.73,-302.39"/>
<polygon fill="midnightblue" stroke="midnightblue" points="539.41,-298.94 528.83,-299.52 537.46,-305.67 539.41,-298.94"/>
</g>
<!-- Node4 -->
<g id="node4" class="node">
<title>Node4</title>
<g id="a_node4"><a xlink:title=" ">
<polygon fill="white" stroke="#bfbfbf" points="565.5,-0.5 565.5,-19.5 623.5,-19.5 623.5,-0.5 565.5,-0.5"/>
<text text-anchor="middle" x="594.5" y="-7.5" font-family="Helvetica,sans-Serif" font-size="10.00">memory</text>
</a>
</g>
</g>
<!-- Node3&#45;&gt;Node4 -->
<g id="edge3" class="edge">
<title>Node3&#45;&gt;Node4</title>
<path fill="none" stroke="midnightblue" d="M650.8,-116.16C626.61,-110.79 596,-99.51 580.5,-76 571.19,-61.89 577.12,-42.65 583.89,-28.77"/>
<polygon fill="midnightblue" stroke="midnightblue" points="587.09,-30.22 588.77,-19.76 580.93,-26.89 587.09,-30.22"/>
</g>
<!-- Node5 -->
<g id="node5" class="node">
<title>Node5</title>
<g id="a_node5"><a xlink:href="bytearray_8h.html" target="_top" xlink:title="二进制数组(序列化/反序列化)">
<polygon fill="white" stroke="black" points="1085,-56.5 1085,-75.5 1156,-75.5 1156,-56.5 1085,-56.5"/>
<text text-anchor="middle" x="1120.5" y="-63.5" font-family="Helvetica,sans-Serif" font-size="10.00">bytearray.h</text>
</a>
</g>
</g>
<!-- Node3&#45;&gt;Node5 -->
<g id="edge4" class="edge">
<title>Node3&#45;&gt;Node5</title>
<path fill="none" stroke="midnightblue" d="M720.36,-116.67C798.44,-106.98 987.32,-83.53 1074.72,-72.68"/>
<polygon fill="midnightblue" stroke="midnightblue" points="1075.37,-76.13 1084.86,-71.42 1074.51,-69.18 1075.37,-76.13"/>
</g>
<!-- Node5&#45;&gt;Node4 -->
<g id="edge5" class="edge">
<title>Node5&#45;&gt;Node4</title>
<path fill="none" stroke="midnightblue" d="M1084.76,-61.33C989.94,-51.6 732.53,-25.17 633.79,-15.03"/>
<polygon fill="midnightblue" stroke="midnightblue" points="633.95,-11.53 623.64,-13.99 633.23,-18.49 633.95,-11.53"/>
</g>
<!-- Node6 -->
<g id="node6" class="node">
<title>Node6</title>
<g id="a_node6"><a xlink:title=" ">
<polygon fill="white" stroke="#bfbfbf" points="953.5,-0.5 953.5,-19.5 997.5,-19.5 997.5,-0.5 953.5,-0.5"/>
<text text-anchor="middle" x="975.5" y="-7.5" font-family="Helvetica,sans-Serif" font-size="10.00">string</text>
</a>
</g>
</g>
<!-- Node5&#45;&gt;Node6 -->
<g id="edge6" class="edge">
<title>Node5&#45;&gt;Node6</title>
<path fill="none" stroke="midnightblue" d="M1097.52,-56.44C1073.2,-47.39 1034.63,-33.02 1007.37,-22.87"/>
<polygon fill="midnightblue" stroke="midnightblue" points="1008.48,-19.55 997.89,-19.34 1006.04,-26.11 1008.48,-19.55"/>
</g>
<!-- Node7 -->
<g id="node7" class="node">
<title>Node7</title>
<g id="a_node7"><a xlink:title=" ">
<polygon fill="white" stroke="#bfbfbf" points="1016,-0.5 1016,-19.5 1069,-19.5 1069,-0.5 1016,-0.5"/>
<text text-anchor="middle" x="1042.5" y="-7.5" font-family="Helvetica,sans-Serif" font-size="10.00">stdint.h</text>
</a>
</g>
</g>
<!-- Node5&#45;&gt;Node7 -->
<g id="edge7" class="edge">
<title>Node5&#45;&gt;Node7</title>
<path fill="none" stroke="midnightblue" d="M1107.97,-56.32C1095.91,-47.98 1077.47,-35.21 1063.23,-25.35"/>
<polygon fill="midnightblue" stroke="midnightblue" points="1065.22,-22.47 1055,-19.65 1061.23,-28.22 1065.22,-22.47"/>
</g>
<!-- Node8 -->
<g id="node8" class="node">
<title>Node8</title>
<g id="a_node8"><a xlink:title=" ">
<polygon fill="white" stroke="#bfbfbf" points="1249.5,-0.5 1249.5,-19.5 1321.5,-19.5 1321.5,-0.5 1249.5,-0.5"/>
<text text-anchor="middle" x="1285.5" y="-7.5" font-family="Helvetica,sans-Serif" font-size="10.00">sys/types.h</text>
</a>
</g>
</g>
<!-- Node5&#45;&gt;Node8 -->
<g id="edge8" class="edge">
<title>Node5&#45;&gt;Node8</title>
<path fill="none" stroke="midnightblue" d="M1146.64,-56.44C1174.52,-47.32 1218.85,-32.81 1249.9,-22.65"/>
<polygon fill="midnightblue" stroke="midnightblue" points="1251.06,-25.95 1259.48,-19.52 1248.88,-19.3 1251.06,-25.95"/>
</g>
<!-- Node9 -->
<g id="node9" class="node">
<title>Node9</title>
<g id="a_node9"><a xlink:title=" ">
<polygon fill="white" stroke="#bfbfbf" points="1405,-0.5 1405,-19.5 1482,-19.5 1482,-0.5 1405,-0.5"/>
<text text-anchor="middle" x="1443.5" y="-7.5" font-family="Helvetica,sans-Serif" font-size="10.00">sys/socket.h</text>
</a>
</g>
</g>
<!-- Node5&#45;&gt;Node9 -->
<g id="edge9" class="edge">
<title>Node5&#45;&gt;Node9</title>
<path fill="none" stroke="midnightblue" d="M1156.01,-57.58C1158.88,-57.03 1161.74,-56.5 1164.5,-56 1264.09,-38.1 1292.01,-37.82 1394.93,-20.22"/>
<polygon fill="midnightblue" stroke="midnightblue" points="1395.53,-23.67 1404.79,-18.52 1394.34,-16.77 1395.53,-23.67"/>
</g>
<!-- Node10 -->
<g id="node10" class="node">
<title>Node10</title>
<g id="a_node10"><a xlink:title=" ">
<polygon fill="white" stroke="#bfbfbf" points="1340,-0.5 1340,-19.5 1387,-19.5 1387,-0.5 1340,-0.5"/>
<text text-anchor="middle" x="1363.5" y="-7.5" font-family="Helvetica,sans-Serif" font-size="10.00">vector</text>
</a>
</g>
</g>
<!-- Node5&#45;&gt;Node10 -->
<g id="edge10" class="edge">
<title>Node5&#45;&gt;Node10</title>
<path fill="none" stroke="midnightblue" d="M1156.41,-57.55C1203.64,-47.72 1285.01,-30.64 1329.94,-20.01"/>
<polygon fill="midnightblue" stroke="midnightblue" points="1330.84,-23.39 1339.75,-17.65 1329.21,-16.58 1330.84,-23.39"/>
</g>
<!-- Node11&#45;&gt;Node4 -->
<g id="edge12" class="edge">
<title>Node11&#45;&gt;Node4</title>
<path fill="none" stroke="midnightblue" d="M1427.31,-121.06C1351.28,-120.48 1159.18,-114.93 1004.5,-76 982.09,-70.36 978.84,-61.92 956.5,-56 841.74,-25.57 700.93,-15.57 633.76,-12.4"/>
<polygon fill="midnightblue" stroke="midnightblue" points="633.78,-8.9 623.63,-11.95 633.46,-15.9 633.78,-8.9"/>
</g>
<!-- Node11&#45;&gt;Node8 -->
<g id="edge14" class="edge">
<title>Node11&#45;&gt;Node8</title>
<path fill="none" stroke="midnightblue" d="M1474.91,-112.38C1494.26,-99.74 1524.49,-75.54 1508.5,-56 1507.79,-55.14 1396.82,-33.04 1331.71,-20.14"/>
<polygon fill="midnightblue" stroke="midnightblue" points="1332.17,-16.66 1321.68,-18.15 1330.81,-23.53 1332.17,-16.66"/>
</g>
<!-- Node11&#45;&gt;Node9 -->
<g id="edge15" class="edge">
<title>Node11&#45;&gt;Node9</title>
<path fill="none" stroke="midnightblue" d="M1487.91,-112.47C1517.38,-101.76 1557.95,-81.65 1541.5,-56 1530.4,-38.69 1510.78,-27.95 1492,-21.33"/>
<polygon fill="midnightblue" stroke="midnightblue" points="1492.89,-17.94 1482.3,-18.23 1490.76,-24.6 1492.89,-17.94"/>
</g>
<!-- Node12 -->
<g id="node12" class="node">
<title>Node12</title>
<g id="a_node12"><a xlink:title=" ">
<polygon fill="white" stroke="#bfbfbf" points="1421.5,-56.5 1421.5,-75.5 1499.5,-75.5 1499.5,-56.5 1421.5,-56.5"/>
<text text-anchor="middle" x="1460.5" y="-63.5" font-family="Helvetica,sans-Serif" font-size="10.00">netinet/tcp.h</text>
</a>
</g>
</g>
<!-- Node11&#45;&gt;Node12 -->
<g id="edge13" class="edge">
<title>Node11&#45;&gt;Node12</title>
<path fill="none" stroke="midnightblue" d="M1460.5,-112.08C1460.5,-105.01 1460.5,-94.86 1460.5,-85.99"/>
<polygon fill="midnightblue" stroke="midnightblue" points="1464,-85.75 1460.5,-75.75 1457,-85.75 1464,-85.75"/>
</g>
<!-- Node13 -->
<g id="node13" class="node">
<title>Node13</title>
<g id="a_node13"><a xlink:href="address_8h.html" target="_top" xlink:title="网络地址的封装(IPv4,IPv6,Unix)">
<polygon fill="white" stroke="black" points="1631.5,-56.5 1631.5,-75.5 1695.5,-75.5 1695.5,-56.5 1631.5,-56.5"/>
<text text-anchor="middle" x="1663.5" y="-63.5" font-family="Helvetica,sans-Serif" font-size="10.00">address.h</text>
</a>
</g>
</g>
<!-- Node11&#45;&gt;Node13 -->
<g id="edge16" class="edge">
<title>Node11&#45;&gt;Node13</title>
<path fill="none" stroke="midnightblue" d="M1492.67,-112.44C1527.56,-103.16 1583.39,-88.31 1621.67,-78.13"/>
<polygon fill="midnightblue" stroke="midnightblue" points="1622.72,-81.47 1631.48,-75.52 1620.92,-74.7 1622.72,-81.47"/>
</g>
<!-- Node19 -->
<g id="node19" class="node">
<title>Node19</title>
<g id="a_node19"><a xlink:href="noncopyable_8h.html" target="_top" xlink:title="不可拷贝对象封装">
<polygon fill="white" stroke="black" points="455.5,-0.5 455.5,-19.5 543.5,-19.5 543.5,-0.5 455.5,-0.5"/>
<text text-anchor="middle" x="499.5" y="-7.5" font-family="Helvetica,sans-Serif" font-size="10.00">noncopyable.h</text>
</a>
</g>
</g>
<!-- Node11&#45;&gt;Node19 -->
<g id="edge27" class="edge">
<title>Node11&#45;&gt;Node19</title>
<path fill="none" stroke="midnightblue" d="M1427.36,-119.09C1346.59,-114.19 1133.22,-99.9 956.5,-76 907.26,-69.34 895.62,-63.51 846.5,-56 718.11,-36.38 685.11,-38.13 556.5,-20 555.59,-19.87 554.67,-19.74 553.74,-19.61"/>
<polygon fill="midnightblue" stroke="midnightblue" points="554.07,-16.12 543.67,-18.12 553.05,-23.04 554.07,-16.12"/>
</g>
<!-- Node13&#45;&gt;Node4 -->
<g id="edge17" class="edge">
<title>Node13&#45;&gt;Node4</title>
<path fill="none" stroke="midnightblue" d="M1631.44,-63.06C1600.1,-61.18 1551.03,-58.28 1508.5,-56 1169.8,-37.83 760.33,-18.67 633.71,-12.81"/>
<polygon fill="midnightblue" stroke="midnightblue" points="633.86,-9.31 623.71,-12.34 633.53,-16.3 633.86,-9.31"/>
</g>
<!-- Node13&#45;&gt;Node6 -->
<g id="edge18" class="edge">
<title>Node13&#45;&gt;Node6</title>
<path fill="none" stroke="midnightblue" d="M1631.33,-62.99C1510.57,-55.42 1087.52,-28.67 1007.95,-19.48"/>
<polygon fill="midnightblue" stroke="midnightblue" points="1008.1,-15.97 997.72,-18.07 1007.14,-22.9 1008.1,-15.97"/>
</g>
<!-- Node13&#45;&gt;Node8 -->
<g id="edge19" class="edge">
<title>Node13&#45;&gt;Node8</title>
<path fill="none" stroke="midnightblue" d="M1631.36,-61.28C1571.97,-54.26 1441.11,-38.13 1331.5,-20 1331.4,-19.98 1331.3,-19.97 1331.2,-19.95"/>
<polygon fill="midnightblue" stroke="midnightblue" points="1332.08,-16.55 1321.62,-18.27 1330.87,-23.45 1332.08,-16.55"/>
</g>
<!-- Node13&#45;&gt;Node9 -->
<g id="edge20" class="edge">
<title>Node13&#45;&gt;Node9</title>
<path fill="none" stroke="midnightblue" d="M1631.04,-57.03C1593.19,-47.74 1530.44,-32.34 1488.05,-21.94"/>
<polygon fill="midnightblue" stroke="midnightblue" points="1488.82,-18.52 1478.28,-19.54 1487.15,-25.32 1488.82,-18.52"/>
</g>
<!-- Node13&#45;&gt;Node10 -->
<g id="edge25" class="edge">
<title>Node13&#45;&gt;Node10</title>
<path fill="none" stroke="midnightblue" d="M1631.35,-58.58C1626.71,-57.69 1621.99,-56.8 1617.5,-56 1522.7,-39.01 1495.49,-40.97 1397.27,-19.96"/>
<polygon fill="midnightblue" stroke="midnightblue" points="1397.73,-16.48 1387.22,-17.79 1396.25,-23.33 1397.73,-16.48"/>
</g>
<!-- Node14 -->
<g id="node14" class="node">
<title>Node14</title>
<g id="a_node14"><a xlink:title=" ">
<polygon fill="white" stroke="#bfbfbf" points="1653,-0.5 1653,-19.5 1710,-19.5 1710,-0.5 1653,-0.5"/>
<text text-anchor="middle" x="1681.5" y="-7.5" font-family="Helvetica,sans-Serif" font-size="10.00">sys/un.h</text>
</a>
</g>
</g>
<!-- Node13&#45;&gt;Node14 -->
<g id="edge21" class="edge">
<title>Node13&#45;&gt;Node14</title>
<path fill="none" stroke="midnightblue" d="M1666.47,-56.08C1668.88,-48.85 1672.36,-38.41 1675.37,-29.4"/>
<polygon fill="midnightblue" stroke="midnightblue" points="1678.74,-30.34 1678.58,-19.75 1672.1,-28.13 1678.74,-30.34"/>
</g>
<!-- Node15 -->
<g id="node15" class="node">
<title>Node15</title>
<g id="a_node15"><a xlink:title=" ">
<polygon fill="white" stroke="#bfbfbf" points="1728,-0.5 1728,-19.5 1797,-19.5 1797,-0.5 1728,-0.5"/>
<text text-anchor="middle" x="1762.5" y="-7.5" font-family="Helvetica,sans-Serif" font-size="10.00">arpa/inet.h</text>
</a>
</g>
</g>
<!-- Node13&#45;&gt;Node15 -->
<g id="edge22" class="edge">
<title>Node13&#45;&gt;Node15</title>
<path fill="none" stroke="midnightblue" d="M1679.41,-56.32C1695.14,-47.74 1719.44,-34.49 1737.71,-24.52"/>
<polygon fill="midnightblue" stroke="midnightblue" points="1739.53,-27.52 1746.63,-19.65 1736.18,-21.37 1739.53,-27.52"/>
</g>
<!-- Node16 -->
<g id="node16" class="node">
<title>Node16</title>
<g id="a_node16"><a xlink:title=" ">
<polygon fill="white" stroke="#bfbfbf" points="1578.5,-0.5 1578.5,-19.5 1634.5,-19.5 1634.5,-0.5 1578.5,-0.5"/>
<text text-anchor="middle" x="1606.5" y="-7.5" font-family="Helvetica,sans-Serif" font-size="10.00">unistd.h</text>
</a>
</g>
</g>
<!-- Node13&#45;&gt;Node16 -->
<g id="edge23" class="edge">
<title>Node13&#45;&gt;Node16</title>
<path fill="none" stroke="midnightblue" d="M1654.34,-56.32C1646,-48.42 1633.47,-36.55 1623.32,-26.94"/>
<polygon fill="midnightblue" stroke="midnightblue" points="1625.49,-24.17 1615.82,-19.83 1620.68,-29.25 1625.49,-24.17"/>
</g>
<!-- Node17 -->
<g id="node17" class="node">
<title>Node17</title>
<g id="a_node17"><a xlink:title=" ">
<polygon fill="white" stroke="#bfbfbf" points="1500.5,-0.5 1500.5,-19.5 1560.5,-19.5 1560.5,-0.5 1500.5,-0.5"/>
<text text-anchor="middle" x="1530.5" y="-7.5" font-family="Helvetica,sans-Serif" font-size="10.00">iostream</text>
</a>
</g>
</g>
<!-- Node13&#45;&gt;Node17 -->
<g id="edge24" class="edge">
<title>Node13&#45;&gt;Node17</title>
<path fill="none" stroke="midnightblue" d="M1642.43,-56.44C1620.44,-47.52 1585.77,-33.44 1560.84,-23.32"/>
<polygon fill="midnightblue" stroke="midnightblue" points="1562.06,-20.04 1551.48,-19.52 1559.42,-26.52 1562.06,-20.04"/>
</g>
<!-- Node18 -->
<g id="node18" class="node">
<title>Node18</title>
<g id="a_node18"><a xlink:title=" ">
<polygon fill="white" stroke="#bfbfbf" points="1898.5,-0.5 1898.5,-19.5 1936.5,-19.5 1936.5,-0.5 1898.5,-0.5"/>
<text text-anchor="middle" x="1917.5" y="-7.5" font-family="Helvetica,sans-Serif" font-size="10.00">map</text>
</a>
</g>
</g>
<!-- Node13&#45;&gt;Node18 -->
<g id="edge26" class="edge">
<title>Node13&#45;&gt;Node18</title>
<path fill="none" stroke="midnightblue" d="M1695.56,-58.71C1737.97,-50.3 1815,-34.75 1880.5,-20 1883.13,-19.41 1885.86,-18.78 1888.59,-18.13"/>
<polygon fill="midnightblue" stroke="midnightblue" points="1889.42,-21.53 1898.33,-15.8 1887.78,-14.73 1889.42,-21.53"/>
</g>
<!-- Node20&#45;&gt;Node4 -->
<g id="edge31" class="edge">
<title>Node20&#45;&gt;Node4</title>
<path fill="none" stroke="midnightblue" d="M300.51,-60.38C353.71,-52.81 461.64,-36.9 552.5,-20 553.4,-19.83 554.31,-19.66 555.22,-19.49"/>
<polygon fill="midnightblue" stroke="midnightblue" points="556.05,-22.89 565.17,-17.5 554.68,-16.03 556.05,-22.89"/>
</g>
<!-- Node20&#45;&gt;Node7 -->
<g id="edge34" class="edge">
<title>Node20&#45;&gt;Node7</title>
<path fill="none" stroke="midnightblue" d="M300.63,-63.8C422.79,-59.23 848.55,-42.19 1005.9,-19.72"/>
<polygon fill="midnightblue" stroke="midnightblue" points="1006.5,-23.17 1015.88,-18.24 1005.47,-16.25 1006.5,-23.17"/>
</g>
<!-- Node20&#45;&gt;Node19 -->
<g id="edge37" class="edge">
<title>Node20&#45;&gt;Node19</title>
<path fill="none" stroke="midnightblue" d="M300.74,-57.26C340.69,-47.96 407.98,-32.3 453.05,-21.81"/>
<polygon fill="midnightblue" stroke="midnightblue" points="453.93,-25.2 462.88,-19.52 452.34,-18.38 453.93,-25.2"/>
</g>
<!-- Node21 -->
<g id="node21" class="node">
<title>Node21</title>
<g id="a_node21"><a xlink:title=" ">
<polygon fill="white" stroke="#bfbfbf" points="83.5,-0.5 83.5,-19.5 131.5,-19.5 131.5,-0.5 83.5,-0.5"/>
<text text-anchor="middle" x="107.5" y="-7.5" font-family="Helvetica,sans-Serif" font-size="10.00">thread</text>
</a>
</g>
</g>
<!-- Node20&#45;&gt;Node21 -->
<g id="edge29" class="edge">
<title>Node20&#45;&gt;Node21</title>
<path fill="none" stroke="midnightblue" d="M242.15,-56.44C214.91,-47.25 171.5,-32.6 141.36,-22.43"/>
<polygon fill="midnightblue" stroke="midnightblue" points="142.28,-19.04 131.69,-19.16 140.04,-25.68 142.28,-19.04"/>
</g>
<!-- Node22 -->
<g id="node22" class="node">
<title>Node22</title>
<g id="a_node22"><a xlink:title=" ">
<polygon fill="white" stroke="#bfbfbf" points="0,-0.5 0,-19.5 65,-19.5 65,-0.5 0,-0.5"/>
<text text-anchor="middle" x="32.5" y="-7.5" font-family="Helvetica,sans-Serif" font-size="10.00">functional</text>
</a>
</g>
</g>
<!-- Node20&#45;&gt;Node22 -->
<g id="edge30" class="edge">
<title>Node20&#45;&gt;Node22</title>
<path fill="none" stroke="midnightblue" d="M234.33,-57.38C192.57,-47.78 120.79,-31.29 75.03,-20.77"/>
<polygon fill="midnightblue" stroke="midnightblue" points="75.65,-17.33 65.12,-18.5 74.09,-24.15 75.65,-17.33"/>
</g>
<!-- Node23 -->
<g id="node23" class="node">
<title>Node23</title>
<g id="a_node23"><a xlink:title=" ">
<polygon fill="white" stroke="#bfbfbf" points="150,-0.5 150,-19.5 213,-19.5 213,-0.5 150,-0.5"/>
<text text-anchor="middle" x="181.5" y="-7.5" font-family="Helvetica,sans-Serif" font-size="10.00">pthread.h</text>
</a>
</g>
</g>
<!-- Node20&#45;&gt;Node23 -->
<g id="edge32" class="edge">
<title>Node20&#45;&gt;Node23</title>
<path fill="none" stroke="midnightblue" d="M253.68,-56.32C240.27,-47.9 219.68,-34.97 203.91,-25.07"/>
<polygon fill="midnightblue" stroke="midnightblue" points="205.61,-22.01 195.28,-19.65 201.89,-27.94 205.61,-22.01"/>
</g>
<!-- Node24 -->
<g id="node24" class="node">
<title>Node24</title>
<g id="a_node24"><a xlink:title=" ">
<polygon fill="white" stroke="#bfbfbf" points="231.5,-0.5 231.5,-19.5 311.5,-19.5 311.5,-0.5 231.5,-0.5"/>
<text text-anchor="middle" x="271.5" y="-7.5" font-family="Helvetica,sans-Serif" font-size="10.00">semaphore.h</text>
</a>
</g>
</g>
<!-- Node20&#45;&gt;Node24 -->
<g id="edge33" class="edge">
<title>Node20&#45;&gt;Node24</title>
<path fill="none" stroke="midnightblue" d="M268.16,-56.08C268.68,-49.01 269.44,-38.86 270.09,-29.99"/>
<polygon fill="midnightblue" stroke="midnightblue" points="273.6,-29.98 270.85,-19.75 266.62,-29.47 273.6,-29.98"/>
</g>
<!-- Node25 -->
<g id="node25" class="node">
<title>Node25</title>
<g id="a_node25"><a xlink:title=" ">
<polygon fill="white" stroke="#bfbfbf" points="329.5,-0.5 329.5,-19.5 379.5,-19.5 379.5,-0.5 329.5,-0.5"/>
<text text-anchor="middle" x="354.5" y="-7.5" font-family="Helvetica,sans-Serif" font-size="10.00">atomic</text>
</a>
</g>
</g>
<!-- Node20&#45;&gt;Node25 -->
<g id="edge35" class="edge">
<title>Node20&#45;&gt;Node25</title>
<path fill="none" stroke="midnightblue" d="M281.48,-56.32C295.05,-47.9 315.88,-34.97 331.82,-25.07"/>
<polygon fill="midnightblue" stroke="midnightblue" points="333.91,-27.9 340.56,-19.65 330.21,-21.95 333.91,-27.9"/>
</g>
<!-- Node26 -->
<g id="node26" class="node">
<title>Node26</title>
<g id="a_node26"><a xlink:title=" ">
<polygon fill="white" stroke="#bfbfbf" points="397.5,-0.5 397.5,-19.5 429.5,-19.5 429.5,-0.5 397.5,-0.5"/>
<text text-anchor="middle" x="413.5" y="-7.5" font-family="Helvetica,sans-Serif" font-size="10.00">list</text>
</a>
</g>
</g>
<!-- Node20&#45;&gt;Node26 -->
<g id="edge36" class="edge">
<title>Node20&#45;&gt;Node26</title>
<path fill="none" stroke="midnightblue" d="M290.63,-56.44C317.01,-46.69 360.04,-30.77 387.54,-20.6"/>
<polygon fill="midnightblue" stroke="midnightblue" points="389.09,-23.76 397.26,-17.01 386.66,-17.19 389.09,-23.76"/>
</g>
<!-- Node28 -->
<g id="node28" class="node">
<title>Node28</title>
<g id="a_node28"><a xlink:href="scheduler_8h.html" target="_top" xlink:title="协程调度器实现">
<polygon fill="white" stroke="black" points="463.5,-224.5 463.5,-243.5 535.5,-243.5 535.5,-224.5 463.5,-224.5"/>
<text text-anchor="middle" x="499.5" y="-231.5" font-family="Helvetica,sans-Serif" font-size="10.00">scheduler.h</text>
</a>
</g>
</g>
<!-- Node27&#45;&gt;Node28 -->
<g id="edge39" class="edge">
<title>Node27&#45;&gt;Node28</title>
<path fill="none" stroke="midnightblue" d="M499.5,-280.08C499.5,-273.01 499.5,-262.86 499.5,-253.99"/>
<polygon fill="midnightblue" stroke="midnightblue" points="503,-253.75 499.5,-243.75 496,-253.75 503,-253.75"/>
</g>
<!-- Node40 -->
<g id="node40" class="node">
<title>Node40</title>
<g id="a_node40"><a xlink:href="timer_8h.html" target="_top" xlink:title="定时器封装">
<polygon fill="white" stroke="black" points="239,-112.5 239,-131.5 290,-131.5 290,-112.5 239,-112.5"/>
<text text-anchor="middle" x="264.5" y="-119.5" font-family="Helvetica,sans-Serif" font-size="10.00">timer.h</text>
</a>
</g>
</g>
<!-- Node27&#45;&gt;Node40 -->
<g id="edge73" class="edge">
<title>Node27&#45;&gt;Node40</title>
<path fill="none" stroke="midnightblue" d="M472.78,-280.4C432.45,-266.35 355.34,-235.22 304.5,-188 290.13,-174.65 279,-155 272.17,-140.8"/>
<polygon fill="midnightblue" stroke="midnightblue" points="275.31,-139.24 267.97,-131.6 268.94,-142.15 275.31,-139.24"/>
</g>
<!-- Node28&#45;&gt;Node4 -->
<g id="edge42" class="edge">
<title>Node28&#45;&gt;Node4</title>
<path fill="none" stroke="midnightblue" d="M502.81,-224.44C512.79,-198.73 543.71,-119.96 572.5,-56 576.61,-46.87 581.48,-36.84 585.58,-28.58"/>
<polygon fill="midnightblue" stroke="midnightblue" points="588.76,-30.06 590.12,-19.55 582.5,-26.92 588.76,-30.06"/>
</g>
<!-- Node28&#45;&gt;Node6 -->
<g id="edge43" class="edge">
<title>Node28&#45;&gt;Node6</title>
<path fill="none" stroke="midnightblue" d="M535.68,-227.93C600.3,-217.68 738.26,-190.33 839.5,-132 889.94,-102.94 938.19,-53.07 961.3,-27.37"/>
<polygon fill="midnightblue" stroke="midnightblue" points="964.13,-29.45 968.14,-19.64 958.89,-24.81 964.13,-29.45"/>
</g>
<!-- Node28&#45;&gt;Node22 -->
<g id="edge40" class="edge">
<title>Node28&#45;&gt;Node22</title>
<path fill="none" stroke="midnightblue" d="M473.68,-224.46C446.32,-215.41 401.87,-200.7 363.5,-188 288.38,-163.13 264.66,-168.59 194.5,-132 136.68,-101.84 77.46,-51.73 49.33,-26.51"/>
<polygon fill="midnightblue" stroke="midnightblue" points="51.39,-23.65 41.63,-19.53 46.69,-28.84 51.39,-23.65"/>
</g>
<!-- Node28&#45;&gt;Node26 -->
<g id="edge41" class="edge">
<title>Node28&#45;&gt;Node26</title>
<path fill="none" stroke="midnightblue" d="M468.08,-224.5C428.57,-211.85 362.84,-183.81 337.5,-132 317.84,-91.81 363.6,-48.2 392.36,-25.93"/>
<polygon fill="midnightblue" stroke="midnightblue" points="394.74,-28.52 400.65,-19.73 390.54,-22.91 394.74,-28.52"/>
</g>
<!-- Node29 -->
<g id="node29" class="node">
<title>Node29</title>
<g id="a_node29"><a xlink:href="fiber_8h.html" target="_top" xlink:title="协程模块">
<polygon fill="white" stroke="black" points="419,-168.5 419,-187.5 466,-187.5 466,-168.5 419,-168.5"/>
<text text-anchor="middle" x="442.5" y="-175.5" font-family="Helvetica,sans-Serif" font-size="10.00">fiber.h</text>
</a>
</g>
</g>
<!-- Node28&#45;&gt;Node29 -->
<g id="edge44" class="edge">
<title>Node28&#45;&gt;Node29</title>
<path fill="none" stroke="midnightblue" d="M490.34,-224.32C482,-216.42 469.47,-204.55 459.32,-194.94"/>
<polygon fill="midnightblue" stroke="midnightblue" points="461.49,-192.17 451.82,-187.83 456.68,-197.25 461.49,-192.17"/>
</g>
<!-- Node31 -->
<g id="node31" class="node">
<title>Node31</title>
<g id="a_node31"><a xlink:href="thread_8h.html" target="_top" xlink:title="线程相关的封装">
<polygon fill="white" stroke="black" points="471,-112.5 471,-131.5 528,-131.5 528,-112.5 471,-112.5"/>
<text text-anchor="middle" x="499.5" y="-119.5" font-family="Helvetica,sans-Serif" font-size="10.00">thread.h</text>
</a>
</g>
</g>
<!-- Node28&#45;&gt;Node31 -->
<g id="edge72" class="edge">
<title>Node28&#45;&gt;Node31</title>
<path fill="none" stroke="midnightblue" d="M499.5,-224.37C499.5,-206.62 499.5,-165.67 499.5,-141.6"/>
<polygon fill="midnightblue" stroke="midnightblue" points="503,-141.59 499.5,-131.59 496,-141.59 503,-141.59"/>
</g>
<!-- Node32 -->
<g id="node32" class="node">
<title>Node32</title>
<g id="a_node32"><a xlink:href="log_8h.html" target="_top" xlink:title="日志模块">
<polygon fill="white" stroke="black" points="790,-112.5 790,-131.5 831,-131.5 831,-112.5 790,-112.5"/>
<text text-anchor="middle" x="810.5" y="-119.5" font-family="Helvetica,sans-Serif" font-size="10.00">log.h</text>
</a>
</g>
</g>
<!-- Node28&#45;&gt;Node32 -->
<g id="edge51" class="edge">
<title>Node28&#45;&gt;Node32</title>
<path fill="none" stroke="midnightblue" d="M523.64,-224.46C579.75,-204.62 718.81,-155.43 780.36,-133.66"/>
<polygon fill="midnightblue" stroke="midnightblue" points="781.63,-136.92 789.89,-130.29 779.3,-130.32 781.63,-136.92"/>
</g>
<!-- Node29&#45;&gt;Node4 -->
<g id="edge46" class="edge">
<title>Node29&#45;&gt;Node4</title>
<path fill="none" stroke="midnightblue" d="M441.55,-168.46C439.65,-146.81 437.74,-89.17 466.5,-56 478.39,-42.29 522.32,-28.78 555.43,-20.2"/>
<polygon fill="midnightblue" stroke="midnightblue" points="556.47,-23.55 565.31,-17.7 554.76,-16.76 556.47,-23.55"/>
</g>
<!-- Node29&#45;&gt;Node22 -->
<g id="edge45" class="edge">
<title>Node29&#45;&gt;Node22</title>
<path fill="none" stroke="midnightblue" d="M418.71,-175.49C378.13,-172.17 293.72,-161.95 229.5,-132 179.87,-108.85 179.37,-84.33 132.5,-56 110.94,-42.97 84.94,-31.38 64.86,-23.23"/>
<polygon fill="midnightblue" stroke="midnightblue" points="66.11,-19.96 55.53,-19.52 63.52,-26.47 66.11,-19.96"/>
</g>
<!-- Node30 -->
<g id="node30" class="node">
<title>Node30</title>
<g id="a_node30"><a xlink:title=" ">
<polygon fill="white" stroke="#bfbfbf" points="346.5,-112.5 346.5,-131.5 414.5,-131.5 414.5,-112.5 346.5,-112.5"/>
<text text-anchor="middle" x="380.5" y="-119.5" font-family="Helvetica,sans-Serif" font-size="10.00">ucontext.h</text>
</a>
</g>
</g>
<!-- Node29&#45;&gt;Node30 -->
<g id="edge47" class="edge">
<title>Node29&#45;&gt;Node30</title>
<path fill="none" stroke="midnightblue" d="M432.54,-168.32C423.37,-160.34 409.56,-148.31 398.47,-138.65"/>
<polygon fill="midnightblue" stroke="midnightblue" points="400.48,-135.76 390.64,-131.83 395.88,-141.04 400.48,-135.76"/>
</g>
<!-- Node29&#45;&gt;Node31 -->
<g id="edge48" class="edge">
<title>Node29&#45;&gt;Node31</title>
<path fill="none" stroke="midnightblue" d="M451.66,-168.32C460,-160.42 472.53,-148.55 482.68,-138.94"/>
<polygon fill="midnightblue" stroke="midnightblue" points="485.32,-141.25 490.18,-131.83 480.51,-136.17 485.32,-141.25"/>
</g>
<!-- Node31&#45;&gt;Node6 -->
<g id="edge49" class="edge">
<title>Node31&#45;&gt;Node6</title>
<path fill="none" stroke="midnightblue" d="M511.07,-112.31C530.88,-97.93 573.07,-69.44 613.5,-56 730.25,-17.19 878.26,-11.37 942.86,-10.82"/>
<polygon fill="midnightblue" stroke="midnightblue" points="943.23,-14.32 953.21,-10.77 943.2,-7.32 943.23,-14.32"/>
</g>
<!-- Node31&#45;&gt;Node20 -->
<g id="edge50" class="edge">
<title>Node31&#45;&gt;Node20</title>
<path fill="none" stroke="midnightblue" d="M470.59,-114.27C430.3,-104.89 356.99,-87.83 310.34,-76.97"/>
<polygon fill="midnightblue" stroke="midnightblue" points="311.06,-73.55 300.53,-74.69 309.47,-80.36 311.06,-73.55"/>
</g>
<!-- Node32&#45;&gt;Node4 -->
<g id="edge53" class="edge">
<title>Node32&#45;&gt;Node4</title>
<path fill="none" stroke="midnightblue" d="M789.67,-118.9C744.38,-113.92 638.97,-99.99 613.5,-76 600.94,-64.17 596.54,-44.54 595.07,-29.94"/>
<polygon fill="midnightblue" stroke="midnightblue" points="598.53,-29.32 594.41,-19.56 591.55,-29.76 598.53,-29.32"/>
</g>
<!-- Node32&#45;&gt;Node6 -->
<g id="edge52" class="edge">
<title>Node32&#45;&gt;Node6</title>
<path fill="none" stroke="midnightblue" d="M819.88,-112.35C834.36,-99.24 863.34,-73.97 890.5,-56 908.66,-43.98 930.37,-32.53 947.31,-24.19"/>
<polygon fill="midnightblue" stroke="midnightblue" points="949.19,-27.17 956.67,-19.65 946.14,-20.87 949.19,-27.17"/>
</g>
<!-- Node32&#45;&gt;Node10 -->
<g id="edge57" class="edge">
<title>Node32&#45;&gt;Node10</title>
<path fill="none" stroke="midnightblue" d="M831,-120.15C907.59,-116.79 1176.66,-103.26 1257.5,-76 1291,-64.7 1325.02,-41.26 1345.18,-25.83"/>
<polygon fill="midnightblue" stroke="midnightblue" points="1347.46,-28.5 1353.18,-19.58 1343.14,-22.98 1347.46,-28.5"/>
</g>
<!-- Node32&#45;&gt;Node17 -->
<g id="edge54" class="edge">
<title>Node32&#45;&gt;Node17</title>
<path fill="none" stroke="midnightblue" d="M831.04,-121.32C898.29,-121.89 1117.5,-120.02 1291.5,-76 1313.51,-70.43 1316.92,-63.06 1338.5,-56 1342.16,-54.8 1435.4,-33.09 1490.57,-20.27"/>
<polygon fill="midnightblue" stroke="midnightblue" points="1491.45,-23.66 1500.4,-17.98 1489.87,-16.84 1491.45,-23.66"/>
</g>
<!-- Node32&#45;&gt;Node18 -->
<g id="edge60" class="edge">
<title>Node32&#45;&gt;Node18</title>
<path fill="none" stroke="midnightblue" d="M831.31,-120.82C978.24,-119.49 1854.85,-110.15 1898.5,-76 1912.22,-65.26 1916.43,-45.17 1917.53,-30.15"/>
<polygon fill="midnightblue" stroke="midnightblue" points="1921.04,-30.01 1917.88,-19.9 1914.04,-29.78 1921.04,-30.01"/>
</g>
<!-- Node32&#45;&gt;Node20 -->
<g id="edge69" class="edge">
<title>Node32&#45;&gt;Node20</title>
<path fill="none" stroke="midnightblue" d="M789.95,-118.68C773.37,-116.82 749.44,-114.17 728.5,-112 575.05,-96.09 392.7,-78.75 310.94,-71.06"/>
<polygon fill="midnightblue" stroke="midnightblue" points="311.06,-67.56 300.78,-70.11 310.41,-74.53 311.06,-67.56"/>
</g>
<!-- Node32&#45;&gt;Node26 -->
<g id="edge59" class="edge">
<title>Node32&#45;&gt;Node26</title>
<path fill="none" stroke="midnightblue" d="M789.72,-117.55C751.36,-110.96 667,-95.53 597.5,-76 539.91,-59.82 474.23,-35.04 439.02,-21.22"/>
<polygon fill="midnightblue" stroke="midnightblue" points="440.1,-17.88 429.52,-17.46 437.53,-24.39 440.1,-17.88"/>
</g>
<!-- Node33 -->
<g id="node33" class="node">
<title>Node33</title>
<g id="a_node33"><a xlink:title=" ">
<polygon fill="white" stroke="#bfbfbf" points="1347.5,-56.5 1347.5,-75.5 1403.5,-75.5 1403.5,-56.5 1347.5,-56.5"/>
<text text-anchor="middle" x="1375.5" y="-63.5" font-family="Helvetica,sans-Serif" font-size="10.00">sstream</text>
</a>
</g>
</g>
<!-- Node32&#45;&gt;Node33 -->
<g id="edge55" class="edge">
<title>Node32&#45;&gt;Node33</title>
<path fill="none" stroke="midnightblue" d="M831.04,-120.16C901.43,-117.08 1139.27,-105.05 1333.5,-76 1334.74,-75.81 1336.01,-75.61 1337.28,-75.4"/>
<polygon fill="midnightblue" stroke="midnightblue" points="1337.92,-78.84 1347.12,-73.58 1336.65,-71.96 1337.92,-78.84"/>
</g>
<!-- Node34 -->
<g id="node34" class="node">
<title>Node34</title>
<g id="a_node34"><a xlink:title=" ">
<polygon fill="white" stroke="#bfbfbf" points="783,-56.5 783,-75.5 838,-75.5 838,-56.5 783,-56.5"/>
<text text-anchor="middle" x="810.5" y="-63.5" font-family="Helvetica,sans-Serif" font-size="10.00">fstream</text>
</a>
</g>
</g>
<!-- Node32&#45;&gt;Node34 -->
<g id="edge56" class="edge">
<title>Node32&#45;&gt;Node34</title>
<path fill="none" stroke="midnightblue" d="M810.5,-112.08C810.5,-105.01 810.5,-94.86 810.5,-85.99"/>
<polygon fill="midnightblue" stroke="midnightblue" points="814,-85.75 810.5,-75.75 807,-85.75 814,-85.75"/>
</g>
<!-- Node35 -->
<g id="node35" class="node">
<title>Node35</title>
<g id="a_node35"><a xlink:title=" ">
<polygon fill="white" stroke="#bfbfbf" points="712,-56.5 712,-75.5 765,-75.5 765,-56.5 712,-56.5"/>
<text text-anchor="middle" x="738.5" y="-63.5" font-family="Helvetica,sans-Serif" font-size="10.00">cstdarg</text>
</a>
</g>
</g>
<!-- Node32&#45;&gt;Node35 -->
<g id="edge58" class="edge">
<title>Node32&#45;&gt;Node35</title>
<path fill="none" stroke="midnightblue" d="M798.93,-112.32C788.08,-104.18 771.62,-91.84 758.62,-82.09"/>
<polygon fill="midnightblue" stroke="midnightblue" points="760.38,-79.03 750.28,-75.83 756.18,-84.63 760.38,-79.03"/>
</g>
<!-- Node36 -->
<g id="node36" class="node">
<title>Node36</title>
<g id="a_node36"><a xlink:href="util_8h.html" target="_top" xlink:title="util函数">
<polygon fill="white" stroke="black" points="1174,-56.5 1174,-75.5 1215,-75.5 1215,-56.5 1174,-56.5"/>
<text text-anchor="middle" x="1194.5" y="-63.5" font-family="Helvetica,sans-Serif" font-size="10.00">util.h</text>
</a>
</g>
</g>
<!-- Node32&#45;&gt;Node36 -->
<g id="edge61" class="edge">
<title>Node32&#45;&gt;Node36</title>
<path fill="none" stroke="midnightblue" d="M831.05,-119.58C884.43,-115.64 1031.91,-103.17 1164.07,-75.74"/>
<polygon fill="midnightblue" stroke="midnightblue" points="1164.9,-79.14 1173.96,-73.65 1163.45,-72.29 1164.9,-79.14"/>
</g>
<!-- Node39 -->
<g id="node39" class="node">
<title>Node39</title>
<g id="a_node39"><a xlink:href="singleton_8h.html" target="_top" xlink:title="单例模式封装">
<polygon fill="white" stroke="black" points="623,-56.5 623,-75.5 694,-75.5 694,-56.5 623,-56.5"/>
<text text-anchor="middle" x="658.5" y="-63.5" font-family="Helvetica,sans-Serif" font-size="10.00">singleton.h</text>
</a>
</g>
</g>
<!-- Node32&#45;&gt;Node39 -->
<g id="edge70" class="edge">
<title>Node32&#45;&gt;Node39</title>
<path fill="none" stroke="midnightblue" d="M789.68,-113.6C764.55,-104.68 721.96,-89.55 692.15,-78.95"/>
<polygon fill="midnightblue" stroke="midnightblue" points="693.16,-75.6 682.57,-75.55 690.82,-82.2 693.16,-75.6"/>
</g>
<!-- Node36&#45;&gt;Node6 -->
<g id="edge66" class="edge">
<title>Node36&#45;&gt;Node6</title>
<path fill="none" stroke="midnightblue" d="M1173.89,-58.62C1170.76,-57.71 1167.55,-56.8 1164.5,-56 1097.85,-38.43 1077.92,-38.05 1007.59,-20.16"/>
<polygon fill="midnightblue" stroke="midnightblue" points="1008.36,-16.75 997.81,-17.65 1006.62,-23.53 1008.36,-16.75"/>
</g>
<!-- Node36&#45;&gt;Node7 -->
<g id="edge63" class="edge">
<title>Node36&#45;&gt;Node7</title>
<path fill="none" stroke="midnightblue" d="M1173.68,-57.6C1148.55,-48.68 1105.96,-33.55 1076.15,-22.95"/>
<polygon fill="midnightblue" stroke="midnightblue" points="1077.16,-19.6 1066.57,-19.55 1074.82,-26.2 1077.16,-19.6"/>
</g>
<!-- Node36&#45;&gt;Node8 -->
<g id="edge62" class="edge">
<title>Node36&#45;&gt;Node8</title>
<path fill="none" stroke="midnightblue" d="M1209.12,-56.32C1223.45,-47.82 1245.51,-34.73 1262.25,-24.8"/>
<polygon fill="midnightblue" stroke="midnightblue" points="1264.1,-27.77 1270.92,-19.65 1260.53,-21.75 1264.1,-27.77"/>
</g>
<!-- Node36&#45;&gt;Node10 -->
<g id="edge67" class="edge">
<title>Node36&#45;&gt;Node10</title>
<path fill="none" stroke="midnightblue" d="M1215.22,-58.38C1243.94,-49.2 1296.16,-32.52 1330.34,-21.6"/>
<polygon fill="midnightblue" stroke="midnightblue" points="1331.43,-24.92 1339.89,-18.54 1329.3,-18.25 1331.43,-24.92"/>
</g>
<!-- Node36&#45;&gt;Node17 -->
<g id="edge68" class="edge">
<title>Node36&#45;&gt;Node17</title>
<path fill="none" stroke="midnightblue" d="M1215.12,-62.43C1262.13,-56.45 1381.04,-40.66 1490.44,-20.08"/>
<polygon fill="midnightblue" stroke="midnightblue" points="1491.14,-23.51 1500.31,-18.21 1489.84,-16.63 1491.14,-23.51"/>
</g>
<!-- Node37 -->
<g id="node37" class="node">
<title>Node37</title>
<g id="a_node37"><a xlink:title=" ">
<polygon fill="white" stroke="#bfbfbf" points="1087.5,-0.5 1087.5,-19.5 1155.5,-19.5 1155.5,-0.5 1087.5,-0.5"/>
<text text-anchor="middle" x="1121.5" y="-7.5" font-family="Helvetica,sans-Serif" font-size="10.00">sys/time.h</text>
</a>
</g>
</g>
<!-- Node36&#45;&gt;Node37 -->
<g id="edge64" class="edge">
<title>Node36&#45;&gt;Node37</title>
<path fill="none" stroke="midnightblue" d="M1182.77,-56.32C1171.66,-48.11 1154.76,-35.6 1141.52,-25.81"/>
<polygon fill="midnightblue" stroke="midnightblue" points="1143.56,-22.97 1133.44,-19.83 1139.4,-28.59 1143.56,-22.97"/>
</g>
<!-- Node38 -->
<g id="node38" class="node">
<title>Node38</title>
<g id="a_node38"><a xlink:title=" ">
<polygon fill="white" stroke="#bfbfbf" points="1173.5,-0.5 1173.5,-19.5 1231.5,-19.5 1231.5,-0.5 1173.5,-0.5"/>
<text text-anchor="middle" x="1202.5" y="-7.5" font-family="Helvetica,sans-Serif" font-size="10.00">cxxabi.h</text>
</a>
</g>
</g>
<!-- Node36&#45;&gt;Node38 -->
<g id="edge65" class="edge">
<title>Node36&#45;&gt;Node38</title>
<path fill="none" stroke="midnightblue" d="M1195.82,-56.08C1196.88,-48.93 1198.41,-38.64 1199.73,-29.69"/>
<polygon fill="midnightblue" stroke="midnightblue" points="1203.2,-30.16 1201.2,-19.75 1196.28,-29.13 1203.2,-30.16"/>
</g>
<!-- Node39&#45;&gt;Node4 -->
<g id="edge71" class="edge">
<title>Node39&#45;&gt;Node4</title>
<path fill="none" stroke="midnightblue" d="M648.22,-56.32C638.66,-48.26 624.22,-36.08 612.72,-26.37"/>
<polygon fill="midnightblue" stroke="midnightblue" points="614.87,-23.61 604.97,-19.83 610.36,-28.96 614.87,-23.61"/>
</g>
<!-- Node40&#45;&gt;Node4 -->
<g id="edge74" class="edge">
<title>Node40&#45;&gt;Node4</title>
<path fill="none" stroke="midnightblue" d="M283.93,-112.47C314.36,-99.3 375.32,-73.69 428.5,-56 471.38,-41.74 521.58,-28.61 555.45,-20.26"/>
<polygon fill="midnightblue" stroke="midnightblue" points="556.53,-23.6 565.42,-17.83 554.87,-16.8 556.53,-23.6"/>
</g>
<!-- Node40&#45;&gt;Node10 -->
<g id="edge75" class="edge">
<title>Node40&#45;&gt;Node10</title>
<path fill="none" stroke="midnightblue" d="M290.12,-117.32C304.1,-115.44 321.72,-113.29 337.5,-112 533.9,-95.93 1034.46,-131.62 1223.5,-76 1240.32,-71.05 1241.84,-63.89 1257.5,-56 1281.7,-43.81 1309.99,-31.91 1331.25,-23.42"/>
<polygon fill="midnightblue" stroke="midnightblue" points="1332.77,-26.58 1340.78,-19.65 1330.19,-20.07 1332.77,-26.58"/>
</g>
<!-- Node40&#45;&gt;Node20 -->
<g id="edge77" class="edge">
<title>Node40&#45;&gt;Node20</title>
<path fill="none" stroke="midnightblue" d="M265,-112.08C265.39,-105.01 265.95,-94.86 266.45,-85.99"/>
<polygon fill="midnightblue" stroke="midnightblue" points="269.95,-85.93 267.01,-75.75 262.96,-85.54 269.95,-85.93"/>
</g>
<!-- Node41 -->
<g id="node41" class="node">
<title>Node41</title>
<g id="a_node41"><a xlink:title=" ">
<polygon fill="white" stroke="#bfbfbf" points="184.5,-56.5 184.5,-75.5 216.5,-75.5 216.5,-56.5 184.5,-56.5"/>
<text text-anchor="middle" x="200.5" y="-63.5" font-family="Helvetica,sans-Serif" font-size="10.00">set</text>
</a>
</g>
</g>
<!-- Node40&#45;&gt;Node41 -->
<g id="edge76" class="edge">
<title>Node40&#45;&gt;Node41</title>
<path fill="none" stroke="midnightblue" d="M254.22,-112.32C244.66,-104.26 230.22,-92.08 218.72,-82.37"/>
<polygon fill="midnightblue" stroke="midnightblue" points="220.87,-79.61 210.97,-75.83 216.36,-84.96 220.87,-79.61"/>
</g>
<!-- Node42&#45;&gt;Node4 -->
<g id="edge87" class="edge">
<title>Node42&#45;&gt;Node4</title>
<path fill="none" stroke="midnightblue" d="M1580.64,-118.88C1560.18,-117 1529.34,-114.22 1502.5,-112 1293.71,-94.7 1233.82,-133.99 1032.5,-76 1014.16,-70.72 1012.74,-61.61 994.5,-56 866.69,-16.71 706.48,-11.01 633.7,-10.64"/>
<polygon fill="midnightblue" stroke="midnightblue" points="633.62,-7.14 623.61,-10.62 633.61,-14.14 633.62,-7.14"/>
</g>
<!-- Node42&#45;&gt;Node6 -->
<g id="edge82" class="edge">
<title>Node42&#45;&gt;Node6</title>
<path fill="none" stroke="midnightblue" d="M1580.64,-118.93C1560.17,-117.09 1529.33,-114.33 1502.5,-112 1312.76,-95.55 1255.66,-137.76 1075.5,-76 1043.57,-65.05 1011.75,-41.69 992.85,-26.16"/>
<polygon fill="midnightblue" stroke="midnightblue" points="995.03,-23.42 985.12,-19.65 990.52,-28.77 995.03,-23.42"/>
</g>
<!-- Node42&#45;&gt;Node10 -->
<g id="edge84" class="edge">
<title>Node42&#45;&gt;Node10</title>
<path fill="none" stroke="midnightblue" d="M1595.14,-112.05C1581.61,-98.08 1553.48,-71.11 1524.5,-56 1521.61,-54.49 1443.28,-32.88 1396.96,-20.17"/>
<polygon fill="midnightblue" stroke="midnightblue" points="1397.62,-16.72 1387.05,-17.45 1395.76,-23.47 1397.62,-16.72"/>
</g>
<!-- Node42&#45;&gt;Node17 -->
<g id="edge85" class="edge">
<title>Node42&#45;&gt;Node17</title>
<path fill="none" stroke="midnightblue" d="M1626.17,-116.24C1662.78,-107.52 1728.5,-87 1704.5,-56 1702.41,-53.3 1621.49,-33.17 1570.75,-20.77"/>
<polygon fill="midnightblue" stroke="midnightblue" points="1571.27,-17.29 1560.73,-18.32 1569.61,-24.09 1571.27,-17.29"/>
</g>
<!-- Node42&#45;&gt;Node18 -->
<g id="edge83" class="edge">
<title>Node42&#45;&gt;Node18</title>
<path fill="none" stroke="midnightblue" d="M1626.08,-120.61C1716.56,-118.83 2049.57,-109.99 2080.5,-76 2120.67,-31.87 2003.94,-17.22 1946.9,-12.77"/>
<polygon fill="midnightblue" stroke="midnightblue" points="1946.89,-9.26 1936.67,-12.03 1946.39,-16.24 1946.89,-9.26"/>
</g>
<!-- Node42&#45;&gt;Node33 -->
<g id="edge86" class="edge">
<title>Node42&#45;&gt;Node33</title>
<path fill="none" stroke="midnightblue" d="M1580.85,-115.72C1546.75,-107.76 1479.95,-92.11 1413.56,-76.24"/>
<polygon fill="midnightblue" stroke="midnightblue" points="1414.32,-72.82 1403.78,-73.9 1412.69,-79.63 1414.32,-72.82"/>
</g>
<!-- Node43 -->
<g id="node43" class="node">
<title>Node43</title>
<g id="a_node43"><a xlink:href="http-parser_2http__parser_8h_source.html" target="_top" xlink:title=" ">
<polygon fill="white" stroke="black" points="1752,-56.5 1752,-75.5 1889,-75.5 1889,-56.5 1752,-56.5"/>
<text text-anchor="middle" x="1820.5" y="-63.5" font-family="Helvetica,sans-Serif" font-size="10.00">http&#45;parser/http_parser.h</text>
</a>
</g>
</g>
<!-- Node42&#45;&gt;Node43 -->
<g id="edge79" class="edge">
<title>Node42&#45;&gt;Node43</title>
<path fill="none" stroke="midnightblue" d="M1626.31,-115.32C1661.82,-106.49 1730.95,-89.28 1776.42,-77.97"/>
<polygon fill="midnightblue" stroke="midnightblue" points="1777.44,-81.32 1786.3,-75.51 1775.75,-74.53 1777.44,-81.32"/>
</g>
<!-- Node45 -->
<g id="node45" class="node">
<title>Node45</title>
<g id="a_node45"><a xlink:title=" ">
<polygon fill="white" stroke="#bfbfbf" points="1946,-56.5 1946,-75.5 2071,-75.5 2071,-56.5 1946,-56.5"/>
<text text-anchor="middle" x="2008.5" y="-63.5" font-family="Helvetica,sans-Serif" font-size="10.00">boost/lexical_cast.hpp</text>
</a>
</g>
</g>
<!-- Node42&#45;&gt;Node45 -->
<g id="edge88" class="edge">
<title>Node42&#45;&gt;Node45</title>
<path fill="none" stroke="midnightblue" d="M1626.14,-117.98C1684.57,-110.19 1842.36,-89.15 1935.98,-76.67"/>
<polygon fill="midnightblue" stroke="midnightblue" points="1936.5,-80.13 1945.95,-75.34 1935.57,-73.19 1936.5,-80.13"/>
</g>
<!-- Node43&#45;&gt;Node7 -->
<g id="edge81" class="edge">
<title>Node43&#45;&gt;Node7</title>
<path fill="none" stroke="midnightblue" d="M1751.82,-59.44C1736.26,-58.25 1719.82,-57.03 1704.5,-56 1429.71,-37.44 1355.73,-61.41 1079.05,-19.76"/>
<polygon fill="midnightblue" stroke="midnightblue" points="1079.54,-16.29 1069.12,-18.25 1078.48,-23.21 1079.54,-16.29"/>
</g>
<!-- Node44 -->
<g id="node44" class="node">
<title>Node44</title>
<g id="a_node44"><a xlink:title=" ">
<polygon fill="white" stroke="#bfbfbf" points="1815.5,-0.5 1815.5,-19.5 1871.5,-19.5 1871.5,-0.5 1815.5,-0.5"/>
<text text-anchor="middle" x="1843.5" y="-7.5" font-family="Helvetica,sans-Serif" font-size="10.00">stddef.h</text>
</a>
</g>
</g>
<!-- Node43&#45;&gt;Node44 -->
<g id="edge80" class="edge">
<title>Node43&#45;&gt;Node44</title>
<path fill="none" stroke="midnightblue" d="M1824.3,-56.08C1827.41,-48.77 1831.92,-38.18 1835.79,-29.1"/>
<polygon fill="midnightblue" stroke="midnightblue" points="1839.07,-30.32 1839.77,-19.75 1832.63,-27.58 1839.07,-30.32"/>
</g>
</g>
</svg>
