<?xml version="1.0" encoding="UTF-8" standalone="no"?>
<!DOCTYPE svg PUBLIC "-//W3C//DTD SVG 1.1//EN"
 "http://www.w3.org/Graphics/SVG/1.1/DTD/svg11.dtd">
<!-- Generated by graphviz version 2.43.0 (0)
 -->
<!-- Title: sylar/http/http.cc Pages: 1 -->
<svg width="991pt" height="196pt"
 viewBox="0.00 0.00 990.50 196.00" xmlns="http://www.w3.org/2000/svg" xmlns:xlink="http://www.w3.org/1999/xlink">
<g id="graph0" class="graph" transform="scale(1 1) rotate(0) translate(4 192)">
<title>sylar/http/http.cc</title>
<polygon fill="white" stroke="transparent" points="-4,4 -4,-192 986.5,-192 986.5,4 -4,4"/>
<!-- Node1 -->
<g id="node1" class="node">
<title>Node1</title>
<g id="a_node1"><a xlink:title="HTTP相关方法实现">
<polygon fill="#bfbfbf" stroke="black" points="326.5,-168.5 326.5,-187.5 425.5,-187.5 425.5,-168.5 326.5,-168.5"/>
<text text-anchor="middle" x="376" y="-175.5" font-family="Helvetica,sans-Serif" font-size="10.00">sylar/http/http.cc</text>
</a>
</g>
</g>
<!-- Node2 -->
<g id="node2" class="node">
<title>Node2</title>
<g id="a_node2"><a xlink:href="http_8h.html" target="_top" xlink:title="HTTP定义结构体封装">
<polygon fill="white" stroke="black" points="492.5,-112.5 492.5,-131.5 537.5,-131.5 537.5,-112.5 492.5,-112.5"/>
<text text-anchor="middle" x="515" y="-119.5" font-family="Helvetica,sans-Serif" font-size="10.00">http.h</text>
</a>
</g>
</g>
<!-- Node1&#45;&gt;Node2 -->
<g id="edge1" class="edge">
<title>Node1&#45;&gt;Node2</title>
<path fill="none" stroke="midnightblue" d="M398.02,-168.44C421.1,-159.48 457.56,-145.31 483.64,-135.18"/>
<polygon fill="midnightblue" stroke="midnightblue" points="485.02,-138.4 493.08,-131.52 482.49,-131.88 485.02,-138.4"/>
</g>
<!-- Node13 -->
<g id="node13" class="node">
<title>Node13</title>
<g id="a_node13"><a xlink:href="util_8h.html" target="_top" xlink:title="util函数">
<polygon fill="white" stroke="black" points="245,-112.5 245,-131.5 313,-131.5 313,-112.5 245,-112.5"/>
<text text-anchor="middle" x="279" y="-119.5" font-family="Helvetica,sans-Serif" font-size="10.00">sylar/util.h</text>
</a>
</g>
</g>
<!-- Node1&#45;&gt;Node13 -->
<g id="edge12" class="edge">
<title>Node1&#45;&gt;Node13</title>
<path fill="none" stroke="midnightblue" d="M360.42,-168.32C345,-159.74 321.19,-146.49 303.29,-136.52"/>
<polygon fill="midnightblue" stroke="midnightblue" points="304.99,-133.46 294.55,-131.65 301.58,-139.58 304.99,-133.46"/>
</g>
<!-- Node3 -->
<g id="node3" class="node">
<title>Node3</title>
<g id="a_node3"><a xlink:href="http-parser_2http__parser_8h_source.html" target="_top" xlink:title=" ">
<polygon fill="white" stroke="black" points="845.5,-56.5 845.5,-75.5 982.5,-75.5 982.5,-56.5 845.5,-56.5"/>
<text text-anchor="middle" x="914" y="-63.5" font-family="Helvetica,sans-Serif" font-size="10.00">http&#45;parser/http_parser.h</text>
</a>
</g>
</g>
<!-- Node2&#45;&gt;Node3 -->
<g id="edge2" class="edge">
<title>Node2&#45;&gt;Node3</title>
<path fill="none" stroke="midnightblue" d="M537.6,-117.94C595.04,-110.17 748.62,-89.38 840.89,-76.89"/>
<polygon fill="midnightblue" stroke="midnightblue" points="841.56,-80.34 851,-75.53 840.62,-73.4 841.56,-80.34"/>
</g>
<!-- Node6 -->
<g id="node6" class="node">
<title>Node6</title>
<g id="a_node6"><a xlink:title=" ">
<polygon fill="white" stroke="#bfbfbf" points="368,-56.5 368,-75.5 412,-75.5 412,-56.5 368,-56.5"/>
<text text-anchor="middle" x="390" y="-63.5" font-family="Helvetica,sans-Serif" font-size="10.00">string</text>
</a>
</g>
</g>
<!-- Node2&#45;&gt;Node6 -->
<g id="edge5" class="edge">
<title>Node2&#45;&gt;Node6</title>
<path fill="none" stroke="midnightblue" d="M495.19,-112.44C474.71,-103.6 442.52,-89.69 419.14,-79.59"/>
<polygon fill="midnightblue" stroke="midnightblue" points="420.28,-76.27 409.71,-75.52 417.51,-82.7 420.28,-76.27"/>
</g>
<!-- Node7 -->
<g id="node7" class="node">
<title>Node7</title>
<g id="a_node7"><a xlink:title=" ">
<polygon fill="white" stroke="#bfbfbf" points="496,-56.5 496,-75.5 534,-75.5 534,-56.5 496,-56.5"/>
<text text-anchor="middle" x="515" y="-63.5" font-family="Helvetica,sans-Serif" font-size="10.00">map</text>
</a>
</g>
</g>
<!-- Node2&#45;&gt;Node7 -->
<g id="edge6" class="edge">
<title>Node2&#45;&gt;Node7</title>
<path fill="none" stroke="midnightblue" d="M515,-112.08C515,-105.01 515,-94.86 515,-85.99"/>
<polygon fill="midnightblue" stroke="midnightblue" points="518.5,-85.75 515,-75.75 511.5,-85.75 518.5,-85.75"/>
</g>
<!-- Node8 -->
<g id="node8" class="node">
<title>Node8</title>
<g id="a_node8"><a xlink:title=" ">
<polygon fill="white" stroke="#bfbfbf" points="430.5,-56.5 430.5,-75.5 477.5,-75.5 477.5,-56.5 430.5,-56.5"/>
<text text-anchor="middle" x="454" y="-63.5" font-family="Helvetica,sans-Serif" font-size="10.00">vector</text>
</a>
</g>
</g>
<!-- Node2&#45;&gt;Node8 -->
<g id="edge7" class="edge">
<title>Node2&#45;&gt;Node8</title>
<path fill="none" stroke="midnightblue" d="M505.2,-112.32C496.18,-104.34 482.59,-92.31 471.68,-82.65"/>
<polygon fill="midnightblue" stroke="midnightblue" points="473.79,-79.84 463.98,-75.83 469.15,-85.08 473.79,-79.84"/>
</g>
<!-- Node9 -->
<g id="node9" class="node">
<title>Node9</title>
<g id="a_node9"><a xlink:title=" ">
<polygon fill="white" stroke="#bfbfbf" points="290,-56.5 290,-75.5 350,-75.5 350,-56.5 290,-56.5"/>
<text text-anchor="middle" x="320" y="-63.5" font-family="Helvetica,sans-Serif" font-size="10.00">iostream</text>
</a>
</g>
</g>
<!-- Node2&#45;&gt;Node9 -->
<g id="edge8" class="edge">
<title>Node2&#45;&gt;Node9</title>
<path fill="none" stroke="midnightblue" d="M492.25,-114.7C459.83,-105.72 399.87,-89.12 359.95,-78.06"/>
<polygon fill="midnightblue" stroke="midnightblue" points="360.83,-74.68 350.26,-75.38 358.96,-81.42 360.83,-74.68"/>
</g>
<!-- Node10 -->
<g id="node10" class="node">
<title>Node10</title>
<g id="a_node10"><a xlink:title=" ">
<polygon fill="white" stroke="#bfbfbf" points="552,-56.5 552,-75.5 608,-75.5 608,-56.5 552,-56.5"/>
<text text-anchor="middle" x="580" y="-63.5" font-family="Helvetica,sans-Serif" font-size="10.00">sstream</text>
</a>
</g>
</g>
<!-- Node2&#45;&gt;Node10 -->
<g id="edge9" class="edge">
<title>Node2&#45;&gt;Node10</title>
<path fill="none" stroke="midnightblue" d="M525.44,-112.32C535.15,-104.26 549.82,-92.08 561.5,-82.37"/>
<polygon fill="midnightblue" stroke="midnightblue" points="563.91,-84.92 569.37,-75.83 559.44,-79.53 563.91,-84.92"/>
</g>
<!-- Node11 -->
<g id="node11" class="node">
<title>Node11</title>
<g id="a_node11"><a xlink:title=" ">
<polygon fill="white" stroke="#bfbfbf" points="626,-56.5 626,-75.5 684,-75.5 684,-56.5 626,-56.5"/>
<text text-anchor="middle" x="655" y="-63.5" font-family="Helvetica,sans-Serif" font-size="10.00">memory</text>
</a>
</g>
</g>
<!-- Node2&#45;&gt;Node11 -->
<g id="edge10" class="edge">
<title>Node2&#45;&gt;Node11</title>
<path fill="none" stroke="midnightblue" d="M537.18,-112.44C560.43,-103.48 597.15,-89.31 623.42,-79.18"/>
<polygon fill="midnightblue" stroke="midnightblue" points="624.85,-82.38 632.92,-75.52 622.33,-75.85 624.85,-82.38"/>
</g>
<!-- Node12 -->
<g id="node12" class="node">
<title>Node12</title>
<g id="a_node12"><a xlink:title=" ">
<polygon fill="white" stroke="#bfbfbf" points="702.5,-56.5 702.5,-75.5 827.5,-75.5 827.5,-56.5 702.5,-56.5"/>
<text text-anchor="middle" x="765" y="-63.5" font-family="Helvetica,sans-Serif" font-size="10.00">boost/lexical_cast.hpp</text>
</a>
</g>
</g>
<!-- Node2&#45;&gt;Node12 -->
<g id="edge11" class="edge">
<title>Node2&#45;&gt;Node12</title>
<path fill="none" stroke="midnightblue" d="M537.63,-116.11C577.6,-107.48 661.57,-89.34 715.52,-77.69"/>
<polygon fill="midnightblue" stroke="midnightblue" points="716.53,-81.05 725.56,-75.52 715.05,-74.21 716.53,-81.05"/>
</g>
<!-- Node4 -->
<g id="node4" class="node">
<title>Node4</title>
<g id="a_node4"><a xlink:title=" ">
<polygon fill="white" stroke="#bfbfbf" points="886,-0.5 886,-19.5 942,-19.5 942,-0.5 886,-0.5"/>
<text text-anchor="middle" x="914" y="-7.5" font-family="Helvetica,sans-Serif" font-size="10.00">stddef.h</text>
</a>
</g>
</g>
<!-- Node3&#45;&gt;Node4 -->
<g id="edge3" class="edge">
<title>Node3&#45;&gt;Node4</title>
<path fill="none" stroke="midnightblue" d="M914,-56.08C914,-49.01 914,-38.86 914,-29.99"/>
<polygon fill="midnightblue" stroke="midnightblue" points="917.5,-29.75 914,-19.75 910.5,-29.75 917.5,-29.75"/>
</g>
<!-- Node5 -->
<g id="node5" class="node">
<title>Node5</title>
<g id="a_node5"><a xlink:title=" ">
<polygon fill="white" stroke="#bfbfbf" points="437.5,-0.5 437.5,-19.5 490.5,-19.5 490.5,-0.5 437.5,-0.5"/>
<text text-anchor="middle" x="464" y="-7.5" font-family="Helvetica,sans-Serif" font-size="10.00">stdint.h</text>
</a>
</g>
</g>
<!-- Node3&#45;&gt;Node5 -->
<g id="edge4" class="edge">
<title>Node3&#45;&gt;Node5</title>
<path fill="none" stroke="midnightblue" d="M845.16,-56.74C748.4,-45.13 575.6,-24.39 500.51,-15.38"/>
<polygon fill="midnightblue" stroke="midnightblue" points="500.93,-11.91 490.58,-14.19 500.09,-18.86 500.93,-11.91"/>
</g>
<!-- Node13&#45;&gt;Node5 -->
<g id="edge14" class="edge">
<title>Node13&#45;&gt;Node5</title>
<path fill="none" stroke="midnightblue" d="M244.61,-119.58C183.01,-115.84 63.93,-102.54 105,-56 126.12,-32.07 339.97,-17.77 427.23,-12.9"/>
<polygon fill="midnightblue" stroke="midnightblue" points="427.43,-16.39 437.22,-12.35 427.04,-9.4 427.43,-16.39"/>
</g>
<!-- Node13&#45;&gt;Node6 -->
<g id="edge17" class="edge">
<title>Node13&#45;&gt;Node6</title>
<path fill="none" stroke="midnightblue" d="M296.83,-112.32C314.72,-103.62 342.48,-90.12 363.05,-80.11"/>
<polygon fill="midnightblue" stroke="midnightblue" points="364.75,-83.18 372.21,-75.65 361.69,-76.88 364.75,-83.18"/>
</g>
<!-- Node13&#45;&gt;Node8 -->
<g id="edge18" class="edge">
<title>Node13&#45;&gt;Node8</title>
<path fill="none" stroke="midnightblue" d="M306.73,-112.44C337.65,-102.9 387.64,-87.48 420.66,-77.29"/>
<polygon fill="midnightblue" stroke="midnightblue" points="421.81,-80.6 430.33,-74.3 419.74,-73.91 421.81,-80.6"/>
</g>
<!-- Node13&#45;&gt;Node9 -->
<g id="edge19" class="edge">
<title>Node13&#45;&gt;Node9</title>
<path fill="none" stroke="midnightblue" d="M285.77,-112.08C291.56,-104.46 300.06,-93.26 307.14,-83.94"/>
<polygon fill="midnightblue" stroke="midnightblue" points="310.1,-85.83 313.36,-75.75 304.52,-81.6 310.1,-85.83"/>
</g>
<!-- Node14 -->
<g id="node14" class="node">
<title>Node14</title>
<g id="a_node14"><a xlink:title=" ">
<polygon fill="white" stroke="#bfbfbf" points="114,-56.5 114,-75.5 186,-75.5 186,-56.5 114,-56.5"/>
<text text-anchor="middle" x="150" y="-63.5" font-family="Helvetica,sans-Serif" font-size="10.00">sys/types.h</text>
</a>
</g>
</g>
<!-- Node13&#45;&gt;Node14 -->
<g id="edge13" class="edge">
<title>Node13&#45;&gt;Node14</title>
<path fill="none" stroke="midnightblue" d="M258.56,-112.44C237.33,-103.56 203.9,-89.56 179.75,-79.45"/>
<polygon fill="midnightblue" stroke="midnightblue" points="180.92,-76.15 170.34,-75.52 178.22,-82.61 180.92,-76.15"/>
</g>
<!-- Node15 -->
<g id="node15" class="node">
<title>Node15</title>
<g id="a_node15"><a xlink:title=" ">
<polygon fill="white" stroke="#bfbfbf" points="204,-56.5 204,-75.5 272,-75.5 272,-56.5 204,-56.5"/>
<text text-anchor="middle" x="238" y="-63.5" font-family="Helvetica,sans-Serif" font-size="10.00">sys/time.h</text>
</a>
</g>
</g>
<!-- Node13&#45;&gt;Node15 -->
<g id="edge15" class="edge">
<title>Node13&#45;&gt;Node15</title>
<path fill="none" stroke="midnightblue" d="M272.23,-112.08C266.44,-104.46 257.94,-93.26 250.86,-83.94"/>
<polygon fill="midnightblue" stroke="midnightblue" points="253.48,-81.6 244.64,-75.75 247.9,-85.83 253.48,-81.6"/>
</g>
<!-- Node16 -->
<g id="node16" class="node">
<title>Node16</title>
<g id="a_node16"><a xlink:title=" ">
<polygon fill="white" stroke="#bfbfbf" points="0,-56.5 0,-75.5 58,-75.5 58,-56.5 0,-56.5"/>
<text text-anchor="middle" x="29" y="-63.5" font-family="Helvetica,sans-Serif" font-size="10.00">cxxabi.h</text>
</a>
</g>
</g>
<!-- Node13&#45;&gt;Node16 -->
<g id="edge16" class="edge">
<title>Node13&#45;&gt;Node16</title>
<path fill="none" stroke="midnightblue" d="M244.76,-113.6C198.57,-103.63 116.5,-85.9 67.98,-75.42"/>
<polygon fill="midnightblue" stroke="midnightblue" points="68.68,-71.99 58.17,-73.3 67.2,-78.83 68.68,-71.99"/>
</g>
</g>
</svg>
