<?xml version="1.0" encoding="UTF-8" standalone="no"?>
<!DOCTYPE svg PUBLIC "-//W3C//DTD SVG 1.1//EN"
 "http://www.w3.org/Graphics/SVG/1.1/DTD/svg11.dtd">
<!-- Generated by graphviz version 2.43.0 (0)
 -->
<!-- Title: 类继承关系图 Pages: 1 -->
<svg width="296pt" height="66pt"
 viewBox="0.00 0.00 296.00 66.00" xmlns="http://www.w3.org/2000/svg" xmlns:xlink="http://www.w3.org/1999/xlink">
<g id="graph0" class="graph" transform="scale(1 1) rotate(0) translate(4 62)">
<title>类继承关系图</title>
<polygon fill="white" stroke="transparent" points="-4,4 -4,-62 292,-62 292,4 -4,4"/>
<!-- Node0 -->
<g id="node1" class="node">
<title>Node0</title>
<g id="a_node1"><a xlink:href="classsylar_1_1LogAppender.html" target="_top" xlink:title="日志输出地，虚基类，用于派生出不同的LogAppender">
<polygon fill="white" stroke="black" points="0,-19.5 0,-38.5 110,-38.5 110,-19.5 0,-19.5"/>
<text text-anchor="middle" x="55" y="-26.5" font-family="Helvetica,sans-Serif" font-size="10.00">sylar::LogAppender</text>
</a>
</g>
</g>
<!-- Node1 -->
<g id="node2" class="node">
<title>Node1</title>
<g id="a_node2"><a xlink:href="classsylar_1_1FileLogAppender.html" target="_top" xlink:title="输出到文件">
<polygon fill="white" stroke="black" points="153,-38.5 153,-57.5 281,-57.5 281,-38.5 153,-38.5"/>
<text text-anchor="middle" x="217" y="-45.5" font-family="Helvetica,sans-Serif" font-size="10.00">sylar::FileLogAppender</text>
</a>
</g>
</g>
<!-- Node0&#45;&gt;Node1 -->
<g id="edge1" class="edge">
<title>Node0&#45;&gt;Node1</title>
<path fill="none" stroke="midnightblue" d="M120.29,-36.63C130.99,-37.91 142.09,-39.22 152.77,-40.49"/>
<polygon fill="midnightblue" stroke="midnightblue" points="120.51,-33.14 110.17,-35.43 119.69,-40.09 120.51,-33.14"/>
</g>
<!-- Node2 -->
<g id="node3" class="node">
<title>Node2</title>
<g id="a_node3"><a xlink:href="classsylar_1_1StdoutLogAppender.html" target="_top" xlink:title="输出到控制台的Appender">
<polygon fill="white" stroke="black" points="146,-0.5 146,-19.5 288,-19.5 288,-0.5 146,-0.5"/>
<text text-anchor="middle" x="217" y="-7.5" font-family="Helvetica,sans-Serif" font-size="10.00">sylar::StdoutLogAppender</text>
</a>
</g>
</g>
<!-- Node0&#45;&gt;Node2 -->
<g id="edge2" class="edge">
<title>Node0&#45;&gt;Node2</title>
<path fill="none" stroke="midnightblue" d="M120.25,-21.37C128.63,-20.38 137.25,-19.35 145.72,-18.35"/>
<polygon fill="midnightblue" stroke="midnightblue" points="119.69,-17.91 110.17,-22.57 120.51,-24.86 119.69,-17.91"/>
</g>
</g>
</svg>
