<?xml version="1.0" encoding="UTF-8" standalone="no"?>
<!DOCTYPE svg PUBLIC "-//W3C//DTD SVG 1.1//EN"
 "http://www.w3.org/Graphics/SVG/1.1/DTD/svg11.dtd">
<!-- Generated by graphviz version 2.43.0 (0)
 -->
<!-- Title: 类继承关系图 Pages: 1 -->
<svg width="404pt" height="123pt"
 viewBox="0.00 0.00 404.00 123.00" xmlns="http://www.w3.org/2000/svg" xmlns:xlink="http://www.w3.org/1999/xlink">
<g id="graph0" class="graph" transform="scale(1 1) rotate(0) translate(4 119)">
<title>类继承关系图</title>
<polygon fill="white" stroke="transparent" points="-4,4 -4,-119 400,-119 400,4 -4,4"/>
<!-- Node0 -->
<g id="node1" class="node">
<title>Node0</title>
<g id="a_node1"><a xlink:href="classsylar_1_1Address.html" target="_top" xlink:title="网络地址的基类,抽象类">
<polygon fill="white" stroke="black" points="0,-38.5 0,-57.5 86,-57.5 86,-38.5 0,-38.5"/>
<text text-anchor="middle" x="43" y="-45.5" font-family="Helvetica,sans-Serif" font-size="10.00">sylar::Address</text>
</a>
</g>
</g>
<!-- Node1 -->
<g id="node2" class="node">
<title>Node1</title>
<g id="a_node2"><a xlink:href="classsylar_1_1IPAddress.html" target="_top" xlink:title="IP地址的基类">
<polygon fill="white" stroke="black" points="140.5,-76.5 140.5,-95.5 234.5,-95.5 234.5,-76.5 140.5,-76.5"/>
<text text-anchor="middle" x="187.5" y="-83.5" font-family="Helvetica,sans-Serif" font-size="10.00">sylar::IPAddress</text>
</a>
</g>
</g>
<!-- Node0&#45;&gt;Node1 -->
<g id="edge1" class="edge">
<title>Node0&#45;&gt;Node1</title>
<path fill="none" stroke="midnightblue" d="M89.65,-60.17C109.36,-65.43 132.07,-71.49 150.55,-76.41"/>
<polygon fill="midnightblue" stroke="midnightblue" points="90.52,-56.78 79.96,-57.59 88.72,-63.55 90.52,-56.78"/>
</g>
<!-- Node4 -->
<g id="node5" class="node">
<title>Node4</title>
<g id="a_node5"><a xlink:href="classsylar_1_1UnixAddress.html" target="_top" xlink:title="UnixSocket地址">
<polygon fill="white" stroke="black" points="133.5,-38.5 133.5,-57.5 241.5,-57.5 241.5,-38.5 133.5,-38.5"/>
<text text-anchor="middle" x="187.5" y="-45.5" font-family="Helvetica,sans-Serif" font-size="10.00">sylar::UnixAddress</text>
</a>
</g>
</g>
<!-- Node0&#45;&gt;Node4 -->
<g id="edge4" class="edge">
<title>Node0&#45;&gt;Node4</title>
<path fill="none" stroke="midnightblue" d="M96.68,-48C108.67,-48 121.41,-48 133.42,-48"/>
<polygon fill="midnightblue" stroke="midnightblue" points="96.37,-44.5 86.37,-48 96.37,-51.5 96.37,-44.5"/>
</g>
<!-- Node5 -->
<g id="node6" class="node">
<title>Node5</title>
<g id="a_node6"><a xlink:href="classsylar_1_1UnknownAddress.html" target="_top" xlink:title="未知地址">
<polygon fill="white" stroke="black" points="122,-0.5 122,-19.5 253,-19.5 253,-0.5 122,-0.5"/>
<text text-anchor="middle" x="187.5" y="-7.5" font-family="Helvetica,sans-Serif" font-size="10.00">sylar::UnknownAddress</text>
</a>
</g>
</g>
<!-- Node0&#45;&gt;Node5 -->
<g id="edge5" class="edge">
<title>Node0&#45;&gt;Node5</title>
<path fill="none" stroke="midnightblue" d="M89.65,-35.83C109.36,-30.57 132.07,-24.51 150.55,-19.59"/>
<polygon fill="midnightblue" stroke="midnightblue" points="88.72,-32.45 79.96,-38.41 90.52,-39.22 88.72,-32.45"/>
</g>
<!-- Node2 -->
<g id="node3" class="node">
<title>Node2</title>
<g id="a_node3"><a xlink:href="classsylar_1_1IPv4Address.html" target="_top" xlink:title="IPv4地址">
<polygon fill="white" stroke="black" points="289,-95.5 289,-114.5 396,-114.5 396,-95.5 289,-95.5"/>
<text text-anchor="middle" x="342.5" y="-102.5" font-family="Helvetica,sans-Serif" font-size="10.00">sylar::IPv4Address</text>
</a>
</g>
</g>
<!-- Node1&#45;&gt;Node2 -->
<g id="edge2" class="edge">
<title>Node1&#45;&gt;Node2</title>
<path fill="none" stroke="midnightblue" d="M245.06,-93.02C259.41,-94.81 274.76,-96.71 288.91,-98.47"/>
<polygon fill="midnightblue" stroke="midnightblue" points="245.18,-89.51 234.82,-91.75 244.31,-96.46 245.18,-89.51"/>
</g>
<!-- Node3 -->
<g id="node4" class="node">
<title>Node3</title>
<g id="a_node4"><a xlink:href="classsylar_1_1IPv6Address.html" target="_top" xlink:title="IPv6地址">
<polygon fill="white" stroke="black" points="289,-57.5 289,-76.5 396,-76.5 396,-57.5 289,-57.5"/>
<text text-anchor="middle" x="342.5" y="-64.5" font-family="Helvetica,sans-Serif" font-size="10.00">sylar::IPv6Address</text>
</a>
</g>
</g>
<!-- Node1&#45;&gt;Node3 -->
<g id="edge3" class="edge">
<title>Node1&#45;&gt;Node3</title>
<path fill="none" stroke="midnightblue" d="M245.06,-78.98C259.41,-77.19 274.76,-75.29 288.91,-73.53"/>
<polygon fill="midnightblue" stroke="midnightblue" points="244.31,-75.54 234.82,-80.25 245.18,-82.49 244.31,-75.54"/>
</g>
</g>
</svg>
