<?xml version="1.0" encoding="UTF-8" standalone="no"?>
<!DOCTYPE svg PUBLIC "-//W3C//DTD SVG 1.1//EN"
 "http://www.w3.org/Graphics/SVG/1.1/DTD/svg11.dtd">
<!-- Generated by graphviz version 2.43.0 (0)
 -->
<!-- Title: 类继承关系图 Pages: 1 -->
<svg width="323pt" height="522pt"
 viewBox="0.00 0.00 323.00 522.00" xmlns="http://www.w3.org/2000/svg" xmlns:xlink="http://www.w3.org/1999/xlink">
<g id="graph0" class="graph" transform="scale(1 1) rotate(0) translate(4 518)">
<title>类继承关系图</title>
<polygon fill="white" stroke="transparent" points="-4,4 -4,-518 319,-518 319,4 -4,4"/>
<!-- Node0 -->
<g id="node1" class="node">
<title>Node0</title>
<g id="a_node1"><a xlink:href="classsylar_1_1LogFormatter_1_1FormatItem.html" target="_top" xlink:title="日志内容格式化项，虚基类，用于派生出不同的格式化项">
<polygon fill="white" stroke="black" points="0,-242 0,-272 112,-272 112,-242 0,-242"/>
<text text-anchor="start" x="8" y="-260" font-family="Helvetica,sans-Serif" font-size="10.00">sylar::LogFormatter</text>
<text text-anchor="middle" x="56" y="-249" font-family="Helvetica,sans-Serif" font-size="10.00">::FormatItem</text>
</a>
</g>
</g>
<!-- Node1 -->
<g id="node2" class="node">
<title>Node1</title>
<g id="a_node2"><a xlink:href="classsylar_1_1DateTimeFormatItem.html" target="_top" xlink:title=" ">
<polygon fill="white" stroke="black" points="155.5,-494.5 155.5,-513.5 307.5,-513.5 307.5,-494.5 155.5,-494.5"/>
<text text-anchor="middle" x="231.5" y="-501.5" font-family="Helvetica,sans-Serif" font-size="10.00">sylar::DateTimeFormatItem</text>
</a>
</g>
</g>
<!-- Node0&#45;&gt;Node1 -->
<g id="edge1" class="edge">
<title>Node0&#45;&gt;Node1</title>
<path fill="none" stroke="midnightblue" d="M59.52,-282.27C65.64,-329.59 85.71,-431.6 148,-485 152.46,-488.83 157.55,-491.92 162.95,-494.42"/>
<polygon fill="midnightblue" stroke="midnightblue" points="62.99,-281.77 58.33,-272.25 56.04,-282.6 62.99,-281.77"/>
</g>
<!-- Node2 -->
<g id="node3" class="node">
<title>Node2</title>
<g id="a_node3"><a xlink:href="classsylar_1_1ElapseFormatItem.html" target="_top" xlink:title=" ">
<polygon fill="white" stroke="black" points="163.5,-456.5 163.5,-475.5 299.5,-475.5 299.5,-456.5 163.5,-456.5"/>
<text text-anchor="middle" x="231.5" y="-463.5" font-family="Helvetica,sans-Serif" font-size="10.00">sylar::ElapseFormatItem</text>
</a>
</g>
</g>
<!-- Node0&#45;&gt;Node2 -->
<g id="edge2" class="edge">
<title>Node0&#45;&gt;Node2</title>
<path fill="none" stroke="midnightblue" d="M61.73,-282.08C70.83,-323.14 94.8,-404.4 148,-447 152.82,-450.86 158.28,-453.96 164.03,-456.46"/>
<polygon fill="midnightblue" stroke="midnightblue" points="65.11,-281.16 59.63,-272.09 58.26,-282.6 65.11,-281.16"/>
</g>
<!-- Node3 -->
<g id="node4" class="node">
<title>Node3</title>
<g id="a_node4"><a xlink:href="classsylar_1_1FiberIdFormatItem.html" target="_top" xlink:title=" ">
<polygon fill="white" stroke="black" points="163,-418.5 163,-437.5 300,-437.5 300,-418.5 163,-418.5"/>
<text text-anchor="middle" x="231.5" y="-425.5" font-family="Helvetica,sans-Serif" font-size="10.00">sylar::FiberIdFormatItem</text>
</a>
</g>
</g>
<!-- Node0&#45;&gt;Node3 -->
<g id="edge3" class="edge">
<title>Node0&#45;&gt;Node3</title>
<path fill="none" stroke="midnightblue" d="M64.94,-281.98C77.14,-316.15 103.82,-376.86 148,-409 153.35,-412.89 159.37,-416 165.65,-418.48"/>
<polygon fill="midnightblue" stroke="midnightblue" points="68.17,-280.62 61.62,-272.29 61.55,-282.89 68.17,-280.62"/>
</g>
<!-- Node4 -->
<g id="node5" class="node">
<title>Node4</title>
<g id="a_node5"><a xlink:href="classsylar_1_1FileNameFormatItem.html" target="_top" xlink:title=" ">
<polygon fill="white" stroke="black" points="156.5,-380.5 156.5,-399.5 306.5,-399.5 306.5,-380.5 156.5,-380.5"/>
<text text-anchor="middle" x="231.5" y="-387.5" font-family="Helvetica,sans-Serif" font-size="10.00">sylar::FileNameFormatItem</text>
</a>
</g>
</g>
<!-- Node0&#45;&gt;Node4 -->
<g id="edge4" class="edge">
<title>Node0&#45;&gt;Node4</title>
<path fill="none" stroke="midnightblue" d="M69.74,-281.22C84.84,-307.49 112.5,-348.65 148,-371 154.22,-374.91 161.16,-378.02 168.29,-380.5"/>
<polygon fill="midnightblue" stroke="midnightblue" points="72.68,-279.31 64.75,-272.28 66.56,-282.72 72.68,-279.31"/>
</g>
<!-- Node5 -->
<g id="node6" class="node">
<title>Node5</title>
<g id="a_node6"><a xlink:href="classsylar_1_1LevelFormatItem.html" target="_top" xlink:title=" ">
<polygon fill="white" stroke="black" points="166.5,-342.5 166.5,-361.5 296.5,-361.5 296.5,-342.5 166.5,-342.5"/>
<text text-anchor="middle" x="231.5" y="-349.5" font-family="Helvetica,sans-Serif" font-size="10.00">sylar::LevelFormatItem</text>
</a>
</g>
</g>
<!-- Node0&#45;&gt;Node5 -->
<g id="edge5" class="edge">
<title>Node0&#45;&gt;Node5</title>
<path fill="none" stroke="midnightblue" d="M77.86,-279.44C95.08,-296.62 120.98,-319.58 148,-333 155.77,-336.86 164.33,-339.95 172.92,-342.42"/>
<polygon fill="midnightblue" stroke="midnightblue" points="80.09,-276.7 70.59,-272 75.08,-281.6 80.09,-276.7"/>
</g>
<!-- Node6 -->
<g id="node7" class="node">
<title>Node6</title>
<g id="a_node7"><a xlink:href="classsylar_1_1LineFormatItem.html" target="_top" xlink:title=" ">
<polygon fill="white" stroke="black" points="169.5,-304.5 169.5,-323.5 293.5,-323.5 293.5,-304.5 169.5,-304.5"/>
<text text-anchor="middle" x="231.5" y="-311.5" font-family="Helvetica,sans-Serif" font-size="10.00">sylar::LineFormatItem</text>
</a>
</g>
</g>
<!-- Node0&#45;&gt;Node6 -->
<g id="edge6" class="edge">
<title>Node0&#45;&gt;Node6</title>
<path fill="none" stroke="midnightblue" d="M98.56,-276.1C113.89,-282.67 131.53,-289.71 148,-295 159.05,-298.55 171.14,-301.72 182.57,-304.41"/>
<polygon fill="midnightblue" stroke="midnightblue" points="99.92,-272.87 89.35,-272.08 97.12,-279.29 99.92,-272.87"/>
</g>
<!-- Node7 -->
<g id="node8" class="node">
<title>Node7</title>
<g id="a_node8"><a xlink:href="classsylar_1_1LoggerNameFormatItem.html" target="_top" xlink:title=" ">
<polygon fill="white" stroke="black" points="148.5,-266.5 148.5,-285.5 314.5,-285.5 314.5,-266.5 148.5,-266.5"/>
<text text-anchor="middle" x="231.5" y="-273.5" font-family="Helvetica,sans-Serif" font-size="10.00">sylar::LoggerNameFormatItem</text>
</a>
</g>
</g>
<!-- Node0&#45;&gt;Node7 -->
<g id="edge7" class="edge">
<title>Node0&#45;&gt;Node7</title>
<path fill="none" stroke="midnightblue" d="M122.54,-264.18C131.01,-265.1 139.77,-266.06 148.46,-267.02"/>
<polygon fill="midnightblue" stroke="midnightblue" points="122.7,-260.67 112.37,-263.06 121.93,-267.63 122.7,-260.67"/>
</g>
<!-- Node8 -->
<g id="node9" class="node">
<title>Node8</title>
<g id="a_node9"><a xlink:href="classsylar_1_1MessageFormatItem.html" target="_top" xlink:title=" ">
<polygon fill="white" stroke="black" points="158,-228.5 158,-247.5 305,-247.5 305,-228.5 158,-228.5"/>
<text text-anchor="middle" x="231.5" y="-235.5" font-family="Helvetica,sans-Serif" font-size="10.00">sylar::MessageFormatItem</text>
</a>
</g>
</g>
<!-- Node0&#45;&gt;Node8 -->
<g id="edge8" class="edge">
<title>Node0&#45;&gt;Node8</title>
<path fill="none" stroke="midnightblue" d="M122.4,-249.84C133.99,-248.57 146.13,-247.24 157.91,-245.95"/>
<polygon fill="midnightblue" stroke="midnightblue" points="121.93,-246.37 112.37,-250.94 122.7,-253.33 121.93,-246.37"/>
</g>
<!-- Node9 -->
<g id="node10" class="node">
<title>Node9</title>
<g id="a_node10"><a xlink:href="classsylar_1_1NewLineFormatItem.html" target="_top" xlink:title=" ">
<polygon fill="white" stroke="black" points="158.5,-190.5 158.5,-209.5 304.5,-209.5 304.5,-190.5 158.5,-190.5"/>
<text text-anchor="middle" x="231.5" y="-197.5" font-family="Helvetica,sans-Serif" font-size="10.00">sylar::NewLineFormatItem</text>
</a>
</g>
</g>
<!-- Node0&#45;&gt;Node9 -->
<g id="edge9" class="edge">
<title>Node0&#45;&gt;Node9</title>
<path fill="none" stroke="midnightblue" d="M98.56,-237.9C113.89,-231.33 131.53,-224.29 148,-219 159.05,-215.45 171.14,-212.28 182.57,-209.59"/>
<polygon fill="midnightblue" stroke="midnightblue" points="97.12,-234.71 89.35,-241.92 99.92,-241.13 97.12,-234.71"/>
</g>
<!-- Node10 -->
<g id="node11" class="node">
<title>Node10</title>
<g id="a_node11"><a xlink:href="classsylar_1_1PercentSignFormatItem.html" target="_top" xlink:title=" ">
<polygon fill="white" stroke="black" points="151,-152.5 151,-171.5 312,-171.5 312,-152.5 151,-152.5"/>
<text text-anchor="middle" x="231.5" y="-159.5" font-family="Helvetica,sans-Serif" font-size="10.00">sylar::PercentSignFormatItem</text>
</a>
</g>
</g>
<!-- Node0&#45;&gt;Node10 -->
<g id="edge10" class="edge">
<title>Node0&#45;&gt;Node10</title>
<path fill="none" stroke="midnightblue" d="M77.86,-234.56C95.08,-217.38 120.98,-194.42 148,-181 155.77,-177.14 164.33,-174.05 172.92,-171.58"/>
<polygon fill="midnightblue" stroke="midnightblue" points="75.08,-232.4 70.59,-242 80.09,-237.3 75.08,-232.4"/>
</g>
<!-- Node11 -->
<g id="node12" class="node">
<title>Node11</title>
<g id="a_node12"><a xlink:href="classsylar_1_1StringFormatItem.html" target="_top" xlink:title=" ">
<polygon fill="white" stroke="black" points="165.5,-114.5 165.5,-133.5 297.5,-133.5 297.5,-114.5 165.5,-114.5"/>
<text text-anchor="middle" x="231.5" y="-121.5" font-family="Helvetica,sans-Serif" font-size="10.00">sylar::StringFormatItem</text>
</a>
</g>
</g>
<!-- Node0&#45;&gt;Node11 -->
<g id="edge11" class="edge">
<title>Node0&#45;&gt;Node11</title>
<path fill="none" stroke="midnightblue" d="M69.74,-232.78C84.84,-206.51 112.5,-165.35 148,-143 154.22,-139.09 161.16,-135.98 168.29,-133.5"/>
<polygon fill="midnightblue" stroke="midnightblue" points="66.56,-231.28 64.75,-241.72 72.68,-234.69 66.56,-231.28"/>
</g>
<!-- Node12 -->
<g id="node13" class="node">
<title>Node12</title>
<g id="a_node13"><a xlink:href="classsylar_1_1TabFormatItem.html" target="_top" xlink:title=" ">
<polygon fill="white" stroke="black" points="171.5,-76.5 171.5,-95.5 291.5,-95.5 291.5,-76.5 171.5,-76.5"/>
<text text-anchor="middle" x="231.5" y="-83.5" font-family="Helvetica,sans-Serif" font-size="10.00">sylar::TabFormatItem</text>
</a>
</g>
</g>
<!-- Node0&#45;&gt;Node12 -->
<g id="edge12" class="edge">
<title>Node0&#45;&gt;Node12</title>
<path fill="none" stroke="midnightblue" d="M64.94,-232.02C77.14,-197.85 103.82,-137.14 148,-105 154.89,-99.99 162.9,-96.27 171.16,-93.52"/>
<polygon fill="midnightblue" stroke="midnightblue" points="61.55,-231.11 61.62,-241.71 68.17,-233.38 61.55,-231.11"/>
</g>
<!-- Node13 -->
<g id="node14" class="node">
<title>Node13</title>
<g id="a_node14"><a xlink:href="classsylar_1_1ThreadIdFormatItem.html" target="_top" xlink:title=" ">
<polygon fill="white" stroke="black" points="158.5,-38.5 158.5,-57.5 304.5,-57.5 304.5,-38.5 158.5,-38.5"/>
<text text-anchor="middle" x="231.5" y="-45.5" font-family="Helvetica,sans-Serif" font-size="10.00">sylar::ThreadIdFormatItem</text>
</a>
</g>
</g>
<!-- Node0&#45;&gt;Node13 -->
<g id="edge13" class="edge">
<title>Node0&#45;&gt;Node13</title>
<path fill="none" stroke="midnightblue" d="M61.73,-231.92C70.83,-190.86 94.8,-109.6 148,-67 152.82,-63.14 158.28,-60.04 164.03,-57.54"/>
<polygon fill="midnightblue" stroke="midnightblue" points="58.26,-231.4 59.63,-241.91 65.11,-232.84 58.26,-231.4"/>
</g>
<!-- Node14 -->
<g id="node15" class="node">
<title>Node14</title>
<g id="a_node15"><a xlink:href="classsylar_1_1ThreadNameFormatItem.html" target="_top" xlink:title=" ">
<polygon fill="white" stroke="black" points="148,-0.5 148,-19.5 315,-19.5 315,-0.5 148,-0.5"/>
<text text-anchor="middle" x="231.5" y="-7.5" font-family="Helvetica,sans-Serif" font-size="10.00">sylar::ThreadNameFormatItem</text>
</a>
</g>
</g>
<!-- Node0&#45;&gt;Node14 -->
<g id="edge14" class="edge">
<title>Node0&#45;&gt;Node14</title>
<path fill="none" stroke="midnightblue" d="M59.52,-231.73C65.64,-184.41 85.71,-82.4 148,-29 152.46,-25.17 157.55,-22.08 162.95,-19.58"/>
<polygon fill="midnightblue" stroke="midnightblue" points="56.04,-231.4 58.33,-241.75 62.99,-232.23 56.04,-231.4"/>
</g>
</g>
</svg>
