<?xml version="1.0" encoding="UTF-8" standalone="no"?>
<!DOCTYPE svg PUBLIC "-//W3C//DTD SVG 1.1//EN"
 "http://www.w3.org/Graphics/SVG/1.1/DTD/svg11.dtd">
<!-- Generated by graphviz version 2.43.0 (0)
 -->
<!-- Title: 类继承关系图 Pages: 1 -->
<svg width="262pt" height="66pt"
 viewBox="0.00 0.00 262.00 66.00" xmlns="http://www.w3.org/2000/svg" xmlns:xlink="http://www.w3.org/1999/xlink">
<g id="graph0" class="graph" transform="scale(1 1) rotate(0) translate(4 62)">
<title>类继承关系图</title>
<polygon fill="white" stroke="transparent" points="-4,4 -4,-62 258,-62 258,4 -4,4"/>
<!-- Node0 -->
<g id="node1" class="node">
<title>Node0</title>
<g id="a_node1"><a xlink:href="classsylar_1_1Scheduler.html" target="_top" xlink:title="协程调度器">
<polygon fill="white" stroke="black" points="11.5,-38.5 11.5,-57.5 106.5,-57.5 106.5,-38.5 11.5,-38.5"/>
<text text-anchor="middle" x="59" y="-45.5" font-family="Helvetica,sans-Serif" font-size="10.00">sylar::Scheduler</text>
</a>
</g>
</g>
<!-- Node1 -->
<g id="node2" class="node">
<title>Node1</title>
<g id="a_node2"><a xlink:href="classsylar_1_1IOManager.html" target="_top" xlink:title=" ">
<polygon fill="white" stroke="black" points="154,-19.5 154,-38.5 254,-38.5 254,-19.5 154,-19.5"/>
<text text-anchor="middle" x="204" y="-26.5" font-family="Helvetica,sans-Serif" font-size="10.00">sylar::IOManager</text>
</a>
</g>
</g>
<!-- Node0&#45;&gt;Node1 -->
<g id="edge1" class="edge">
<title>Node0&#45;&gt;Node1</title>
<path fill="none" stroke="midnightblue" d="M116.86,-40.44C129.02,-38.83 141.76,-37.14 153.61,-35.56"/>
<polygon fill="midnightblue" stroke="midnightblue" points="116.28,-36.99 106.82,-41.78 117.2,-43.93 116.28,-36.99"/>
</g>
<!-- Node106 -->
<g id="node3" class="node">
<title>Node106</title>
<g id="a_node3"><a xlink:href="classsylar_1_1TimerManager.html" target="_top" xlink:title="定时器管理器">
<polygon fill="white" stroke="black" points="0,-0.5 0,-19.5 118,-19.5 118,-0.5 0,-0.5"/>
<text text-anchor="middle" x="59" y="-7.5" font-family="Helvetica,sans-Serif" font-size="10.00">sylar::TimerManager</text>
</a>
</g>
</g>
<!-- Node106&#45;&gt;Node1 -->
<g id="edge2" class="edge">
<title>Node106&#45;&gt;Node1</title>
<path fill="none" stroke="midnightblue" d="M128.17,-19.06C136.74,-20.2 145.38,-21.34 153.59,-22.43"/>
<polygon fill="midnightblue" stroke="midnightblue" points="128.54,-15.58 118.16,-17.73 127.62,-22.51 128.54,-15.58"/>
</g>
</g>
</svg>
