<?xml version="1.0" encoding="UTF-8" standalone="no"?>
<!DOCTYPE svg PUBLIC "-//W3C//DTD SVG 1.1//EN"
 "http://www.w3.org/Graphics/SVG/1.1/DTD/svg11.dtd">
<!-- Generated by graphviz version 2.43.0 (0)
 -->
<!-- Title: 类继承关系图 Pages: 1 -->
<svg width="428pt" height="484pt"
 viewBox="0.00 0.00 428.00 484.00" xmlns="http://www.w3.org/2000/svg" xmlns:xlink="http://www.w3.org/1999/xlink">
<g id="graph0" class="graph" transform="scale(1 1) rotate(0) translate(4 480)">
<title>类继承关系图</title>
<polygon fill="white" stroke="transparent" points="-4,4 -4,-480 424,-480 424,4 -4,4"/>
<!-- Node13 -->
<g id="node1" class="node">
<title>Node13</title>
<g id="a_node1"><a xlink:title=" ">
<polygon fill="white" stroke="#bfbfbf" points="0.5,-375 0.5,-405 109.5,-405 109.5,-375 0.5,-375"/>
<text text-anchor="start" x="8.5" y="-393" font-family="Helvetica,sans-Serif" font-size="10.00">std::enable_shared</text>
<text text-anchor="middle" x="55" y="-382" font-family="Helvetica,sans-Serif" font-size="10.00">_from_this</text>
</a>
</g>
</g>
<!-- Node0 -->
<g id="node2" class="node">
<title>Node0</title>
<g id="a_node2"><a xlink:href="classsylar_1_1FdCtx.html" target="_top" xlink:title="文件句柄上下文类">
<polygon fill="white" stroke="black" points="165,-456.5 165,-475.5 240,-475.5 240,-456.5 165,-456.5"/>
<text text-anchor="middle" x="202.5" y="-463.5" font-family="Helvetica,sans-Serif" font-size="10.00">sylar::FdCtx</text>
</a>
</g>
</g>
<!-- Node13&#45;&gt;Node0 -->
<g id="edge1" class="edge">
<title>Node13&#45;&gt;Node0</title>
<path fill="none" stroke="midnightblue" d="M85.1,-410.89C102.25,-422.57 124.7,-436.78 146,-447 153.35,-450.52 161.52,-453.7 169.29,-456.4"/>
<polygon fill="midnightblue" stroke="midnightblue" points="86.86,-407.86 76.65,-405.05 82.88,-413.62 86.86,-407.86"/>
</g>
<!-- Node15 -->
<g id="node3" class="node">
<title>Node15</title>
<g id="a_node3"><a xlink:href="classsylar_1_1Fiber.html" target="_top" xlink:title="协程类">
<polygon fill="white" stroke="black" points="167,-418.5 167,-437.5 238,-437.5 238,-418.5 167,-418.5"/>
<text text-anchor="middle" x="202.5" y="-425.5" font-family="Helvetica,sans-Serif" font-size="10.00">sylar::Fiber</text>
</a>
</g>
</g>
<!-- Node13&#45;&gt;Node15 -->
<g id="edge2" class="edge">
<title>Node13&#45;&gt;Node15</title>
<path fill="none" stroke="midnightblue" d="M119.75,-406.65C135.97,-410.88 152.79,-415.28 166.92,-418.97"/>
<polygon fill="midnightblue" stroke="midnightblue" points="120.33,-403.18 109.77,-404.04 118.56,-409.96 120.33,-403.18"/>
</g>
<!-- Node16 -->
<g id="node4" class="node">
<title>Node16</title>
<g id="a_node4"><a xlink:href="classsylar_1_1Socket.html" target="_top" xlink:title="Socket封装类">
<polygon fill="white" stroke="black" points="163,-304.5 163,-323.5 242,-323.5 242,-304.5 163,-304.5"/>
<text text-anchor="middle" x="202.5" y="-311.5" font-family="Helvetica,sans-Serif" font-size="10.00">sylar::Socket</text>
</a>
</g>
</g>
<!-- Node13&#45;&gt;Node16 -->
<g id="edge3" class="edge">
<title>Node13&#45;&gt;Node16</title>
<path fill="none" stroke="midnightblue" d="M85.1,-369.11C102.25,-357.43 124.7,-343.22 146,-333 153.35,-329.48 161.52,-326.3 169.29,-323.6"/>
<polygon fill="midnightblue" stroke="midnightblue" points="82.88,-366.38 76.65,-374.95 86.86,-372.14 82.88,-366.38"/>
</g>
<!-- Node17 -->
<g id="node5" class="node">
<title>Node17</title>
<g id="a_node5"><a xlink:href="classsylar_1_1TcpServer.html" target="_top" xlink:title="TCP服务器封装">
<polygon fill="white" stroke="black" points="155.5,-342.5 155.5,-361.5 249.5,-361.5 249.5,-342.5 155.5,-342.5"/>
<text text-anchor="middle" x="202.5" y="-349.5" font-family="Helvetica,sans-Serif" font-size="10.00">sylar::TcpServer</text>
</a>
</g>
</g>
<!-- Node13&#45;&gt;Node17 -->
<g id="edge4" class="edge">
<title>Node13&#45;&gt;Node17</title>
<path fill="none" stroke="midnightblue" d="M119.77,-373.35C135.15,-369.33 151.07,-365.17 164.73,-361.6"/>
<polygon fill="midnightblue" stroke="midnightblue" points="118.56,-370.04 109.77,-375.96 120.33,-376.82 118.56,-370.04"/>
</g>
<!-- Node20 -->
<g id="node8" class="node">
<title>Node20</title>
<g id="a_node8"><a xlink:href="classsylar_1_1Timer.html" target="_top" xlink:title="定时器">
<polygon fill="white" stroke="black" points="165,-380.5 165,-399.5 240,-399.5 240,-380.5 165,-380.5"/>
<text text-anchor="middle" x="202.5" y="-387.5" font-family="Helvetica,sans-Serif" font-size="10.00">sylar::Timer</text>
</a>
</g>
</g>
<!-- Node13&#45;&gt;Node20 -->
<g id="edge7" class="edge">
<title>Node13&#45;&gt;Node20</title>
<path fill="none" stroke="midnightblue" d="M120.2,-390C135.45,-390 151.2,-390 164.73,-390"/>
<polygon fill="midnightblue" stroke="midnightblue" points="119.77,-386.5 109.77,-390 119.77,-393.5 119.77,-386.5"/>
</g>
<!-- Node18 -->
<g id="node6" class="node">
<title>Node18</title>
<g id="a_node6"><a xlink:href="classMyTcpServer.html" target="_top" xlink:title="自定义TcpServer类，重载handleClient方法">
<polygon fill="white" stroke="black" points="318,-361.5 318,-380.5 397,-380.5 397,-361.5 318,-361.5"/>
<text text-anchor="middle" x="357.5" y="-368.5" font-family="Helvetica,sans-Serif" font-size="10.00">MyTcpServer</text>
</a>
</g>
</g>
<!-- Node17&#45;&gt;Node18 -->
<g id="edge5" class="edge">
<title>Node17&#45;&gt;Node18</title>
<path fill="none" stroke="midnightblue" d="M259.99,-359.01C279.23,-361.4 300.29,-364.02 317.81,-366.2"/>
<polygon fill="midnightblue" stroke="midnightblue" points="260.18,-355.51 249.82,-357.75 259.31,-362.46 260.18,-355.51"/>
</g>
<!-- Node19 -->
<g id="node7" class="node">
<title>Node19</title>
<g id="a_node7"><a xlink:href="classsylar_1_1http_1_1HttpServer.html" target="_top" xlink:title="HTTP服务器类">
<polygon fill="white" stroke="black" points="295,-323.5 295,-342.5 420,-342.5 420,-323.5 295,-323.5"/>
<text text-anchor="middle" x="357.5" y="-330.5" font-family="Helvetica,sans-Serif" font-size="10.00">sylar::http::HttpServer</text>
</a>
</g>
</g>
<!-- Node17&#45;&gt;Node19 -->
<g id="edge6" class="edge">
<title>Node17&#45;&gt;Node19</title>
<path fill="none" stroke="midnightblue" d="M260.02,-344.98C271.35,-343.57 283.3,-342.09 294.8,-340.66"/>
<polygon fill="midnightblue" stroke="midnightblue" points="259.31,-341.54 249.82,-346.25 260.18,-348.49 259.31,-341.54"/>
</g>
<!-- Node81 -->
<g id="node9" class="node">
<title>Node81</title>
<g id="a_node9"><a xlink:href="classsylar_1_1Noncopyable.html" target="_top" xlink:title="对象无法拷贝,赋值">
<polygon fill="white" stroke="black" points="0,-171.5 0,-190.5 110,-190.5 110,-171.5 0,-171.5"/>
<text text-anchor="middle" x="55" y="-178.5" font-family="Helvetica,sans-Serif" font-size="10.00">sylar::Noncopyable</text>
</a>
</g>
</g>
<!-- Node81&#45;&gt;Node16 -->
<g id="edge14" class="edge">
<title>Node81&#45;&gt;Node16</title>
<path fill="none" stroke="#8b1a1a" d="M66.12,-199.69C80.64,-224.8 109.67,-269.27 146,-295 151.4,-298.83 157.64,-301.93 163.94,-304.44"/>
<polygon fill="#8b1a1a" stroke="#8b1a1a" points="69.08,-197.8 61.13,-190.79 62.98,-201.23 69.08,-197.8"/>
</g>
<!-- Node81&#45;&gt;Node17 -->
<g id="edge16" class="edge">
<title>Node81&#45;&gt;Node17</title>
<path fill="none" stroke="#8b1a1a" d="M62.42,-200.35C74.03,-232.47 101.55,-296.83 146,-333 150.74,-336.86 156.31,-339.95 162.05,-342.42"/>
<polygon fill="#8b1a1a" stroke="#8b1a1a" points="65.68,-199.07 59.09,-190.78 59.07,-201.38 65.68,-199.07"/>
</g>
<!-- Node82 -->
<g id="node10" class="node">
<title>Node82</title>
<g id="a_node10"><a xlink:href="classsylar_1_1CASLock.html" target="_top" xlink:title="原子锁">
<polygon fill="white" stroke="black" points="158,-0.5 158,-19.5 247,-19.5 247,-0.5 158,-0.5"/>
<text text-anchor="middle" x="202.5" y="-7.5" font-family="Helvetica,sans-Serif" font-size="10.00">sylar::CASLock</text>
</a>
</g>
</g>
<!-- Node81&#45;&gt;Node82 -->
<g id="edge8" class="edge">
<title>Node81&#45;&gt;Node82</title>
<path fill="none" stroke="#8b1a1a" d="M62.42,-161.65C74.03,-129.53 101.55,-65.17 146,-29 150.74,-25.14 156.31,-22.05 162.05,-19.58"/>
<polygon fill="#8b1a1a" stroke="#8b1a1a" points="59.07,-160.62 59.09,-171.22 65.68,-162.93 59.07,-160.62"/>
</g>
<!-- Node83 -->
<g id="node11" class="node">
<title>Node83</title>
<g id="a_node11"><a xlink:href="classsylar_1_1Mutex.html" target="_top" xlink:title="互斥量">
<polygon fill="white" stroke="black" points="164,-266.5 164,-285.5 241,-285.5 241,-266.5 164,-266.5"/>
<text text-anchor="middle" x="202.5" y="-273.5" font-family="Helvetica,sans-Serif" font-size="10.00">sylar::Mutex</text>
</a>
</g>
</g>
<!-- Node81&#45;&gt;Node83 -->
<g id="edge9" class="edge">
<title>Node81&#45;&gt;Node83</title>
<path fill="none" stroke="#8b1a1a" d="M72.52,-198.29C89.55,-215.26 117.56,-240.88 146,-257 152.56,-260.72 159.96,-263.87 167.17,-266.48"/>
<polygon fill="#8b1a1a" stroke="#8b1a1a" points="74.59,-195.41 65.08,-190.73 69.6,-200.32 74.59,-195.41"/>
</g>
<!-- Node84 -->
<g id="node12" class="node">
<title>Node84</title>
<g id="a_node12"><a xlink:href="classsylar_1_1NullMutex.html" target="_top" xlink:title="空锁(用于调试)">
<polygon fill="white" stroke="black" points="154,-228.5 154,-247.5 251,-247.5 251,-228.5 154,-228.5"/>
<text text-anchor="middle" x="202.5" y="-235.5" font-family="Helvetica,sans-Serif" font-size="10.00">sylar::NullMutex</text>
</a>
</g>
</g>
<!-- Node81&#45;&gt;Node84 -->
<g id="edge10" class="edge">
<title>Node81&#45;&gt;Node84</title>
<path fill="none" stroke="#8b1a1a" d="M87.21,-194.81C104.43,-202.27 126.26,-211.47 146,-219 154.47,-222.23 163.76,-225.51 172.27,-228.42"/>
<polygon fill="#8b1a1a" stroke="#8b1a1a" points="88.22,-191.43 77.65,-190.64 85.42,-197.85 88.22,-191.43"/>
</g>
<!-- Node85 -->
<g id="node13" class="node">
<title>Node85</title>
<g id="a_node13"><a xlink:href="classsylar_1_1NullRWMutex.html" target="_top" xlink:title="空读写锁(用于调试)">
<polygon fill="white" stroke="black" points="146,-190.5 146,-209.5 259,-209.5 259,-190.5 146,-190.5"/>
<text text-anchor="middle" x="202.5" y="-197.5" font-family="Helvetica,sans-Serif" font-size="10.00">sylar::NullRWMutex</text>
</a>
</g>
</g>
<!-- Node81&#45;&gt;Node85 -->
<g id="edge11" class="edge">
<title>Node81&#45;&gt;Node85</title>
<path fill="none" stroke="#8b1a1a" d="M120.13,-189.37C128.69,-190.49 137.42,-191.63 145.82,-192.73"/>
<polygon fill="#8b1a1a" stroke="#8b1a1a" points="120.55,-185.9 110.18,-188.07 119.64,-192.84 120.55,-185.9"/>
</g>
<!-- Node86 -->
<g id="node14" class="node">
<title>Node86</title>
<g id="a_node14"><a xlink:href="classsylar_1_1RWMutex.html" target="_top" xlink:title="读写互斥量">
<polygon fill="white" stroke="black" points="155.5,-152.5 155.5,-171.5 249.5,-171.5 249.5,-152.5 155.5,-152.5"/>
<text text-anchor="middle" x="202.5" y="-159.5" font-family="Helvetica,sans-Serif" font-size="10.00">sylar::RWMutex</text>
</a>
</g>
</g>
<!-- Node81&#45;&gt;Node86 -->
<g id="edge12" class="edge">
<title>Node81&#45;&gt;Node86</title>
<path fill="none" stroke="#8b1a1a" d="M120.42,-172.59C132.2,-171.05 144.28,-169.47 155.39,-168.02"/>
<polygon fill="#8b1a1a" stroke="#8b1a1a" points="119.64,-169.16 110.18,-173.93 120.55,-176.1 119.64,-169.16"/>
</g>
<!-- Node87 -->
<g id="node15" class="node">
<title>Node87</title>
<g id="a_node15"><a xlink:href="classsylar_1_1Semaphore.html" target="_top" xlink:title="信号量">
<polygon fill="white" stroke="black" points="151.5,-114.5 151.5,-133.5 253.5,-133.5 253.5,-114.5 151.5,-114.5"/>
<text text-anchor="middle" x="202.5" y="-121.5" font-family="Helvetica,sans-Serif" font-size="10.00">sylar::Semaphore</text>
</a>
</g>
</g>
<!-- Node81&#45;&gt;Node87 -->
<g id="edge13" class="edge">
<title>Node81&#45;&gt;Node87</title>
<path fill="none" stroke="#8b1a1a" d="M87.21,-167.19C104.43,-159.73 126.26,-150.53 146,-143 154.47,-139.77 163.76,-136.49 172.27,-133.58"/>
<polygon fill="#8b1a1a" stroke="#8b1a1a" points="85.42,-164.15 77.65,-171.36 88.22,-170.57 85.42,-164.15"/>
</g>
<!-- Node88 -->
<g id="node16" class="node">
<title>Node88</title>
<g id="a_node16"><a xlink:href="classsylar_1_1Spinlock.html" target="_top" xlink:title="自旋锁">
<polygon fill="white" stroke="black" points="158.5,-76.5 158.5,-95.5 246.5,-95.5 246.5,-76.5 158.5,-76.5"/>
<text text-anchor="middle" x="202.5" y="-83.5" font-family="Helvetica,sans-Serif" font-size="10.00">sylar::Spinlock</text>
</a>
</g>
</g>
<!-- Node81&#45;&gt;Node88 -->
<g id="edge15" class="edge">
<title>Node81&#45;&gt;Node88</title>
<path fill="none" stroke="#8b1a1a" d="M72.52,-163.71C89.55,-146.74 117.56,-121.12 146,-105 152.56,-101.28 159.96,-98.13 167.17,-95.52"/>
<polygon fill="#8b1a1a" stroke="#8b1a1a" points="69.6,-161.68 65.08,-171.27 74.59,-166.59 69.6,-161.68"/>
</g>
<!-- Node89 -->
<g id="node17" class="node">
<title>Node89</title>
<g id="a_node17"><a xlink:href="classsylar_1_1Thread.html" target="_top" xlink:title="线程类">
<polygon fill="white" stroke="black" points="162.5,-38.5 162.5,-57.5 242.5,-57.5 242.5,-38.5 162.5,-38.5"/>
<text text-anchor="middle" x="202.5" y="-45.5" font-family="Helvetica,sans-Serif" font-size="10.00">sylar::Thread</text>
</a>
</g>
</g>
<!-- Node81&#45;&gt;Node89 -->
<g id="edge17" class="edge">
<title>Node81&#45;&gt;Node89</title>
<path fill="none" stroke="#8b1a1a" d="M66.12,-162.31C80.64,-137.2 109.67,-92.73 146,-67 151.4,-63.17 157.64,-60.07 163.94,-57.56"/>
<polygon fill="#8b1a1a" stroke="#8b1a1a" points="62.98,-160.77 61.13,-171.21 69.08,-164.2 62.98,-160.77"/>
</g>
</g>
</svg>
