<?xml version="1.0" encoding="UTF-8" standalone="no"?>
<!DOCTYPE svg PUBLIC "-//W3C//DTD SVG 1.1//EN"
 "http://www.w3.org/Graphics/SVG/1.1/DTD/svg11.dtd">
<!-- Generated by graphviz version 2.43.0 (0)
 -->
<!-- Title: 类继承关系图 Pages: 1 -->
<svg width="361pt" height="78pt"
 viewBox="0.00 0.00 361.00 77.50" xmlns="http://www.w3.org/2000/svg" xmlns:xlink="http://www.w3.org/1999/xlink">
<g id="graph0" class="graph" transform="scale(1 1) rotate(0) translate(4 73.5)">
<title>类继承关系图</title>
<polygon fill="white" stroke="transparent" points="-4,4 -4,-73.5 357,-73.5 357,4 -4,4"/>
<!-- Node0 -->
<g id="node1" class="node">
<title>Node0</title>
<g id="a_node1"><a xlink:href="classsylar_1_1http_1_1IServletCreator.html" target="_top" xlink:title=" ">
<polygon fill="white" stroke="black" points="0,-22.5 0,-41.5 146,-41.5 146,-22.5 0,-22.5"/>
<text text-anchor="middle" x="73" y="-29.5" font-family="Helvetica,sans-Serif" font-size="10.00">sylar::http::IServletCreator</text>
</a>
</g>
</g>
<!-- Node1 -->
<g id="node2" class="node">
<title>Node1</title>
<g id="a_node2"><a xlink:href="classsylar_1_1http_1_1HoldServletCreator.html" target="_top" xlink:title=" ">
<polygon fill="white" stroke="black" points="203,-39 203,-69 332,-69 332,-39 203,-39"/>
<text text-anchor="start" x="211" y="-57" font-family="Helvetica,sans-Serif" font-size="10.00">sylar::http::HoldServlet</text>
<text text-anchor="middle" x="267.5" y="-46" font-family="Helvetica,sans-Serif" font-size="10.00">Creator</text>
</a>
</g>
</g>
<!-- Node0&#45;&gt;Node1 -->
<g id="edge1" class="edge">
<title>Node0&#45;&gt;Node1</title>
<path fill="none" stroke="midnightblue" d="M156.34,-41.41C171.86,-43.18 187.88,-45.01 202.73,-46.71"/>
<polygon fill="midnightblue" stroke="midnightblue" points="156.56,-37.91 146.23,-40.25 155.77,-44.87 156.56,-37.91"/>
</g>
<!-- Node2 -->
<g id="node3" class="node">
<title>Node2</title>
<g id="a_node3"><a xlink:href="classsylar_1_1http_1_1ServletCreator.html" target="_top" xlink:title=" ">
<polygon fill="white" stroke="black" points="182,-0.5 182,-19.5 353,-19.5 353,-0.5 182,-0.5"/>
<text text-anchor="middle" x="267.5" y="-7.5" font-family="Helvetica,sans-Serif" font-size="10.00">sylar::http::ServletCreator&lt; T &gt;</text>
</a>
</g>
</g>
<!-- Node0&#45;&gt;Node2 -->
<g id="edge2" class="edge">
<title>Node0&#45;&gt;Node2</title>
<path fill="none" stroke="midnightblue" d="M156.22,-22.6C165.15,-21.58 174.24,-20.54 183.18,-19.52"/>
<polygon fill="midnightblue" stroke="midnightblue" points="155.77,-19.13 146.23,-23.75 156.56,-26.09 155.77,-19.13"/>
</g>
</g>
</svg>
