<?xml version="1.0" encoding="UTF-8" standalone="no"?>
<!DOCTYPE svg PUBLIC "-//W3C//DTD SVG 1.1//EN"
 "http://www.w3.org/Graphics/SVG/1.1/DTD/svg11.dtd">
<!-- Generated by graphviz version 2.43.0 (0)
 -->
<!-- Title: 类继承关系图 Pages: 1 -->
<svg width="304pt" height="104pt"
 viewBox="0.00 0.00 304.00 104.00" xmlns="http://www.w3.org/2000/svg" xmlns:xlink="http://www.w3.org/1999/xlink">
<g id="graph0" class="graph" transform="scale(1 1) rotate(0) translate(4 100)">
<title>类继承关系图</title>
<polygon fill="white" stroke="transparent" points="-4,4 -4,-100 300,-100 300,4 -4,4"/>
<!-- Node0 -->
<g id="node1" class="node">
<title>Node0</title>
<g id="a_node1"><a xlink:href="classsylar_1_1http_1_1Servlet.html" target="_top" xlink:title="Servlet封装">
<polygon fill="white" stroke="black" points="0,-38.5 0,-57.5 107,-57.5 107,-38.5 0,-38.5"/>
<text text-anchor="middle" x="53.5" y="-45.5" font-family="Helvetica,sans-Serif" font-size="10.00">sylar::http::Servlet</text>
</a>
</g>
</g>
<!-- Node1 -->
<g id="node2" class="node">
<title>Node1</title>
<g id="a_node2"><a xlink:href="classsylar_1_1http_1_1FunctionServlet.html" target="_top" xlink:title="函数式Servlet">
<polygon fill="white" stroke="black" points="145.5,-76.5 145.5,-95.5 293.5,-95.5 293.5,-76.5 145.5,-76.5"/>
<text text-anchor="middle" x="219.5" y="-83.5" font-family="Helvetica,sans-Serif" font-size="10.00">sylar::http::FunctionServlet</text>
</a>
</g>
</g>
<!-- Node0&#45;&gt;Node1 -->
<g id="edge1" class="edge">
<title>Node0&#45;&gt;Node1</title>
<path fill="none" stroke="midnightblue" d="M105.84,-59.9C128.89,-65.24 155.72,-71.45 177.41,-76.48"/>
<polygon fill="midnightblue" stroke="midnightblue" points="106.42,-56.44 95.88,-57.59 104.84,-63.26 106.42,-56.44"/>
</g>
<!-- Node2 -->
<g id="node3" class="node">
<title>Node2</title>
<g id="a_node3"><a xlink:href="classsylar_1_1http_1_1NotFoundServlet.html" target="_top" xlink:title="NotFoundServlet(默认返回404)">
<polygon fill="white" stroke="black" points="143,-38.5 143,-57.5 296,-57.5 296,-38.5 143,-38.5"/>
<text text-anchor="middle" x="219.5" y="-45.5" font-family="Helvetica,sans-Serif" font-size="10.00">sylar::http::NotFoundServlet</text>
</a>
</g>
</g>
<!-- Node0&#45;&gt;Node2 -->
<g id="edge2" class="edge">
<title>Node0&#45;&gt;Node2</title>
<path fill="none" stroke="midnightblue" d="M117.31,-48C125.65,-48 134.28,-48 142.81,-48"/>
<polygon fill="midnightblue" stroke="midnightblue" points="117.29,-44.5 107.29,-48 117.29,-51.5 117.29,-44.5"/>
</g>
<!-- Node3 -->
<g id="node4" class="node">
<title>Node3</title>
<g id="a_node4"><a xlink:href="classsylar_1_1http_1_1ServletDispatch.html" target="_top" xlink:title="Servlet分发器">
<polygon fill="white" stroke="black" points="145,-0.5 145,-19.5 294,-19.5 294,-0.5 145,-0.5"/>
<text text-anchor="middle" x="219.5" y="-7.5" font-family="Helvetica,sans-Serif" font-size="10.00">sylar::http::ServletDispatch</text>
</a>
</g>
</g>
<!-- Node0&#45;&gt;Node3 -->
<g id="edge3" class="edge">
<title>Node0&#45;&gt;Node3</title>
<path fill="none" stroke="midnightblue" d="M105.84,-36.1C128.89,-30.76 155.72,-24.55 177.41,-19.52"/>
<polygon fill="midnightblue" stroke="midnightblue" points="104.84,-32.74 95.88,-38.41 106.42,-39.56 104.84,-32.74"/>
</g>
</g>
</svg>
