<?xml version="1.0" encoding="UTF-8" standalone="no"?>
<!DOCTYPE svg PUBLIC "-//W3C//DTD SVG 1.1//EN"
 "http://www.w3.org/Graphics/SVG/1.1/DTD/svg11.dtd">
<!-- Generated by graphviz version 2.43.0 (0)
 -->
<!-- Title: sylar/iomanager.h Pages: 1 -->
<svg width="1320pt" height="308pt"
 viewBox="0.00 0.00 1319.50 308.00" xmlns="http://www.w3.org/2000/svg" xmlns:xlink="http://www.w3.org/1999/xlink">
<g id="graph0" class="graph" transform="scale(1 1) rotate(0) translate(4 304)">
<title>sylar/iomanager.h</title>
<polygon fill="white" stroke="transparent" points="-4,4 -4,-304 1315.5,-304 1315.5,4 -4,4"/>
<!-- Node1 -->
<g id="node1" class="node">
<title>Node1</title>
<g id="a_node1"><a xlink:title="IO协程调度器">
<polygon fill="#bfbfbf" stroke="black" points="815.5,-280.5 815.5,-299.5 919.5,-299.5 919.5,-280.5 815.5,-280.5"/>
<text text-anchor="middle" x="867.5" y="-287.5" font-family="Helvetica,sans-Serif" font-size="10.00">sylar/iomanager.h</text>
</a>
</g>
</g>
<!-- Node2 -->
<g id="node2" class="node">
<title>Node2</title>
<g id="a_node2"><a xlink:href="scheduler_8h.html" target="_top" xlink:title="协程调度器实现">
<polygon fill="white" stroke="black" points="467.5,-224.5 467.5,-243.5 539.5,-243.5 539.5,-224.5 467.5,-224.5"/>
<text text-anchor="middle" x="503.5" y="-231.5" font-family="Helvetica,sans-Serif" font-size="10.00">scheduler.h</text>
</a>
</g>
</g>
<!-- Node1&#45;&gt;Node2 -->
<g id="edge1" class="edge">
<title>Node1&#45;&gt;Node2</title>
<path fill="none" stroke="midnightblue" d="M815.35,-281.26C744.11,-270.69 617.48,-251.91 549.57,-241.83"/>
<polygon fill="midnightblue" stroke="midnightblue" points="549.99,-238.36 539.59,-240.35 548.97,-245.28 549.99,-238.36"/>
</g>
<!-- Node29 -->
<g id="node29" class="node">
<title>Node29</title>
<g id="a_node29"><a xlink:href="timer_8h.html" target="_top" xlink:title="定时器封装">
<polygon fill="white" stroke="black" points="1242,-112.5 1242,-131.5 1293,-131.5 1293,-112.5 1242,-112.5"/>
<text text-anchor="middle" x="1267.5" y="-119.5" font-family="Helvetica,sans-Serif" font-size="10.00">timer.h</text>
</a>
</g>
</g>
<!-- Node1&#45;&gt;Node29 -->
<g id="edge44" class="edge">
<title>Node1&#45;&gt;Node29</title>
<path fill="none" stroke="midnightblue" d="M919.81,-286.13C994.92,-279.6 1134.48,-258.18 1227.5,-188 1243.33,-176.06 1254.32,-155.86 1260.72,-141.14"/>
<polygon fill="midnightblue" stroke="midnightblue" points="1264.08,-142.18 1264.58,-131.59 1257.59,-139.56 1264.08,-142.18"/>
</g>
<!-- Node3 -->
<g id="node3" class="node">
<title>Node3</title>
<g id="a_node3"><a xlink:title=" ">
<polygon fill="white" stroke="#bfbfbf" points="0,-0.5 0,-19.5 65,-19.5 65,-0.5 0,-0.5"/>
<text text-anchor="middle" x="32.5" y="-7.5" font-family="Helvetica,sans-Serif" font-size="10.00">functional</text>
</a>
</g>
</g>
<!-- Node2&#45;&gt;Node3 -->
<g id="edge2" class="edge">
<title>Node2&#45;&gt;Node3</title>
<path fill="none" stroke="midnightblue" d="M470.41,-224.44C440.66,-216.35 396,-203.19 358.5,-188 256.44,-146.65 233.51,-129.92 137.5,-76 108.03,-59.45 75.03,-38.63 54.03,-25.08"/>
<polygon fill="midnightblue" stroke="midnightblue" points="55.84,-22.08 45.54,-19.58 52.03,-27.95 55.84,-22.08"/>
</g>
<!-- Node4 -->
<g id="node4" class="node">
<title>Node4</title>
<g id="a_node4"><a xlink:title=" ">
<polygon fill="white" stroke="#bfbfbf" points="83.5,-0.5 83.5,-19.5 115.5,-19.5 115.5,-0.5 83.5,-0.5"/>
<text text-anchor="middle" x="99.5" y="-7.5" font-family="Helvetica,sans-Serif" font-size="10.00">list</text>
</a>
</g>
</g>
<!-- Node2&#45;&gt;Node4 -->
<g id="edge3" class="edge">
<title>Node2&#45;&gt;Node4</title>
<path fill="none" stroke="midnightblue" d="M481.63,-224.46C460.33,-215.93 427.2,-202.1 399.5,-188 291.9,-133.25 169.68,-56.25 121.08,-25"/>
<polygon fill="midnightblue" stroke="midnightblue" points="122.92,-22.03 112.62,-19.55 119.13,-27.91 122.92,-22.03"/>
</g>
<!-- Node5 -->
<g id="node5" class="node">
<title>Node5</title>
<g id="a_node5"><a xlink:title=" ">
<polygon fill="white" stroke="#bfbfbf" points="1115.5,-0.5 1115.5,-19.5 1173.5,-19.5 1173.5,-0.5 1115.5,-0.5"/>
<text text-anchor="middle" x="1144.5" y="-7.5" font-family="Helvetica,sans-Serif" font-size="10.00">memory</text>
</a>
</g>
</g>
<!-- Node2&#45;&gt;Node5 -->
<g id="edge4" class="edge">
<title>Node2&#45;&gt;Node5</title>
<path fill="none" stroke="midnightblue" d="M539.66,-228.6C623.98,-217.75 839.59,-186.55 1012.5,-132 1071.33,-113.44 1103.85,-126.34 1139.5,-76 1148.89,-62.73 1149.32,-43.9 1147.89,-29.91"/>
<polygon fill="midnightblue" stroke="midnightblue" points="1151.34,-29.35 1146.47,-19.94 1144.41,-30.33 1151.34,-29.35"/>
</g>
<!-- Node6 -->
<g id="node6" class="node">
<title>Node6</title>
<g id="a_node6"><a xlink:title=" ">
<polygon fill="white" stroke="#bfbfbf" points="625.5,-0.5 625.5,-19.5 669.5,-19.5 669.5,-0.5 625.5,-0.5"/>
<text text-anchor="middle" x="647.5" y="-7.5" font-family="Helvetica,sans-Serif" font-size="10.00">string</text>
</a>
</g>
</g>
<!-- Node2&#45;&gt;Node6 -->
<g id="edge5" class="edge">
<title>Node2&#45;&gt;Node6</title>
<path fill="none" stroke="midnightblue" d="M507.36,-224.41C519.47,-197.95 558.56,-115.83 603.5,-56 611.44,-45.43 621.7,-34.8 630.31,-26.53"/>
<polygon fill="midnightblue" stroke="midnightblue" points="632.74,-29.05 637.65,-19.67 627.96,-23.94 632.74,-29.05"/>
</g>
<!-- Node7 -->
<g id="node7" class="node">
<title>Node7</title>
<g id="a_node7"><a xlink:href="fiber_8h.html" target="_top" xlink:title="协程模块">
<polygon fill="white" stroke="black" points="409,-168.5 409,-187.5 456,-187.5 456,-168.5 409,-168.5"/>
<text text-anchor="middle" x="432.5" y="-175.5" font-family="Helvetica,sans-Serif" font-size="10.00">fiber.h</text>
</a>
</g>
</g>
<!-- Node2&#45;&gt;Node7 -->
<g id="edge6" class="edge">
<title>Node2&#45;&gt;Node7</title>
<path fill="none" stroke="midnightblue" d="M492.09,-224.32C481.39,-216.18 465.16,-203.84 452.34,-194.09"/>
<polygon fill="midnightblue" stroke="midnightblue" points="454.19,-191.1 444.11,-187.83 449.96,-196.67 454.19,-191.1"/>
</g>
<!-- Node9 -->
<g id="node9" class="node">
<title>Node9</title>
<g id="a_node9"><a xlink:href="thread_8h.html" target="_top" xlink:title="线程相关的封装">
<polygon fill="white" stroke="black" points="437,-112.5 437,-131.5 494,-131.5 494,-112.5 437,-112.5"/>
<text text-anchor="middle" x="465.5" y="-119.5" font-family="Helvetica,sans-Serif" font-size="10.00">thread.h</text>
</a>
</g>
</g>
<!-- Node2&#45;&gt;Node9 -->
<g id="edge43" class="edge">
<title>Node2&#45;&gt;Node9</title>
<path fill="none" stroke="midnightblue" d="M500.52,-224.37C494.36,-206.54 480.11,-165.3 471.81,-141.27"/>
<polygon fill="midnightblue" stroke="midnightblue" points="475.04,-139.9 468.47,-131.59 468.43,-142.19 475.04,-139.9"/>
</g>
<!-- Node17 -->
<g id="node17" class="node">
<title>Node17</title>
<g id="a_node17"><a xlink:href="log_8h.html" target="_top" xlink:title="日志模块">
<polygon fill="white" stroke="black" points="676,-112.5 676,-131.5 717,-131.5 717,-112.5 676,-112.5"/>
<text text-anchor="middle" x="696.5" y="-119.5" font-family="Helvetica,sans-Serif" font-size="10.00">log.h</text>
</a>
</g>
</g>
<!-- Node2&#45;&gt;Node17 -->
<g id="edge22" class="edge">
<title>Node2&#45;&gt;Node17</title>
<path fill="none" stroke="midnightblue" d="M518.64,-224.37C552.05,-205.33 632.26,-159.62 672.55,-136.65"/>
<polygon fill="midnightblue" stroke="midnightblue" points="674.47,-139.58 681.43,-131.59 671,-133.5 674.47,-139.58"/>
</g>
<!-- Node7&#45;&gt;Node3 -->
<g id="edge7" class="edge">
<title>Node7&#45;&gt;Node3</title>
<path fill="none" stroke="midnightblue" d="M411.84,-168.42C346,-141.1 140.94,-56 62.99,-23.65"/>
<polygon fill="midnightblue" stroke="midnightblue" points="63.86,-20.22 53.28,-19.62 61.17,-26.69 63.86,-20.22"/>
</g>
<!-- Node7&#45;&gt;Node5 -->
<g id="edge8" class="edge">
<title>Node7&#45;&gt;Node5</title>
<path fill="none" stroke="midnightblue" d="M456.23,-176.55C564.51,-174.08 1011.05,-158.92 1117.5,-76 1131.79,-64.87 1138.58,-44.84 1141.77,-29.95"/>
<polygon fill="midnightblue" stroke="midnightblue" points="1145.27,-30.25 1143.57,-19.79 1138.38,-29.03 1145.27,-30.25"/>
</g>
<!-- Node8 -->
<g id="node8" class="node">
<title>Node8</title>
<g id="a_node8"><a xlink:title=" ">
<polygon fill="white" stroke="#bfbfbf" points="350.5,-112.5 350.5,-131.5 418.5,-131.5 418.5,-112.5 350.5,-112.5"/>
<text text-anchor="middle" x="384.5" y="-119.5" font-family="Helvetica,sans-Serif" font-size="10.00">ucontext.h</text>
</a>
</g>
</g>
<!-- Node7&#45;&gt;Node8 -->
<g id="edge9" class="edge">
<title>Node7&#45;&gt;Node8</title>
<path fill="none" stroke="midnightblue" d="M424.57,-168.08C417.65,-160.3 407.43,-148.8 399.05,-139.37"/>
<polygon fill="midnightblue" stroke="midnightblue" points="401.54,-136.9 392.28,-131.75 396.31,-141.55 401.54,-136.9"/>
</g>
<!-- Node7&#45;&gt;Node9 -->
<g id="edge10" class="edge">
<title>Node7&#45;&gt;Node9</title>
<path fill="none" stroke="midnightblue" d="M437.95,-168.08C442.51,-160.61 449.17,-149.72 454.79,-140.52"/>
<polygon fill="midnightblue" stroke="midnightblue" points="457.92,-142.11 460.15,-131.75 451.95,-138.46 457.92,-142.11"/>
</g>
<!-- Node9&#45;&gt;Node6 -->
<g id="edge11" class="edge">
<title>Node9&#45;&gt;Node6</title>
<path fill="none" stroke="midnightblue" d="M468.89,-112.49C474.84,-98.64 488.46,-71.23 508.5,-56 517.21,-49.38 577.35,-31.23 615.61,-20.11"/>
<polygon fill="midnightblue" stroke="midnightblue" points="616.66,-23.45 625.3,-17.31 614.72,-16.73 616.66,-23.45"/>
</g>
<!-- Node10 -->
<g id="node10" class="node">
<title>Node10</title>
<g id="a_node10"><a xlink:href="mutex_8h.html" target="_top" xlink:title="信号量，互斥锁，读写锁，范围锁模板，自旋锁，原子锁">
<polygon fill="white" stroke="black" points="399,-56.5 399,-75.5 456,-75.5 456,-56.5 399,-56.5"/>
<text text-anchor="middle" x="427.5" y="-63.5" font-family="Helvetica,sans-Serif" font-size="10.00">mutex.h</text>
</a>
</g>
</g>
<!-- Node9&#45;&gt;Node10 -->
<g id="edge12" class="edge">
<title>Node9&#45;&gt;Node10</title>
<path fill="none" stroke="midnightblue" d="M459.23,-112.08C453.86,-104.46 445.98,-93.26 439.42,-83.94"/>
<polygon fill="midnightblue" stroke="midnightblue" points="442.28,-81.91 433.66,-75.75 436.55,-85.94 442.28,-81.91"/>
</g>
<!-- Node10&#45;&gt;Node3 -->
<g id="edge14" class="edge">
<title>Node10&#45;&gt;Node3</title>
<path fill="none" stroke="midnightblue" d="M398.55,-62.15C339.64,-56.16 201.43,-41.2 74.87,-19.92"/>
<polygon fill="midnightblue" stroke="midnightblue" points="75.45,-16.47 65.01,-18.25 74.28,-23.37 75.45,-16.47"/>
</g>
<!-- Node10&#45;&gt;Node4 -->
<g id="edge20" class="edge">
<title>Node10&#45;&gt;Node4</title>
<path fill="none" stroke="midnightblue" d="M398.72,-62.64C346.09,-57.92 230.78,-45.69 125.58,-19.84"/>
<polygon fill="midnightblue" stroke="midnightblue" points="126.31,-16.41 115.76,-17.38 124.61,-23.2 126.31,-16.41"/>
</g>
<!-- Node10&#45;&gt;Node5 -->
<g id="edge15" class="edge">
<title>Node10&#45;&gt;Node5</title>
<path fill="none" stroke="midnightblue" d="M456.2,-63.58C546.91,-58.97 835.46,-43.36 1073.5,-20 1083.79,-18.99 1094.9,-17.68 1105.2,-16.38"/>
<polygon fill="midnightblue" stroke="midnightblue" points="1105.71,-19.85 1115.18,-15.09 1104.81,-12.91 1105.71,-19.85"/>
</g>
<!-- Node11 -->
<g id="node11" class="node">
<title>Node11</title>
<g id="a_node11"><a xlink:title=" ">
<polygon fill="white" stroke="#bfbfbf" points="239.5,-0.5 239.5,-19.5 287.5,-19.5 287.5,-0.5 239.5,-0.5"/>
<text text-anchor="middle" x="263.5" y="-7.5" font-family="Helvetica,sans-Serif" font-size="10.00">thread</text>
</a>
</g>
</g>
<!-- Node10&#45;&gt;Node11 -->
<g id="edge13" class="edge">
<title>Node10&#45;&gt;Node11</title>
<path fill="none" stroke="midnightblue" d="M401.51,-56.44C373.31,-47.16 328.19,-32.3 297.26,-22.12"/>
<polygon fill="midnightblue" stroke="midnightblue" points="298.35,-18.79 287.76,-18.99 296.16,-25.44 298.35,-18.79"/>
</g>
<!-- Node12 -->
<g id="node12" class="node">
<title>Node12</title>
<g id="a_node12"><a xlink:title=" ">
<polygon fill="white" stroke="#bfbfbf" points="306,-0.5 306,-19.5 369,-19.5 369,-0.5 306,-0.5"/>
<text text-anchor="middle" x="337.5" y="-7.5" font-family="Helvetica,sans-Serif" font-size="10.00">pthread.h</text>
</a>
</g>
</g>
<!-- Node10&#45;&gt;Node12 -->
<g id="edge16" class="edge">
<title>Node10&#45;&gt;Node12</title>
<path fill="none" stroke="midnightblue" d="M413.04,-56.32C399,-47.9 377.45,-34.97 360.96,-25.07"/>
<polygon fill="midnightblue" stroke="midnightblue" points="362.3,-21.8 351.92,-19.65 358.7,-27.8 362.3,-21.8"/>
</g>
<!-- Node13 -->
<g id="node13" class="node">
<title>Node13</title>
<g id="a_node13"><a xlink:title=" ">
<polygon fill="white" stroke="#bfbfbf" points="387.5,-0.5 387.5,-19.5 467.5,-19.5 467.5,-0.5 387.5,-0.5"/>
<text text-anchor="middle" x="427.5" y="-7.5" font-family="Helvetica,sans-Serif" font-size="10.00">semaphore.h</text>
</a>
</g>
</g>
<!-- Node10&#45;&gt;Node13 -->
<g id="edge17" class="edge">
<title>Node10&#45;&gt;Node13</title>
<path fill="none" stroke="midnightblue" d="M427.5,-56.08C427.5,-49.01 427.5,-38.86 427.5,-29.99"/>
<polygon fill="midnightblue" stroke="midnightblue" points="431,-29.75 427.5,-19.75 424,-29.75 431,-29.75"/>
</g>
<!-- Node14 -->
<g id="node14" class="node">
<title>Node14</title>
<g id="a_node14"><a xlink:title=" ">
<polygon fill="white" stroke="#bfbfbf" points="554,-0.5 554,-19.5 607,-19.5 607,-0.5 554,-0.5"/>
<text text-anchor="middle" x="580.5" y="-7.5" font-family="Helvetica,sans-Serif" font-size="10.00">stdint.h</text>
</a>
</g>
</g>
<!-- Node10&#45;&gt;Node14 -->
<g id="edge18" class="edge">
<title>Node10&#45;&gt;Node14</title>
<path fill="none" stroke="midnightblue" d="M451.74,-56.44C477.37,-47.4 517.99,-33.06 546.74,-22.92"/>
<polygon fill="midnightblue" stroke="midnightblue" points="548.11,-26.15 556.37,-19.52 545.78,-19.54 548.11,-26.15"/>
</g>
<!-- Node15 -->
<g id="node15" class="node">
<title>Node15</title>
<g id="a_node15"><a xlink:title=" ">
<polygon fill="white" stroke="#bfbfbf" points="485.5,-0.5 485.5,-19.5 535.5,-19.5 535.5,-0.5 485.5,-0.5"/>
<text text-anchor="middle" x="510.5" y="-7.5" font-family="Helvetica,sans-Serif" font-size="10.00">atomic</text>
</a>
</g>
</g>
<!-- Node10&#45;&gt;Node15 -->
<g id="edge19" class="edge">
<title>Node10&#45;&gt;Node15</title>
<path fill="none" stroke="midnightblue" d="M440.84,-56.32C453.66,-47.98 473.28,-35.21 488.44,-25.35"/>
<polygon fill="midnightblue" stroke="midnightblue" points="490.72,-28.04 497.2,-19.65 486.91,-22.17 490.72,-28.04"/>
</g>
<!-- Node16 -->
<g id="node16" class="node">
<title>Node16</title>
<g id="a_node16"><a xlink:href="noncopyable_8h.html" target="_top" xlink:title="不可拷贝对象封装">
<polygon fill="white" stroke="black" points="133.5,-0.5 133.5,-19.5 221.5,-19.5 221.5,-0.5 133.5,-0.5"/>
<text text-anchor="middle" x="177.5" y="-7.5" font-family="Helvetica,sans-Serif" font-size="10.00">noncopyable.h</text>
</a>
</g>
</g>
<!-- Node10&#45;&gt;Node16 -->
<g id="edge21" class="edge">
<title>Node10&#45;&gt;Node16</title>
<path fill="none" stroke="midnightblue" d="M398.82,-58.81C356.86,-49.74 278.15,-32.74 226.79,-21.65"/>
<polygon fill="midnightblue" stroke="midnightblue" points="227.42,-18.2 216.9,-19.51 225.94,-25.04 227.42,-18.2"/>
</g>
<!-- Node17&#45;&gt;Node4 -->
<g id="edge30" class="edge">
<title>Node17&#45;&gt;Node4</title>
<path fill="none" stroke="midnightblue" d="M675.9,-118.9C601.95,-111.06 343.21,-80.86 125.23,-19.88"/>
<polygon fill="midnightblue" stroke="midnightblue" points="126.11,-16.49 115.53,-17.14 124.2,-23.23 126.11,-16.49"/>
</g>
<!-- Node17&#45;&gt;Node5 -->
<g id="edge24" class="edge">
<title>Node17&#45;&gt;Node5</title>
<path fill="none" stroke="midnightblue" d="M717.27,-120.09C765.97,-117.48 890.84,-107.94 989.5,-76 1008.03,-70 1010.73,-63.98 1028.5,-56 1055.74,-43.77 1087.39,-31.63 1110.74,-23.04"/>
<polygon fill="midnightblue" stroke="midnightblue" points="1112.01,-26.3 1120.21,-19.59 1109.61,-19.73 1112.01,-26.3"/>
</g>
<!-- Node17&#45;&gt;Node6 -->
<g id="edge23" class="edge">
<title>Node17&#45;&gt;Node6</title>
<path fill="none" stroke="midnightblue" d="M675.95,-116.7C655.32,-111.17 624.64,-99.35 610.5,-76 600.49,-59.47 614.62,-40.2 628.21,-26.95"/>
<polygon fill="midnightblue" stroke="midnightblue" points="630.9,-29.23 635.95,-19.92 626.2,-24.05 630.9,-29.23"/>
</g>
<!-- Node17&#45;&gt;Node10 -->
<g id="edge40" class="edge">
<title>Node17&#45;&gt;Node10</title>
<path fill="none" stroke="midnightblue" d="M675.84,-116.85C630.92,-107.84 523.8,-86.33 466.02,-74.73"/>
<polygon fill="midnightblue" stroke="midnightblue" points="466.66,-71.29 456.17,-72.75 465.28,-78.15 466.66,-71.29"/>
</g>
<!-- Node18 -->
<g id="node18" class="node">
<title>Node18</title>
<g id="a_node18"><a xlink:title=" ">
<polygon fill="white" stroke="#bfbfbf" points="687.5,-0.5 687.5,-19.5 747.5,-19.5 747.5,-0.5 687.5,-0.5"/>
<text text-anchor="middle" x="717.5" y="-7.5" font-family="Helvetica,sans-Serif" font-size="10.00">iostream</text>
</a>
</g>
</g>
<!-- Node17&#45;&gt;Node18 -->
<g id="edge25" class="edge">
<title>Node17&#45;&gt;Node18</title>
<path fill="none" stroke="midnightblue" d="M675.64,-114.48C646.76,-104.31 600.04,-83 617.5,-56 624.89,-44.57 655.23,-31.86 680.58,-22.88"/>
<polygon fill="midnightblue" stroke="midnightblue" points="682.03,-26.08 690.34,-19.51 679.75,-19.46 682.03,-26.08"/>
</g>
<!-- Node19 -->
<g id="node19" class="node">
<title>Node19</title>
<g id="a_node19"><a xlink:title=" ">
<polygon fill="white" stroke="#bfbfbf" points="780.5,-56.5 780.5,-75.5 836.5,-75.5 836.5,-56.5 780.5,-56.5"/>
<text text-anchor="middle" x="808.5" y="-63.5" font-family="Helvetica,sans-Serif" font-size="10.00">sstream</text>
</a>
</g>
</g>
<!-- Node17&#45;&gt;Node19 -->
<g id="edge26" class="edge">
<title>Node17&#45;&gt;Node19</title>
<path fill="none" stroke="midnightblue" d="M714.49,-112.32C732.54,-103.62 760.55,-90.12 781.3,-80.11"/>
<polygon fill="midnightblue" stroke="midnightblue" points="783.06,-83.15 790.55,-75.65 780.02,-76.84 783.06,-83.15"/>
</g>
<!-- Node20 -->
<g id="node20" class="node">
<title>Node20</title>
<g id="a_node20"><a xlink:title=" ">
<polygon fill="white" stroke="#bfbfbf" points="855,-56.5 855,-75.5 910,-75.5 910,-56.5 855,-56.5"/>
<text text-anchor="middle" x="882.5" y="-63.5" font-family="Helvetica,sans-Serif" font-size="10.00">fstream</text>
</a>
</g>
</g>
<!-- Node17&#45;&gt;Node20 -->
<g id="edge27" class="edge">
<title>Node17&#45;&gt;Node20</title>
<path fill="none" stroke="midnightblue" d="M717.12,-115.01C747.94,-106.07 806.52,-89.06 845.04,-77.87"/>
<polygon fill="midnightblue" stroke="midnightblue" points="846.23,-81.17 854.86,-75.03 844.28,-74.45 846.23,-81.17"/>
</g>
<!-- Node21 -->
<g id="node21" class="node">
<title>Node21</title>
<g id="a_node21"><a xlink:title=" ">
<polygon fill="white" stroke="#bfbfbf" points="1018,-0.5 1018,-19.5 1065,-19.5 1065,-0.5 1018,-0.5"/>
<text text-anchor="middle" x="1041.5" y="-7.5" font-family="Helvetica,sans-Serif" font-size="10.00">vector</text>
</a>
</g>
</g>
<!-- Node17&#45;&gt;Node21 -->
<g id="edge28" class="edge">
<title>Node17&#45;&gt;Node21</title>
<path fill="none" stroke="midnightblue" d="M696.25,-112.25C696.36,-98.06 698.84,-70.16 715.5,-56 763.34,-15.35 929.02,-31.13 1007.74,-19.62"/>
<polygon fill="midnightblue" stroke="midnightblue" points="1008.54,-23.04 1017.8,-17.9 1007.36,-16.14 1008.54,-23.04"/>
</g>
<!-- Node22 -->
<g id="node22" class="node">
<title>Node22</title>
<g id="a_node22"><a xlink:title=" ">
<polygon fill="white" stroke="#bfbfbf" points="928,-56.5 928,-75.5 981,-75.5 981,-56.5 928,-56.5"/>
<text text-anchor="middle" x="954.5" y="-63.5" font-family="Helvetica,sans-Serif" font-size="10.00">cstdarg</text>
</a>
</g>
</g>
<!-- Node17&#45;&gt;Node22 -->
<g id="edge29" class="edge">
<title>Node17&#45;&gt;Node22</title>
<path fill="none" stroke="midnightblue" d="M717.07,-117.15C754.81,-110.02 837.84,-94.02 918.03,-76.02"/>
<polygon fill="midnightblue" stroke="midnightblue" points="918.81,-79.43 927.8,-73.82 917.27,-72.61 918.81,-79.43"/>
</g>
<!-- Node23 -->
<g id="node23" class="node">
<title>Node23</title>
<g id="a_node23"><a xlink:title=" ">
<polygon fill="white" stroke="#bfbfbf" points="724.5,-56.5 724.5,-75.5 762.5,-75.5 762.5,-56.5 724.5,-56.5"/>
<text text-anchor="middle" x="743.5" y="-63.5" font-family="Helvetica,sans-Serif" font-size="10.00">map</text>
</a>
</g>
</g>
<!-- Node17&#45;&gt;Node23 -->
<g id="edge31" class="edge">
<title>Node17&#45;&gt;Node23</title>
<path fill="none" stroke="midnightblue" d="M704.26,-112.08C711.04,-104.3 721.04,-92.8 729.26,-83.37"/>
<polygon fill="midnightblue" stroke="midnightblue" points="731.96,-85.59 735.88,-75.75 726.68,-81 731.96,-85.59"/>
</g>
<!-- Node24 -->
<g id="node24" class="node">
<title>Node24</title>
<g id="a_node24"><a xlink:href="util_8h.html" target="_top" xlink:title="util函数">
<polygon fill="white" stroke="black" points="627,-56.5 627,-75.5 668,-75.5 668,-56.5 627,-56.5"/>
<text text-anchor="middle" x="647.5" y="-63.5" font-family="Helvetica,sans-Serif" font-size="10.00">util.h</text>
</a>
</g>
</g>
<!-- Node17&#45;&gt;Node24 -->
<g id="edge32" class="edge">
<title>Node17&#45;&gt;Node24</title>
<path fill="none" stroke="midnightblue" d="M688.41,-112.08C681.34,-104.3 670.91,-92.8 662.35,-83.37"/>
<polygon fill="midnightblue" stroke="midnightblue" points="664.75,-80.8 655.44,-75.75 659.57,-85.51 664.75,-80.8"/>
</g>
<!-- Node28 -->
<g id="node28" class="node">
<title>Node28</title>
<g id="a_node28"><a xlink:href="singleton_8h.html" target="_top" xlink:title="单例模式封装">
<polygon fill="white" stroke="black" points="1038,-56.5 1038,-75.5 1109,-75.5 1109,-56.5 1038,-56.5"/>
<text text-anchor="middle" x="1073.5" y="-63.5" font-family="Helvetica,sans-Serif" font-size="10.00">singleton.h</text>
</a>
</g>
</g>
<!-- Node17&#45;&gt;Node28 -->
<g id="edge41" class="edge">
<title>Node17&#45;&gt;Node28</title>
<path fill="none" stroke="midnightblue" d="M717.2,-118.45C768.95,-112.02 908.04,-94.33 1023.5,-76 1024.94,-75.77 1026.41,-75.53 1027.89,-75.29"/>
<polygon fill="midnightblue" stroke="midnightblue" points="1028.48,-78.74 1037.75,-73.62 1027.31,-71.84 1028.48,-78.74"/>
</g>
<!-- Node24&#45;&gt;Node6 -->
<g id="edge37" class="edge">
<title>Node24&#45;&gt;Node6</title>
<path fill="none" stroke="midnightblue" d="M647.5,-56.08C647.5,-49.01 647.5,-38.86 647.5,-29.99"/>
<polygon fill="midnightblue" stroke="midnightblue" points="651,-29.75 647.5,-19.75 644,-29.75 651,-29.75"/>
</g>
<!-- Node24&#45;&gt;Node14 -->
<g id="edge34" class="edge">
<title>Node24&#45;&gt;Node14</title>
<path fill="none" stroke="midnightblue" d="M636.74,-56.32C626.73,-48.26 611.61,-36.08 599.57,-26.37"/>
<polygon fill="midnightblue" stroke="midnightblue" points="601.44,-23.38 591.46,-19.83 597.05,-28.83 601.44,-23.38"/>
</g>
<!-- Node24&#45;&gt;Node18 -->
<g id="edge39" class="edge">
<title>Node24&#45;&gt;Node18</title>
<path fill="none" stroke="midnightblue" d="M658.75,-56.32C669.3,-48.18 685.3,-35.84 697.94,-26.09"/>
<polygon fill="midnightblue" stroke="midnightblue" points="700.27,-28.71 706.05,-19.83 695.99,-23.17 700.27,-28.71"/>
</g>
<!-- Node24&#45;&gt;Node21 -->
<g id="edge38" class="edge">
<title>Node24&#45;&gt;Node21</title>
<path fill="none" stroke="midnightblue" d="M668.12,-59.18C672.82,-58 677.81,-56.86 682.5,-56 822.67,-30.37 863.48,-46.5 1007.7,-19.84"/>
<polygon fill="midnightblue" stroke="midnightblue" points="1008.63,-23.23 1017.81,-17.94 1007.34,-16.35 1008.63,-23.23"/>
</g>
<!-- Node25 -->
<g id="node25" class="node">
<title>Node25</title>
<g id="a_node25"><a xlink:title=" ">
<polygon fill="white" stroke="#bfbfbf" points="765.5,-0.5 765.5,-19.5 837.5,-19.5 837.5,-0.5 765.5,-0.5"/>
<text text-anchor="middle" x="801.5" y="-7.5" font-family="Helvetica,sans-Serif" font-size="10.00">sys/types.h</text>
</a>
</g>
</g>
<!-- Node24&#45;&gt;Node25 -->
<g id="edge33" class="edge">
<title>Node24&#45;&gt;Node25</title>
<path fill="none" stroke="midnightblue" d="M668.27,-57.72C693.64,-48.82 736.93,-33.64 767.26,-23.01"/>
<polygon fill="midnightblue" stroke="midnightblue" points="768.72,-26.2 777,-19.59 766.41,-19.6 768.72,-26.2"/>
</g>
<!-- Node26 -->
<g id="node26" class="node">
<title>Node26</title>
<g id="a_node26"><a xlink:title=" ">
<polygon fill="white" stroke="#bfbfbf" points="855.5,-0.5 855.5,-19.5 923.5,-19.5 923.5,-0.5 855.5,-0.5"/>
<text text-anchor="middle" x="889.5" y="-7.5" font-family="Helvetica,sans-Serif" font-size="10.00">sys/time.h</text>
</a>
</g>
</g>
<!-- Node24&#45;&gt;Node26 -->
<g id="edge35" class="edge">
<title>Node24&#45;&gt;Node26</title>
<path fill="none" stroke="midnightblue" d="M668.2,-59.54C672.89,-58.34 677.86,-57.1 682.5,-56 712.94,-48.78 794.37,-31.28 845.55,-20.35"/>
<polygon fill="midnightblue" stroke="midnightblue" points="846.31,-23.77 855.36,-18.26 844.85,-16.92 846.31,-23.77"/>
</g>
<!-- Node27 -->
<g id="node27" class="node">
<title>Node27</title>
<g id="a_node27"><a xlink:title=" ">
<polygon fill="white" stroke="#bfbfbf" points="941.5,-0.5 941.5,-19.5 999.5,-19.5 999.5,-0.5 941.5,-0.5"/>
<text text-anchor="middle" x="970.5" y="-7.5" font-family="Helvetica,sans-Serif" font-size="10.00">cxxabi.h</text>
</a>
</g>
</g>
<!-- Node24&#45;&gt;Node27 -->
<g id="edge36" class="edge">
<title>Node24&#45;&gt;Node27</title>
<path fill="none" stroke="midnightblue" d="M668.14,-59.3C672.84,-58.11 677.82,-56.93 682.5,-56 789.46,-34.61 820.47,-40.59 931.21,-20.1"/>
<polygon fill="midnightblue" stroke="midnightblue" points="931.92,-23.53 941.1,-18.24 930.62,-16.65 931.92,-23.53"/>
</g>
<!-- Node28&#45;&gt;Node5 -->
<g id="edge42" class="edge">
<title>Node28&#45;&gt;Node5</title>
<path fill="none" stroke="midnightblue" d="M1084.91,-56.32C1095.61,-48.18 1111.84,-35.84 1124.66,-26.09"/>
<polygon fill="midnightblue" stroke="midnightblue" points="1127.04,-28.67 1132.89,-19.83 1122.81,-23.1 1127.04,-28.67"/>
</g>
<!-- Node29&#45;&gt;Node5 -->
<g id="edge45" class="edge">
<title>Node29&#45;&gt;Node5</title>
<path fill="none" stroke="midnightblue" d="M1263.99,-112.44C1258.12,-99.01 1245.21,-72.76 1227.5,-56 1212.87,-42.15 1193.16,-31.23 1176.62,-23.62"/>
<polygon fill="midnightblue" stroke="midnightblue" points="1177.87,-20.34 1167.31,-19.52 1175.05,-26.75 1177.87,-20.34"/>
</g>
<!-- Node29&#45;&gt;Node10 -->
<g id="edge48" class="edge">
<title>Node29&#45;&gt;Node10</title>
<path fill="none" stroke="midnightblue" d="M1241.9,-119.35C1121.6,-111.62 612.14,-78.87 466.52,-69.51"/>
<polygon fill="midnightblue" stroke="midnightblue" points="466.49,-66 456.28,-68.85 466.04,-72.98 466.49,-66"/>
</g>
<!-- Node29&#45;&gt;Node21 -->
<g id="edge46" class="edge">
<title>Node29&#45;&gt;Node21</title>
<path fill="none" stroke="midnightblue" d="M1249.77,-112.37C1210.32,-93.17 1115.14,-46.84 1068.36,-24.07"/>
<polygon fill="midnightblue" stroke="midnightblue" points="1069.67,-20.82 1059.15,-19.59 1066.61,-27.11 1069.67,-20.82"/>
</g>
<!-- Node30 -->
<g id="node30" class="node">
<title>Node30</title>
<g id="a_node30"><a xlink:title=" ">
<polygon fill="white" stroke="#bfbfbf" points="1279.5,-56.5 1279.5,-75.5 1311.5,-75.5 1311.5,-56.5 1279.5,-56.5"/>
<text text-anchor="middle" x="1295.5" y="-63.5" font-family="Helvetica,sans-Serif" font-size="10.00">set</text>
</a>
</g>
</g>
<!-- Node29&#45;&gt;Node30 -->
<g id="edge47" class="edge">
<title>Node29&#45;&gt;Node30</title>
<path fill="none" stroke="midnightblue" d="M1272.12,-112.08C1275.96,-104.69 1281.52,-93.95 1286.26,-84.81"/>
<polygon fill="midnightblue" stroke="midnightblue" points="1289.47,-86.24 1290.96,-75.75 1283.25,-83.02 1289.47,-86.24"/>
</g>
</g>
</svg>
