<?xml version="1.0" encoding="UTF-8" standalone="no"?>
<!DOCTYPE svg PUBLIC "-//W3C//DTD SVG 1.1//EN"
 "http://www.w3.org/Graphics/SVG/1.1/DTD/svg11.dtd">
<!-- Generated by graphviz version 2.43.0 (0)
 -->
<!-- Title: sylar/iomanager.cc Pages: 1 -->
<svg width="1213pt" height="364pt"
 viewBox="0.00 0.00 1212.50 364.00" xmlns="http://www.w3.org/2000/svg" xmlns:xlink="http://www.w3.org/1999/xlink">
<g id="graph0" class="graph" transform="scale(1 1) rotate(0) translate(4 360)">
<title>sylar/iomanager.cc</title>
<polygon fill="white" stroke="transparent" points="-4,4 -4,-360 1208.5,-360 1208.5,4 -4,4"/>
<!-- Node1 -->
<g id="node1" class="node">
<title>Node1</title>
<g id="a_node1"><a xlink:title="IO协程调度器实现">
<polygon fill="#bfbfbf" stroke="black" points="479,-336.5 479,-355.5 588,-355.5 588,-336.5 479,-336.5"/>
<text text-anchor="middle" x="533.5" y="-343.5" font-family="Helvetica,sans-Serif" font-size="10.00">sylar/iomanager.cc</text>
</a>
</g>
</g>
<!-- Node2 -->
<g id="node2" class="node">
<title>Node2</title>
<g id="a_node2"><a xlink:title=" ">
<polygon fill="white" stroke="#bfbfbf" points="308.5,-280.5 308.5,-299.5 364.5,-299.5 364.5,-280.5 308.5,-280.5"/>
<text text-anchor="middle" x="336.5" y="-287.5" font-family="Helvetica,sans-Serif" font-size="10.00">unistd.h</text>
</a>
</g>
</g>
<!-- Node1&#45;&gt;Node2 -->
<g id="edge1" class="edge">
<title>Node1&#45;&gt;Node2</title>
<path fill="none" stroke="midnightblue" d="M502.28,-336.44C467.67,-326.96 411.83,-311.65 374.66,-301.46"/>
<polygon fill="midnightblue" stroke="midnightblue" points="375.27,-298 364.7,-298.73 373.42,-304.75 375.27,-298"/>
</g>
<!-- Node3 -->
<g id="node3" class="node">
<title>Node3</title>
<g id="a_node3"><a xlink:title=" ">
<polygon fill="white" stroke="#bfbfbf" points="383,-280.5 383,-299.5 452,-299.5 452,-280.5 383,-280.5"/>
<text text-anchor="middle" x="417.5" y="-287.5" font-family="Helvetica,sans-Serif" font-size="10.00">sys/epoll.h</text>
</a>
</g>
</g>
<!-- Node1&#45;&gt;Node3 -->
<g id="edge2" class="edge">
<title>Node1&#45;&gt;Node3</title>
<path fill="none" stroke="midnightblue" d="M515.12,-336.44C496.28,-327.68 466.77,-313.94 445.12,-303.86"/>
<polygon fill="midnightblue" stroke="midnightblue" points="446.34,-300.56 435.79,-299.52 443.38,-306.91 446.34,-300.56"/>
</g>
<!-- Node4 -->
<g id="node4" class="node">
<title>Node4</title>
<g id="a_node4"><a xlink:title=" ">
<polygon fill="white" stroke="#bfbfbf" points="470,-280.5 470,-299.5 517,-299.5 517,-280.5 470,-280.5"/>
<text text-anchor="middle" x="493.5" y="-287.5" font-family="Helvetica,sans-Serif" font-size="10.00">fcntl.h</text>
</a>
</g>
</g>
<!-- Node1&#45;&gt;Node4 -->
<g id="edge3" class="edge">
<title>Node1&#45;&gt;Node4</title>
<path fill="none" stroke="midnightblue" d="M526.89,-336.08C521.24,-328.46 512.96,-317.26 506.05,-307.94"/>
<polygon fill="midnightblue" stroke="midnightblue" points="508.75,-305.7 499.98,-299.75 503.12,-309.87 508.75,-305.7"/>
</g>
<!-- Node5 -->
<g id="node5" class="node">
<title>Node5</title>
<g id="a_node5"><a xlink:href="iomanager_8h.html" target="_top" xlink:title="IO协程调度器">
<polygon fill="white" stroke="black" points="535,-280.5 535,-299.5 612,-299.5 612,-280.5 535,-280.5"/>
<text text-anchor="middle" x="573.5" y="-287.5" font-family="Helvetica,sans-Serif" font-size="10.00">iomanager.h</text>
</a>
</g>
</g>
<!-- Node1&#45;&gt;Node5 -->
<g id="edge4" class="edge">
<title>Node1&#45;&gt;Node5</title>
<path fill="none" stroke="midnightblue" d="M540.11,-336.08C545.76,-328.46 554.04,-317.26 560.95,-307.94"/>
<polygon fill="midnightblue" stroke="midnightblue" points="563.88,-309.87 567.02,-299.75 558.25,-305.7 563.88,-309.87"/>
</g>
<!-- Node21 -->
<g id="node21" class="node">
<title>Node21</title>
<g id="a_node21"><a xlink:href="log_8h.html" target="_top" xlink:title="日志模块">
<polygon fill="white" stroke="black" points="653,-168.5 653,-187.5 694,-187.5 694,-168.5 653,-168.5"/>
<text text-anchor="middle" x="673.5" y="-175.5" font-family="Helvetica,sans-Serif" font-size="10.00">log.h</text>
</a>
</g>
</g>
<!-- Node1&#45;&gt;Node21 -->
<g id="edge53" class="edge">
<title>Node1&#45;&gt;Node21</title>
<path fill="none" stroke="midnightblue" d="M560.87,-336.35C579.72,-329.2 604.22,-317.37 620.5,-300 648.37,-270.27 663.09,-223.51 669.48,-197.69"/>
<polygon fill="midnightblue" stroke="midnightblue" points="672.94,-198.26 671.79,-187.72 666.12,-196.68 672.94,-198.26"/>
</g>
<!-- Node35 -->
<g id="node35" class="node">
<title>Node35</title>
<g id="a_node35"><a xlink:href="macro_8h.html" target="_top" xlink:title="常用宏的封装">
<polygon fill="white" stroke="black" points="710.5,-224.5 710.5,-243.5 766.5,-243.5 766.5,-224.5 710.5,-224.5"/>
<text text-anchor="middle" x="738.5" y="-231.5" font-family="Helvetica,sans-Serif" font-size="10.00">macro.h</text>
</a>
</g>
</g>
<!-- Node1&#45;&gt;Node35 -->
<g id="edge54" class="edge">
<title>Node1&#45;&gt;Node35</title>
<path fill="none" stroke="midnightblue" d="M576.07,-336.43C604.49,-329.46 641.94,-317.83 671.5,-300 692.85,-287.13 712.73,-266.26 725.2,-251.65"/>
<polygon fill="midnightblue" stroke="midnightblue" points="727.95,-253.81 731.64,-243.88 722.56,-249.34 727.95,-253.81"/>
</g>
<!-- Node6 -->
<g id="node6" class="node">
<title>Node6</title>
<g id="a_node6"><a xlink:href="scheduler_8h.html" target="_top" xlink:title="协程调度器实现">
<polygon fill="white" stroke="black" points="220.5,-224.5 220.5,-243.5 292.5,-243.5 292.5,-224.5 220.5,-224.5"/>
<text text-anchor="middle" x="256.5" y="-231.5" font-family="Helvetica,sans-Serif" font-size="10.00">scheduler.h</text>
</a>
</g>
</g>
<!-- Node5&#45;&gt;Node6 -->
<g id="edge5" class="edge">
<title>Node5&#45;&gt;Node6</title>
<path fill="none" stroke="midnightblue" d="M535,-281.71C531.79,-281.13 528.59,-280.55 525.5,-280 447.32,-266.13 356.14,-251.12 302.53,-242.42"/>
<polygon fill="midnightblue" stroke="midnightblue" points="303.08,-238.96 292.65,-240.82 301.96,-245.87 303.08,-238.96"/>
</g>
<!-- Node33 -->
<g id="node33" class="node">
<title>Node33</title>
<g id="a_node33"><a xlink:href="timer_8h.html" target="_top" xlink:title="定时器封装">
<polygon fill="white" stroke="black" points="451,-112.5 451,-131.5 502,-131.5 502,-112.5 451,-112.5"/>
<text text-anchor="middle" x="476.5" y="-119.5" font-family="Helvetica,sans-Serif" font-size="10.00">timer.h</text>
</a>
</g>
</g>
<!-- Node5&#45;&gt;Node33 -->
<g id="edge48" class="edge">
<title>Node5&#45;&gt;Node33</title>
<path fill="none" stroke="midnightblue" d="M568.28,-280.08C552.82,-253.61 507.01,-175.21 486.56,-140.21"/>
<polygon fill="midnightblue" stroke="midnightblue" points="489.57,-138.44 481.51,-131.57 483.53,-141.97 489.57,-138.44"/>
</g>
<!-- Node7 -->
<g id="node7" class="node">
<title>Node7</title>
<g id="a_node7"><a xlink:title=" ">
<polygon fill="white" stroke="#bfbfbf" points="0,-0.5 0,-19.5 65,-19.5 65,-0.5 0,-0.5"/>
<text text-anchor="middle" x="32.5" y="-7.5" font-family="Helvetica,sans-Serif" font-size="10.00">functional</text>
</a>
</g>
</g>
<!-- Node6&#45;&gt;Node7 -->
<g id="edge6" class="edge">
<title>Node6&#45;&gt;Node7</title>
<path fill="none" stroke="midnightblue" d="M220.25,-231.67C185.2,-228.5 132.67,-218.53 99.5,-188 52.82,-145.03 38.44,-66.18 34.19,-30.02"/>
<polygon fill="midnightblue" stroke="midnightblue" points="37.65,-29.47 33.14,-19.88 30.69,-30.19 37.65,-29.47"/>
</g>
<!-- Node8 -->
<g id="node8" class="node">
<title>Node8</title>
<g id="a_node8"><a xlink:title=" ">
<polygon fill="white" stroke="#bfbfbf" points="752.5,-0.5 752.5,-19.5 784.5,-19.5 784.5,-0.5 752.5,-0.5"/>
<text text-anchor="middle" x="768.5" y="-7.5" font-family="Helvetica,sans-Serif" font-size="10.00">list</text>
</a>
</g>
</g>
<!-- Node6&#45;&gt;Node8 -->
<g id="edge7" class="edge">
<title>Node6&#45;&gt;Node8</title>
<path fill="none" stroke="midnightblue" d="M292.53,-225.4C352.09,-211.96 473.82,-180.72 567.5,-132 617.34,-106.08 620.14,-84.59 668.5,-56 692.72,-41.68 722.31,-28.89 742.99,-20.64"/>
<polygon fill="midnightblue" stroke="midnightblue" points="744.34,-23.88 752.37,-16.97 741.78,-17.36 744.34,-23.88"/>
</g>
<!-- Node9 -->
<g id="node9" class="node">
<title>Node9</title>
<g id="a_node9"><a xlink:title=" ">
<polygon fill="white" stroke="#bfbfbf" points="256.5,-0.5 256.5,-19.5 314.5,-19.5 314.5,-0.5 256.5,-0.5"/>
<text text-anchor="middle" x="285.5" y="-7.5" font-family="Helvetica,sans-Serif" font-size="10.00">memory</text>
</a>
</g>
</g>
<!-- Node6&#45;&gt;Node9 -->
<g id="edge8" class="edge">
<title>Node6&#45;&gt;Node9</title>
<path fill="none" stroke="midnightblue" d="M252.9,-224.22C249.44,-215.28 244.47,-200.94 242.5,-188 233.67,-129.86 228.9,-110.29 251.5,-56 255.86,-45.53 263.23,-35.33 269.99,-27.29"/>
<polygon fill="midnightblue" stroke="midnightblue" points="272.65,-29.58 276.68,-19.78 267.42,-24.93 272.65,-29.58"/>
</g>
<!-- Node10 -->
<g id="node10" class="node">
<title>Node10</title>
<g id="a_node10"><a xlink:title=" ">
<polygon fill="white" stroke="#bfbfbf" points="260.5,-56.5 260.5,-75.5 304.5,-75.5 304.5,-56.5 260.5,-56.5"/>
<text text-anchor="middle" x="282.5" y="-63.5" font-family="Helvetica,sans-Serif" font-size="10.00">string</text>
</a>
</g>
</g>
<!-- Node6&#45;&gt;Node10 -->
<g id="edge9" class="edge">
<title>Node6&#45;&gt;Node10</title>
<path fill="none" stroke="midnightblue" d="M254.17,-224.23C249.19,-203.93 238.95,-152.35 251.5,-112 254.73,-101.62 261.28,-91.52 267.52,-83.53"/>
<polygon fill="midnightblue" stroke="midnightblue" points="270.29,-85.68 274.02,-75.77 264.92,-81.19 270.29,-85.68"/>
</g>
<!-- Node11 -->
<g id="node11" class="node">
<title>Node11</title>
<g id="a_node11"><a xlink:href="fiber_8h.html" target="_top" xlink:title="协程模块">
<polygon fill="white" stroke="black" points="109,-168.5 109,-187.5 156,-187.5 156,-168.5 109,-168.5"/>
<text text-anchor="middle" x="132.5" y="-175.5" font-family="Helvetica,sans-Serif" font-size="10.00">fiber.h</text>
</a>
</g>
</g>
<!-- Node6&#45;&gt;Node11 -->
<g id="edge10" class="edge">
<title>Node6&#45;&gt;Node11</title>
<path fill="none" stroke="midnightblue" d="M236.85,-224.44C216.54,-215.6 184.6,-201.69 161.4,-191.59"/>
<polygon fill="midnightblue" stroke="midnightblue" points="162.62,-188.3 152.06,-187.52 159.83,-194.72 162.62,-188.3"/>
</g>
<!-- Node13 -->
<g id="node13" class="node">
<title>Node13</title>
<g id="a_node13"><a xlink:href="thread_8h.html" target="_top" xlink:title="线程相关的封装">
<polygon fill="white" stroke="black" points="261,-112.5 261,-131.5 318,-131.5 318,-112.5 261,-112.5"/>
<text text-anchor="middle" x="289.5" y="-119.5" font-family="Helvetica,sans-Serif" font-size="10.00">thread.h</text>
</a>
</g>
</g>
<!-- Node6&#45;&gt;Node13 -->
<g id="edge47" class="edge">
<title>Node6&#45;&gt;Node13</title>
<path fill="none" stroke="midnightblue" d="M259.09,-224.37C264.44,-206.54 276.81,-165.3 284.02,-141.27"/>
<polygon fill="midnightblue" stroke="midnightblue" points="287.4,-142.18 286.92,-131.59 280.7,-140.16 287.4,-142.18"/>
</g>
<!-- Node6&#45;&gt;Node21 -->
<g id="edge26" class="edge">
<title>Node6&#45;&gt;Node21</title>
<path fill="none" stroke="midnightblue" d="M292.56,-230.38C360.61,-225.07 512.46,-211.52 638.5,-188 639.96,-187.73 641.46,-187.43 642.96,-187.11"/>
<polygon fill="midnightblue" stroke="midnightblue" points="643.93,-190.48 652.87,-184.79 642.34,-183.66 643.93,-190.48"/>
</g>
<!-- Node11&#45;&gt;Node7 -->
<g id="edge11" class="edge">
<title>Node11&#45;&gt;Node7</title>
<path fill="none" stroke="midnightblue" d="M108.91,-169.05C91.71,-162.01 69.26,-150.02 56.5,-132 34.61,-101.08 31.51,-55.11 31.69,-29.66"/>
<polygon fill="midnightblue" stroke="midnightblue" points="35.19,-29.62 31.94,-19.54 28.19,-29.44 35.19,-29.62"/>
</g>
<!-- Node11&#45;&gt;Node9 -->
<g id="edge12" class="edge">
<title>Node11&#45;&gt;Node9</title>
<path fill="none" stroke="midnightblue" d="M119.68,-168.43C103.13,-156.24 77.75,-133.02 89.5,-112 121.6,-54.56 198.95,-28.72 246.32,-17.94"/>
<polygon fill="midnightblue" stroke="midnightblue" points="247.2,-21.33 256.23,-15.81 245.72,-14.49 247.2,-21.33"/>
</g>
<!-- Node12 -->
<g id="node12" class="node">
<title>Node12</title>
<g id="a_node12"><a xlink:title=" ">
<polygon fill="white" stroke="#bfbfbf" points="98.5,-112.5 98.5,-131.5 166.5,-131.5 166.5,-112.5 98.5,-112.5"/>
<text text-anchor="middle" x="132.5" y="-119.5" font-family="Helvetica,sans-Serif" font-size="10.00">ucontext.h</text>
</a>
</g>
</g>
<!-- Node11&#45;&gt;Node12 -->
<g id="edge13" class="edge">
<title>Node11&#45;&gt;Node12</title>
<path fill="none" stroke="midnightblue" d="M132.5,-168.08C132.5,-161.01 132.5,-150.86 132.5,-141.99"/>
<polygon fill="midnightblue" stroke="midnightblue" points="136,-141.75 132.5,-131.75 129,-141.75 136,-141.75"/>
</g>
<!-- Node11&#45;&gt;Node13 -->
<g id="edge14" class="edge">
<title>Node11&#45;&gt;Node13</title>
<path fill="none" stroke="midnightblue" d="M156,-168.92C182.21,-159.9 224.85,-145.23 254.88,-134.91"/>
<polygon fill="midnightblue" stroke="midnightblue" points="256.22,-138.15 264.54,-131.59 253.94,-131.53 256.22,-138.15"/>
</g>
<!-- Node13&#45;&gt;Node10 -->
<g id="edge15" class="edge">
<title>Node13&#45;&gt;Node10</title>
<path fill="none" stroke="midnightblue" d="M288.34,-112.08C287.42,-104.93 286.08,-94.64 284.92,-85.69"/>
<polygon fill="midnightblue" stroke="midnightblue" points="288.39,-85.22 283.63,-75.75 281.45,-86.12 288.39,-85.22"/>
</g>
<!-- Node14 -->
<g id="node14" class="node">
<title>Node14</title>
<g id="a_node14"><a xlink:href="mutex_8h.html" target="_top" xlink:title="信号量，互斥锁，读写锁，范围锁模板，自旋锁，原子锁">
<polygon fill="white" stroke="black" points="539,-56.5 539,-75.5 596,-75.5 596,-56.5 539,-56.5"/>
<text text-anchor="middle" x="567.5" y="-63.5" font-family="Helvetica,sans-Serif" font-size="10.00">mutex.h</text>
</a>
</g>
</g>
<!-- Node13&#45;&gt;Node14 -->
<g id="edge16" class="edge">
<title>Node13&#45;&gt;Node14</title>
<path fill="none" stroke="midnightblue" d="M318.03,-116.1C361.37,-108.56 446.59,-93.35 529.11,-76"/>
<polygon fill="midnightblue" stroke="midnightblue" points="529.84,-79.42 538.9,-73.93 528.39,-72.57 529.84,-79.42"/>
</g>
<!-- Node14&#45;&gt;Node7 -->
<g id="edge18" class="edge">
<title>Node14&#45;&gt;Node7</title>
<path fill="none" stroke="midnightblue" d="M538.95,-57.78C535.78,-57.11 532.58,-56.5 529.5,-56 362.86,-28.86 161.93,-16.97 75.48,-12.83"/>
<polygon fill="midnightblue" stroke="midnightblue" points="75.42,-9.32 65.27,-12.35 75.09,-16.32 75.42,-9.32"/>
</g>
<!-- Node14&#45;&gt;Node8 -->
<g id="edge24" class="edge">
<title>Node14&#45;&gt;Node8</title>
<path fill="none" stroke="midnightblue" d="M596.08,-58.58C629.18,-50.95 685.5,-37.38 742.54,-20.08"/>
<polygon fill="midnightblue" stroke="midnightblue" points="743.91,-23.32 752.44,-17.04 741.85,-16.63 743.91,-23.32"/>
</g>
<!-- Node14&#45;&gt;Node9 -->
<g id="edge19" class="edge">
<title>Node14&#45;&gt;Node9</title>
<path fill="none" stroke="midnightblue" d="M538.91,-58.04C535.74,-57.32 532.55,-56.63 529.5,-56 441.57,-37.92 416.25,-38.64 324.5,-20.1"/>
<polygon fill="midnightblue" stroke="midnightblue" points="325,-16.63 314.51,-18.06 323.6,-23.49 325,-16.63"/>
</g>
<!-- Node15 -->
<g id="node15" class="node">
<title>Node15</title>
<g id="a_node15"><a xlink:title=" ">
<polygon fill="white" stroke="#bfbfbf" points="506.5,-0.5 506.5,-19.5 554.5,-19.5 554.5,-0.5 506.5,-0.5"/>
<text text-anchor="middle" x="530.5" y="-7.5" font-family="Helvetica,sans-Serif" font-size="10.00">thread</text>
</a>
</g>
</g>
<!-- Node14&#45;&gt;Node15 -->
<g id="edge17" class="edge">
<title>Node14&#45;&gt;Node15</title>
<path fill="none" stroke="midnightblue" d="M561.39,-56.08C556.22,-48.53 548.65,-37.49 542.31,-28.23"/>
<polygon fill="midnightblue" stroke="midnightblue" points="545.04,-26.02 536.5,-19.75 539.26,-29.98 545.04,-26.02"/>
</g>
<!-- Node16 -->
<g id="node16" class="node">
<title>Node16</title>
<g id="a_node16"><a xlink:title=" ">
<polygon fill="white" stroke="#bfbfbf" points="573,-0.5 573,-19.5 636,-19.5 636,-0.5 573,-0.5"/>
<text text-anchor="middle" x="604.5" y="-7.5" font-family="Helvetica,sans-Serif" font-size="10.00">pthread.h</text>
</a>
</g>
</g>
<!-- Node14&#45;&gt;Node16 -->
<g id="edge20" class="edge">
<title>Node14&#45;&gt;Node16</title>
<path fill="none" stroke="midnightblue" d="M573.61,-56.08C578.78,-48.53 586.35,-37.49 592.69,-28.23"/>
<polygon fill="midnightblue" stroke="midnightblue" points="595.74,-29.98 598.5,-19.75 589.96,-26.02 595.74,-29.98"/>
</g>
<!-- Node17 -->
<g id="node17" class="node">
<title>Node17</title>
<g id="a_node17"><a xlink:title=" ">
<polygon fill="white" stroke="#bfbfbf" points="654.5,-0.5 654.5,-19.5 734.5,-19.5 734.5,-0.5 654.5,-0.5"/>
<text text-anchor="middle" x="694.5" y="-7.5" font-family="Helvetica,sans-Serif" font-size="10.00">semaphore.h</text>
</a>
</g>
</g>
<!-- Node14&#45;&gt;Node17 -->
<g id="edge21" class="edge">
<title>Node14&#45;&gt;Node17</title>
<path fill="none" stroke="midnightblue" d="M587.62,-56.44C608.52,-47.56 641.43,-33.56 665.22,-23.45"/>
<polygon fill="midnightblue" stroke="midnightblue" points="666.64,-26.65 674.47,-19.52 663.9,-20.21 666.64,-26.65"/>
</g>
<!-- Node18 -->
<g id="node18" class="node">
<title>Node18</title>
<g id="a_node18"><a xlink:title=" ">
<polygon fill="white" stroke="#bfbfbf" points="878,-0.5 878,-19.5 931,-19.5 931,-0.5 878,-0.5"/>
<text text-anchor="middle" x="904.5" y="-7.5" font-family="Helvetica,sans-Serif" font-size="10.00">stdint.h</text>
</a>
</g>
</g>
<!-- Node14&#45;&gt;Node18 -->
<g id="edge22" class="edge">
<title>Node14&#45;&gt;Node18</title>
<path fill="none" stroke="midnightblue" d="M596.23,-60.4C657.27,-50.62 799.81,-27.78 867.52,-16.93"/>
<polygon fill="midnightblue" stroke="midnightblue" points="868.4,-20.33 877.72,-15.29 867.29,-13.42 868.4,-20.33"/>
</g>
<!-- Node19 -->
<g id="node19" class="node">
<title>Node19</title>
<g id="a_node19"><a xlink:title=" ">
<polygon fill="white" stroke="#bfbfbf" points="332.5,-0.5 332.5,-19.5 382.5,-19.5 382.5,-0.5 332.5,-0.5"/>
<text text-anchor="middle" x="357.5" y="-7.5" font-family="Helvetica,sans-Serif" font-size="10.00">atomic</text>
</a>
</g>
</g>
<!-- Node14&#45;&gt;Node19 -->
<g id="edge23" class="edge">
<title>Node14&#45;&gt;Node19</title>
<path fill="none" stroke="midnightblue" d="M538.83,-57.75C505.88,-49.4 449.94,-35.17 392.69,-20.29"/>
<polygon fill="midnightblue" stroke="midnightblue" points="393.3,-16.84 382.74,-17.71 391.54,-23.61 393.3,-16.84"/>
</g>
<!-- Node20 -->
<g id="node20" class="node">
<title>Node20</title>
<g id="a_node20"><a xlink:href="noncopyable_8h.html" target="_top" xlink:title="不可拷贝对象封装">
<polygon fill="white" stroke="black" points="400.5,-0.5 400.5,-19.5 488.5,-19.5 488.5,-0.5 400.5,-0.5"/>
<text text-anchor="middle" x="444.5" y="-7.5" font-family="Helvetica,sans-Serif" font-size="10.00">noncopyable.h</text>
</a>
</g>
</g>
<!-- Node14&#45;&gt;Node20 -->
<g id="edge25" class="edge">
<title>Node14&#45;&gt;Node20</title>
<path fill="none" stroke="midnightblue" d="M548.01,-56.44C527.86,-47.6 496.18,-33.69 473.17,-23.59"/>
<polygon fill="midnightblue" stroke="midnightblue" points="474.46,-20.33 463.9,-19.52 471.65,-26.74 474.46,-20.33"/>
</g>
<!-- Node21&#45;&gt;Node8 -->
<g id="edge34" class="edge">
<title>Node21&#45;&gt;Node8</title>
<path fill="none" stroke="midnightblue" d="M671.54,-168.5C667.2,-147.42 658.9,-91.91 682.5,-56 689.76,-44.96 720.39,-30.56 743.04,-21.06"/>
<polygon fill="midnightblue" stroke="midnightblue" points="744.54,-24.23 752.46,-17.19 741.88,-17.75 744.54,-24.23"/>
</g>
<!-- Node21&#45;&gt;Node9 -->
<g id="edge28" class="edge">
<title>Node21&#45;&gt;Node9</title>
<path fill="none" stroke="midnightblue" d="M652.81,-175.29C602.42,-170.78 474.96,-157.13 441.5,-132 411.14,-109.2 430.74,-81.37 402.5,-56 390.54,-45.25 353.39,-31.92 324.13,-22.56"/>
<polygon fill="midnightblue" stroke="midnightblue" points="325.14,-19.21 314.55,-19.55 323.04,-25.89 325.14,-19.21"/>
</g>
<!-- Node21&#45;&gt;Node10 -->
<g id="edge27" class="edge">
<title>Node21&#45;&gt;Node10</title>
<path fill="none" stroke="midnightblue" d="M652.72,-176.7C604.03,-175.4 479.48,-168.44 383.5,-132 351.89,-120 319.8,-97.12 300.52,-81.96"/>
<polygon fill="midnightblue" stroke="midnightblue" points="302.6,-79.14 292.61,-75.6 298.21,-84.6 302.6,-79.14"/>
</g>
<!-- Node21&#45;&gt;Node14 -->
<g id="edge44" class="edge">
<title>Node21&#45;&gt;Node14</title>
<path fill="none" stroke="midnightblue" d="M665.18,-168.37C647.46,-149.97 605.73,-106.67 582.97,-83.05"/>
<polygon fill="midnightblue" stroke="midnightblue" points="585.24,-80.36 575.78,-75.59 580.2,-85.22 585.24,-80.36"/>
</g>
<!-- Node22 -->
<g id="node22" class="node">
<title>Node22</title>
<g id="a_node22"><a xlink:title=" ">
<polygon fill="white" stroke="#bfbfbf" points="854.5,-56.5 854.5,-75.5 914.5,-75.5 914.5,-56.5 854.5,-56.5"/>
<text text-anchor="middle" x="884.5" y="-63.5" font-family="Helvetica,sans-Serif" font-size="10.00">iostream</text>
</a>
</g>
</g>
<!-- Node21&#45;&gt;Node22 -->
<g id="edge29" class="edge">
<title>Node21&#45;&gt;Node22</title>
<path fill="none" stroke="midnightblue" d="M694.1,-170.6C697.24,-169.69 700.45,-168.79 703.5,-168 775.73,-149.27 813.7,-183.71 867.5,-132 879.84,-120.14 883.62,-100.51 884.6,-85.92"/>
<polygon fill="midnightblue" stroke="midnightblue" points="888.11,-85.64 884.89,-75.55 881.11,-85.45 888.11,-85.64"/>
</g>
<!-- Node23 -->
<g id="node23" class="node">
<title>Node23</title>
<g id="a_node23"><a xlink:title=" ">
<polygon fill="white" stroke="#bfbfbf" points="728.5,-112.5 728.5,-131.5 784.5,-131.5 784.5,-112.5 728.5,-112.5"/>
<text text-anchor="middle" x="756.5" y="-119.5" font-family="Helvetica,sans-Serif" font-size="10.00">sstream</text>
</a>
</g>
</g>
<!-- Node21&#45;&gt;Node23 -->
<g id="edge30" class="edge">
<title>Node21&#45;&gt;Node23</title>
<path fill="none" stroke="midnightblue" d="M686.84,-168.32C699.66,-159.98 719.28,-147.21 734.44,-137.35"/>
<polygon fill="midnightblue" stroke="midnightblue" points="736.72,-140.04 743.2,-131.65 732.91,-134.17 736.72,-140.04"/>
</g>
<!-- Node24 -->
<g id="node24" class="node">
<title>Node24</title>
<g id="a_node24"><a xlink:title=" ">
<polygon fill="white" stroke="#bfbfbf" points="803,-112.5 803,-131.5 858,-131.5 858,-112.5 803,-112.5"/>
<text text-anchor="middle" x="830.5" y="-119.5" font-family="Helvetica,sans-Serif" font-size="10.00">fstream</text>
</a>
</g>
</g>
<!-- Node21&#45;&gt;Node24 -->
<g id="edge31" class="edge">
<title>Node21&#45;&gt;Node24</title>
<path fill="none" stroke="midnightblue" d="M694.03,-169.94C719.9,-161.04 764.76,-145.61 795.96,-134.88"/>
<polygon fill="midnightblue" stroke="midnightblue" points="797.25,-138.14 805.57,-131.58 794.97,-131.52 797.25,-138.14"/>
</g>
<!-- Node25 -->
<g id="node25" class="node">
<title>Node25</title>
<g id="a_node25"><a xlink:title=" ">
<polygon fill="white" stroke="#bfbfbf" points="691,-56.5 691,-75.5 738,-75.5 738,-56.5 691,-56.5"/>
<text text-anchor="middle" x="714.5" y="-63.5" font-family="Helvetica,sans-Serif" font-size="10.00">vector</text>
</a>
</g>
</g>
<!-- Node21&#45;&gt;Node25 -->
<g id="edge32" class="edge">
<title>Node21&#45;&gt;Node25</title>
<path fill="none" stroke="midnightblue" d="M676.72,-168.37C683.36,-150.54 698.74,-109.3 707.69,-85.27"/>
<polygon fill="midnightblue" stroke="midnightblue" points="711.08,-86.18 711.3,-75.59 704.53,-83.74 711.08,-86.18"/>
</g>
<!-- Node26 -->
<g id="node26" class="node">
<title>Node26</title>
<g id="a_node26"><a xlink:title=" ">
<polygon fill="white" stroke="#bfbfbf" points="915,-112.5 915,-131.5 968,-131.5 968,-112.5 915,-112.5"/>
<text text-anchor="middle" x="941.5" y="-119.5" font-family="Helvetica,sans-Serif" font-size="10.00">cstdarg</text>
</a>
</g>
</g>
<!-- Node21&#45;&gt;Node26 -->
<g id="edge33" class="edge">
<title>Node21&#45;&gt;Node26</title>
<path fill="none" stroke="midnightblue" d="M694.08,-170.5C697.22,-169.6 700.43,-168.74 703.5,-168 790.04,-147.18 813.24,-149.54 900.5,-132 901.79,-131.74 903.09,-131.47 904.41,-131.2"/>
<polygon fill="midnightblue" stroke="midnightblue" points="905.56,-134.54 914.62,-129.04 904.11,-127.69 905.56,-134.54"/>
</g>
<!-- Node27 -->
<g id="node27" class="node">
<title>Node27</title>
<g id="a_node27"><a xlink:title=" ">
<polygon fill="white" stroke="#bfbfbf" points="520.5,-112.5 520.5,-131.5 558.5,-131.5 558.5,-112.5 520.5,-112.5"/>
<text text-anchor="middle" x="539.5" y="-119.5" font-family="Helvetica,sans-Serif" font-size="10.00">map</text>
</a>
</g>
</g>
<!-- Node21&#45;&gt;Node27 -->
<g id="edge35" class="edge">
<title>Node21&#45;&gt;Node27</title>
<path fill="none" stroke="midnightblue" d="M652.86,-168.68C630.17,-159.54 593.58,-144.79 568.13,-134.54"/>
<polygon fill="midnightblue" stroke="midnightblue" points="569.23,-131.21 558.65,-130.72 566.61,-137.7 569.23,-131.21"/>
</g>
<!-- Node28 -->
<g id="node28" class="node">
<title>Node28</title>
<g id="a_node28"><a xlink:href="util_8h.html" target="_top" xlink:title="util函数">
<polygon fill="white" stroke="black" points="986,-112.5 986,-131.5 1027,-131.5 1027,-112.5 986,-112.5"/>
<text text-anchor="middle" x="1006.5" y="-119.5" font-family="Helvetica,sans-Serif" font-size="10.00">util.h</text>
</a>
</g>
</g>
<!-- Node21&#45;&gt;Node28 -->
<g id="edge36" class="edge">
<title>Node21&#45;&gt;Node28</title>
<path fill="none" stroke="midnightblue" d="M694.04,-170.36C697.19,-169.48 700.42,-168.66 703.5,-168 820.43,-142.95 855.68,-157.48 975.76,-132.07"/>
<polygon fill="midnightblue" stroke="midnightblue" points="976.67,-135.46 985.7,-129.92 975.19,-128.61 976.67,-135.46"/>
</g>
<!-- Node32 -->
<g id="node32" class="node">
<title>Node32</title>
<g id="a_node32"><a xlink:href="singleton_8h.html" target="_top" xlink:title="单例模式封装">
<polygon fill="white" stroke="black" points="323,-56.5 323,-75.5 394,-75.5 394,-56.5 323,-56.5"/>
<text text-anchor="middle" x="358.5" y="-63.5" font-family="Helvetica,sans-Serif" font-size="10.00">singleton.h</text>
</a>
</g>
</g>
<!-- Node21&#45;&gt;Node32 -->
<g id="edge45" class="edge">
<title>Node21&#45;&gt;Node32</title>
<path fill="none" stroke="midnightblue" d="M652.64,-175.42C597.61,-170.95 449.89,-156.9 408.5,-132 389.89,-120.8 375.7,-99.86 367.27,-84.77"/>
<polygon fill="midnightblue" stroke="midnightblue" points="370.34,-83.08 362.58,-75.86 364.14,-86.34 370.34,-83.08"/>
</g>
<!-- Node28&#45;&gt;Node10 -->
<g id="edge41" class="edge">
<title>Node28&#45;&gt;Node10</title>
<path fill="none" stroke="midnightblue" d="M985.74,-113.89C983,-113.14 980.2,-112.48 977.5,-112 689.87,-60.39 606.73,-124.06 314.74,-75.79"/>
<polygon fill="midnightblue" stroke="midnightblue" points="315.15,-72.32 304.71,-74.11 313.99,-79.22 315.15,-72.32"/>
</g>
<!-- Node28&#45;&gt;Node18 -->
<g id="edge38" class="edge">
<title>Node28&#45;&gt;Node18</title>
<path fill="none" stroke="midnightblue" d="M997.36,-112.2C988.14,-103.25 973.58,-88.9 961.5,-76 946.35,-59.82 929.71,-40.68 918.35,-27.38"/>
<polygon fill="midnightblue" stroke="midnightblue" points="920.85,-24.92 911.71,-19.57 915.52,-29.46 920.85,-24.92"/>
</g>
<!-- Node28&#45;&gt;Node22 -->
<g id="edge43" class="edge">
<title>Node28&#45;&gt;Node22</title>
<path fill="none" stroke="midnightblue" d="M987.17,-112.44C967.18,-103.6 935.76,-89.69 912.94,-79.59"/>
<polygon fill="midnightblue" stroke="midnightblue" points="914.3,-76.36 903.74,-75.52 911.47,-82.76 914.3,-76.36"/>
</g>
<!-- Node28&#45;&gt;Node25 -->
<g id="edge42" class="edge">
<title>Node28&#45;&gt;Node25</title>
<path fill="none" stroke="midnightblue" d="M986,-114.27C983.16,-113.45 980.27,-112.66 977.5,-112 896.12,-92.5 798.63,-78.11 748.29,-71.33"/>
<polygon fill="midnightblue" stroke="midnightblue" points="748.66,-67.85 738.29,-70 747.74,-74.79 748.66,-67.85"/>
</g>
<!-- Node29 -->
<g id="node29" class="node">
<title>Node29</title>
<g id="a_node29"><a xlink:title=" ">
<polygon fill="white" stroke="#bfbfbf" points="970.5,-56.5 970.5,-75.5 1042.5,-75.5 1042.5,-56.5 970.5,-56.5"/>
<text text-anchor="middle" x="1006.5" y="-63.5" font-family="Helvetica,sans-Serif" font-size="10.00">sys/types.h</text>
</a>
</g>
</g>
<!-- Node28&#45;&gt;Node29 -->
<g id="edge37" class="edge">
<title>Node28&#45;&gt;Node29</title>
<path fill="none" stroke="midnightblue" d="M1006.5,-112.08C1006.5,-105.01 1006.5,-94.86 1006.5,-85.99"/>
<polygon fill="midnightblue" stroke="midnightblue" points="1010,-85.75 1006.5,-75.75 1003,-85.75 1010,-85.75"/>
</g>
<!-- Node30 -->
<g id="node30" class="node">
<title>Node30</title>
<g id="a_node30"><a xlink:title=" ">
<polygon fill="white" stroke="#bfbfbf" points="1060.5,-56.5 1060.5,-75.5 1128.5,-75.5 1128.5,-56.5 1060.5,-56.5"/>
<text text-anchor="middle" x="1094.5" y="-63.5" font-family="Helvetica,sans-Serif" font-size="10.00">sys/time.h</text>
</a>
</g>
</g>
<!-- Node28&#45;&gt;Node30 -->
<g id="edge39" class="edge">
<title>Node28&#45;&gt;Node30</title>
<path fill="none" stroke="midnightblue" d="M1020.64,-112.32C1034.37,-103.9 1055.44,-90.97 1071.56,-81.07"/>
<polygon fill="midnightblue" stroke="midnightblue" points="1073.7,-83.87 1080.4,-75.65 1070.04,-77.9 1073.7,-83.87"/>
</g>
<!-- Node31 -->
<g id="node31" class="node">
<title>Node31</title>
<g id="a_node31"><a xlink:title=" ">
<polygon fill="white" stroke="#bfbfbf" points="1146.5,-56.5 1146.5,-75.5 1204.5,-75.5 1204.5,-56.5 1146.5,-56.5"/>
<text text-anchor="middle" x="1175.5" y="-63.5" font-family="Helvetica,sans-Serif" font-size="10.00">cxxabi.h</text>
</a>
</g>
</g>
<!-- Node28&#45;&gt;Node31 -->
<g id="edge40" class="edge">
<title>Node28&#45;&gt;Node31</title>
<path fill="none" stroke="midnightblue" d="M1027.22,-114.38C1055.06,-105.48 1104.97,-89.54 1139.14,-78.62"/>
<polygon fill="midnightblue" stroke="midnightblue" points="1140.3,-81.92 1148.76,-75.55 1138.17,-75.26 1140.3,-81.92"/>
</g>
<!-- Node32&#45;&gt;Node9 -->
<g id="edge46" class="edge">
<title>Node32&#45;&gt;Node9</title>
<path fill="none" stroke="midnightblue" d="M346.77,-56.32C335.66,-48.11 318.76,-35.6 305.52,-25.81"/>
<polygon fill="midnightblue" stroke="midnightblue" points="307.56,-22.97 297.44,-19.83 303.4,-28.59 307.56,-22.97"/>
</g>
<!-- Node33&#45;&gt;Node9 -->
<g id="edge49" class="edge">
<title>Node33&#45;&gt;Node9</title>
<path fill="none" stroke="midnightblue" d="M473.55,-112.44C468.31,-98.52 456.05,-71 436.5,-56 427.45,-49.06 366.12,-32.07 324.46,-21.06"/>
<polygon fill="midnightblue" stroke="midnightblue" points="325.16,-17.63 314.6,-18.47 323.38,-24.4 325.16,-17.63"/>
</g>
<!-- Node33&#45;&gt;Node14 -->
<g id="edge52" class="edge">
<title>Node33&#45;&gt;Node14</title>
<path fill="none" stroke="midnightblue" d="M491.12,-112.32C505.45,-103.82 527.51,-90.73 544.25,-80.8"/>
<polygon fill="midnightblue" stroke="midnightblue" points="546.1,-83.77 552.92,-75.65 542.53,-77.75 546.1,-83.77"/>
</g>
<!-- Node33&#45;&gt;Node25 -->
<g id="edge50" class="edge">
<title>Node33&#45;&gt;Node25</title>
<path fill="none" stroke="midnightblue" d="M502.09,-114.31C505.25,-113.52 508.45,-112.73 511.5,-112 571.09,-97.74 640.89,-82.61 681.18,-74.03"/>
<polygon fill="midnightblue" stroke="midnightblue" points="681.94,-77.44 691,-71.94 680.49,-70.6 681.94,-77.44"/>
</g>
<!-- Node34 -->
<g id="node34" class="node">
<title>Node34</title>
<g id="a_node34"><a xlink:title=" ">
<polygon fill="white" stroke="#bfbfbf" points="488.5,-56.5 488.5,-75.5 520.5,-75.5 520.5,-56.5 488.5,-56.5"/>
<text text-anchor="middle" x="504.5" y="-63.5" font-family="Helvetica,sans-Serif" font-size="10.00">set</text>
</a>
</g>
</g>
<!-- Node33&#45;&gt;Node34 -->
<g id="edge51" class="edge">
<title>Node33&#45;&gt;Node34</title>
<path fill="none" stroke="midnightblue" d="M481.12,-112.08C484.96,-104.69 490.52,-93.95 495.26,-84.81"/>
<polygon fill="midnightblue" stroke="midnightblue" points="498.47,-86.24 499.96,-75.75 492.25,-83.02 498.47,-86.24"/>
</g>
<!-- Node35&#45;&gt;Node21 -->
<g id="edge57" class="edge">
<title>Node35&#45;&gt;Node21</title>
<path fill="none" stroke="midnightblue" d="M728.06,-224.32C718.35,-216.26 703.68,-204.08 692,-194.37"/>
<polygon fill="midnightblue" stroke="midnightblue" points="694.06,-191.53 684.13,-187.83 689.59,-196.92 694.06,-191.53"/>
</g>
<!-- Node35&#45;&gt;Node28 -->
<g id="edge58" class="edge">
<title>Node35&#45;&gt;Node28</title>
<path fill="none" stroke="midnightblue" d="M759.59,-224.39C781.74,-215.34 817.57,-200.69 848.5,-188 892.95,-169.77 944.4,-148.59 976.2,-135.49"/>
<polygon fill="midnightblue" stroke="midnightblue" points="977.89,-138.58 985.8,-131.53 975.22,-132.1 977.89,-138.58"/>
</g>
<!-- Node36 -->
<g id="node36" class="node">
<title>Node36</title>
<g id="a_node36"><a xlink:title=" ">
<polygon fill="white" stroke="#bfbfbf" points="712,-168.5 712,-187.5 765,-187.5 765,-168.5 712,-168.5"/>
<text text-anchor="middle" x="738.5" y="-175.5" font-family="Helvetica,sans-Serif" font-size="10.00">string.h</text>
</a>
</g>
</g>
<!-- Node35&#45;&gt;Node36 -->
<g id="edge55" class="edge">
<title>Node35&#45;&gt;Node36</title>
<path fill="none" stroke="midnightblue" d="M738.5,-224.08C738.5,-217.01 738.5,-206.86 738.5,-197.99"/>
<polygon fill="midnightblue" stroke="midnightblue" points="742,-197.75 738.5,-187.75 735,-197.75 742,-197.75"/>
</g>
<!-- Node37 -->
<g id="node37" class="node">
<title>Node37</title>
<g id="a_node37"><a xlink:title=" ">
<polygon fill="white" stroke="#bfbfbf" points="783.5,-168.5 783.5,-187.5 839.5,-187.5 839.5,-168.5 783.5,-168.5"/>
<text text-anchor="middle" x="811.5" y="-175.5" font-family="Helvetica,sans-Serif" font-size="10.00">assert.h</text>
</a>
</g>
</g>
<!-- Node35&#45;&gt;Node37 -->
<g id="edge56" class="edge">
<title>Node35&#45;&gt;Node37</title>
<path fill="none" stroke="midnightblue" d="M750.23,-224.32C761.34,-216.11 778.24,-203.6 791.48,-193.81"/>
<polygon fill="midnightblue" stroke="midnightblue" points="793.6,-196.59 799.56,-187.83 789.44,-190.97 793.6,-196.59"/>
</g>
</g>
</svg>
