<?xml version="1.0" encoding="UTF-8" standalone="no"?>
<!DOCTYPE svg PUBLIC "-//W3C//DTD SVG 1.1//EN"
 "http://www.w3.org/Graphics/SVG/1.1/DTD/svg11.dtd">
<!-- Generated by graphviz version 2.43.0 (0)
 -->
<!-- Title: sylar/log.h Pages: 1 -->
<svg width="1149pt" height="140pt"
 viewBox="0.00 0.00 1148.50 140.00" xmlns="http://www.w3.org/2000/svg" xmlns:xlink="http://www.w3.org/1999/xlink">
<g id="graph0" class="graph" transform="scale(1 1) rotate(0) translate(4 136)">
<title>sylar/log.h</title>
<polygon fill="white" stroke="transparent" points="-4,4 -4,-136 1144.5,-136 1144.5,4 -4,4"/>
<!-- Node1 -->
<g id="node1" class="node">
<title>Node1</title>
<g id="a_node1"><a xlink:title="日志模块">
<polygon fill="#bfbfbf" stroke="black" points="556,-112.5 556,-131.5 624,-131.5 624,-112.5 556,-112.5"/>
<text text-anchor="middle" x="590" y="-119.5" font-family="Helvetica,sans-Serif" font-size="10.00">sylar/log.h</text>
</a>
</g>
</g>
<!-- Node2 -->
<g id="node2" class="node">
<title>Node2</title>
<g id="a_node2"><a xlink:title=" ">
<polygon fill="white" stroke="#bfbfbf" points="0,-0.5 0,-19.5 44,-19.5 44,-0.5 0,-0.5"/>
<text text-anchor="middle" x="22" y="-7.5" font-family="Helvetica,sans-Serif" font-size="10.00">string</text>
</a>
</g>
</g>
<!-- Node1&#45;&gt;Node2 -->
<g id="edge1" class="edge">
<title>Node1&#45;&gt;Node2</title>
<path fill="none" stroke="midnightblue" d="M555.76,-120.43C484.79,-118.56 316.87,-110.52 181,-76 132.23,-63.61 78.67,-39.31 47.83,-24.19"/>
<polygon fill="midnightblue" stroke="midnightblue" points="49.16,-20.94 38.65,-19.63 46.05,-27.21 49.16,-20.94"/>
</g>
<!-- Node3 -->
<g id="node3" class="node">
<title>Node3</title>
<g id="a_node3"><a xlink:title=" ">
<polygon fill="white" stroke="#bfbfbf" points="530,-0.5 530,-19.5 588,-19.5 588,-0.5 530,-0.5"/>
<text text-anchor="middle" x="559" y="-7.5" font-family="Helvetica,sans-Serif" font-size="10.00">memory</text>
</a>
</g>
</g>
<!-- Node1&#45;&gt;Node3 -->
<g id="edge2" class="edge">
<title>Node1&#45;&gt;Node3</title>
<path fill="none" stroke="midnightblue" d="M561.63,-112.49C544.25,-105.65 523.4,-94.13 513,-76 502.63,-57.93 520.42,-38.6 536.8,-25.77"/>
<polygon fill="midnightblue" stroke="midnightblue" points="539.09,-28.43 545.08,-19.69 534.95,-22.78 539.09,-28.43"/>
</g>
<!-- Node4 -->
<g id="node4" class="node">
<title>Node4</title>
<g id="a_node4"><a xlink:title=" ">
<polygon fill="white" stroke="#bfbfbf" points="62,-0.5 62,-19.5 122,-19.5 122,-0.5 62,-0.5"/>
<text text-anchor="middle" x="92" y="-7.5" font-family="Helvetica,sans-Serif" font-size="10.00">iostream</text>
</a>
</g>
</g>
<!-- Node1&#45;&gt;Node4 -->
<g id="edge3" class="edge">
<title>Node1&#45;&gt;Node4</title>
<path fill="none" stroke="midnightblue" d="M555.97,-119.89C492.52,-117.1 352.33,-107.6 239,-76 193.84,-63.41 144.64,-39.35 116.16,-24.3"/>
<polygon fill="midnightblue" stroke="midnightblue" points="117.79,-21.2 107.33,-19.57 114.49,-27.37 117.79,-21.2"/>
</g>
<!-- Node5 -->
<g id="node5" class="node">
<title>Node5</title>
<g id="a_node5"><a xlink:title=" ">
<polygon fill="white" stroke="#bfbfbf" points="726,-56.5 726,-75.5 782,-75.5 782,-56.5 726,-56.5"/>
<text text-anchor="middle" x="754" y="-63.5" font-family="Helvetica,sans-Serif" font-size="10.00">sstream</text>
</a>
</g>
</g>
<!-- Node1&#45;&gt;Node5 -->
<g id="edge4" class="edge">
<title>Node1&#45;&gt;Node5</title>
<path fill="none" stroke="midnightblue" d="M615.99,-112.44C643.7,-103.32 687.75,-88.81 718.62,-78.65"/>
<polygon fill="midnightblue" stroke="midnightblue" points="719.73,-81.97 728.14,-75.52 717.54,-75.32 719.73,-81.97"/>
</g>
<!-- Node6 -->
<g id="node6" class="node">
<title>Node6</title>
<g id="a_node6"><a xlink:title=" ">
<polygon fill="white" stroke="#bfbfbf" points="800.5,-56.5 800.5,-75.5 855.5,-75.5 855.5,-56.5 800.5,-56.5"/>
<text text-anchor="middle" x="828" y="-63.5" font-family="Helvetica,sans-Serif" font-size="10.00">fstream</text>
</a>
</g>
</g>
<!-- Node1&#45;&gt;Node6 -->
<g id="edge5" class="edge">
<title>Node1&#45;&gt;Node6</title>
<path fill="none" stroke="midnightblue" d="M624.19,-113.55C662.26,-105.2 725.9,-91.12 790.22,-76.15"/>
<polygon fill="midnightblue" stroke="midnightblue" points="791.19,-79.52 800.13,-73.84 789.6,-72.7 791.19,-79.52"/>
</g>
<!-- Node7 -->
<g id="node7" class="node">
<title>Node7</title>
<g id="a_node7"><a xlink:title=" ">
<polygon fill="white" stroke="#bfbfbf" points="140.5,-0.5 140.5,-19.5 187.5,-19.5 187.5,-0.5 140.5,-0.5"/>
<text text-anchor="middle" x="164" y="-7.5" font-family="Helvetica,sans-Serif" font-size="10.00">vector</text>
</a>
</g>
</g>
<!-- Node1&#45;&gt;Node7 -->
<g id="edge6" class="edge">
<title>Node1&#45;&gt;Node7</title>
<path fill="none" stroke="midnightblue" d="M555.76,-119.55C499.01,-116.35 382.47,-106.35 289,-76 250.59,-63.53 209.74,-40.11 185.57,-25.05"/>
<polygon fill="midnightblue" stroke="midnightblue" points="187.19,-21.94 176.87,-19.54 183.44,-27.85 187.19,-21.94"/>
</g>
<!-- Node8 -->
<g id="node8" class="node">
<title>Node8</title>
<g id="a_node8"><a xlink:title=" ">
<polygon fill="white" stroke="#bfbfbf" points="873.5,-56.5 873.5,-75.5 926.5,-75.5 926.5,-56.5 873.5,-56.5"/>
<text text-anchor="middle" x="900" y="-63.5" font-family="Helvetica,sans-Serif" font-size="10.00">cstdarg</text>
</a>
</g>
</g>
<!-- Node1&#45;&gt;Node8 -->
<g id="edge7" class="edge">
<title>Node1&#45;&gt;Node8</title>
<path fill="none" stroke="midnightblue" d="M624.05,-116.43C674.36,-109.46 771.68,-95.14 863.31,-76.21"/>
<polygon fill="midnightblue" stroke="midnightblue" points="864.23,-79.6 873.3,-74.13 862.8,-72.75 864.23,-79.6"/>
</g>
<!-- Node9 -->
<g id="node9" class="node">
<title>Node9</title>
<g id="a_node9"><a xlink:title=" ">
<polygon fill="white" stroke="#bfbfbf" points="606,-0.5 606,-19.5 638,-19.5 638,-0.5 606,-0.5"/>
<text text-anchor="middle" x="622" y="-7.5" font-family="Helvetica,sans-Serif" font-size="10.00">list</text>
</a>
</g>
</g>
<!-- Node1&#45;&gt;Node9 -->
<g id="edge8" class="edge">
<title>Node1&#45;&gt;Node9</title>
<path fill="none" stroke="midnightblue" d="M592.51,-112.37C597.7,-94.54 609.7,-53.3 616.68,-29.27"/>
<polygon fill="midnightblue" stroke="midnightblue" points="620.07,-30.17 619.5,-19.59 613.35,-28.22 620.07,-30.17"/>
</g>
<!-- Node10 -->
<g id="node10" class="node">
<title>Node10</title>
<g id="a_node10"><a xlink:title=" ">
<polygon fill="white" stroke="#bfbfbf" points="945,-56.5 945,-75.5 983,-75.5 983,-56.5 945,-56.5"/>
<text text-anchor="middle" x="964" y="-63.5" font-family="Helvetica,sans-Serif" font-size="10.00">map</text>
</a>
</g>
</g>
<!-- Node1&#45;&gt;Node10 -->
<g id="edge9" class="edge">
<title>Node1&#45;&gt;Node10</title>
<path fill="none" stroke="midnightblue" d="M624.25,-118.62C685.07,-113.95 815.97,-101.89 934.85,-75.89"/>
<polygon fill="midnightblue" stroke="midnightblue" points="935.85,-79.25 944.85,-73.66 934.33,-72.42 935.85,-79.25"/>
</g>
<!-- Node11 -->
<g id="node11" class="node">
<title>Node11</title>
<g id="a_node11"><a xlink:href="util_8h.html" target="_top" xlink:title="util函数">
<polygon fill="white" stroke="black" points="298.5,-56.5 298.5,-75.5 339.5,-75.5 339.5,-56.5 298.5,-56.5"/>
<text text-anchor="middle" x="319" y="-63.5" font-family="Helvetica,sans-Serif" font-size="10.00">util.h</text>
</a>
</g>
</g>
<!-- Node1&#45;&gt;Node11 -->
<g id="edge10" class="edge">
<title>Node1&#45;&gt;Node11</title>
<path fill="none" stroke="midnightblue" d="M555.95,-114.22C502.73,-103.61 400.66,-83.27 349.62,-73.1"/>
<polygon fill="midnightblue" stroke="midnightblue" points="350.04,-69.62 339.54,-71.09 348.67,-76.48 350.04,-69.62"/>
</g>
<!-- Node16 -->
<g id="node16" class="node">
<title>Node16</title>
<g id="a_node16"><a xlink:href="mutex_8h.html" target="_top" xlink:title="信号量，互斥锁，读写锁，范围锁模板，自旋锁，原子锁">
<polygon fill="white" stroke="black" points="650.5,-56.5 650.5,-75.5 707.5,-75.5 707.5,-56.5 650.5,-56.5"/>
<text text-anchor="middle" x="679" y="-63.5" font-family="Helvetica,sans-Serif" font-size="10.00">mutex.h</text>
</a>
</g>
</g>
<!-- Node1&#45;&gt;Node16 -->
<g id="edge18" class="edge">
<title>Node1&#45;&gt;Node16</title>
<path fill="none" stroke="midnightblue" d="M604.3,-112.32C618.18,-103.9 639.49,-90.97 655.8,-81.07"/>
<polygon fill="midnightblue" stroke="midnightblue" points="658,-83.83 664.74,-75.65 654.37,-77.85 658,-83.83"/>
</g>
<!-- Node23 -->
<g id="node23" class="node">
<title>Node23</title>
<g id="a_node23"><a xlink:href="singleton_8h.html" target="_top" xlink:title="单例模式封装">
<polygon fill="white" stroke="black" points="522.5,-56.5 522.5,-75.5 593.5,-75.5 593.5,-56.5 522.5,-56.5"/>
<text text-anchor="middle" x="558" y="-63.5" font-family="Helvetica,sans-Serif" font-size="10.00">singleton.h</text>
</a>
</g>
</g>
<!-- Node1&#45;&gt;Node23 -->
<g id="edge28" class="edge">
<title>Node1&#45;&gt;Node23</title>
<path fill="none" stroke="midnightblue" d="M584.72,-112.08C580.29,-104.61 573.84,-93.72 568.38,-84.52"/>
<polygon fill="midnightblue" stroke="midnightblue" points="571.29,-82.57 563.19,-75.75 565.27,-86.14 571.29,-82.57"/>
</g>
<!-- Node11&#45;&gt;Node2 -->
<g id="edge15" class="edge">
<title>Node11&#45;&gt;Node2</title>
<path fill="none" stroke="midnightblue" d="M298.49,-62.35C255.13,-56.57 150.86,-41.78 54.2,-20.06"/>
<polygon fill="midnightblue" stroke="midnightblue" points="54.8,-16.61 44.27,-17.8 53.24,-23.43 54.8,-16.61"/>
</g>
<!-- Node11&#45;&gt;Node4 -->
<g id="edge17" class="edge">
<title>Node11&#45;&gt;Node4</title>
<path fill="none" stroke="midnightblue" d="M298.45,-60.11C260.96,-51.19 180.82,-32.13 132.16,-20.55"/>
<polygon fill="midnightblue" stroke="midnightblue" points="132.81,-17.11 122.28,-18.2 131.19,-23.92 132.81,-17.11"/>
</g>
<!-- Node11&#45;&gt;Node7 -->
<g id="edge16" class="edge">
<title>Node11&#45;&gt;Node7</title>
<path fill="none" stroke="midnightblue" d="M298.42,-57.83C272.67,-48.86 228.24,-33.38 197.55,-22.69"/>
<polygon fill="midnightblue" stroke="midnightblue" points="198.31,-19.25 187.72,-19.26 196.01,-25.86 198.31,-19.25"/>
</g>
<!-- Node12 -->
<g id="node12" class="node">
<title>Node12</title>
<g id="a_node12"><a xlink:title=" ">
<polygon fill="white" stroke="#bfbfbf" points="206,-0.5 206,-19.5 278,-19.5 278,-0.5 206,-0.5"/>
<text text-anchor="middle" x="242" y="-7.5" font-family="Helvetica,sans-Serif" font-size="10.00">sys/types.h</text>
</a>
</g>
</g>
<!-- Node11&#45;&gt;Node12 -->
<g id="edge11" class="edge">
<title>Node11&#45;&gt;Node12</title>
<path fill="none" stroke="midnightblue" d="M306.63,-56.32C294.84,-48.06 276.87,-35.45 262.86,-25.63"/>
<polygon fill="midnightblue" stroke="midnightblue" points="264.54,-22.53 254.34,-19.65 260.52,-28.26 264.54,-22.53"/>
</g>
<!-- Node13 -->
<g id="node13" class="node">
<title>Node13</title>
<g id="a_node13"><a xlink:title=" ">
<polygon fill="white" stroke="#bfbfbf" points="458.5,-0.5 458.5,-19.5 511.5,-19.5 511.5,-0.5 458.5,-0.5"/>
<text text-anchor="middle" x="485" y="-7.5" font-family="Helvetica,sans-Serif" font-size="10.00">stdint.h</text>
</a>
</g>
</g>
<!-- Node11&#45;&gt;Node13 -->
<g id="edge12" class="edge">
<title>Node11&#45;&gt;Node13</title>
<path fill="none" stroke="midnightblue" d="M339.69,-58.27C367.02,-49.38 415.59,-33.58 449.01,-22.71"/>
<polygon fill="midnightblue" stroke="midnightblue" points="450.42,-25.93 458.85,-19.51 448.26,-19.27 450.42,-25.93"/>
</g>
<!-- Node14 -->
<g id="node14" class="node">
<title>Node14</title>
<g id="a_node14"><a xlink:title=" ">
<polygon fill="white" stroke="#bfbfbf" points="296,-0.5 296,-19.5 364,-19.5 364,-0.5 296,-0.5"/>
<text text-anchor="middle" x="330" y="-7.5" font-family="Helvetica,sans-Serif" font-size="10.00">sys/time.h</text>
</a>
</g>
</g>
<!-- Node11&#45;&gt;Node14 -->
<g id="edge13" class="edge">
<title>Node11&#45;&gt;Node14</title>
<path fill="none" stroke="midnightblue" d="M320.82,-56.08C322.27,-48.93 324.37,-38.64 326.19,-29.69"/>
<polygon fill="midnightblue" stroke="midnightblue" points="329.65,-30.25 328.22,-19.75 322.79,-28.85 329.65,-30.25"/>
</g>
<!-- Node15 -->
<g id="node15" class="node">
<title>Node15</title>
<g id="a_node15"><a xlink:title=" ">
<polygon fill="white" stroke="#bfbfbf" points="382,-0.5 382,-19.5 440,-19.5 440,-0.5 382,-0.5"/>
<text text-anchor="middle" x="411" y="-7.5" font-family="Helvetica,sans-Serif" font-size="10.00">cxxabi.h</text>
</a>
</g>
</g>
<!-- Node11&#45;&gt;Node15 -->
<g id="edge14" class="edge">
<title>Node11&#45;&gt;Node15</title>
<path fill="none" stroke="midnightblue" d="M333.78,-56.32C348.27,-47.82 370.57,-34.73 387.49,-24.8"/>
<polygon fill="midnightblue" stroke="midnightblue" points="389.4,-27.74 396.26,-19.65 385.86,-21.7 389.4,-27.74"/>
</g>
<!-- Node16&#45;&gt;Node3 -->
<g id="edge21" class="edge">
<title>Node16&#45;&gt;Node3</title>
<path fill="none" stroke="midnightblue" d="M659.99,-56.44C640.41,-47.64 609.69,-33.81 587.27,-23.72"/>
<polygon fill="midnightblue" stroke="midnightblue" points="588.48,-20.43 577.93,-19.52 585.61,-26.81 588.48,-20.43"/>
</g>
<!-- Node16&#45;&gt;Node9 -->
<g id="edge26" class="edge">
<title>Node16&#45;&gt;Node9</title>
<path fill="none" stroke="midnightblue" d="M669.84,-56.32C661.5,-48.42 648.97,-36.55 638.82,-26.94"/>
<polygon fill="midnightblue" stroke="midnightblue" points="640.99,-24.17 631.32,-19.83 636.18,-29.25 640.99,-24.17"/>
</g>
<!-- Node16&#45;&gt;Node13 -->
<g id="edge24" class="edge">
<title>Node16&#45;&gt;Node13</title>
<path fill="none" stroke="midnightblue" d="M650.37,-57.03C616.17,-47.51 558.9,-31.57 521.53,-21.17"/>
<polygon fill="midnightblue" stroke="midnightblue" points="522.13,-17.7 511.56,-18.39 520.25,-24.45 522.13,-17.7"/>
</g>
<!-- Node17 -->
<g id="node17" class="node">
<title>Node17</title>
<g id="a_node17"><a xlink:title=" ">
<polygon fill="white" stroke="#bfbfbf" points="928,-0.5 928,-19.5 976,-19.5 976,-0.5 928,-0.5"/>
<text text-anchor="middle" x="952" y="-7.5" font-family="Helvetica,sans-Serif" font-size="10.00">thread</text>
</a>
</g>
</g>
<!-- Node16&#45;&gt;Node17 -->
<g id="edge19" class="edge">
<title>Node16&#45;&gt;Node17</title>
<path fill="none" stroke="midnightblue" d="M707.6,-58.05C710.76,-57.33 713.95,-56.63 717,-56 803.24,-38.12 828.33,-39.87 918.13,-20.03"/>
<polygon fill="midnightblue" stroke="midnightblue" points="918.92,-23.44 927.91,-17.84 917.39,-16.61 918.92,-23.44"/>
</g>
<!-- Node18 -->
<g id="node18" class="node">
<title>Node18</title>
<g id="a_node18"><a xlink:title=" ">
<polygon fill="white" stroke="#bfbfbf" points="994.5,-0.5 994.5,-19.5 1059.5,-19.5 1059.5,-0.5 994.5,-0.5"/>
<text text-anchor="middle" x="1027" y="-7.5" font-family="Helvetica,sans-Serif" font-size="10.00">functional</text>
</a>
</g>
</g>
<!-- Node16&#45;&gt;Node18 -->
<g id="edge20" class="edge">
<title>Node16&#45;&gt;Node18</title>
<path fill="none" stroke="midnightblue" d="M707.57,-57.91C710.74,-57.22 713.93,-56.57 717,-56 832.06,-34.7 864.88,-40.28 984.57,-19.94"/>
<polygon fill="midnightblue" stroke="midnightblue" points="985.23,-23.38 994.49,-18.23 984.04,-16.48 985.23,-23.38"/>
</g>
<!-- Node19 -->
<g id="node19" class="node">
<title>Node19</title>
<g id="a_node19"><a xlink:title=" ">
<polygon fill="white" stroke="#bfbfbf" points="1077.5,-0.5 1077.5,-19.5 1140.5,-19.5 1140.5,-0.5 1077.5,-0.5"/>
<text text-anchor="middle" x="1109" y="-7.5" font-family="Helvetica,sans-Serif" font-size="10.00">pthread.h</text>
</a>
</g>
</g>
<!-- Node16&#45;&gt;Node19 -->
<g id="edge22" class="edge">
<title>Node16&#45;&gt;Node19</title>
<path fill="none" stroke="midnightblue" d="M707.55,-57.82C710.73,-57.14 713.92,-56.52 717,-56 868.89,-30.36 912.03,-44.69 1067.29,-20.11"/>
<polygon fill="midnightblue" stroke="midnightblue" points="1067.87,-23.56 1077.19,-18.52 1066.76,-16.65 1067.87,-23.56"/>
</g>
<!-- Node20 -->
<g id="node20" class="node">
<title>Node20</title>
<g id="a_node20"><a xlink:title=" ">
<polygon fill="white" stroke="#bfbfbf" points="656,-0.5 656,-19.5 736,-19.5 736,-0.5 656,-0.5"/>
<text text-anchor="middle" x="696" y="-7.5" font-family="Helvetica,sans-Serif" font-size="10.00">semaphore.h</text>
</a>
</g>
</g>
<!-- Node16&#45;&gt;Node20 -->
<g id="edge23" class="edge">
<title>Node16&#45;&gt;Node20</title>
<path fill="none" stroke="midnightblue" d="M681.81,-56.08C684.08,-48.85 687.37,-38.41 690.21,-29.4"/>
<polygon fill="midnightblue" stroke="midnightblue" points="693.58,-30.34 693.25,-19.75 686.9,-28.24 693.58,-30.34"/>
</g>
<!-- Node21 -->
<g id="node21" class="node">
<title>Node21</title>
<g id="a_node21"><a xlink:title=" ">
<polygon fill="white" stroke="#bfbfbf" points="754,-0.5 754,-19.5 804,-19.5 804,-0.5 754,-0.5"/>
<text text-anchor="middle" x="779" y="-7.5" font-family="Helvetica,sans-Serif" font-size="10.00">atomic</text>
</a>
</g>
</g>
<!-- Node16&#45;&gt;Node21 -->
<g id="edge25" class="edge">
<title>Node16&#45;&gt;Node21</title>
<path fill="none" stroke="midnightblue" d="M695.07,-56.32C710.96,-47.74 735.51,-34.49 753.96,-24.52"/>
<polygon fill="midnightblue" stroke="midnightblue" points="755.84,-27.49 762.97,-19.65 752.51,-21.33 755.84,-27.49"/>
</g>
<!-- Node22 -->
<g id="node22" class="node">
<title>Node22</title>
<g id="a_node22"><a xlink:href="noncopyable_8h.html" target="_top" xlink:title="不可拷贝对象封装">
<polygon fill="white" stroke="black" points="822,-0.5 822,-19.5 910,-19.5 910,-0.5 822,-0.5"/>
<text text-anchor="middle" x="866" y="-7.5" font-family="Helvetica,sans-Serif" font-size="10.00">noncopyable.h</text>
</a>
</g>
</g>
<!-- Node16&#45;&gt;Node22 -->
<g id="edge27" class="edge">
<title>Node16&#45;&gt;Node22</title>
<path fill="none" stroke="midnightblue" d="M707.81,-56.68C739.61,-47.5 790.98,-32.66 826.52,-22.4"/>
<polygon fill="midnightblue" stroke="midnightblue" points="827.9,-25.64 836.54,-19.51 825.96,-18.92 827.9,-25.64"/>
</g>
<!-- Node23&#45;&gt;Node3 -->
<g id="edge29" class="edge">
<title>Node23&#45;&gt;Node3</title>
<path fill="none" stroke="midnightblue" d="M558.17,-56.08C558.3,-49.01 558.48,-38.86 558.65,-29.99"/>
<polygon fill="midnightblue" stroke="midnightblue" points="562.15,-29.81 558.84,-19.75 555.15,-29.68 562.15,-29.81"/>
</g>
</g>
</svg>
