<?xml version="1.0" encoding="UTF-8" standalone="no"?>
<!DOCTYPE svg PUBLIC "-//W3C//DTD SVG 1.1//EN"
 "http://www.w3.org/Graphics/SVG/1.1/DTD/svg11.dtd">
<!-- Generated by graphviz version 2.43.0 (0)
 -->
<!-- Title: sylar/log.cpp Pages: 1 -->
<svg width="1148pt" height="252pt"
 viewBox="0.00 0.00 1148.00 252.00" xmlns="http://www.w3.org/2000/svg" xmlns:xlink="http://www.w3.org/1999/xlink">
<g id="graph0" class="graph" transform="scale(1 1) rotate(0) translate(4 248)">
<title>sylar/log.cpp</title>
<polygon fill="white" stroke="transparent" points="-4,4 -4,-248 1144,-248 1144,4 -4,4"/>
<!-- Node1 -->
<g id="node1" class="node">
<title>Node1</title>
<g id="a_node1"><a xlink:title="日志模块实现">
<polygon fill="#bfbfbf" stroke="black" points="535.5,-224.5 535.5,-243.5 614.5,-243.5 614.5,-224.5 535.5,-224.5"/>
<text text-anchor="middle" x="575" y="-231.5" font-family="Helvetica,sans-Serif" font-size="10.00">sylar/log.cpp</text>
</a>
</g>
</g>
<!-- Node2 -->
<g id="node2" class="node">
<title>Node2</title>
<g id="a_node2"><a xlink:title=" ">
<polygon fill="white" stroke="#bfbfbf" points="473.5,-168.5 473.5,-187.5 518.5,-187.5 518.5,-168.5 473.5,-168.5"/>
<text text-anchor="middle" x="496" y="-175.5" font-family="Helvetica,sans-Serif" font-size="10.00">utility</text>
</a>
</g>
</g>
<!-- Node1&#45;&gt;Node2 -->
<g id="edge1" class="edge">
<title>Node1&#45;&gt;Node2</title>
<path fill="none" stroke="midnightblue" d="M562.31,-224.32C550.1,-215.98 531.42,-203.21 517,-193.35"/>
<polygon fill="midnightblue" stroke="midnightblue" points="518.89,-190.41 508.66,-187.65 514.94,-196.19 518.89,-190.41"/>
</g>
<!-- Node3 -->
<g id="node3" class="node">
<title>Node3</title>
<g id="a_node3"><a xlink:href="log_8h.html" target="_top" xlink:title="日志模块">
<polygon fill="white" stroke="black" points="772.5,-112.5 772.5,-131.5 813.5,-131.5 813.5,-112.5 772.5,-112.5"/>
<text text-anchor="middle" x="793" y="-119.5" font-family="Helvetica,sans-Serif" font-size="10.00">log.h</text>
</a>
</g>
</g>
<!-- Node1&#45;&gt;Node3 -->
<g id="edge2" class="edge">
<title>Node1&#45;&gt;Node3</title>
<path fill="none" stroke="midnightblue" d="M592.11,-224.37C630.07,-205.21 721.58,-159.04 766.81,-136.22"/>
<polygon fill="midnightblue" stroke="midnightblue" points="768.62,-139.22 775.97,-131.59 765.47,-132.97 768.62,-139.22"/>
</g>
<!-- Node26 -->
<g id="node26" class="node">
<title>Node26</title>
<g id="a_node26"><a xlink:href="config_8h.html" target="_top" xlink:title="配置模块">
<polygon fill="white" stroke="black" points="575.5,-168.5 575.5,-187.5 630.5,-187.5 630.5,-168.5 575.5,-168.5"/>
<text text-anchor="middle" x="603" y="-175.5" font-family="Helvetica,sans-Serif" font-size="10.00">config.h</text>
</a>
</g>
</g>
<!-- Node1&#45;&gt;Node26 -->
<g id="edge32" class="edge">
<title>Node1&#45;&gt;Node26</title>
<path fill="none" stroke="midnightblue" d="M579.62,-224.08C583.46,-216.69 589.02,-205.95 593.76,-196.81"/>
<polygon fill="midnightblue" stroke="midnightblue" points="596.97,-198.24 598.46,-187.75 590.75,-195.02 596.97,-198.24"/>
</g>
<!-- Node32 -->
<g id="node32" class="node">
<title>Node32</title>
<g id="a_node32"><a xlink:href="env_8h.html" target="_top" xlink:title="环境变量管理">
<polygon fill="white" stroke="black" points="107.5,-112.5 107.5,-131.5 150.5,-131.5 150.5,-112.5 107.5,-112.5"/>
<text text-anchor="middle" x="129" y="-119.5" font-family="Helvetica,sans-Serif" font-size="10.00">env.h</text>
</a>
</g>
</g>
<!-- Node1&#45;&gt;Node32 -->
<g id="edge48" class="edge">
<title>Node1&#45;&gt;Node32</title>
<path fill="none" stroke="midnightblue" d="M571.48,-224.46C565.04,-210.03 549.87,-181.13 527,-168 462.45,-130.94 267.87,-141.11 194,-132 183.15,-130.66 171.29,-129.06 160.71,-127.58"/>
<polygon fill="midnightblue" stroke="midnightblue" points="161.04,-124.1 150.65,-126.16 160.06,-131.03 161.04,-124.1"/>
</g>
<!-- Node4 -->
<g id="node4" class="node">
<title>Node4</title>
<g id="a_node4"><a xlink:title=" ">
<polygon fill="white" stroke="#bfbfbf" points="1096,-0.5 1096,-19.5 1140,-19.5 1140,-0.5 1096,-0.5"/>
<text text-anchor="middle" x="1118" y="-7.5" font-family="Helvetica,sans-Serif" font-size="10.00">string</text>
</a>
</g>
</g>
<!-- Node3&#45;&gt;Node4 -->
<g id="edge3" class="edge">
<title>Node3&#45;&gt;Node4</title>
<path fill="none" stroke="midnightblue" d="M813.51,-118.39C850.89,-113.21 932.22,-100.02 997,-76 1033.52,-62.46 1072.69,-39.74 1096.26,-25.07"/>
<polygon fill="midnightblue" stroke="midnightblue" points="1098.2,-27.98 1104.79,-19.69 1094.46,-22.07 1098.2,-27.98"/>
</g>
<!-- Node5 -->
<g id="node5" class="node">
<title>Node5</title>
<g id="a_node5"><a xlink:title=" ">
<polygon fill="white" stroke="#bfbfbf" points="0,-0.5 0,-19.5 58,-19.5 58,-0.5 0,-0.5"/>
<text text-anchor="middle" x="29" y="-7.5" font-family="Helvetica,sans-Serif" font-size="10.00">memory</text>
</a>
</g>
</g>
<!-- Node3&#45;&gt;Node5 -->
<g id="edge4" class="edge">
<title>Node3&#45;&gt;Node5</title>
<path fill="none" stroke="midnightblue" d="M772.49,-114.19C769.34,-113.33 766.1,-112.56 763,-112 531.58,-69.94 461.63,-138.96 235,-76 216.23,-70.79 214.17,-63.02 196,-56 172.77,-47.03 109.57,-30.8 67.92,-20.48"/>
<polygon fill="midnightblue" stroke="midnightblue" points="68.64,-17.05 58.09,-18.05 66.96,-23.85 68.64,-17.05"/>
</g>
<!-- Node6 -->
<g id="node6" class="node">
<title>Node6</title>
<g id="a_node6"><a xlink:title=" ">
<polygon fill="white" stroke="#bfbfbf" points="766,-0.5 766,-19.5 826,-19.5 826,-0.5 766,-0.5"/>
<text text-anchor="middle" x="796" y="-7.5" font-family="Helvetica,sans-Serif" font-size="10.00">iostream</text>
</a>
</g>
</g>
<!-- Node3&#45;&gt;Node6 -->
<g id="edge5" class="edge">
<title>Node3&#45;&gt;Node6</title>
<path fill="none" stroke="midnightblue" d="M791.11,-112.17C788.69,-99.66 785.01,-76.07 787,-56 787.87,-47.17 789.69,-37.51 791.47,-29.4"/>
<polygon fill="midnightblue" stroke="midnightblue" points="794.9,-30.08 793.77,-19.55 788.08,-28.49 794.9,-30.08"/>
</g>
<!-- Node7 -->
<g id="node7" class="node">
<title>Node7</title>
<g id="a_node7"><a xlink:title=" ">
<polygon fill="white" stroke="#bfbfbf" points="796,-56.5 796,-75.5 852,-75.5 852,-56.5 796,-56.5"/>
<text text-anchor="middle" x="824" y="-63.5" font-family="Helvetica,sans-Serif" font-size="10.00">sstream</text>
</a>
</g>
</g>
<!-- Node3&#45;&gt;Node7 -->
<g id="edge6" class="edge">
<title>Node3&#45;&gt;Node7</title>
<path fill="none" stroke="midnightblue" d="M798.12,-112.08C802.41,-104.61 808.66,-93.72 813.94,-84.52"/>
<polygon fill="midnightblue" stroke="midnightblue" points="817.03,-86.17 818.98,-75.75 810.96,-82.68 817.03,-86.17"/>
</g>
<!-- Node8 -->
<g id="node8" class="node">
<title>Node8</title>
<g id="a_node8"><a xlink:title=" ">
<polygon fill="white" stroke="#bfbfbf" points="575.5,-56.5 575.5,-75.5 630.5,-75.5 630.5,-56.5 575.5,-56.5"/>
<text text-anchor="middle" x="603" y="-63.5" font-family="Helvetica,sans-Serif" font-size="10.00">fstream</text>
</a>
</g>
</g>
<!-- Node3&#45;&gt;Node8 -->
<g id="edge7" class="edge">
<title>Node3&#45;&gt;Node8</title>
<path fill="none" stroke="midnightblue" d="M772.36,-114.76C769.22,-113.82 766.03,-112.88 763,-112 721.12,-99.83 672.92,-86.34 640.46,-77.34"/>
<polygon fill="midnightblue" stroke="midnightblue" points="641.08,-73.88 630.5,-74.58 639.21,-80.62 641.08,-73.88"/>
</g>
<!-- Node9 -->
<g id="node9" class="node">
<title>Node9</title>
<g id="a_node9"><a xlink:title=" ">
<polygon fill="white" stroke="#bfbfbf" points="700.5,-0.5 700.5,-19.5 747.5,-19.5 747.5,-0.5 700.5,-0.5"/>
<text text-anchor="middle" x="724" y="-7.5" font-family="Helvetica,sans-Serif" font-size="10.00">vector</text>
</a>
</g>
</g>
<!-- Node3&#45;&gt;Node9 -->
<g id="edge8" class="edge">
<title>Node3&#45;&gt;Node9</title>
<path fill="none" stroke="midnightblue" d="M787.59,-112.37C776.25,-94.3 749.83,-52.18 734.86,-28.31"/>
<polygon fill="midnightblue" stroke="midnightblue" points="737.67,-26.2 729.39,-19.59 731.74,-29.92 737.67,-26.2"/>
</g>
<!-- Node10 -->
<g id="node10" class="node">
<title>Node10</title>
<g id="a_node10"><a xlink:title=" ">
<polygon fill="white" stroke="#bfbfbf" points="648.5,-56.5 648.5,-75.5 701.5,-75.5 701.5,-56.5 648.5,-56.5"/>
<text text-anchor="middle" x="675" y="-63.5" font-family="Helvetica,sans-Serif" font-size="10.00">cstdarg</text>
</a>
</g>
</g>
<!-- Node3&#45;&gt;Node10 -->
<g id="edge9" class="edge">
<title>Node3&#45;&gt;Node10</title>
<path fill="none" stroke="midnightblue" d="M774.3,-112.44C755.06,-103.64 724.85,-89.81 702.8,-79.72"/>
<polygon fill="midnightblue" stroke="midnightblue" points="704.16,-76.5 693.61,-75.52 701.25,-82.86 704.16,-76.5"/>
</g>
<!-- Node11 -->
<g id="node11" class="node">
<title>Node11</title>
<g id="a_node11"><a xlink:title=" ">
<polygon fill="white" stroke="#bfbfbf" points="496,-0.5 496,-19.5 528,-19.5 528,-0.5 496,-0.5"/>
<text text-anchor="middle" x="512" y="-7.5" font-family="Helvetica,sans-Serif" font-size="10.00">list</text>
</a>
</g>
</g>
<!-- Node3&#45;&gt;Node11 -->
<g id="edge10" class="edge">
<title>Node3&#45;&gt;Node11</title>
<path fill="none" stroke="midnightblue" d="M772.42,-114.5C769.28,-113.6 766.07,-112.74 763,-112 676.46,-91.18 642.83,-120.93 566,-76 546.68,-64.7 531.21,-43.78 521.86,-28.72"/>
<polygon fill="midnightblue" stroke="midnightblue" points="524.71,-26.67 516.62,-19.83 518.68,-30.22 524.71,-26.67"/>
</g>
<!-- Node12 -->
<g id="node12" class="node">
<title>Node12</title>
<g id="a_node12"><a xlink:title=" ">
<polygon fill="white" stroke="#bfbfbf" points="60,-56.5 60,-75.5 98,-75.5 98,-56.5 60,-56.5"/>
<text text-anchor="middle" x="79" y="-63.5" font-family="Helvetica,sans-Serif" font-size="10.00">map</text>
</a>
</g>
</g>
<!-- Node3&#45;&gt;Node12 -->
<g id="edge11" class="edge">
<title>Node3&#45;&gt;Node12</title>
<path fill="none" stroke="midnightblue" d="M772.5,-114.15C769.35,-113.3 766.11,-112.54 763,-112 478.6,-62.26 395.97,-127.61 108.01,-75.67"/>
<polygon fill="midnightblue" stroke="midnightblue" points="108.58,-72.22 98.11,-73.86 107.32,-79.1 108.58,-72.22"/>
</g>
<!-- Node13 -->
<g id="node13" class="node">
<title>Node13</title>
<g id="a_node13"><a xlink:href="util_8h.html" target="_top" xlink:title="util函数">
<polygon fill="white" stroke="black" points="946.5,-56.5 946.5,-75.5 987.5,-75.5 987.5,-56.5 946.5,-56.5"/>
<text text-anchor="middle" x="967" y="-63.5" font-family="Helvetica,sans-Serif" font-size="10.00">util.h</text>
</a>
</g>
</g>
<!-- Node3&#45;&gt;Node13 -->
<g id="edge12" class="edge">
<title>Node3&#45;&gt;Node13</title>
<path fill="none" stroke="midnightblue" d="M813.64,-114.59C844.12,-105.13 901.35,-87.37 936.63,-76.43"/>
<polygon fill="midnightblue" stroke="midnightblue" points="937.87,-79.71 946.38,-73.4 935.8,-73.02 937.87,-79.71"/>
</g>
<!-- Node18 -->
<g id="node18" class="node">
<title>Node18</title>
<g id="a_node18"><a xlink:href="mutex_8h.html" target="_top" xlink:title="信号量，互斥锁，读写锁，范围锁模板，自旋锁，原子锁">
<polygon fill="white" stroke="black" points="244.5,-56.5 244.5,-75.5 301.5,-75.5 301.5,-56.5 244.5,-56.5"/>
<text text-anchor="middle" x="273" y="-63.5" font-family="Helvetica,sans-Serif" font-size="10.00">mutex.h</text>
</a>
</g>
</g>
<!-- Node3&#45;&gt;Node18 -->
<g id="edge20" class="edge">
<title>Node3&#45;&gt;Node18</title>
<path fill="none" stroke="midnightblue" d="M772.48,-114.25C769.33,-113.39 766.1,-112.6 763,-112 597.12,-79.84 395.06,-70.51 311.75,-67.93"/>
<polygon fill="midnightblue" stroke="midnightblue" points="311.83,-64.43 301.73,-67.64 311.62,-71.43 311.83,-64.43"/>
</g>
<!-- Node25 -->
<g id="node25" class="node">
<title>Node25</title>
<g id="a_node25"><a xlink:href="singleton_8h.html" target="_top" xlink:title="单例模式封装">
<polygon fill="white" stroke="black" points="116.5,-56.5 116.5,-75.5 187.5,-75.5 187.5,-56.5 116.5,-56.5"/>
<text text-anchor="middle" x="152" y="-63.5" font-family="Helvetica,sans-Serif" font-size="10.00">singleton.h</text>
</a>
</g>
</g>
<!-- Node3&#45;&gt;Node25 -->
<g id="edge30" class="edge">
<title>Node3&#45;&gt;Node25</title>
<path fill="none" stroke="midnightblue" d="M772.49,-114.18C769.34,-113.32 766.1,-112.56 763,-112 517.09,-67.82 450.02,-106.18 202,-76 200.55,-75.82 199.08,-75.63 197.59,-75.43"/>
<polygon fill="midnightblue" stroke="midnightblue" points="198.11,-71.97 187.7,-73.94 197.07,-78.89 198.11,-71.97"/>
</g>
<!-- Node13&#45;&gt;Node4 -->
<g id="edge17" class="edge">
<title>Node13&#45;&gt;Node4</title>
<path fill="none" stroke="midnightblue" d="M987.68,-57.6C1013.15,-48.5 1056.68,-32.93 1086.37,-22.31"/>
<polygon fill="midnightblue" stroke="midnightblue" points="1087.62,-25.58 1095.86,-18.92 1085.26,-18.99 1087.62,-25.58"/>
</g>
<!-- Node13&#45;&gt;Node6 -->
<g id="edge19" class="edge">
<title>Node13&#45;&gt;Node6</title>
<path fill="none" stroke="midnightblue" d="M946.37,-58.49C918.32,-49.63 867.66,-33.63 832.96,-22.67"/>
<polygon fill="midnightblue" stroke="midnightblue" points="833.77,-19.26 823.18,-19.58 831.66,-25.93 833.77,-19.26"/>
</g>
<!-- Node13&#45;&gt;Node9 -->
<g id="edge18" class="edge">
<title>Node13&#45;&gt;Node9</title>
<path fill="none" stroke="midnightblue" d="M946.31,-59.5C941.62,-58.3 936.65,-57.07 932,-56 857.66,-38.81 835.91,-38.46 757.59,-20.01"/>
<polygon fill="midnightblue" stroke="midnightblue" points="758.29,-16.58 747.75,-17.67 756.66,-23.39 758.29,-16.58"/>
</g>
<!-- Node14 -->
<g id="node14" class="node">
<title>Node14</title>
<g id="a_node14"><a xlink:title=" ">
<polygon fill="white" stroke="#bfbfbf" points="844,-0.5 844,-19.5 916,-19.5 916,-0.5 844,-0.5"/>
<text text-anchor="middle" x="880" y="-7.5" font-family="Helvetica,sans-Serif" font-size="10.00">sys/types.h</text>
</a>
</g>
</g>
<!-- Node13&#45;&gt;Node14 -->
<g id="edge13" class="edge">
<title>Node13&#45;&gt;Node14</title>
<path fill="none" stroke="midnightblue" d="M953.02,-56.32C939.45,-47.9 918.62,-34.97 902.68,-25.07"/>
<polygon fill="midnightblue" stroke="midnightblue" points="904.29,-21.95 893.94,-19.65 900.59,-27.9 904.29,-21.95"/>
</g>
<!-- Node15 -->
<g id="node15" class="node">
<title>Node15</title>
<g id="a_node15"><a xlink:title=" ">
<polygon fill="white" stroke="#bfbfbf" points="629.5,-0.5 629.5,-19.5 682.5,-19.5 682.5,-0.5 629.5,-0.5"/>
<text text-anchor="middle" x="656" y="-7.5" font-family="Helvetica,sans-Serif" font-size="10.00">stdint.h</text>
</a>
</g>
</g>
<!-- Node13&#45;&gt;Node15 -->
<g id="edge14" class="edge">
<title>Node13&#45;&gt;Node15</title>
<path fill="none" stroke="midnightblue" d="M946.45,-62.3C901.94,-56.3 793.11,-40.91 692.7,-20.21"/>
<polygon fill="midnightblue" stroke="midnightblue" points="693.2,-16.74 682.69,-18.13 691.77,-23.6 693.2,-16.74"/>
</g>
<!-- Node16 -->
<g id="node16" class="node">
<title>Node16</title>
<g id="a_node16"><a xlink:title=" ">
<polygon fill="white" stroke="#bfbfbf" points="934,-0.5 934,-19.5 1002,-19.5 1002,-0.5 934,-0.5"/>
<text text-anchor="middle" x="968" y="-7.5" font-family="Helvetica,sans-Serif" font-size="10.00">sys/time.h</text>
</a>
</g>
</g>
<!-- Node13&#45;&gt;Node16 -->
<g id="edge15" class="edge">
<title>Node13&#45;&gt;Node16</title>
<path fill="none" stroke="midnightblue" d="M967.17,-56.08C967.3,-49.01 967.48,-38.86 967.65,-29.99"/>
<polygon fill="midnightblue" stroke="midnightblue" points="971.15,-29.81 967.84,-19.75 964.15,-29.68 971.15,-29.81"/>
</g>
<!-- Node17 -->
<g id="node17" class="node">
<title>Node17</title>
<g id="a_node17"><a xlink:title=" ">
<polygon fill="white" stroke="#bfbfbf" points="1020,-0.5 1020,-19.5 1078,-19.5 1078,-0.5 1020,-0.5"/>
<text text-anchor="middle" x="1049" y="-7.5" font-family="Helvetica,sans-Serif" font-size="10.00">cxxabi.h</text>
</a>
</g>
</g>
<!-- Node13&#45;&gt;Node17 -->
<g id="edge16" class="edge">
<title>Node13&#45;&gt;Node17</title>
<path fill="none" stroke="midnightblue" d="M980.17,-56.32C992.85,-47.98 1012.23,-35.21 1027.21,-25.35"/>
<polygon fill="midnightblue" stroke="midnightblue" points="1029.43,-28.08 1035.86,-19.65 1025.58,-22.23 1029.43,-28.08"/>
</g>
<!-- Node18&#45;&gt;Node5 -->
<g id="edge23" class="edge">
<title>Node18&#45;&gt;Node5</title>
<path fill="none" stroke="midnightblue" d="M244.3,-58.9C206.34,-50.79 137.07,-35.87 68.19,-20.24"/>
<polygon fill="midnightblue" stroke="midnightblue" points="68.56,-16.74 58.03,-17.93 67.01,-23.56 68.56,-16.74"/>
</g>
<!-- Node18&#45;&gt;Node11 -->
<g id="edge28" class="edge">
<title>Node18&#45;&gt;Node11</title>
<path fill="none" stroke="midnightblue" d="M301.5,-59.03C351.57,-48.55 452.61,-27.37 485.88,-19.65"/>
<polygon fill="midnightblue" stroke="midnightblue" points="487.11,-22.95 495.97,-17.14 485.42,-16.16 487.11,-22.95"/>
</g>
<!-- Node18&#45;&gt;Node15 -->
<g id="edge26" class="edge">
<title>Node18&#45;&gt;Node15</title>
<path fill="none" stroke="midnightblue" d="M301.62,-58.64C306.4,-57.68 311.33,-56.76 316,-56 447.12,-34.56 484.44,-44.07 619.45,-19.87"/>
<polygon fill="midnightblue" stroke="midnightblue" points="620.14,-23.3 629.35,-18.06 618.88,-16.41 620.14,-23.3"/>
</g>
<!-- Node19 -->
<g id="node19" class="node">
<title>Node19</title>
<g id="a_node19"><a xlink:title=" ">
<polygon fill="white" stroke="#bfbfbf" points="182,-0.5 182,-19.5 230,-19.5 230,-0.5 182,-0.5"/>
<text text-anchor="middle" x="206" y="-7.5" font-family="Helvetica,sans-Serif" font-size="10.00">thread</text>
</a>
</g>
</g>
<!-- Node18&#45;&gt;Node19 -->
<g id="edge21" class="edge">
<title>Node18&#45;&gt;Node19</title>
<path fill="none" stroke="midnightblue" d="M262.24,-56.32C252.23,-48.26 237.11,-36.08 225.07,-26.37"/>
<polygon fill="midnightblue" stroke="midnightblue" points="226.94,-23.38 216.96,-19.83 222.55,-28.83 226.94,-23.38"/>
</g>
<!-- Node20 -->
<g id="node20" class="node">
<title>Node20</title>
<g id="a_node20"><a xlink:title=" ">
<polygon fill="white" stroke="#bfbfbf" points="546.5,-0.5 546.5,-19.5 611.5,-19.5 611.5,-0.5 546.5,-0.5"/>
<text text-anchor="middle" x="579" y="-7.5" font-family="Helvetica,sans-Serif" font-size="10.00">functional</text>
</a>
</g>
</g>
<!-- Node18&#45;&gt;Node20 -->
<g id="edge22" class="edge">
<title>Node18&#45;&gt;Node20</title>
<path fill="none" stroke="midnightblue" d="M301.65,-58.82C306.43,-57.84 311.35,-56.86 316,-56 410.69,-38.39 437.49,-38.41 536.35,-20.03"/>
<polygon fill="midnightblue" stroke="midnightblue" points="537.29,-23.42 546.47,-18.14 536,-16.54 537.29,-23.42"/>
</g>
<!-- Node21 -->
<g id="node21" class="node">
<title>Node21</title>
<g id="a_node21"><a xlink:title=" ">
<polygon fill="white" stroke="#bfbfbf" points="248.5,-0.5 248.5,-19.5 311.5,-19.5 311.5,-0.5 248.5,-0.5"/>
<text text-anchor="middle" x="280" y="-7.5" font-family="Helvetica,sans-Serif" font-size="10.00">pthread.h</text>
</a>
</g>
</g>
<!-- Node18&#45;&gt;Node21 -->
<g id="edge24" class="edge">
<title>Node18&#45;&gt;Node21</title>
<path fill="none" stroke="midnightblue" d="M274.16,-56.08C275.08,-48.93 276.42,-38.64 277.58,-29.69"/>
<polygon fill="midnightblue" stroke="midnightblue" points="281.05,-30.12 278.87,-19.75 274.11,-29.22 281.05,-30.12"/>
</g>
<!-- Node22 -->
<g id="node22" class="node">
<title>Node22</title>
<g id="a_node22"><a xlink:title=" ">
<polygon fill="white" stroke="#bfbfbf" points="330,-0.5 330,-19.5 410,-19.5 410,-0.5 330,-0.5"/>
<text text-anchor="middle" x="370" y="-7.5" font-family="Helvetica,sans-Serif" font-size="10.00">semaphore.h</text>
</a>
</g>
</g>
<!-- Node18&#45;&gt;Node22 -->
<g id="edge25" class="edge">
<title>Node18&#45;&gt;Node22</title>
<path fill="none" stroke="midnightblue" d="M288.58,-56.32C304,-47.74 327.81,-34.49 345.71,-24.52"/>
<polygon fill="midnightblue" stroke="midnightblue" points="347.42,-27.58 354.45,-19.65 344.01,-21.46 347.42,-27.58"/>
</g>
<!-- Node23 -->
<g id="node23" class="node">
<title>Node23</title>
<g id="a_node23"><a xlink:title=" ">
<polygon fill="white" stroke="#bfbfbf" points="428,-0.5 428,-19.5 478,-19.5 478,-0.5 428,-0.5"/>
<text text-anchor="middle" x="453" y="-7.5" font-family="Helvetica,sans-Serif" font-size="10.00">atomic</text>
</a>
</g>
</g>
<!-- Node18&#45;&gt;Node23 -->
<g id="edge27" class="edge">
<title>Node18&#45;&gt;Node23</title>
<path fill="none" stroke="midnightblue" d="M301.52,-56.44C333.05,-46.98 383.87,-31.74 417.85,-21.55"/>
<polygon fill="midnightblue" stroke="midnightblue" points="419.23,-24.78 427.81,-18.56 417.22,-18.08 419.23,-24.78"/>
</g>
<!-- Node24 -->
<g id="node24" class="node">
<title>Node24</title>
<g id="a_node24"><a xlink:href="noncopyable_8h.html" target="_top" xlink:title="不可拷贝对象封装">
<polygon fill="white" stroke="black" points="76,-0.5 76,-19.5 164,-19.5 164,-0.5 76,-0.5"/>
<text text-anchor="middle" x="120" y="-7.5" font-family="Helvetica,sans-Serif" font-size="10.00">noncopyable.h</text>
</a>
</g>
</g>
<!-- Node18&#45;&gt;Node24 -->
<g id="edge29" class="edge">
<title>Node18&#45;&gt;Node24</title>
<path fill="none" stroke="midnightblue" d="M248.76,-56.44C223.13,-47.4 182.51,-33.06 153.76,-22.92"/>
<polygon fill="midnightblue" stroke="midnightblue" points="154.72,-19.54 144.13,-19.52 152.39,-26.15 154.72,-19.54"/>
</g>
<!-- Node25&#45;&gt;Node5 -->
<g id="edge31" class="edge">
<title>Node25&#45;&gt;Node5</title>
<path fill="none" stroke="midnightblue" d="M132.51,-56.44C112.36,-47.6 80.68,-33.69 57.67,-23.59"/>
<polygon fill="midnightblue" stroke="midnightblue" points="58.96,-20.33 48.4,-19.52 56.15,-26.74 58.96,-20.33"/>
</g>
<!-- Node26&#45;&gt;Node3 -->
<g id="edge46" class="edge">
<title>Node26&#45;&gt;Node3</title>
<path fill="none" stroke="midnightblue" d="M630.5,-169.42C660.54,-161.11 710.32,-147.24 762.57,-132.09"/>
<polygon fill="midnightblue" stroke="midnightblue" points="763.73,-135.4 772.36,-129.24 761.78,-128.67 763.73,-135.4"/>
</g>
<!-- Node26&#45;&gt;Node4 -->
<g id="edge34" class="edge">
<title>Node26&#45;&gt;Node4</title>
<path fill="none" stroke="midnightblue" d="M630.67,-175.19C702.76,-170.2 894.91,-155.06 954,-132 1016.1,-107.76 1075.62,-53.67 1102.72,-26.79"/>
<polygon fill="midnightblue" stroke="midnightblue" points="1105.22,-29.24 1109.77,-19.68 1100.25,-24.31 1105.22,-29.24"/>
</g>
<!-- Node26&#45;&gt;Node5 -->
<g id="edge33" class="edge">
<title>Node26&#45;&gt;Node5</title>
<path fill="none" stroke="midnightblue" d="M575.23,-173.46C560.85,-171.69 543,-169.59 527,-168 428.06,-158.15 164.19,-186.47 81,-132 46.2,-109.21 34.6,-57.7 30.8,-29.8"/>
<polygon fill="midnightblue" stroke="midnightblue" points="34.26,-29.28 29.63,-19.75 27.31,-30.09 34.26,-29.28"/>
</g>
<!-- Node26&#45;&gt;Node7 -->
<g id="edge35" class="edge">
<title>Node26&#45;&gt;Node7</title>
<path fill="none" stroke="midnightblue" d="M630.8,-175.51C684.38,-172 798.8,-161.19 823,-132 833.56,-119.26 832.35,-99.79 829.39,-85.48"/>
<polygon fill="midnightblue" stroke="midnightblue" points="832.78,-84.59 826.95,-75.74 825.99,-86.29 832.78,-84.59"/>
</g>
<!-- Node26&#45;&gt;Node9 -->
<g id="edge38" class="edge">
<title>Node26&#45;&gt;Node9</title>
<path fill="none" stroke="midnightblue" d="M630.85,-175.79C690.68,-172.63 828.84,-162.18 863,-132 888.94,-109.08 900.81,-83.66 880,-56 879.05,-54.74 802.8,-33.14 757.26,-20.33"/>
<polygon fill="midnightblue" stroke="midnightblue" points="758.08,-16.92 747.51,-17.59 756.19,-23.66 758.08,-16.92"/>
</g>
<!-- Node26&#45;&gt;Node11 -->
<g id="edge39" class="edge">
<title>Node26&#45;&gt;Node11</title>
<path fill="none" stroke="midnightblue" d="M575.26,-171.79C567.73,-170.46 559.56,-169.1 552,-168 482.06,-157.85 283.06,-184.73 236,-132 230.08,-125.37 230.91,-119.29 236,-112 236.95,-110.64 417.44,-45.22 485.99,-20.41"/>
<polygon fill="midnightblue" stroke="midnightblue" points="487.42,-23.62 495.63,-16.92 485.03,-17.03 487.42,-23.62"/>
</g>
<!-- Node26&#45;&gt;Node12 -->
<g id="edge40" class="edge">
<title>Node26&#45;&gt;Node12</title>
<path fill="none" stroke="midnightblue" d="M575.23,-173.48C560.85,-171.72 543,-169.62 527,-168 479.41,-163.19 135.04,-162.27 98,-132 84.51,-120.97 80.27,-100.93 79.09,-86"/>
<polygon fill="midnightblue" stroke="midnightblue" points="82.58,-85.67 78.69,-75.82 75.59,-85.95 82.58,-85.67"/>
</g>
<!-- Node26&#45;&gt;Node13 -->
<g id="edge47" class="edge">
<title>Node26&#45;&gt;Node13</title>
<path fill="none" stroke="midnightblue" d="M630.67,-176.38C700.79,-174.32 883.33,-165.76 932,-132 947.76,-121.07 957.06,-100.7 962.06,-85.67"/>
<polygon fill="midnightblue" stroke="midnightblue" points="965.48,-86.46 964.97,-75.87 958.77,-84.46 965.48,-86.46"/>
</g>
<!-- Node26&#45;&gt;Node18 -->
<g id="edge45" class="edge">
<title>Node26&#45;&gt;Node18</title>
<path fill="none" stroke="midnightblue" d="M575.07,-170.56C570.39,-169.61 565.57,-168.72 561,-168 482.01,-155.6 256.64,-191.3 203,-132 185.46,-112.61 216.07,-92.45 242.17,-79.83"/>
<polygon fill="midnightblue" stroke="midnightblue" points="243.87,-82.9 251.49,-75.53 240.94,-76.54 243.87,-82.9"/>
</g>
<!-- Node26&#45;&gt;Node20 -->
<g id="edge44" class="edge">
<title>Node26&#45;&gt;Node20</title>
<path fill="none" stroke="midnightblue" d="M630.78,-175.1C686.36,-170.77 808.6,-158.44 840,-132 866.81,-109.43 883.88,-82.55 861,-56 827.45,-17.06 688.43,-28.45 621.7,-19.92"/>
<polygon fill="midnightblue" stroke="midnightblue" points="622.05,-16.44 611.63,-18.37 620.98,-23.35 622.05,-16.44"/>
</g>
<!-- Node27 -->
<g id="node27" class="node">
<title>Node27</title>
<g id="a_node27"><a xlink:title=" ">
<polygon fill="white" stroke="#bfbfbf" points="245.5,-112.5 245.5,-131.5 370.5,-131.5 370.5,-112.5 245.5,-112.5"/>
<text text-anchor="middle" x="308" y="-119.5" font-family="Helvetica,sans-Serif" font-size="10.00">boost/lexical_cast.hpp</text>
</a>
</g>
</g>
<!-- Node26&#45;&gt;Node27 -->
<g id="edge36" class="edge">
<title>Node26&#45;&gt;Node27</title>
<path fill="none" stroke="midnightblue" d="M575.47,-170.96C570.65,-169.94 565.68,-168.92 561,-168 495.54,-155.17 420.23,-141.97 368.91,-133.22"/>
<polygon fill="midnightblue" stroke="midnightblue" points="369.43,-129.75 358.98,-131.53 368.25,-136.66 369.43,-129.75"/>
</g>
<!-- Node28 -->
<g id="node28" class="node">
<title>Node28</title>
<g id="a_node28"><a xlink:title=" ">
<polygon fill="white" stroke="#bfbfbf" points="388.5,-112.5 388.5,-131.5 487.5,-131.5 487.5,-112.5 388.5,-112.5"/>
<text text-anchor="middle" x="438" y="-119.5" font-family="Helvetica,sans-Serif" font-size="10.00">yaml&#45;cpp/yaml.h</text>
</a>
</g>
</g>
<!-- Node26&#45;&gt;Node28 -->
<g id="edge37" class="edge">
<title>Node26&#45;&gt;Node28</title>
<path fill="none" stroke="midnightblue" d="M576.86,-168.44C548.98,-159.32 504.65,-144.81 473.6,-134.65"/>
<polygon fill="midnightblue" stroke="midnightblue" points="474.62,-131.3 464.02,-131.52 472.44,-137.95 474.62,-131.3"/>
</g>
<!-- Node29 -->
<g id="node29" class="node">
<title>Node29</title>
<g id="a_node29"><a xlink:title=" ">
<polygon fill="white" stroke="#bfbfbf" points="506,-112.5 506,-131.5 538,-131.5 538,-112.5 506,-112.5"/>
<text text-anchor="middle" x="522" y="-119.5" font-family="Helvetica,sans-Serif" font-size="10.00">set</text>
</a>
</g>
</g>
<!-- Node26&#45;&gt;Node29 -->
<g id="edge41" class="edge">
<title>Node26&#45;&gt;Node29</title>
<path fill="none" stroke="midnightblue" d="M589.99,-168.32C577.47,-159.98 558.32,-147.21 543.53,-137.35"/>
<polygon fill="midnightblue" stroke="midnightblue" points="545.24,-134.29 534.98,-131.65 541.36,-140.11 545.24,-134.29"/>
</g>
<!-- Node30 -->
<g id="node30" class="node">
<title>Node30</title>
<g id="a_node30"><a xlink:title=" ">
<polygon fill="white" stroke="#bfbfbf" points="556.5,-112.5 556.5,-131.5 649.5,-131.5 649.5,-112.5 556.5,-112.5"/>
<text text-anchor="middle" x="603" y="-119.5" font-family="Helvetica,sans-Serif" font-size="10.00">unordered_map</text>
</a>
</g>
</g>
<!-- Node26&#45;&gt;Node30 -->
<g id="edge42" class="edge">
<title>Node26&#45;&gt;Node30</title>
<path fill="none" stroke="midnightblue" d="M603,-168.08C603,-161.01 603,-150.86 603,-141.99"/>
<polygon fill="midnightblue" stroke="midnightblue" points="606.5,-141.75 603,-131.75 599.5,-141.75 606.5,-141.75"/>
</g>
<!-- Node31 -->
<g id="node31" class="node">
<title>Node31</title>
<g id="a_node31"><a xlink:title=" ">
<polygon fill="white" stroke="#bfbfbf" points="668,-112.5 668,-131.5 754,-131.5 754,-112.5 668,-112.5"/>
<text text-anchor="middle" x="711" y="-119.5" font-family="Helvetica,sans-Serif" font-size="10.00">unordered_set</text>
</a>
</g>
</g>
<!-- Node26&#45;&gt;Node31 -->
<g id="edge43" class="edge">
<title>Node26&#45;&gt;Node31</title>
<path fill="none" stroke="midnightblue" d="M620.35,-168.32C637.67,-159.66 664.52,-146.24 684.5,-136.25"/>
<polygon fill="midnightblue" stroke="midnightblue" points="686.31,-139.26 693.69,-131.65 683.18,-133 686.31,-139.26"/>
</g>
<!-- Node32&#45;&gt;Node9 -->
<g id="edge52" class="edge">
<title>Node32&#45;&gt;Node9</title>
<path fill="none" stroke="midnightblue" d="M150.58,-117.83C224.5,-106.81 474.41,-68.34 690.34,-19.98"/>
<polygon fill="midnightblue" stroke="midnightblue" points="691.28,-23.35 700.27,-17.74 689.75,-16.52 691.28,-23.35"/>
</g>
<!-- Node32&#45;&gt;Node12 -->
<g id="edge51" class="edge">
<title>Node32&#45;&gt;Node12</title>
<path fill="none" stroke="midnightblue" d="M120.74,-112.08C113.54,-104.3 102.89,-92.8 94.15,-83.37"/>
<polygon fill="midnightblue" stroke="midnightblue" points="96.47,-80.71 87.1,-75.75 91.33,-85.47 96.47,-80.71"/>
</g>
<!-- Node32&#45;&gt;Node18 -->
<g id="edge50" class="edge">
<title>Node32&#45;&gt;Node18</title>
<path fill="none" stroke="midnightblue" d="M150.56,-112.92C174.32,-104.01 212.8,-89.57 240.28,-79.27"/>
<polygon fill="midnightblue" stroke="midnightblue" points="241.73,-82.47 249.86,-75.68 239.27,-75.91 241.73,-82.47"/>
</g>
<!-- Node32&#45;&gt;Node25 -->
<g id="edge49" class="edge">
<title>Node32&#45;&gt;Node25</title>
<path fill="none" stroke="midnightblue" d="M132.8,-112.08C135.91,-104.77 140.42,-94.18 144.29,-85.1"/>
<polygon fill="midnightblue" stroke="midnightblue" points="147.57,-86.32 148.27,-75.75 141.13,-83.58 147.57,-86.32"/>
</g>
</g>
</svg>
