<?xml version="1.0" encoding="UTF-8" standalone="no"?>
<!DOCTYPE svg PUBLIC "-//W3C//DTD SVG 1.1//EN"
 "http://www.w3.org/Graphics/SVG/1.1/DTD/svg11.dtd">
<!-- Generated by graphviz version 2.43.0 (0)
 -->
<!-- Title: sylar/log.h Pages: 1 -->
<svg width="2399pt" height="498pt"
 viewBox="0.00 0.00 2398.50 498.00" xmlns="http://www.w3.org/2000/svg" xmlns:xlink="http://www.w3.org/1999/xlink">
<g id="graph0" class="graph" transform="scale(1 1) rotate(0) translate(4 494)">
<title>sylar/log.h</title>
<polygon fill="white" stroke="transparent" points="-4,4 -4,-494 2394.5,-494 2394.5,4 -4,4"/>
<!-- Node1 -->
<g id="node1" class="node">
<title>Node1</title>
<g id="a_node1"><a xlink:title="日志模块">
<polygon fill="#bfbfbf" stroke="black" points="1134.5,-470.5 1134.5,-489.5 1202.5,-489.5 1202.5,-470.5 1134.5,-470.5"/>
<text text-anchor="middle" x="1168.5" y="-477.5" font-family="Helvetica,sans-Serif" font-size="10.00">sylar/log.h</text>
</a>
</g>
</g>
<!-- Node2 -->
<g id="node2" class="node">
<title>Node2</title>
<g id="a_node2"><a xlink:href="config_8h.html" target="_top" xlink:title="配置模块">
<polygon fill="white" stroke="black" points="880.5,-414.5 880.5,-433.5 962.5,-433.5 962.5,-414.5 880.5,-414.5"/>
<text text-anchor="middle" x="921.5" y="-421.5" font-family="Helvetica,sans-Serif" font-size="10.00">sylar/config.h</text>
</a>
</g>
</g>
<!-- Node1&#45;&gt;Node2 -->
<g id="edge1" class="edge">
<title>Node1&#45;&gt;Node2</title>
<path fill="none" stroke="midnightblue" d="M1124.61,-469.4C1078.04,-459.22 1005.15,-443.29 960.52,-433.53"/>
<polygon fill="midnightblue" stroke="midnightblue" points="1123.9,-472.83 1134.42,-471.55 1125.39,-465.99 1123.9,-472.83"/>
</g>
<!-- Node4 -->
<g id="node4" class="node">
<title>Node4</title>
<g id="a_node4"><a xlink:href="env_8cc.html" target="_top" xlink:title="环境变量管理接口实现">
<polygon fill="white" stroke="black" points="596.5,-358.5 596.5,-377.5 670.5,-377.5 670.5,-358.5 596.5,-358.5"/>
<text text-anchor="middle" x="633.5" y="-365.5" font-family="Helvetica,sans-Serif" font-size="10.00">sylar/env.cc</text>
</a>
</g>
</g>
<!-- Node1&#45;&gt;Node4 -->
<g id="edge29" class="edge">
<title>Node1&#45;&gt;Node4</title>
<path fill="none" stroke="midnightblue" d="M1124.37,-476.03C1058.43,-470.98 930.57,-458.73 824.5,-434 761.05,-419.21 688.97,-391.6 654.3,-377.6"/>
<polygon fill="midnightblue" stroke="midnightblue" points="1124.18,-479.53 1134.41,-476.79 1124.7,-472.55 1124.18,-479.53"/>
</g>
<!-- Node5 -->
<g id="node5" class="node">
<title>Node5</title>
<g id="a_node5"><a xlink:href="http__parser_8cc.html" target="_top" xlink:title="HTTP协议解析实现">
<polygon fill="white" stroke="black" points="688.5,-358.5 688.5,-377.5 822.5,-377.5 822.5,-358.5 688.5,-358.5"/>
<text text-anchor="middle" x="755.5" y="-365.5" font-family="Helvetica,sans-Serif" font-size="10.00">sylar/http/http_parser.cc</text>
</a>
</g>
</g>
<!-- Node1&#45;&gt;Node5 -->
<g id="edge30" class="edge">
<title>Node1&#45;&gt;Node5</title>
<path fill="none" stroke="midnightblue" d="M1124.03,-477.23C1064.91,-473.77 957.82,-463.62 871.5,-434 830.67,-419.99 787.59,-391.76 767.34,-377.57"/>
<polygon fill="midnightblue" stroke="midnightblue" points="1123.98,-480.73 1134.15,-477.79 1124.36,-473.74 1123.98,-480.73"/>
</g>
<!-- Node6 -->
<g id="node6" class="node">
<title>Node6</title>
<g id="a_node6"><a xlink:href="log_8cpp.html" target="_top" xlink:title="日志模块实现">
<polygon fill="white" stroke="black" points="1021,-358.5 1021,-377.5 1100,-377.5 1100,-358.5 1021,-358.5"/>
<text text-anchor="middle" x="1060.5" y="-365.5" font-family="Helvetica,sans-Serif" font-size="10.00">sylar/log.cpp</text>
</a>
</g>
</g>
<!-- Node1&#45;&gt;Node6 -->
<g id="edge32" class="edge">
<title>Node1&#45;&gt;Node6</title>
<path fill="none" stroke="midnightblue" d="M1148.62,-463.87C1138.08,-455.5 1125.14,-444.66 1114.5,-434 1095.84,-415.31 1076.72,-390.77 1067.02,-377.84"/>
<polygon fill="midnightblue" stroke="midnightblue" points="1146.77,-466.87 1156.81,-470.26 1151.08,-461.35 1146.77,-466.87"/>
</g>
<!-- Node7 -->
<g id="node7" class="node">
<title>Node7</title>
<g id="a_node7"><a xlink:href="sylar_8h_source.html" target="_top" xlink:title=" ">
<polygon fill="white" stroke="black" points="1123.5,-67.5 1123.5,-86.5 1199.5,-86.5 1199.5,-67.5 1123.5,-67.5"/>
<text text-anchor="middle" x="1161.5" y="-74.5" font-family="Helvetica,sans-Serif" font-size="10.00">sylar/sylar.h</text>
</a>
</g>
</g>
<!-- Node1&#45;&gt;Node7 -->
<g id="edge51" class="edge">
<title>Node1&#45;&gt;Node7</title>
<path fill="none" stroke="midnightblue" d="M1163.03,-460.71C1154.73,-435.36 1136.96,-389.16 1109.5,-358 1090.18,-336.08 1078.78,-338.25 1054.5,-322 1010.65,-292.66 981.12,-301.66 956.5,-255 937.01,-218.07 907.13,-199.75 982.5,-123 1001.92,-103.22 1076.84,-89.63 1123.38,-82.89"/>
<polygon fill="midnightblue" stroke="midnightblue" points="1159.76,-461.98 1166.09,-470.48 1166.44,-459.89 1159.76,-461.98"/>
</g>
<!-- Node28 -->
<g id="node28" class="node">
<title>Node28</title>
<g id="a_node28"><a xlink:href="iomanager_8cc.html" target="_top" xlink:title="IO协程调度器实现">
<polygon fill="white" stroke="black" points="1387,-297 1387,-316 1496,-316 1496,-297 1387,-297"/>
<text text-anchor="middle" x="1441.5" y="-304" font-family="Helvetica,sans-Serif" font-size="10.00">sylar/iomanager.cc</text>
</a>
</g>
</g>
<!-- Node1&#45;&gt;Node28 -->
<g id="edge31" class="edge">
<title>Node1&#45;&gt;Node28</title>
<path fill="none" stroke="midnightblue" d="M1212.79,-478.24C1282.64,-476.02 1413.55,-467.4 1443.5,-434 1473.71,-400.32 1454.01,-338.93 1445.16,-316.24"/>
<polygon fill="midnightblue" stroke="midnightblue" points="1212.43,-474.75 1202.54,-478.53 1212.63,-481.75 1212.43,-474.75"/>
</g>
<!-- Node29 -->
<g id="node29" class="node">
<title>Node29</title>
<g id="a_node29"><a xlink:href="macro_8h.html" target="_top" xlink:title="常用宏的封装">
<polygon fill="white" stroke="black" points="1351,-414.5 1351,-433.5 1434,-433.5 1434,-414.5 1351,-414.5"/>
<text text-anchor="middle" x="1392.5" y="-421.5" font-family="Helvetica,sans-Serif" font-size="10.00">sylar/macro.h</text>
</a>
</g>
</g>
<!-- Node1&#45;&gt;Node29 -->
<g id="edge33" class="edge">
<title>Node1&#45;&gt;Node29</title>
<path fill="none" stroke="midnightblue" d="M1212.26,-468.45C1254.55,-458.26 1317.81,-443 1357.05,-433.55"/>
<polygon fill="midnightblue" stroke="midnightblue" points="1211.42,-465.05 1202.52,-470.8 1213.06,-471.86 1211.42,-465.05"/>
</g>
<!-- Node31 -->
<g id="node31" class="node">
<title>Node31</title>
<g id="a_node31"><a xlink:href="scheduler_8h.html" target="_top" xlink:title="协程调度器实现">
<polygon fill="white" stroke="black" points="1196,-414.5 1196,-433.5 1295,-433.5 1295,-414.5 1196,-414.5"/>
<text text-anchor="middle" x="1245.5" y="-421.5" font-family="Helvetica,sans-Serif" font-size="10.00">sylar/scheduler.h</text>
</a>
</g>
</g>
<!-- Node1&#45;&gt;Node31 -->
<g id="edge37" class="edge">
<title>Node1&#45;&gt;Node31</title>
<path fill="none" stroke="midnightblue" d="M1189.4,-464.34C1203.41,-454.52 1221.38,-441.91 1233.16,-433.65"/>
<polygon fill="midnightblue" stroke="midnightblue" points="1187.05,-461.72 1180.87,-470.32 1191.07,-467.45 1187.05,-461.72"/>
</g>
<!-- Node36 -->
<g id="node36" class="node">
<title>Node36</title>
<g id="a_node36"><a xlink:href="thread_8cc.html" target="_top" xlink:title="线程封装实现">
<polygon fill="white" stroke="black" points="1515,-414.5 1515,-433.5 1604,-433.5 1604,-414.5 1515,-414.5"/>
<text text-anchor="middle" x="1559.5" y="-421.5" font-family="Helvetica,sans-Serif" font-size="10.00">sylar/thread.cc</text>
</a>
</g>
</g>
<!-- Node1&#45;&gt;Node36 -->
<g id="edge52" class="edge">
<title>Node1&#45;&gt;Node36</title>
<path fill="none" stroke="midnightblue" d="M1213.04,-473.2C1276.79,-464.85 1397.7,-448.81 1500.5,-434 1505.12,-433.34 1509.93,-432.63 1514.73,-431.91"/>
<polygon fill="midnightblue" stroke="midnightblue" points="1212.4,-469.76 1202.94,-474.52 1213.31,-476.7 1212.4,-469.76"/>
</g>
<!-- Node37 -->
<g id="node37" class="node">
<title>Node37</title>
<g id="a_node37"><a xlink:href="util_8cpp.html" target="_top" xlink:title="util函数实现">
<polygon fill="white" stroke="black" points="1622.5,-414.5 1622.5,-433.5 1702.5,-433.5 1702.5,-414.5 1622.5,-414.5"/>
<text text-anchor="middle" x="1662.5" y="-421.5" font-family="Helvetica,sans-Serif" font-size="10.00">sylar/util.cpp</text>
</a>
</g>
</g>
<!-- Node1&#45;&gt;Node37 -->
<g id="edge53" class="edge">
<title>Node1&#45;&gt;Node37</title>
<path fill="none" stroke="midnightblue" d="M1212.89,-475.71C1293.11,-469.49 1467.45,-454.76 1613.5,-434 1616.41,-433.59 1619.41,-433.12 1622.43,-432.63"/>
<polygon fill="midnightblue" stroke="midnightblue" points="1212.37,-472.24 1202.67,-476.49 1212.91,-479.22 1212.37,-472.24"/>
</g>
<!-- Node3 -->
<g id="node3" class="node">
<title>Node3</title>
<g id="a_node3"><a xlink:href="config_8cc.html" target="_top" xlink:title="配置模块实现">
<polygon fill="white" stroke="black" points="878.5,-358.5 878.5,-377.5 964.5,-377.5 964.5,-358.5 878.5,-358.5"/>
<text text-anchor="middle" x="921.5" y="-365.5" font-family="Helvetica,sans-Serif" font-size="10.00">sylar/config.cc</text>
</a>
</g>
</g>
<!-- Node2&#45;&gt;Node3 -->
<g id="edge2" class="edge">
<title>Node2&#45;&gt;Node3</title>
<path fill="none" stroke="midnightblue" d="M921.5,-403.8C921.5,-394.91 921.5,-384.78 921.5,-377.75"/>
<polygon fill="midnightblue" stroke="midnightblue" points="918,-404.08 921.5,-414.08 925,-404.08 918,-404.08"/>
</g>
<!-- Node2&#45;&gt;Node4 -->
<g id="edge3" class="edge">
<title>Node2&#45;&gt;Node4</title>
<path fill="none" stroke="midnightblue" d="M870.34,-413.63C821.34,-404.62 745.34,-390.56 679.5,-378 676.62,-377.45 673.64,-376.88 670.65,-376.3"/>
<polygon fill="midnightblue" stroke="midnightblue" points="869.9,-417.11 880.37,-415.47 871.17,-410.22 869.9,-417.11"/>
</g>
<!-- Node2&#45;&gt;Node5 -->
<g id="edge4" class="edge">
<title>Node2&#45;&gt;Node5</title>
<path fill="none" stroke="midnightblue" d="M885.55,-411.3C854.27,-401.13 809.68,-386.62 781.68,-377.52"/>
<polygon fill="midnightblue" stroke="midnightblue" points="884.6,-414.68 895.2,-414.44 886.77,-408.02 884.6,-414.68"/>
</g>
<!-- Node2&#45;&gt;Node6 -->
<g id="edge5" class="edge">
<title>Node2&#45;&gt;Node6</title>
<path fill="none" stroke="midnightblue" d="M952.98,-410.77C979.09,-400.63 1015.54,-386.47 1038.58,-377.52"/>
<polygon fill="midnightblue" stroke="midnightblue" points="951.58,-407.56 943.52,-414.44 954.11,-414.08 951.58,-407.56"/>
</g>
<!-- Node2&#45;&gt;Node7 -->
<g id="edge6" class="edge">
<title>Node2&#45;&gt;Node7</title>
<path fill="none" stroke="midnightblue" d="M899.18,-408.42C888.77,-400.56 877.03,-390.01 869.5,-378 852.25,-350.51 850.5,-339.95 850.5,-307.5 850.5,-307.5 850.5,-307.5 850.5,-188 850.5,-144.56 884.52,-142.18 923.5,-123 988.78,-90.89 1074.52,-81.63 1123.25,-79"/>
<polygon fill="midnightblue" stroke="midnightblue" points="897.33,-411.4 907.5,-414.36 901.4,-405.7 897.33,-411.4"/>
</g>
<!-- Node26 -->
<g id="node26" class="node">
<title>Node26</title>
<g id="a_node26"><a xlink:href="tcp__server_8h.html" target="_top" xlink:title="TCP服务器的封装">
<polygon fill="white" stroke="black" points="966,-235.5 966,-254.5 1069,-254.5 1069,-235.5 966,-235.5"/>
<text text-anchor="middle" x="1017.5" y="-242.5" font-family="Helvetica,sans-Serif" font-size="10.00">sylar/tcp_server.h</text>
</a>
</g>
</g>
<!-- Node2&#45;&gt;Node26 -->
<g id="edge25" class="edge">
<title>Node2&#45;&gt;Node26</title>
<path fill="none" stroke="midnightblue" d="M943.52,-408.23C953.86,-400.32 965.62,-389.78 973.5,-378 1001.03,-336.84 1012.69,-276.96 1016.24,-254.73"/>
<polygon fill="midnightblue" stroke="midnightblue" points="941.3,-405.51 935.28,-414.22 945.42,-411.17 941.3,-405.51"/>
</g>
<!-- Node8 -->
<g id="node8" class="node">
<title>Node8</title>
<g id="a_node8"><a xlink:href="test__address_8cc.html" target="_top" xlink:title="网络地址类测试">
<polygon fill="white" stroke="black" points="0,-6 0,-25 119,-25 119,-6 0,-6"/>
<text text-anchor="middle" x="59.5" y="-13" font-family="Helvetica,sans-Serif" font-size="10.00">tests/test_address.cc</text>
</a>
</g>
</g>
<!-- Node7&#45;&gt;Node8 -->
<g id="edge7" class="edge">
<title>Node7&#45;&gt;Node8</title>
<path fill="none" stroke="midnightblue" d="M1113.43,-74.97C936.55,-71.02 322.03,-55.8 127.5,-31 116.6,-29.61 104.86,-27.38 94.25,-25.07"/>
<polygon fill="midnightblue" stroke="midnightblue" points="1113.4,-78.47 1123.48,-75.19 1113.56,-71.47 1113.4,-78.47"/>
</g>
<!-- Node9 -->
<g id="node9" class="node">
<title>Node9</title>
<g id="a_node9"><a xlink:href="test__bytearray_8cc.html" target="_top" xlink:title="Bytearray类测试">
<polygon fill="white" stroke="black" points="137,-6 137,-25 264,-25 264,-6 137,-6"/>
<text text-anchor="middle" x="200.5" y="-13" font-family="Helvetica,sans-Serif" font-size="10.00">tests/test_bytearray.cc</text>
</a>
</g>
</g>
<!-- Node7&#45;&gt;Node9 -->
<g id="edge8" class="edge">
<title>Node7&#45;&gt;Node9</title>
<path fill="none" stroke="midnightblue" d="M1112.91,-76.01C978.73,-75.52 591.94,-70.48 273.5,-31 261.83,-29.55 249.23,-27.3 237.84,-25"/>
<polygon fill="midnightblue" stroke="midnightblue" points="1113.24,-79.51 1123.25,-76.04 1113.26,-72.51 1113.24,-79.51"/>
</g>
<!-- Node10 -->
<g id="node10" class="node">
<title>Node10</title>
<g id="a_node10"><a xlink:href="test__config_8cc.html" target="_top" xlink:title="配置模块测试">
<polygon fill="white" stroke="black" points="282.5,-6 282.5,-25 392.5,-25 392.5,-6 282.5,-6"/>
<text text-anchor="middle" x="337.5" y="-13" font-family="Helvetica,sans-Serif" font-size="10.00">tests/test_config.cc</text>
</a>
</g>
</g>
<!-- Node7&#45;&gt;Node10 -->
<g id="edge9" class="edge">
<title>Node7&#45;&gt;Node10</title>
<path fill="none" stroke="midnightblue" d="M1113.3,-75.87C992.73,-74.97 668.53,-68.9 401.5,-31 391.35,-29.56 380.42,-27.34 370.53,-25.07"/>
<polygon fill="midnightblue" stroke="midnightblue" points="1113.3,-79.37 1123.32,-75.94 1113.35,-72.37 1113.3,-79.37"/>
</g>
<!-- Node11 -->
<g id="node11" class="node">
<title>Node11</title>
<g id="a_node11"><a xlink:href="test__env_8cc.html" target="_top" xlink:title="环境变量测试">
<polygon fill="white" stroke="black" points="410.5,-6 410.5,-25 508.5,-25 508.5,-6 410.5,-6"/>
<text text-anchor="middle" x="459.5" y="-13" font-family="Helvetica,sans-Serif" font-size="10.00">tests/test_env.cc</text>
</a>
</g>
</g>
<!-- Node7&#45;&gt;Node11 -->
<g id="edge10" class="edge">
<title>Node7&#45;&gt;Node11</title>
<path fill="none" stroke="midnightblue" d="M1113.29,-75.51C1005.71,-73.79 738.18,-66.02 517.5,-31 508.27,-29.54 498.37,-27.31 489.4,-25.04"/>
<polygon fill="midnightblue" stroke="midnightblue" points="1113.44,-79.01 1123.49,-75.66 1113.55,-72.01 1113.44,-79.01"/>
</g>
<!-- Node12 -->
<g id="node12" class="node">
<title>Node12</title>
<g id="a_node12"><a xlink:href="test__fiber_8cc.html" target="_top" xlink:title="协程测试">
<polygon fill="white" stroke="black" points="526.5,-6 526.5,-25 628.5,-25 628.5,-6 526.5,-6"/>
<text text-anchor="middle" x="577.5" y="-13" font-family="Helvetica,sans-Serif" font-size="10.00">tests/test_fiber.cc</text>
</a>
</g>
</g>
<!-- Node7&#45;&gt;Node12 -->
<g id="edge11" class="edge">
<title>Node7&#45;&gt;Node12</title>
<path fill="none" stroke="midnightblue" d="M1113.26,-74.3C1020.54,-70.49 811.27,-59.29 637.5,-31 628.09,-29.47 617.97,-27.25 608.77,-25"/>
<polygon fill="midnightblue" stroke="midnightblue" points="1113.32,-77.8 1123.45,-74.71 1113.6,-70.81 1113.32,-77.8"/>
</g>
<!-- Node13 -->
<g id="node13" class="node">
<title>Node13</title>
<g id="a_node13"><a xlink:href="test__fiber2_8cc.html" target="_top" xlink:title="协程测试，用于演示非对称协程">
<polygon fill="white" stroke="black" points="647,-6 647,-25 756,-25 756,-6 647,-6"/>
<text text-anchor="middle" x="701.5" y="-13" font-family="Helvetica,sans-Serif" font-size="10.00">tests/test_fiber2.cc</text>
</a>
</g>
</g>
<!-- Node7&#45;&gt;Node13 -->
<g id="edge12" class="edge">
<title>Node7&#45;&gt;Node13</title>
<path fill="none" stroke="midnightblue" d="M1113.17,-72.3C1038.17,-66.16 889.38,-52.38 764.5,-31 754.99,-29.37 744.75,-27.2 735.36,-25.04"/>
<polygon fill="midnightblue" stroke="midnightblue" points="1113,-75.8 1123.25,-73.12 1113.57,-68.82 1113,-75.8"/>
</g>
<!-- Node14 -->
<g id="node14" class="node">
<title>Node14</title>
<g id="a_node14"><a xlink:href="test__hook_8cc.html" target="_top" xlink:title="hook模块测试">
<polygon fill="white" stroke="black" points="774,-6 774,-25 879,-25 879,-6 774,-6"/>
<text text-anchor="middle" x="826.5" y="-13" font-family="Helvetica,sans-Serif" font-size="10.00">tests/test_hook.cc</text>
</a>
</g>
</g>
<!-- Node7&#45;&gt;Node14 -->
<g id="edge13" class="edge">
<title>Node7&#45;&gt;Node14</title>
<path fill="none" stroke="midnightblue" d="M1113.09,-69.11C1058.19,-61.04 966.09,-46.77 887.5,-31 878.75,-29.24 869.34,-27.12 860.6,-25.06"/>
<polygon fill="midnightblue" stroke="midnightblue" points="1112.82,-72.6 1123.23,-70.59 1113.84,-65.68 1112.82,-72.6"/>
</g>
<!-- Node15 -->
<g id="node15" class="node">
<title>Node15</title>
<g id="a_node15"><a xlink:href="test__http_8cc.html" target="_top" xlink:title="HTTP请求类与响应类测试">
<polygon fill="white" stroke="black" points="897,-6 897,-25 998,-25 998,-6 897,-6"/>
<text text-anchor="middle" x="947.5" y="-13" font-family="Helvetica,sans-Serif" font-size="10.00">tests/test_http.cc</text>
</a>
</g>
</g>
<!-- Node7&#45;&gt;Node15 -->
<g id="edge14" class="edge">
<title>Node7&#45;&gt;Node15</title>
<path fill="none" stroke="midnightblue" d="M1121.04,-64.75C1079.46,-53.19 1015.66,-35.45 978.1,-25.01"/>
<polygon fill="midnightblue" stroke="midnightblue" points="1120.27,-68.17 1130.84,-67.48 1122.14,-61.42 1120.27,-68.17"/>
</g>
<!-- Node16 -->
<g id="node16" class="node">
<title>Node16</title>
<g id="a_node16"><a xlink:href="test__http__parser_8cc.html" target="_top" xlink:title="测试HTTP协议解析">
<polygon fill="white" stroke="black" points="1016.5,-6 1016.5,-25 1152.5,-25 1152.5,-6 1016.5,-6"/>
<text text-anchor="middle" x="1084.5" y="-13" font-family="Helvetica,sans-Serif" font-size="10.00">tests/test_http_parser.cc</text>
</a>
</g>
</g>
<!-- Node7&#45;&gt;Node16 -->
<g id="edge15" class="edge">
<title>Node7&#45;&gt;Node16</title>
<path fill="none" stroke="midnightblue" d="M1142.47,-61.29C1127.7,-49.88 1107.74,-34.46 1095.51,-25.01"/>
<polygon fill="midnightblue" stroke="midnightblue" points="1140.41,-64.13 1150.47,-67.48 1144.69,-58.59 1140.41,-64.13"/>
</g>
<!-- Node17 -->
<g id="node17" class="node">
<title>Node17</title>
<g id="a_node17"><a xlink:href="test__http__server_8cc.html" target="_top" xlink:title="HttpServer测试">
<polygon fill="white" stroke="black" points="1170.5,-6 1170.5,-25 1306.5,-25 1306.5,-6 1170.5,-6"/>
<text text-anchor="middle" x="1238.5" y="-13" font-family="Helvetica,sans-Serif" font-size="10.00">tests/test_http_server.cc</text>
</a>
</g>
</g>
<!-- Node7&#45;&gt;Node17 -->
<g id="edge16" class="edge">
<title>Node7&#45;&gt;Node17</title>
<path fill="none" stroke="midnightblue" d="M1180.53,-61.29C1195.3,-49.88 1215.26,-34.46 1227.49,-25.01"/>
<polygon fill="midnightblue" stroke="midnightblue" points="1178.31,-58.59 1172.53,-67.48 1182.59,-64.13 1178.31,-58.59"/>
</g>
<!-- Node18 -->
<g id="node18" class="node">
<title>Node18</title>
<g id="a_node18"><a xlink:href="test__iomanager_8cc.html" target="_top" xlink:title="IO协程调度器测试">
<polygon fill="white" stroke="black" points="1325,-6 1325,-25 1458,-25 1458,-6 1325,-6"/>
<text text-anchor="middle" x="1391.5" y="-13" font-family="Helvetica,sans-Serif" font-size="10.00">tests/test_iomanager.cc</text>
</a>
</g>
</g>
<!-- Node7&#45;&gt;Node18 -->
<g id="edge17" class="edge">
<title>Node7&#45;&gt;Node18</title>
<path fill="none" stroke="midnightblue" d="M1204.14,-64.97C1248.8,-53.41 1317.99,-35.52 1358.61,-25.01"/>
<polygon fill="midnightblue" stroke="midnightblue" points="1203.26,-61.58 1194.45,-67.48 1205.01,-68.36 1203.26,-61.58"/>
</g>
<!-- Node19 -->
<g id="node19" class="node">
<title>Node19</title>
<g id="a_node19"><a xlink:href="test__log_8cpp.html" target="_top" xlink:title="日志类测试">
<polygon fill="white" stroke="black" points="1476,-6 1476,-25 1579,-25 1579,-6 1476,-6"/>
<text text-anchor="middle" x="1527.5" y="-13" font-family="Helvetica,sans-Serif" font-size="10.00">tests/test_log.cpp</text>
</a>
</g>
</g>
<!-- Node7&#45;&gt;Node19 -->
<g id="edge18" class="edge">
<title>Node7&#45;&gt;Node19</title>
<path fill="none" stroke="midnightblue" d="M1209.88,-70.27C1270.4,-62.78 1377.06,-48.54 1467.5,-31 1476.34,-29.29 1485.83,-27.14 1494.61,-25.02"/>
<polygon fill="midnightblue" stroke="midnightblue" points="1209.35,-66.81 1199.85,-71.5 1210.21,-73.76 1209.35,-66.81"/>
</g>
<!-- Node20 -->
<g id="node20" class="node">
<title>Node20</title>
<g id="a_node20"><a xlink:href="test__scheduler_8cc.html" target="_top" xlink:title="协程调度器测试">
<polygon fill="white" stroke="black" points="1597.5,-6 1597.5,-25 1725.5,-25 1725.5,-6 1597.5,-6"/>
<text text-anchor="middle" x="1661.5" y="-13" font-family="Helvetica,sans-Serif" font-size="10.00">tests/test_scheduler.cc</text>
</a>
</g>
</g>
<!-- Node7&#45;&gt;Node20 -->
<g id="edge19" class="edge">
<title>Node7&#45;&gt;Node20</title>
<path fill="none" stroke="midnightblue" d="M1209.81,-72.35C1289.13,-66.04 1451.84,-51.73 1588.5,-31 1599.36,-29.35 1611.05,-27.2 1621.83,-25.06"/>
<polygon fill="midnightblue" stroke="midnightblue" points="1209.33,-68.88 1199.64,-73.15 1209.88,-75.86 1209.33,-68.88"/>
</g>
<!-- Node21 -->
<g id="node21" class="node">
<title>Node21</title>
<g id="a_node21"><a xlink:href="test__socket__tcp__client_8cc.html" target="_top" xlink:title="测试Socket类，tcp客户端">
<polygon fill="white" stroke="black" points="1744,-0.5 1744,-30.5 1863,-30.5 1863,-0.5 1744,-0.5"/>
<text text-anchor="start" x="1752" y="-18.5" font-family="Helvetica,sans-Serif" font-size="10.00">tests/test_socket_tcp</text>
<text text-anchor="middle" x="1803.5" y="-7.5" font-family="Helvetica,sans-Serif" font-size="10.00">_client.cc</text>
</a>
</g>
</g>
<!-- Node7&#45;&gt;Node21 -->
<g id="edge20" class="edge">
<title>Node7&#45;&gt;Node21</title>
<path fill="none" stroke="midnightblue" d="M1209.84,-74.31C1308.77,-70.38 1541.28,-58.77 1734.5,-31 1737.53,-30.56 1740.62,-30.08 1743.74,-29.55"/>
<polygon fill="midnightblue" stroke="midnightblue" points="1209.43,-70.82 1199.57,-74.7 1209.7,-77.81 1209.43,-70.82"/>
</g>
<!-- Node22 -->
<g id="node22" class="node">
<title>Node22</title>
<g id="a_node22"><a xlink:href="test__tcp__server_8cc.html" target="_top" xlink:title="TcpServer类测试">
<polygon fill="white" stroke="black" points="1881,-6 1881,-25 2012,-25 2012,-6 1881,-6"/>
<text text-anchor="middle" x="1946.5" y="-13" font-family="Helvetica,sans-Serif" font-size="10.00">tests/test_tcp_server.cc</text>
</a>
</g>
</g>
<!-- Node7&#45;&gt;Node22 -->
<g id="edge21" class="edge">
<title>Node7&#45;&gt;Node22</title>
<path fill="none" stroke="midnightblue" d="M1210.08,-75.1C1325.44,-72.5 1624.78,-62.97 1872.5,-31 1884.06,-29.51 1896.52,-27.3 1907.87,-25.06"/>
<polygon fill="midnightblue" stroke="midnightblue" points="1209.74,-71.61 1199.82,-75.33 1209.89,-78.61 1209.74,-71.61"/>
</g>
<!-- Node23 -->
<g id="node23" class="node">
<title>Node23</title>
<g id="a_node23"><a xlink:href="test__thread_8cc.html" target="_top" xlink:title="线程模块测试">
<polygon fill="white" stroke="black" points="2030,-6 2030,-25 2143,-25 2143,-6 2030,-6"/>
<text text-anchor="middle" x="2086.5" y="-13" font-family="Helvetica,sans-Serif" font-size="10.00">tests/test_thread.cc</text>
</a>
</g>
</g>
<!-- Node7&#45;&gt;Node23 -->
<g id="edge22" class="edge">
<title>Node7&#45;&gt;Node23</title>
<path fill="none" stroke="midnightblue" d="M1209.99,-76.29C1341.32,-76.48 1714.66,-72.95 2021.5,-31 2031.92,-29.57 2043.15,-27.33 2053.29,-25.03"/>
<polygon fill="midnightblue" stroke="midnightblue" points="1209.87,-72.79 1199.86,-76.27 1209.85,-79.79 1209.87,-72.79"/>
</g>
<!-- Node24 -->
<g id="node24" class="node">
<title>Node24</title>
<g id="a_node24"><a xlink:href="test__timer_8cc.html" target="_top" xlink:title="IO协程测试器定时器测试">
<polygon fill="white" stroke="black" points="2161,-6 2161,-25 2268,-25 2268,-6 2161,-6"/>
<text text-anchor="middle" x="2214.5" y="-13" font-family="Helvetica,sans-Serif" font-size="10.00">tests/test_timer.cc</text>
</a>
</g>
</g>
<!-- Node7&#45;&gt;Node24 -->
<g id="edge23" class="edge">
<title>Node7&#45;&gt;Node24</title>
<path fill="none" stroke="midnightblue" d="M1209.57,-74.99C1381.72,-71.2 1967.03,-56.68 2152.5,-31 2162.57,-29.61 2173.41,-27.34 2183.17,-25.01"/>
<polygon fill="midnightblue" stroke="midnightblue" points="1209.47,-71.49 1199.54,-75.21 1209.62,-78.49 1209.47,-71.49"/>
</g>
<!-- Node25 -->
<g id="node25" class="node">
<title>Node25</title>
<g id="a_node25"><a xlink:href="test__util_8cpp.html" target="_top" xlink:title="util与macro测试">
<polygon fill="white" stroke="black" points="2286.5,-6 2286.5,-25 2390.5,-25 2390.5,-6 2286.5,-6"/>
<text text-anchor="middle" x="2338.5" y="-13" font-family="Helvetica,sans-Serif" font-size="10.00">tests/test_util.cpp</text>
</a>
</g>
</g>
<!-- Node7&#45;&gt;Node25 -->
<g id="edge24" class="edge">
<title>Node7&#45;&gt;Node25</title>
<path fill="none" stroke="midnightblue" d="M1209.67,-75.3C1395.58,-72.39 2066.46,-60.06 2277.5,-31 2287.42,-29.63 2298.09,-27.38 2307.69,-25.05"/>
<polygon fill="midnightblue" stroke="midnightblue" points="1209.6,-71.8 1199.65,-75.45 1209.71,-78.8 1209.6,-71.8"/>
</g>
<!-- Node26&#45;&gt;Node7 -->
<g id="edge28" class="edge">
<title>Node26&#45;&gt;Node7</title>
<path fill="none" stroke="midnightblue" d="M1006.46,-226.46C991.99,-201.01 971.08,-153.57 994.5,-123 1010.07,-102.68 1078.98,-89.47 1123.27,-82.91"/>
<polygon fill="midnightblue" stroke="midnightblue" points="1003.62,-228.54 1011.75,-235.34 1009.64,-224.96 1003.62,-228.54"/>
</g>
<!-- Node27 -->
<g id="node27" class="node">
<title>Node27</title>
<g id="a_node27"><a xlink:href="http__server_8h.html" target="_top" xlink:title="HTTP服务器封装">
<polygon fill="white" stroke="black" points="1003.5,-123.5 1003.5,-142.5 1133.5,-142.5 1133.5,-123.5 1003.5,-123.5"/>
<text text-anchor="middle" x="1068.5" y="-130.5" font-family="Helvetica,sans-Serif" font-size="10.00">sylar/http/http_server.h</text>
</a>
</g>
</g>
<!-- Node26&#45;&gt;Node27 -->
<g id="edge26" class="edge">
<title>Node26&#45;&gt;Node27</title>
<path fill="none" stroke="midnightblue" d="M1021.62,-225.4C1024.94,-212.08 1030.27,-193.94 1037.5,-179 1044.03,-165.51 1054.31,-151.53 1061.22,-142.8"/>
<polygon fill="midnightblue" stroke="midnightblue" points="1018.18,-224.74 1019.29,-235.27 1024.99,-226.34 1018.18,-224.74"/>
</g>
<!-- Node27&#45;&gt;Node7 -->
<g id="edge27" class="edge">
<title>Node27&#45;&gt;Node7</title>
<path fill="none" stroke="midnightblue" d="M1092.31,-118.18C1109.42,-108.24 1131.97,-95.15 1146.6,-86.65"/>
<polygon fill="midnightblue" stroke="midnightblue" points="1090.33,-115.28 1083.44,-123.32 1093.85,-121.33 1090.33,-115.28"/>
</g>
<!-- Node29&#45;&gt;Node7 -->
<g id="edge36" class="edge">
<title>Node29&#45;&gt;Node7</title>
<path fill="none" stroke="midnightblue" d="M1426.49,-410.48C1465.6,-393.62 1524.5,-359.57 1524.5,-307.5 1524.5,-307.5 1524.5,-307.5 1524.5,-188 1524.5,-120.67 1292.86,-90.72 1199.66,-81.39"/>
<polygon fill="midnightblue" stroke="midnightblue" points="1424.92,-407.34 1417.02,-414.4 1427.6,-413.81 1424.92,-407.34"/>
</g>
<!-- Node29&#45;&gt;Node28 -->
<g id="edge34" class="edge">
<title>Node29&#45;&gt;Node28</title>
<path fill="none" stroke="midnightblue" d="M1409.03,-407.13C1416.43,-399.09 1424.58,-388.76 1429.5,-378 1438.99,-357.22 1441.04,-329.89 1441.44,-316.16"/>
<polygon fill="midnightblue" stroke="midnightblue" points="1406.49,-404.72 1402.03,-414.34 1411.51,-409.6 1406.49,-404.72"/>
</g>
<!-- Node30 -->
<g id="node30" class="node">
<title>Node30</title>
<g id="a_node30"><a xlink:href="scheduler_8cc.html" target="_top" xlink:title="协程调度器实现">
<polygon fill="white" stroke="black" points="1316.5,-358.5 1316.5,-377.5 1420.5,-377.5 1420.5,-358.5 1316.5,-358.5"/>
<text text-anchor="middle" x="1368.5" y="-365.5" font-family="Helvetica,sans-Serif" font-size="10.00">sylar/scheduler.cc</text>
</a>
</g>
</g>
<!-- Node29&#45;&gt;Node30 -->
<g id="edge35" class="edge">
<title>Node29&#45;&gt;Node30</title>
<path fill="none" stroke="midnightblue" d="M1384.36,-404.69C1380.32,-395.59 1375.62,-385.01 1372.39,-377.75"/>
<polygon fill="midnightblue" stroke="midnightblue" points="1381.28,-406.37 1388.54,-414.08 1387.67,-403.52 1381.28,-406.37"/>
</g>
<!-- Node31&#45;&gt;Node7 -->
<g id="edge50" class="edge">
<title>Node31&#45;&gt;Node7</title>
<path fill="none" stroke="midnightblue" d="M1256.43,-405.57C1261.08,-397.46 1266.19,-387.51 1269.5,-378 1289.1,-321.68 1293.5,-305.63 1293.5,-246 1293.5,-246 1293.5,-246 1293.5,-188 1293.5,-133.56 1226.42,-100.84 1187.89,-86.53"/>
<polygon fill="midnightblue" stroke="midnightblue" points="1253.27,-404.03 1251.13,-414.41 1259.27,-407.63 1253.27,-404.03"/>
</g>
<!-- Node31&#45;&gt;Node30 -->
<g id="edge49" class="edge">
<title>Node31&#45;&gt;Node30</title>
<path fill="none" stroke="midnightblue" d="M1274.27,-410.37C1297.31,-400.26 1328.98,-386.35 1349.1,-377.52"/>
<polygon fill="midnightblue" stroke="midnightblue" points="1272.74,-407.22 1264.99,-414.44 1275.55,-413.63 1272.74,-407.22"/>
</g>
<!-- Node32 -->
<g id="node32" class="node">
<title>Node32</title>
<g id="a_node32"><a xlink:href="iomanager_8h.html" target="_top" xlink:title="IO协程调度器">
<polygon fill="white" stroke="black" points="1156.5,-358.5 1156.5,-377.5 1260.5,-377.5 1260.5,-358.5 1156.5,-358.5"/>
<text text-anchor="middle" x="1208.5" y="-365.5" font-family="Helvetica,sans-Serif" font-size="10.00">sylar/iomanager.h</text>
</a>
</g>
</g>
<!-- Node31&#45;&gt;Node32 -->
<g id="edge38" class="edge">
<title>Node31&#45;&gt;Node32</title>
<path fill="none" stroke="midnightblue" d="M1233.55,-405.57C1227.19,-396.27 1219.63,-385.25 1214.5,-377.75"/>
<polygon fill="midnightblue" stroke="midnightblue" points="1230.85,-407.81 1239.39,-414.08 1236.63,-403.86 1230.85,-407.81"/>
</g>
<!-- Node32&#45;&gt;Node7 -->
<g id="edge47" class="edge">
<title>Node32&#45;&gt;Node7</title>
<path fill="none" stroke="midnightblue" d="M1219.85,-349.83C1233.76,-327.08 1255.5,-285.24 1255.5,-246 1255.5,-246 1255.5,-246 1255.5,-188 1255.5,-140.27 1203.72,-102.8 1177.02,-86.65"/>
<polygon fill="midnightblue" stroke="midnightblue" points="1216.85,-348.02 1214.45,-358.35 1222.76,-351.77 1216.85,-348.02"/>
</g>
<!-- Node32&#45;&gt;Node26 -->
<g id="edge48" class="edge">
<title>Node32&#45;&gt;Node26</title>
<path fill="none" stroke="midnightblue" d="M1168.11,-355.23C1145.68,-347.67 1117.87,-336.52 1095.5,-322 1065.37,-302.44 1037,-270.05 1024.37,-254.65"/>
<polygon fill="midnightblue" stroke="midnightblue" points="1167.08,-358.58 1177.68,-358.36 1169.26,-351.93 1167.08,-358.58"/>
</g>
<!-- Node32&#45;&gt;Node28 -->
<g id="edge39" class="edge">
<title>Node32&#45;&gt;Node28</title>
<path fill="none" stroke="midnightblue" d="M1251.7,-355.97C1296.94,-344.41 1367.03,-326.52 1408.18,-316.01"/>
<polygon fill="midnightblue" stroke="midnightblue" points="1250.71,-352.61 1241.88,-358.48 1252.44,-359.39 1250.71,-352.61"/>
</g>
<!-- Node33 -->
<g id="node33" class="node">
<title>Node33</title>
<g id="a_node33"><a xlink:href="socket__stream_8h.html" target="_top" xlink:title="Socket流式接口封装">
<polygon fill="white" stroke="black" points="1104.5,-291.5 1104.5,-321.5 1222.5,-321.5 1222.5,-291.5 1104.5,-291.5"/>
<text text-anchor="start" x="1112.5" y="-309.5" font-family="Helvetica,sans-Serif" font-size="10.00">sylar/streams/socket</text>
<text text-anchor="middle" x="1163.5" y="-298.5" font-family="Helvetica,sans-Serif" font-size="10.00">_stream.h</text>
</a>
</g>
</g>
<!-- Node32&#45;&gt;Node33 -->
<g id="edge40" class="edge">
<title>Node32&#45;&gt;Node33</title>
<path fill="none" stroke="midnightblue" d="M1195.83,-350.25C1188.98,-341.19 1180.61,-330.12 1174.11,-321.52"/>
<polygon fill="midnightblue" stroke="midnightblue" points="1193.23,-352.61 1202.05,-358.48 1198.81,-348.39 1193.23,-352.61"/>
</g>
<!-- Node34 -->
<g id="node34" class="node">
<title>Node34</title>
<g id="a_node34"><a xlink:href="http__session_8h.html" target="_top" xlink:title="HTTPSession封装">
<polygon fill="white" stroke="black" points="1089,-235.5 1089,-254.5 1226,-254.5 1226,-235.5 1089,-235.5"/>
<text text-anchor="middle" x="1157.5" y="-242.5" font-family="Helvetica,sans-Serif" font-size="10.00">sylar/http/http_session.h</text>
</a>
</g>
</g>
<!-- Node33&#45;&gt;Node34 -->
<g id="edge41" class="edge">
<title>Node33&#45;&gt;Node34</title>
<path fill="none" stroke="midnightblue" d="M1161.06,-281.29C1160.11,-271.86 1159.08,-261.65 1158.37,-254.66"/>
<polygon fill="midnightblue" stroke="midnightblue" points="1157.59,-281.8 1162.08,-291.4 1164.56,-281.1 1157.59,-281.8"/>
</g>
<!-- Node34&#45;&gt;Node7 -->
<g id="edge46" class="edge">
<title>Node34&#45;&gt;Node7</title>
<path fill="none" stroke="midnightblue" d="M1176.75,-228.75C1185.13,-220.87 1194.05,-210.5 1198.5,-199 1214.44,-157.83 1182.54,-106.71 1168.1,-86.65"/>
<polygon fill="midnightblue" stroke="midnightblue" points="1174.26,-226.27 1169.04,-235.49 1178.87,-231.54 1174.26,-226.27"/>
</g>
<!-- Node34&#45;&gt;Node27 -->
<g id="edge42" class="edge">
<title>Node34&#45;&gt;Node27</title>
<path fill="none" stroke="midnightblue" d="M1114.61,-231.79C1098.33,-224.88 1081.34,-214.44 1071.5,-199 1060.45,-181.66 1063.6,-156.12 1066.34,-142.81"/>
<polygon fill="midnightblue" stroke="midnightblue" points="1113.48,-235.1 1124.06,-235.45 1116.01,-228.57 1113.48,-235.1"/>
</g>
<!-- Node35 -->
<g id="node35" class="node">
<title>Node35</title>
<g id="a_node35"><a xlink:href="servlet_8h.html" target="_top" xlink:title="Servlet封装">
<polygon fill="white" stroke="black" points="1080,-179.5 1080,-198.5 1189,-198.5 1189,-179.5 1080,-179.5"/>
<text text-anchor="middle" x="1134.5" y="-186.5" font-family="Helvetica,sans-Serif" font-size="10.00">sylar/http/servlet.h</text>
</a>
</g>
</g>
<!-- Node34&#45;&gt;Node35 -->
<g id="edge43" class="edge">
<title>Node34&#45;&gt;Node35</title>
<path fill="none" stroke="midnightblue" d="M1149.7,-225.69C1145.82,-216.59 1141.32,-206.01 1138.23,-198.75"/>
<polygon fill="midnightblue" stroke="midnightblue" points="1146.56,-227.25 1153.7,-235.08 1153,-224.51 1146.56,-227.25"/>
</g>
<!-- Node35&#45;&gt;Node7 -->
<g id="edge45" class="edge">
<title>Node35&#45;&gt;Node7</title>
<path fill="none" stroke="midnightblue" d="M1139.08,-169.35C1144.99,-145.25 1155.04,-104.31 1159.39,-86.59"/>
<polygon fill="midnightblue" stroke="midnightblue" points="1135.6,-168.82 1136.62,-179.37 1142.4,-170.49 1135.6,-168.82"/>
</g>
<!-- Node35&#45;&gt;Node27 -->
<g id="edge44" class="edge">
<title>Node35&#45;&gt;Node27</title>
<path fill="none" stroke="midnightblue" d="M1115.95,-172.82C1104.12,-163.15 1089.21,-150.95 1079.3,-142.83"/>
<polygon fill="midnightblue" stroke="midnightblue" points="1113.94,-175.7 1123.9,-179.32 1118.37,-170.28 1113.94,-175.7"/>
</g>
</g>
</svg>
