<?xml version="1.0" encoding="UTF-8" standalone="no"?>
<!DOCTYPE svg PUBLIC "-//W3C//DTD SVG 1.1//EN"
 "http://www.w3.org/Graphics/SVG/1.1/DTD/svg11.dtd">
<!-- Generated by graphviz version 2.43.0 (0)
 -->
<!-- Title: sylar/macro.h Pages: 1 -->
<svg width="1148pt" height="196pt"
 viewBox="0.00 0.00 1148.00 196.00" xmlns="http://www.w3.org/2000/svg" xmlns:xlink="http://www.w3.org/1999/xlink">
<g id="graph0" class="graph" transform="scale(1 1) rotate(0) translate(4 192)">
<title>sylar/macro.h</title>
<polygon fill="white" stroke="transparent" points="-4,4 -4,-192 1144,-192 1144,4 -4,4"/>
<!-- Node1 -->
<g id="node1" class="node">
<title>Node1</title>
<g id="a_node1"><a xlink:title="常用宏的封装">
<polygon fill="#bfbfbf" stroke="black" points="357.5,-168.5 357.5,-187.5 440.5,-187.5 440.5,-168.5 357.5,-168.5"/>
<text text-anchor="middle" x="399" y="-175.5" font-family="Helvetica,sans-Serif" font-size="10.00">sylar/macro.h</text>
</a>
</g>
</g>
<!-- Node2 -->
<g id="node2" class="node">
<title>Node2</title>
<g id="a_node2"><a xlink:title=" ">
<polygon fill="white" stroke="#bfbfbf" points="266.5,-112.5 266.5,-131.5 319.5,-131.5 319.5,-112.5 266.5,-112.5"/>
<text text-anchor="middle" x="293" y="-119.5" font-family="Helvetica,sans-Serif" font-size="10.00">string.h</text>
</a>
</g>
</g>
<!-- Node1&#45;&gt;Node2 -->
<g id="edge1" class="edge">
<title>Node1&#45;&gt;Node2</title>
<path fill="none" stroke="midnightblue" d="M381.97,-168.32C364.97,-159.66 338.62,-146.24 319.01,-136.25"/>
<polygon fill="midnightblue" stroke="midnightblue" points="320.49,-133.08 309.99,-131.65 317.31,-139.31 320.49,-133.08"/>
</g>
<!-- Node3 -->
<g id="node3" class="node">
<title>Node3</title>
<g id="a_node3"><a xlink:title=" ">
<polygon fill="white" stroke="#bfbfbf" points="338,-112.5 338,-131.5 394,-131.5 394,-112.5 338,-112.5"/>
<text text-anchor="middle" x="366" y="-119.5" font-family="Helvetica,sans-Serif" font-size="10.00">assert.h</text>
</a>
</g>
</g>
<!-- Node1&#45;&gt;Node3 -->
<g id="edge2" class="edge">
<title>Node1&#45;&gt;Node3</title>
<path fill="none" stroke="midnightblue" d="M393.55,-168.08C388.99,-160.61 382.33,-149.72 376.71,-140.52"/>
<polygon fill="midnightblue" stroke="midnightblue" points="379.55,-138.46 371.35,-131.75 373.58,-142.11 379.55,-138.46"/>
</g>
<!-- Node4 -->
<g id="node4" class="node">
<title>Node4</title>
<g id="a_node4"><a xlink:href="log_8h.html" target="_top" xlink:title="日志模块">
<polygon fill="white" stroke="black" points="412.5,-112.5 412.5,-131.5 453.5,-131.5 453.5,-112.5 412.5,-112.5"/>
<text text-anchor="middle" x="433" y="-119.5" font-family="Helvetica,sans-Serif" font-size="10.00">log.h</text>
</a>
</g>
</g>
<!-- Node1&#45;&gt;Node4 -->
<g id="edge3" class="edge">
<title>Node1&#45;&gt;Node4</title>
<path fill="none" stroke="midnightblue" d="M404.61,-168.08C409.37,-160.53 416.32,-149.49 422.15,-140.23"/>
<polygon fill="midnightblue" stroke="midnightblue" points="425.12,-142.08 427.49,-131.75 419.2,-138.35 425.12,-142.08"/>
</g>
<!-- Node14 -->
<g id="node14" class="node">
<title>Node14</title>
<g id="a_node14"><a xlink:href="util_8h.html" target="_top" xlink:title="util函数">
<polygon fill="white" stroke="black" points="781.5,-56.5 781.5,-75.5 822.5,-75.5 822.5,-56.5 781.5,-56.5"/>
<text text-anchor="middle" x="802" y="-63.5" font-family="Helvetica,sans-Serif" font-size="10.00">util.h</text>
</a>
</g>
</g>
<!-- Node1&#45;&gt;Node14 -->
<g id="edge33" class="edge">
<title>Node1&#45;&gt;Node14</title>
<path fill="none" stroke="midnightblue" d="M430.29,-168.46C505.71,-147.87 696.81,-95.71 771.46,-75.34"/>
<polygon fill="midnightblue" stroke="midnightblue" points="772.47,-78.69 781.2,-72.68 770.63,-71.94 772.47,-78.69"/>
</g>
<!-- Node5 -->
<g id="node5" class="node">
<title>Node5</title>
<g id="a_node5"><a xlink:title=" ">
<polygon fill="white" stroke="#bfbfbf" points="844,-0.5 844,-19.5 888,-19.5 888,-0.5 844,-0.5"/>
<text text-anchor="middle" x="866" y="-7.5" font-family="Helvetica,sans-Serif" font-size="10.00">string</text>
</a>
</g>
</g>
<!-- Node4&#45;&gt;Node5 -->
<g id="edge4" class="edge">
<title>Node4&#45;&gt;Node5</title>
<path fill="none" stroke="midnightblue" d="M453.58,-117.07C491.19,-109.77 573.44,-93.3 642,-76 725.56,-54.91 747.69,-45.56 834.26,-20.23"/>
<polygon fill="midnightblue" stroke="midnightblue" points="835.36,-23.55 843.98,-17.39 833.4,-16.83 835.36,-23.55"/>
</g>
<!-- Node6 -->
<g id="node6" class="node">
<title>Node6</title>
<g id="a_node6"><a xlink:title=" ">
<polygon fill="white" stroke="#bfbfbf" points="0,-0.5 0,-19.5 58,-19.5 58,-0.5 0,-0.5"/>
<text text-anchor="middle" x="29" y="-7.5" font-family="Helvetica,sans-Serif" font-size="10.00">memory</text>
</a>
</g>
</g>
<!-- Node4&#45;&gt;Node6 -->
<g id="edge5" class="edge">
<title>Node4&#45;&gt;Node6</title>
<path fill="none" stroke="midnightblue" d="M412.47,-114.28C409.32,-113.41 406.09,-112.62 403,-112 325.23,-96.54 108.97,-126.7 48,-76 34.6,-64.86 30.35,-44.83 29.14,-29.94"/>
<polygon fill="midnightblue" stroke="midnightblue" points="32.63,-29.63 28.71,-19.79 25.64,-29.92 32.63,-29.63"/>
</g>
<!-- Node7 -->
<g id="node7" class="node">
<title>Node7</title>
<g id="a_node7"><a xlink:title=" ">
<polygon fill="white" stroke="#bfbfbf" points="700,-0.5 700,-19.5 760,-19.5 760,-0.5 700,-0.5"/>
<text text-anchor="middle" x="730" y="-7.5" font-family="Helvetica,sans-Serif" font-size="10.00">iostream</text>
</a>
</g>
</g>
<!-- Node4&#45;&gt;Node7 -->
<g id="edge6" class="edge">
<title>Node4&#45;&gt;Node7</title>
<path fill="none" stroke="midnightblue" d="M453.88,-113.27C504.79,-94.41 635.59,-45.97 697.1,-23.18"/>
<polygon fill="midnightblue" stroke="midnightblue" points="698.54,-26.38 706.71,-19.63 696.11,-19.82 698.54,-26.38"/>
</g>
<!-- Node8 -->
<g id="node8" class="node">
<title>Node8</title>
<g id="a_node8"><a xlink:title=" ">
<polygon fill="white" stroke="#bfbfbf" points="147,-56.5 147,-75.5 203,-75.5 203,-56.5 147,-56.5"/>
<text text-anchor="middle" x="175" y="-63.5" font-family="Helvetica,sans-Serif" font-size="10.00">sstream</text>
</a>
</g>
</g>
<!-- Node4&#45;&gt;Node8 -->
<g id="edge7" class="edge">
<title>Node4&#45;&gt;Node8</title>
<path fill="none" stroke="midnightblue" d="M412.42,-114.52C409.28,-113.62 406.06,-112.75 403,-112 322.1,-92.3 298.16,-94.05 213.08,-76.13"/>
<polygon fill="midnightblue" stroke="midnightblue" points="213.76,-72.7 203.25,-74.03 212.29,-79.54 213.76,-72.7"/>
</g>
<!-- Node9 -->
<g id="node9" class="node">
<title>Node9</title>
<g id="a_node9"><a xlink:title=" ">
<polygon fill="white" stroke="#bfbfbf" points="221.5,-56.5 221.5,-75.5 276.5,-75.5 276.5,-56.5 221.5,-56.5"/>
<text text-anchor="middle" x="249" y="-63.5" font-family="Helvetica,sans-Serif" font-size="10.00">fstream</text>
</a>
</g>
</g>
<!-- Node4&#45;&gt;Node9 -->
<g id="edge8" class="edge">
<title>Node4&#45;&gt;Node9</title>
<path fill="none" stroke="midnightblue" d="M412.35,-114.78C409.22,-113.85 406.02,-112.9 403,-112 363.29,-100.24 317.75,-86.96 286.56,-77.89"/>
<polygon fill="midnightblue" stroke="midnightblue" points="287.14,-74.42 276.56,-74.99 285.18,-81.14 287.14,-74.42"/>
</g>
<!-- Node10 -->
<g id="node10" class="node">
<title>Node10</title>
<g id="a_node10"><a xlink:title=" ">
<polygon fill="white" stroke="#bfbfbf" points="778.5,-0.5 778.5,-19.5 825.5,-19.5 825.5,-0.5 778.5,-0.5"/>
<text text-anchor="middle" x="802" y="-7.5" font-family="Helvetica,sans-Serif" font-size="10.00">vector</text>
</a>
</g>
</g>
<!-- Node4&#45;&gt;Node10 -->
<g id="edge9" class="edge">
<title>Node4&#45;&gt;Node10</title>
<path fill="none" stroke="midnightblue" d="M453.65,-115.56C484.66,-107.32 545.04,-91.07 596,-76 657.17,-57.91 727.99,-35.17 768.64,-21.94"/>
<polygon fill="midnightblue" stroke="midnightblue" points="769.87,-25.22 778.3,-18.79 767.7,-18.56 769.87,-25.22"/>
</g>
<!-- Node11 -->
<g id="node11" class="node">
<title>Node11</title>
<g id="a_node11"><a xlink:title=" ">
<polygon fill="white" stroke="#bfbfbf" points="333.5,-56.5 333.5,-75.5 386.5,-75.5 386.5,-56.5 333.5,-56.5"/>
<text text-anchor="middle" x="360" y="-63.5" font-family="Helvetica,sans-Serif" font-size="10.00">cstdarg</text>
</a>
</g>
</g>
<!-- Node4&#45;&gt;Node11 -->
<g id="edge10" class="edge">
<title>Node4&#45;&gt;Node11</title>
<path fill="none" stroke="midnightblue" d="M421.27,-112.32C410.16,-104.11 393.26,-91.6 380.02,-81.81"/>
<polygon fill="midnightblue" stroke="midnightblue" points="382.06,-78.97 371.94,-75.83 377.9,-84.59 382.06,-78.97"/>
</g>
<!-- Node12 -->
<g id="node12" class="node">
<title>Node12</title>
<g id="a_node12"><a xlink:title=" ">
<polygon fill="white" stroke="#bfbfbf" points="76,-0.5 76,-19.5 108,-19.5 108,-0.5 76,-0.5"/>
<text text-anchor="middle" x="92" y="-7.5" font-family="Helvetica,sans-Serif" font-size="10.00">list</text>
</a>
</g>
</g>
<!-- Node4&#45;&gt;Node12 -->
<g id="edge11" class="edge">
<title>Node4&#45;&gt;Node12</title>
<path fill="none" stroke="midnightblue" d="M412.29,-113.04C390.2,-104.41 354.3,-89.99 324,-76 306.32,-67.83 303.35,-62.54 285,-56 216.02,-31.41 192.36,-40.17 117.88,-19.9"/>
<polygon fill="midnightblue" stroke="midnightblue" points="118.61,-16.47 108.03,-17.13 116.71,-23.21 118.61,-16.47"/>
</g>
<!-- Node13 -->
<g id="node13" class="node">
<title>Node13</title>
<g id="a_node13"><a xlink:title=" ">
<polygon fill="white" stroke="#bfbfbf" points="480,-56.5 480,-75.5 518,-75.5 518,-56.5 480,-56.5"/>
<text text-anchor="middle" x="499" y="-63.5" font-family="Helvetica,sans-Serif" font-size="10.00">map</text>
</a>
</g>
</g>
<!-- Node4&#45;&gt;Node13 -->
<g id="edge12" class="edge">
<title>Node4&#45;&gt;Node13</title>
<path fill="none" stroke="midnightblue" d="M443.6,-112.32C453.46,-104.26 468.35,-92.08 480.22,-82.37"/>
<polygon fill="midnightblue" stroke="midnightblue" points="482.68,-84.88 488.2,-75.83 478.25,-79.46 482.68,-84.88"/>
</g>
<!-- Node4&#45;&gt;Node14 -->
<g id="edge13" class="edge">
<title>Node4&#45;&gt;Node14</title>
<path fill="none" stroke="midnightblue" d="M453.87,-118.3C504.76,-111.65 639.21,-93.77 751,-76 757.53,-74.96 764.51,-73.78 771.15,-72.62"/>
<polygon fill="midnightblue" stroke="midnightblue" points="771.95,-76.03 781.18,-70.84 770.73,-69.14 771.95,-76.03"/>
</g>
<!-- Node19 -->
<g id="node19" class="node">
<title>Node19</title>
<g id="a_node19"><a xlink:href="mutex_8h.html" target="_top" xlink:title="信号量，互斥锁，读写锁，范围锁模板，自旋锁，原子锁">
<polygon fill="white" stroke="black" points="404.5,-56.5 404.5,-75.5 461.5,-75.5 461.5,-56.5 404.5,-56.5"/>
<text text-anchor="middle" x="433" y="-63.5" font-family="Helvetica,sans-Serif" font-size="10.00">mutex.h</text>
</a>
</g>
</g>
<!-- Node4&#45;&gt;Node19 -->
<g id="edge21" class="edge">
<title>Node4&#45;&gt;Node19</title>
<path fill="none" stroke="midnightblue" d="M433,-112.08C433,-105.01 433,-94.86 433,-85.99"/>
<polygon fill="midnightblue" stroke="midnightblue" points="436.5,-85.75 433,-75.75 429.5,-85.75 436.5,-85.75"/>
</g>
<!-- Node26 -->
<g id="node26" class="node">
<title>Node26</title>
<g id="a_node26"><a xlink:href="singleton_8h.html" target="_top" xlink:title="单例模式封装">
<polygon fill="white" stroke="black" points="57.5,-56.5 57.5,-75.5 128.5,-75.5 128.5,-56.5 57.5,-56.5"/>
<text text-anchor="middle" x="93" y="-63.5" font-family="Helvetica,sans-Serif" font-size="10.00">singleton.h</text>
</a>
</g>
</g>
<!-- Node4&#45;&gt;Node26 -->
<g id="edge31" class="edge">
<title>Node4&#45;&gt;Node26</title>
<path fill="none" stroke="midnightblue" d="M412.45,-114.37C409.31,-113.49 406.08,-112.67 403,-112 290.01,-87.53 257.01,-95.21 138.98,-76.05"/>
<polygon fill="midnightblue" stroke="midnightblue" points="139.26,-72.55 128.82,-74.37 138.12,-79.46 139.26,-72.55"/>
</g>
<!-- Node14&#45;&gt;Node5 -->
<g id="edge18" class="edge">
<title>Node14&#45;&gt;Node5</title>
<path fill="none" stroke="midnightblue" d="M812.28,-56.32C821.84,-48.26 836.28,-36.08 847.78,-26.37"/>
<polygon fill="midnightblue" stroke="midnightblue" points="850.14,-28.96 855.53,-19.83 845.63,-23.61 850.14,-28.96"/>
</g>
<!-- Node14&#45;&gt;Node7 -->
<g id="edge20" class="edge">
<title>Node14&#45;&gt;Node7</title>
<path fill="none" stroke="midnightblue" d="M790.43,-56.32C779.58,-48.18 763.12,-35.84 750.12,-26.09"/>
<polygon fill="midnightblue" stroke="midnightblue" points="751.88,-23.03 741.78,-19.83 747.68,-28.63 751.88,-23.03"/>
</g>
<!-- Node14&#45;&gt;Node10 -->
<g id="edge19" class="edge">
<title>Node14&#45;&gt;Node10</title>
<path fill="none" stroke="midnightblue" d="M802,-56.08C802,-49.01 802,-38.86 802,-29.99"/>
<polygon fill="midnightblue" stroke="midnightblue" points="805.5,-29.75 802,-19.75 798.5,-29.75 805.5,-29.75"/>
</g>
<!-- Node15 -->
<g id="node15" class="node">
<title>Node15</title>
<g id="a_node15"><a xlink:title=" ">
<polygon fill="white" stroke="#bfbfbf" points="906,-0.5 906,-19.5 978,-19.5 978,-0.5 906,-0.5"/>
<text text-anchor="middle" x="942" y="-7.5" font-family="Helvetica,sans-Serif" font-size="10.00">sys/types.h</text>
</a>
</g>
</g>
<!-- Node14&#45;&gt;Node15 -->
<g id="edge14" class="edge">
<title>Node14&#45;&gt;Node15</title>
<path fill="none" stroke="midnightblue" d="M822.66,-57.03C845.83,-48.1 883.66,-33.5 910.52,-23.14"/>
<polygon fill="midnightblue" stroke="midnightblue" points="911.8,-26.4 919.87,-19.54 909.28,-19.87 911.8,-26.4"/>
</g>
<!-- Node16 -->
<g id="node16" class="node">
<title>Node16</title>
<g id="a_node16"><a xlink:title=" ">
<polygon fill="white" stroke="#bfbfbf" points="628.5,-0.5 628.5,-19.5 681.5,-19.5 681.5,-0.5 628.5,-0.5"/>
<text text-anchor="middle" x="655" y="-7.5" font-family="Helvetica,sans-Serif" font-size="10.00">stdint.h</text>
</a>
</g>
</g>
<!-- Node14&#45;&gt;Node16 -->
<g id="edge15" class="edge">
<title>Node14&#45;&gt;Node16</title>
<path fill="none" stroke="midnightblue" d="M781.25,-57.38C757.04,-48.48 716.69,-33.66 688.13,-23.17"/>
<polygon fill="midnightblue" stroke="midnightblue" points="689.15,-19.82 678.56,-19.65 686.74,-26.39 689.15,-19.82"/>
</g>
<!-- Node17 -->
<g id="node17" class="node">
<title>Node17</title>
<g id="a_node17"><a xlink:title=" ">
<polygon fill="white" stroke="#bfbfbf" points="996,-0.5 996,-19.5 1064,-19.5 1064,-0.5 996,-0.5"/>
<text text-anchor="middle" x="1030" y="-7.5" font-family="Helvetica,sans-Serif" font-size="10.00">sys/time.h</text>
</a>
</g>
</g>
<!-- Node14&#45;&gt;Node17 -->
<g id="edge16" class="edge">
<title>Node14&#45;&gt;Node17</title>
<path fill="none" stroke="midnightblue" d="M822.64,-60.11C859.35,-51.42 936.76,-33.08 985.92,-21.44"/>
<polygon fill="midnightblue" stroke="midnightblue" points="986.73,-24.84 995.66,-19.13 985.12,-18.03 986.73,-24.84"/>
</g>
<!-- Node18 -->
<g id="node18" class="node">
<title>Node18</title>
<g id="a_node18"><a xlink:title=" ">
<polygon fill="white" stroke="#bfbfbf" points="1082,-0.5 1082,-19.5 1140,-19.5 1140,-0.5 1082,-0.5"/>
<text text-anchor="middle" x="1111" y="-7.5" font-family="Helvetica,sans-Serif" font-size="10.00">cxxabi.h</text>
</a>
</g>
</g>
<!-- Node14&#45;&gt;Node18 -->
<g id="edge17" class="edge">
<title>Node14&#45;&gt;Node18</title>
<path fill="none" stroke="midnightblue" d="M822.83,-62.04C866.91,-55.66 973.05,-39.74 1072.13,-20.06"/>
<polygon fill="midnightblue" stroke="midnightblue" points="1072.88,-23.48 1082,-18.08 1071.51,-16.62 1072.88,-23.48"/>
</g>
<!-- Node19&#45;&gt;Node6 -->
<g id="edge24" class="edge">
<title>Node19&#45;&gt;Node6</title>
<path fill="none" stroke="midnightblue" d="M404.44,-57.84C401.27,-57.16 398.07,-56.53 395,-56 253.73,-31.61 213.32,-44.34 68.53,-20.07"/>
<polygon fill="midnightblue" stroke="midnightblue" points="68.83,-16.57 58.38,-18.34 67.65,-23.47 68.83,-16.57"/>
</g>
<!-- Node19&#45;&gt;Node12 -->
<g id="edge29" class="edge">
<title>Node19&#45;&gt;Node12</title>
<path fill="none" stroke="midnightblue" d="M404.43,-57.9C401.26,-57.21 398.07,-56.56 395,-56 275.67,-34.2 239.97,-48.47 118.33,-19.84"/>
<polygon fill="midnightblue" stroke="midnightblue" points="118.79,-16.36 108.25,-17.42 117.16,-23.16 118.79,-16.36"/>
</g>
<!-- Node19&#45;&gt;Node16 -->
<g id="edge27" class="edge">
<title>Node19&#45;&gt;Node16</title>
<path fill="none" stroke="midnightblue" d="M461.69,-58.13C496.39,-49.81 556.81,-35.26 618.38,-20.14"/>
<polygon fill="midnightblue" stroke="midnightblue" points="619.39,-23.49 628.27,-17.71 617.72,-16.7 619.39,-23.49"/>
</g>
<!-- Node20 -->
<g id="node20" class="node">
<title>Node20</title>
<g id="a_node20"><a xlink:title=" ">
<polygon fill="white" stroke="#bfbfbf" points="398,-0.5 398,-19.5 446,-19.5 446,-0.5 398,-0.5"/>
<text text-anchor="middle" x="422" y="-7.5" font-family="Helvetica,sans-Serif" font-size="10.00">thread</text>
</a>
</g>
</g>
<!-- Node19&#45;&gt;Node20 -->
<g id="edge22" class="edge">
<title>Node19&#45;&gt;Node20</title>
<path fill="none" stroke="midnightblue" d="M431.18,-56.08C429.73,-48.93 427.63,-38.64 425.81,-29.69"/>
<polygon fill="midnightblue" stroke="midnightblue" points="429.21,-28.85 423.78,-19.75 422.35,-30.25 429.21,-28.85"/>
</g>
<!-- Node21 -->
<g id="node21" class="node">
<title>Node21</title>
<g id="a_node21"><a xlink:title=" ">
<polygon fill="white" stroke="#bfbfbf" points="464.5,-0.5 464.5,-19.5 529.5,-19.5 529.5,-0.5 464.5,-0.5"/>
<text text-anchor="middle" x="497" y="-7.5" font-family="Helvetica,sans-Serif" font-size="10.00">functional</text>
</a>
</g>
</g>
<!-- Node19&#45;&gt;Node21 -->
<g id="edge23" class="edge">
<title>Node19&#45;&gt;Node21</title>
<path fill="none" stroke="midnightblue" d="M443.28,-56.32C452.84,-48.26 467.28,-36.08 478.78,-26.37"/>
<polygon fill="midnightblue" stroke="midnightblue" points="481.14,-28.96 486.53,-19.83 476.63,-23.61 481.14,-28.96"/>
</g>
<!-- Node22 -->
<g id="node22" class="node">
<title>Node22</title>
<g id="a_node22"><a xlink:title=" ">
<polygon fill="white" stroke="#bfbfbf" points="547.5,-0.5 547.5,-19.5 610.5,-19.5 610.5,-0.5 547.5,-0.5"/>
<text text-anchor="middle" x="579" y="-7.5" font-family="Helvetica,sans-Serif" font-size="10.00">pthread.h</text>
</a>
</g>
</g>
<!-- Node19&#45;&gt;Node22 -->
<g id="edge25" class="edge">
<title>Node19&#45;&gt;Node22</title>
<path fill="none" stroke="midnightblue" d="M456.13,-56.44C480.48,-47.44 519.01,-33.19 546.42,-23.05"/>
<polygon fill="midnightblue" stroke="midnightblue" points="547.81,-26.27 555.97,-19.52 545.38,-19.7 547.81,-26.27"/>
</g>
<!-- Node23 -->
<g id="node23" class="node">
<title>Node23</title>
<g id="a_node23"><a xlink:title=" ">
<polygon fill="white" stroke="#bfbfbf" points="126,-0.5 126,-19.5 206,-19.5 206,-0.5 126,-0.5"/>
<text text-anchor="middle" x="166" y="-7.5" font-family="Helvetica,sans-Serif" font-size="10.00">semaphore.h</text>
</a>
</g>
</g>
<!-- Node19&#45;&gt;Node23 -->
<g id="edge26" class="edge">
<title>Node19&#45;&gt;Node23</title>
<path fill="none" stroke="midnightblue" d="M404.39,-58.1C401.23,-57.37 398.05,-56.66 395,-56 333.7,-42.72 262.81,-29.05 216.33,-20.31"/>
<polygon fill="midnightblue" stroke="midnightblue" points="216.7,-16.82 206.22,-18.42 215.41,-23.7 216.7,-16.82"/>
</g>
<!-- Node24 -->
<g id="node24" class="node">
<title>Node24</title>
<g id="a_node24"><a xlink:title=" ">
<polygon fill="white" stroke="#bfbfbf" points="224,-0.5 224,-19.5 274,-19.5 274,-0.5 224,-0.5"/>
<text text-anchor="middle" x="249" y="-7.5" font-family="Helvetica,sans-Serif" font-size="10.00">atomic</text>
</a>
</g>
</g>
<!-- Node19&#45;&gt;Node24 -->
<g id="edge28" class="edge">
<title>Node19&#45;&gt;Node24</title>
<path fill="none" stroke="midnightblue" d="M404.25,-56.56C371.68,-47.01 318.63,-31.43 283.76,-21.2"/>
<polygon fill="midnightblue" stroke="midnightblue" points="284.59,-17.8 274.01,-18.34 282.62,-24.51 284.59,-17.8"/>
</g>
<!-- Node25 -->
<g id="node25" class="node">
<title>Node25</title>
<g id="a_node25"><a xlink:href="noncopyable_8h.html" target="_top" xlink:title="不可拷贝对象封装">
<polygon fill="white" stroke="black" points="292,-0.5 292,-19.5 380,-19.5 380,-0.5 292,-0.5"/>
<text text-anchor="middle" x="336" y="-7.5" font-family="Helvetica,sans-Serif" font-size="10.00">noncopyable.h</text>
</a>
</g>
</g>
<!-- Node19&#45;&gt;Node25 -->
<g id="edge30" class="edge">
<title>Node19&#45;&gt;Node25</title>
<path fill="none" stroke="midnightblue" d="M417.42,-56.32C402,-47.74 378.19,-34.49 360.29,-24.52"/>
<polygon fill="midnightblue" stroke="midnightblue" points="361.99,-21.46 351.55,-19.65 358.58,-27.58 361.99,-21.46"/>
</g>
<!-- Node26&#45;&gt;Node6 -->
<g id="edge32" class="edge">
<title>Node26&#45;&gt;Node6</title>
<path fill="none" stroke="midnightblue" d="M82.72,-56.32C73.16,-48.26 58.72,-36.08 47.22,-26.37"/>
<polygon fill="midnightblue" stroke="midnightblue" points="49.37,-23.61 39.47,-19.83 44.86,-28.96 49.37,-23.61"/>
</g>
</g>
</svg>
