<?xml version="1.0" encoding="UTF-8" standalone="no"?>
<!DOCTYPE svg PUBLIC "-//W3C//DTD SVG 1.1//EN"
 "http://www.w3.org/Graphics/SVG/1.1/DTD/svg11.dtd">
<!-- Generated by graphviz version 2.43.0 (0)
 -->
<!-- Title: sylar/mutex.h Pages: 1 -->
<svg width="2400pt" height="610pt"
 viewBox="0.00 0.00 2399.50 610.00" xmlns="http://www.w3.org/2000/svg" xmlns:xlink="http://www.w3.org/1999/xlink">
<g id="graph0" class="graph" transform="scale(1 1) rotate(0) translate(4 606)">
<title>sylar/mutex.h</title>
<polygon fill="white" stroke="transparent" points="-4,4 -4,-606 2395.5,-606 2395.5,4 -4,4"/>
<!-- Node1 -->
<g id="node1" class="node">
<title>Node1</title>
<g id="a_node1"><a xlink:title="信号量，互斥锁，读写锁，范围锁模板，自旋锁，原子锁">
<polygon fill="#bfbfbf" stroke="black" points="1400,-582.5 1400,-601.5 1484,-601.5 1484,-582.5 1400,-582.5"/>
<text text-anchor="middle" x="1442" y="-589.5" font-family="Helvetica,sans-Serif" font-size="10.00">sylar/mutex.h</text>
</a>
</g>
</g>
<!-- Node2 -->
<g id="node2" class="node">
<title>Node2</title>
<g id="a_node2"><a xlink:href="config_8h.html" target="_top" xlink:title="配置模块">
<polygon fill="white" stroke="black" points="736,-414.5 736,-433.5 818,-433.5 818,-414.5 736,-414.5"/>
<text text-anchor="middle" x="777" y="-421.5" font-family="Helvetica,sans-Serif" font-size="10.00">sylar/config.h</text>
</a>
</g>
</g>
<!-- Node1&#45;&gt;Node2 -->
<g id="edge1" class="edge">
<title>Node1&#45;&gt;Node2</title>
<path fill="none" stroke="midnightblue" d="M1389.59,-583.55C1335.02,-575.49 1247.17,-561.68 1172,-546 1071.96,-525.14 1046.51,-520.56 949,-490 893.26,-472.53 829.32,-446.82 797.38,-433.58"/>
<polygon fill="midnightblue" stroke="midnightblue" points="1389.31,-587.05 1399.71,-585.03 1390.33,-580.12 1389.31,-587.05"/>
</g>
<!-- Node7 -->
<g id="node7" class="node">
<title>Node7</title>
<g id="a_node7"><a xlink:href="sylar_8h_source.html" target="_top" xlink:title=" ">
<polygon fill="white" stroke="black" points="1228,-67.5 1228,-86.5 1304,-86.5 1304,-67.5 1228,-67.5"/>
<text text-anchor="middle" x="1266" y="-74.5" font-family="Helvetica,sans-Serif" font-size="10.00">sylar/sylar.h</text>
</a>
</g>
</g>
<!-- Node1&#45;&gt;Node7 -->
<g id="edge63" class="edge">
<title>Node1&#45;&gt;Node7</title>
<path fill="none" stroke="midnightblue" d="M1494.33,-590.23C1609.61,-585.87 1872.46,-560.01 1836,-414 1800.5,-271.83 1802.38,-205.1 1681,-123 1620.07,-81.79 1394.82,-77.64 1304.16,-77.69"/>
<polygon fill="midnightblue" stroke="midnightblue" points="1494.18,-586.73 1484.31,-590.57 1494.42,-593.73 1494.18,-586.73"/>
</g>
<!-- Node28 -->
<g id="node28" class="node">
<title>Node28</title>
<g id="a_node28"><a xlink:href="env_8h.html" target="_top" xlink:title="环境变量管理">
<polygon fill="white" stroke="black" points="554,-414.5 554,-433.5 624,-433.5 624,-414.5 554,-414.5"/>
<text text-anchor="middle" x="589" y="-421.5" font-family="Helvetica,sans-Serif" font-size="10.00">sylar/env.h</text>
</a>
</g>
</g>
<!-- Node1&#45;&gt;Node28 -->
<g id="edge29" class="edge">
<title>Node1&#45;&gt;Node28</title>
<path fill="none" stroke="midnightblue" d="M1389.68,-586.64C1318.05,-580.21 1185.6,-566.66 1074,-546 898.86,-513.57 692.79,-455.36 617.97,-433.56"/>
<polygon fill="midnightblue" stroke="midnightblue" points="1389.53,-590.14 1399.8,-587.54 1390.15,-583.17 1389.53,-590.14"/>
</g>
<!-- Node29 -->
<g id="node29" class="node">
<title>Node29</title>
<g id="a_node29"><a xlink:href="log_8h.html" target="_top" xlink:title="日志模块">
<polygon fill="white" stroke="black" points="958,-470.5 958,-489.5 1026,-489.5 1026,-470.5 958,-470.5"/>
<text text-anchor="middle" x="992" y="-477.5" font-family="Helvetica,sans-Serif" font-size="10.00">sylar/log.h</text>
</a>
</g>
</g>
<!-- Node1&#45;&gt;Node29 -->
<g id="edge34" class="edge">
<title>Node1&#45;&gt;Node29</title>
<path fill="none" stroke="midnightblue" d="M1397.18,-580.04C1307.27,-558.07 1106.69,-509.04 1026.3,-489.38"/>
<polygon fill="midnightblue" stroke="midnightblue" points="1396.52,-583.49 1407.06,-582.46 1398.18,-576.69 1396.52,-583.49"/>
</g>
<!-- Node35 -->
<g id="node35" class="node">
<title>Node35</title>
<g id="a_node35"><a xlink:href="socket__stream_8h.html" target="_top" xlink:title="Socket流式接口封装">
<polygon fill="white" stroke="black" points="1299,-291.5 1299,-321.5 1417,-321.5 1417,-291.5 1299,-291.5"/>
<text text-anchor="start" x="1307" y="-309.5" font-family="Helvetica,sans-Serif" font-size="10.00">sylar/streams/socket</text>
<text text-anchor="middle" x="1358" y="-298.5" font-family="Helvetica,sans-Serif" font-size="10.00">_stream.h</text>
</a>
</g>
</g>
<!-- Node1&#45;&gt;Node35 -->
<g id="edge62" class="edge">
<title>Node1&#45;&gt;Node35</title>
<path fill="none" stroke="midnightblue" d="M1451.7,-573.28C1468.28,-540.48 1498.03,-468.69 1474,-414 1455.52,-371.95 1411.34,-339.23 1383.15,-321.7"/>
<polygon fill="midnightblue" stroke="midnightblue" points="1448.42,-572 1446.87,-582.48 1454.62,-575.26 1448.42,-572"/>
</g>
<!-- Node40 -->
<g id="node40" class="node">
<title>Node40</title>
<g id="a_node40"><a xlink:href="mutex_8cc.html" target="_top" xlink:title="信号量实现">
<polygon fill="white" stroke="black" points="1883.5,-526.5 1883.5,-545.5 1972.5,-545.5 1972.5,-526.5 1883.5,-526.5"/>
<text text-anchor="middle" x="1928" y="-533.5" font-family="Helvetica,sans-Serif" font-size="10.00">sylar/mutex.cc</text>
</a>
</g>
</g>
<!-- Node1&#45;&gt;Node40 -->
<g id="edge61" class="edge">
<title>Node1&#45;&gt;Node40</title>
<path fill="none" stroke="midnightblue" d="M1494.58,-586.25C1575.26,-578.78 1734.39,-563.35 1869,-546 1873.62,-545.4 1878.45,-544.74 1883.25,-544.05"/>
<polygon fill="midnightblue" stroke="midnightblue" points="1493.83,-582.8 1484.2,-587.21 1494.48,-589.77 1493.83,-582.8"/>
</g>
<!-- Node41 -->
<g id="node41" class="node">
<title>Node41</title>
<g id="a_node41"><a xlink:href="thread_8h.html" target="_top" xlink:title="线程相关的封装">
<polygon fill="white" stroke="black" points="1505,-526.5 1505,-545.5 1589,-545.5 1589,-526.5 1505,-526.5"/>
<text text-anchor="middle" x="1547" y="-533.5" font-family="Helvetica,sans-Serif" font-size="10.00">sylar/thread.h</text>
</a>
</g>
</g>
<!-- Node1&#45;&gt;Node41 -->
<g id="edge64" class="edge">
<title>Node1&#45;&gt;Node41</title>
<path fill="none" stroke="midnightblue" d="M1467.81,-577.73C1487.25,-567.73 1513.35,-554.31 1530.17,-545.65"/>
<polygon fill="midnightblue" stroke="midnightblue" points="1466.16,-574.64 1458.87,-582.32 1469.36,-580.86 1466.16,-574.64"/>
</g>
<!-- Node45 -->
<g id="node45" class="node">
<title>Node45</title>
<g id="a_node45"><a xlink:href="timer_8h.html" target="_top" xlink:title="定时器封装">
<polygon fill="white" stroke="black" points="1333,-526.5 1333,-545.5 1411,-545.5 1411,-526.5 1333,-526.5"/>
<text text-anchor="middle" x="1372" y="-533.5" font-family="Helvetica,sans-Serif" font-size="10.00">sylar/timer.h</text>
</a>
</g>
</g>
<!-- Node1&#45;&gt;Node45 -->
<g id="edge77" class="edge">
<title>Node1&#45;&gt;Node45</title>
<path fill="none" stroke="midnightblue" d="M1422.69,-576.1C1410.09,-566.38 1394.07,-554.03 1383.45,-545.83"/>
<polygon fill="midnightblue" stroke="midnightblue" points="1420.7,-578.99 1430.75,-582.32 1424.97,-573.44 1420.7,-578.99"/>
</g>
<!-- Node3 -->
<g id="node3" class="node">
<title>Node3</title>
<g id="a_node3"><a xlink:href="config_8cc.html" target="_top" xlink:title="配置模块实现">
<polygon fill="white" stroke="black" points="644,-358.5 644,-377.5 730,-377.5 730,-358.5 644,-358.5"/>
<text text-anchor="middle" x="687" y="-365.5" font-family="Helvetica,sans-Serif" font-size="10.00">sylar/config.cc</text>
</a>
</g>
</g>
<!-- Node2&#45;&gt;Node3 -->
<g id="edge2" class="edge">
<title>Node2&#45;&gt;Node3</title>
<path fill="none" stroke="midnightblue" d="M753.96,-409.18C737.4,-399.24 715.58,-386.15 701.42,-377.65"/>
<polygon fill="midnightblue" stroke="midnightblue" points="752.16,-412.18 762.54,-414.32 755.77,-406.18 752.16,-412.18"/>
</g>
<!-- Node4 -->
<g id="node4" class="node">
<title>Node4</title>
<g id="a_node4"><a xlink:href="env_8cc.html" target="_top" xlink:title="环境变量管理接口实现">
<polygon fill="white" stroke="black" points="552,-358.5 552,-377.5 626,-377.5 626,-358.5 552,-358.5"/>
<text text-anchor="middle" x="589" y="-365.5" font-family="Helvetica,sans-Serif" font-size="10.00">sylar/env.cc</text>
</a>
</g>
</g>
<!-- Node2&#45;&gt;Node4 -->
<g id="edge3" class="edge">
<title>Node2&#45;&gt;Node4</title>
<path fill="none" stroke="midnightblue" d="M737.2,-411.57C701.73,-401.38 650.63,-386.7 618.65,-377.52"/>
<polygon fill="midnightblue" stroke="midnightblue" points="736.63,-415.05 747.21,-414.44 738.57,-408.32 736.63,-415.05"/>
</g>
<!-- Node5 -->
<g id="node5" class="node">
<title>Node5</title>
<g id="a_node5"><a xlink:href="http__parser_8cc.html" target="_top" xlink:title="HTTP协议解析实现">
<polygon fill="white" stroke="black" points="824,-358.5 824,-377.5 958,-377.5 958,-358.5 824,-358.5"/>
<text text-anchor="middle" x="891" y="-365.5" font-family="Helvetica,sans-Serif" font-size="10.00">sylar/http/http_parser.cc</text>
</a>
</g>
</g>
<!-- Node2&#45;&gt;Node5 -->
<g id="edge4" class="edge">
<title>Node2&#45;&gt;Node5</title>
<path fill="none" stroke="midnightblue" d="M804.24,-410.1C825.54,-400.01 854.54,-386.27 873.02,-377.52"/>
<polygon fill="midnightblue" stroke="midnightblue" points="802.6,-407 795.06,-414.44 805.6,-413.33 802.6,-407"/>
</g>
<!-- Node6 -->
<g id="node6" class="node">
<title>Node6</title>
<g id="a_node6"><a xlink:href="log_8cpp.html" target="_top" xlink:title="日志模块实现">
<polygon fill="white" stroke="black" points="416.5,-358.5 416.5,-377.5 495.5,-377.5 495.5,-358.5 416.5,-358.5"/>
<text text-anchor="middle" x="456" y="-365.5" font-family="Helvetica,sans-Serif" font-size="10.00">sylar/log.cpp</text>
</a>
</g>
</g>
<!-- Node2&#45;&gt;Node6 -->
<g id="edge5" class="edge">
<title>Node2&#45;&gt;Node6</title>
<path fill="none" stroke="midnightblue" d="M725.82,-414.39C661.83,-403.63 553.68,-385.43 495.64,-375.67"/>
<polygon fill="midnightblue" stroke="midnightblue" points="725.25,-417.84 735.69,-416.05 726.41,-410.94 725.25,-417.84"/>
</g>
<!-- Node2&#45;&gt;Node7 -->
<g id="edge6" class="edge">
<title>Node2&#45;&gt;Node7</title>
<path fill="none" stroke="midnightblue" d="M772.03,-404.45C766.4,-381.76 758,-342.1 758,-307.5 758,-307.5 758,-307.5 758,-188 758,-91.9 1109.68,-79.56 1227.82,-78.13"/>
<polygon fill="midnightblue" stroke="midnightblue" points="768.71,-405.58 774.59,-414.39 775.49,-403.83 768.71,-405.58"/>
</g>
<!-- Node26 -->
<g id="node26" class="node">
<title>Node26</title>
<g id="a_node26"><a xlink:href="tcp__server_8h.html" target="_top" xlink:title="TCP服务器的封装">
<polygon fill="white" stroke="black" points="1129.5,-235.5 1129.5,-254.5 1232.5,-254.5 1232.5,-235.5 1129.5,-235.5"/>
<text text-anchor="middle" x="1181" y="-242.5" font-family="Helvetica,sans-Serif" font-size="10.00">sylar/tcp_server.h</text>
</a>
</g>
</g>
<!-- Node2&#45;&gt;Node26 -->
<g id="edge25" class="edge">
<title>Node2&#45;&gt;Node26</title>
<path fill="none" stroke="midnightblue" d="M783.28,-404.96C789.27,-390.3 799.66,-370.14 815,-358 909.32,-283.37 1053.23,-258.28 1129.45,-249.99"/>
<polygon fill="midnightblue" stroke="midnightblue" points="779.95,-403.87 779.69,-414.46 786.5,-406.34 779.95,-403.87"/>
</g>
<!-- Node8 -->
<g id="node8" class="node">
<title>Node8</title>
<g id="a_node8"><a xlink:href="test__address_8cc.html" target="_top" xlink:title="网络地址类测试">
<polygon fill="white" stroke="black" points="1871.5,-6 1871.5,-25 1990.5,-25 1990.5,-6 1871.5,-6"/>
<text text-anchor="middle" x="1931" y="-13" font-family="Helvetica,sans-Serif" font-size="10.00">tests/test_address.cc</text>
</a>
</g>
</g>
<!-- Node7&#45;&gt;Node8 -->
<g id="edge7" class="edge">
<title>Node7&#45;&gt;Node8</title>
<path fill="none" stroke="midnightblue" d="M1314.46,-74.5C1416.3,-70.89 1659.84,-59.75 1862,-31 1872.79,-29.47 1884.41,-27.25 1894.99,-25"/>
<polygon fill="midnightblue" stroke="midnightblue" points="1314.06,-71.02 1304.19,-74.86 1314.3,-78.01 1314.06,-71.02"/>
</g>
<!-- Node9 -->
<g id="node9" class="node">
<title>Node9</title>
<g id="a_node9"><a xlink:href="test__bytearray_8cc.html" target="_top" xlink:title="Bytearray类测试">
<polygon fill="white" stroke="black" points="2008.5,-6 2008.5,-25 2135.5,-25 2135.5,-6 2008.5,-6"/>
<text text-anchor="middle" x="2072" y="-13" font-family="Helvetica,sans-Serif" font-size="10.00">tests/test_bytearray.cc</text>
</a>
</g>
</g>
<!-- Node7&#45;&gt;Node9 -->
<g id="edge8" class="edge">
<title>Node7&#45;&gt;Node9</title>
<path fill="none" stroke="midnightblue" d="M1314.53,-75.33C1432.43,-73.19 1743.17,-64.57 2000,-31 2011.38,-29.51 2023.66,-27.28 2034.79,-25.01"/>
<polygon fill="midnightblue" stroke="midnightblue" points="1314.32,-71.83 1304.38,-75.5 1314.44,-78.83 1314.32,-71.83"/>
</g>
<!-- Node10 -->
<g id="node10" class="node">
<title>Node10</title>
<g id="a_node10"><a xlink:href="test__config_8cc.html" target="_top" xlink:title="配置模块测试">
<polygon fill="white" stroke="black" points="2154,-6 2154,-25 2264,-25 2264,-6 2154,-6"/>
<text text-anchor="middle" x="2209" y="-13" font-family="Helvetica,sans-Serif" font-size="10.00">tests/test_config.cc</text>
</a>
</g>
</g>
<!-- Node7&#45;&gt;Node10 -->
<g id="edge9" class="edge">
<title>Node7&#45;&gt;Node10</title>
<path fill="none" stroke="midnightblue" d="M1314.63,-76.43C1448.03,-76.97 1830.71,-74.32 2145,-31 2155.27,-29.58 2166.33,-27.34 2176.31,-25.04"/>
<polygon fill="midnightblue" stroke="midnightblue" points="1314.36,-72.93 1304.34,-76.38 1314.33,-79.93 1314.36,-72.93"/>
</g>
<!-- Node11 -->
<g id="node11" class="node">
<title>Node11</title>
<g id="a_node11"><a xlink:href="test__env_8cc.html" target="_top" xlink:title="环境变量测试">
<polygon fill="white" stroke="black" points="0,-6 0,-25 98,-25 98,-6 0,-6"/>
<text text-anchor="middle" x="49" y="-13" font-family="Helvetica,sans-Serif" font-size="10.00">tests/test_env.cc</text>
</a>
</g>
</g>
<!-- Node7&#45;&gt;Node11 -->
<g id="edge10" class="edge">
<title>Node7&#45;&gt;Node11</title>
<path fill="none" stroke="midnightblue" d="M1217.57,-75.45C1026.75,-73.08 326.61,-62.37 107,-31 97.55,-29.65 87.4,-27.4 78.27,-25.07"/>
<polygon fill="midnightblue" stroke="midnightblue" points="1217.8,-78.95 1227.84,-75.58 1217.88,-71.95 1217.8,-78.95"/>
</g>
<!-- Node12 -->
<g id="node12" class="node">
<title>Node12</title>
<g id="a_node12"><a xlink:href="test__fiber_8cc.html" target="_top" xlink:title="协程测试">
<polygon fill="white" stroke="black" points="116,-6 116,-25 218,-25 218,-6 116,-6"/>
<text text-anchor="middle" x="167" y="-13" font-family="Helvetica,sans-Serif" font-size="10.00">tests/test_fiber.cc</text>
</a>
</g>
</g>
<!-- Node7&#45;&gt;Node12 -->
<g id="edge11" class="edge">
<title>Node7&#45;&gt;Node12</title>
<path fill="none" stroke="midnightblue" d="M1217.68,-75.15C1039.86,-71.83 422.12,-58.54 227,-31 217.24,-29.62 206.74,-27.36 197.3,-25.03"/>
<polygon fill="midnightblue" stroke="midnightblue" points="1217.71,-78.65 1227.77,-75.34 1217.84,-71.65 1217.71,-78.65"/>
</g>
<!-- Node13 -->
<g id="node13" class="node">
<title>Node13</title>
<g id="a_node13"><a xlink:href="test__fiber2_8cc.html" target="_top" xlink:title="协程测试，用于演示非对称协程">
<polygon fill="white" stroke="black" points="2282.5,-6 2282.5,-25 2391.5,-25 2391.5,-6 2282.5,-6"/>
<text text-anchor="middle" x="2337" y="-13" font-family="Helvetica,sans-Serif" font-size="10.00">tests/test_fiber2.cc</text>
</a>
</g>
</g>
<!-- Node7&#45;&gt;Node13 -->
<g id="edge12" class="edge">
<title>Node7&#45;&gt;Node13</title>
<path fill="none" stroke="midnightblue" d="M1314.25,-74.98C1488.4,-71.14 2084.23,-56.4 2273,-31 2283.39,-29.6 2294.57,-27.34 2304.65,-25.01"/>
<polygon fill="midnightblue" stroke="midnightblue" points="1314.03,-71.49 1304.11,-75.21 1314.19,-78.49 1314.03,-71.49"/>
</g>
<!-- Node14 -->
<g id="node14" class="node">
<title>Node14</title>
<g id="a_node14"><a xlink:href="test__hook_8cc.html" target="_top" xlink:title="hook模块测试">
<polygon fill="white" stroke="black" points="236.5,-6 236.5,-25 341.5,-25 341.5,-6 236.5,-6"/>
<text text-anchor="middle" x="289" y="-13" font-family="Helvetica,sans-Serif" font-size="10.00">tests/test_hook.cc</text>
</a>
</g>
</g>
<!-- Node7&#45;&gt;Node14 -->
<g id="edge13" class="edge">
<title>Node7&#45;&gt;Node14</title>
<path fill="none" stroke="midnightblue" d="M1217.55,-74.8C1053.53,-70.55 519.96,-55.16 350,-31 340.19,-29.61 329.65,-27.37 320.13,-25.07"/>
<polygon fill="midnightblue" stroke="midnightblue" points="1217.72,-78.3 1227.81,-75.06 1217.9,-71.31 1217.72,-78.3"/>
</g>
<!-- Node15 -->
<g id="node15" class="node">
<title>Node15</title>
<g id="a_node15"><a xlink:href="test__http_8cc.html" target="_top" xlink:title="HTTP请求类与响应类测试">
<polygon fill="white" stroke="black" points="359.5,-6 359.5,-25 460.5,-25 460.5,-6 359.5,-6"/>
<text text-anchor="middle" x="410" y="-13" font-family="Helvetica,sans-Serif" font-size="10.00">tests/test_http.cc</text>
</a>
</g>
</g>
<!-- Node7&#45;&gt;Node15 -->
<g id="edge14" class="edge">
<title>Node7&#45;&gt;Node15</title>
<path fill="none" stroke="midnightblue" d="M1217.28,-76.3C1092.36,-76.39 750.73,-72.51 470,-31 460.35,-29.57 449.98,-27.33 440.62,-25.03"/>
<polygon fill="midnightblue" stroke="midnightblue" points="1217.65,-79.79 1227.64,-76.28 1217.64,-72.79 1217.65,-79.79"/>
</g>
<!-- Node16 -->
<g id="node16" class="node">
<title>Node16</title>
<g id="a_node16"><a xlink:href="test__http__parser_8cc.html" target="_top" xlink:title="测试HTTP协议解析">
<polygon fill="white" stroke="black" points="479,-6 479,-25 615,-25 615,-6 479,-6"/>
<text text-anchor="middle" x="547" y="-13" font-family="Helvetica,sans-Serif" font-size="10.00">tests/test_http_parser.cc</text>
</a>
</g>
</g>
<!-- Node7&#45;&gt;Node16 -->
<g id="edge15" class="edge">
<title>Node7&#45;&gt;Node16</title>
<path fill="none" stroke="midnightblue" d="M1217.68,-74.53C1110.46,-70.85 844.66,-59.41 624,-31 612.13,-29.47 599.32,-27.28 587.62,-25.06"/>
<polygon fill="midnightblue" stroke="midnightblue" points="1217.75,-78.03 1227.86,-74.87 1217.98,-71.04 1217.75,-78.03"/>
</g>
<!-- Node17 -->
<g id="node17" class="node">
<title>Node17</title>
<g id="a_node17"><a xlink:href="test__http__server_8cc.html" target="_top" xlink:title="HttpServer测试">
<polygon fill="white" stroke="black" points="633,-6 633,-25 769,-25 769,-6 633,-6"/>
<text text-anchor="middle" x="701" y="-13" font-family="Helvetica,sans-Serif" font-size="10.00">tests/test_http_server.cc</text>
</a>
</g>
</g>
<!-- Node7&#45;&gt;Node17 -->
<g id="edge16" class="edge">
<title>Node7&#45;&gt;Node17</title>
<path fill="none" stroke="midnightblue" d="M1217.81,-73.02C1130.19,-67.27 939.02,-53.22 779,-31 767.27,-29.37 754.61,-27.2 742.98,-25.04"/>
<polygon fill="midnightblue" stroke="midnightblue" points="1217.77,-76.52 1227.98,-73.68 1218.22,-69.54 1217.77,-76.52"/>
</g>
<!-- Node18 -->
<g id="node18" class="node">
<title>Node18</title>
<g id="a_node18"><a xlink:href="test__iomanager_8cc.html" target="_top" xlink:title="IO协程调度器测试">
<polygon fill="white" stroke="black" points="787.5,-6 787.5,-25 920.5,-25 920.5,-6 787.5,-6"/>
<text text-anchor="middle" x="854" y="-13" font-family="Helvetica,sans-Serif" font-size="10.00">tests/test_iomanager.cc</text>
</a>
</g>
</g>
<!-- Node7&#45;&gt;Node18 -->
<g id="edge17" class="edge">
<title>Node7&#45;&gt;Node18</title>
<path fill="none" stroke="midnightblue" d="M1217.85,-70.4C1152.5,-62.61 1032.16,-47.57 930,-31 919.13,-29.24 907.42,-27.11 896.53,-25.05"/>
<polygon fill="midnightblue" stroke="midnightblue" points="1217.51,-73.89 1227.85,-71.59 1218.34,-66.93 1217.51,-73.89"/>
</g>
<!-- Node19 -->
<g id="node19" class="node">
<title>Node19</title>
<g id="a_node19"><a xlink:href="test__log_8cpp.html" target="_top" xlink:title="日志类测试">
<polygon fill="white" stroke="black" points="938.5,-6 938.5,-25 1041.5,-25 1041.5,-6 938.5,-6"/>
<text text-anchor="middle" x="990" y="-13" font-family="Helvetica,sans-Serif" font-size="10.00">tests/test_log.cpp</text>
</a>
</g>
</g>
<!-- Node7&#45;&gt;Node19 -->
<g id="edge18" class="edge">
<title>Node7&#45;&gt;Node19</title>
<path fill="none" stroke="midnightblue" d="M1217.83,-66.31C1174.2,-57.43 1108.2,-43.78 1051,-31 1042.61,-29.12 1033.59,-27.03 1025.12,-25.02"/>
<polygon fill="midnightblue" stroke="midnightblue" points="1217.38,-69.79 1227.87,-68.34 1218.77,-62.92 1217.38,-69.79"/>
</g>
<!-- Node20 -->
<g id="node20" class="node">
<title>Node20</title>
<g id="a_node20"><a xlink:href="test__scheduler_8cc.html" target="_top" xlink:title="协程调度器测试">
<polygon fill="white" stroke="black" points="1060,-6 1060,-25 1188,-25 1188,-6 1060,-6"/>
<text text-anchor="middle" x="1124" y="-13" font-family="Helvetica,sans-Serif" font-size="10.00">tests/test_scheduler.cc</text>
</a>
</g>
</g>
<!-- Node7&#45;&gt;Node20 -->
<g id="edge19" class="edge">
<title>Node7&#45;&gt;Node20</title>
<path fill="none" stroke="midnightblue" d="M1236.12,-63.48C1208.54,-51.92 1168.33,-35.08 1144.31,-25.01"/>
<polygon fill="midnightblue" stroke="midnightblue" points="1235.08,-66.84 1245.65,-67.48 1237.78,-60.38 1235.08,-66.84"/>
</g>
<!-- Node21 -->
<g id="node21" class="node">
<title>Node21</title>
<g id="a_node21"><a xlink:href="test__socket__tcp__client_8cc.html" target="_top" xlink:title="测试Socket类，tcp客户端">
<polygon fill="white" stroke="black" points="1206.5,-0.5 1206.5,-30.5 1325.5,-30.5 1325.5,-0.5 1206.5,-0.5"/>
<text text-anchor="start" x="1214.5" y="-18.5" font-family="Helvetica,sans-Serif" font-size="10.00">tests/test_socket_tcp</text>
<text text-anchor="middle" x="1266" y="-7.5" font-family="Helvetica,sans-Serif" font-size="10.00">_client.cc</text>
</a>
</g>
</g>
<!-- Node7&#45;&gt;Node21 -->
<g id="edge20" class="edge">
<title>Node7&#45;&gt;Node21</title>
<path fill="none" stroke="midnightblue" d="M1266,-57.23C1266,-48.59 1266,-38.5 1266,-30.52"/>
<polygon fill="midnightblue" stroke="midnightblue" points="1262.5,-57.48 1266,-67.48 1269.5,-57.48 1262.5,-57.48"/>
</g>
<!-- Node22 -->
<g id="node22" class="node">
<title>Node22</title>
<g id="a_node22"><a xlink:href="test__tcp__server_8cc.html" target="_top" xlink:title="TcpServer类测试">
<polygon fill="white" stroke="black" points="1343.5,-6 1343.5,-25 1474.5,-25 1474.5,-6 1343.5,-6"/>
<text text-anchor="middle" x="1409" y="-13" font-family="Helvetica,sans-Serif" font-size="10.00">tests/test_tcp_server.cc</text>
</a>
</g>
</g>
<!-- Node7&#45;&gt;Node22 -->
<g id="edge21" class="edge">
<title>Node7&#45;&gt;Node22</title>
<path fill="none" stroke="midnightblue" d="M1295.73,-63.63C1323.51,-52.07 1364.25,-35.12 1388.55,-25.01"/>
<polygon fill="midnightblue" stroke="midnightblue" points="1294.38,-60.4 1286.49,-67.48 1297.07,-66.86 1294.38,-60.4"/>
</g>
<!-- Node23 -->
<g id="node23" class="node">
<title>Node23</title>
<g id="a_node23"><a xlink:href="test__thread_8cc.html" target="_top" xlink:title="线程模块测试">
<polygon fill="white" stroke="black" points="1492.5,-6 1492.5,-25 1605.5,-25 1605.5,-6 1492.5,-6"/>
<text text-anchor="middle" x="1549" y="-13" font-family="Helvetica,sans-Serif" font-size="10.00">tests/test_thread.cc</text>
</a>
</g>
</g>
<!-- Node7&#45;&gt;Node23 -->
<g id="edge22" class="edge">
<title>Node7&#45;&gt;Node23</title>
<path fill="none" stroke="midnightblue" d="M1314.13,-66.29C1358.34,-57.32 1425.64,-43.53 1484,-31 1492.82,-29.11 1502.3,-27.02 1511.21,-25.04"/>
<polygon fill="midnightblue" stroke="midnightblue" points="1313.34,-62.88 1304.24,-68.3 1314.73,-69.74 1313.34,-62.88"/>
</g>
<!-- Node24 -->
<g id="node24" class="node">
<title>Node24</title>
<g id="a_node24"><a xlink:href="test__timer_8cc.html" target="_top" xlink:title="IO协程测试器定时器测试">
<polygon fill="white" stroke="black" points="1623.5,-6 1623.5,-25 1730.5,-25 1730.5,-6 1623.5,-6"/>
<text text-anchor="middle" x="1677" y="-13" font-family="Helvetica,sans-Serif" font-size="10.00">tests/test_timer.cc</text>
</a>
</g>
</g>
<!-- Node7&#45;&gt;Node24 -->
<g id="edge23" class="edge">
<title>Node7&#45;&gt;Node24</title>
<path fill="none" stroke="midnightblue" d="M1314.49,-71.32C1382.11,-64.44 1508.43,-50.28 1615,-31 1624.25,-29.33 1634.19,-27.17 1643.34,-25.03"/>
<polygon fill="midnightblue" stroke="midnightblue" points="1313.75,-67.88 1304.15,-72.36 1314.45,-74.84 1313.75,-67.88"/>
</g>
<!-- Node25 -->
<g id="node25" class="node">
<title>Node25</title>
<g id="a_node25"><a xlink:href="test__util_8cpp.html" target="_top" xlink:title="util与macro测试">
<polygon fill="white" stroke="black" points="1749,-6 1749,-25 1853,-25 1853,-6 1749,-6"/>
<text text-anchor="middle" x="1801" y="-13" font-family="Helvetica,sans-Serif" font-size="10.00">tests/test_util.cpp</text>
</a>
</g>
</g>
<!-- Node7&#45;&gt;Node25 -->
<g id="edge24" class="edge">
<title>Node7&#45;&gt;Node25</title>
<path fill="none" stroke="midnightblue" d="M1314.25,-73.63C1400.27,-68.93 1585.58,-56.56 1740,-31 1749.45,-29.44 1759.61,-27.23 1768.88,-25.02"/>
<polygon fill="midnightblue" stroke="midnightblue" points="1313.82,-70.15 1304.02,-74.18 1314.19,-77.14 1313.82,-70.15"/>
</g>
<!-- Node26&#45;&gt;Node7 -->
<g id="edge28" class="edge">
<title>Node26&#45;&gt;Node7</title>
<path fill="none" stroke="midnightblue" d="M1180.65,-225.28C1181.03,-200.1 1184.8,-154.83 1205,-123 1215.37,-106.67 1233.94,-94.25 1247.88,-86.64"/>
<polygon fill="midnightblue" stroke="midnightblue" points="1177.15,-225.31 1180.66,-235.31 1184.15,-225.3 1177.15,-225.31"/>
</g>
<!-- Node27 -->
<g id="node27" class="node">
<title>Node27</title>
<g id="a_node27"><a xlink:href="http__server_8h.html" target="_top" xlink:title="HTTP服务器封装">
<polygon fill="white" stroke="black" points="1294,-123.5 1294,-142.5 1424,-142.5 1424,-123.5 1294,-123.5"/>
<text text-anchor="middle" x="1359" y="-130.5" font-family="Helvetica,sans-Serif" font-size="10.00">sylar/http/http_server.h</text>
</a>
</g>
</g>
<!-- Node26&#45;&gt;Node27 -->
<g id="edge26" class="edge">
<title>Node26&#45;&gt;Node27</title>
<path fill="none" stroke="midnightblue" d="M1203.64,-230.01C1241,-206.92 1314.48,-161.51 1345.1,-142.59"/>
<polygon fill="midnightblue" stroke="midnightblue" points="1201.63,-227.13 1194.97,-235.37 1205.31,-233.09 1201.63,-227.13"/>
</g>
<!-- Node27&#45;&gt;Node7 -->
<g id="edge27" class="edge">
<title>Node27&#45;&gt;Node7</title>
<path fill="none" stroke="midnightblue" d="M1335.19,-118.18C1318.08,-108.24 1295.53,-95.15 1280.9,-86.65"/>
<polygon fill="midnightblue" stroke="midnightblue" points="1333.65,-121.33 1344.06,-123.32 1337.17,-115.28 1333.65,-121.33"/>
</g>
<!-- Node28&#45;&gt;Node3 -->
<g id="edge30" class="edge">
<title>Node28&#45;&gt;Node3</title>
<path fill="none" stroke="midnightblue" d="M613.59,-409.45C631.68,-399.48 655.73,-386.23 671.29,-377.65"/>
<polygon fill="midnightblue" stroke="midnightblue" points="611.81,-406.43 604.75,-414.32 615.19,-412.56 611.81,-406.43"/>
</g>
<!-- Node28&#45;&gt;Node4 -->
<g id="edge31" class="edge">
<title>Node28&#45;&gt;Node4</title>
<path fill="none" stroke="midnightblue" d="M589,-403.8C589,-394.91 589,-384.78 589,-377.75"/>
<polygon fill="midnightblue" stroke="midnightblue" points="585.5,-404.08 589,-414.08 592.5,-404.08 585.5,-404.08"/>
</g>
<!-- Node28&#45;&gt;Node6 -->
<g id="edge32" class="edge">
<title>Node28&#45;&gt;Node6</title>
<path fill="none" stroke="midnightblue" d="M558.55,-410.64C533.59,-400.5 498.92,-386.43 476.98,-377.52"/>
<polygon fill="midnightblue" stroke="midnightblue" points="557.34,-413.92 567.93,-414.44 559.98,-407.44 557.34,-413.92"/>
</g>
<!-- Node28&#45;&gt;Node7 -->
<g id="edge33" class="edge">
<title>Node28&#45;&gt;Node7</title>
<path fill="none" stroke="midnightblue" d="M569.1,-407.77C559.94,-399.81 549.66,-389.37 543,-378 526.6,-350 524,-339.95 524,-307.5 524,-307.5 524,-307.5 524,-188 524,-116.09 1076.35,-86.38 1227.93,-79.58"/>
<polygon fill="midnightblue" stroke="midnightblue" points="567.11,-410.67 577.05,-414.33 571.57,-405.27 567.11,-410.67"/>
</g>
<!-- Node29&#45;&gt;Node2 -->
<g id="edge35" class="edge">
<title>Node29&#45;&gt;Node2</title>
<path fill="none" stroke="midnightblue" d="M948.04,-467.96C907.43,-457.76 847.96,-442.82 810.91,-433.52"/>
<polygon fill="midnightblue" stroke="midnightblue" points="947.38,-471.4 957.93,-470.44 949.09,-464.61 947.38,-471.4"/>
</g>
<!-- Node29&#45;&gt;Node4 -->
<g id="edge36" class="edge">
<title>Node29&#45;&gt;Node4</title>
<path fill="none" stroke="midnightblue" d="M947.71,-475.19C894.37,-469.76 802.55,-457.72 727,-434 680,-419.25 628.45,-391.62 603.77,-377.61"/>
<polygon fill="midnightblue" stroke="midnightblue" points="947.55,-478.69 957.84,-476.19 948.23,-471.73 947.55,-478.69"/>
</g>
<!-- Node29&#45;&gt;Node5 -->
<g id="edge37" class="edge">
<title>Node29&#45;&gt;Node5</title>
<path fill="none" stroke="midnightblue" d="M972.71,-463.96C962.51,-455.61 950.06,-444.77 940,-434 922.63,-415.42 905.46,-390.83 896.8,-377.87"/>
<polygon fill="midnightblue" stroke="midnightblue" points="970.65,-466.79 980.64,-470.32 975.03,-461.33 970.65,-466.79"/>
</g>
<!-- Node29&#45;&gt;Node6 -->
<g id="edge39" class="edge">
<title>Node29&#45;&gt;Node6</title>
<path fill="none" stroke="midnightblue" d="M947.59,-477.48C849.61,-473.66 617.83,-461.88 545,-434 511.41,-421.14 479.15,-392.11 464.39,-377.6"/>
<polygon fill="midnightblue" stroke="midnightblue" points="947.63,-480.99 957.76,-477.87 947.9,-473.99 947.63,-480.99"/>
</g>
<!-- Node29&#45;&gt;Node7 -->
<g id="edge58" class="edge">
<title>Node29&#45;&gt;Node7</title>
<path fill="none" stroke="midnightblue" d="M990.91,-460.08C989.17,-428.49 986,-362.98 986,-307.5 986,-307.5 986,-307.5 986,-188 986,-139.02 1030.5,-143.47 1075,-123 1125.14,-99.94 1188.31,-88.04 1227.94,-82.42"/>
<polygon fill="midnightblue" stroke="midnightblue" points="987.43,-460.65 991.49,-470.44 994.42,-460.26 987.43,-460.65"/>
</g>
<!-- Node30 -->
<g id="node30" class="node">
<title>Node30</title>
<g id="a_node30"><a xlink:href="iomanager_8cc.html" target="_top" xlink:title="IO协程调度器实现">
<polygon fill="white" stroke="black" points="1090.5,-297 1090.5,-316 1199.5,-316 1199.5,-297 1090.5,-297"/>
<text text-anchor="middle" x="1145" y="-304" font-family="Helvetica,sans-Serif" font-size="10.00">sylar/iomanager.cc</text>
</a>
</g>
</g>
<!-- Node29&#45;&gt;Node30 -->
<g id="edge38" class="edge">
<title>Node29&#45;&gt;Node30</title>
<path fill="none" stroke="midnightblue" d="M994.75,-460.11C997.44,-446.4 1002.56,-427.88 1012,-414 1043.43,-367.76 1100.95,-331.75 1128.9,-316.07"/>
<polygon fill="midnightblue" stroke="midnightblue" points="991.24,-459.86 993.02,-470.3 998.14,-461.03 991.24,-459.86"/>
</g>
<!-- Node31 -->
<g id="node31" class="node">
<title>Node31</title>
<g id="a_node31"><a xlink:href="macro_8h.html" target="_top" xlink:title="常用宏的封装">
<polygon fill="white" stroke="black" points="1020.5,-414.5 1020.5,-433.5 1103.5,-433.5 1103.5,-414.5 1020.5,-414.5"/>
<text text-anchor="middle" x="1062" y="-421.5" font-family="Helvetica,sans-Serif" font-size="10.00">sylar/macro.h</text>
</a>
</g>
</g>
<!-- Node29&#45;&gt;Node31 -->
<g id="edge40" class="edge">
<title>Node29&#45;&gt;Node31</title>
<path fill="none" stroke="midnightblue" d="M1011.31,-464.1C1023.91,-454.38 1039.93,-442.03 1050.55,-433.83"/>
<polygon fill="midnightblue" stroke="midnightblue" points="1009.03,-461.44 1003.25,-470.32 1013.3,-466.99 1009.03,-461.44"/>
</g>
<!-- Node33 -->
<g id="node33" class="node">
<title>Node33</title>
<g id="a_node33"><a xlink:href="scheduler_8h.html" target="_top" xlink:title="协程调度器实现">
<polygon fill="white" stroke="black" points="1365.5,-414.5 1365.5,-433.5 1464.5,-433.5 1464.5,-414.5 1365.5,-414.5"/>
<text text-anchor="middle" x="1415" y="-421.5" font-family="Helvetica,sans-Serif" font-size="10.00">sylar/scheduler.h</text>
</a>
</g>
</g>
<!-- Node29&#45;&gt;Node33 -->
<g id="edge44" class="edge">
<title>Node29&#45;&gt;Node33</title>
<path fill="none" stroke="midnightblue" d="M1036.43,-473.33C1115.99,-463.17 1282.2,-441.95 1365.37,-431.34"/>
<polygon fill="midnightblue" stroke="midnightblue" points="1035.73,-469.89 1026.26,-474.63 1036.62,-476.83 1035.73,-469.89"/>
</g>
<!-- Node38 -->
<g id="node38" class="node">
<title>Node38</title>
<g id="a_node38"><a xlink:href="thread_8cc.html" target="_top" xlink:title="线程封装实现">
<polygon fill="white" stroke="black" points="1121.5,-414.5 1121.5,-433.5 1210.5,-433.5 1210.5,-414.5 1121.5,-414.5"/>
<text text-anchor="middle" x="1166" y="-421.5" font-family="Helvetica,sans-Serif" font-size="10.00">sylar/thread.cc</text>
</a>
</g>
</g>
<!-- Node29&#45;&gt;Node38 -->
<g id="edge59" class="edge">
<title>Node29&#45;&gt;Node38</title>
<path fill="none" stroke="midnightblue" d="M1029.26,-467.44C1062.07,-457.26 1109.08,-442.66 1138.56,-433.52"/>
<polygon fill="midnightblue" stroke="midnightblue" points="1028.08,-464.14 1019.57,-470.44 1030.16,-470.82 1028.08,-464.14"/>
</g>
<!-- Node39 -->
<g id="node39" class="node">
<title>Node39</title>
<g id="a_node39"><a xlink:href="util_8cpp.html" target="_top" xlink:title="util函数实现">
<polygon fill="white" stroke="black" points="1229,-414.5 1229,-433.5 1309,-433.5 1309,-414.5 1229,-414.5"/>
<text text-anchor="middle" x="1269" y="-421.5" font-family="Helvetica,sans-Serif" font-size="10.00">sylar/util.cpp</text>
</a>
</g>
</g>
<!-- Node29&#45;&gt;Node39 -->
<g id="edge60" class="edge">
<title>Node29&#45;&gt;Node39</title>
<path fill="none" stroke="midnightblue" d="M1036.36,-470.35C1089.38,-460.02 1177.33,-442.87 1228.55,-432.88"/>
<polygon fill="midnightblue" stroke="midnightblue" points="1035.39,-466.98 1026.24,-472.32 1036.73,-473.85 1035.39,-466.98"/>
</g>
<!-- Node31&#45;&gt;Node7 -->
<g id="edge43" class="edge">
<title>Node31&#45;&gt;Node7</title>
<path fill="none" stroke="midnightblue" d="M1062,-404.29C1062,-381.45 1062,-341.64 1062,-307.5 1062,-307.5 1062,-307.5 1062,-188 1062,-113.56 1168.54,-89.26 1227.63,-81.51"/>
<polygon fill="midnightblue" stroke="midnightblue" points="1058.5,-404.31 1062,-414.31 1065.5,-404.31 1058.5,-404.31"/>
</g>
<!-- Node31&#45;&gt;Node30 -->
<g id="edge41" class="edge">
<title>Node31&#45;&gt;Node30</title>
<path fill="none" stroke="midnightblue" d="M1074.09,-406.17C1092,-381.26 1124.92,-335.44 1138.69,-316.28"/>
<polygon fill="midnightblue" stroke="midnightblue" points="1071.23,-404.16 1068.24,-414.32 1076.92,-408.24 1071.23,-404.16"/>
</g>
<!-- Node32 -->
<g id="node32" class="node">
<title>Node32</title>
<g id="a_node32"><a xlink:href="scheduler_8cc.html" target="_top" xlink:title="协程调度器实现">
<polygon fill="white" stroke="black" points="1150,-358.5 1150,-377.5 1254,-377.5 1254,-358.5 1150,-358.5"/>
<text text-anchor="middle" x="1202" y="-365.5" font-family="Helvetica,sans-Serif" font-size="10.00">sylar/scheduler.cc</text>
</a>
</g>
</g>
<!-- Node31&#45;&gt;Node32 -->
<g id="edge42" class="edge">
<title>Node31&#45;&gt;Node32</title>
<path fill="none" stroke="midnightblue" d="M1093.7,-410.77C1120,-400.63 1156.72,-386.47 1179.92,-377.52"/>
<polygon fill="midnightblue" stroke="midnightblue" points="1092.25,-407.58 1084.18,-414.44 1094.77,-414.11 1092.25,-407.58"/>
</g>
<!-- Node33&#45;&gt;Node7 -->
<g id="edge57" class="edge">
<title>Node33&#45;&gt;Node7</title>
<path fill="none" stroke="midnightblue" d="M1425.95,-405.55C1449.68,-365.54 1501.98,-264.09 1480,-179 1472.88,-151.46 1471.59,-140.29 1449,-123 1406.65,-90.59 1344.04,-81.21 1304.14,-78.67"/>
<polygon fill="midnightblue" stroke="midnightblue" points="1422.93,-403.79 1420.72,-414.15 1428.91,-407.42 1422.93,-403.79"/>
</g>
<!-- Node33&#45;&gt;Node32 -->
<g id="edge56" class="edge">
<title>Node33&#45;&gt;Node32</title>
<path fill="none" stroke="midnightblue" d="M1371.45,-411.96C1331.22,-401.76 1272.3,-386.82 1235.59,-377.52"/>
<polygon fill="midnightblue" stroke="midnightblue" points="1370.7,-415.38 1381.25,-414.44 1372.42,-408.59 1370.7,-415.38"/>
</g>
<!-- Node34 -->
<g id="node34" class="node">
<title>Node34</title>
<g id="a_node34"><a xlink:href="iomanager_8h.html" target="_top" xlink:title="IO协程调度器">
<polygon fill="white" stroke="black" points="1281,-358.5 1281,-377.5 1385,-377.5 1385,-358.5 1281,-358.5"/>
<text text-anchor="middle" x="1333" y="-365.5" font-family="Helvetica,sans-Serif" font-size="10.00">sylar/iomanager.h</text>
</a>
</g>
</g>
<!-- Node33&#45;&gt;Node34 -->
<g id="edge45" class="edge">
<title>Node33&#45;&gt;Node34</title>
<path fill="none" stroke="midnightblue" d="M1393.17,-408.62C1378.19,-398.76 1358.8,-385.99 1346.14,-377.65"/>
<polygon fill="midnightblue" stroke="midnightblue" points="1391.55,-411.75 1401.83,-414.32 1395.4,-405.9 1391.55,-411.75"/>
</g>
<!-- Node34&#45;&gt;Node7 -->
<g id="edge54" class="edge">
<title>Node34&#45;&gt;Node7</title>
<path fill="none" stroke="midnightblue" d="M1313.78,-351.87C1305.08,-343.93 1295.52,-333.48 1290,-322 1249.61,-237.98 1260.76,-119.15 1264.83,-86.55"/>
<polygon fill="midnightblue" stroke="midnightblue" points="1311.53,-354.55 1321.39,-358.4 1316.09,-349.23 1311.53,-354.55"/>
</g>
<!-- Node34&#45;&gt;Node26 -->
<g id="edge55" class="edge">
<title>Node34&#45;&gt;Node26</title>
<path fill="none" stroke="midnightblue" d="M1304.63,-353.99C1288.44,-345.91 1268.21,-334.67 1252,-322 1225.25,-301.1 1199.5,-269.91 1187.71,-254.81"/>
<polygon fill="midnightblue" stroke="midnightblue" points="1303.11,-357.14 1313.63,-358.37 1306.17,-350.85 1303.11,-357.14"/>
</g>
<!-- Node34&#45;&gt;Node30 -->
<g id="edge46" class="edge">
<title>Node34&#45;&gt;Node30</title>
<path fill="none" stroke="midnightblue" d="M1296.29,-355.38C1259.74,-343.82 1204.53,-326.34 1171.89,-316.01"/>
<polygon fill="midnightblue" stroke="midnightblue" points="1295.47,-358.79 1306.06,-358.48 1297.59,-352.12 1295.47,-358.79"/>
</g>
<!-- Node34&#45;&gt;Node35 -->
<g id="edge47" class="edge">
<title>Node34&#45;&gt;Node35</title>
<path fill="none" stroke="midnightblue" d="M1340.52,-349.1C1344.23,-340.27 1348.64,-329.77 1352.11,-321.52"/>
<polygon fill="midnightblue" stroke="midnightblue" points="1337.23,-347.9 1336.58,-358.48 1343.68,-350.61 1337.23,-347.9"/>
</g>
<!-- Node36 -->
<g id="node36" class="node">
<title>Node36</title>
<g id="a_node36"><a xlink:href="http__session_8h.html" target="_top" xlink:title="HTTPSession封装">
<polygon fill="white" stroke="black" points="1289.5,-235.5 1289.5,-254.5 1426.5,-254.5 1426.5,-235.5 1289.5,-235.5"/>
<text text-anchor="middle" x="1358" y="-242.5" font-family="Helvetica,sans-Serif" font-size="10.00">sylar/http/http_session.h</text>
</a>
</g>
</g>
<!-- Node35&#45;&gt;Node36 -->
<g id="edge48" class="edge">
<title>Node35&#45;&gt;Node36</title>
<path fill="none" stroke="midnightblue" d="M1358,-281.29C1358,-271.86 1358,-261.65 1358,-254.66"/>
<polygon fill="midnightblue" stroke="midnightblue" points="1354.5,-281.4 1358,-291.4 1361.5,-281.4 1354.5,-281.4"/>
</g>
<!-- Node36&#45;&gt;Node7 -->
<g id="edge53" class="edge">
<title>Node36&#45;&gt;Node7</title>
<path fill="none" stroke="midnightblue" d="M1343.53,-227.76C1327.22,-208.69 1300.92,-175.52 1285,-143 1275.7,-123.99 1270.08,-99.58 1267.57,-86.76"/>
<polygon fill="midnightblue" stroke="midnightblue" points="1341.04,-230.23 1350.25,-235.47 1346.32,-225.63 1341.04,-230.23"/>
</g>
<!-- Node36&#45;&gt;Node27 -->
<g id="edge49" class="edge">
<title>Node36&#45;&gt;Node27</title>
<path fill="none" stroke="midnightblue" d="M1355.12,-225.14C1353.49,-212.17 1351.97,-194.55 1353,-179 1353.85,-166.26 1356.02,-151.62 1357.51,-142.59"/>
<polygon fill="midnightblue" stroke="midnightblue" points="1351.67,-225.75 1356.52,-235.17 1358.61,-224.79 1351.67,-225.75"/>
</g>
<!-- Node37 -->
<g id="node37" class="node">
<title>Node37</title>
<g id="a_node37"><a xlink:href="servlet_8h.html" target="_top" xlink:title="Servlet封装">
<polygon fill="white" stroke="black" points="1361.5,-179.5 1361.5,-198.5 1470.5,-198.5 1470.5,-179.5 1361.5,-179.5"/>
<text text-anchor="middle" x="1416" y="-186.5" font-family="Helvetica,sans-Serif" font-size="10.00">sylar/http/servlet.h</text>
</a>
</g>
</g>
<!-- Node36&#45;&gt;Node37 -->
<g id="edge50" class="edge">
<title>Node36&#45;&gt;Node37</title>
<path fill="none" stroke="midnightblue" d="M1374.91,-228.25C1385.2,-218.67 1397.97,-206.79 1406.51,-198.83"/>
<polygon fill="midnightblue" stroke="midnightblue" points="1372.25,-225.95 1367.32,-235.32 1377.02,-231.07 1372.25,-225.95"/>
</g>
<!-- Node37&#45;&gt;Node7 -->
<g id="edge52" class="edge">
<title>Node37&#45;&gt;Node7</title>
<path fill="none" stroke="midnightblue" d="M1428.15,-170.34C1436.19,-156.25 1443.49,-136.69 1433,-123 1417.43,-102.68 1348.52,-89.47 1304.23,-82.91"/>
<polygon fill="midnightblue" stroke="midnightblue" points="1425.02,-168.74 1422.68,-179.07 1430.95,-172.46 1425.02,-168.74"/>
</g>
<!-- Node37&#45;&gt;Node27 -->
<g id="edge51" class="edge">
<title>Node37&#45;&gt;Node27</title>
<path fill="none" stroke="midnightblue" d="M1399.38,-172.25C1389.27,-162.67 1376.72,-150.79 1368.32,-142.83"/>
<polygon fill="midnightblue" stroke="midnightblue" points="1397.18,-174.99 1406.84,-179.32 1401.99,-169.91 1397.18,-174.99"/>
</g>
<!-- Node41&#45;&gt;Node7 -->
<g id="edge75" class="edge">
<title>Node41&#45;&gt;Node7</title>
<path fill="none" stroke="midnightblue" d="M1572.47,-520.99C1601.51,-502.94 1645,-468.62 1645,-425 1645,-425 1645,-425 1645,-188 1645,-117.52 1400.18,-89.27 1304.08,-80.9"/>
<polygon fill="midnightblue" stroke="midnightblue" points="1570.42,-518.14 1563.62,-526.27 1574,-524.15 1570.42,-518.14"/>
</g>
<!-- Node41&#45;&gt;Node33 -->
<g id="edge74" class="edge">
<title>Node41&#45;&gt;Node33</title>
<path fill="none" stroke="midnightblue" d="M1528.78,-519.82C1500.66,-496.39 1447.63,-452.19 1425.31,-433.59"/>
<polygon fill="midnightblue" stroke="midnightblue" points="1526.72,-522.66 1536.64,-526.37 1531.2,-517.28 1526.72,-522.66"/>
</g>
<!-- Node41&#45;&gt;Node37 -->
<g id="edge73" class="edge">
<title>Node41&#45;&gt;Node37</title>
<path fill="none" stroke="midnightblue" d="M1566.25,-519.75C1574.63,-511.87 1583.55,-501.5 1588,-490 1591.21,-481.71 1590.42,-478.55 1588,-470 1554.18,-350.32 1453.23,-231.43 1424.01,-198.77"/>
<polygon fill="midnightblue" stroke="midnightblue" points="1563.76,-517.27 1558.54,-526.49 1568.37,-522.54 1563.76,-517.27"/>
</g>
<!-- Node41&#45;&gt;Node38 -->
<g id="edge76" class="edge">
<title>Node41&#45;&gt;Node38</title>
<path fill="none" stroke="midnightblue" d="M1507.67,-523.65C1431.1,-501.54 1263.56,-453.17 1195.56,-433.53"/>
<polygon fill="midnightblue" stroke="midnightblue" points="1506.84,-527.05 1517.42,-526.46 1508.78,-520.32 1506.84,-527.05"/>
</g>
<!-- Node42 -->
<g id="node42" class="node">
<title>Node42</title>
<g id="a_node42"><a xlink:href="fd__manager_8h.html" target="_top" xlink:title="文件句柄管理类">
<polygon fill="white" stroke="black" points="1673,-470.5 1673,-489.5 1783,-489.5 1783,-470.5 1673,-470.5"/>
<text text-anchor="middle" x="1728" y="-477.5" font-family="Helvetica,sans-Serif" font-size="10.00">sylar/fd_manager.h</text>
</a>
</g>
</g>
<!-- Node41&#45;&gt;Node42 -->
<g id="edge65" class="edge">
<title>Node41&#45;&gt;Node42</title>
<path fill="none" stroke="midnightblue" d="M1585.32,-523.57C1619.46,-513.38 1668.66,-498.7 1699.45,-489.52"/>
<polygon fill="midnightblue" stroke="midnightblue" points="1584.26,-520.23 1575.68,-526.44 1586.26,-526.94 1584.26,-520.23"/>
</g>
<!-- Node44 -->
<g id="node44" class="node">
<title>Node44</title>
<g id="a_node44"><a xlink:href="fiber_8h.html" target="_top" xlink:title="协程模块">
<polygon fill="white" stroke="black" points="1505,-470.5 1505,-489.5 1579,-489.5 1579,-470.5 1505,-470.5"/>
<text text-anchor="middle" x="1542" y="-477.5" font-family="Helvetica,sans-Serif" font-size="10.00">sylar/fiber.h</text>
</a>
</g>
</g>
<!-- Node41&#45;&gt;Node44 -->
<g id="edge68" class="edge">
<title>Node41&#45;&gt;Node44</title>
<path fill="none" stroke="midnightblue" d="M1545.25,-516.1C1544.42,-507.14 1543.47,-496.86 1542.81,-489.75"/>
<polygon fill="midnightblue" stroke="midnightblue" points="1541.77,-516.45 1546.17,-526.08 1548.74,-515.8 1541.77,-516.45"/>
</g>
<!-- Node42&#45;&gt;Node7 -->
<g id="edge67" class="edge">
<title>Node42&#45;&gt;Node7</title>
<path fill="none" stroke="midnightblue" d="M1716.17,-461.96C1702.84,-441.06 1683,-404.07 1683,-369 1683,-369 1683,-369 1683,-188 1683,-157.2 1683.22,-142.02 1659,-123 1604.51,-80.22 1391.82,-76.92 1304.12,-77.44"/>
<polygon fill="midnightblue" stroke="midnightblue" points="1713.3,-463.97 1721.74,-470.37 1719.13,-460.1 1713.3,-463.97"/>
</g>
<!-- Node43 -->
<g id="node43" class="node">
<title>Node43</title>
<g id="a_node43"><a xlink:href="fd__manager_8cc.html" target="_top" xlink:title="文件句柄管理类实现">
<polygon fill="white" stroke="black" points="1711.5,-414.5 1711.5,-433.5 1826.5,-433.5 1826.5,-414.5 1711.5,-414.5"/>
<text text-anchor="middle" x="1769" y="-421.5" font-family="Helvetica,sans-Serif" font-size="10.00">sylar/fd_manager.cc</text>
</a>
</g>
</g>
<!-- Node42&#45;&gt;Node43 -->
<g id="edge66" class="edge">
<title>Node42&#45;&gt;Node43</title>
<path fill="none" stroke="midnightblue" d="M1741.02,-461.86C1748.12,-452.5 1756.6,-441.33 1762.36,-433.75"/>
<polygon fill="midnightblue" stroke="midnightblue" points="1738.03,-460 1734.77,-470.08 1743.61,-464.24 1738.03,-460"/>
</g>
<!-- Node44&#45;&gt;Node7 -->
<g id="edge70" class="edge">
<title>Node44&#45;&gt;Node7</title>
<path fill="none" stroke="midnightblue" d="M1545.28,-460.56C1554.76,-400.55 1575.36,-209.72 1472,-123 1446.97,-102 1356.69,-88.41 1304.33,-82.1"/>
<polygon fill="midnightblue" stroke="midnightblue" points="1541.82,-460.03 1543.62,-470.47 1548.72,-461.18 1541.82,-460.03"/>
</g>
<!-- Node44&#45;&gt;Node13 -->
<g id="edge72" class="edge">
<title>Node44&#45;&gt;Node13</title>
<path fill="none" stroke="midnightblue" d="M1551.31,-461.31C1565.54,-435.69 1594.89,-388.02 1631,-358 1857.41,-169.77 2205.09,-55.86 2307.6,-25.03"/>
<polygon fill="midnightblue" stroke="midnightblue" points="1548.15,-459.8 1546.46,-470.26 1554.3,-463.14 1548.15,-459.8"/>
</g>
<!-- Node44&#45;&gt;Node33 -->
<g id="edge69" class="edge">
<title>Node44&#45;&gt;Node33</title>
<path fill="none" stroke="midnightblue" d="M1512.61,-466.5C1488.8,-456.38 1455.89,-442.39 1435.03,-433.52"/>
<polygon fill="midnightblue" stroke="midnightblue" points="1511.3,-469.75 1521.88,-470.44 1514.04,-463.31 1511.3,-469.75"/>
</g>
<!-- Node44&#45;&gt;Node39 -->
<g id="edge71" class="edge">
<title>Node44&#45;&gt;Node39</title>
<path fill="none" stroke="midnightblue" d="M1494.85,-469.67C1442.39,-459.3 1358.55,-442.71 1309.13,-432.94"/>
<polygon fill="midnightblue" stroke="midnightblue" points="1494.41,-473.15 1504.9,-471.66 1495.77,-466.29 1494.41,-473.15"/>
</g>
<!-- Node45&#45;&gt;Node34 -->
<g id="edge78" class="edge">
<title>Node45&#45;&gt;Node34</title>
<path fill="none" stroke="midnightblue" d="M1367.52,-515.93C1359.06,-479.92 1341.04,-403.23 1335.01,-377.57"/>
<polygon fill="midnightblue" stroke="midnightblue" points="1364.21,-517.14 1369.9,-526.08 1371.02,-515.54 1364.21,-517.14"/>
</g>
</g>
</svg>
