<?xml version="1.0" encoding="UTF-8" standalone="no"?>
<!DOCTYPE svg PUBLIC "-//W3C//DTD SVG 1.1//EN"
 "http://www.w3.org/Graphics/SVG/1.1/DTD/svg11.dtd">
<!-- Generated by graphviz version 2.43.0 (0)
 -->
<!-- Title: sylar/scheduler.cc Pages: 1 -->
<svg width="1651pt" height="308pt"
 viewBox="0.00 0.00 1650.50 308.00" xmlns="http://www.w3.org/2000/svg" xmlns:xlink="http://www.w3.org/1999/xlink">
<g id="graph0" class="graph" transform="scale(1 1) rotate(0) translate(4 304)">
<title>sylar/scheduler.cc</title>
<polygon fill="white" stroke="transparent" points="-4,4 -4,-304 1646.5,-304 1646.5,4 -4,4"/>
<!-- Node1 -->
<g id="node1" class="node">
<title>Node1</title>
<g id="a_node1"><a xlink:title="协程调度器实现">
<polygon fill="#bfbfbf" stroke="black" points="973.5,-280.5 973.5,-299.5 1077.5,-299.5 1077.5,-280.5 973.5,-280.5"/>
<text text-anchor="middle" x="1025.5" y="-287.5" font-family="Helvetica,sans-Serif" font-size="10.00">sylar/scheduler.cc</text>
</a>
</g>
</g>
<!-- Node2 -->
<g id="node2" class="node">
<title>Node2</title>
<g id="a_node2"><a xlink:href="scheduler_8h.html" target="_top" xlink:title="协程调度器实现">
<polygon fill="white" stroke="black" points="337.5,-224.5 337.5,-243.5 409.5,-243.5 409.5,-224.5 337.5,-224.5"/>
<text text-anchor="middle" x="373.5" y="-231.5" font-family="Helvetica,sans-Serif" font-size="10.00">scheduler.h</text>
</a>
</g>
</g>
<!-- Node1&#45;&gt;Node2 -->
<g id="edge1" class="edge">
<title>Node1&#45;&gt;Node2</title>
<path fill="none" stroke="midnightblue" d="M973.25,-284.67C849.02,-274.38 537.64,-248.59 419.73,-238.83"/>
<polygon fill="midnightblue" stroke="midnightblue" points="419.85,-235.33 409.59,-237.99 419.27,-242.3 419.85,-235.33"/>
</g>
<!-- Node29 -->
<g id="node29" class="node">
<title>Node29</title>
<g id="a_node29"><a xlink:href="macro_8h.html" target="_top" xlink:title="常用宏的封装">
<polygon fill="white" stroke="black" points="997.5,-168.5 997.5,-187.5 1053.5,-187.5 1053.5,-168.5 997.5,-168.5"/>
<text text-anchor="middle" x="1025.5" y="-175.5" font-family="Helvetica,sans-Serif" font-size="10.00">macro.h</text>
</a>
</g>
</g>
<!-- Node1&#45;&gt;Node29 -->
<g id="edge44" class="edge">
<title>Node1&#45;&gt;Node29</title>
<path fill="none" stroke="midnightblue" d="M1025.5,-280.37C1025.5,-262.62 1025.5,-221.67 1025.5,-197.6"/>
<polygon fill="midnightblue" stroke="midnightblue" points="1029,-197.59 1025.5,-187.59 1022,-197.59 1029,-197.59"/>
</g>
<!-- Node32 -->
<g id="node32" class="node">
<title>Node32</title>
<g id="a_node32"><a xlink:href="hook_8h.html" target="_top" xlink:title="hook函数封装">
<polygon fill="white" stroke="black" points="1310.5,-56.5 1310.5,-75.5 1360.5,-75.5 1360.5,-56.5 1310.5,-56.5"/>
<text text-anchor="middle" x="1335.5" y="-63.5" font-family="Helvetica,sans-Serif" font-size="10.00">hook.h</text>
</a>
</g>
</g>
<!-- Node1&#45;&gt;Node32 -->
<g id="edge49" class="edge">
<title>Node1&#45;&gt;Node32</title>
<path fill="none" stroke="midnightblue" d="M1037.65,-280.3C1084.82,-246.52 1256.09,-123.87 1315.24,-81.51"/>
<polygon fill="midnightblue" stroke="midnightblue" points="1317.34,-84.31 1323.43,-75.64 1313.26,-78.62 1317.34,-84.31"/>
</g>
<!-- Node3 -->
<g id="node3" class="node">
<title>Node3</title>
<g id="a_node3"><a xlink:title=" ">
<polygon fill="white" stroke="#bfbfbf" points="0,-0.5 0,-19.5 65,-19.5 65,-0.5 0,-0.5"/>
<text text-anchor="middle" x="32.5" y="-7.5" font-family="Helvetica,sans-Serif" font-size="10.00">functional</text>
</a>
</g>
</g>
<!-- Node2&#45;&gt;Node3 -->
<g id="edge2" class="edge">
<title>Node2&#45;&gt;Node3</title>
<path fill="none" stroke="midnightblue" d="M337.48,-229.19C301.5,-224.12 245.63,-212.72 203.5,-188 130.77,-145.32 68.55,-63.24 43.86,-27.89"/>
<polygon fill="midnightblue" stroke="midnightblue" points="46.7,-25.85 38.16,-19.59 40.93,-29.81 46.7,-25.85"/>
</g>
<!-- Node4 -->
<g id="node4" class="node">
<title>Node4</title>
<g id="a_node4"><a xlink:title=" ">
<polygon fill="white" stroke="#bfbfbf" points="83.5,-0.5 83.5,-19.5 115.5,-19.5 115.5,-0.5 83.5,-0.5"/>
<text text-anchor="middle" x="99.5" y="-7.5" font-family="Helvetica,sans-Serif" font-size="10.00">list</text>
</a>
</g>
</g>
<!-- Node2&#45;&gt;Node4 -->
<g id="edge3" class="edge">
<title>Node2&#45;&gt;Node4</title>
<path fill="none" stroke="midnightblue" d="M337.22,-228.01C306.5,-222.37 262.5,-210.81 230.5,-188 169.87,-144.78 125.66,-64.87 107.99,-29.11"/>
<polygon fill="midnightblue" stroke="midnightblue" points="111.04,-27.38 103.54,-19.89 104.74,-30.42 111.04,-27.38"/>
</g>
<!-- Node5 -->
<g id="node5" class="node">
<title>Node5</title>
<g id="a_node5"><a xlink:title=" ">
<polygon fill="white" stroke="#bfbfbf" points="553.5,-0.5 553.5,-19.5 611.5,-19.5 611.5,-0.5 553.5,-0.5"/>
<text text-anchor="middle" x="582.5" y="-7.5" font-family="Helvetica,sans-Serif" font-size="10.00">memory</text>
</a>
</g>
</g>
<!-- Node2&#45;&gt;Node5 -->
<g id="edge4" class="edge">
<title>Node2&#45;&gt;Node5</title>
<path fill="none" stroke="midnightblue" d="M373.87,-224.1C375.4,-191.74 382.29,-80.9 405.5,-56 407.9,-53.42 492.21,-32.75 543.59,-20.34"/>
<polygon fill="midnightblue" stroke="midnightblue" points="544.49,-23.72 553.39,-17.98 542.85,-16.92 544.49,-23.72"/>
</g>
<!-- Node6 -->
<g id="node6" class="node">
<title>Node6</title>
<g id="a_node6"><a xlink:title=" ">
<polygon fill="white" stroke="#bfbfbf" points="744.5,-0.5 744.5,-19.5 788.5,-19.5 788.5,-0.5 744.5,-0.5"/>
<text text-anchor="middle" x="766.5" y="-7.5" font-family="Helvetica,sans-Serif" font-size="10.00">string</text>
</a>
</g>
</g>
<!-- Node2&#45;&gt;Node6 -->
<g id="edge5" class="edge">
<title>Node2&#45;&gt;Node6</title>
<path fill="none" stroke="midnightblue" d="M409.55,-233.88C499.58,-233.82 733.54,-219.33 824.5,-76 836.85,-56.53 813.93,-37.2 793.36,-24.75"/>
<polygon fill="midnightblue" stroke="midnightblue" points="794.92,-21.61 784.5,-19.69 791.45,-27.69 794.92,-21.61"/>
</g>
<!-- Node7 -->
<g id="node7" class="node">
<title>Node7</title>
<g id="a_node7"><a xlink:href="fiber_8h.html" target="_top" xlink:title="协程模块">
<polygon fill="white" stroke="black" points="240,-168.5 240,-187.5 287,-187.5 287,-168.5 240,-168.5"/>
<text text-anchor="middle" x="263.5" y="-175.5" font-family="Helvetica,sans-Serif" font-size="10.00">fiber.h</text>
</a>
</g>
</g>
<!-- Node2&#45;&gt;Node7 -->
<g id="edge6" class="edge">
<title>Node2&#45;&gt;Node7</title>
<path fill="none" stroke="midnightblue" d="M355.83,-224.32C338.11,-215.62 310.6,-202.12 290.21,-192.11"/>
<polygon fill="midnightblue" stroke="midnightblue" points="291.65,-188.92 281.13,-187.65 288.56,-195.2 291.65,-188.92"/>
</g>
<!-- Node9 -->
<g id="node9" class="node">
<title>Node9</title>
<g id="a_node9"><a xlink:href="thread_8h.html" target="_top" xlink:title="线程相关的封装">
<polygon fill="white" stroke="black" points="316,-112.5 316,-131.5 373,-131.5 373,-112.5 316,-112.5"/>
<text text-anchor="middle" x="344.5" y="-119.5" font-family="Helvetica,sans-Serif" font-size="10.00">thread.h</text>
</a>
</g>
</g>
<!-- Node2&#45;&gt;Node9 -->
<g id="edge43" class="edge">
<title>Node2&#45;&gt;Node9</title>
<path fill="none" stroke="midnightblue" d="M371.22,-224.37C366.52,-206.54 355.65,-165.3 349.32,-141.27"/>
<polygon fill="midnightblue" stroke="midnightblue" points="352.7,-140.37 346.77,-131.59 345.93,-142.15 352.7,-140.37"/>
</g>
<!-- Node17 -->
<g id="node17" class="node">
<title>Node17</title>
<g id="a_node17"><a xlink:href="log_8h.html" target="_top" xlink:title="日志模块">
<polygon fill="white" stroke="black" points="656,-112.5 656,-131.5 697,-131.5 697,-112.5 656,-112.5"/>
<text text-anchor="middle" x="676.5" y="-119.5" font-family="Helvetica,sans-Serif" font-size="10.00">log.h</text>
</a>
</g>
</g>
<!-- Node2&#45;&gt;Node17 -->
<g id="edge22" class="edge">
<title>Node2&#45;&gt;Node17</title>
<path fill="none" stroke="midnightblue" d="M397.28,-224.37C451.74,-204.6 585.5,-156.04 645.95,-134.09"/>
<polygon fill="midnightblue" stroke="midnightblue" points="647.48,-137.26 655.68,-130.56 645.09,-130.68 647.48,-137.26"/>
</g>
<!-- Node7&#45;&gt;Node3 -->
<g id="edge7" class="edge">
<title>Node7&#45;&gt;Node3</title>
<path fill="none" stroke="midnightblue" d="M247.71,-168.43C232.08,-159.77 207.64,-145.74 187.5,-132 135.88,-96.78 78.82,-50.06 50.5,-26.29"/>
<polygon fill="midnightblue" stroke="midnightblue" points="52.58,-23.46 42.68,-19.69 48.07,-28.81 52.58,-23.46"/>
</g>
<!-- Node7&#45;&gt;Node5 -->
<g id="edge8" class="edge">
<title>Node7&#45;&gt;Node5</title>
<path fill="none" stroke="midnightblue" d="M250.68,-168.48C233.44,-155.96 206.49,-131.92 220.5,-112 241.69,-81.88 341.08,-66.1 376.5,-56 446.92,-35.91 468.27,-36.7 543.51,-20.16"/>
<polygon fill="midnightblue" stroke="midnightblue" points="544.47,-23.54 553.47,-17.94 542.95,-16.7 544.47,-23.54"/>
</g>
<!-- Node8 -->
<g id="node8" class="node">
<title>Node8</title>
<g id="a_node8"><a xlink:title=" ">
<polygon fill="white" stroke="#bfbfbf" points="229.5,-112.5 229.5,-131.5 297.5,-131.5 297.5,-112.5 229.5,-112.5"/>
<text text-anchor="middle" x="263.5" y="-119.5" font-family="Helvetica,sans-Serif" font-size="10.00">ucontext.h</text>
</a>
</g>
</g>
<!-- Node7&#45;&gt;Node8 -->
<g id="edge9" class="edge">
<title>Node7&#45;&gt;Node8</title>
<path fill="none" stroke="midnightblue" d="M263.5,-168.08C263.5,-161.01 263.5,-150.86 263.5,-141.99"/>
<polygon fill="midnightblue" stroke="midnightblue" points="267,-141.75 263.5,-131.75 260,-141.75 267,-141.75"/>
</g>
<!-- Node7&#45;&gt;Node9 -->
<g id="edge10" class="edge">
<title>Node7&#45;&gt;Node9</title>
<path fill="none" stroke="midnightblue" d="M276.51,-168.32C289.03,-159.98 308.18,-147.21 322.97,-137.35"/>
<polygon fill="midnightblue" stroke="midnightblue" points="325.14,-140.11 331.52,-131.65 321.26,-134.29 325.14,-140.11"/>
</g>
<!-- Node9&#45;&gt;Node6 -->
<g id="edge11" class="edge">
<title>Node9&#45;&gt;Node6</title>
<path fill="none" stroke="midnightblue" d="M349.64,-112.47C358.83,-98.06 379.57,-69.19 405.5,-56 434.52,-41.24 651.02,-21.06 734.14,-13.77"/>
<polygon fill="midnightblue" stroke="midnightblue" points="734.62,-17.24 744.27,-12.89 734.01,-10.27 734.62,-17.24"/>
</g>
<!-- Node10 -->
<g id="node10" class="node">
<title>Node10</title>
<g id="a_node10"><a xlink:href="mutex_8h.html" target="_top" xlink:title="信号量，互斥锁，读写锁，范围锁模板，自旋锁，原子锁">
<polygon fill="white" stroke="black" points="225,-56.5 225,-75.5 282,-75.5 282,-56.5 225,-56.5"/>
<text text-anchor="middle" x="253.5" y="-63.5" font-family="Helvetica,sans-Serif" font-size="10.00">mutex.h</text>
</a>
</g>
</g>
<!-- Node9&#45;&gt;Node10 -->
<g id="edge12" class="edge">
<title>Node9&#45;&gt;Node10</title>
<path fill="none" stroke="midnightblue" d="M329.88,-112.32C315.55,-103.82 293.49,-90.73 276.75,-80.8"/>
<polygon fill="midnightblue" stroke="midnightblue" points="278.47,-77.75 268.08,-75.65 274.9,-83.77 278.47,-77.75"/>
</g>
<!-- Node10&#45;&gt;Node3 -->
<g id="edge14" class="edge">
<title>Node10&#45;&gt;Node3</title>
<path fill="none" stroke="midnightblue" d="M224.61,-57.94C186.51,-48.63 119.16,-32.18 75.19,-21.43"/>
<polygon fill="midnightblue" stroke="midnightblue" points="75.9,-18 65.36,-19.03 74.24,-24.8 75.9,-18"/>
</g>
<!-- Node10&#45;&gt;Node4 -->
<g id="edge20" class="edge">
<title>Node10&#45;&gt;Node4</title>
<path fill="none" stroke="midnightblue" d="M228.74,-56.45C204.58,-48.08 166.55,-34.86 125.09,-20.19"/>
<polygon fill="midnightblue" stroke="midnightblue" points="126.22,-16.88 115.63,-16.83 123.89,-23.47 126.22,-16.88"/>
</g>
<!-- Node10&#45;&gt;Node5 -->
<g id="edge15" class="edge">
<title>Node10&#45;&gt;Node5</title>
<path fill="none" stroke="midnightblue" d="M282.13,-58.75C286.92,-57.78 291.84,-56.82 296.5,-56 402.96,-37.15 433.33,-40.62 542.95,-20.16"/>
<polygon fill="midnightblue" stroke="midnightblue" points="543.92,-23.53 553.1,-18.24 542.62,-16.66 543.92,-23.53"/>
</g>
<!-- Node11 -->
<g id="node11" class="node">
<title>Node11</title>
<g id="a_node11"><a xlink:title=" ">
<polygon fill="white" stroke="#bfbfbf" points="487.5,-0.5 487.5,-19.5 535.5,-19.5 535.5,-0.5 487.5,-0.5"/>
<text text-anchor="middle" x="511.5" y="-7.5" font-family="Helvetica,sans-Serif" font-size="10.00">thread</text>
</a>
</g>
</g>
<!-- Node10&#45;&gt;Node11 -->
<g id="edge13" class="edge">
<title>Node10&#45;&gt;Node11</title>
<path fill="none" stroke="midnightblue" d="M282.17,-58.95C286.95,-57.96 291.87,-56.94 296.5,-56 374.14,-40.2 396.5,-38.94 477.25,-20.16"/>
<polygon fill="midnightblue" stroke="midnightblue" points="478.46,-23.48 487.4,-17.78 476.86,-16.66 478.46,-23.48"/>
</g>
<!-- Node12 -->
<g id="node12" class="node">
<title>Node12</title>
<g id="a_node12"><a xlink:title=" ">
<polygon fill="white" stroke="#bfbfbf" points="134,-0.5 134,-19.5 197,-19.5 197,-0.5 134,-0.5"/>
<text text-anchor="middle" x="165.5" y="-7.5" font-family="Helvetica,sans-Serif" font-size="10.00">pthread.h</text>
</a>
</g>
</g>
<!-- Node10&#45;&gt;Node12 -->
<g id="edge16" class="edge">
<title>Node10&#45;&gt;Node12</title>
<path fill="none" stroke="midnightblue" d="M239.36,-56.32C225.63,-47.9 204.56,-34.97 188.44,-25.07"/>
<polygon fill="midnightblue" stroke="midnightblue" points="189.96,-21.9 179.6,-19.65 186.3,-27.87 189.96,-21.9"/>
</g>
<!-- Node13 -->
<g id="node13" class="node">
<title>Node13</title>
<g id="a_node13"><a xlink:title=" ">
<polygon fill="white" stroke="#bfbfbf" points="215.5,-0.5 215.5,-19.5 295.5,-19.5 295.5,-0.5 215.5,-0.5"/>
<text text-anchor="middle" x="255.5" y="-7.5" font-family="Helvetica,sans-Serif" font-size="10.00">semaphore.h</text>
</a>
</g>
</g>
<!-- Node10&#45;&gt;Node13 -->
<g id="edge17" class="edge">
<title>Node10&#45;&gt;Node13</title>
<path fill="none" stroke="midnightblue" d="M253.83,-56.08C254.09,-49.01 254.47,-38.86 254.8,-29.99"/>
<polygon fill="midnightblue" stroke="midnightblue" points="258.3,-29.87 255.18,-19.75 251.31,-29.61 258.3,-29.87"/>
</g>
<!-- Node14 -->
<g id="node14" class="node">
<title>Node14</title>
<g id="a_node14"><a xlink:title=" ">
<polygon fill="white" stroke="#bfbfbf" points="1037,-0.5 1037,-19.5 1090,-19.5 1090,-0.5 1037,-0.5"/>
<text text-anchor="middle" x="1063.5" y="-7.5" font-family="Helvetica,sans-Serif" font-size="10.00">stdint.h</text>
</a>
</g>
</g>
<!-- Node10&#45;&gt;Node14 -->
<g id="edge18" class="edge">
<title>Node10&#45;&gt;Node14</title>
<path fill="none" stroke="midnightblue" d="M282.07,-63.3C312.62,-61.48 362.48,-58.52 405.5,-56 678.56,-40.01 751.98,-61.23 1026.6,-19.81"/>
<polygon fill="midnightblue" stroke="midnightblue" points="1027.52,-23.21 1036.88,-18.25 1026.46,-16.29 1027.52,-23.21"/>
</g>
<!-- Node15 -->
<g id="node15" class="node">
<title>Node15</title>
<g id="a_node15"><a xlink:title=" ">
<polygon fill="white" stroke="#bfbfbf" points="313.5,-0.5 313.5,-19.5 363.5,-19.5 363.5,-0.5 313.5,-0.5"/>
<text text-anchor="middle" x="338.5" y="-7.5" font-family="Helvetica,sans-Serif" font-size="10.00">atomic</text>
</a>
</g>
</g>
<!-- Node10&#45;&gt;Node15 -->
<g id="edge19" class="edge">
<title>Node10&#45;&gt;Node15</title>
<path fill="none" stroke="midnightblue" d="M267.16,-56.32C280.42,-47.9 300.77,-34.97 316.35,-25.07"/>
<polygon fill="midnightblue" stroke="midnightblue" points="318.31,-27.97 324.88,-19.65 314.56,-22.06 318.31,-27.97"/>
</g>
<!-- Node16 -->
<g id="node16" class="node">
<title>Node16</title>
<g id="a_node16"><a xlink:href="noncopyable_8h.html" target="_top" xlink:title="不可拷贝对象封装">
<polygon fill="white" stroke="black" points="381.5,-0.5 381.5,-19.5 469.5,-19.5 469.5,-0.5 381.5,-0.5"/>
<text text-anchor="middle" x="425.5" y="-7.5" font-family="Helvetica,sans-Serif" font-size="10.00">noncopyable.h</text>
</a>
</g>
</g>
<!-- Node10&#45;&gt;Node16 -->
<g id="edge21" class="edge">
<title>Node10&#45;&gt;Node16</title>
<path fill="none" stroke="midnightblue" d="M280.75,-56.44C309.94,-47.28 356.42,-32.69 388.81,-22.52"/>
<polygon fill="midnightblue" stroke="midnightblue" points="389.88,-25.85 398.37,-19.52 387.78,-19.17 389.88,-25.85"/>
</g>
<!-- Node17&#45;&gt;Node4 -->
<g id="edge30" class="edge">
<title>Node17&#45;&gt;Node4</title>
<path fill="none" stroke="midnightblue" d="M655.93,-120.12C577.79,-116.58 299.61,-102.39 215.5,-76 179.1,-64.58 141.37,-40.82 119.18,-25.41"/>
<polygon fill="midnightblue" stroke="midnightblue" points="121.12,-22.5 110.94,-19.57 117.08,-28.21 121.12,-22.5"/>
</g>
<!-- Node17&#45;&gt;Node5 -->
<g id="edge24" class="edge">
<title>Node17&#45;&gt;Node5</title>
<path fill="none" stroke="midnightblue" d="M655.7,-115.88C635.83,-109.84 606.73,-97.75 591.5,-76 582.21,-62.73 580.46,-44.15 580.75,-30.25"/>
<polygon fill="midnightblue" stroke="midnightblue" points="584.26,-30.08 581.34,-19.9 577.27,-29.68 584.26,-30.08"/>
</g>
<!-- Node17&#45;&gt;Node6 -->
<g id="edge23" class="edge">
<title>Node17&#45;&gt;Node6</title>
<path fill="none" stroke="midnightblue" d="M697.28,-120.85C727.57,-119.38 783,-111.64 808.5,-76 820.48,-59.25 803.06,-39.26 787.15,-25.91"/>
<polygon fill="midnightblue" stroke="midnightblue" points="789.15,-23.03 779.13,-19.58 784.81,-28.52 789.15,-23.03"/>
</g>
<!-- Node17&#45;&gt;Node10 -->
<g id="edge40" class="edge">
<title>Node17&#45;&gt;Node10</title>
<path fill="none" stroke="midnightblue" d="M655.81,-118.36C589.19,-109.85 379.49,-83.08 292.21,-71.94"/>
<polygon fill="midnightblue" stroke="midnightblue" points="292.55,-68.46 282.19,-70.66 291.67,-75.4 292.55,-68.46"/>
</g>
<!-- Node18 -->
<g id="node18" class="node">
<title>Node18</title>
<g id="a_node18"><a xlink:title=" ">
<polygon fill="white" stroke="#bfbfbf" points="806.5,-0.5 806.5,-19.5 866.5,-19.5 866.5,-0.5 806.5,-0.5"/>
<text text-anchor="middle" x="836.5" y="-7.5" font-family="Helvetica,sans-Serif" font-size="10.00">iostream</text>
</a>
</g>
</g>
<!-- Node17&#45;&gt;Node18 -->
<g id="edge25" class="edge">
<title>Node17&#45;&gt;Node18</title>
<path fill="none" stroke="midnightblue" d="M697.22,-121.07C729.53,-119.98 791.58,-112.85 824.5,-76 835.6,-63.57 837.97,-44.34 837.94,-30.01"/>
<polygon fill="midnightblue" stroke="midnightblue" points="841.43,-29.65 837.52,-19.8 834.43,-29.93 841.43,-29.65"/>
</g>
<!-- Node19 -->
<g id="node19" class="node">
<title>Node19</title>
<g id="a_node19"><a xlink:title=" ">
<polygon fill="white" stroke="#bfbfbf" points="414.5,-56.5 414.5,-75.5 470.5,-75.5 470.5,-56.5 414.5,-56.5"/>
<text text-anchor="middle" x="442.5" y="-63.5" font-family="Helvetica,sans-Serif" font-size="10.00">sstream</text>
</a>
</g>
</g>
<!-- Node17&#45;&gt;Node19 -->
<g id="edge26" class="edge">
<title>Node17&#45;&gt;Node19</title>
<path fill="none" stroke="midnightblue" d="M655.77,-116.37C621.46,-108.67 550.45,-92.66 480.61,-76.24"/>
<polygon fill="midnightblue" stroke="midnightblue" points="481.31,-72.81 470.77,-73.92 479.7,-79.62 481.31,-72.81"/>
</g>
<!-- Node20 -->
<g id="node20" class="node">
<title>Node20</title>
<g id="a_node20"><a xlink:title=" ">
<polygon fill="white" stroke="#bfbfbf" points="489,-56.5 489,-75.5 544,-75.5 544,-56.5 489,-56.5"/>
<text text-anchor="middle" x="516.5" y="-63.5" font-family="Helvetica,sans-Serif" font-size="10.00">fstream</text>
</a>
</g>
</g>
<!-- Node17&#45;&gt;Node20 -->
<g id="edge27" class="edge">
<title>Node17&#45;&gt;Node20</title>
<path fill="none" stroke="midnightblue" d="M655.91,-114.05C629.56,-105.16 583.51,-89.61 551.58,-78.84"/>
<polygon fill="midnightblue" stroke="midnightblue" points="552.35,-75.4 541.75,-75.52 550.11,-82.04 552.35,-75.4"/>
</g>
<!-- Node21 -->
<g id="node21" class="node">
<title>Node21</title>
<g id="a_node21"><a xlink:title=" ">
<polygon fill="white" stroke="#bfbfbf" points="885,-0.5 885,-19.5 932,-19.5 932,-0.5 885,-0.5"/>
<text text-anchor="middle" x="908.5" y="-7.5" font-family="Helvetica,sans-Serif" font-size="10.00">vector</text>
</a>
</g>
</g>
<!-- Node17&#45;&gt;Node21 -->
<g id="edge28" class="edge">
<title>Node17&#45;&gt;Node21</title>
<path fill="none" stroke="midnightblue" d="M697.08,-118.92C729.97,-114.87 795.54,-103.73 843.5,-76 864.78,-63.69 883.98,-42.67 895.91,-27.87"/>
<polygon fill="midnightblue" stroke="midnightblue" points="898.97,-29.63 902.34,-19.59 893.44,-25.33 898.97,-29.63"/>
</g>
<!-- Node22 -->
<g id="node22" class="node">
<title>Node22</title>
<g id="a_node22"><a xlink:title=" ">
<polygon fill="white" stroke="#bfbfbf" points="690,-56.5 690,-75.5 743,-75.5 743,-56.5 690,-56.5"/>
<text text-anchor="middle" x="716.5" y="-63.5" font-family="Helvetica,sans-Serif" font-size="10.00">cstdarg</text>
</a>
</g>
</g>
<!-- Node17&#45;&gt;Node22 -->
<g id="edge29" class="edge">
<title>Node17&#45;&gt;Node22</title>
<path fill="none" stroke="midnightblue" d="M683.11,-112.08C688.76,-104.46 697.04,-93.26 703.95,-83.94"/>
<polygon fill="midnightblue" stroke="midnightblue" points="706.88,-85.87 710.02,-75.75 701.25,-81.7 706.88,-85.87"/>
</g>
<!-- Node23 -->
<g id="node23" class="node">
<title>Node23</title>
<g id="a_node23"><a xlink:title=" ">
<polygon fill="white" stroke="#bfbfbf" points="761.5,-56.5 761.5,-75.5 799.5,-75.5 799.5,-56.5 761.5,-56.5"/>
<text text-anchor="middle" x="780.5" y="-63.5" font-family="Helvetica,sans-Serif" font-size="10.00">map</text>
</a>
</g>
</g>
<!-- Node17&#45;&gt;Node23 -->
<g id="edge31" class="edge">
<title>Node17&#45;&gt;Node23</title>
<path fill="none" stroke="midnightblue" d="M693.21,-112.32C709.81,-103.7 735.5,-90.36 754.72,-80.39"/>
<polygon fill="midnightblue" stroke="midnightblue" points="756.57,-83.37 763.83,-75.65 753.34,-77.16 756.57,-83.37"/>
</g>
<!-- Node24 -->
<g id="node24" class="node">
<title>Node24</title>
<g id="a_node24"><a xlink:href="util_8h.html" target="_top" xlink:title="util函数">
<polygon fill="white" stroke="black" points="970,-56.5 970,-75.5 1011,-75.5 1011,-56.5 970,-56.5"/>
<text text-anchor="middle" x="990.5" y="-63.5" font-family="Helvetica,sans-Serif" font-size="10.00">util.h</text>
</a>
</g>
</g>
<!-- Node17&#45;&gt;Node24 -->
<g id="edge32" class="edge">
<title>Node17&#45;&gt;Node24</title>
<path fill="none" stroke="midnightblue" d="M697.1,-117.46C750.89,-108.21 895.77,-83.29 959.59,-72.32"/>
<polygon fill="midnightblue" stroke="midnightblue" points="960.56,-75.7 969.82,-70.56 959.37,-68.8 960.56,-75.7"/>
</g>
<!-- Node28 -->
<g id="node28" class="node">
<title>Node28</title>
<g id="a_node28"><a xlink:href="singleton_8h.html" target="_top" xlink:title="单例模式封装">
<polygon fill="white" stroke="black" points="601,-56.5 601,-75.5 672,-75.5 672,-56.5 601,-56.5"/>
<text text-anchor="middle" x="636.5" y="-63.5" font-family="Helvetica,sans-Serif" font-size="10.00">singleton.h</text>
</a>
</g>
</g>
<!-- Node17&#45;&gt;Node28 -->
<g id="edge41" class="edge">
<title>Node17&#45;&gt;Node28</title>
<path fill="none" stroke="midnightblue" d="M669.89,-112.08C664.24,-104.46 655.96,-93.26 649.05,-83.94"/>
<polygon fill="midnightblue" stroke="midnightblue" points="651.75,-81.7 642.98,-75.75 646.12,-85.87 651.75,-81.7"/>
</g>
<!-- Node24&#45;&gt;Node6 -->
<g id="edge37" class="edge">
<title>Node24&#45;&gt;Node6</title>
<path fill="none" stroke="midnightblue" d="M969.8,-59.58C965.1,-58.37 960.13,-57.12 955.5,-56 888.51,-39.76 868.89,-38.16 798.59,-20.17"/>
<polygon fill="midnightblue" stroke="midnightblue" points="799.37,-16.76 788.81,-17.65 797.62,-23.53 799.37,-16.76"/>
</g>
<!-- Node24&#45;&gt;Node14 -->
<g id="edge34" class="edge">
<title>Node24&#45;&gt;Node14</title>
<path fill="none" stroke="midnightblue" d="M1002.23,-56.32C1013.34,-48.11 1030.24,-35.6 1043.48,-25.81"/>
<polygon fill="midnightblue" stroke="midnightblue" points="1045.6,-28.59 1051.56,-19.83 1041.44,-22.97 1045.6,-28.59"/>
</g>
<!-- Node24&#45;&gt;Node18 -->
<g id="edge39" class="edge">
<title>Node24&#45;&gt;Node18</title>
<path fill="none" stroke="midnightblue" d="M969.73,-57.72C944.36,-48.82 901.07,-33.64 870.74,-23.01"/>
<polygon fill="midnightblue" stroke="midnightblue" points="871.59,-19.6 861,-19.59 869.28,-26.2 871.59,-19.6"/>
</g>
<!-- Node24&#45;&gt;Node21 -->
<g id="edge38" class="edge">
<title>Node24&#45;&gt;Node21</title>
<path fill="none" stroke="midnightblue" d="M977.33,-56.32C964.65,-47.98 945.27,-35.21 930.29,-25.35"/>
<polygon fill="midnightblue" stroke="midnightblue" points="931.92,-22.23 921.64,-19.65 928.07,-28.08 931.92,-22.23"/>
</g>
<!-- Node25 -->
<g id="node25" class="node">
<title>Node25</title>
<g id="a_node25"><a xlink:title=" ">
<polygon fill="white" stroke="#bfbfbf" points="1184.5,-0.5 1184.5,-19.5 1256.5,-19.5 1256.5,-0.5 1184.5,-0.5"/>
<text text-anchor="middle" x="1220.5" y="-7.5" font-family="Helvetica,sans-Serif" font-size="10.00">sys/types.h</text>
</a>
</g>
</g>
<!-- Node24&#45;&gt;Node25 -->
<g id="edge33" class="edge">
<title>Node24&#45;&gt;Node25</title>
<path fill="none" stroke="midnightblue" d="M1011.32,-60.11C1047.94,-51.51 1124.71,-33.49 1174.36,-21.83"/>
<polygon fill="midnightblue" stroke="midnightblue" points="1175.28,-25.21 1184.22,-19.52 1173.68,-18.4 1175.28,-25.21"/>
</g>
<!-- Node26 -->
<g id="node26" class="node">
<title>Node26</title>
<g id="a_node26"><a xlink:title=" ">
<polygon fill="white" stroke="#bfbfbf" points="950.5,-0.5 950.5,-19.5 1018.5,-19.5 1018.5,-0.5 950.5,-0.5"/>
<text text-anchor="middle" x="984.5" y="-7.5" font-family="Helvetica,sans-Serif" font-size="10.00">sys/time.h</text>
</a>
</g>
</g>
<!-- Node24&#45;&gt;Node26 -->
<g id="edge35" class="edge">
<title>Node24&#45;&gt;Node26</title>
<path fill="none" stroke="midnightblue" d="M989.51,-56.08C988.71,-48.93 987.57,-38.64 986.58,-29.69"/>
<polygon fill="midnightblue" stroke="midnightblue" points="990.06,-29.3 985.47,-19.75 983.1,-30.08 990.06,-29.3"/>
</g>
<!-- Node27 -->
<g id="node27" class="node">
<title>Node27</title>
<g id="a_node27"><a xlink:title=" ">
<polygon fill="white" stroke="#bfbfbf" points="1108.5,-0.5 1108.5,-19.5 1166.5,-19.5 1166.5,-0.5 1108.5,-0.5"/>
<text text-anchor="middle" x="1137.5" y="-7.5" font-family="Helvetica,sans-Serif" font-size="10.00">cxxabi.h</text>
</a>
</g>
</g>
<!-- Node24&#45;&gt;Node27 -->
<g id="edge36" class="edge">
<title>Node24&#45;&gt;Node27</title>
<path fill="none" stroke="midnightblue" d="M1011.25,-57.38C1035.46,-48.48 1075.81,-33.66 1104.37,-23.17"/>
<polygon fill="midnightblue" stroke="midnightblue" points="1105.76,-26.39 1113.94,-19.65 1103.35,-19.82 1105.76,-26.39"/>
</g>
<!-- Node28&#45;&gt;Node5 -->
<g id="edge42" class="edge">
<title>Node28&#45;&gt;Node5</title>
<path fill="none" stroke="midnightblue" d="M627.58,-56.08C619.72,-48.22 608.07,-36.57 598.58,-27.08"/>
<polygon fill="midnightblue" stroke="midnightblue" points="600.8,-24.35 591.25,-19.75 595.85,-29.3 600.8,-24.35"/>
</g>
<!-- Node29&#45;&gt;Node17 -->
<g id="edge47" class="edge">
<title>Node29&#45;&gt;Node17</title>
<path fill="none" stroke="midnightblue" d="M997.24,-172.63C932.54,-162.62 774.13,-138.11 707.18,-127.75"/>
<polygon fill="midnightblue" stroke="midnightblue" points="707.66,-124.28 697.24,-126.21 706.59,-131.2 707.66,-124.28"/>
</g>
<!-- Node29&#45;&gt;Node24 -->
<g id="edge48" class="edge">
<title>Node29&#45;&gt;Node24</title>
<path fill="none" stroke="midnightblue" d="M1029.46,-168.24C1034.65,-155.41 1042.24,-130.99 1034.5,-112 1029.7,-100.23 1020.17,-89.86 1011.21,-82.05"/>
<polygon fill="midnightblue" stroke="midnightblue" points="1013.25,-79.2 1003.28,-75.63 1008.85,-84.64 1013.25,-79.2"/>
</g>
<!-- Node30 -->
<g id="node30" class="node">
<title>Node30</title>
<g id="a_node30"><a xlink:title=" ">
<polygon fill="white" stroke="#bfbfbf" points="1082,-112.5 1082,-131.5 1135,-131.5 1135,-112.5 1082,-112.5"/>
<text text-anchor="middle" x="1108.5" y="-119.5" font-family="Helvetica,sans-Serif" font-size="10.00">string.h</text>
</a>
</g>
</g>
<!-- Node29&#45;&gt;Node30 -->
<g id="edge45" class="edge">
<title>Node29&#45;&gt;Node30</title>
<path fill="none" stroke="midnightblue" d="M1038.84,-168.32C1051.66,-159.98 1071.28,-147.21 1086.44,-137.35"/>
<polygon fill="midnightblue" stroke="midnightblue" points="1088.72,-140.04 1095.2,-131.65 1084.91,-134.17 1088.72,-140.04"/>
</g>
<!-- Node31 -->
<g id="node31" class="node">
<title>Node31</title>
<g id="a_node31"><a xlink:title=" ">
<polygon fill="white" stroke="#bfbfbf" points="969.5,-112.5 969.5,-131.5 1025.5,-131.5 1025.5,-112.5 969.5,-112.5"/>
<text text-anchor="middle" x="997.5" y="-119.5" font-family="Helvetica,sans-Serif" font-size="10.00">assert.h</text>
</a>
</g>
</g>
<!-- Node29&#45;&gt;Node31 -->
<g id="edge46" class="edge">
<title>Node29&#45;&gt;Node31</title>
<path fill="none" stroke="midnightblue" d="M1020.88,-168.08C1017.04,-160.69 1011.48,-149.95 1006.74,-140.81"/>
<polygon fill="midnightblue" stroke="midnightblue" points="1009.75,-139.02 1002.04,-131.75 1003.53,-142.24 1009.75,-139.02"/>
</g>
<!-- Node32&#45;&gt;Node14 -->
<g id="edge54" class="edge">
<title>Node32&#45;&gt;Node14</title>
<path fill="none" stroke="midnightblue" d="M1310.26,-60.67C1268.62,-53.43 1182.75,-38.05 1100.01,-20.01"/>
<polygon fill="midnightblue" stroke="midnightblue" points="1100.71,-16.58 1090.2,-17.85 1099.21,-23.42 1100.71,-16.58"/>
</g>
<!-- Node32&#45;&gt;Node25 -->
<g id="edge52" class="edge">
<title>Node32&#45;&gt;Node25</title>
<path fill="none" stroke="midnightblue" d="M1317.28,-56.44C1298.6,-47.68 1269.34,-33.94 1247.88,-23.86"/>
<polygon fill="midnightblue" stroke="midnightblue" points="1249.18,-20.6 1238.64,-19.52 1246.2,-26.93 1249.18,-20.6"/>
</g>
<!-- Node33 -->
<g id="node33" class="node">
<title>Node33</title>
<g id="a_node33"><a xlink:title=" ">
<polygon fill="white" stroke="#bfbfbf" points="1275,-0.5 1275,-19.5 1322,-19.5 1322,-0.5 1275,-0.5"/>
<text text-anchor="middle" x="1298.5" y="-7.5" font-family="Helvetica,sans-Serif" font-size="10.00">fcntl.h</text>
</a>
</g>
</g>
<!-- Node32&#45;&gt;Node33 -->
<g id="edge50" class="edge">
<title>Node32&#45;&gt;Node33</title>
<path fill="none" stroke="midnightblue" d="M1329.39,-56.08C1324.22,-48.53 1316.65,-37.49 1310.31,-28.23"/>
<polygon fill="midnightblue" stroke="midnightblue" points="1313.04,-26.02 1304.5,-19.75 1307.26,-29.98 1313.04,-26.02"/>
</g>
<!-- Node34 -->
<g id="node34" class="node">
<title>Node34</title>
<g id="a_node34"><a xlink:title=" ">
<polygon fill="white" stroke="#bfbfbf" points="1340.5,-0.5 1340.5,-19.5 1406.5,-19.5 1406.5,-0.5 1340.5,-0.5"/>
<text text-anchor="middle" x="1373.5" y="-7.5" font-family="Helvetica,sans-Serif" font-size="10.00">sys/ioctl.h</text>
</a>
</g>
</g>
<!-- Node32&#45;&gt;Node34 -->
<g id="edge51" class="edge">
<title>Node32&#45;&gt;Node34</title>
<path fill="none" stroke="midnightblue" d="M1341.77,-56.08C1347.14,-48.46 1355.02,-37.26 1361.58,-27.94"/>
<polygon fill="midnightblue" stroke="midnightblue" points="1364.45,-29.94 1367.34,-19.75 1358.72,-25.91 1364.45,-29.94"/>
</g>
<!-- Node35 -->
<g id="node35" class="node">
<title>Node35</title>
<g id="a_node35"><a xlink:title=" ">
<polygon fill="white" stroke="#bfbfbf" points="1425,-0.5 1425,-19.5 1502,-19.5 1502,-0.5 1425,-0.5"/>
<text text-anchor="middle" x="1463.5" y="-7.5" font-family="Helvetica,sans-Serif" font-size="10.00">sys/socket.h</text>
</a>
</g>
</g>
<!-- Node32&#45;&gt;Node35 -->
<g id="edge53" class="edge">
<title>Node32&#45;&gt;Node35</title>
<path fill="none" stroke="midnightblue" d="M1355.78,-56.44C1376.85,-47.56 1410.02,-33.56 1433.99,-23.45"/>
<polygon fill="midnightblue" stroke="midnightblue" points="1435.46,-26.63 1443.31,-19.52 1432.74,-20.18 1435.46,-26.63"/>
</g>
<!-- Node36 -->
<g id="node36" class="node">
<title>Node36</title>
<g id="a_node36"><a xlink:title=" ">
<polygon fill="white" stroke="#bfbfbf" points="1520.5,-0.5 1520.5,-19.5 1568.5,-19.5 1568.5,-0.5 1520.5,-0.5"/>
<text text-anchor="middle" x="1544.5" y="-7.5" font-family="Helvetica,sans-Serif" font-size="10.00">time.h</text>
</a>
</g>
</g>
<!-- Node32&#45;&gt;Node36 -->
<g id="edge55" class="edge">
<title>Node32&#45;&gt;Node36</title>
<path fill="none" stroke="midnightblue" d="M1360.6,-58.72C1392.97,-50.58 1451.26,-35.84 1510.47,-20.24"/>
<polygon fill="midnightblue" stroke="midnightblue" points="1511.59,-23.57 1520.36,-17.63 1509.8,-16.8 1511.59,-23.57"/>
</g>
<!-- Node37 -->
<g id="node37" class="node">
<title>Node37</title>
<g id="a_node37"><a xlink:title=" ">
<polygon fill="white" stroke="#bfbfbf" points="1586.5,-0.5 1586.5,-19.5 1642.5,-19.5 1642.5,-0.5 1586.5,-0.5"/>
<text text-anchor="middle" x="1614.5" y="-7.5" font-family="Helvetica,sans-Serif" font-size="10.00">unistd.h</text>
</a>
</g>
</g>
<!-- Node32&#45;&gt;Node37 -->
<g id="edge56" class="edge">
<title>Node32&#45;&gt;Node37</title>
<path fill="none" stroke="midnightblue" d="M1360.67,-60.79C1403.08,-53.59 1491.65,-38.13 1576.23,-20.18"/>
<polygon fill="midnightblue" stroke="midnightblue" points="1577.21,-23.55 1586.25,-18.04 1575.74,-16.71 1577.21,-23.55"/>
</g>
</g>
</svg>
