<?xml version="1.0" encoding="UTF-8" standalone="no"?>
<!DOCTYPE svg PUBLIC "-//W3C//DTD SVG 1.1//EN"
 "http://www.w3.org/Graphics/SVG/1.1/DTD/svg11.dtd">
<!-- Generated by graphviz version 2.43.0 (0)
 -->
<!-- Title: sylar/scheduler.h Pages: 1 -->
<svg width="2399pt" height="442pt"
 viewBox="0.00 0.00 2398.50 442.00" xmlns="http://www.w3.org/2000/svg" xmlns:xlink="http://www.w3.org/1999/xlink">
<g id="graph0" class="graph" transform="scale(1 1) rotate(0) translate(4 438)">
<title>sylar/scheduler.h</title>
<polygon fill="white" stroke="transparent" points="-4,4 -4,-438 2394.5,-438 2394.5,4 -4,4"/>
<!-- Node1 -->
<g id="node1" class="node">
<title>Node1</title>
<g id="a_node1"><a xlink:title="协程调度器实现">
<polygon fill="#bfbfbf" stroke="black" points="1387,-414.5 1387,-433.5 1486,-433.5 1486,-414.5 1387,-414.5"/>
<text text-anchor="middle" x="1436.5" y="-421.5" font-family="Helvetica,sans-Serif" font-size="10.00">sylar/scheduler.h</text>
</a>
</g>
</g>
<!-- Node2 -->
<g id="node2" class="node">
<title>Node2</title>
<g id="a_node2"><a xlink:href="iomanager_8h.html" target="_top" xlink:title="IO协程调度器">
<polygon fill="white" stroke="black" points="1218.5,-358.5 1218.5,-377.5 1322.5,-377.5 1322.5,-358.5 1218.5,-358.5"/>
<text text-anchor="middle" x="1270.5" y="-365.5" font-family="Helvetica,sans-Serif" font-size="10.00">sylar/iomanager.h</text>
</a>
</g>
</g>
<!-- Node1&#45;&gt;Node2 -->
<g id="edge1" class="edge">
<title>Node1&#45;&gt;Node2</title>
<path fill="none" stroke="midnightblue" d="M1400.55,-411.3C1369.27,-401.13 1324.68,-386.62 1296.68,-377.52"/>
<polygon fill="midnightblue" stroke="midnightblue" points="1399.6,-414.68 1410.2,-414.44 1401.77,-408.02 1399.6,-414.68"/>
</g>
<!-- Node7 -->
<g id="node7" class="node">
<title>Node7</title>
<g id="a_node7"><a xlink:href="sylar_8h_source.html" target="_top" xlink:title=" ">
<polygon fill="white" stroke="black" points="1123.5,-67.5 1123.5,-86.5 1199.5,-86.5 1199.5,-67.5 1123.5,-67.5"/>
<text text-anchor="middle" x="1161.5" y="-74.5" font-family="Helvetica,sans-Serif" font-size="10.00">sylar/sylar.h</text>
</a>
</g>
</g>
<!-- Node1&#45;&gt;Node7 -->
<g id="edge34" class="edge">
<title>Node1&#45;&gt;Node7</title>
<path fill="none" stroke="midnightblue" d="M1436.5,-404.29C1436.5,-381.45 1436.5,-341.64 1436.5,-307.5 1436.5,-307.5 1436.5,-307.5 1436.5,-188 1436.5,-137.61 1275.3,-99.9 1199.74,-84.99"/>
<polygon fill="midnightblue" stroke="midnightblue" points="1433,-404.31 1436.5,-414.31 1440,-404.31 1433,-404.31"/>
</g>
<!-- Node28 -->
<g id="node28" class="node">
<title>Node28</title>
<g id="a_node28"><a xlink:href="scheduler_8cc.html" target="_top" xlink:title="协程调度器实现">
<polygon fill="white" stroke="black" points="1464.5,-358.5 1464.5,-377.5 1568.5,-377.5 1568.5,-358.5 1464.5,-358.5"/>
<text text-anchor="middle" x="1516.5" y="-365.5" font-family="Helvetica,sans-Serif" font-size="10.00">sylar/scheduler.cc</text>
</a>
</g>
</g>
<!-- Node1&#45;&gt;Node28 -->
<g id="edge33" class="edge">
<title>Node1&#45;&gt;Node28</title>
<path fill="none" stroke="midnightblue" d="M1457.8,-408.62C1472.42,-398.76 1491.33,-385.99 1503.68,-377.65"/>
<polygon fill="midnightblue" stroke="midnightblue" points="1455.68,-405.83 1449.35,-414.32 1459.6,-411.63 1455.68,-405.83"/>
</g>
<!-- Node3 -->
<g id="node3" class="node">
<title>Node3</title>
<g id="a_node3"><a xlink:href="iomanager_8cc.html" target="_top" xlink:title="IO协程调度器实现">
<polygon fill="white" stroke="black" points="1299,-297 1299,-316 1408,-316 1408,-297 1299,-297"/>
<text text-anchor="middle" x="1353.5" y="-304" font-family="Helvetica,sans-Serif" font-size="10.00">sylar/iomanager.cc</text>
</a>
</g>
</g>
<!-- Node2&#45;&gt;Node3 -->
<g id="edge2" class="edge">
<title>Node2&#45;&gt;Node3</title>
<path fill="none" stroke="midnightblue" d="M1290.57,-352.61C1306.53,-341.17 1328.33,-325.55 1341.63,-316.01"/>
<polygon fill="midnightblue" stroke="midnightblue" points="1288.48,-349.8 1282.39,-358.48 1292.56,-355.49 1288.48,-349.8"/>
</g>
<!-- Node4 -->
<g id="node4" class="node">
<title>Node4</title>
<g id="a_node4"><a xlink:href="socket__stream_8h.html" target="_top" xlink:title="Socket流式接口封装">
<polygon fill="white" stroke="black" points="1060.5,-291.5 1060.5,-321.5 1178.5,-321.5 1178.5,-291.5 1060.5,-291.5"/>
<text text-anchor="start" x="1068.5" y="-309.5" font-family="Helvetica,sans-Serif" font-size="10.00">sylar/streams/socket</text>
<text text-anchor="middle" x="1119.5" y="-298.5" font-family="Helvetica,sans-Serif" font-size="10.00">_stream.h</text>
</a>
</g>
</g>
<!-- Node2&#45;&gt;Node4 -->
<g id="edge3" class="edge">
<title>Node2&#45;&gt;Node4</title>
<path fill="none" stroke="midnightblue" d="M1239.33,-354.72C1214.83,-345.06 1180.67,-331.6 1155.09,-321.52"/>
<polygon fill="midnightblue" stroke="midnightblue" points="1238.28,-358.07 1248.87,-358.48 1240.84,-351.55 1238.28,-358.07"/>
</g>
<!-- Node2&#45;&gt;Node7 -->
<g id="edge29" class="edge">
<title>Node2&#45;&gt;Node7</title>
<path fill="none" stroke="midnightblue" d="M1270.5,-348.44C1270.5,-324.69 1270.5,-282.29 1270.5,-246 1270.5,-246 1270.5,-246 1270.5,-188 1270.5,-137.59 1212.03,-102.01 1180.74,-86.58"/>
<polygon fill="midnightblue" stroke="midnightblue" points="1267,-348.49 1270.5,-358.49 1274,-348.49 1267,-348.49"/>
</g>
<!-- Node27 -->
<g id="node27" class="node">
<title>Node27</title>
<g id="a_node27"><a xlink:href="tcp__server_8h.html" target="_top" xlink:title="TCP服务器的封装">
<polygon fill="white" stroke="black" points="1139,-179.5 1139,-198.5 1242,-198.5 1242,-179.5 1139,-179.5"/>
<text text-anchor="middle" x="1190.5" y="-186.5" font-family="Helvetica,sans-Serif" font-size="10.00">sylar/tcp_server.h</text>
</a>
</g>
</g>
<!-- Node2&#45;&gt;Node27 -->
<g id="edge30" class="edge">
<title>Node2&#45;&gt;Node27</title>
<path fill="none" stroke="midnightblue" d="M1262.51,-349.32C1245.67,-312.05 1207.04,-226.6 1194.51,-198.87"/>
<polygon fill="midnightblue" stroke="midnightblue" points="1259.33,-350.79 1266.64,-358.46 1265.71,-347.91 1259.33,-350.79"/>
</g>
<!-- Node5 -->
<g id="node5" class="node">
<title>Node5</title>
<g id="a_node5"><a xlink:href="http__session_8h.html" target="_top" xlink:title="HTTPSession封装">
<polygon fill="white" stroke="black" points="1013,-235.5 1013,-254.5 1150,-254.5 1150,-235.5 1013,-235.5"/>
<text text-anchor="middle" x="1081.5" y="-242.5" font-family="Helvetica,sans-Serif" font-size="10.00">sylar/http/http_session.h</text>
</a>
</g>
</g>
<!-- Node4&#45;&gt;Node5 -->
<g id="edge4" class="edge">
<title>Node4&#45;&gt;Node5</title>
<path fill="none" stroke="midnightblue" d="M1105,-282.8C1098.72,-272.96 1091.74,-262.03 1087.03,-254.66"/>
<polygon fill="midnightblue" stroke="midnightblue" points="1102.16,-284.86 1110.49,-291.4 1108.06,-281.09 1102.16,-284.86"/>
</g>
<!-- Node6 -->
<g id="node6" class="node">
<title>Node6</title>
<g id="a_node6"><a xlink:href="http__server_8h.html" target="_top" xlink:title="HTTP服务器封装">
<polygon fill="white" stroke="black" points="1050.5,-123.5 1050.5,-142.5 1180.5,-142.5 1180.5,-123.5 1050.5,-123.5"/>
<text text-anchor="middle" x="1115.5" y="-130.5" font-family="Helvetica,sans-Serif" font-size="10.00">sylar/http/http_server.h</text>
</a>
</g>
</g>
<!-- Node5&#45;&gt;Node6 -->
<g id="edge5" class="edge">
<title>Node5&#45;&gt;Node6</title>
<path fill="none" stroke="midnightblue" d="M1087.16,-225.67C1094.6,-201.62 1107.34,-160.39 1112.84,-142.59"/>
<polygon fill="midnightblue" stroke="midnightblue" points="1083.78,-224.78 1084.17,-235.37 1090.46,-226.85 1083.78,-224.78"/>
</g>
<!-- Node5&#45;&gt;Node7 -->
<g id="edge28" class="edge">
<title>Node5&#45;&gt;Node7</title>
<path fill="none" stroke="midnightblue" d="M1016.61,-232.9C982.72,-223.62 950.7,-207.21 963.5,-179 991.48,-117.33 1074.15,-92.75 1123.38,-83.39"/>
<polygon fill="midnightblue" stroke="midnightblue" points="1016.11,-236.38 1026.66,-235.44 1017.83,-229.6 1016.11,-236.38"/>
</g>
<!-- Node26 -->
<g id="node26" class="node">
<title>Node26</title>
<g id="a_node26"><a xlink:href="servlet_8h.html" target="_top" xlink:title="Servlet封装">
<polygon fill="white" stroke="black" points="973,-179.5 973,-198.5 1082,-198.5 1082,-179.5 973,-179.5"/>
<text text-anchor="middle" x="1027.5" y="-186.5" font-family="Helvetica,sans-Serif" font-size="10.00">sylar/http/servlet.h</text>
</a>
</g>
</g>
<!-- Node5&#45;&gt;Node26 -->
<g id="edge25" class="edge">
<title>Node5&#45;&gt;Node26</title>
<path fill="none" stroke="midnightblue" d="M1065.5,-228C1055.93,-218.43 1044.14,-206.64 1036.25,-198.75"/>
<polygon fill="midnightblue" stroke="midnightblue" points="1063.04,-230.49 1072.58,-235.08 1067.99,-225.54 1063.04,-230.49"/>
</g>
<!-- Node6&#45;&gt;Node7 -->
<g id="edge6" class="edge">
<title>Node6&#45;&gt;Node7</title>
<path fill="none" stroke="midnightblue" d="M1129.61,-115.43C1137.68,-105.97 1147.46,-94.48 1154.05,-86.75"/>
<polygon fill="midnightblue" stroke="midnightblue" points="1126.92,-113.2 1123.1,-123.08 1132.25,-117.74 1126.92,-113.2"/>
</g>
<!-- Node8 -->
<g id="node8" class="node">
<title>Node8</title>
<g id="a_node8"><a xlink:href="test__address_8cc.html" target="_top" xlink:title="网络地址类测试">
<polygon fill="white" stroke="black" points="0,-6 0,-25 119,-25 119,-6 0,-6"/>
<text text-anchor="middle" x="59.5" y="-13" font-family="Helvetica,sans-Serif" font-size="10.00">tests/test_address.cc</text>
</a>
</g>
</g>
<!-- Node7&#45;&gt;Node8 -->
<g id="edge7" class="edge">
<title>Node7&#45;&gt;Node8</title>
<path fill="none" stroke="midnightblue" d="M1113.43,-74.97C936.55,-71.02 322.03,-55.8 127.5,-31 116.6,-29.61 104.86,-27.38 94.25,-25.07"/>
<polygon fill="midnightblue" stroke="midnightblue" points="1113.4,-78.47 1123.48,-75.19 1113.56,-71.47 1113.4,-78.47"/>
</g>
<!-- Node9 -->
<g id="node9" class="node">
<title>Node9</title>
<g id="a_node9"><a xlink:href="test__bytearray_8cc.html" target="_top" xlink:title="Bytearray类测试">
<polygon fill="white" stroke="black" points="137,-6 137,-25 264,-25 264,-6 137,-6"/>
<text text-anchor="middle" x="200.5" y="-13" font-family="Helvetica,sans-Serif" font-size="10.00">tests/test_bytearray.cc</text>
</a>
</g>
</g>
<!-- Node7&#45;&gt;Node9 -->
<g id="edge8" class="edge">
<title>Node7&#45;&gt;Node9</title>
<path fill="none" stroke="midnightblue" d="M1112.91,-76.01C978.73,-75.52 591.94,-70.48 273.5,-31 261.83,-29.55 249.23,-27.3 237.84,-25"/>
<polygon fill="midnightblue" stroke="midnightblue" points="1113.24,-79.51 1123.25,-76.04 1113.26,-72.51 1113.24,-79.51"/>
</g>
<!-- Node10 -->
<g id="node10" class="node">
<title>Node10</title>
<g id="a_node10"><a xlink:href="test__config_8cc.html" target="_top" xlink:title="配置模块测试">
<polygon fill="white" stroke="black" points="282.5,-6 282.5,-25 392.5,-25 392.5,-6 282.5,-6"/>
<text text-anchor="middle" x="337.5" y="-13" font-family="Helvetica,sans-Serif" font-size="10.00">tests/test_config.cc</text>
</a>
</g>
</g>
<!-- Node7&#45;&gt;Node10 -->
<g id="edge9" class="edge">
<title>Node7&#45;&gt;Node10</title>
<path fill="none" stroke="midnightblue" d="M1113.3,-75.87C992.73,-74.97 668.53,-68.9 401.5,-31 391.35,-29.56 380.42,-27.34 370.53,-25.07"/>
<polygon fill="midnightblue" stroke="midnightblue" points="1113.3,-79.37 1123.32,-75.94 1113.35,-72.37 1113.3,-79.37"/>
</g>
<!-- Node11 -->
<g id="node11" class="node">
<title>Node11</title>
<g id="a_node11"><a xlink:href="test__env_8cc.html" target="_top" xlink:title="环境变量测试">
<polygon fill="white" stroke="black" points="410.5,-6 410.5,-25 508.5,-25 508.5,-6 410.5,-6"/>
<text text-anchor="middle" x="459.5" y="-13" font-family="Helvetica,sans-Serif" font-size="10.00">tests/test_env.cc</text>
</a>
</g>
</g>
<!-- Node7&#45;&gt;Node11 -->
<g id="edge10" class="edge">
<title>Node7&#45;&gt;Node11</title>
<path fill="none" stroke="midnightblue" d="M1113.29,-75.51C1005.71,-73.79 738.18,-66.02 517.5,-31 508.27,-29.54 498.37,-27.31 489.4,-25.04"/>
<polygon fill="midnightblue" stroke="midnightblue" points="1113.44,-79.01 1123.49,-75.66 1113.55,-72.01 1113.44,-79.01"/>
</g>
<!-- Node12 -->
<g id="node12" class="node">
<title>Node12</title>
<g id="a_node12"><a xlink:href="test__fiber_8cc.html" target="_top" xlink:title="协程测试">
<polygon fill="white" stroke="black" points="526.5,-6 526.5,-25 628.5,-25 628.5,-6 526.5,-6"/>
<text text-anchor="middle" x="577.5" y="-13" font-family="Helvetica,sans-Serif" font-size="10.00">tests/test_fiber.cc</text>
</a>
</g>
</g>
<!-- Node7&#45;&gt;Node12 -->
<g id="edge11" class="edge">
<title>Node7&#45;&gt;Node12</title>
<path fill="none" stroke="midnightblue" d="M1113.26,-74.3C1020.54,-70.49 811.27,-59.29 637.5,-31 628.09,-29.47 617.97,-27.25 608.77,-25"/>
<polygon fill="midnightblue" stroke="midnightblue" points="1113.32,-77.8 1123.45,-74.71 1113.6,-70.81 1113.32,-77.8"/>
</g>
<!-- Node13 -->
<g id="node13" class="node">
<title>Node13</title>
<g id="a_node13"><a xlink:href="test__fiber2_8cc.html" target="_top" xlink:title="协程测试，用于演示非对称协程">
<polygon fill="white" stroke="black" points="647,-6 647,-25 756,-25 756,-6 647,-6"/>
<text text-anchor="middle" x="701.5" y="-13" font-family="Helvetica,sans-Serif" font-size="10.00">tests/test_fiber2.cc</text>
</a>
</g>
</g>
<!-- Node7&#45;&gt;Node13 -->
<g id="edge12" class="edge">
<title>Node7&#45;&gt;Node13</title>
<path fill="none" stroke="midnightblue" d="M1113.17,-72.3C1038.17,-66.16 889.38,-52.38 764.5,-31 754.99,-29.37 744.75,-27.2 735.36,-25.04"/>
<polygon fill="midnightblue" stroke="midnightblue" points="1113,-75.8 1123.25,-73.12 1113.57,-68.82 1113,-75.8"/>
</g>
<!-- Node14 -->
<g id="node14" class="node">
<title>Node14</title>
<g id="a_node14"><a xlink:href="test__hook_8cc.html" target="_top" xlink:title="hook模块测试">
<polygon fill="white" stroke="black" points="774,-6 774,-25 879,-25 879,-6 774,-6"/>
<text text-anchor="middle" x="826.5" y="-13" font-family="Helvetica,sans-Serif" font-size="10.00">tests/test_hook.cc</text>
</a>
</g>
</g>
<!-- Node7&#45;&gt;Node14 -->
<g id="edge13" class="edge">
<title>Node7&#45;&gt;Node14</title>
<path fill="none" stroke="midnightblue" d="M1113.09,-69.11C1058.19,-61.04 966.09,-46.77 887.5,-31 878.75,-29.24 869.34,-27.12 860.6,-25.06"/>
<polygon fill="midnightblue" stroke="midnightblue" points="1112.82,-72.6 1123.23,-70.59 1113.84,-65.68 1112.82,-72.6"/>
</g>
<!-- Node15 -->
<g id="node15" class="node">
<title>Node15</title>
<g id="a_node15"><a xlink:href="test__http_8cc.html" target="_top" xlink:title="HTTP请求类与响应类测试">
<polygon fill="white" stroke="black" points="897,-6 897,-25 998,-25 998,-6 897,-6"/>
<text text-anchor="middle" x="947.5" y="-13" font-family="Helvetica,sans-Serif" font-size="10.00">tests/test_http.cc</text>
</a>
</g>
</g>
<!-- Node7&#45;&gt;Node15 -->
<g id="edge14" class="edge">
<title>Node7&#45;&gt;Node15</title>
<path fill="none" stroke="midnightblue" d="M1121.04,-64.75C1079.46,-53.19 1015.66,-35.45 978.1,-25.01"/>
<polygon fill="midnightblue" stroke="midnightblue" points="1120.27,-68.17 1130.84,-67.48 1122.14,-61.42 1120.27,-68.17"/>
</g>
<!-- Node16 -->
<g id="node16" class="node">
<title>Node16</title>
<g id="a_node16"><a xlink:href="test__http__parser_8cc.html" target="_top" xlink:title="测试HTTP协议解析">
<polygon fill="white" stroke="black" points="1016.5,-6 1016.5,-25 1152.5,-25 1152.5,-6 1016.5,-6"/>
<text text-anchor="middle" x="1084.5" y="-13" font-family="Helvetica,sans-Serif" font-size="10.00">tests/test_http_parser.cc</text>
</a>
</g>
</g>
<!-- Node7&#45;&gt;Node16 -->
<g id="edge15" class="edge">
<title>Node7&#45;&gt;Node16</title>
<path fill="none" stroke="midnightblue" d="M1142.47,-61.29C1127.7,-49.88 1107.74,-34.46 1095.51,-25.01"/>
<polygon fill="midnightblue" stroke="midnightblue" points="1140.41,-64.13 1150.47,-67.48 1144.69,-58.59 1140.41,-64.13"/>
</g>
<!-- Node17 -->
<g id="node17" class="node">
<title>Node17</title>
<g id="a_node17"><a xlink:href="test__http__server_8cc.html" target="_top" xlink:title="HttpServer测试">
<polygon fill="white" stroke="black" points="1170.5,-6 1170.5,-25 1306.5,-25 1306.5,-6 1170.5,-6"/>
<text text-anchor="middle" x="1238.5" y="-13" font-family="Helvetica,sans-Serif" font-size="10.00">tests/test_http_server.cc</text>
</a>
</g>
</g>
<!-- Node7&#45;&gt;Node17 -->
<g id="edge16" class="edge">
<title>Node7&#45;&gt;Node17</title>
<path fill="none" stroke="midnightblue" d="M1180.53,-61.29C1195.3,-49.88 1215.26,-34.46 1227.49,-25.01"/>
<polygon fill="midnightblue" stroke="midnightblue" points="1178.31,-58.59 1172.53,-67.48 1182.59,-64.13 1178.31,-58.59"/>
</g>
<!-- Node18 -->
<g id="node18" class="node">
<title>Node18</title>
<g id="a_node18"><a xlink:href="test__iomanager_8cc.html" target="_top" xlink:title="IO协程调度器测试">
<polygon fill="white" stroke="black" points="1325,-6 1325,-25 1458,-25 1458,-6 1325,-6"/>
<text text-anchor="middle" x="1391.5" y="-13" font-family="Helvetica,sans-Serif" font-size="10.00">tests/test_iomanager.cc</text>
</a>
</g>
</g>
<!-- Node7&#45;&gt;Node18 -->
<g id="edge17" class="edge">
<title>Node7&#45;&gt;Node18</title>
<path fill="none" stroke="midnightblue" d="M1204.14,-64.97C1248.8,-53.41 1317.99,-35.52 1358.61,-25.01"/>
<polygon fill="midnightblue" stroke="midnightblue" points="1203.26,-61.58 1194.45,-67.48 1205.01,-68.36 1203.26,-61.58"/>
</g>
<!-- Node19 -->
<g id="node19" class="node">
<title>Node19</title>
<g id="a_node19"><a xlink:href="test__log_8cpp.html" target="_top" xlink:title="日志类测试">
<polygon fill="white" stroke="black" points="1476,-6 1476,-25 1579,-25 1579,-6 1476,-6"/>
<text text-anchor="middle" x="1527.5" y="-13" font-family="Helvetica,sans-Serif" font-size="10.00">tests/test_log.cpp</text>
</a>
</g>
</g>
<!-- Node7&#45;&gt;Node19 -->
<g id="edge18" class="edge">
<title>Node7&#45;&gt;Node19</title>
<path fill="none" stroke="midnightblue" d="M1209.88,-70.27C1270.4,-62.78 1377.06,-48.54 1467.5,-31 1476.34,-29.29 1485.83,-27.14 1494.61,-25.02"/>
<polygon fill="midnightblue" stroke="midnightblue" points="1209.35,-66.81 1199.85,-71.5 1210.21,-73.76 1209.35,-66.81"/>
</g>
<!-- Node20 -->
<g id="node20" class="node">
<title>Node20</title>
<g id="a_node20"><a xlink:href="test__scheduler_8cc.html" target="_top" xlink:title="协程调度器测试">
<polygon fill="white" stroke="black" points="1597.5,-6 1597.5,-25 1725.5,-25 1725.5,-6 1597.5,-6"/>
<text text-anchor="middle" x="1661.5" y="-13" font-family="Helvetica,sans-Serif" font-size="10.00">tests/test_scheduler.cc</text>
</a>
</g>
</g>
<!-- Node7&#45;&gt;Node20 -->
<g id="edge19" class="edge">
<title>Node7&#45;&gt;Node20</title>
<path fill="none" stroke="midnightblue" d="M1209.81,-72.35C1289.13,-66.04 1451.84,-51.73 1588.5,-31 1599.36,-29.35 1611.05,-27.2 1621.83,-25.06"/>
<polygon fill="midnightblue" stroke="midnightblue" points="1209.33,-68.88 1199.64,-73.15 1209.88,-75.86 1209.33,-68.88"/>
</g>
<!-- Node21 -->
<g id="node21" class="node">
<title>Node21</title>
<g id="a_node21"><a xlink:href="test__socket__tcp__client_8cc.html" target="_top" xlink:title="测试Socket类，tcp客户端">
<polygon fill="white" stroke="black" points="1744,-0.5 1744,-30.5 1863,-30.5 1863,-0.5 1744,-0.5"/>
<text text-anchor="start" x="1752" y="-18.5" font-family="Helvetica,sans-Serif" font-size="10.00">tests/test_socket_tcp</text>
<text text-anchor="middle" x="1803.5" y="-7.5" font-family="Helvetica,sans-Serif" font-size="10.00">_client.cc</text>
</a>
</g>
</g>
<!-- Node7&#45;&gt;Node21 -->
<g id="edge20" class="edge">
<title>Node7&#45;&gt;Node21</title>
<path fill="none" stroke="midnightblue" d="M1209.84,-74.31C1308.77,-70.38 1541.28,-58.77 1734.5,-31 1737.53,-30.56 1740.62,-30.08 1743.74,-29.55"/>
<polygon fill="midnightblue" stroke="midnightblue" points="1209.43,-70.82 1199.57,-74.7 1209.7,-77.81 1209.43,-70.82"/>
</g>
<!-- Node22 -->
<g id="node22" class="node">
<title>Node22</title>
<g id="a_node22"><a xlink:href="test__tcp__server_8cc.html" target="_top" xlink:title="TcpServer类测试">
<polygon fill="white" stroke="black" points="1881,-6 1881,-25 2012,-25 2012,-6 1881,-6"/>
<text text-anchor="middle" x="1946.5" y="-13" font-family="Helvetica,sans-Serif" font-size="10.00">tests/test_tcp_server.cc</text>
</a>
</g>
</g>
<!-- Node7&#45;&gt;Node22 -->
<g id="edge21" class="edge">
<title>Node7&#45;&gt;Node22</title>
<path fill="none" stroke="midnightblue" d="M1210.08,-75.1C1325.44,-72.5 1624.78,-62.97 1872.5,-31 1884.06,-29.51 1896.52,-27.3 1907.87,-25.06"/>
<polygon fill="midnightblue" stroke="midnightblue" points="1209.74,-71.61 1199.82,-75.33 1209.89,-78.61 1209.74,-71.61"/>
</g>
<!-- Node23 -->
<g id="node23" class="node">
<title>Node23</title>
<g id="a_node23"><a xlink:href="test__thread_8cc.html" target="_top" xlink:title="线程模块测试">
<polygon fill="white" stroke="black" points="2030,-6 2030,-25 2143,-25 2143,-6 2030,-6"/>
<text text-anchor="middle" x="2086.5" y="-13" font-family="Helvetica,sans-Serif" font-size="10.00">tests/test_thread.cc</text>
</a>
</g>
</g>
<!-- Node7&#45;&gt;Node23 -->
<g id="edge22" class="edge">
<title>Node7&#45;&gt;Node23</title>
<path fill="none" stroke="midnightblue" d="M1209.99,-76.29C1341.32,-76.48 1714.66,-72.95 2021.5,-31 2031.92,-29.57 2043.15,-27.33 2053.29,-25.03"/>
<polygon fill="midnightblue" stroke="midnightblue" points="1209.87,-72.79 1199.86,-76.27 1209.85,-79.79 1209.87,-72.79"/>
</g>
<!-- Node24 -->
<g id="node24" class="node">
<title>Node24</title>
<g id="a_node24"><a xlink:href="test__timer_8cc.html" target="_top" xlink:title="IO协程测试器定时器测试">
<polygon fill="white" stroke="black" points="2161,-6 2161,-25 2268,-25 2268,-6 2161,-6"/>
<text text-anchor="middle" x="2214.5" y="-13" font-family="Helvetica,sans-Serif" font-size="10.00">tests/test_timer.cc</text>
</a>
</g>
</g>
<!-- Node7&#45;&gt;Node24 -->
<g id="edge23" class="edge">
<title>Node7&#45;&gt;Node24</title>
<path fill="none" stroke="midnightblue" d="M1209.57,-74.99C1381.72,-71.2 1967.03,-56.68 2152.5,-31 2162.57,-29.61 2173.41,-27.34 2183.17,-25.01"/>
<polygon fill="midnightblue" stroke="midnightblue" points="1209.47,-71.49 1199.54,-75.21 1209.62,-78.49 1209.47,-71.49"/>
</g>
<!-- Node25 -->
<g id="node25" class="node">
<title>Node25</title>
<g id="a_node25"><a xlink:href="test__util_8cpp.html" target="_top" xlink:title="util与macro测试">
<polygon fill="white" stroke="black" points="2286.5,-6 2286.5,-25 2390.5,-25 2390.5,-6 2286.5,-6"/>
<text text-anchor="middle" x="2338.5" y="-13" font-family="Helvetica,sans-Serif" font-size="10.00">tests/test_util.cpp</text>
</a>
</g>
</g>
<!-- Node7&#45;&gt;Node25 -->
<g id="edge24" class="edge">
<title>Node7&#45;&gt;Node25</title>
<path fill="none" stroke="midnightblue" d="M1209.67,-75.3C1395.58,-72.39 2066.46,-60.06 2277.5,-31 2287.42,-29.63 2298.09,-27.38 2307.69,-25.05"/>
<polygon fill="midnightblue" stroke="midnightblue" points="1209.6,-71.8 1199.65,-75.45 1209.71,-78.8 1209.6,-71.8"/>
</g>
<!-- Node26&#45;&gt;Node6 -->
<g id="edge26" class="edge">
<title>Node26&#45;&gt;Node6</title>
<path fill="none" stroke="midnightblue" d="M1050.48,-173.9C1066.61,-164 1087.68,-151.07 1101.4,-142.65"/>
<polygon fill="midnightblue" stroke="midnightblue" points="1048.33,-171.11 1041.64,-179.32 1051.99,-177.08 1048.33,-171.11"/>
</g>
<!-- Node26&#45;&gt;Node7 -->
<g id="edge27" class="edge">
<title>Node26&#45;&gt;Node7</title>
<path fill="none" stroke="midnightblue" d="M1026.94,-169.14C1027.52,-154.89 1030.55,-135.69 1041.5,-123 1062.07,-99.17 1096.56,-87.93 1123.3,-82.65"/>
<polygon fill="midnightblue" stroke="midnightblue" points="1023.44,-169.27 1026.91,-179.28 1030.44,-169.3 1023.44,-169.27"/>
</g>
<!-- Node27&#45;&gt;Node6 -->
<g id="edge31" class="edge">
<title>Node27&#45;&gt;Node6</title>
<path fill="none" stroke="midnightblue" d="M1170.19,-173.38C1156.64,-163.62 1139.26,-151.11 1127.77,-142.83"/>
<polygon fill="midnightblue" stroke="midnightblue" points="1168.29,-176.32 1178.45,-179.32 1172.38,-170.64 1168.29,-176.32"/>
</g>
<!-- Node27&#45;&gt;Node7 -->
<g id="edge32" class="edge">
<title>Node27&#45;&gt;Node7</title>
<path fill="none" stroke="midnightblue" d="M1192.83,-169.17C1193.84,-155.98 1193.93,-138.07 1189.5,-123 1185.4,-109.05 1175.69,-95.18 1168.87,-86.6"/>
<polygon fill="midnightblue" stroke="midnightblue" points="1189.33,-169.07 1191.8,-179.37 1196.29,-169.77 1189.33,-169.07"/>
</g>
</g>
</svg>
