<?xml version="1.0" encoding="UTF-8" standalone="no"?>
<!DOCTYPE svg PUBLIC "-//W3C//DTD SVG 1.1//EN"
 "http://www.w3.org/Graphics/SVG/1.1/DTD/svg11.dtd">
<!-- Generated by graphviz version 2.43.0 (0)
 -->
<!-- Title: sylar/scheduler.h Pages: 1 -->
<svg width="1148pt" height="252pt"
 viewBox="0.00 0.00 1148.00 252.00" xmlns="http://www.w3.org/2000/svg" xmlns:xlink="http://www.w3.org/1999/xlink">
<g id="graph0" class="graph" transform="scale(1 1) rotate(0) translate(4 248)">
<title>sylar/scheduler.h</title>
<polygon fill="white" stroke="transparent" points="-4,4 -4,-248 1144,-248 1144,4 -4,4"/>
<!-- Node1 -->
<g id="node1" class="node">
<title>Node1</title>
<g id="a_node1"><a xlink:title="协程调度器实现">
<polygon fill="#bfbfbf" stroke="black" points="202,-224.5 202,-243.5 301,-243.5 301,-224.5 202,-224.5"/>
<text text-anchor="middle" x="251.5" y="-231.5" font-family="Helvetica,sans-Serif" font-size="10.00">sylar/scheduler.h</text>
</a>
</g>
</g>
<!-- Node2 -->
<g id="node2" class="node">
<title>Node2</title>
<g id="a_node2"><a xlink:title=" ">
<polygon fill="white" stroke="#bfbfbf" points="0,-0.5 0,-19.5 65,-19.5 65,-0.5 0,-0.5"/>
<text text-anchor="middle" x="32.5" y="-7.5" font-family="Helvetica,sans-Serif" font-size="10.00">functional</text>
</a>
</g>
</g>
<!-- Node1&#45;&gt;Node2 -->
<g id="edge1" class="edge">
<title>Node1&#45;&gt;Node2</title>
<path fill="none" stroke="midnightblue" d="M237.82,-224.5C224.6,-216 204.31,-202.18 188.5,-188 129.41,-135 70.39,-60.82 45.19,-27.89"/>
<polygon fill="midnightblue" stroke="midnightblue" points="47.85,-25.6 39.01,-19.75 42.27,-29.83 47.85,-25.6"/>
</g>
<!-- Node3 -->
<g id="node3" class="node">
<title>Node3</title>
<g id="a_node3"><a xlink:title=" ">
<polygon fill="white" stroke="#bfbfbf" points="83.5,-0.5 83.5,-19.5 115.5,-19.5 115.5,-0.5 83.5,-0.5"/>
<text text-anchor="middle" x="99.5" y="-7.5" font-family="Helvetica,sans-Serif" font-size="10.00">list</text>
</a>
</g>
</g>
<!-- Node1&#45;&gt;Node3 -->
<g id="edge2" class="edge">
<title>Node1&#45;&gt;Node3</title>
<path fill="none" stroke="midnightblue" d="M241.5,-224.31C231.88,-215.66 217.27,-201.74 206.5,-188 164.14,-133.93 125.34,-61.83 108.43,-28.84"/>
<polygon fill="midnightblue" stroke="midnightblue" points="111.38,-26.92 103.74,-19.58 105.14,-30.08 111.38,-26.92"/>
</g>
<!-- Node4 -->
<g id="node4" class="node">
<title>Node4</title>
<g id="a_node4"><a xlink:title=" ">
<polygon fill="white" stroke="#bfbfbf" points="133.5,-0.5 133.5,-19.5 191.5,-19.5 191.5,-0.5 133.5,-0.5"/>
<text text-anchor="middle" x="162.5" y="-7.5" font-family="Helvetica,sans-Serif" font-size="10.00">memory</text>
</a>
</g>
</g>
<!-- Node1&#45;&gt;Node4 -->
<g id="edge3" class="edge">
<title>Node1&#45;&gt;Node4</title>
<path fill="none" stroke="midnightblue" d="M243.74,-224.27C236.37,-215.59 225.43,-201.65 218.5,-188 190.97,-133.75 173.59,-63.28 166.36,-30"/>
<polygon fill="midnightblue" stroke="midnightblue" points="169.72,-28.93 164.23,-19.86 162.87,-30.37 169.72,-28.93"/>
</g>
<!-- Node5 -->
<g id="node5" class="node">
<title>Node5</title>
<g id="a_node5"><a xlink:title=" ">
<polygon fill="white" stroke="#bfbfbf" points="700.5,-0.5 700.5,-19.5 744.5,-19.5 744.5,-0.5 700.5,-0.5"/>
<text text-anchor="middle" x="722.5" y="-7.5" font-family="Helvetica,sans-Serif" font-size="10.00">string</text>
</a>
</g>
</g>
<!-- Node1&#45;&gt;Node5 -->
<g id="edge4" class="edge">
<title>Node1&#45;&gt;Node5</title>
<path fill="none" stroke="midnightblue" d="M269.68,-224.43C341.87,-190.4 608.65,-64.66 695.2,-23.87"/>
<polygon fill="midnightblue" stroke="midnightblue" points="696.83,-26.97 704.38,-19.54 693.84,-20.64 696.83,-26.97"/>
</g>
<!-- Node6 -->
<g id="node6" class="node">
<title>Node6</title>
<g id="a_node6"><a xlink:href="fiber_8h.html" target="_top" xlink:title="协程模块">
<polygon fill="white" stroke="black" points="228,-168.5 228,-187.5 275,-187.5 275,-168.5 228,-168.5"/>
<text text-anchor="middle" x="251.5" y="-175.5" font-family="Helvetica,sans-Serif" font-size="10.00">fiber.h</text>
</a>
</g>
</g>
<!-- Node1&#45;&gt;Node6 -->
<g id="edge5" class="edge">
<title>Node1&#45;&gt;Node6</title>
<path fill="none" stroke="midnightblue" d="M251.5,-224.08C251.5,-217.01 251.5,-206.86 251.5,-197.99"/>
<polygon fill="midnightblue" stroke="midnightblue" points="255,-197.75 251.5,-187.75 248,-197.75 255,-197.75"/>
</g>
<!-- Node8 -->
<g id="node8" class="node">
<title>Node8</title>
<g id="a_node8"><a xlink:href="thread_8h.html" target="_top" xlink:title="线程相关的封装">
<polygon fill="white" stroke="black" points="349,-112.5 349,-131.5 406,-131.5 406,-112.5 349,-112.5"/>
<text text-anchor="middle" x="377.5" y="-119.5" font-family="Helvetica,sans-Serif" font-size="10.00">thread.h</text>
</a>
</g>
</g>
<!-- Node1&#45;&gt;Node8 -->
<g id="edge42" class="edge">
<title>Node1&#45;&gt;Node8</title>
<path fill="none" stroke="midnightblue" d="M261.39,-224.37C282.64,-205.81 332.93,-161.91 359.82,-138.44"/>
<polygon fill="midnightblue" stroke="midnightblue" points="362.43,-140.8 367.66,-131.59 357.82,-135.53 362.43,-140.8"/>
</g>
<!-- Node16 -->
<g id="node16" class="node">
<title>Node16</title>
<g id="a_node16"><a xlink:href="log_8h.html" target="_top" xlink:title="日志模块">
<polygon fill="white" stroke="black" points="702,-112.5 702,-131.5 743,-131.5 743,-112.5 702,-112.5"/>
<text text-anchor="middle" x="722.5" y="-119.5" font-family="Helvetica,sans-Serif" font-size="10.00">log.h</text>
</a>
</g>
</g>
<!-- Node1&#45;&gt;Node16 -->
<g id="edge21" class="edge">
<title>Node1&#45;&gt;Node16</title>
<path fill="none" stroke="midnightblue" d="M301.05,-230.68C366.09,-226.62 483.29,-215.82 579.5,-188 623.32,-175.33 670.93,-151.46 698.67,-136.44"/>
<polygon fill="midnightblue" stroke="midnightblue" points="700.53,-139.41 707.61,-131.53 697.16,-133.28 700.53,-139.41"/>
</g>
<!-- Node6&#45;&gt;Node2 -->
<g id="edge6" class="edge">
<title>Node6&#45;&gt;Node2</title>
<path fill="none" stroke="midnightblue" d="M240.03,-168.31C204.56,-141.42 96.29,-59.35 51.85,-25.67"/>
<polygon fill="midnightblue" stroke="midnightblue" points="53.94,-22.86 43.85,-19.61 49.71,-28.44 53.94,-22.86"/>
</g>
<!-- Node6&#45;&gt;Node4 -->
<g id="edge7" class="edge">
<title>Node6&#45;&gt;Node4</title>
<path fill="none" stroke="midnightblue" d="M247.33,-168.39C237.62,-148.41 212.54,-97.48 189.5,-56 184.35,-46.73 178.3,-36.58 173.23,-28.27"/>
<polygon fill="midnightblue" stroke="midnightblue" points="176.07,-26.21 167.85,-19.53 170.11,-29.88 176.07,-26.21"/>
</g>
<!-- Node7 -->
<g id="node7" class="node">
<title>Node7</title>
<g id="a_node7"><a xlink:title=" ">
<polygon fill="white" stroke="#bfbfbf" points="241.5,-112.5 241.5,-131.5 309.5,-131.5 309.5,-112.5 241.5,-112.5"/>
<text text-anchor="middle" x="275.5" y="-119.5" font-family="Helvetica,sans-Serif" font-size="10.00">ucontext.h</text>
</a>
</g>
</g>
<!-- Node6&#45;&gt;Node7 -->
<g id="edge8" class="edge">
<title>Node6&#45;&gt;Node7</title>
<path fill="none" stroke="midnightblue" d="M255.46,-168.08C258.71,-160.77 263.42,-150.18 267.45,-141.1"/>
<polygon fill="midnightblue" stroke="midnightblue" points="270.75,-142.31 271.61,-131.75 264.35,-139.47 270.75,-142.31"/>
</g>
<!-- Node6&#45;&gt;Node8 -->
<g id="edge9" class="edge">
<title>Node6&#45;&gt;Node8</title>
<path fill="none" stroke="midnightblue" d="M271.47,-168.44C292.11,-159.6 324.56,-145.69 348.13,-135.59"/>
<polygon fill="midnightblue" stroke="midnightblue" points="349.82,-138.67 357.63,-131.52 347.06,-132.24 349.82,-138.67"/>
</g>
<!-- Node8&#45;&gt;Node5 -->
<g id="edge10" class="edge">
<title>Node8&#45;&gt;Node5</title>
<path fill="none" stroke="midnightblue" d="M398.14,-112.48C430.48,-99.31 495.2,-73.7 551.5,-56 609.8,-37.67 627.79,-36.98 690.2,-20.28"/>
<polygon fill="midnightblue" stroke="midnightblue" points="691.44,-23.57 700.17,-17.57 689.6,-16.81 691.44,-23.57"/>
</g>
<!-- Node9 -->
<g id="node9" class="node">
<title>Node9</title>
<g id="a_node9"><a xlink:href="mutex_8h.html" target="_top" xlink:title="信号量，互斥锁，读写锁，范围锁模板，自旋锁，原子锁">
<polygon fill="white" stroke="black" points="370,-56.5 370,-75.5 427,-75.5 427,-56.5 370,-56.5"/>
<text text-anchor="middle" x="398.5" y="-63.5" font-family="Helvetica,sans-Serif" font-size="10.00">mutex.h</text>
</a>
</g>
</g>
<!-- Node8&#45;&gt;Node9 -->
<g id="edge11" class="edge">
<title>Node8&#45;&gt;Node9</title>
<path fill="none" stroke="midnightblue" d="M380.97,-112.08C383.81,-104.77 387.93,-94.18 391.46,-85.1"/>
<polygon fill="midnightblue" stroke="midnightblue" points="394.73,-86.34 395.1,-75.75 388.21,-83.8 394.73,-86.34"/>
</g>
<!-- Node9&#45;&gt;Node2 -->
<g id="edge13" class="edge">
<title>Node9&#45;&gt;Node2</title>
<path fill="none" stroke="midnightblue" d="M369.78,-61.73C314.73,-55.3 190.31,-40.03 75.06,-19.98"/>
<polygon fill="midnightblue" stroke="midnightblue" points="75.47,-16.5 65.01,-18.21 74.26,-23.39 75.47,-16.5"/>
</g>
<!-- Node9&#45;&gt;Node3 -->
<g id="edge19" class="edge">
<title>Node9&#45;&gt;Node3</title>
<path fill="none" stroke="midnightblue" d="M369.79,-60.96C312.64,-52.83 185.62,-34.19 125.28,-19.72"/>
<polygon fill="midnightblue" stroke="midnightblue" points="126.05,-16.3 115.5,-17.25 124.34,-23.09 126.05,-16.3"/>
</g>
<!-- Node9&#45;&gt;Node4 -->
<g id="edge14" class="edge">
<title>Node9&#45;&gt;Node4</title>
<path fill="none" stroke="midnightblue" d="M369.96,-58.6C333.34,-50.37 267.59,-35.53 201.69,-20.26"/>
<polygon fill="midnightblue" stroke="midnightblue" points="202.07,-16.76 191.54,-17.91 200.49,-23.58 202.07,-16.76"/>
</g>
<!-- Node10 -->
<g id="node10" class="node">
<title>Node10</title>
<g id="a_node10"><a xlink:title=" ">
<polygon fill="white" stroke="#bfbfbf" points="209.5,-0.5 209.5,-19.5 257.5,-19.5 257.5,-0.5 209.5,-0.5"/>
<text text-anchor="middle" x="233.5" y="-7.5" font-family="Helvetica,sans-Serif" font-size="10.00">thread</text>
</a>
</g>
</g>
<!-- Node9&#45;&gt;Node10 -->
<g id="edge12" class="edge">
<title>Node9&#45;&gt;Node10</title>
<path fill="none" stroke="midnightblue" d="M372.36,-56.44C343.9,-47.13 298.32,-32.21 267.2,-22.03"/>
<polygon fill="midnightblue" stroke="midnightblue" points="268.24,-18.69 257.64,-18.9 266.06,-25.34 268.24,-18.69"/>
</g>
<!-- Node11 -->
<g id="node11" class="node">
<title>Node11</title>
<g id="a_node11"><a xlink:title=" ">
<polygon fill="white" stroke="#bfbfbf" points="276,-0.5 276,-19.5 339,-19.5 339,-0.5 276,-0.5"/>
<text text-anchor="middle" x="307.5" y="-7.5" font-family="Helvetica,sans-Serif" font-size="10.00">pthread.h</text>
</a>
</g>
</g>
<!-- Node9&#45;&gt;Node11 -->
<g id="edge15" class="edge">
<title>Node9&#45;&gt;Node11</title>
<path fill="none" stroke="midnightblue" d="M383.88,-56.32C369.55,-47.82 347.49,-34.73 330.75,-24.8"/>
<polygon fill="midnightblue" stroke="midnightblue" points="332.47,-21.75 322.08,-19.65 328.9,-27.77 332.47,-21.75"/>
</g>
<!-- Node12 -->
<g id="node12" class="node">
<title>Node12</title>
<g id="a_node12"><a xlink:title=" ">
<polygon fill="white" stroke="#bfbfbf" points="357.5,-0.5 357.5,-19.5 437.5,-19.5 437.5,-0.5 357.5,-0.5"/>
<text text-anchor="middle" x="397.5" y="-7.5" font-family="Helvetica,sans-Serif" font-size="10.00">semaphore.h</text>
</a>
</g>
</g>
<!-- Node9&#45;&gt;Node12 -->
<g id="edge16" class="edge">
<title>Node9&#45;&gt;Node12</title>
<path fill="none" stroke="midnightblue" d="M398.33,-56.08C398.2,-49.01 398.02,-38.86 397.85,-29.99"/>
<polygon fill="midnightblue" stroke="midnightblue" points="401.35,-29.68 397.66,-19.75 394.35,-29.81 401.35,-29.68"/>
</g>
<!-- Node13 -->
<g id="node13" class="node">
<title>Node13</title>
<g id="a_node13"><a xlink:title=" ">
<polygon fill="white" stroke="#bfbfbf" points="629,-0.5 629,-19.5 682,-19.5 682,-0.5 629,-0.5"/>
<text text-anchor="middle" x="655.5" y="-7.5" font-family="Helvetica,sans-Serif" font-size="10.00">stdint.h</text>
</a>
</g>
</g>
<!-- Node9&#45;&gt;Node13 -->
<g id="edge17" class="edge">
<title>Node9&#45;&gt;Node13</title>
<path fill="none" stroke="midnightblue" d="M427.34,-59.65C467.96,-52 544.56,-37.19 618.8,-20.31"/>
<polygon fill="midnightblue" stroke="midnightblue" points="619.82,-23.67 628.78,-18.02 618.25,-16.84 619.82,-23.67"/>
</g>
<!-- Node14 -->
<g id="node14" class="node">
<title>Node14</title>
<g id="a_node14"><a xlink:title=" ">
<polygon fill="white" stroke="#bfbfbf" points="455.5,-0.5 455.5,-19.5 505.5,-19.5 505.5,-0.5 455.5,-0.5"/>
<text text-anchor="middle" x="480.5" y="-7.5" font-family="Helvetica,sans-Serif" font-size="10.00">atomic</text>
</a>
</g>
</g>
<!-- Node9&#45;&gt;Node14 -->
<g id="edge18" class="edge">
<title>Node9&#45;&gt;Node14</title>
<path fill="none" stroke="midnightblue" d="M411.67,-56.32C424.35,-47.98 443.73,-35.21 458.71,-25.35"/>
<polygon fill="midnightblue" stroke="midnightblue" points="460.93,-28.08 467.36,-19.65 457.08,-22.23 460.93,-28.08"/>
</g>
<!-- Node15 -->
<g id="node15" class="node">
<title>Node15</title>
<g id="a_node15"><a xlink:href="noncopyable_8h.html" target="_top" xlink:title="不可拷贝对象封装">
<polygon fill="white" stroke="black" points="523.5,-0.5 523.5,-19.5 611.5,-19.5 611.5,-0.5 523.5,-0.5"/>
<text text-anchor="middle" x="567.5" y="-7.5" font-family="Helvetica,sans-Serif" font-size="10.00">noncopyable.h</text>
</a>
</g>
</g>
<!-- Node9&#45;&gt;Node15 -->
<g id="edge20" class="edge">
<title>Node9&#45;&gt;Node15</title>
<path fill="none" stroke="midnightblue" d="M425.28,-56.44C453.83,-47.32 499.23,-32.81 531.04,-22.65"/>
<polygon fill="midnightblue" stroke="midnightblue" points="532.39,-25.89 540.85,-19.52 530.26,-19.23 532.39,-25.89"/>
</g>
<!-- Node16&#45;&gt;Node3 -->
<g id="edge29" class="edge">
<title>Node16&#45;&gt;Node3</title>
<path fill="none" stroke="midnightblue" d="M701.8,-120.1C620.5,-116.4 323.09,-101.37 232.5,-76 191.06,-64.39 146.93,-40.16 121.36,-24.79"/>
<polygon fill="midnightblue" stroke="midnightblue" points="123.18,-21.8 112.82,-19.56 119.52,-27.77 123.18,-21.8"/>
</g>
<!-- Node16&#45;&gt;Node4 -->
<g id="edge23" class="edge">
<title>Node16&#45;&gt;Node4</title>
<path fill="none" stroke="midnightblue" d="M701.97,-120.93C645.92,-120.22 486.09,-114.68 360.5,-76 341.88,-70.27 339.63,-63.13 321.5,-56 299.77,-47.45 241.36,-31.57 201.72,-21.15"/>
<polygon fill="midnightblue" stroke="midnightblue" points="202.39,-17.7 191.83,-18.56 200.62,-24.48 202.39,-17.7"/>
</g>
<!-- Node16&#45;&gt;Node5 -->
<g id="edge22" class="edge">
<title>Node16&#45;&gt;Node5</title>
<path fill="none" stroke="midnightblue" d="M722.5,-112.37C722.5,-94.62 722.5,-53.67 722.5,-29.6"/>
<polygon fill="midnightblue" stroke="midnightblue" points="726,-29.59 722.5,-19.59 719,-29.59 726,-29.59"/>
</g>
<!-- Node16&#45;&gt;Node9 -->
<g id="edge39" class="edge">
<title>Node16&#45;&gt;Node9</title>
<path fill="none" stroke="midnightblue" d="M701.74,-117.54C648.47,-108.66 506.28,-84.96 437.22,-73.45"/>
<polygon fill="midnightblue" stroke="midnightblue" points="437.62,-69.97 427.18,-71.78 436.47,-76.88 437.62,-69.97"/>
</g>
<!-- Node17 -->
<g id="node17" class="node">
<title>Node17</title>
<g id="a_node17"><a xlink:title=" ">
<polygon fill="white" stroke="#bfbfbf" points="1014.5,-0.5 1014.5,-19.5 1074.5,-19.5 1074.5,-0.5 1014.5,-0.5"/>
<text text-anchor="middle" x="1044.5" y="-7.5" font-family="Helvetica,sans-Serif" font-size="10.00">iostream</text>
</a>
</g>
</g>
<!-- Node16&#45;&gt;Node17 -->
<g id="edge24" class="edge">
<title>Node16&#45;&gt;Node17</title>
<path fill="none" stroke="midnightblue" d="M737.46,-112.37C766.56,-95.62 828.9,-59.99 839.5,-56 907.25,-30.47 929.97,-35.96 1004.43,-20.16"/>
<polygon fill="midnightblue" stroke="midnightblue" points="1005.25,-23.57 1014.28,-18.02 1003.76,-16.73 1005.25,-23.57"/>
</g>
<!-- Node18 -->
<g id="node18" class="node">
<title>Node18</title>
<g id="a_node18"><a xlink:title=" ">
<polygon fill="white" stroke="#bfbfbf" points="848.5,-56.5 848.5,-75.5 904.5,-75.5 904.5,-56.5 848.5,-56.5"/>
<text text-anchor="middle" x="876.5" y="-63.5" font-family="Helvetica,sans-Serif" font-size="10.00">sstream</text>
</a>
</g>
</g>
<!-- Node16&#45;&gt;Node18 -->
<g id="edge25" class="edge">
<title>Node16&#45;&gt;Node18</title>
<path fill="none" stroke="midnightblue" d="M743.27,-113.72C768.64,-104.82 811.93,-89.64 842.26,-79.01"/>
<polygon fill="midnightblue" stroke="midnightblue" points="843.72,-82.2 852,-75.59 841.41,-75.6 843.72,-82.2"/>
</g>
<!-- Node19 -->
<g id="node19" class="node">
<title>Node19</title>
<g id="a_node19"><a xlink:title=" ">
<polygon fill="white" stroke="#bfbfbf" points="923,-56.5 923,-75.5 978,-75.5 978,-56.5 923,-56.5"/>
<text text-anchor="middle" x="950.5" y="-63.5" font-family="Helvetica,sans-Serif" font-size="10.00">fstream</text>
</a>
</g>
</g>
<!-- Node16&#45;&gt;Node19 -->
<g id="edge26" class="edge">
<title>Node16&#45;&gt;Node19</title>
<path fill="none" stroke="midnightblue" d="M743.14,-116.19C776.54,-108.39 844.75,-92.42 912.62,-76.2"/>
<polygon fill="midnightblue" stroke="midnightblue" points="913.71,-79.53 922.62,-73.8 912.08,-72.73 913.71,-79.53"/>
</g>
<!-- Node20 -->
<g id="node20" class="node">
<title>Node20</title>
<g id="a_node20"><a xlink:title=" ">
<polygon fill="white" stroke="#bfbfbf" points="1093,-0.5 1093,-19.5 1140,-19.5 1140,-0.5 1093,-0.5"/>
<text text-anchor="middle" x="1116.5" y="-7.5" font-family="Helvetica,sans-Serif" font-size="10.00">vector</text>
</a>
</g>
</g>
<!-- Node16&#45;&gt;Node20 -->
<g id="edge27" class="edge">
<title>Node16&#45;&gt;Node20</title>
<path fill="none" stroke="midnightblue" d="M743.3,-119.63C788.69,-116.19 899.6,-105.23 987.5,-76 1005.98,-69.85 1009.12,-64.8 1026.5,-56 1047.8,-45.21 1072.01,-33.12 1089.96,-24.18"/>
<polygon fill="midnightblue" stroke="midnightblue" points="1091.83,-27.16 1099.22,-19.57 1088.71,-20.9 1091.83,-27.16"/>
</g>
<!-- Node21 -->
<g id="node21" class="node">
<title>Node21</title>
<g id="a_node21"><a xlink:title=" ">
<polygon fill="white" stroke="#bfbfbf" points="1035,-56.5 1035,-75.5 1088,-75.5 1088,-56.5 1035,-56.5"/>
<text text-anchor="middle" x="1061.5" y="-63.5" font-family="Helvetica,sans-Serif" font-size="10.00">cstdarg</text>
</a>
</g>
</g>
<!-- Node16&#45;&gt;Node21 -->
<g id="edge28" class="edge">
<title>Node16&#45;&gt;Node21</title>
<path fill="none" stroke="midnightblue" d="M743.17,-118.36C791.74,-112.05 916.83,-95.18 1020.5,-76 1021.79,-75.76 1023.1,-75.51 1024.42,-75.25"/>
<polygon fill="midnightblue" stroke="midnightblue" points="1025.55,-78.6 1034.65,-73.16 1024.15,-71.74 1025.55,-78.6"/>
</g>
<!-- Node22 -->
<g id="node22" class="node">
<title>Node22</title>
<g id="a_node22"><a xlink:title=" ">
<polygon fill="white" stroke="#bfbfbf" points="656.5,-56.5 656.5,-75.5 694.5,-75.5 694.5,-56.5 656.5,-56.5"/>
<text text-anchor="middle" x="675.5" y="-63.5" font-family="Helvetica,sans-Serif" font-size="10.00">map</text>
</a>
</g>
</g>
<!-- Node16&#45;&gt;Node22 -->
<g id="edge30" class="edge">
<title>Node16&#45;&gt;Node22</title>
<path fill="none" stroke="midnightblue" d="M714.74,-112.08C707.96,-104.3 697.96,-92.8 689.74,-83.37"/>
<polygon fill="midnightblue" stroke="midnightblue" points="692.32,-81 683.12,-75.75 687.04,-85.59 692.32,-81"/>
</g>
<!-- Node23 -->
<g id="node23" class="node">
<title>Node23</title>
<g id="a_node23"><a xlink:href="util_8h.html" target="_top" xlink:title="util函数">
<polygon fill="white" stroke="black" points="751,-56.5 751,-75.5 792,-75.5 792,-56.5 751,-56.5"/>
<text text-anchor="middle" x="771.5" y="-63.5" font-family="Helvetica,sans-Serif" font-size="10.00">util.h</text>
</a>
</g>
</g>
<!-- Node16&#45;&gt;Node23 -->
<g id="edge31" class="edge">
<title>Node16&#45;&gt;Node23</title>
<path fill="none" stroke="midnightblue" d="M730.59,-112.08C737.66,-104.3 748.09,-92.8 756.65,-83.37"/>
<polygon fill="midnightblue" stroke="midnightblue" points="759.43,-85.51 763.56,-75.75 754.25,-80.8 759.43,-85.51"/>
</g>
<!-- Node27 -->
<g id="node27" class="node">
<title>Node27</title>
<g id="a_node27"><a xlink:href="singleton_8h.html" target="_top" xlink:title="单例模式封装">
<polygon fill="white" stroke="black" points="242,-56.5 242,-75.5 313,-75.5 313,-56.5 242,-56.5"/>
<text text-anchor="middle" x="277.5" y="-63.5" font-family="Helvetica,sans-Serif" font-size="10.00">singleton.h</text>
</a>
</g>
</g>
<!-- Node16&#45;&gt;Node27 -->
<g id="edge40" class="edge">
<title>Node16&#45;&gt;Node27</title>
<path fill="none" stroke="midnightblue" d="M701.88,-119.13C643.18,-113.69 470.22,-96.95 327.5,-76 326.05,-75.79 324.59,-75.57 323.11,-75.34"/>
<polygon fill="midnightblue" stroke="midnightblue" points="323.67,-71.88 313.23,-73.72 322.54,-78.79 323.67,-71.88"/>
</g>
<!-- Node23&#45;&gt;Node5 -->
<g id="edge36" class="edge">
<title>Node23&#45;&gt;Node5</title>
<path fill="none" stroke="midnightblue" d="M763.41,-56.08C756.34,-48.3 745.91,-36.8 737.35,-27.37"/>
<polygon fill="midnightblue" stroke="midnightblue" points="739.75,-24.8 730.44,-19.75 734.57,-29.51 739.75,-24.8"/>
</g>
<!-- Node23&#45;&gt;Node13 -->
<g id="edge33" class="edge">
<title>Node23&#45;&gt;Node13</title>
<path fill="none" stroke="midnightblue" d="M753.12,-56.44C734.28,-47.68 704.77,-33.94 683.12,-23.86"/>
<polygon fill="midnightblue" stroke="midnightblue" points="684.34,-20.56 673.79,-19.52 681.38,-26.91 684.34,-20.56"/>
</g>
<!-- Node23&#45;&gt;Node17 -->
<g id="edge38" class="edge">
<title>Node23&#45;&gt;Node17</title>
<path fill="none" stroke="midnightblue" d="M792.17,-59.42C796.86,-58.23 801.84,-57.02 806.5,-56 891.22,-37.47 915.76,-38.04 1004.35,-20.15"/>
<polygon fill="midnightblue" stroke="midnightblue" points="1005.2,-23.55 1014.3,-18.12 1003.8,-16.69 1005.2,-23.55"/>
</g>
<!-- Node23&#45;&gt;Node20 -->
<g id="edge37" class="edge">
<title>Node23&#45;&gt;Node20</title>
<path fill="none" stroke="midnightblue" d="M792.08,-62.18C852.56,-53.88 1028.46,-29.59 1082.87,-19.76"/>
<polygon fill="midnightblue" stroke="midnightblue" points="1083.64,-23.18 1092.79,-17.84 1082.31,-16.3 1083.64,-23.18"/>
</g>
<!-- Node24 -->
<g id="node24" class="node">
<title>Node24</title>
<g id="a_node24"><a xlink:title=" ">
<polygon fill="white" stroke="#bfbfbf" points="924.5,-0.5 924.5,-19.5 996.5,-19.5 996.5,-0.5 924.5,-0.5"/>
<text text-anchor="middle" x="960.5" y="-7.5" font-family="Helvetica,sans-Serif" font-size="10.00">sys/types.h</text>
</a>
</g>
</g>
<!-- Node23&#45;&gt;Node24 -->
<g id="edge32" class="edge">
<title>Node23&#45;&gt;Node24</title>
<path fill="none" stroke="midnightblue" d="M792.09,-59.12C822.89,-50.32 881.55,-33.56 920.85,-22.33"/>
<polygon fill="midnightblue" stroke="midnightblue" points="921.99,-25.64 930.65,-19.53 920.07,-18.91 921.99,-25.64"/>
</g>
<!-- Node25 -->
<g id="node25" class="node">
<title>Node25</title>
<g id="a_node25"><a xlink:title=" ">
<polygon fill="white" stroke="#bfbfbf" points="762.5,-0.5 762.5,-19.5 830.5,-19.5 830.5,-0.5 762.5,-0.5"/>
<text text-anchor="middle" x="796.5" y="-7.5" font-family="Helvetica,sans-Serif" font-size="10.00">sys/time.h</text>
</a>
</g>
</g>
<!-- Node23&#45;&gt;Node25 -->
<g id="edge34" class="edge">
<title>Node23&#45;&gt;Node25</title>
<path fill="none" stroke="midnightblue" d="M775.63,-56.08C779.01,-48.77 783.92,-38.18 788.12,-29.1"/>
<polygon fill="midnightblue" stroke="midnightblue" points="791.42,-30.3 792.45,-19.75 785.07,-27.36 791.42,-30.3"/>
</g>
<!-- Node26 -->
<g id="node26" class="node">
<title>Node26</title>
<g id="a_node26"><a xlink:title=" ">
<polygon fill="white" stroke="#bfbfbf" points="848.5,-0.5 848.5,-19.5 906.5,-19.5 906.5,-0.5 848.5,-0.5"/>
<text text-anchor="middle" x="877.5" y="-7.5" font-family="Helvetica,sans-Serif" font-size="10.00">cxxabi.h</text>
</a>
</g>
</g>
<!-- Node23&#45;&gt;Node26 -->
<g id="edge35" class="edge">
<title>Node23&#45;&gt;Node26</title>
<path fill="none" stroke="midnightblue" d="M788.53,-56.32C805.53,-47.66 831.88,-34.24 851.49,-24.25"/>
<polygon fill="midnightblue" stroke="midnightblue" points="853.19,-27.31 860.51,-19.65 850.01,-21.08 853.19,-27.31"/>
</g>
<!-- Node27&#45;&gt;Node4 -->
<g id="edge41" class="edge">
<title>Node27&#45;&gt;Node4</title>
<path fill="none" stroke="midnightblue" d="M259.28,-56.44C240.6,-47.68 211.34,-33.94 189.88,-23.86"/>
<polygon fill="midnightblue" stroke="midnightblue" points="191.18,-20.6 180.64,-19.52 188.2,-26.93 191.18,-20.6"/>
</g>
</g>
</svg>
