<?xml version="1.0" encoding="UTF-8" standalone="no"?>
<!DOCTYPE svg PUBLIC "-//W3C//DTD SVG 1.1//EN"
 "http://www.w3.org/Graphics/SVG/1.1/DTD/svg11.dtd">
<!-- Generated by graphviz version 2.43.0 (0)
 -->
<!-- Title: sylar/singleton.h Pages: 1 -->
<svg width="2399pt" height="554pt"
 viewBox="0.00 0.00 2398.50 554.00" xmlns="http://www.w3.org/2000/svg" xmlns:xlink="http://www.w3.org/1999/xlink">
<g id="graph0" class="graph" transform="scale(1 1) rotate(0) translate(4 550)">
<title>sylar/singleton.h</title>
<polygon fill="white" stroke="transparent" points="-4,4 -4,-550 2394.5,-550 2394.5,4 -4,4"/>
<!-- Node1 -->
<g id="node1" class="node">
<title>Node1</title>
<g id="a_node1"><a xlink:title="单例模式封装">
<polygon fill="#bfbfbf" stroke="black" points="616.5,-526.5 616.5,-545.5 714.5,-545.5 714.5,-526.5 616.5,-526.5"/>
<text text-anchor="middle" x="665.5" y="-533.5" font-family="Helvetica,sans-Serif" font-size="10.00">sylar/singleton.h</text>
</a>
</g>
</g>
<!-- Node2 -->
<g id="node2" class="node">
<title>Node2</title>
<g id="a_node2"><a xlink:href="env_8h.html" target="_top" xlink:title="环境变量管理">
<polygon fill="white" stroke="black" points="705.5,-414.5 705.5,-433.5 775.5,-433.5 775.5,-414.5 705.5,-414.5"/>
<text text-anchor="middle" x="740.5" y="-421.5" font-family="Helvetica,sans-Serif" font-size="10.00">sylar/env.h</text>
</a>
</g>
</g>
<!-- Node1&#45;&gt;Node2 -->
<g id="edge1" class="edge">
<title>Node1&#45;&gt;Node2</title>
<path fill="none" stroke="midnightblue" d="M677.12,-517.96C693.37,-494.12 722.29,-451.71 734.64,-433.59"/>
<polygon fill="midnightblue" stroke="midnightblue" points="674.13,-516.13 671.39,-526.37 679.91,-520.08 674.13,-516.13"/>
</g>
<!-- Node6 -->
<g id="node6" class="node">
<title>Node6</title>
<g id="a_node6"><a xlink:href="sylar_8h_source.html" target="_top" xlink:title=" ">
<polygon fill="white" stroke="black" points="1123.5,-67.5 1123.5,-86.5 1199.5,-86.5 1199.5,-67.5 1123.5,-67.5"/>
<text text-anchor="middle" x="1161.5" y="-74.5" font-family="Helvetica,sans-Serif" font-size="10.00">sylar/sylar.h</text>
</a>
</g>
</g>
<!-- Node1&#45;&gt;Node6 -->
<g id="edge63" class="edge">
<title>Node1&#45;&gt;Node6</title>
<path fill="none" stroke="midnightblue" d="M606.42,-527.44C548.07,-516.27 467.5,-489.22 467.5,-425 467.5,-425 467.5,-425 467.5,-188 467.5,-148.08 493.38,-140.01 529.5,-123 583.12,-97.76 994.31,-83.12 1123.08,-79.13"/>
<polygon fill="midnightblue" stroke="midnightblue" points="605.84,-530.89 616.3,-529.22 607.08,-524 605.84,-530.89"/>
</g>
<!-- Node25 -->
<g id="node25" class="node">
<title>Node25</title>
<g id="a_node25"><a xlink:href="fd__manager_8h.html" target="_top" xlink:title="文件句柄管理类">
<polygon fill="white" stroke="black" points="536.5,-470.5 536.5,-489.5 646.5,-489.5 646.5,-470.5 536.5,-470.5"/>
<text text-anchor="middle" x="591.5" y="-477.5" font-family="Helvetica,sans-Serif" font-size="10.00">sylar/fd_manager.h</text>
</a>
</g>
</g>
<!-- Node1&#45;&gt;Node25 -->
<g id="edge24" class="edge">
<title>Node1&#45;&gt;Node25</title>
<path fill="none" stroke="midnightblue" d="M645.47,-520.38C632.09,-510.62 614.94,-498.11 603.61,-489.83"/>
<polygon fill="midnightblue" stroke="midnightblue" points="643.47,-523.26 653.61,-526.32 647.6,-517.6 643.47,-523.26"/>
</g>
<!-- Node27 -->
<g id="node27" class="node">
<title>Node27</title>
<g id="a_node27"><a xlink:href="log_8h.html" target="_top" xlink:title="日志模块">
<polygon fill="white" stroke="black" points="1069.5,-470.5 1069.5,-489.5 1137.5,-489.5 1137.5,-470.5 1069.5,-470.5"/>
<text text-anchor="middle" x="1103.5" y="-477.5" font-family="Helvetica,sans-Serif" font-size="10.00">sylar/log.h</text>
</a>
</g>
</g>
<!-- Node1&#45;&gt;Node27 -->
<g id="edge27" class="edge">
<title>Node1&#45;&gt;Node27</title>
<path fill="none" stroke="midnightblue" d="M724.99,-527.67C818.02,-516.2 994.95,-494.38 1069.27,-485.22"/>
<polygon fill="midnightblue" stroke="midnightblue" points="724.39,-524.21 714.89,-528.91 725.25,-531.16 724.39,-524.21"/>
</g>
<!-- Node3 -->
<g id="node3" class="node">
<title>Node3</title>
<g id="a_node3"><a xlink:href="config_8cc.html" target="_top" xlink:title="配置模块实现">
<polygon fill="white" stroke="black" points="663.5,-358.5 663.5,-377.5 749.5,-377.5 749.5,-358.5 663.5,-358.5"/>
<text text-anchor="middle" x="706.5" y="-365.5" font-family="Helvetica,sans-Serif" font-size="10.00">sylar/config.cc</text>
</a>
</g>
</g>
<!-- Node2&#45;&gt;Node3 -->
<g id="edge2" class="edge">
<title>Node2&#45;&gt;Node3</title>
<path fill="none" stroke="midnightblue" d="M729.52,-405.57C723.67,-396.27 716.73,-385.25 712.01,-377.75"/>
<polygon fill="midnightblue" stroke="midnightblue" points="726.6,-407.49 734.89,-414.08 732.52,-403.76 726.6,-407.49"/>
</g>
<!-- Node4 -->
<g id="node4" class="node">
<title>Node4</title>
<g id="a_node4"><a xlink:href="env_8cc.html" target="_top" xlink:title="环境变量管理接口实现">
<polygon fill="white" stroke="black" points="571.5,-358.5 571.5,-377.5 645.5,-377.5 645.5,-358.5 571.5,-358.5"/>
<text text-anchor="middle" x="608.5" y="-365.5" font-family="Helvetica,sans-Serif" font-size="10.00">sylar/env.cc</text>
</a>
</g>
</g>
<!-- Node2&#45;&gt;Node4 -->
<g id="edge3" class="edge">
<title>Node2&#45;&gt;Node4</title>
<path fill="none" stroke="midnightblue" d="M710.28,-410.64C685.51,-400.5 651.1,-386.43 629.32,-377.52"/>
<polygon fill="midnightblue" stroke="midnightblue" points="709,-413.9 719.58,-414.44 711.65,-407.42 709,-413.9"/>
</g>
<!-- Node5 -->
<g id="node5" class="node">
<title>Node5</title>
<g id="a_node5"><a xlink:href="log_8cpp.html" target="_top" xlink:title="日志模块实现">
<polygon fill="white" stroke="black" points="768,-358.5 768,-377.5 847,-377.5 847,-358.5 768,-358.5"/>
<text text-anchor="middle" x="807.5" y="-365.5" font-family="Helvetica,sans-Serif" font-size="10.00">sylar/log.cpp</text>
</a>
</g>
</g>
<!-- Node2&#45;&gt;Node5 -->
<g id="edge4" class="edge">
<title>Node2&#45;&gt;Node5</title>
<path fill="none" stroke="midnightblue" d="M759.33,-407.82C771.34,-398.15 786.47,-385.95 796.54,-377.83"/>
<polygon fill="midnightblue" stroke="midnightblue" points="756.85,-405.32 751.26,-414.32 761.25,-410.77 756.85,-405.32"/>
</g>
<!-- Node2&#45;&gt;Node6 -->
<g id="edge5" class="edge">
<title>Node2&#45;&gt;Node6</title>
<path fill="none" stroke="midnightblue" d="M695.35,-416.86C649.01,-409.66 581.14,-396.35 562.5,-378 539.37,-355.23 543.5,-339.95 543.5,-307.5 543.5,-307.5 543.5,-307.5 543.5,-188 543.5,-128.81 988.57,-90.86 1123.31,-80.73"/>
<polygon fill="midnightblue" stroke="midnightblue" points="695.05,-420.35 705.46,-418.39 696.1,-413.43 695.05,-420.35"/>
</g>
<!-- Node7 -->
<g id="node7" class="node">
<title>Node7</title>
<g id="a_node7"><a xlink:href="test__address_8cc.html" target="_top" xlink:title="网络地址类测试">
<polygon fill="white" stroke="black" points="0,-6 0,-25 119,-25 119,-6 0,-6"/>
<text text-anchor="middle" x="59.5" y="-13" font-family="Helvetica,sans-Serif" font-size="10.00">tests/test_address.cc</text>
</a>
</g>
</g>
<!-- Node6&#45;&gt;Node7 -->
<g id="edge6" class="edge">
<title>Node6&#45;&gt;Node7</title>
<path fill="none" stroke="midnightblue" d="M1113.43,-74.97C936.55,-71.02 322.03,-55.8 127.5,-31 116.6,-29.61 104.86,-27.38 94.25,-25.07"/>
<polygon fill="midnightblue" stroke="midnightblue" points="1113.4,-78.47 1123.48,-75.19 1113.56,-71.47 1113.4,-78.47"/>
</g>
<!-- Node8 -->
<g id="node8" class="node">
<title>Node8</title>
<g id="a_node8"><a xlink:href="test__bytearray_8cc.html" target="_top" xlink:title="Bytearray类测试">
<polygon fill="white" stroke="black" points="137,-6 137,-25 264,-25 264,-6 137,-6"/>
<text text-anchor="middle" x="200.5" y="-13" font-family="Helvetica,sans-Serif" font-size="10.00">tests/test_bytearray.cc</text>
</a>
</g>
</g>
<!-- Node6&#45;&gt;Node8 -->
<g id="edge7" class="edge">
<title>Node6&#45;&gt;Node8</title>
<path fill="none" stroke="midnightblue" d="M1112.91,-76.01C978.73,-75.52 591.94,-70.48 273.5,-31 261.83,-29.55 249.23,-27.3 237.84,-25"/>
<polygon fill="midnightblue" stroke="midnightblue" points="1113.24,-79.51 1123.25,-76.04 1113.26,-72.51 1113.24,-79.51"/>
</g>
<!-- Node9 -->
<g id="node9" class="node">
<title>Node9</title>
<g id="a_node9"><a xlink:href="test__config_8cc.html" target="_top" xlink:title="配置模块测试">
<polygon fill="white" stroke="black" points="282.5,-6 282.5,-25 392.5,-25 392.5,-6 282.5,-6"/>
<text text-anchor="middle" x="337.5" y="-13" font-family="Helvetica,sans-Serif" font-size="10.00">tests/test_config.cc</text>
</a>
</g>
</g>
<!-- Node6&#45;&gt;Node9 -->
<g id="edge8" class="edge">
<title>Node6&#45;&gt;Node9</title>
<path fill="none" stroke="midnightblue" d="M1113.3,-75.87C992.73,-74.97 668.53,-68.9 401.5,-31 391.35,-29.56 380.42,-27.34 370.53,-25.07"/>
<polygon fill="midnightblue" stroke="midnightblue" points="1113.3,-79.37 1123.32,-75.94 1113.35,-72.37 1113.3,-79.37"/>
</g>
<!-- Node10 -->
<g id="node10" class="node">
<title>Node10</title>
<g id="a_node10"><a xlink:href="test__env_8cc.html" target="_top" xlink:title="环境变量测试">
<polygon fill="white" stroke="black" points="410.5,-6 410.5,-25 508.5,-25 508.5,-6 410.5,-6"/>
<text text-anchor="middle" x="459.5" y="-13" font-family="Helvetica,sans-Serif" font-size="10.00">tests/test_env.cc</text>
</a>
</g>
</g>
<!-- Node6&#45;&gt;Node10 -->
<g id="edge9" class="edge">
<title>Node6&#45;&gt;Node10</title>
<path fill="none" stroke="midnightblue" d="M1113.29,-75.51C1005.71,-73.79 738.18,-66.02 517.5,-31 508.27,-29.54 498.37,-27.31 489.4,-25.04"/>
<polygon fill="midnightblue" stroke="midnightblue" points="1113.44,-79.01 1123.49,-75.66 1113.55,-72.01 1113.44,-79.01"/>
</g>
<!-- Node11 -->
<g id="node11" class="node">
<title>Node11</title>
<g id="a_node11"><a xlink:href="test__fiber_8cc.html" target="_top" xlink:title="协程测试">
<polygon fill="white" stroke="black" points="526.5,-6 526.5,-25 628.5,-25 628.5,-6 526.5,-6"/>
<text text-anchor="middle" x="577.5" y="-13" font-family="Helvetica,sans-Serif" font-size="10.00">tests/test_fiber.cc</text>
</a>
</g>
</g>
<!-- Node6&#45;&gt;Node11 -->
<g id="edge10" class="edge">
<title>Node6&#45;&gt;Node11</title>
<path fill="none" stroke="midnightblue" d="M1113.26,-74.3C1020.54,-70.49 811.27,-59.29 637.5,-31 628.09,-29.47 617.97,-27.25 608.77,-25"/>
<polygon fill="midnightblue" stroke="midnightblue" points="1113.32,-77.8 1123.45,-74.71 1113.6,-70.81 1113.32,-77.8"/>
</g>
<!-- Node12 -->
<g id="node12" class="node">
<title>Node12</title>
<g id="a_node12"><a xlink:href="test__fiber2_8cc.html" target="_top" xlink:title="协程测试，用于演示非对称协程">
<polygon fill="white" stroke="black" points="647,-6 647,-25 756,-25 756,-6 647,-6"/>
<text text-anchor="middle" x="701.5" y="-13" font-family="Helvetica,sans-Serif" font-size="10.00">tests/test_fiber2.cc</text>
</a>
</g>
</g>
<!-- Node6&#45;&gt;Node12 -->
<g id="edge11" class="edge">
<title>Node6&#45;&gt;Node12</title>
<path fill="none" stroke="midnightblue" d="M1113.3,-72.24C1038.5,-66.02 890.11,-52.13 765.5,-31 755.84,-29.36 745.45,-27.19 735.91,-25.02"/>
<polygon fill="midnightblue" stroke="midnightblue" points="1113.1,-75.73 1123.35,-73.07 1113.67,-68.76 1113.1,-75.73"/>
</g>
<!-- Node13 -->
<g id="node13" class="node">
<title>Node13</title>
<g id="a_node13"><a xlink:href="test__hook_8cc.html" target="_top" xlink:title="hook模块测试">
<polygon fill="white" stroke="black" points="774,-6 774,-25 879,-25 879,-6 774,-6"/>
<text text-anchor="middle" x="826.5" y="-13" font-family="Helvetica,sans-Serif" font-size="10.00">tests/test_hook.cc</text>
</a>
</g>
</g>
<!-- Node6&#45;&gt;Node13 -->
<g id="edge12" class="edge">
<title>Node6&#45;&gt;Node13</title>
<path fill="none" stroke="midnightblue" d="M1113.28,-69.04C1058.59,-60.92 966.84,-46.6 888.5,-31 879.61,-29.23 870.05,-27.11 861.17,-25.04"/>
<polygon fill="midnightblue" stroke="midnightblue" points="1112.97,-72.53 1123.37,-70.53 1113.99,-65.61 1112.97,-72.53"/>
</g>
<!-- Node14 -->
<g id="node14" class="node">
<title>Node14</title>
<g id="a_node14"><a xlink:href="test__http_8cc.html" target="_top" xlink:title="HTTP请求类与响应类测试">
<polygon fill="white" stroke="black" points="897,-6 897,-25 998,-25 998,-6 897,-6"/>
<text text-anchor="middle" x="947.5" y="-13" font-family="Helvetica,sans-Serif" font-size="10.00">tests/test_http.cc</text>
</a>
</g>
</g>
<!-- Node6&#45;&gt;Node14 -->
<g id="edge13" class="edge">
<title>Node6&#45;&gt;Node14</title>
<path fill="none" stroke="midnightblue" d="M1121.04,-64.75C1079.46,-53.19 1015.66,-35.45 978.1,-25.01"/>
<polygon fill="midnightblue" stroke="midnightblue" points="1120.27,-68.17 1130.84,-67.48 1122.14,-61.42 1120.27,-68.17"/>
</g>
<!-- Node15 -->
<g id="node15" class="node">
<title>Node15</title>
<g id="a_node15"><a xlink:href="test__http__parser_8cc.html" target="_top" xlink:title="测试HTTP协议解析">
<polygon fill="white" stroke="black" points="1016.5,-6 1016.5,-25 1152.5,-25 1152.5,-6 1016.5,-6"/>
<text text-anchor="middle" x="1084.5" y="-13" font-family="Helvetica,sans-Serif" font-size="10.00">tests/test_http_parser.cc</text>
</a>
</g>
</g>
<!-- Node6&#45;&gt;Node15 -->
<g id="edge14" class="edge">
<title>Node6&#45;&gt;Node15</title>
<path fill="none" stroke="midnightblue" d="M1142.47,-61.29C1127.7,-49.88 1107.74,-34.46 1095.51,-25.01"/>
<polygon fill="midnightblue" stroke="midnightblue" points="1140.41,-64.13 1150.47,-67.48 1144.69,-58.59 1140.41,-64.13"/>
</g>
<!-- Node16 -->
<g id="node16" class="node">
<title>Node16</title>
<g id="a_node16"><a xlink:href="test__http__server_8cc.html" target="_top" xlink:title="HttpServer测试">
<polygon fill="white" stroke="black" points="1170.5,-6 1170.5,-25 1306.5,-25 1306.5,-6 1170.5,-6"/>
<text text-anchor="middle" x="1238.5" y="-13" font-family="Helvetica,sans-Serif" font-size="10.00">tests/test_http_server.cc</text>
</a>
</g>
</g>
<!-- Node6&#45;&gt;Node16 -->
<g id="edge15" class="edge">
<title>Node6&#45;&gt;Node16</title>
<path fill="none" stroke="midnightblue" d="M1180.53,-61.29C1195.3,-49.88 1215.26,-34.46 1227.49,-25.01"/>
<polygon fill="midnightblue" stroke="midnightblue" points="1178.31,-58.59 1172.53,-67.48 1182.59,-64.13 1178.31,-58.59"/>
</g>
<!-- Node17 -->
<g id="node17" class="node">
<title>Node17</title>
<g id="a_node17"><a xlink:href="test__iomanager_8cc.html" target="_top" xlink:title="IO协程调度器测试">
<polygon fill="white" stroke="black" points="1325,-6 1325,-25 1458,-25 1458,-6 1325,-6"/>
<text text-anchor="middle" x="1391.5" y="-13" font-family="Helvetica,sans-Serif" font-size="10.00">tests/test_iomanager.cc</text>
</a>
</g>
</g>
<!-- Node6&#45;&gt;Node17 -->
<g id="edge16" class="edge">
<title>Node6&#45;&gt;Node17</title>
<path fill="none" stroke="midnightblue" d="M1204.14,-64.97C1248.8,-53.41 1317.99,-35.52 1358.61,-25.01"/>
<polygon fill="midnightblue" stroke="midnightblue" points="1203.26,-61.58 1194.45,-67.48 1205.01,-68.36 1203.26,-61.58"/>
</g>
<!-- Node18 -->
<g id="node18" class="node">
<title>Node18</title>
<g id="a_node18"><a xlink:href="test__log_8cpp.html" target="_top" xlink:title="日志类测试">
<polygon fill="white" stroke="black" points="1476,-6 1476,-25 1579,-25 1579,-6 1476,-6"/>
<text text-anchor="middle" x="1527.5" y="-13" font-family="Helvetica,sans-Serif" font-size="10.00">tests/test_log.cpp</text>
</a>
</g>
</g>
<!-- Node6&#45;&gt;Node18 -->
<g id="edge17" class="edge">
<title>Node6&#45;&gt;Node18</title>
<path fill="none" stroke="midnightblue" d="M1209.88,-70.27C1270.4,-62.78 1377.06,-48.54 1467.5,-31 1476.34,-29.29 1485.83,-27.14 1494.61,-25.02"/>
<polygon fill="midnightblue" stroke="midnightblue" points="1209.35,-66.81 1199.85,-71.5 1210.21,-73.76 1209.35,-66.81"/>
</g>
<!-- Node19 -->
<g id="node19" class="node">
<title>Node19</title>
<g id="a_node19"><a xlink:href="test__scheduler_8cc.html" target="_top" xlink:title="协程调度器测试">
<polygon fill="white" stroke="black" points="1597.5,-6 1597.5,-25 1725.5,-25 1725.5,-6 1597.5,-6"/>
<text text-anchor="middle" x="1661.5" y="-13" font-family="Helvetica,sans-Serif" font-size="10.00">tests/test_scheduler.cc</text>
</a>
</g>
</g>
<!-- Node6&#45;&gt;Node19 -->
<g id="edge18" class="edge">
<title>Node6&#45;&gt;Node19</title>
<path fill="none" stroke="midnightblue" d="M1209.81,-72.35C1289.13,-66.04 1451.84,-51.73 1588.5,-31 1599.36,-29.35 1611.05,-27.2 1621.83,-25.06"/>
<polygon fill="midnightblue" stroke="midnightblue" points="1209.33,-68.88 1199.64,-73.15 1209.88,-75.86 1209.33,-68.88"/>
</g>
<!-- Node20 -->
<g id="node20" class="node">
<title>Node20</title>
<g id="a_node20"><a xlink:href="test__socket__tcp__client_8cc.html" target="_top" xlink:title="测试Socket类，tcp客户端">
<polygon fill="white" stroke="black" points="1744,-0.5 1744,-30.5 1863,-30.5 1863,-0.5 1744,-0.5"/>
<text text-anchor="start" x="1752" y="-18.5" font-family="Helvetica,sans-Serif" font-size="10.00">tests/test_socket_tcp</text>
<text text-anchor="middle" x="1803.5" y="-7.5" font-family="Helvetica,sans-Serif" font-size="10.00">_client.cc</text>
</a>
</g>
</g>
<!-- Node6&#45;&gt;Node20 -->
<g id="edge19" class="edge">
<title>Node6&#45;&gt;Node20</title>
<path fill="none" stroke="midnightblue" d="M1209.84,-74.31C1308.77,-70.38 1541.28,-58.77 1734.5,-31 1737.53,-30.56 1740.62,-30.08 1743.74,-29.55"/>
<polygon fill="midnightblue" stroke="midnightblue" points="1209.43,-70.82 1199.57,-74.7 1209.7,-77.81 1209.43,-70.82"/>
</g>
<!-- Node21 -->
<g id="node21" class="node">
<title>Node21</title>
<g id="a_node21"><a xlink:href="test__tcp__server_8cc.html" target="_top" xlink:title="TcpServer类测试">
<polygon fill="white" stroke="black" points="1881,-6 1881,-25 2012,-25 2012,-6 1881,-6"/>
<text text-anchor="middle" x="1946.5" y="-13" font-family="Helvetica,sans-Serif" font-size="10.00">tests/test_tcp_server.cc</text>
</a>
</g>
</g>
<!-- Node6&#45;&gt;Node21 -->
<g id="edge20" class="edge">
<title>Node6&#45;&gt;Node21</title>
<path fill="none" stroke="midnightblue" d="M1210.08,-75.1C1325.44,-72.5 1624.78,-62.97 1872.5,-31 1884.06,-29.51 1896.52,-27.3 1907.87,-25.06"/>
<polygon fill="midnightblue" stroke="midnightblue" points="1209.74,-71.61 1199.82,-75.33 1209.89,-78.61 1209.74,-71.61"/>
</g>
<!-- Node22 -->
<g id="node22" class="node">
<title>Node22</title>
<g id="a_node22"><a xlink:href="test__thread_8cc.html" target="_top" xlink:title="线程模块测试">
<polygon fill="white" stroke="black" points="2030,-6 2030,-25 2143,-25 2143,-6 2030,-6"/>
<text text-anchor="middle" x="2086.5" y="-13" font-family="Helvetica,sans-Serif" font-size="10.00">tests/test_thread.cc</text>
</a>
</g>
</g>
<!-- Node6&#45;&gt;Node22 -->
<g id="edge21" class="edge">
<title>Node6&#45;&gt;Node22</title>
<path fill="none" stroke="midnightblue" d="M1209.99,-76.29C1341.32,-76.48 1714.66,-72.95 2021.5,-31 2031.92,-29.57 2043.15,-27.33 2053.29,-25.03"/>
<polygon fill="midnightblue" stroke="midnightblue" points="1209.87,-72.79 1199.86,-76.27 1209.85,-79.79 1209.87,-72.79"/>
</g>
<!-- Node23 -->
<g id="node23" class="node">
<title>Node23</title>
<g id="a_node23"><a xlink:href="test__timer_8cc.html" target="_top" xlink:title="IO协程测试器定时器测试">
<polygon fill="white" stroke="black" points="2161,-6 2161,-25 2268,-25 2268,-6 2161,-6"/>
<text text-anchor="middle" x="2214.5" y="-13" font-family="Helvetica,sans-Serif" font-size="10.00">tests/test_timer.cc</text>
</a>
</g>
</g>
<!-- Node6&#45;&gt;Node23 -->
<g id="edge22" class="edge">
<title>Node6&#45;&gt;Node23</title>
<path fill="none" stroke="midnightblue" d="M1209.57,-74.99C1381.72,-71.2 1967.03,-56.68 2152.5,-31 2162.57,-29.61 2173.41,-27.34 2183.17,-25.01"/>
<polygon fill="midnightblue" stroke="midnightblue" points="1209.47,-71.49 1199.54,-75.21 1209.62,-78.49 1209.47,-71.49"/>
</g>
<!-- Node24 -->
<g id="node24" class="node">
<title>Node24</title>
<g id="a_node24"><a xlink:href="test__util_8cpp.html" target="_top" xlink:title="util与macro测试">
<polygon fill="white" stroke="black" points="2286.5,-6 2286.5,-25 2390.5,-25 2390.5,-6 2286.5,-6"/>
<text text-anchor="middle" x="2338.5" y="-13" font-family="Helvetica,sans-Serif" font-size="10.00">tests/test_util.cpp</text>
</a>
</g>
</g>
<!-- Node6&#45;&gt;Node24 -->
<g id="edge23" class="edge">
<title>Node6&#45;&gt;Node24</title>
<path fill="none" stroke="midnightblue" d="M1209.67,-75.3C1395.58,-72.39 2066.46,-60.06 2277.5,-31 2287.42,-29.63 2298.09,-27.38 2307.69,-25.05"/>
<polygon fill="midnightblue" stroke="midnightblue" points="1209.6,-71.8 1199.65,-75.45 1209.71,-78.8 1209.6,-71.8"/>
</g>
<!-- Node25&#45;&gt;Node6 -->
<g id="edge26" class="edge">
<title>Node25&#45;&gt;Node6</title>
<path fill="none" stroke="midnightblue" d="M562.81,-465.62C549.42,-458.06 534.32,-447.41 524.5,-434 506.72,-409.71 505.5,-399.1 505.5,-369 505.5,-369 505.5,-369 505.5,-188 505.5,-120.2 578.04,-140.65 643.5,-123 734.14,-98.55 1019.45,-84.13 1123.26,-79.57"/>
<polygon fill="midnightblue" stroke="midnightblue" points="561.24,-468.75 571.71,-470.36 564.53,-462.57 561.24,-468.75"/>
</g>
<!-- Node26 -->
<g id="node26" class="node">
<title>Node26</title>
<g id="a_node26"><a xlink:href="fd__manager_8cc.html" target="_top" xlink:title="文件句柄管理类实现">
<polygon fill="white" stroke="black" points="534,-414.5 534,-433.5 649,-433.5 649,-414.5 534,-414.5"/>
<text text-anchor="middle" x="591.5" y="-421.5" font-family="Helvetica,sans-Serif" font-size="10.00">sylar/fd_manager.cc</text>
</a>
</g>
</g>
<!-- Node25&#45;&gt;Node26 -->
<g id="edge25" class="edge">
<title>Node25&#45;&gt;Node26</title>
<path fill="none" stroke="midnightblue" d="M591.5,-459.8C591.5,-450.91 591.5,-440.78 591.5,-433.75"/>
<polygon fill="midnightblue" stroke="midnightblue" points="588,-460.08 591.5,-470.08 595,-460.08 588,-460.08"/>
</g>
<!-- Node27&#45;&gt;Node4 -->
<g id="edge38" class="edge">
<title>Node27&#45;&gt;Node4</title>
<path fill="none" stroke="midnightblue" d="M1059.21,-477.01C967.89,-472.43 761.76,-459.55 696.5,-434 663.25,-420.98 631.38,-392.03 616.79,-377.57"/>
<polygon fill="midnightblue" stroke="midnightblue" points="1059.08,-480.51 1069.24,-477.5 1059.43,-473.52 1059.08,-480.51"/>
</g>
<!-- Node27&#45;&gt;Node5 -->
<g id="edge41" class="edge">
<title>Node27&#45;&gt;Node5</title>
<path fill="none" stroke="midnightblue" d="M1059.19,-477.42C989.89,-474.05 860.27,-463.84 826.5,-434 810.11,-419.52 807.51,-391.77 807.31,-377.67"/>
<polygon fill="midnightblue" stroke="midnightblue" points="1059.22,-480.93 1069.37,-477.89 1059.54,-473.93 1059.22,-480.93"/>
</g>
<!-- Node27&#45;&gt;Node6 -->
<g id="edge60" class="edge">
<title>Node27&#45;&gt;Node6</title>
<path fill="none" stroke="midnightblue" d="M1103.5,-460.25C1103.5,-438.36 1103.5,-401.05 1103.5,-369 1103.5,-369 1103.5,-369 1103.5,-188 1103.5,-145.9 1137.15,-104.11 1153.19,-86.59"/>
<polygon fill="midnightblue" stroke="midnightblue" points="1100,-460.44 1103.5,-470.44 1107,-460.44 1100,-460.44"/>
</g>
<!-- Node28 -->
<g id="node28" class="node">
<title>Node28</title>
<g id="a_node28"><a xlink:href="config_8h.html" target="_top" xlink:title="配置模块">
<polygon fill="white" stroke="black" points="835.5,-414.5 835.5,-433.5 917.5,-433.5 917.5,-414.5 835.5,-414.5"/>
<text text-anchor="middle" x="876.5" y="-421.5" font-family="Helvetica,sans-Serif" font-size="10.00">sylar/config.h</text>
</a>
</g>
</g>
<!-- Node27&#45;&gt;Node28 -->
<g id="edge28" class="edge">
<title>Node27&#45;&gt;Node28</title>
<path fill="none" stroke="midnightblue" d="M1059.15,-468.45C1016.29,-458.26 952.19,-443 912.43,-433.55"/>
<polygon fill="midnightblue" stroke="midnightblue" points="1058.49,-471.89 1069.02,-470.8 1060.11,-465.08 1058.49,-471.89"/>
</g>
<!-- Node29 -->
<g id="node29" class="node">
<title>Node29</title>
<g id="a_node29"><a xlink:href="http__parser_8cc.html" target="_top" xlink:title="HTTP协议解析实现">
<polygon fill="white" stroke="black" points="941.5,-358.5 941.5,-377.5 1075.5,-377.5 1075.5,-358.5 941.5,-358.5"/>
<text text-anchor="middle" x="1008.5" y="-365.5" font-family="Helvetica,sans-Serif" font-size="10.00">sylar/http/http_parser.cc</text>
</a>
</g>
</g>
<!-- Node27&#45;&gt;Node29 -->
<g id="edge39" class="edge">
<title>Node27&#45;&gt;Node29</title>
<path fill="none" stroke="midnightblue" d="M1089.32,-462.59C1068.84,-438.87 1031.71,-395.87 1015.92,-377.59"/>
<polygon fill="midnightblue" stroke="midnightblue" points="1086.86,-465.09 1096.05,-470.37 1092.16,-460.51 1086.86,-465.09"/>
</g>
<!-- Node32 -->
<g id="node32" class="node">
<title>Node32</title>
<g id="a_node32"><a xlink:href="iomanager_8cc.html" target="_top" xlink:title="IO协程调度器实现">
<polygon fill="white" stroke="black" points="1170,-297 1170,-316 1279,-316 1279,-297 1170,-297"/>
<text text-anchor="middle" x="1224.5" y="-304" font-family="Helvetica,sans-Serif" font-size="10.00">sylar/iomanager.cc</text>
</a>
</g>
</g>
<!-- Node27&#45;&gt;Node32 -->
<g id="edge40" class="edge">
<title>Node27&#45;&gt;Node32</title>
<path fill="none" stroke="midnightblue" d="M1140.05,-467.24C1164.41,-458.97 1196.9,-447.06 1224.5,-434 1235.66,-428.72 1314.35,-388.71 1320.5,-378 1337.8,-347.88 1291.05,-326.93 1256.87,-316.09"/>
<polygon fill="midnightblue" stroke="midnightblue" points="1138.85,-463.96 1130.48,-470.45 1141.07,-470.59 1138.85,-463.96"/>
</g>
<!-- Node33 -->
<g id="node33" class="node">
<title>Node33</title>
<g id="a_node33"><a xlink:href="macro_8h.html" target="_top" xlink:title="常用宏的封装">
<polygon fill="white" stroke="black" points="1132,-414.5 1132,-433.5 1215,-433.5 1215,-414.5 1132,-414.5"/>
<text text-anchor="middle" x="1173.5" y="-421.5" font-family="Helvetica,sans-Serif" font-size="10.00">sylar/macro.h</text>
</a>
</g>
</g>
<!-- Node27&#45;&gt;Node33 -->
<g id="edge42" class="edge">
<title>Node27&#45;&gt;Node33</title>
<path fill="none" stroke="midnightblue" d="M1122.81,-464.1C1135.41,-454.38 1151.43,-442.03 1162.05,-433.83"/>
<polygon fill="midnightblue" stroke="midnightblue" points="1120.53,-461.44 1114.75,-470.32 1124.8,-466.99 1120.53,-461.44"/>
</g>
<!-- Node35 -->
<g id="node35" class="node">
<title>Node35</title>
<g id="a_node35"><a xlink:href="scheduler_8h.html" target="_top" xlink:title="协程调度器实现">
<polygon fill="white" stroke="black" points="1478,-414.5 1478,-433.5 1577,-433.5 1577,-414.5 1478,-414.5"/>
<text text-anchor="middle" x="1527.5" y="-421.5" font-family="Helvetica,sans-Serif" font-size="10.00">sylar/scheduler.h</text>
</a>
</g>
</g>
<!-- Node27&#45;&gt;Node35 -->
<g id="edge46" class="edge">
<title>Node27&#45;&gt;Node35</title>
<path fill="none" stroke="midnightblue" d="M1147.53,-473.98C1216.18,-466.07 1352.84,-449.95 1468.5,-434 1471.58,-433.58 1474.75,-433.13 1477.94,-432.67"/>
<polygon fill="midnightblue" stroke="midnightblue" points="1147.04,-470.52 1137.51,-475.14 1147.84,-477.47 1147.04,-470.52"/>
</g>
<!-- Node40 -->
<g id="node40" class="node">
<title>Node40</title>
<g id="a_node40"><a xlink:href="thread_8cc.html" target="_top" xlink:title="线程封装实现">
<polygon fill="white" stroke="black" points="1272,-414.5 1272,-433.5 1361,-433.5 1361,-414.5 1272,-414.5"/>
<text text-anchor="middle" x="1316.5" y="-421.5" font-family="Helvetica,sans-Serif" font-size="10.00">sylar/thread.cc</text>
</a>
</g>
</g>
<!-- Node27&#45;&gt;Node40 -->
<g id="edge61" class="edge">
<title>Node27&#45;&gt;Node40</title>
<path fill="none" stroke="midnightblue" d="M1147.05,-467.96C1187.28,-457.76 1246.2,-442.82 1282.91,-433.52"/>
<polygon fill="midnightblue" stroke="midnightblue" points="1146.08,-464.59 1137.25,-470.44 1147.8,-471.38 1146.08,-464.59"/>
</g>
<!-- Node41 -->
<g id="node41" class="node">
<title>Node41</title>
<g id="a_node41"><a xlink:href="util_8cpp.html" target="_top" xlink:title="util函数实现">
<polygon fill="white" stroke="black" points="1379.5,-414.5 1379.5,-433.5 1459.5,-433.5 1459.5,-414.5 1379.5,-414.5"/>
<text text-anchor="middle" x="1419.5" y="-421.5" font-family="Helvetica,sans-Serif" font-size="10.00">sylar/util.cpp</text>
</a>
</g>
</g>
<!-- Node27&#45;&gt;Node41 -->
<g id="edge62" class="edge">
<title>Node27&#45;&gt;Node41</title>
<path fill="none" stroke="midnightblue" d="M1147.74,-471.75C1200.72,-463.02 1292.16,-447.8 1370.5,-434 1373.4,-433.49 1376.39,-432.96 1379.4,-432.42"/>
<polygon fill="midnightblue" stroke="midnightblue" points="1146.97,-468.33 1137.67,-473.41 1148.1,-475.24 1146.97,-468.33"/>
</g>
<!-- Node28&#45;&gt;Node3 -->
<g id="edge29" class="edge">
<title>Node28&#45;&gt;Node3</title>
<path fill="none" stroke="midnightblue" d="M839.68,-411.3C807.65,-401.13 761.98,-386.62 733.31,-377.52"/>
<polygon fill="midnightblue" stroke="midnightblue" points="838.97,-414.75 849.56,-414.44 841.09,-408.08 838.97,-414.75"/>
</g>
<!-- Node28&#45;&gt;Node4 -->
<g id="edge30" class="edge">
<title>Node28&#45;&gt;Node4</title>
<path fill="none" stroke="midnightblue" d="M825.09,-412.64C772.52,-402.05 692.15,-385.85 645.52,-376.46"/>
<polygon fill="midnightblue" stroke="midnightblue" points="824.72,-416.14 835.21,-414.68 826.1,-409.27 824.72,-416.14"/>
</g>
<!-- Node28&#45;&gt;Node5 -->
<g id="edge32" class="edge">
<title>Node28&#45;&gt;Node5</title>
<path fill="none" stroke="midnightblue" d="M857.46,-408.1C845.04,-398.38 829.26,-386.03 818.79,-377.83"/>
<polygon fill="midnightblue" stroke="midnightblue" points="855.38,-410.92 865.41,-414.32 859.7,-405.4 855.38,-410.92"/>
</g>
<!-- Node28&#45;&gt;Node6 -->
<g id="edge33" class="edge">
<title>Node28&#45;&gt;Node6</title>
<path fill="none" stroke="midnightblue" d="M876.24,-404.29C875.94,-381.45 875.5,-341.64 875.5,-307.5 875.5,-307.5 875.5,-307.5 875.5,-188 875.5,-135.53 1045.29,-98.61 1123.23,-84.43"/>
<polygon fill="midnightblue" stroke="midnightblue" points="872.74,-404.35 876.37,-414.31 879.74,-404.26 872.74,-404.35"/>
</g>
<!-- Node28&#45;&gt;Node29 -->
<g id="edge31" class="edge">
<title>Node28&#45;&gt;Node29</title>
<path fill="none" stroke="midnightblue" d="M906.72,-410.64C931.49,-400.5 965.9,-386.43 987.68,-377.52"/>
<polygon fill="midnightblue" stroke="midnightblue" points="905.35,-407.42 897.42,-414.44 908,-413.9 905.35,-407.42"/>
</g>
<!-- Node30 -->
<g id="node30" class="node">
<title>Node30</title>
<g id="a_node30"><a xlink:href="tcp__server_8h.html" target="_top" xlink:title="TCP服务器的封装">
<polygon fill="white" stroke="black" points="1174,-235.5 1174,-254.5 1277,-254.5 1277,-235.5 1174,-235.5"/>
<text text-anchor="middle" x="1225.5" y="-242.5" font-family="Helvetica,sans-Serif" font-size="10.00">sylar/tcp_server.h</text>
</a>
</g>
</g>
<!-- Node28&#45;&gt;Node30 -->
<g id="edge34" class="edge">
<title>Node28&#45;&gt;Node30</title>
<path fill="none" stroke="midnightblue" d="M887.76,-405.67C897.93,-391.2 914.1,-370.92 932.5,-358 1013.38,-301.18 1126.85,-268.63 1186.05,-254.5"/>
<polygon fill="midnightblue" stroke="midnightblue" points="884.69,-403.96 881.98,-414.21 890.48,-407.89 884.69,-403.96"/>
</g>
<!-- Node30&#45;&gt;Node6 -->
<g id="edge37" class="edge">
<title>Node30&#45;&gt;Node6</title>
<path fill="none" stroke="midnightblue" d="M1218.33,-225.39C1204.52,-189.59 1174.74,-112.34 1164.8,-86.57"/>
<polygon fill="midnightblue" stroke="midnightblue" points="1215.2,-227 1222.06,-235.08 1221.73,-224.49 1215.2,-227"/>
</g>
<!-- Node31 -->
<g id="node31" class="node">
<title>Node31</title>
<g id="a_node31"><a xlink:href="http__server_8h.html" target="_top" xlink:title="HTTP服务器封装">
<polygon fill="white" stroke="black" points="1252.5,-123.5 1252.5,-142.5 1382.5,-142.5 1382.5,-123.5 1252.5,-123.5"/>
<text text-anchor="middle" x="1317.5" y="-130.5" font-family="Helvetica,sans-Serif" font-size="10.00">sylar/http/http_server.h</text>
</a>
</g>
</g>
<!-- Node30&#45;&gt;Node31 -->
<g id="edge35" class="edge">
<title>Node30&#45;&gt;Node31</title>
<path fill="none" stroke="midnightblue" d="M1239.23,-227.59C1259.06,-203.87 1295.03,-160.87 1310.31,-142.59"/>
<polygon fill="midnightblue" stroke="midnightblue" points="1236.45,-225.45 1232.72,-235.37 1241.82,-229.94 1236.45,-225.45"/>
</g>
<!-- Node31&#45;&gt;Node6 -->
<g id="edge36" class="edge">
<title>Node31&#45;&gt;Node6</title>
<path fill="none" stroke="midnightblue" d="M1283.33,-120.17C1253.96,-110 1212.3,-95.59 1186.1,-86.52"/>
<polygon fill="midnightblue" stroke="midnightblue" points="1282.19,-123.48 1292.78,-123.44 1284.48,-116.86 1282.19,-123.48"/>
</g>
<!-- Node33&#45;&gt;Node6 -->
<g id="edge45" class="edge">
<title>Node33&#45;&gt;Node6</title>
<path fill="none" stroke="midnightblue" d="M1165.25,-405C1155.77,-382.63 1141.5,-343.07 1141.5,-307.5 1141.5,-307.5 1141.5,-307.5 1141.5,-188 1141.5,-149.76 1153.34,-105.23 1158.8,-86.74"/>
<polygon fill="midnightblue" stroke="midnightblue" points="1162.09,-406.5 1169.32,-414.24 1168.49,-403.68 1162.09,-406.5"/>
</g>
<!-- Node33&#45;&gt;Node32 -->
<g id="edge43" class="edge">
<title>Node33&#45;&gt;Node32</title>
<path fill="none" stroke="midnightblue" d="M1179.92,-404.75C1184.69,-391.6 1191.55,-373.52 1198.5,-358 1205.19,-343.06 1214.14,-326.26 1219.6,-316.3"/>
<polygon fill="midnightblue" stroke="midnightblue" points="1176.52,-403.87 1176.45,-414.47 1183.11,-406.23 1176.52,-403.87"/>
</g>
<!-- Node34 -->
<g id="node34" class="node">
<title>Node34</title>
<g id="a_node34"><a xlink:href="scheduler_8cc.html" target="_top" xlink:title="协程调度器实现">
<polygon fill="white" stroke="black" points="1207.5,-358.5 1207.5,-377.5 1311.5,-377.5 1311.5,-358.5 1207.5,-358.5"/>
<text text-anchor="middle" x="1259.5" y="-365.5" font-family="Helvetica,sans-Serif" font-size="10.00">sylar/scheduler.cc</text>
</a>
</g>
</g>
<!-- Node33&#45;&gt;Node34 -->
<g id="edge44" class="edge">
<title>Node33&#45;&gt;Node34</title>
<path fill="none" stroke="midnightblue" d="M1195.95,-408.9C1211.72,-399 1232.31,-386.07 1245.72,-377.65"/>
<polygon fill="midnightblue" stroke="midnightblue" points="1193.93,-406.04 1187.32,-414.32 1197.65,-411.97 1193.93,-406.04"/>
</g>
<!-- Node35&#45;&gt;Node6 -->
<g id="edge59" class="edge">
<title>Node35&#45;&gt;Node6</title>
<path fill="none" stroke="midnightblue" d="M1526.45,-404.3C1525.27,-381.46 1523.5,-341.66 1523.5,-307.5 1523.5,-307.5 1523.5,-307.5 1523.5,-188 1523.5,-140.79 1482.8,-141.8 1439.5,-123 1359,-88.06 1254.71,-79.99 1199.57,-78.29"/>
<polygon fill="midnightblue" stroke="midnightblue" points="1522.96,-404.51 1526.99,-414.31 1529.95,-404.14 1522.96,-404.51"/>
</g>
<!-- Node35&#45;&gt;Node34 -->
<g id="edge58" class="edge">
<title>Node35&#45;&gt;Node34</title>
<path fill="none" stroke="midnightblue" d="M1474.94,-412.41C1424.29,-402.2 1348.63,-386.96 1301.77,-377.52"/>
<polygon fill="midnightblue" stroke="midnightblue" points="1474.54,-415.9 1485.03,-414.44 1475.92,-409.04 1474.54,-415.9"/>
</g>
<!-- Node36 -->
<g id="node36" class="node">
<title>Node36</title>
<g id="a_node36"><a xlink:href="iomanager_8h.html" target="_top" xlink:title="IO协程调度器">
<polygon fill="white" stroke="black" points="1367.5,-358.5 1367.5,-377.5 1471.5,-377.5 1471.5,-358.5 1367.5,-358.5"/>
<text text-anchor="middle" x="1419.5" y="-365.5" font-family="Helvetica,sans-Serif" font-size="10.00">sylar/iomanager.h</text>
</a>
</g>
</g>
<!-- Node35&#45;&gt;Node36 -->
<g id="edge47" class="edge">
<title>Node35&#45;&gt;Node36</title>
<path fill="none" stroke="midnightblue" d="M1500.95,-409.73C1480.95,-399.73 1454.11,-386.31 1436.81,-377.65"/>
<polygon fill="midnightblue" stroke="midnightblue" points="1499.64,-412.98 1510.15,-414.32 1502.77,-406.72 1499.64,-412.98"/>
</g>
<!-- Node36&#45;&gt;Node6 -->
<g id="edge56" class="edge">
<title>Node36&#45;&gt;Node6</title>
<path fill="none" stroke="midnightblue" d="M1399.55,-352.17C1388.75,-343.79 1375.42,-332.83 1364.5,-322 1320.78,-278.64 1198.67,-125.01 1168.37,-86.7"/>
<polygon fill="midnightblue" stroke="midnightblue" points="1397.5,-355.01 1407.58,-358.3 1401.75,-349.45 1397.5,-355.01"/>
</g>
<!-- Node36&#45;&gt;Node30 -->
<g id="edge57" class="edge">
<title>Node36&#45;&gt;Node30</title>
<path fill="none" stroke="midnightblue" d="M1391.69,-354.12C1374.07,-345.64 1351.02,-333.93 1331.5,-322 1311.4,-309.71 1307.64,-304.74 1288.5,-291 1270.81,-278.3 1250.28,-263.66 1237.59,-254.61"/>
<polygon fill="midnightblue" stroke="midnightblue" points="1390.32,-357.35 1400.86,-358.48 1393.33,-351.03 1390.32,-357.35"/>
</g>
<!-- Node36&#45;&gt;Node32 -->
<g id="edge48" class="edge">
<title>Node36&#45;&gt;Node32</title>
<path fill="none" stroke="midnightblue" d="M1381.9,-355.53C1344.01,-343.96 1286.39,-326.38 1252.39,-316.01"/>
<polygon fill="midnightblue" stroke="midnightblue" points="1380.98,-358.9 1391.56,-358.48 1383.02,-352.21 1380.98,-358.9"/>
</g>
<!-- Node37 -->
<g id="node37" class="node">
<title>Node37</title>
<g id="a_node37"><a xlink:href="socket__stream_8h.html" target="_top" xlink:title="Socket流式接口封装">
<polygon fill="white" stroke="black" points="1373.5,-291.5 1373.5,-321.5 1491.5,-321.5 1491.5,-291.5 1373.5,-291.5"/>
<text text-anchor="start" x="1381.5" y="-309.5" font-family="Helvetica,sans-Serif" font-size="10.00">sylar/streams/socket</text>
<text text-anchor="middle" x="1432.5" y="-298.5" font-family="Helvetica,sans-Serif" font-size="10.00">_stream.h</text>
</a>
</g>
</g>
<!-- Node36&#45;&gt;Node37 -->
<g id="edge49" class="edge">
<title>Node36&#45;&gt;Node37</title>
<path fill="none" stroke="midnightblue" d="M1423.54,-348.53C1425.44,-339.81 1427.67,-329.59 1429.44,-321.52"/>
<polygon fill="midnightblue" stroke="midnightblue" points="1420.08,-347.96 1421.36,-358.48 1426.92,-349.45 1420.08,-347.96"/>
</g>
<!-- Node38 -->
<g id="node38" class="node">
<title>Node38</title>
<g id="a_node38"><a xlink:href="http__session_8h.html" target="_top" xlink:title="HTTPSession封装">
<polygon fill="white" stroke="black" points="1355,-235.5 1355,-254.5 1492,-254.5 1492,-235.5 1355,-235.5"/>
<text text-anchor="middle" x="1423.5" y="-242.5" font-family="Helvetica,sans-Serif" font-size="10.00">sylar/http/http_session.h</text>
</a>
</g>
</g>
<!-- Node37&#45;&gt;Node38 -->
<g id="edge50" class="edge">
<title>Node37&#45;&gt;Node38</title>
<path fill="none" stroke="midnightblue" d="M1428.84,-281.29C1427.41,-271.86 1425.87,-261.65 1424.81,-254.66"/>
<polygon fill="midnightblue" stroke="midnightblue" points="1425.41,-282.04 1430.37,-291.4 1432.33,-280.99 1425.41,-282.04"/>
</g>
<!-- Node38&#45;&gt;Node6 -->
<g id="edge55" class="edge">
<title>Node38&#45;&gt;Node6</title>
<path fill="none" stroke="midnightblue" d="M1443.43,-228.61C1457.21,-215.95 1471.85,-197.2 1464.5,-179 1451.56,-146.94 1440.99,-139.31 1410.5,-123 1342.52,-86.64 1250.72,-78.98 1199.71,-77.76"/>
<polygon fill="midnightblue" stroke="midnightblue" points="1440.92,-226.15 1435.58,-235.3 1445.46,-231.47 1440.92,-226.15"/>
</g>
<!-- Node38&#45;&gt;Node31 -->
<g id="edge51" class="edge">
<title>Node38&#45;&gt;Node31</title>
<path fill="none" stroke="midnightblue" d="M1385.04,-231.56C1368.35,-224.41 1349.84,-213.84 1337.5,-199 1323.61,-182.3 1319.36,-156.02 1318.06,-142.57"/>
<polygon fill="midnightblue" stroke="midnightblue" points="1384.01,-234.91 1394.6,-235.38 1386.61,-228.41 1384.01,-234.91"/>
</g>
<!-- Node39 -->
<g id="node39" class="node">
<title>Node39</title>
<g id="a_node39"><a xlink:href="servlet_8h.html" target="_top" xlink:title="Servlet封装">
<polygon fill="white" stroke="black" points="1346,-179.5 1346,-198.5 1455,-198.5 1455,-179.5 1346,-179.5"/>
<text text-anchor="middle" x="1400.5" y="-186.5" font-family="Helvetica,sans-Serif" font-size="10.00">sylar/http/servlet.h</text>
</a>
</g>
</g>
<!-- Node38&#45;&gt;Node39 -->
<g id="edge52" class="edge">
<title>Node38&#45;&gt;Node39</title>
<path fill="none" stroke="midnightblue" d="M1415.7,-225.69C1411.82,-216.59 1407.32,-206.01 1404.23,-198.75"/>
<polygon fill="midnightblue" stroke="midnightblue" points="1412.56,-227.25 1419.7,-235.08 1419,-224.51 1412.56,-227.25"/>
</g>
<!-- Node39&#45;&gt;Node6 -->
<g id="edge54" class="edge">
<title>Node39&#45;&gt;Node6</title>
<path fill="none" stroke="midnightblue" d="M1403.29,-168.76C1404.23,-154.31 1402.87,-135.02 1391.5,-123 1365.78,-95.81 1258.21,-84.46 1199.74,-80.22"/>
<polygon fill="midnightblue" stroke="midnightblue" points="1399.77,-168.76 1402.18,-179.08 1406.73,-169.51 1399.77,-168.76"/>
</g>
<!-- Node39&#45;&gt;Node31 -->
<g id="edge53" class="edge">
<title>Node39&#45;&gt;Node31</title>
<path fill="none" stroke="midnightblue" d="M1378.4,-173.62C1363.24,-163.76 1343.62,-150.99 1330.8,-142.65"/>
<polygon fill="midnightblue" stroke="midnightblue" points="1376.87,-176.8 1387.16,-179.32 1380.69,-170.94 1376.87,-176.8"/>
</g>
</g>
</svg>
