<?xml version="1.0" encoding="UTF-8" standalone="no"?>
<!DOCTYPE svg PUBLIC "-//W3C//DTD SVG 1.1//EN"
 "http://www.w3.org/Graphics/SVG/1.1/DTD/svg11.dtd">
<!-- Generated by graphviz version 2.43.0 (0)
 -->
<!-- Title: sylar/socket.h Pages: 1 -->
<svg width="751pt" height="140pt"
 viewBox="0.00 0.00 750.50 140.00" xmlns="http://www.w3.org/2000/svg" xmlns:xlink="http://www.w3.org/1999/xlink">
<g id="graph0" class="graph" transform="scale(1 1) rotate(0) translate(4 136)">
<title>sylar/socket.h</title>
<polygon fill="white" stroke="transparent" points="-4,4 -4,-136 746.5,-136 746.5,4 -4,4"/>
<!-- Node1 -->
<g id="node1" class="node">
<title>Node1</title>
<g id="a_node1"><a xlink:title="Socket封装">
<polygon fill="#bfbfbf" stroke="black" points="223,-112.5 223,-131.5 307,-131.5 307,-112.5 223,-112.5"/>
<text text-anchor="middle" x="265" y="-119.5" font-family="Helvetica,sans-Serif" font-size="10.00">sylar/socket.h</text>
</a>
</g>
</g>
<!-- Node2 -->
<g id="node2" class="node">
<title>Node2</title>
<g id="a_node2"><a xlink:title=" ">
<polygon fill="white" stroke="#bfbfbf" points="0,-0.5 0,-19.5 58,-19.5 58,-0.5 0,-0.5"/>
<text text-anchor="middle" x="29" y="-7.5" font-family="Helvetica,sans-Serif" font-size="10.00">memory</text>
</a>
</g>
</g>
<!-- Node1&#45;&gt;Node2 -->
<g id="edge1" class="edge">
<title>Node1&#45;&gt;Node2</title>
<path fill="none" stroke="midnightblue" d="M246.48,-112.37C205.21,-93.13 105.48,-46.65 56.74,-23.93"/>
<polygon fill="midnightblue" stroke="midnightblue" points="57.97,-20.64 47.43,-19.59 55.02,-26.99 57.97,-20.64"/>
</g>
<!-- Node3 -->
<g id="node3" class="node">
<title>Node3</title>
<g id="a_node3"><a xlink:title=" ">
<polygon fill="white" stroke="#bfbfbf" points="346,-56.5 346,-75.5 424,-75.5 424,-56.5 346,-56.5"/>
<text text-anchor="middle" x="385" y="-63.5" font-family="Helvetica,sans-Serif" font-size="10.00">netinet/tcp.h</text>
</a>
</g>
</g>
<!-- Node1&#45;&gt;Node3 -->
<g id="edge2" class="edge">
<title>Node1&#45;&gt;Node3</title>
<path fill="none" stroke="midnightblue" d="M284.01,-112.44C303.59,-103.64 334.31,-89.81 356.73,-79.72"/>
<polygon fill="midnightblue" stroke="midnightblue" points="358.39,-82.81 366.07,-75.52 355.52,-76.43 358.39,-82.81"/>
</g>
<!-- Node4 -->
<g id="node4" class="node">
<title>Node4</title>
<g id="a_node4"><a xlink:title=" ">
<polygon fill="white" stroke="#bfbfbf" points="76,-0.5 76,-19.5 148,-19.5 148,-0.5 76,-0.5"/>
<text text-anchor="middle" x="112" y="-7.5" font-family="Helvetica,sans-Serif" font-size="10.00">sys/types.h</text>
</a>
</g>
</g>
<!-- Node1&#45;&gt;Node4 -->
<g id="edge3" class="edge">
<title>Node1&#45;&gt;Node4</title>
<path fill="none" stroke="midnightblue" d="M252.99,-112.37C226.85,-93.57 164.53,-48.77 132.21,-25.53"/>
<polygon fill="midnightblue" stroke="midnightblue" points="134.11,-22.59 123.95,-19.59 130.03,-28.27 134.11,-22.59"/>
</g>
<!-- Node5 -->
<g id="node5" class="node">
<title>Node5</title>
<g id="a_node5"><a xlink:title=" ">
<polygon fill="white" stroke="#bfbfbf" points="166.5,-0.5 166.5,-19.5 243.5,-19.5 243.5,-0.5 166.5,-0.5"/>
<text text-anchor="middle" x="205" y="-7.5" font-family="Helvetica,sans-Serif" font-size="10.00">sys/socket.h</text>
</a>
</g>
</g>
<!-- Node1&#45;&gt;Node5 -->
<g id="edge4" class="edge">
<title>Node1&#45;&gt;Node5</title>
<path fill="none" stroke="midnightblue" d="M260.29,-112.37C250.48,-94.38 227.66,-52.55 214.61,-28.63"/>
<polygon fill="midnightblue" stroke="midnightblue" points="217.55,-26.69 209.69,-19.59 211.4,-30.05 217.55,-26.69"/>
</g>
<!-- Node6 -->
<g id="node6" class="node">
<title>Node6</title>
<g id="a_node6"><a xlink:href="address_8h.html" target="_top" xlink:title="网络地址的封装(IPv4,IPv6,Unix)">
<polygon fill="white" stroke="black" points="264,-56.5 264,-75.5 328,-75.5 328,-56.5 264,-56.5"/>
<text text-anchor="middle" x="296" y="-63.5" font-family="Helvetica,sans-Serif" font-size="10.00">address.h</text>
</a>
</g>
</g>
<!-- Node1&#45;&gt;Node6 -->
<g id="edge5" class="edge">
<title>Node1&#45;&gt;Node6</title>
<path fill="none" stroke="midnightblue" d="M270.12,-112.08C274.41,-104.61 280.66,-93.72 285.94,-84.52"/>
<polygon fill="midnightblue" stroke="midnightblue" points="289.03,-86.17 290.98,-75.75 282.96,-82.68 289.03,-86.17"/>
</g>
<!-- Node14 -->
<g id="node14" class="node">
<title>Node14</title>
<g id="a_node14"><a xlink:href="noncopyable_8h.html" target="_top" xlink:title="不可拷贝对象封装">
<polygon fill="white" stroke="black" points="442,-56.5 442,-75.5 530,-75.5 530,-56.5 442,-56.5"/>
<text text-anchor="middle" x="486" y="-63.5" font-family="Helvetica,sans-Serif" font-size="10.00">noncopyable.h</text>
</a>
</g>
</g>
<!-- Node1&#45;&gt;Node14 -->
<g id="edge16" class="edge">
<title>Node1&#45;&gt;Node14</title>
<path fill="none" stroke="midnightblue" d="M300.02,-112.44C338.25,-103.1 399.57,-88.12 441.26,-77.93"/>
<polygon fill="midnightblue" stroke="midnightblue" points="442.26,-81.29 451.15,-75.52 440.6,-74.49 442.26,-81.29"/>
</g>
<!-- Node6&#45;&gt;Node2 -->
<g id="edge6" class="edge">
<title>Node6&#45;&gt;Node2</title>
<path fill="none" stroke="midnightblue" d="M263.68,-59.06C221.17,-51.15 143.9,-36.47 68.2,-20.2"/>
<polygon fill="midnightblue" stroke="midnightblue" points="68.53,-16.69 58.02,-17.99 67.05,-23.53 68.53,-16.69"/>
</g>
<!-- Node6&#45;&gt;Node4 -->
<g id="edge8" class="edge">
<title>Node6&#45;&gt;Node4</title>
<path fill="none" stroke="midnightblue" d="M266.84,-56.44C235.49,-47.24 185.47,-32.56 150.8,-22.39"/>
<polygon fill="midnightblue" stroke="midnightblue" points="151.6,-18.97 141.02,-19.52 149.63,-25.69 151.6,-18.97"/>
</g>
<!-- Node6&#45;&gt;Node5 -->
<g id="edge9" class="edge">
<title>Node6&#45;&gt;Node5</title>
<path fill="none" stroke="midnightblue" d="M281.38,-56.32C267.05,-47.82 244.99,-34.73 228.25,-24.8"/>
<polygon fill="midnightblue" stroke="midnightblue" points="229.97,-21.75 219.58,-19.65 226.4,-27.77 229.97,-21.75"/>
</g>
<!-- Node7 -->
<g id="node7" class="node">
<title>Node7</title>
<g id="a_node7"><a xlink:title=" ">
<polygon fill="white" stroke="#bfbfbf" points="623,-0.5 623,-19.5 667,-19.5 667,-0.5 623,-0.5"/>
<text text-anchor="middle" x="645" y="-7.5" font-family="Helvetica,sans-Serif" font-size="10.00">string</text>
</a>
</g>
</g>
<!-- Node6&#45;&gt;Node7 -->
<g id="edge7" class="edge">
<title>Node6&#45;&gt;Node7</title>
<path fill="none" stroke="midnightblue" d="M328.18,-57.66C331.15,-57.06 334.13,-56.5 337,-56 456.08,-35.23 490.66,-44.84 612.65,-20"/>
<polygon fill="midnightblue" stroke="midnightblue" points="613.67,-23.36 622.75,-17.9 612.25,-16.5 613.67,-23.36"/>
</g>
<!-- Node8 -->
<g id="node8" class="node">
<title>Node8</title>
<g id="a_node8"><a xlink:title=" ">
<polygon fill="white" stroke="#bfbfbf" points="685.5,-0.5 685.5,-19.5 742.5,-19.5 742.5,-0.5 685.5,-0.5"/>
<text text-anchor="middle" x="714" y="-7.5" font-family="Helvetica,sans-Serif" font-size="10.00">sys/un.h</text>
</a>
</g>
</g>
<!-- Node6&#45;&gt;Node8 -->
<g id="edge10" class="edge">
<title>Node6&#45;&gt;Node8</title>
<path fill="none" stroke="midnightblue" d="M328.16,-57.59C331.14,-57.01 334.12,-56.47 337,-56 483.34,-32.24 524.88,-44.94 675.37,-19.88"/>
<polygon fill="midnightblue" stroke="midnightblue" points="676.17,-23.29 685.45,-18.17 675,-16.39 676.17,-23.29"/>
</g>
<!-- Node9 -->
<g id="node9" class="node">
<title>Node9</title>
<g id="a_node9"><a xlink:title=" ">
<polygon fill="white" stroke="#bfbfbf" points="261.5,-0.5 261.5,-19.5 330.5,-19.5 330.5,-0.5 261.5,-0.5"/>
<text text-anchor="middle" x="296" y="-7.5" font-family="Helvetica,sans-Serif" font-size="10.00">arpa/inet.h</text>
</a>
</g>
</g>
<!-- Node6&#45;&gt;Node9 -->
<g id="edge11" class="edge">
<title>Node6&#45;&gt;Node9</title>
<path fill="none" stroke="midnightblue" d="M296,-56.08C296,-49.01 296,-38.86 296,-29.99"/>
<polygon fill="midnightblue" stroke="midnightblue" points="299.5,-29.75 296,-19.75 292.5,-29.75 299.5,-29.75"/>
</g>
<!-- Node10 -->
<g id="node10" class="node">
<title>Node10</title>
<g id="a_node10"><a xlink:title=" ">
<polygon fill="white" stroke="#bfbfbf" points="349,-0.5 349,-19.5 405,-19.5 405,-0.5 349,-0.5"/>
<text text-anchor="middle" x="377" y="-7.5" font-family="Helvetica,sans-Serif" font-size="10.00">unistd.h</text>
</a>
</g>
</g>
<!-- Node6&#45;&gt;Node10 -->
<g id="edge12" class="edge">
<title>Node6&#45;&gt;Node10</title>
<path fill="none" stroke="midnightblue" d="M309.01,-56.32C321.53,-47.98 340.68,-35.21 355.47,-25.35"/>
<polygon fill="midnightblue" stroke="midnightblue" points="357.64,-28.11 364.02,-19.65 353.76,-22.29 357.64,-28.11"/>
</g>
<!-- Node11 -->
<g id="node11" class="node">
<title>Node11</title>
<g id="a_node11"><a xlink:title=" ">
<polygon fill="white" stroke="#bfbfbf" points="423,-0.5 423,-19.5 483,-19.5 483,-0.5 423,-0.5"/>
<text text-anchor="middle" x="453" y="-7.5" font-family="Helvetica,sans-Serif" font-size="10.00">iostream</text>
</a>
</g>
</g>
<!-- Node6&#45;&gt;Node11 -->
<g id="edge13" class="edge">
<title>Node6&#45;&gt;Node11</title>
<path fill="none" stroke="midnightblue" d="M320.88,-56.44C347.29,-47.36 389.22,-32.94 418.74,-22.78"/>
<polygon fill="midnightblue" stroke="midnightblue" points="419.92,-26.08 428.24,-19.52 417.64,-19.46 419.92,-26.08"/>
</g>
<!-- Node12 -->
<g id="node12" class="node">
<title>Node12</title>
<g id="a_node12"><a xlink:title=" ">
<polygon fill="white" stroke="#bfbfbf" points="501.5,-0.5 501.5,-19.5 548.5,-19.5 548.5,-0.5 501.5,-0.5"/>
<text text-anchor="middle" x="525" y="-7.5" font-family="Helvetica,sans-Serif" font-size="10.00">vector</text>
</a>
</g>
</g>
<!-- Node6&#45;&gt;Node12 -->
<g id="edge14" class="edge">
<title>Node6&#45;&gt;Node12</title>
<path fill="none" stroke="midnightblue" d="M328.33,-57.75C371.99,-47.92 448.44,-30.62 491.35,-20.07"/>
<polygon fill="midnightblue" stroke="midnightblue" points="492.38,-23.42 501.24,-17.6 490.69,-16.63 492.38,-23.42"/>
</g>
<!-- Node13 -->
<g id="node13" class="node">
<title>Node13</title>
<g id="a_node13"><a xlink:title=" ">
<polygon fill="white" stroke="#bfbfbf" points="567,-0.5 567,-19.5 605,-19.5 605,-0.5 567,-0.5"/>
<text text-anchor="middle" x="586" y="-7.5" font-family="Helvetica,sans-Serif" font-size="10.00">map</text>
</a>
</g>
</g>
<!-- Node6&#45;&gt;Node13 -->
<g id="edge15" class="edge">
<title>Node6&#45;&gt;Node13</title>
<path fill="none" stroke="midnightblue" d="M328.19,-57.76C331.17,-57.14 334.14,-56.55 337,-56 431.6,-37.93 459.47,-42.93 556.86,-19.97"/>
<polygon fill="midnightblue" stroke="midnightblue" points="557.92,-23.31 566.83,-17.58 556.29,-16.51 557.92,-23.31"/>
</g>
</g>
</svg>
