<?xml version="1.0" encoding="UTF-8" standalone="no"?>
<!DOCTYPE svg PUBLIC "-//W3C//DTD SVG 1.1//EN"
 "http://www.w3.org/Graphics/SVG/1.1/DTD/svg11.dtd">
<!-- Generated by graphviz version 2.43.0 (0)
 -->
<!-- Title: sylar/streams/socket_stream.h Pages: 1 -->
<svg width="1713pt" height="375pt"
 viewBox="0.00 0.00 1712.50 375.00" xmlns="http://www.w3.org/2000/svg" xmlns:xlink="http://www.w3.org/1999/xlink">
<g id="graph0" class="graph" transform="scale(1 1) rotate(0) translate(4 371)">
<title>sylar/streams/socket_stream.h</title>
<polygon fill="white" stroke="transparent" points="-4,4 -4,-371 1708.5,-371 1708.5,4 -4,4"/>
<!-- Node1 -->
<g id="node1" class="node">
<title>Node1</title>
<g id="a_node1"><a xlink:title="Socket流式接口封装">
<polygon fill="#bfbfbf" stroke="black" points="1233,-336.5 1233,-366.5 1351,-366.5 1351,-336.5 1233,-336.5"/>
<text text-anchor="start" x="1241" y="-354.5" font-family="Helvetica,sans-Serif" font-size="10.00">sylar/streams/socket</text>
<text text-anchor="middle" x="1292" y="-343.5" font-family="Helvetica,sans-Serif" font-size="10.00">_stream.h</text>
</a>
</g>
</g>
<!-- Node2 -->
<g id="node2" class="node">
<title>Node2</title>
<g id="a_node2"><a xlink:href="stream_8h.html" target="_top" xlink:title="流接口">
<polygon fill="white" stroke="black" points="1635.5,-112.5 1635.5,-131.5 1704.5,-131.5 1704.5,-112.5 1635.5,-112.5"/>
<text text-anchor="middle" x="1670" y="-119.5" font-family="Helvetica,sans-Serif" font-size="10.00">../stream.h</text>
</a>
</g>
</g>
<!-- Node1&#45;&gt;Node2 -->
<g id="edge1" class="edge">
<title>Node1&#45;&gt;Node2</title>
<path fill="none" stroke="midnightblue" d="M1315.36,-336.44C1383.16,-295.64 1579.4,-177.53 1646.89,-136.91"/>
<polygon fill="midnightblue" stroke="midnightblue" points="1648.76,-139.87 1655.53,-131.71 1645.15,-133.87 1648.76,-139.87"/>
</g>
<!-- Node10 -->
<g id="node10" class="node">
<title>Node10</title>
<g id="a_node10"><a xlink:href="socket_8h.html" target="_top" xlink:title="Socket封装">
<polygon fill="white" stroke="black" points="420,-112.5 420,-131.5 486,-131.5 486,-112.5 420,-112.5"/>
<text text-anchor="middle" x="453" y="-119.5" font-family="Helvetica,sans-Serif" font-size="10.00">../socket.h</text>
</a>
</g>
</g>
<!-- Node1&#45;&gt;Node10 -->
<g id="edge10" class="edge">
<title>Node1&#45;&gt;Node10</title>
<path fill="none" stroke="midnightblue" d="M1240.15,-336.44C1086.27,-294.71 634.22,-172.14 494.58,-134.27"/>
<polygon fill="midnightblue" stroke="midnightblue" points="495.26,-130.83 484.69,-131.59 493.43,-137.59 495.26,-130.83"/>
</g>
<!-- Node19 -->
<g id="node19" class="node">
<title>Node19</title>
<g id="a_node19"><a xlink:href="mutex_8h.html" target="_top" xlink:title="信号量，互斥锁，读写锁，范围锁模板，自旋锁，原子锁">
<polygon fill="white" stroke="black" points="1154,-56.5 1154,-75.5 1220,-75.5 1220,-56.5 1154,-56.5"/>
<text text-anchor="middle" x="1187" y="-63.5" font-family="Helvetica,sans-Serif" font-size="10.00">../mutex.h</text>
</a>
</g>
</g>
<!-- Node1&#45;&gt;Node19 -->
<g id="edge27" class="edge">
<title>Node1&#45;&gt;Node19</title>
<path fill="none" stroke="midnightblue" d="M1299.46,-336.36C1310,-315.01 1328,-273.02 1328,-235 1328,-235 1328,-235 1328,-177 1328,-125.26 1268.26,-94.27 1226.55,-78.94"/>
<polygon fill="midnightblue" stroke="midnightblue" points="1227.5,-75.56 1216.9,-75.55 1225.18,-82.17 1227.5,-75.56"/>
</g>
<!-- Node26 -->
<g id="node26" class="node">
<title>Node26</title>
<g id="a_node26"><a xlink:href="iomanager_8h.html" target="_top" xlink:title="IO协程调度器">
<polygon fill="white" stroke="black" points="1214,-280.5 1214,-299.5 1300,-299.5 1300,-280.5 1214,-280.5"/>
<text text-anchor="middle" x="1257" y="-287.5" font-family="Helvetica,sans-Serif" font-size="10.00">../iomanager.h</text>
</a>
</g>
</g>
<!-- Node1&#45;&gt;Node26 -->
<g id="edge37" class="edge">
<title>Node1&#45;&gt;Node26</title>
<path fill="none" stroke="midnightblue" d="M1283.71,-336.4C1278.78,-328.02 1272.49,-317.33 1267.25,-308.42"/>
<polygon fill="midnightblue" stroke="midnightblue" points="1270.18,-306.5 1262.09,-299.66 1264.15,-310.05 1270.18,-306.5"/>
</g>
<!-- Node3 -->
<g id="node3" class="node">
<title>Node3</title>
<g id="a_node3"><a xlink:title=" ">
<polygon fill="white" stroke="#bfbfbf" points="1470,-0.5 1470,-19.5 1528,-19.5 1528,-0.5 1470,-0.5"/>
<text text-anchor="middle" x="1499" y="-7.5" font-family="Helvetica,sans-Serif" font-size="10.00">memory</text>
</a>
</g>
</g>
<!-- Node2&#45;&gt;Node3 -->
<g id="edge2" class="edge">
<title>Node2&#45;&gt;Node3</title>
<path fill="none" stroke="midnightblue" d="M1666.8,-112.08C1661.37,-98.15 1649.03,-71.24 1630,-56 1603.33,-34.65 1565.92,-23.14 1537.9,-17.12"/>
<polygon fill="midnightblue" stroke="midnightblue" points="1538.54,-13.68 1528.04,-15.14 1537.16,-20.54 1538.54,-13.68"/>
</g>
<!-- Node4 -->
<g id="node4" class="node">
<title>Node4</title>
<g id="a_node4"><a xlink:href="bytearray_8h.html" target="_top" xlink:title="二进制数组(序列化/反序列化)">
<polygon fill="white" stroke="black" points="950.5,-56.5 950.5,-75.5 1021.5,-75.5 1021.5,-56.5 950.5,-56.5"/>
<text text-anchor="middle" x="986" y="-63.5" font-family="Helvetica,sans-Serif" font-size="10.00">bytearray.h</text>
</a>
</g>
</g>
<!-- Node2&#45;&gt;Node4 -->
<g id="edge3" class="edge">
<title>Node2&#45;&gt;Node4</title>
<path fill="none" stroke="midnightblue" d="M1635.45,-117.4C1618.45,-115.67 1597.66,-113.63 1579,-112 1375.1,-94.18 1131.41,-76.98 1031.81,-70.12"/>
<polygon fill="midnightblue" stroke="midnightblue" points="1032,-66.62 1021.78,-69.43 1031.52,-73.61 1032,-66.62"/>
</g>
<!-- Node4&#45;&gt;Node3 -->
<g id="edge4" class="edge">
<title>Node4&#45;&gt;Node3</title>
<path fill="none" stroke="midnightblue" d="M1021.67,-63.31C1099.5,-59.25 1290.5,-47.34 1459.55,-20.03"/>
<polygon fill="midnightblue" stroke="midnightblue" points="1460.32,-23.45 1469.62,-18.38 1459.19,-16.54 1460.32,-23.45"/>
</g>
<!-- Node5 -->
<g id="node5" class="node">
<title>Node5</title>
<g id="a_node5"><a xlink:title=" ">
<polygon fill="white" stroke="#bfbfbf" points="718,-0.5 718,-19.5 762,-19.5 762,-0.5 718,-0.5"/>
<text text-anchor="middle" x="740" y="-7.5" font-family="Helvetica,sans-Serif" font-size="10.00">string</text>
</a>
</g>
</g>
<!-- Node4&#45;&gt;Node5 -->
<g id="edge5" class="edge">
<title>Node4&#45;&gt;Node5</title>
<path fill="none" stroke="midnightblue" d="M950.24,-58.24C909.61,-50.39 841.12,-36.66 772.46,-19.97"/>
<polygon fill="midnightblue" stroke="midnightblue" points="772.88,-16.47 762.33,-17.49 771.21,-23.27 772.88,-16.47"/>
</g>
<!-- Node6 -->
<g id="node6" class="node">
<title>Node6</title>
<g id="a_node6"><a xlink:title=" ">
<polygon fill="white" stroke="#bfbfbf" points="845.5,-0.5 845.5,-19.5 898.5,-19.5 898.5,-0.5 845.5,-0.5"/>
<text text-anchor="middle" x="872" y="-7.5" font-family="Helvetica,sans-Serif" font-size="10.00">stdint.h</text>
</a>
</g>
</g>
<!-- Node4&#45;&gt;Node6 -->
<g id="edge6" class="edge">
<title>Node4&#45;&gt;Node6</title>
<path fill="none" stroke="midnightblue" d="M967.94,-56.44C949.43,-47.68 920.42,-33.94 899.14,-23.86"/>
<polygon fill="midnightblue" stroke="midnightblue" points="900.51,-20.63 889.98,-19.52 897.52,-26.96 900.51,-20.63"/>
</g>
<!-- Node7 -->
<g id="node7" class="node">
<title>Node7</title>
<g id="a_node7"><a xlink:title=" ">
<polygon fill="white" stroke="#bfbfbf" points="466,-0.5 466,-19.5 538,-19.5 538,-0.5 466,-0.5"/>
<text text-anchor="middle" x="502" y="-7.5" font-family="Helvetica,sans-Serif" font-size="10.00">sys/types.h</text>
</a>
</g>
</g>
<!-- Node4&#45;&gt;Node7 -->
<g id="edge7" class="edge">
<title>Node4&#45;&gt;Node7</title>
<path fill="none" stroke="midnightblue" d="M950.29,-62.5C876.91,-57.11 703.71,-43.11 548.49,-20.1"/>
<polygon fill="midnightblue" stroke="midnightblue" points="548.71,-16.59 538.3,-18.57 547.67,-23.51 548.71,-16.59"/>
</g>
<!-- Node8 -->
<g id="node8" class="node">
<title>Node8</title>
<g id="a_node8"><a xlink:title=" ">
<polygon fill="white" stroke="#bfbfbf" points="56.5,-0.5 56.5,-19.5 133.5,-19.5 133.5,-0.5 56.5,-0.5"/>
<text text-anchor="middle" x="95" y="-7.5" font-family="Helvetica,sans-Serif" font-size="10.00">sys/socket.h</text>
</a>
</g>
</g>
<!-- Node4&#45;&gt;Node8 -->
<g id="edge8" class="edge">
<title>Node4&#45;&gt;Node8</title>
<path fill="none" stroke="midnightblue" d="M950.28,-62.11C926.19,-60.22 893.7,-57.78 865,-56 547.18,-36.27 463.15,-57.9 143.67,-20.04"/>
<polygon fill="midnightblue" stroke="midnightblue" points="144.01,-16.56 133.66,-18.85 143.18,-23.51 144.01,-16.56"/>
</g>
<!-- Node9 -->
<g id="node9" class="node">
<title>Node9</title>
<g id="a_node9"><a xlink:title=" ">
<polygon fill="white" stroke="#bfbfbf" points="780.5,-0.5 780.5,-19.5 827.5,-19.5 827.5,-0.5 780.5,-0.5"/>
<text text-anchor="middle" x="804" y="-7.5" font-family="Helvetica,sans-Serif" font-size="10.00">vector</text>
</a>
</g>
</g>
<!-- Node4&#45;&gt;Node9 -->
<g id="edge9" class="edge">
<title>Node4&#45;&gt;Node9</title>
<path fill="none" stroke="midnightblue" d="M957.16,-56.44C924.73,-46.82 872.13,-31.21 837.8,-21.03"/>
<polygon fill="midnightblue" stroke="midnightblue" points="838.36,-17.54 827.77,-18.05 836.36,-24.25 838.36,-17.54"/>
</g>
<!-- Node10&#45;&gt;Node3 -->
<g id="edge11" class="edge">
<title>Node10&#45;&gt;Node3</title>
<path fill="none" stroke="midnightblue" d="M486.13,-119.89C625.05,-115.11 1156.65,-95.7 1229,-76 1247.8,-70.88 1249.57,-62.3 1268,-56 1347.59,-28.82 1373.75,-37.37 1460.02,-20.08"/>
<polygon fill="midnightblue" stroke="midnightblue" points="1460.9,-23.47 1469.99,-18.02 1459.49,-16.62 1460.9,-23.47"/>
</g>
<!-- Node10&#45;&gt;Node7 -->
<g id="edge13" class="edge">
<title>Node10&#45;&gt;Node7</title>
<path fill="none" stroke="midnightblue" d="M454.67,-112.29C457.3,-99.52 463.06,-75.18 472,-56 476.55,-46.23 483.06,-36.17 488.84,-28.05"/>
<polygon fill="midnightblue" stroke="midnightblue" points="491.8,-29.94 494.93,-19.82 486.17,-25.78 491.8,-29.94"/>
</g>
<!-- Node10&#45;&gt;Node8 -->
<g id="edge14" class="edge">
<title>Node10&#45;&gt;Node8</title>
<path fill="none" stroke="midnightblue" d="M419.61,-120.65C366.67,-118.98 261.13,-111.08 180,-76 152.99,-64.32 126.87,-42.21 110.87,-27.05"/>
<polygon fill="midnightblue" stroke="midnightblue" points="113.08,-24.32 103.48,-19.85 108.2,-29.33 113.08,-24.32"/>
</g>
<!-- Node11 -->
<g id="node11" class="node">
<title>Node11</title>
<g id="a_node11"><a xlink:title=" ">
<polygon fill="white" stroke="#bfbfbf" points="189,-56.5 189,-75.5 267,-75.5 267,-56.5 189,-56.5"/>
<text text-anchor="middle" x="228" y="-63.5" font-family="Helvetica,sans-Serif" font-size="10.00">netinet/tcp.h</text>
</a>
</g>
</g>
<!-- Node10&#45;&gt;Node11 -->
<g id="edge12" class="edge">
<title>Node10&#45;&gt;Node11</title>
<path fill="none" stroke="midnightblue" d="M419.8,-113.03C381.02,-103.72 316.64,-88.27 273.29,-77.87"/>
<polygon fill="midnightblue" stroke="midnightblue" points="274.11,-74.47 263.57,-75.54 272.47,-81.27 274.11,-74.47"/>
</g>
<!-- Node12 -->
<g id="node12" class="node">
<title>Node12</title>
<g id="a_node12"><a xlink:href="address_8h.html" target="_top" xlink:title="网络地址的封装(IPv4,IPv6,Unix)">
<polygon fill="white" stroke="black" points="323,-56.5 323,-75.5 387,-75.5 387,-56.5 323,-56.5"/>
<text text-anchor="middle" x="355" y="-63.5" font-family="Helvetica,sans-Serif" font-size="10.00">address.h</text>
</a>
</g>
</g>
<!-- Node10&#45;&gt;Node12 -->
<g id="edge15" class="edge">
<title>Node10&#45;&gt;Node12</title>
<path fill="none" stroke="midnightblue" d="M437.25,-112.32C421.68,-103.74 397.62,-90.49 379.54,-80.52"/>
<polygon fill="midnightblue" stroke="midnightblue" points="381.15,-77.42 370.71,-75.65 377.78,-83.55 381.15,-77.42"/>
</g>
<!-- Node18 -->
<g id="node18" class="node">
<title>Node18</title>
<g id="a_node18"><a xlink:href="noncopyable_8h.html" target="_top" xlink:title="不可拷贝对象封装">
<polygon fill="white" stroke="black" points="917,-0.5 917,-19.5 1005,-19.5 1005,-0.5 917,-0.5"/>
<text text-anchor="middle" x="961" y="-7.5" font-family="Helvetica,sans-Serif" font-size="10.00">noncopyable.h</text>
</a>
</g>
</g>
<!-- Node10&#45;&gt;Node18 -->
<g id="edge26" class="edge">
<title>Node10&#45;&gt;Node18</title>
<path fill="none" stroke="midnightblue" d="M474.15,-112.46C509.41,-98.56 582.67,-71.07 647,-56 757.89,-30.01 790.49,-37.36 906.76,-20.13"/>
<polygon fill="midnightblue" stroke="midnightblue" points="907.41,-23.57 916.77,-18.62 906.36,-16.65 907.41,-23.57"/>
</g>
<!-- Node12&#45;&gt;Node3 -->
<g id="edge16" class="edge">
<title>Node12&#45;&gt;Node3</title>
<path fill="none" stroke="midnightblue" d="M387.26,-62.17C410.74,-60.19 443.32,-57.62 472,-56 907.82,-31.32 1023.38,-78.25 1459.61,-19.91"/>
<polygon fill="midnightblue" stroke="midnightblue" points="1460.21,-23.36 1469.65,-18.55 1459.27,-16.42 1460.21,-23.36"/>
</g>
<!-- Node12&#45;&gt;Node5 -->
<g id="edge17" class="edge">
<title>Node12&#45;&gt;Node5</title>
<path fill="none" stroke="midnightblue" d="M387.01,-62.62C447.79,-57.73 584.18,-45.04 707.74,-19.97"/>
<polygon fill="midnightblue" stroke="midnightblue" points="708.67,-23.36 717.75,-17.91 707.25,-16.5 708.67,-23.36"/>
</g>
<!-- Node12&#45;&gt;Node7 -->
<g id="edge18" class="edge">
<title>Node12&#45;&gt;Node7</title>
<path fill="none" stroke="midnightblue" d="M378.29,-56.44C402.81,-47.44 441.6,-33.19 469.2,-23.05"/>
<polygon fill="midnightblue" stroke="midnightblue" points="470.64,-26.25 478.82,-19.52 468.22,-19.68 470.64,-26.25"/>
</g>
<!-- Node12&#45;&gt;Node8 -->
<g id="edge19" class="edge">
<title>Node12&#45;&gt;Node8</title>
<path fill="none" stroke="midnightblue" d="M322.86,-58.32C278.02,-49.01 196.33,-32.04 143.91,-21.16"/>
<polygon fill="midnightblue" stroke="midnightblue" points="144.34,-17.67 133.84,-19.07 142.92,-24.53 144.34,-17.67"/>
</g>
<!-- Node12&#45;&gt;Node9 -->
<g id="edge24" class="edge">
<title>Node12&#45;&gt;Node9</title>
<path fill="none" stroke="midnightblue" d="M387.07,-62.19C468.07,-55.01 680.21,-35.52 770.21,-19.79"/>
<polygon fill="midnightblue" stroke="midnightblue" points="771.11,-23.19 780.31,-17.94 769.84,-16.3 771.11,-23.19"/>
</g>
<!-- Node13 -->
<g id="node13" class="node">
<title>Node13</title>
<g id="a_node13"><a xlink:title=" ">
<polygon fill="white" stroke="#bfbfbf" points="151.5,-0.5 151.5,-19.5 208.5,-19.5 208.5,-0.5 151.5,-0.5"/>
<text text-anchor="middle" x="180" y="-7.5" font-family="Helvetica,sans-Serif" font-size="10.00">sys/un.h</text>
</a>
</g>
</g>
<!-- Node12&#45;&gt;Node13 -->
<g id="edge20" class="edge">
<title>Node12&#45;&gt;Node13</title>
<path fill="none" stroke="midnightblue" d="M327.27,-56.44C297.57,-47.28 250.28,-32.69 217.33,-22.52"/>
<polygon fill="midnightblue" stroke="midnightblue" points="218.19,-19.12 207.6,-19.52 216.12,-25.81 218.19,-19.12"/>
</g>
<!-- Node14 -->
<g id="node14" class="node">
<title>Node14</title>
<g id="a_node14"><a xlink:title=" ">
<polygon fill="white" stroke="#bfbfbf" points="226.5,-0.5 226.5,-19.5 295.5,-19.5 295.5,-0.5 226.5,-0.5"/>
<text text-anchor="middle" x="261" y="-7.5" font-family="Helvetica,sans-Serif" font-size="10.00">arpa/inet.h</text>
</a>
</g>
</g>
<!-- Node12&#45;&gt;Node14 -->
<g id="edge21" class="edge">
<title>Node12&#45;&gt;Node14</title>
<path fill="none" stroke="midnightblue" d="M339.9,-56.32C325.1,-47.82 302.31,-34.73 285.02,-24.8"/>
<polygon fill="midnightblue" stroke="midnightblue" points="286.48,-21.6 276.07,-19.65 282.99,-27.67 286.48,-21.6"/>
</g>
<!-- Node15 -->
<g id="node15" class="node">
<title>Node15</title>
<g id="a_node15"><a xlink:title=" ">
<polygon fill="white" stroke="#bfbfbf" points="314,-0.5 314,-19.5 370,-19.5 370,-0.5 314,-0.5"/>
<text text-anchor="middle" x="342" y="-7.5" font-family="Helvetica,sans-Serif" font-size="10.00">unistd.h</text>
</a>
</g>
</g>
<!-- Node12&#45;&gt;Node15 -->
<g id="edge22" class="edge">
<title>Node12&#45;&gt;Node15</title>
<path fill="none" stroke="midnightblue" d="M352.85,-56.08C351.13,-48.93 348.65,-38.64 346.5,-29.69"/>
<polygon fill="midnightblue" stroke="midnightblue" points="349.85,-28.65 344.11,-19.75 343.04,-30.29 349.85,-28.65"/>
</g>
<!-- Node16 -->
<g id="node16" class="node">
<title>Node16</title>
<g id="a_node16"><a xlink:title=" ">
<polygon fill="white" stroke="#bfbfbf" points="388,-0.5 388,-19.5 448,-19.5 448,-0.5 388,-0.5"/>
<text text-anchor="middle" x="418" y="-7.5" font-family="Helvetica,sans-Serif" font-size="10.00">iostream</text>
</a>
</g>
</g>
<!-- Node12&#45;&gt;Node16 -->
<g id="edge23" class="edge">
<title>Node12&#45;&gt;Node16</title>
<path fill="none" stroke="midnightblue" d="M365.12,-56.32C374.53,-48.26 388.74,-36.08 400.07,-26.37"/>
<polygon fill="midnightblue" stroke="midnightblue" points="402.38,-29 407.69,-19.83 397.82,-23.68 402.38,-29"/>
</g>
<!-- Node17 -->
<g id="node17" class="node">
<title>Node17</title>
<g id="a_node17"><a xlink:title=" ">
<polygon fill="white" stroke="#bfbfbf" points="0,-0.5 0,-19.5 38,-19.5 38,-0.5 0,-0.5"/>
<text text-anchor="middle" x="19" y="-7.5" font-family="Helvetica,sans-Serif" font-size="10.00">map</text>
</a>
</g>
</g>
<!-- Node12&#45;&gt;Node17 -->
<g id="edge25" class="edge">
<title>Node12&#45;&gt;Node17</title>
<path fill="none" stroke="midnightblue" d="M322.87,-58.47C318.22,-57.6 313.5,-56.75 309,-56 196.23,-37.24 163.39,-45.59 48.08,-19.89"/>
<polygon fill="midnightblue" stroke="midnightblue" points="48.68,-16.44 38.16,-17.64 47.14,-23.27 48.68,-16.44"/>
</g>
<!-- Node19&#45;&gt;Node3 -->
<g id="edge30" class="edge">
<title>Node19&#45;&gt;Node3</title>
<path fill="none" stroke="midnightblue" d="M1220.1,-58.52C1224.76,-57.65 1229.5,-56.79 1234,-56 1331.48,-38.94 1359.08,-39.72 1459.63,-20.15"/>
<polygon fill="midnightblue" stroke="midnightblue" points="1460.45,-23.56 1469.59,-18.2 1459.1,-16.69 1460.45,-23.56"/>
</g>
<!-- Node19&#45;&gt;Node6 -->
<g id="edge33" class="edge">
<title>Node19&#45;&gt;Node6</title>
<path fill="none" stroke="midnightblue" d="M1153.76,-60.57C1103.1,-53.62 1003.32,-39.14 908.7,-19.99"/>
<polygon fill="midnightblue" stroke="midnightblue" points="909.18,-16.51 898.68,-17.94 907.77,-23.37 909.18,-16.51"/>
</g>
<!-- Node19&#45;&gt;Node18 -->
<g id="edge36" class="edge">
<title>Node19&#45;&gt;Node18</title>
<path fill="none" stroke="midnightblue" d="M1153.65,-57.03C1114.7,-47.72 1050.04,-32.27 1006.49,-21.87"/>
<polygon fill="midnightblue" stroke="midnightblue" points="1007.26,-18.46 996.72,-19.54 1005.64,-25.26 1007.26,-18.46"/>
</g>
<!-- Node20 -->
<g id="node20" class="node">
<title>Node20</title>
<g id="a_node20"><a xlink:title=" ">
<polygon fill="white" stroke="#bfbfbf" points="1239,-0.5 1239,-19.5 1287,-19.5 1287,-0.5 1239,-0.5"/>
<text text-anchor="middle" x="1263" y="-7.5" font-family="Helvetica,sans-Serif" font-size="10.00">thread</text>
</a>
</g>
</g>
<!-- Node19&#45;&gt;Node20 -->
<g id="edge28" class="edge">
<title>Node19&#45;&gt;Node20</title>
<path fill="none" stroke="midnightblue" d="M1199.21,-56.32C1210.78,-48.11 1228.38,-35.6 1242.16,-25.81"/>
<polygon fill="midnightblue" stroke="midnightblue" points="1244.44,-28.48 1250.57,-19.83 1240.39,-22.77 1244.44,-28.48"/>
</g>
<!-- Node21 -->
<g id="node21" class="node">
<title>Node21</title>
<g id="a_node21"><a xlink:title=" ">
<polygon fill="white" stroke="#bfbfbf" points="1386.5,-0.5 1386.5,-19.5 1451.5,-19.5 1451.5,-0.5 1386.5,-0.5"/>
<text text-anchor="middle" x="1419" y="-7.5" font-family="Helvetica,sans-Serif" font-size="10.00">functional</text>
</a>
</g>
</g>
<!-- Node19&#45;&gt;Node21 -->
<g id="edge29" class="edge">
<title>Node19&#45;&gt;Node21</title>
<path fill="none" stroke="midnightblue" d="M1220.24,-57.26C1261.36,-47.69 1331.43,-31.38 1376.44,-20.91"/>
<polygon fill="midnightblue" stroke="midnightblue" points="1377.25,-24.31 1386.2,-18.64 1375.66,-17.49 1377.25,-24.31"/>
</g>
<!-- Node22 -->
<g id="node22" class="node">
<title>Node22</title>
<g id="a_node22"><a xlink:title=" ">
<polygon fill="white" stroke="#bfbfbf" points="1305.5,-0.5 1305.5,-19.5 1368.5,-19.5 1368.5,-0.5 1305.5,-0.5"/>
<text text-anchor="middle" x="1337" y="-7.5" font-family="Helvetica,sans-Serif" font-size="10.00">pthread.h</text>
</a>
</g>
</g>
<!-- Node19&#45;&gt;Node22 -->
<g id="edge31" class="edge">
<title>Node19&#45;&gt;Node22</title>
<path fill="none" stroke="midnightblue" d="M1210.77,-56.44C1235.89,-47.4 1275.71,-33.06 1303.9,-22.92"/>
<polygon fill="midnightblue" stroke="midnightblue" points="1305.12,-26.2 1313.34,-19.52 1302.75,-19.61 1305.12,-26.2"/>
</g>
<!-- Node23 -->
<g id="node23" class="node">
<title>Node23</title>
<g id="a_node23"><a xlink:title=" ">
<polygon fill="white" stroke="#bfbfbf" points="1073,-0.5 1073,-19.5 1153,-19.5 1153,-0.5 1073,-0.5"/>
<text text-anchor="middle" x="1113" y="-7.5" font-family="Helvetica,sans-Serif" font-size="10.00">semaphore.h</text>
</a>
</g>
</g>
<!-- Node19&#45;&gt;Node23 -->
<g id="edge32" class="edge">
<title>Node19&#45;&gt;Node23</title>
<path fill="none" stroke="midnightblue" d="M1175.11,-56.32C1163.85,-48.11 1146.71,-35.6 1133.29,-25.81"/>
<polygon fill="midnightblue" stroke="midnightblue" points="1135.25,-22.9 1125.11,-19.83 1131.12,-28.56 1135.25,-22.9"/>
</g>
<!-- Node24 -->
<g id="node24" class="node">
<title>Node24</title>
<g id="a_node24"><a xlink:title=" ">
<polygon fill="white" stroke="#bfbfbf" points="1171,-0.5 1171,-19.5 1221,-19.5 1221,-0.5 1171,-0.5"/>
<text text-anchor="middle" x="1196" y="-7.5" font-family="Helvetica,sans-Serif" font-size="10.00">atomic</text>
</a>
</g>
</g>
<!-- Node19&#45;&gt;Node24 -->
<g id="edge34" class="edge">
<title>Node19&#45;&gt;Node24</title>
<path fill="none" stroke="midnightblue" d="M1188.49,-56.08C1189.68,-48.93 1191.39,-38.64 1192.88,-29.69"/>
<polygon fill="midnightblue" stroke="midnightblue" points="1196.35,-30.19 1194.54,-19.75 1189.45,-29.04 1196.35,-30.19"/>
</g>
<!-- Node25 -->
<g id="node25" class="node">
<title>Node25</title>
<g id="a_node25"><a xlink:title=" ">
<polygon fill="white" stroke="#bfbfbf" points="1023,-0.5 1023,-19.5 1055,-19.5 1055,-0.5 1023,-0.5"/>
<text text-anchor="middle" x="1039" y="-7.5" font-family="Helvetica,sans-Serif" font-size="10.00">list</text>
</a>
</g>
</g>
<!-- Node19&#45;&gt;Node25 -->
<g id="edge35" class="edge">
<title>Node19&#45;&gt;Node25</title>
<path fill="none" stroke="midnightblue" d="M1163.55,-56.44C1136.54,-46.59 1092.34,-30.46 1064.5,-20.3"/>
<polygon fill="midnightblue" stroke="midnightblue" points="1065.64,-16.99 1055.04,-16.85 1063.24,-23.57 1065.64,-16.99"/>
</g>
<!-- Node27 -->
<g id="node27" class="node">
<title>Node27</title>
<g id="a_node27"><a xlink:href="scheduler_8h.html" target="_top" xlink:title="协程调度器实现">
<polygon fill="white" stroke="black" points="1202,-224.5 1202,-243.5 1274,-243.5 1274,-224.5 1202,-224.5"/>
<text text-anchor="middle" x="1238" y="-231.5" font-family="Helvetica,sans-Serif" font-size="10.00">scheduler.h</text>
</a>
</g>
</g>
<!-- Node26&#45;&gt;Node27 -->
<g id="edge38" class="edge">
<title>Node26&#45;&gt;Node27</title>
<path fill="none" stroke="midnightblue" d="M1253.86,-280.08C1251.32,-272.85 1247.64,-262.41 1244.47,-253.4"/>
<polygon fill="midnightblue" stroke="midnightblue" points="1247.7,-252.02 1241.08,-243.75 1241.1,-254.35 1247.7,-252.02"/>
</g>
<!-- Node39 -->
<g id="node39" class="node">
<title>Node39</title>
<g id="a_node39"><a xlink:href="timer_8h.html" target="_top" xlink:title="定时器封装">
<polygon fill="white" stroke="black" points="1518.5,-112.5 1518.5,-131.5 1569.5,-131.5 1569.5,-112.5 1518.5,-112.5"/>
<text text-anchor="middle" x="1544" y="-119.5" font-family="Helvetica,sans-Serif" font-size="10.00">timer.h</text>
</a>
</g>
</g>
<!-- Node26&#45;&gt;Node39 -->
<g id="edge72" class="edge">
<title>Node26&#45;&gt;Node39</title>
<path fill="none" stroke="midnightblue" d="M1272.03,-280.31C1319.01,-253.14 1463.37,-169.64 1520.44,-136.63"/>
<polygon fill="midnightblue" stroke="midnightblue" points="1522.22,-139.64 1529.12,-131.61 1518.71,-133.58 1522.22,-139.64"/>
</g>
<!-- Node27&#45;&gt;Node3 -->
<g id="edge41" class="edge">
<title>Node27&#45;&gt;Node3</title>
<path fill="none" stroke="midnightblue" d="M1274.11,-227.96C1354.39,-215.9 1543.38,-182.63 1579,-132 1587.68,-119.67 1590.93,-83.02 1574,-56 1564.87,-41.43 1549.15,-30.95 1534.45,-23.79"/>
<polygon fill="midnightblue" stroke="midnightblue" points="1535.58,-20.46 1525.02,-19.55 1532.71,-26.84 1535.58,-20.46"/>
</g>
<!-- Node27&#45;&gt;Node5 -->
<g id="edge42" class="edge">
<title>Node27&#45;&gt;Node5</title>
<path fill="none" stroke="midnightblue" d="M1201.97,-229.46C1082.92,-216.93 705.87,-170.26 639,-76 633.86,-68.75 634.16,-63.46 639,-56 647.02,-43.65 681.69,-29.94 708.2,-20.94"/>
<polygon fill="midnightblue" stroke="midnightblue" points="709.49,-24.2 717.89,-17.73 707.29,-17.55 709.49,-24.2"/>
</g>
<!-- Node27&#45;&gt;Node21 -->
<g id="edge39" class="edge">
<title>Node27&#45;&gt;Node21</title>
<path fill="none" stroke="midnightblue" d="M1245.1,-224.3C1272.18,-191.08 1369.33,-71.92 1405.4,-27.68"/>
<polygon fill="midnightblue" stroke="midnightblue" points="1408.15,-29.85 1411.76,-19.88 1402.73,-25.42 1408.15,-29.85"/>
</g>
<!-- Node27&#45;&gt;Node25 -->
<g id="edge40" class="edge">
<title>Node27&#45;&gt;Node25</title>
<path fill="none" stroke="midnightblue" d="M1230.2,-224.3C1200.36,-191.01 1093.16,-71.42 1053.71,-27.41"/>
<polygon fill="midnightblue" stroke="midnightblue" points="1056.24,-24.99 1046.96,-19.88 1051.03,-29.67 1056.24,-24.99"/>
</g>
<!-- Node28 -->
<g id="node28" class="node">
<title>Node28</title>
<g id="a_node28"><a xlink:href="fiber_8h.html" target="_top" xlink:title="协程模块">
<polygon fill="white" stroke="black" points="1366.5,-168.5 1366.5,-187.5 1413.5,-187.5 1413.5,-168.5 1366.5,-168.5"/>
<text text-anchor="middle" x="1390" y="-175.5" font-family="Helvetica,sans-Serif" font-size="10.00">fiber.h</text>
</a>
</g>
</g>
<!-- Node27&#45;&gt;Node28 -->
<g id="edge43" class="edge">
<title>Node27&#45;&gt;Node28</title>
<path fill="none" stroke="midnightblue" d="M1262.08,-224.44C1287.54,-215.4 1327.89,-201.06 1356.46,-190.92"/>
<polygon fill="midnightblue" stroke="midnightblue" points="1357.78,-194.16 1366.03,-187.52 1355.43,-187.57 1357.78,-194.16"/>
</g>
<!-- Node30 -->
<g id="node30" class="node">
<title>Node30</title>
<g id="a_node30"><a xlink:href="thread_8h.html" target="_top" xlink:title="线程相关的封装">
<polygon fill="white" stroke="black" points="1174.5,-112.5 1174.5,-131.5 1231.5,-131.5 1231.5,-112.5 1174.5,-112.5"/>
<text text-anchor="middle" x="1203" y="-119.5" font-family="Helvetica,sans-Serif" font-size="10.00">thread.h</text>
</a>
</g>
</g>
<!-- Node27&#45;&gt;Node30 -->
<g id="edge71" class="edge">
<title>Node27&#45;&gt;Node30</title>
<path fill="none" stroke="midnightblue" d="M1235.25,-224.37C1229.58,-206.54 1216.46,-165.3 1208.81,-141.27"/>
<polygon fill="midnightblue" stroke="midnightblue" points="1212.1,-140.06 1205.73,-131.59 1205.43,-142.18 1212.1,-140.06"/>
</g>
<!-- Node31 -->
<g id="node31" class="node">
<title>Node31</title>
<g id="a_node31"><a xlink:href="log_8h.html" target="_top" xlink:title="日志模块">
<polygon fill="white" stroke="black" points="807.5,-112.5 807.5,-131.5 848.5,-131.5 848.5,-112.5 807.5,-112.5"/>
<text text-anchor="middle" x="828" y="-119.5" font-family="Helvetica,sans-Serif" font-size="10.00">log.h</text>
</a>
</g>
</g>
<!-- Node27&#45;&gt;Node31 -->
<g id="edge50" class="edge">
<title>Node27&#45;&gt;Node31</title>
<path fill="none" stroke="midnightblue" d="M1206.17,-224.46C1129.26,-203.83 934.1,-151.47 858.54,-131.19"/>
<polygon fill="midnightblue" stroke="midnightblue" points="859.26,-127.76 848.69,-128.55 857.45,-134.52 859.26,-127.76"/>
</g>
<!-- Node28&#45;&gt;Node3 -->
<g id="edge45" class="edge">
<title>Node28&#45;&gt;Node3</title>
<path fill="none" stroke="midnightblue" d="M1405.39,-168.44C1418.5,-160.48 1437.06,-147.52 1449,-132 1473.5,-100.14 1488.01,-54.56 1494.64,-29.42"/>
<polygon fill="midnightblue" stroke="midnightblue" points="1498.04,-30.26 1497.07,-19.71 1491.25,-28.56 1498.04,-30.26"/>
</g>
<!-- Node28&#45;&gt;Node21 -->
<g id="edge44" class="edge">
<title>Node28&#45;&gt;Node21</title>
<path fill="none" stroke="midnightblue" d="M1402.5,-168.3C1412.87,-160.25 1426.89,-147.24 1433,-132 1446.85,-97.46 1435.05,-53.24 1426.31,-28.96"/>
<polygon fill="midnightblue" stroke="midnightblue" points="1429.57,-27.68 1422.73,-19.59 1423.03,-30.18 1429.57,-27.68"/>
</g>
<!-- Node29 -->
<g id="node29" class="node">
<title>Node29</title>
<g id="a_node29"><a xlink:title=" ">
<polygon fill="white" stroke="#bfbfbf" points="1356,-112.5 1356,-131.5 1424,-131.5 1424,-112.5 1356,-112.5"/>
<text text-anchor="middle" x="1390" y="-119.5" font-family="Helvetica,sans-Serif" font-size="10.00">ucontext.h</text>
</a>
</g>
</g>
<!-- Node28&#45;&gt;Node29 -->
<g id="edge46" class="edge">
<title>Node28&#45;&gt;Node29</title>
<path fill="none" stroke="midnightblue" d="M1390,-168.08C1390,-161.01 1390,-150.86 1390,-141.99"/>
<polygon fill="midnightblue" stroke="midnightblue" points="1393.5,-141.75 1390,-131.75 1386.5,-141.75 1393.5,-141.75"/>
</g>
<!-- Node28&#45;&gt;Node30 -->
<g id="edge47" class="edge">
<title>Node28&#45;&gt;Node30</title>
<path fill="none" stroke="midnightblue" d="M1366.32,-170.16C1334.96,-161.11 1279.28,-145.03 1241.76,-134.19"/>
<polygon fill="midnightblue" stroke="midnightblue" points="1242.27,-130.7 1231.69,-131.28 1240.33,-137.42 1242.27,-130.7"/>
</g>
<!-- Node30&#45;&gt;Node5 -->
<g id="edge48" class="edge">
<title>Node30&#45;&gt;Node5</title>
<path fill="none" stroke="midnightblue" d="M1174.15,-117.38C1125.74,-111 1025.28,-96.47 942,-76 880.79,-60.95 811.16,-36.98 771.71,-22.74"/>
<polygon fill="midnightblue" stroke="midnightblue" points="772.72,-19.38 762.12,-19.25 770.33,-25.96 772.72,-19.38"/>
</g>
<!-- Node30&#45;&gt;Node19 -->
<g id="edge49" class="edge">
<title>Node30&#45;&gt;Node19</title>
<path fill="none" stroke="midnightblue" d="M1200.36,-112.08C1198.21,-104.85 1195.12,-94.41 1192.45,-85.4"/>
<polygon fill="midnightblue" stroke="midnightblue" points="1195.79,-84.34 1189.59,-75.75 1189.08,-86.33 1195.79,-84.34"/>
</g>
<!-- Node31&#45;&gt;Node3 -->
<g id="edge52" class="edge">
<title>Node31&#45;&gt;Node3</title>
<path fill="none" stroke="midnightblue" d="M848.57,-120.19C933.63,-116.72 1258.16,-101.98 1357,-76 1401.1,-64.41 1448.54,-40 1475.9,-24.61"/>
<polygon fill="midnightblue" stroke="midnightblue" points="1477.75,-27.58 1484.7,-19.58 1474.28,-21.5 1477.75,-27.58"/>
</g>
<!-- Node31&#45;&gt;Node5 -->
<g id="edge51" class="edge">
<title>Node31&#45;&gt;Node5</title>
<path fill="none" stroke="midnightblue" d="M807.38,-119.01C764.22,-114.36 666.74,-101.25 647,-76 641.53,-69 642.28,-63.53 647,-56 654.08,-44.71 684.25,-31.38 708.34,-22.17"/>
<polygon fill="midnightblue" stroke="midnightblue" points="709.72,-25.38 717.87,-18.61 707.27,-18.83 709.72,-25.38"/>
</g>
<!-- Node31&#45;&gt;Node9 -->
<g id="edge56" class="edge">
<title>Node31&#45;&gt;Node9</title>
<path fill="none" stroke="midnightblue" d="M839.11,-112.32C853.46,-100 875.42,-76.63 865,-56 858.19,-42.52 845.23,-32.08 833,-24.67"/>
<polygon fill="midnightblue" stroke="midnightblue" points="834.34,-21.41 823.91,-19.59 830.93,-27.52 834.34,-21.41"/>
</g>
<!-- Node31&#45;&gt;Node16 -->
<g id="edge53" class="edge">
<title>Node31&#45;&gt;Node16</title>
<path fill="none" stroke="midnightblue" d="M807.12,-120.35C739.95,-117.96 530.45,-108.05 472,-76 452.16,-65.12 436.63,-43.76 427.41,-28.49"/>
<polygon fill="midnightblue" stroke="midnightblue" points="430.28,-26.46 422.29,-19.51 424.2,-29.93 430.28,-26.46"/>
</g>
<!-- Node31&#45;&gt;Node17 -->
<g id="edge59" class="edge">
<title>Node31&#45;&gt;Node17</title>
<path fill="none" stroke="midnightblue" d="M807.41,-120.28C723.74,-117.2 409.07,-103.95 314,-76 295.69,-70.62 294.12,-62.01 276,-56 181.26,-24.58 149.23,-42.62 48.17,-19.92"/>
<polygon fill="midnightblue" stroke="midnightblue" points="48.7,-16.45 38.17,-17.59 47.12,-23.27 48.7,-16.45"/>
</g>
<!-- Node31&#45;&gt;Node19 -->
<g id="edge68" class="edge">
<title>Node31&#45;&gt;Node19</title>
<path fill="none" stroke="midnightblue" d="M848.59,-117.9C905.55,-109.33 1066.15,-85.18 1143.84,-73.49"/>
<polygon fill="midnightblue" stroke="midnightblue" points="1144.42,-76.94 1153.79,-72 1143.38,-70.02 1144.42,-76.94"/>
</g>
<!-- Node31&#45;&gt;Node25 -->
<g id="edge58" class="edge">
<title>Node31&#45;&gt;Node25</title>
<path fill="none" stroke="midnightblue" d="M848.71,-119.38C895.37,-115.28 1006.6,-102.85 1031,-76 1042.1,-63.78 1043.18,-44.52 1042.04,-30.13"/>
<polygon fill="midnightblue" stroke="midnightblue" points="1045.47,-29.36 1040.8,-19.86 1038.53,-30.21 1045.47,-29.36"/>
</g>
<!-- Node32 -->
<g id="node32" class="node">
<title>Node32</title>
<g id="a_node32"><a xlink:title=" ">
<polygon fill="white" stroke="#bfbfbf" points="800,-56.5 800,-75.5 856,-75.5 856,-56.5 800,-56.5"/>
<text text-anchor="middle" x="828" y="-63.5" font-family="Helvetica,sans-Serif" font-size="10.00">sstream</text>
</a>
</g>
</g>
<!-- Node31&#45;&gt;Node32 -->
<g id="edge54" class="edge">
<title>Node31&#45;&gt;Node32</title>
<path fill="none" stroke="midnightblue" d="M828,-112.08C828,-105.01 828,-94.86 828,-85.99"/>
<polygon fill="midnightblue" stroke="midnightblue" points="831.5,-85.75 828,-75.75 824.5,-85.75 831.5,-85.75"/>
</g>
<!-- Node33 -->
<g id="node33" class="node">
<title>Node33</title>
<g id="a_node33"><a xlink:title=" ">
<polygon fill="white" stroke="#bfbfbf" points="655.5,-56.5 655.5,-75.5 710.5,-75.5 710.5,-56.5 655.5,-56.5"/>
<text text-anchor="middle" x="683" y="-63.5" font-family="Helvetica,sans-Serif" font-size="10.00">fstream</text>
</a>
</g>
</g>
<!-- Node31&#45;&gt;Node33 -->
<g id="edge55" class="edge">
<title>Node31&#45;&gt;Node33</title>
<path fill="none" stroke="midnightblue" d="M807.23,-113.26C783.27,-104.34 743.59,-89.56 715.53,-79.11"/>
<polygon fill="midnightblue" stroke="midnightblue" points="716.73,-75.83 706.13,-75.62 714.28,-82.39 716.73,-75.83"/>
</g>
<!-- Node34 -->
<g id="node34" class="node">
<title>Node34</title>
<g id="a_node34"><a xlink:title=" ">
<polygon fill="white" stroke="#bfbfbf" points="728.5,-56.5 728.5,-75.5 781.5,-75.5 781.5,-56.5 728.5,-56.5"/>
<text text-anchor="middle" x="755" y="-63.5" font-family="Helvetica,sans-Serif" font-size="10.00">cstdarg</text>
</a>
</g>
</g>
<!-- Node31&#45;&gt;Node34 -->
<g id="edge57" class="edge">
<title>Node31&#45;&gt;Node34</title>
<path fill="none" stroke="midnightblue" d="M816.27,-112.32C805.16,-104.11 788.26,-91.6 775.02,-81.81"/>
<polygon fill="midnightblue" stroke="midnightblue" points="777.06,-78.97 766.94,-75.83 772.9,-84.59 777.06,-78.97"/>
</g>
<!-- Node35 -->
<g id="node35" class="node">
<title>Node35</title>
<g id="a_node35"><a xlink:href="util_8h.html" target="_top" xlink:title="util函数">
<polygon fill="white" stroke="black" points="481.5,-56.5 481.5,-75.5 522.5,-75.5 522.5,-56.5 481.5,-56.5"/>
<text text-anchor="middle" x="502" y="-63.5" font-family="Helvetica,sans-Serif" font-size="10.00">util.h</text>
</a>
</g>
</g>
<!-- Node31&#45;&gt;Node35 -->
<g id="edge60" class="edge">
<title>Node31&#45;&gt;Node35</title>
<path fill="none" stroke="midnightblue" d="M807.11,-117.54C751.33,-108.3 598.68,-83.01 532.87,-72.11"/>
<polygon fill="midnightblue" stroke="midnightblue" points="533.15,-68.61 522.71,-70.43 532.01,-75.52 533.15,-68.61"/>
</g>
<!-- Node38 -->
<g id="node38" class="node">
<title>Node38</title>
<g id="a_node38"><a xlink:href="singleton_8h.html" target="_top" xlink:title="单例模式封装">
<polygon fill="white" stroke="black" points="1276.5,-56.5 1276.5,-75.5 1347.5,-75.5 1347.5,-56.5 1276.5,-56.5"/>
<text text-anchor="middle" x="1312" y="-63.5" font-family="Helvetica,sans-Serif" font-size="10.00">singleton.h</text>
</a>
</g>
</g>
<!-- Node31&#45;&gt;Node38 -->
<g id="edge69" class="edge">
<title>Node31&#45;&gt;Node38</title>
<path fill="none" stroke="midnightblue" d="M848.85,-119.4C911.53,-114.45 1103.74,-98.42 1262,-76 1263.45,-75.8 1264.91,-75.58 1266.4,-75.35"/>
<polygon fill="midnightblue" stroke="midnightblue" points="1266.96,-78.81 1276.27,-73.77 1265.84,-71.9 1266.96,-78.81"/>
</g>
<!-- Node35&#45;&gt;Node5 -->
<g id="edge65" class="edge">
<title>Node35&#45;&gt;Node5</title>
<path fill="none" stroke="midnightblue" d="M522.69,-59.51C527.38,-58.32 532.36,-57.08 537,-56 609.94,-39 631.47,-38.88 707.63,-20.2"/>
<polygon fill="midnightblue" stroke="midnightblue" points="708.84,-23.5 717.7,-17.69 707.16,-16.71 708.84,-23.5"/>
</g>
<!-- Node35&#45;&gt;Node6 -->
<g id="edge62" class="edge">
<title>Node35&#45;&gt;Node6</title>
<path fill="none" stroke="midnightblue" d="M522.64,-62.37C586.27,-54.25 778.1,-29.62 835.26,-20.02"/>
<polygon fill="midnightblue" stroke="midnightblue" points="836.1,-23.42 845.32,-18.21 834.86,-16.53 836.1,-23.42"/>
</g>
<!-- Node35&#45;&gt;Node7 -->
<g id="edge61" class="edge">
<title>Node35&#45;&gt;Node7</title>
<path fill="none" stroke="midnightblue" d="M502,-56.08C502,-49.01 502,-38.86 502,-29.99"/>
<polygon fill="midnightblue" stroke="midnightblue" points="505.5,-29.75 502,-19.75 498.5,-29.75 505.5,-29.75"/>
</g>
<!-- Node35&#45;&gt;Node9 -->
<g id="edge66" class="edge">
<title>Node35&#45;&gt;Node9</title>
<path fill="none" stroke="midnightblue" d="M522.72,-62.26C566.57,-56.3 672.1,-41.16 770.48,-19.92"/>
<polygon fill="midnightblue" stroke="midnightblue" points="771.26,-23.33 780.28,-17.78 769.76,-16.49 771.26,-23.33"/>
</g>
<!-- Node35&#45;&gt;Node16 -->
<g id="edge67" class="edge">
<title>Node35&#45;&gt;Node16</title>
<path fill="none" stroke="midnightblue" d="M488.5,-56.32C475.4,-47.9 455.29,-34.97 439.89,-25.07"/>
<polygon fill="midnightblue" stroke="midnightblue" points="441.77,-22.12 431.46,-19.65 437.98,-28.01 441.77,-22.12"/>
</g>
<!-- Node36 -->
<g id="node36" class="node">
<title>Node36</title>
<g id="a_node36"><a xlink:title=" ">
<polygon fill="white" stroke="#bfbfbf" points="632,-0.5 632,-19.5 700,-19.5 700,-0.5 632,-0.5"/>
<text text-anchor="middle" x="666" y="-7.5" font-family="Helvetica,sans-Serif" font-size="10.00">sys/time.h</text>
</a>
</g>
</g>
<!-- Node35&#45;&gt;Node36 -->
<g id="edge63" class="edge">
<title>Node35&#45;&gt;Node36</title>
<path fill="none" stroke="midnightblue" d="M522.77,-58.16C549.8,-49.26 597.44,-33.57 630.31,-22.75"/>
<polygon fill="midnightblue" stroke="midnightblue" points="631.6,-26.01 640,-19.56 629.41,-19.36 631.6,-26.01"/>
</g>
<!-- Node37 -->
<g id="node37" class="node">
<title>Node37</title>
<g id="a_node37"><a xlink:title=" ">
<polygon fill="white" stroke="#bfbfbf" points="556,-0.5 556,-19.5 614,-19.5 614,-0.5 556,-0.5"/>
<text text-anchor="middle" x="585" y="-7.5" font-family="Helvetica,sans-Serif" font-size="10.00">cxxabi.h</text>
</a>
</g>
</g>
<!-- Node35&#45;&gt;Node37 -->
<g id="edge64" class="edge">
<title>Node35&#45;&gt;Node37</title>
<path fill="none" stroke="midnightblue" d="M515.34,-56.32C528.16,-47.98 547.78,-35.21 562.94,-25.35"/>
<polygon fill="midnightblue" stroke="midnightblue" points="565.22,-28.04 571.7,-19.65 561.41,-22.17 565.22,-28.04"/>
</g>
<!-- Node38&#45;&gt;Node3 -->
<g id="edge70" class="edge">
<title>Node38&#45;&gt;Node3</title>
<path fill="none" stroke="midnightblue" d="M1341.63,-56.44C1373.59,-47.21 1424.63,-32.48 1459.87,-22.3"/>
<polygon fill="midnightblue" stroke="midnightblue" points="1461.18,-25.56 1469.82,-19.43 1459.24,-18.84 1461.18,-25.56"/>
</g>
<!-- Node39&#45;&gt;Node3 -->
<g id="edge73" class="edge">
<title>Node39&#45;&gt;Node3</title>
<path fill="none" stroke="midnightblue" d="M1549.65,-112.15C1557.12,-99.21 1568.32,-74.65 1559,-56 1552.27,-42.54 1539.39,-32.07 1527.29,-24.62"/>
<polygon fill="midnightblue" stroke="midnightblue" points="1528.72,-21.41 1518.3,-19.52 1525.27,-27.5 1528.72,-21.41"/>
</g>
<!-- Node39&#45;&gt;Node9 -->
<g id="edge74" class="edge">
<title>Node39&#45;&gt;Node9</title>
<path fill="none" stroke="midnightblue" d="M1518.25,-118.7C1454.69,-112.9 1285.35,-96.65 1145,-76 1129.1,-73.66 894.19,-31.13 837.81,-19.85"/>
<polygon fill="midnightblue" stroke="midnightblue" points="838.24,-16.36 827.73,-17.74 836.8,-23.21 838.24,-16.36"/>
</g>
<!-- Node39&#45;&gt;Node19 -->
<g id="edge76" class="edge">
<title>Node39&#45;&gt;Node19</title>
<path fill="none" stroke="midnightblue" d="M1518.33,-117.12C1457.71,-107.95 1305.16,-84.87 1230.09,-73.52"/>
<polygon fill="midnightblue" stroke="midnightblue" points="1230.44,-70.03 1220.03,-72 1229.39,-76.95 1230.44,-70.03"/>
</g>
<!-- Node40 -->
<g id="node40" class="node">
<title>Node40</title>
<g id="a_node40"><a xlink:title=" ">
<polygon fill="white" stroke="#bfbfbf" points="1518,-56.5 1518,-75.5 1550,-75.5 1550,-56.5 1518,-56.5"/>
<text text-anchor="middle" x="1534" y="-63.5" font-family="Helvetica,sans-Serif" font-size="10.00">set</text>
</a>
</g>
</g>
<!-- Node39&#45;&gt;Node40 -->
<g id="edge75" class="edge">
<title>Node39&#45;&gt;Node40</title>
<path fill="none" stroke="midnightblue" d="M1542.35,-112.08C1541.02,-104.93 1539.12,-94.64 1537.46,-85.69"/>
<polygon fill="midnightblue" stroke="midnightblue" points="1540.88,-84.95 1535.62,-75.75 1534,-86.22 1540.88,-84.95"/>
</g>
</g>
</svg>
