<?xml version="1.0" encoding="UTF-8" standalone="no"?>
<!DOCTYPE svg PUBLIC "-//W3C//DTD SVG 1.1//EN"
 "http://www.w3.org/Graphics/SVG/1.1/DTD/svg11.dtd">
<!-- Generated by graphviz version 2.43.0 (0)
 -->
<!-- Title: sylar/stream.h Pages: 1 -->
<svg width="451pt" height="140pt"
 viewBox="0.00 0.00 450.50 140.00" xmlns="http://www.w3.org/2000/svg" xmlns:xlink="http://www.w3.org/1999/xlink">
<g id="graph0" class="graph" transform="scale(1 1) rotate(0) translate(4 136)">
<title>sylar/stream.h</title>
<polygon fill="white" stroke="transparent" points="-4,4 -4,-136 446.5,-136 446.5,4 -4,4"/>
<!-- Node1 -->
<g id="node1" class="node">
<title>Node1</title>
<g id="a_node1"><a xlink:title="流接口">
<polygon fill="#bfbfbf" stroke="black" points="53.5,-112.5 53.5,-131.5 140.5,-131.5 140.5,-112.5 53.5,-112.5"/>
<text text-anchor="middle" x="97" y="-119.5" font-family="Helvetica,sans-Serif" font-size="10.00">sylar/stream.h</text>
</a>
</g>
</g>
<!-- Node2 -->
<g id="node2" class="node">
<title>Node2</title>
<g id="a_node2"><a xlink:title=" ">
<polygon fill="white" stroke="#bfbfbf" points="0,-0.5 0,-19.5 58,-19.5 58,-0.5 0,-0.5"/>
<text text-anchor="middle" x="29" y="-7.5" font-family="Helvetica,sans-Serif" font-size="10.00">memory</text>
</a>
</g>
</g>
<!-- Node1&#45;&gt;Node2 -->
<g id="edge1" class="edge">
<title>Node1&#45;&gt;Node2</title>
<path fill="none" stroke="midnightblue" d="M91.66,-112.37C80.49,-94.3 54.45,-52.18 39.7,-28.31"/>
<polygon fill="midnightblue" stroke="midnightblue" points="42.55,-26.26 34.31,-19.59 36.59,-29.94 42.55,-26.26"/>
</g>
<!-- Node3 -->
<g id="node3" class="node">
<title>Node3</title>
<g id="a_node3"><a xlink:href="bytearray_8h.html" target="_top" xlink:title="二进制数组(序列化/反序列化)">
<polygon fill="white" stroke="black" points="129.5,-56.5 129.5,-75.5 200.5,-75.5 200.5,-56.5 129.5,-56.5"/>
<text text-anchor="middle" x="165" y="-63.5" font-family="Helvetica,sans-Serif" font-size="10.00">bytearray.h</text>
</a>
</g>
</g>
<!-- Node1&#45;&gt;Node3 -->
<g id="edge2" class="edge">
<title>Node1&#45;&gt;Node3</title>
<path fill="none" stroke="midnightblue" d="M107.93,-112.32C118.17,-104.18 133.72,-91.84 146,-82.09"/>
<polygon fill="midnightblue" stroke="midnightblue" points="148.22,-84.79 153.88,-75.83 143.87,-79.31 148.22,-84.79"/>
</g>
<!-- Node3&#45;&gt;Node2 -->
<g id="edge3" class="edge">
<title>Node3&#45;&gt;Node2</title>
<path fill="none" stroke="midnightblue" d="M143.45,-56.44C120.97,-47.52 85.51,-33.44 60.02,-23.32"/>
<polygon fill="midnightblue" stroke="midnightblue" points="61.03,-19.95 50.45,-19.52 58.45,-26.46 61.03,-19.95"/>
</g>
<!-- Node4 -->
<g id="node4" class="node">
<title>Node4</title>
<g id="a_node4"><a xlink:title=" ">
<polygon fill="white" stroke="#bfbfbf" points="76,-0.5 76,-19.5 120,-19.5 120,-0.5 76,-0.5"/>
<text text-anchor="middle" x="98" y="-7.5" font-family="Helvetica,sans-Serif" font-size="10.00">string</text>
</a>
</g>
</g>
<!-- Node3&#45;&gt;Node4 -->
<g id="edge4" class="edge">
<title>Node3&#45;&gt;Node4</title>
<path fill="none" stroke="midnightblue" d="M154.24,-56.32C144.23,-48.26 129.11,-36.08 117.07,-26.37"/>
<polygon fill="midnightblue" stroke="midnightblue" points="118.94,-23.38 108.96,-19.83 114.55,-28.83 118.94,-23.38"/>
</g>
<!-- Node5 -->
<g id="node5" class="node">
<title>Node5</title>
<g id="a_node5"><a xlink:title=" ">
<polygon fill="white" stroke="#bfbfbf" points="138.5,-0.5 138.5,-19.5 191.5,-19.5 191.5,-0.5 138.5,-0.5"/>
<text text-anchor="middle" x="165" y="-7.5" font-family="Helvetica,sans-Serif" font-size="10.00">stdint.h</text>
</a>
</g>
</g>
<!-- Node3&#45;&gt;Node5 -->
<g id="edge5" class="edge">
<title>Node3&#45;&gt;Node5</title>
<path fill="none" stroke="midnightblue" d="M165,-56.08C165,-49.01 165,-38.86 165,-29.99"/>
<polygon fill="midnightblue" stroke="midnightblue" points="168.5,-29.75 165,-19.75 161.5,-29.75 168.5,-29.75"/>
</g>
<!-- Node6 -->
<g id="node6" class="node">
<title>Node6</title>
<g id="a_node6"><a xlink:title=" ">
<polygon fill="white" stroke="#bfbfbf" points="210,-0.5 210,-19.5 282,-19.5 282,-0.5 210,-0.5"/>
<text text-anchor="middle" x="246" y="-7.5" font-family="Helvetica,sans-Serif" font-size="10.00">sys/types.h</text>
</a>
</g>
</g>
<!-- Node3&#45;&gt;Node6 -->
<g id="edge6" class="edge">
<title>Node3&#45;&gt;Node6</title>
<path fill="none" stroke="midnightblue" d="M178.01,-56.32C190.53,-47.98 209.68,-35.21 224.47,-25.35"/>
<polygon fill="midnightblue" stroke="midnightblue" points="226.64,-28.11 233.02,-19.65 222.76,-22.29 226.64,-28.11"/>
</g>
<!-- Node7 -->
<g id="node7" class="node">
<title>Node7</title>
<g id="a_node7"><a xlink:title=" ">
<polygon fill="white" stroke="#bfbfbf" points="300.5,-0.5 300.5,-19.5 377.5,-19.5 377.5,-0.5 300.5,-0.5"/>
<text text-anchor="middle" x="339" y="-7.5" font-family="Helvetica,sans-Serif" font-size="10.00">sys/socket.h</text>
</a>
</g>
</g>
<!-- Node3&#45;&gt;Node7 -->
<g id="edge7" class="edge">
<title>Node3&#45;&gt;Node7</title>
<path fill="none" stroke="midnightblue" d="M192.57,-56.44C222.1,-47.28 269.12,-32.69 301.88,-22.52"/>
<polygon fill="midnightblue" stroke="midnightblue" points="303.04,-25.82 311.56,-19.52 300.97,-19.14 303.04,-25.82"/>
</g>
<!-- Node8 -->
<g id="node8" class="node">
<title>Node8</title>
<g id="a_node8"><a xlink:title=" ">
<polygon fill="white" stroke="#bfbfbf" points="395.5,-0.5 395.5,-19.5 442.5,-19.5 442.5,-0.5 395.5,-0.5"/>
<text text-anchor="middle" x="419" y="-7.5" font-family="Helvetica,sans-Serif" font-size="10.00">vector</text>
</a>
</g>
</g>
<!-- Node3&#45;&gt;Node8 -->
<g id="edge8" class="edge">
<title>Node3&#45;&gt;Node8</title>
<path fill="none" stroke="midnightblue" d="M200.55,-58.63C242.56,-50.93 314.77,-37.11 385.34,-20.28"/>
<polygon fill="midnightblue" stroke="midnightblue" points="386.38,-23.63 395.29,-17.88 384.74,-16.82 386.38,-23.63"/>
</g>
</g>
</svg>
