<?xml version="1.0" encoding="UTF-8" standalone="no"?>
<!DOCTYPE svg PUBLIC "-//W3C//DTD SVG 1.1//EN"
 "http://www.w3.org/Graphics/SVG/1.1/DTD/svg11.dtd">
<!-- Generated by graphviz version 2.43.0 (0)
 -->
<!-- Title: sylar::IOManager::FdContext::EventContext Pages: 1 -->
<svg width="164pt" height="336pt"
 viewBox="0.00 0.00 164.00 336.00" xmlns="http://www.w3.org/2000/svg" xmlns:xlink="http://www.w3.org/1999/xlink">
<g id="graph0" class="graph" transform="scale(1 1) rotate(0) translate(4 332)">
<title>sylar::IOManager::FdContext::EventContext</title>
<polygon fill="white" stroke="transparent" points="-4,4 -4,-332 160,-332 160,4 -4,4"/>
<!-- Node1 -->
<g id="node1" class="node">
<title>Node1</title>
<g id="a_node1"><a xlink:title="事件上下文类">
<polygon fill="#bfbfbf" stroke="black" points="0,-0.5 0,-79.5 156,-79.5 156,-0.5 0,-0.5"/>
<text text-anchor="start" x="8" y="-67.5" font-family="Helvetica,sans-Serif" font-size="10.00">sylar::IOManager::FdContext</text>
<text text-anchor="middle" x="78" y="-56.5" font-family="Helvetica,sans-Serif" font-size="10.00">::EventContext</text>
<polyline fill="none" stroke="black" points="0,-49.5 156,-49.5 "/>
<text text-anchor="start" x="8" y="-37.5" font-family="Helvetica,sans-Serif" font-size="10.00">+ fiber</text>
<text text-anchor="start" x="8" y="-26.5" font-family="Helvetica,sans-Serif" font-size="10.00">+ cb</text>
<polyline fill="none" stroke="black" points="0,-19.5 156,-19.5 "/>
<text text-anchor="middle" x="78" y="-7.5" font-family="Helvetica,sans-Serif" font-size="10.00"> </text>
</a>
</g>
</g>
<!-- Node2 -->
<g id="node2" class="node">
<title>Node2</title>
<g id="a_node2"><a xlink:href="classsylar_1_1Scheduler.html" target="_top" xlink:title="协程调度器">
<polygon fill="white" stroke="black" points="23,-127.5 23,-327.5 133,-327.5 133,-127.5 23,-127.5"/>
<text text-anchor="middle" x="78" y="-315.5" font-family="Helvetica,sans-Serif" font-size="10.00">sylar::Scheduler</text>
<polyline fill="none" stroke="black" points="23,-308.5 133,-308.5 "/>
<text text-anchor="middle" x="78" y="-296.5" font-family="Helvetica,sans-Serif" font-size="10.00"> </text>
<polyline fill="none" stroke="black" points="23,-289.5 133,-289.5 "/>
<text text-anchor="start" x="31" y="-277.5" font-family="Helvetica,sans-Serif" font-size="10.00">+ Scheduler()</text>
<text text-anchor="start" x="31" y="-266.5" font-family="Helvetica,sans-Serif" font-size="10.00">+ ~Scheduler()</text>
<text text-anchor="start" x="31" y="-255.5" font-family="Helvetica,sans-Serif" font-size="10.00">+ getName()</text>
<text text-anchor="start" x="31" y="-244.5" font-family="Helvetica,sans-Serif" font-size="10.00">+ schedule()</text>
<text text-anchor="start" x="31" y="-233.5" font-family="Helvetica,sans-Serif" font-size="10.00">+ start()</text>
<text text-anchor="start" x="31" y="-222.5" font-family="Helvetica,sans-Serif" font-size="10.00">+ stop()</text>
<text text-anchor="start" x="31" y="-211.5" font-family="Helvetica,sans-Serif" font-size="10.00">+ GetThis()</text>
<text text-anchor="start" x="31" y="-200.5" font-family="Helvetica,sans-Serif" font-size="10.00">+ GetMainFiber()</text>
<text text-anchor="start" x="31" y="-189.5" font-family="Helvetica,sans-Serif" font-size="10.00"># tickle()</text>
<text text-anchor="start" x="31" y="-178.5" font-family="Helvetica,sans-Serif" font-size="10.00"># run()</text>
<text text-anchor="start" x="31" y="-167.5" font-family="Helvetica,sans-Serif" font-size="10.00"># idle()</text>
<text text-anchor="start" x="31" y="-156.5" font-family="Helvetica,sans-Serif" font-size="10.00"># stopping()</text>
<text text-anchor="start" x="31" y="-145.5" font-family="Helvetica,sans-Serif" font-size="10.00"># setThis()</text>
<text text-anchor="start" x="31" y="-134.5" font-family="Helvetica,sans-Serif" font-size="10.00"># hasIdleThreads()</text>
</a>
</g>
</g>
<!-- Node2&#45;&gt;Node1 -->
<g id="edge1" class="edge">
<title>Node2&#45;&gt;Node1</title>
<path fill="none" stroke="#404040" d="M78,-127.23C78,-114.97 78,-102.85 78,-91.75"/>
<polygon fill="none" stroke="#404040" points="78,-91.7 74,-85.7 78,-79.7 82,-85.7 78,-91.7"/>
<text text-anchor="middle" x="107.5" y="-101" font-family="Helvetica,sans-Serif" font-size="10.00"> +scheduler</text>
</g>
</g>
</svg>
