<?xml version="1.0" encoding="UTF-8" standalone="no"?>
<!DOCTYPE svg PUBLIC "-//W3C//DTD SVG 1.1//EN"
 "http://www.w3.org/Graphics/SVG/1.1/DTD/svg11.dtd">
<!-- Generated by graphviz version 2.43.0 (0)
 -->
<!-- Title: http_parser_settings Pages: 1 -->
<svg width="195pt" height="435pt"
 viewBox="0.00 0.00 194.50 435.00" xmlns="http://www.w3.org/2000/svg" xmlns:xlink="http://www.w3.org/1999/xlink">
<g id="graph0" class="graph" transform="scale(1 1) rotate(0) translate(4 431)">
<title>http_parser_settings</title>
<polygon fill="white" stroke="transparent" points="-4,4 -4,-431 190.5,-431 190.5,4 -4,4"/>
<!-- Node1 -->
<g id="node1" class="node">
<title>Node1</title>
<g id="a_node1"><a xlink:title=" ">
<polygon fill="#bfbfbf" stroke="black" points="7.5,-0.5 7.5,-57.5 123.5,-57.5 123.5,-0.5 7.5,-0.5"/>
<text text-anchor="middle" x="65.5" y="-45.5" font-family="Helvetica,sans-Serif" font-size="10.00">http_parser_settings</text>
<polyline fill="none" stroke="black" points="7.5,-38.5 123.5,-38.5 "/>
<text text-anchor="middle" x="65.5" y="-26.5" font-family="Helvetica,sans-Serif" font-size="10.00"> </text>
<polyline fill="none" stroke="black" points="7.5,-19.5 123.5,-19.5 "/>
<text text-anchor="middle" x="65.5" y="-7.5" font-family="Helvetica,sans-Serif" font-size="10.00"> </text>
</a>
</g>
</g>
<!-- Node2 -->
<g id="node2" class="node">
<title>Node2</title>
<g id="a_node2"><a xlink:href="structhttp__parser.html" target="_top" xlink:title=" ">
<polygon fill="white" stroke="black" points="0,-215.5 0,-426.5 131,-426.5 131,-215.5 0,-215.5"/>
<text text-anchor="middle" x="65.5" y="-414.5" font-family="Helvetica,sans-Serif" font-size="10.00">http_parser</text>
<polyline fill="none" stroke="black" points="0,-407.5 131,-407.5 "/>
<text text-anchor="start" x="8" y="-395.5" font-family="Helvetica,sans-Serif" font-size="10.00">+ type</text>
<text text-anchor="start" x="8" y="-384.5" font-family="Helvetica,sans-Serif" font-size="10.00">+ flags</text>
<text text-anchor="start" x="8" y="-373.5" font-family="Helvetica,sans-Serif" font-size="10.00">+ state</text>
<text text-anchor="start" x="8" y="-362.5" font-family="Helvetica,sans-Serif" font-size="10.00">+ header_state</text>
<text text-anchor="start" x="8" y="-351.5" font-family="Helvetica,sans-Serif" font-size="10.00">+ index</text>
<text text-anchor="start" x="8" y="-340.5" font-family="Helvetica,sans-Serif" font-size="10.00">+ lenient_http_headers</text>
<text text-anchor="start" x="8" y="-329.5" font-family="Helvetica,sans-Serif" font-size="10.00">+ nread</text>
<text text-anchor="start" x="8" y="-318.5" font-family="Helvetica,sans-Serif" font-size="10.00">+ content_length</text>
<text text-anchor="start" x="8" y="-307.5" font-family="Helvetica,sans-Serif" font-size="10.00">+ http_major</text>
<text text-anchor="start" x="8" y="-296.5" font-family="Helvetica,sans-Serif" font-size="10.00">+ http_minor</text>
<text text-anchor="start" x="8" y="-285.5" font-family="Helvetica,sans-Serif" font-size="10.00">+ status_code</text>
<text text-anchor="start" x="8" y="-274.5" font-family="Helvetica,sans-Serif" font-size="10.00">+ method</text>
<text text-anchor="start" x="8" y="-263.5" font-family="Helvetica,sans-Serif" font-size="10.00">+ http_errno</text>
<text text-anchor="start" x="8" y="-252.5" font-family="Helvetica,sans-Serif" font-size="10.00">+ upgrade</text>
<text text-anchor="start" x="8" y="-241.5" font-family="Helvetica,sans-Serif" font-size="10.00">+ data</text>
<polyline fill="none" stroke="black" points="0,-234.5 131,-234.5 "/>
<text text-anchor="middle" x="65.5" y="-222.5" font-family="Helvetica,sans-Serif" font-size="10.00"> </text>
</a>
</g>
</g>
<!-- Node2&#45;&gt;Node1 -->
<g id="edge1" class="edge">
<title>Node2&#45;&gt;Node1</title>
<path fill="none" stroke="#404040" d="M65.5,-215.3C65.5,-164.94 65.5,-107.54 65.5,-70.14"/>
<polygon fill="none" stroke="#404040" points="65.5,-69.79 61.5,-63.79 65.5,-57.79 69.5,-63.79 65.5,-69.79"/>
<text text-anchor="middle" x="126" y="-189" font-family="Helvetica,sans-Serif" font-size="10.00"> +on_body</text>
<text text-anchor="middle" x="126" y="-178" font-family="Helvetica,sans-Serif" font-size="10.00">+on_chunk_complete</text>
<text text-anchor="middle" x="126" y="-167" font-family="Helvetica,sans-Serif" font-size="10.00">+on_chunk_header</text>
<text text-anchor="middle" x="126" y="-156" font-family="Helvetica,sans-Serif" font-size="10.00">+on_header_field</text>
<text text-anchor="middle" x="126" y="-145" font-family="Helvetica,sans-Serif" font-size="10.00">+on_header_value</text>
<text text-anchor="middle" x="126" y="-134" font-family="Helvetica,sans-Serif" font-size="10.00">+on_headers_complete</text>
<text text-anchor="middle" x="126" y="-123" font-family="Helvetica,sans-Serif" font-size="10.00">+on_message_begin</text>
<text text-anchor="middle" x="126" y="-112" font-family="Helvetica,sans-Serif" font-size="10.00">+on_message_complete</text>
<text text-anchor="middle" x="126" y="-101" font-family="Helvetica,sans-Serif" font-size="10.00">+on_status</text>
<text text-anchor="middle" x="126" y="-90" font-family="Helvetica,sans-Serif" font-size="10.00">+on_url</text>
<text text-anchor="middle" x="126" y="-79" font-family="Helvetica,sans-Serif" font-size="10.00">...</text>
</g>
</g>
</svg>
