<?xml version="1.0" encoding="UTF-8" standalone="no"?>
<!DOCTYPE svg PUBLIC "-//W3C//DTD SVG 1.1//EN"
 "http://www.w3.org/Graphics/SVG/1.1/DTD/svg11.dtd">
<!-- Generated by graphviz version 2.43.0 (0)
 -->
<!-- Title: sylar/tcp_server.h Pages: 1 -->
<svg width="2016pt" height="364pt"
 viewBox="0.00 0.00 2015.50 364.00" xmlns="http://www.w3.org/2000/svg" xmlns:xlink="http://www.w3.org/1999/xlink">
<g id="graph0" class="graph" transform="scale(1 1) rotate(0) translate(4 360)">
<title>sylar/tcp_server.h</title>
<polygon fill="white" stroke="transparent" points="-4,4 -4,-360 2011.5,-360 2011.5,4 -4,4"/>
<!-- Node1 -->
<g id="node1" class="node">
<title>Node1</title>
<g id="a_node1"><a xlink:title="TCP服务器的封装">
<polygon fill="#bfbfbf" stroke="black" points="620,-336.5 620,-355.5 723,-355.5 723,-336.5 620,-336.5"/>
<text text-anchor="middle" x="671.5" y="-343.5" font-family="Helvetica,sans-Serif" font-size="10.00">sylar/tcp_server.h</text>
</a>
</g>
</g>
<!-- Node2 -->
<g id="node2" class="node">
<title>Node2</title>
<g id="a_node2"><a xlink:title=" ">
<polygon fill="white" stroke="#bfbfbf" points="940.5,-0.5 940.5,-19.5 998.5,-19.5 998.5,-0.5 940.5,-0.5"/>
<text text-anchor="middle" x="969.5" y="-7.5" font-family="Helvetica,sans-Serif" font-size="10.00">memory</text>
</a>
</g>
</g>
<!-- Node1&#45;&gt;Node2 -->
<g id="edge1" class="edge">
<title>Node1&#45;&gt;Node2</title>
<path fill="none" stroke="midnightblue" d="M671.5,-336.44C671.5,-317.94 671.5,-272.81 671.5,-235 671.5,-235 671.5,-235 671.5,-177 671.5,-59.96 849.09,-24.7 930.08,-14.7"/>
<polygon fill="midnightblue" stroke="midnightblue" points="930.86,-18.14 940.38,-13.5 930.05,-11.18 930.86,-18.14"/>
</g>
<!-- Node3 -->
<g id="node3" class="node">
<title>Node3</title>
<g id="a_node3"><a xlink:title=" ">
<polygon fill="white" stroke="#bfbfbf" points="1928,-0.5 1928,-19.5 1993,-19.5 1993,-0.5 1928,-0.5"/>
<text text-anchor="middle" x="1960.5" y="-7.5" font-family="Helvetica,sans-Serif" font-size="10.00">functional</text>
</a>
</g>
</g>
<!-- Node1&#45;&gt;Node3 -->
<g id="edge2" class="edge">
<title>Node1&#45;&gt;Node3</title>
<path fill="none" stroke="midnightblue" d="M723.05,-343.51C968.58,-336.06 2007.5,-300.67 2007.5,-235 2007.5,-235 2007.5,-235 2007.5,-121 2007.5,-85.7 1986.78,-48.79 1972.86,-27.96"/>
<polygon fill="midnightblue" stroke="midnightblue" points="1975.62,-25.8 1967.04,-19.59 1969.87,-29.8 1975.62,-25.8"/>
</g>
<!-- Node4 -->
<g id="node4" class="node">
<title>Node4</title>
<g id="a_node4"><a xlink:href="address_8h.html" target="_top" xlink:title="网络地址的封装(IPv4,IPv6,Unix)">
<polygon fill="white" stroke="black" points="255.5,-56.5 255.5,-75.5 319.5,-75.5 319.5,-56.5 255.5,-56.5"/>
<text text-anchor="middle" x="287.5" y="-63.5" font-family="Helvetica,sans-Serif" font-size="10.00">address.h</text>
</a>
</g>
</g>
<!-- Node1&#45;&gt;Node4 -->
<g id="edge3" class="edge">
<title>Node1&#45;&gt;Node4</title>
<path fill="none" stroke="midnightblue" d="M619.94,-340.43C518.66,-330.04 303.5,-300.27 303.5,-235 303.5,-235 303.5,-235 303.5,-177 303.5,-144.63 296.63,-107.44 291.89,-85.66"/>
<polygon fill="midnightblue" stroke="midnightblue" points="295.28,-84.76 289.66,-75.78 288.45,-86.3 295.28,-84.76"/>
</g>
<!-- Node14 -->
<g id="node14" class="node">
<title>Node14</title>
<g id="a_node14"><a xlink:href="iomanager_8h.html" target="_top" xlink:title="IO协程调度器">
<polygon fill="white" stroke="black" points="1411,-280.5 1411,-299.5 1488,-299.5 1488,-280.5 1411,-280.5"/>
<text text-anchor="middle" x="1449.5" y="-287.5" font-family="Helvetica,sans-Serif" font-size="10.00">iomanager.h</text>
</a>
</g>
</g>
<!-- Node1&#45;&gt;Node14 -->
<g id="edge14" class="edge">
<title>Node1&#45;&gt;Node14</title>
<path fill="none" stroke="midnightblue" d="M723.15,-341.42C865.38,-331.54 1261.41,-304.06 1400.47,-294.4"/>
<polygon fill="midnightblue" stroke="midnightblue" points="1401.07,-297.87 1410.8,-293.69 1400.59,-290.89 1401.07,-297.87"/>
</g>
<!-- Node26 -->
<g id="node26" class="node">
<title>Node26</title>
<g id="a_node26"><a xlink:href="noncopyable_8h.html" target="_top" xlink:title="不可拷贝对象封装">
<polygon fill="white" stroke="black" points="555.5,-0.5 555.5,-19.5 643.5,-19.5 643.5,-0.5 555.5,-0.5"/>
<text text-anchor="middle" x="599.5" y="-7.5" font-family="Helvetica,sans-Serif" font-size="10.00">noncopyable.h</text>
</a>
</g>
</g>
<!-- Node1&#45;&gt;Node26 -->
<g id="edge70" class="edge">
<title>Node1&#45;&gt;Node26</title>
<path fill="none" stroke="midnightblue" d="M659.96,-336.43C638.7,-319.57 595.5,-279.8 595.5,-235 595.5,-235 595.5,-235 595.5,-121 595.5,-88.93 597.22,-51.63 598.4,-29.74"/>
<polygon fill="midnightblue" stroke="midnightblue" points="601.91,-29.73 598.98,-19.55 594.92,-29.34 601.91,-29.73"/>
</g>
<!-- Node37 -->
<g id="node37" class="node">
<title>Node37</title>
<g id="a_node37"><a xlink:href="socket_8h.html" target="_top" xlink:title="Socket封装">
<polygon fill="white" stroke="black" points="348,-112.5 348,-131.5 405,-131.5 405,-112.5 348,-112.5"/>
<text text-anchor="middle" x="376.5" y="-119.5" font-family="Helvetica,sans-Serif" font-size="10.00">socket.h</text>
</a>
</g>
</g>
<!-- Node1&#45;&gt;Node37 -->
<g id="edge63" class="edge">
<title>Node1&#45;&gt;Node37</title>
<path fill="none" stroke="midnightblue" d="M650.68,-336.37C631.91,-328.18 603.89,-314.92 581.5,-300 504.67,-248.79 425.1,-172 392.19,-139.01"/>
<polygon fill="midnightblue" stroke="midnightblue" points="394.38,-136.25 384.85,-131.6 389.4,-141.17 394.38,-136.25"/>
</g>
<!-- Node39 -->
<g id="node39" class="node">
<title>Node39</title>
<g id="a_node39"><a xlink:href="config_8h.html" target="_top" xlink:title="配置模块">
<polygon fill="white" stroke="black" points="984,-168.5 984,-187.5 1039,-187.5 1039,-168.5 984,-168.5"/>
<text text-anchor="middle" x="1011.5" y="-175.5" font-family="Helvetica,sans-Serif" font-size="10.00">config.h</text>
</a>
</g>
</g>
<!-- Node1&#45;&gt;Node39 -->
<g id="edge71" class="edge">
<title>Node1&#45;&gt;Node39</title>
<path fill="none" stroke="midnightblue" d="M689.3,-336.31C745.3,-308.97 918.1,-224.6 984.83,-192.02"/>
<polygon fill="midnightblue" stroke="midnightblue" points="986.42,-195.14 993.88,-187.61 983.35,-188.85 986.42,-195.14"/>
</g>
<!-- Node4&#45;&gt;Node2 -->
<g id="edge4" class="edge">
<title>Node4&#45;&gt;Node2</title>
<path fill="none" stroke="midnightblue" d="M319.65,-57.46C322.63,-56.91 325.61,-56.41 328.5,-56 571.93,-21.55 635.49,-40.37 880.5,-20 896.72,-18.65 914.58,-16.9 930.01,-15.3"/>
<polygon fill="midnightblue" stroke="midnightblue" points="930.68,-18.75 940.26,-14.22 929.95,-11.79 930.68,-18.75"/>
</g>
<!-- Node5 -->
<g id="node5" class="node">
<title>Node5</title>
<g id="a_node5"><a xlink:title=" ">
<polygon fill="white" stroke="#bfbfbf" points="1411.5,-0.5 1411.5,-19.5 1455.5,-19.5 1455.5,-0.5 1411.5,-0.5"/>
<text text-anchor="middle" x="1433.5" y="-7.5" font-family="Helvetica,sans-Serif" font-size="10.00">string</text>
</a>
</g>
</g>
<!-- Node4&#45;&gt;Node5 -->
<g id="edge5" class="edge">
<title>Node4&#45;&gt;Node5</title>
<path fill="none" stroke="midnightblue" d="M319.64,-57.39C322.62,-56.85 325.61,-56.37 328.5,-56 543.96,-28.18 1241.97,-14.38 1401.03,-11.55"/>
<polygon fill="midnightblue" stroke="midnightblue" points="1401.19,-15.05 1411.13,-11.38 1401.07,-8.05 1401.19,-15.05"/>
</g>
<!-- Node6 -->
<g id="node6" class="node">
<title>Node6</title>
<g id="a_node6"><a xlink:title=" ">
<polygon fill="white" stroke="#bfbfbf" points="257.5,-0.5 257.5,-19.5 329.5,-19.5 329.5,-0.5 257.5,-0.5"/>
<text text-anchor="middle" x="293.5" y="-7.5" font-family="Helvetica,sans-Serif" font-size="10.00">sys/types.h</text>
</a>
</g>
</g>
<!-- Node4&#45;&gt;Node6 -->
<g id="edge6" class="edge">
<title>Node4&#45;&gt;Node6</title>
<path fill="none" stroke="midnightblue" d="M288.49,-56.08C289.29,-48.93 290.43,-38.64 291.42,-29.69"/>
<polygon fill="midnightblue" stroke="midnightblue" points="294.9,-30.08 292.53,-19.75 287.94,-29.3 294.9,-30.08"/>
</g>
<!-- Node7 -->
<g id="node7" class="node">
<title>Node7</title>
<g id="a_node7"><a xlink:title=" ">
<polygon fill="white" stroke="#bfbfbf" points="0,-0.5 0,-19.5 77,-19.5 77,-0.5 0,-0.5"/>
<text text-anchor="middle" x="38.5" y="-7.5" font-family="Helvetica,sans-Serif" font-size="10.00">sys/socket.h</text>
</a>
</g>
</g>
<!-- Node4&#45;&gt;Node7 -->
<g id="edge7" class="edge">
<title>Node4&#45;&gt;Node7</title>
<path fill="none" stroke="midnightblue" d="M255.46,-58.05C212.82,-48.8 137.03,-32.37 87.27,-21.58"/>
<polygon fill="midnightblue" stroke="midnightblue" points="87.89,-18.13 77.37,-19.43 86.4,-24.97 87.89,-18.13"/>
</g>
<!-- Node8 -->
<g id="node8" class="node">
<title>Node8</title>
<g id="a_node8"><a xlink:title=" ">
<polygon fill="white" stroke="#bfbfbf" points="95,-0.5 95,-19.5 152,-19.5 152,-0.5 95,-0.5"/>
<text text-anchor="middle" x="123.5" y="-7.5" font-family="Helvetica,sans-Serif" font-size="10.00">sys/un.h</text>
</a>
</g>
</g>
<!-- Node4&#45;&gt;Node8 -->
<g id="edge8" class="edge">
<title>Node4&#45;&gt;Node8</title>
<path fill="none" stroke="midnightblue" d="M261.51,-56.44C233.8,-47.32 189.75,-32.81 158.88,-22.65"/>
<polygon fill="midnightblue" stroke="midnightblue" points="159.96,-19.32 149.36,-19.52 157.77,-25.97 159.96,-19.32"/>
</g>
<!-- Node9 -->
<g id="node9" class="node">
<title>Node9</title>
<g id="a_node9"><a xlink:title=" ">
<polygon fill="white" stroke="#bfbfbf" points="170,-0.5 170,-19.5 239,-19.5 239,-0.5 170,-0.5"/>
<text text-anchor="middle" x="204.5" y="-7.5" font-family="Helvetica,sans-Serif" font-size="10.00">arpa/inet.h</text>
</a>
</g>
</g>
<!-- Node4&#45;&gt;Node9 -->
<g id="edge9" class="edge">
<title>Node4&#45;&gt;Node9</title>
<path fill="none" stroke="midnightblue" d="M274.16,-56.32C261.34,-47.98 241.72,-35.21 226.56,-25.35"/>
<polygon fill="midnightblue" stroke="midnightblue" points="228.09,-22.17 217.8,-19.65 224.28,-28.04 228.09,-22.17"/>
</g>
<!-- Node10 -->
<g id="node10" class="node">
<title>Node10</title>
<g id="a_node10"><a xlink:title=" ">
<polygon fill="white" stroke="#bfbfbf" points="347.5,-0.5 347.5,-19.5 403.5,-19.5 403.5,-0.5 347.5,-0.5"/>
<text text-anchor="middle" x="375.5" y="-7.5" font-family="Helvetica,sans-Serif" font-size="10.00">unistd.h</text>
</a>
</g>
</g>
<!-- Node4&#45;&gt;Node10 -->
<g id="edge10" class="edge">
<title>Node4&#45;&gt;Node10</title>
<path fill="none" stroke="midnightblue" d="M301.64,-56.32C315.37,-47.9 336.44,-34.97 352.56,-25.07"/>
<polygon fill="midnightblue" stroke="midnightblue" points="354.7,-27.87 361.4,-19.65 351.04,-21.9 354.7,-27.87"/>
</g>
<!-- Node11 -->
<g id="node11" class="node">
<title>Node11</title>
<g id="a_node11"><a xlink:title=" ">
<polygon fill="white" stroke="#bfbfbf" points="477.5,-0.5 477.5,-19.5 537.5,-19.5 537.5,-0.5 477.5,-0.5"/>
<text text-anchor="middle" x="507.5" y="-7.5" font-family="Helvetica,sans-Serif" font-size="10.00">iostream</text>
</a>
</g>
</g>
<!-- Node4&#45;&gt;Node11 -->
<g id="edge11" class="edge">
<title>Node4&#45;&gt;Node11</title>
<path fill="none" stroke="midnightblue" d="M319.96,-57.03C359.16,-47.41 425.09,-31.23 467.42,-20.84"/>
<polygon fill="midnightblue" stroke="midnightblue" points="468.5,-24.18 477.38,-18.39 466.84,-17.38 468.5,-24.18"/>
</g>
<!-- Node12 -->
<g id="node12" class="node">
<title>Node12</title>
<g id="a_node12"><a xlink:title=" ">
<polygon fill="white" stroke="#bfbfbf" points="824,-0.5 824,-19.5 871,-19.5 871,-0.5 824,-0.5"/>
<text text-anchor="middle" x="847.5" y="-7.5" font-family="Helvetica,sans-Serif" font-size="10.00">vector</text>
</a>
</g>
</g>
<!-- Node4&#45;&gt;Node12 -->
<g id="edge12" class="edge">
<title>Node4&#45;&gt;Node12</title>
<path fill="none" stroke="midnightblue" d="M319.65,-57.49C322.63,-56.93 325.62,-56.42 328.5,-56 539.57,-25.18 599.24,-55.71 813.82,-19.75"/>
<polygon fill="midnightblue" stroke="midnightblue" points="814.56,-23.17 823.83,-18.04 813.38,-16.27 814.56,-23.17"/>
</g>
<!-- Node13 -->
<g id="node13" class="node">
<title>Node13</title>
<g id="a_node13"><a xlink:title=" ">
<polygon fill="white" stroke="#bfbfbf" points="421.5,-0.5 421.5,-19.5 459.5,-19.5 459.5,-0.5 421.5,-0.5"/>
<text text-anchor="middle" x="440.5" y="-7.5" font-family="Helvetica,sans-Serif" font-size="10.00">map</text>
</a>
</g>
</g>
<!-- Node4&#45;&gt;Node13 -->
<g id="edge13" class="edge">
<title>Node4&#45;&gt;Node13</title>
<path fill="none" stroke="midnightblue" d="M311.74,-56.44C338.88,-46.87 382.82,-31.36 411.68,-21.17"/>
<polygon fill="midnightblue" stroke="midnightblue" points="412.95,-24.44 421.21,-17.81 410.62,-17.83 412.95,-24.44"/>
</g>
<!-- Node15 -->
<g id="node15" class="node">
<title>Node15</title>
<g id="a_node15"><a xlink:href="scheduler_8h.html" target="_top" xlink:title="协程调度器实现">
<polygon fill="white" stroke="black" points="1639.5,-224.5 1639.5,-243.5 1711.5,-243.5 1711.5,-224.5 1639.5,-224.5"/>
<text text-anchor="middle" x="1675.5" y="-231.5" font-family="Helvetica,sans-Serif" font-size="10.00">scheduler.h</text>
</a>
</g>
</g>
<!-- Node14&#45;&gt;Node15 -->
<g id="edge15" class="edge">
<title>Node14&#45;&gt;Node15</title>
<path fill="none" stroke="midnightblue" d="M1485.31,-280.44C1524.49,-271.08 1587.38,-256.06 1630.02,-245.87"/>
<polygon fill="midnightblue" stroke="midnightblue" points="1630.94,-249.24 1639.86,-243.52 1629.32,-242.44 1630.94,-249.24"/>
</g>
<!-- Node35 -->
<g id="node35" class="node">
<title>Node35</title>
<g id="a_node35"><a xlink:href="timer_8h.html" target="_top" xlink:title="定时器封装">
<polygon fill="white" stroke="black" points="1424,-112.5 1424,-131.5 1475,-131.5 1475,-112.5 1424,-112.5"/>
<text text-anchor="middle" x="1449.5" y="-119.5" font-family="Helvetica,sans-Serif" font-size="10.00">timer.h</text>
</a>
</g>
</g>
<!-- Node14&#45;&gt;Node35 -->
<g id="edge58" class="edge">
<title>Node14&#45;&gt;Node35</title>
<path fill="none" stroke="midnightblue" d="M1449.5,-280.08C1449.5,-253.95 1449.5,-177.21 1449.5,-141.58"/>
<polygon fill="midnightblue" stroke="midnightblue" points="1453,-141.57 1449.5,-131.57 1446,-141.57 1453,-141.57"/>
</g>
<!-- Node15&#45;&gt;Node2 -->
<g id="edge18" class="edge">
<title>Node15&#45;&gt;Node2</title>
<path fill="none" stroke="midnightblue" d="M1639.44,-233.68C1535.43,-235 1226.37,-234.4 975.5,-188 893.12,-172.76 845.17,-199.47 795.5,-132 775.27,-104.52 815.09,-68.03 830.5,-56 859.57,-33.32 900.44,-21.88 930.34,-16.24"/>
<polygon fill="midnightblue" stroke="midnightblue" points="931.18,-19.65 940.42,-14.48 929.97,-12.75 931.18,-19.65"/>
</g>
<!-- Node15&#45;&gt;Node3 -->
<g id="edge16" class="edge">
<title>Node15&#45;&gt;Node3</title>
<path fill="none" stroke="midnightblue" d="M1711.75,-231.89C1752.37,-229.04 1818.65,-219.47 1865.5,-188 1916.28,-153.89 1920.36,-131.77 1945.5,-76 1952.13,-61.3 1955.98,-43.37 1958.12,-30.06"/>
<polygon fill="midnightblue" stroke="midnightblue" points="1961.64,-30.15 1959.58,-19.76 1954.71,-29.17 1961.64,-30.15"/>
</g>
<!-- Node15&#45;&gt;Node5 -->
<g id="edge19" class="edge">
<title>Node15&#45;&gt;Node5</title>
<path fill="none" stroke="midnightblue" d="M1667.59,-224.46C1643.02,-198.14 1565.47,-116.38 1494.5,-56 1481.88,-45.26 1466.92,-34.2 1454.97,-25.73"/>
<polygon fill="midnightblue" stroke="midnightblue" points="1456.71,-22.68 1446.51,-19.81 1452.7,-28.41 1456.71,-22.68"/>
</g>
<!-- Node16 -->
<g id="node16" class="node">
<title>Node16</title>
<g id="a_node16"><a xlink:title=" ">
<polygon fill="white" stroke="#bfbfbf" points="1563.5,-0.5 1563.5,-19.5 1595.5,-19.5 1595.5,-0.5 1563.5,-0.5"/>
<text text-anchor="middle" x="1579.5" y="-7.5" font-family="Helvetica,sans-Serif" font-size="10.00">list</text>
</a>
</g>
</g>
<!-- Node15&#45;&gt;Node16 -->
<g id="edge17" class="edge">
<title>Node15&#45;&gt;Node16</title>
<path fill="none" stroke="midnightblue" d="M1711.56,-226.9C1779.77,-213.68 1917.21,-178.15 1874.5,-112 1807.48,-8.2 1729.9,-54.2 1605.38,-19.91"/>
<polygon fill="midnightblue" stroke="midnightblue" points="1606.13,-16.48 1595.56,-17.06 1604.19,-23.2 1606.13,-16.48"/>
</g>
<!-- Node17 -->
<g id="node17" class="node">
<title>Node17</title>
<g id="a_node17"><a xlink:href="fiber_8h.html" target="_top" xlink:title="协程模块">
<polygon fill="white" stroke="black" points="1727,-168.5 1727,-187.5 1774,-187.5 1774,-168.5 1727,-168.5"/>
<text text-anchor="middle" x="1750.5" y="-175.5" font-family="Helvetica,sans-Serif" font-size="10.00">fiber.h</text>
</a>
</g>
</g>
<!-- Node15&#45;&gt;Node17 -->
<g id="edge20" class="edge">
<title>Node15&#45;&gt;Node17</title>
<path fill="none" stroke="midnightblue" d="M1687.55,-224.32C1698.96,-216.11 1716.33,-203.6 1729.93,-193.81"/>
<polygon fill="midnightblue" stroke="midnightblue" points="1732.16,-196.52 1738.23,-187.83 1728.07,-190.84 1732.16,-196.52"/>
</g>
<!-- Node19 -->
<g id="node19" class="node">
<title>Node19</title>
<g id="a_node19"><a xlink:href="thread_8h.html" target="_top" xlink:title="线程相关的封装">
<polygon fill="white" stroke="black" points="1722,-112.5 1722,-131.5 1779,-131.5 1779,-112.5 1722,-112.5"/>
<text text-anchor="middle" x="1750.5" y="-119.5" font-family="Helvetica,sans-Serif" font-size="10.00">thread.h</text>
</a>
</g>
</g>
<!-- Node15&#45;&gt;Node19 -->
<g id="edge57" class="edge">
<title>Node15&#45;&gt;Node19</title>
<path fill="none" stroke="midnightblue" d="M1681.25,-224.11C1689.41,-211.53 1704.88,-187.86 1718.5,-168 1724.95,-158.6 1732.32,-148.21 1738.36,-139.79"/>
<polygon fill="midnightblue" stroke="midnightblue" points="1741.28,-141.73 1744.28,-131.57 1735.6,-137.64 1741.28,-141.73"/>
</g>
<!-- Node27 -->
<g id="node27" class="node">
<title>Node27</title>
<g id="a_node27"><a xlink:href="log_8h.html" target="_top" xlink:title="日志模块">
<polygon fill="white" stroke="black" points="1365,-112.5 1365,-131.5 1406,-131.5 1406,-112.5 1365,-112.5"/>
<text text-anchor="middle" x="1385.5" y="-119.5" font-family="Helvetica,sans-Serif" font-size="10.00">log.h</text>
</a>
</g>
</g>
<!-- Node15&#45;&gt;Node27 -->
<g id="edge36" class="edge">
<title>Node15&#45;&gt;Node27</title>
<path fill="none" stroke="midnightblue" d="M1652.74,-224.37C1600.87,-204.69 1473.83,-156.51 1415.58,-134.41"/>
<polygon fill="midnightblue" stroke="midnightblue" points="1416.78,-131.12 1406.19,-130.85 1414.3,-137.67 1416.78,-131.12"/>
</g>
<!-- Node17&#45;&gt;Node2 -->
<g id="edge22" class="edge">
<title>Node17&#45;&gt;Node2</title>
<path fill="none" stroke="midnightblue" d="M1730.54,-168.42C1677.27,-145.92 1526.81,-84.93 1395.5,-56 1255.21,-25.09 1084.09,-15.21 1008.54,-12.22"/>
<polygon fill="midnightblue" stroke="midnightblue" points="1008.65,-8.72 998.53,-11.84 1008.39,-15.71 1008.65,-8.72"/>
</g>
<!-- Node17&#45;&gt;Node3 -->
<g id="edge21" class="edge">
<title>Node17&#45;&gt;Node3</title>
<path fill="none" stroke="midnightblue" d="M1774.01,-172.86C1800.57,-167.25 1844.07,-155.16 1874.5,-132 1911.62,-103.75 1939.23,-54.97 1952.23,-28.81"/>
<polygon fill="midnightblue" stroke="midnightblue" points="1955.44,-30.21 1956.63,-19.68 1949.13,-27.18 1955.44,-30.21"/>
</g>
<!-- Node18 -->
<g id="node18" class="node">
<title>Node18</title>
<g id="a_node18"><a xlink:title=" ">
<polygon fill="white" stroke="#bfbfbf" points="1797.5,-112.5 1797.5,-131.5 1865.5,-131.5 1865.5,-112.5 1797.5,-112.5"/>
<text text-anchor="middle" x="1831.5" y="-119.5" font-family="Helvetica,sans-Serif" font-size="10.00">ucontext.h</text>
</a>
</g>
</g>
<!-- Node17&#45;&gt;Node18 -->
<g id="edge23" class="edge">
<title>Node17&#45;&gt;Node18</title>
<path fill="none" stroke="midnightblue" d="M1763.51,-168.32C1776.03,-159.98 1795.18,-147.21 1809.97,-137.35"/>
<polygon fill="midnightblue" stroke="midnightblue" points="1812.14,-140.11 1818.52,-131.65 1808.26,-134.29 1812.14,-140.11"/>
</g>
<!-- Node17&#45;&gt;Node19 -->
<g id="edge24" class="edge">
<title>Node17&#45;&gt;Node19</title>
<path fill="none" stroke="midnightblue" d="M1750.5,-168.08C1750.5,-161.01 1750.5,-150.86 1750.5,-141.99"/>
<polygon fill="midnightblue" stroke="midnightblue" points="1754,-141.75 1750.5,-131.75 1747,-141.75 1754,-141.75"/>
</g>
<!-- Node19&#45;&gt;Node5 -->
<g id="edge25" class="edge">
<title>Node19&#45;&gt;Node5</title>
<path fill="none" stroke="midnightblue" d="M1735.87,-112.34C1709.01,-96.55 1652.65,-63.97 1631.5,-56 1563.3,-30.28 1542.52,-36.4 1471.5,-20 1469.57,-19.55 1467.58,-19.09 1465.58,-18.62"/>
<polygon fill="midnightblue" stroke="midnightblue" points="1466.13,-15.16 1455.59,-16.28 1464.53,-21.97 1466.13,-15.16"/>
</g>
<!-- Node20 -->
<g id="node20" class="node">
<title>Node20</title>
<g id="a_node20"><a xlink:href="mutex_8h.html" target="_top" xlink:title="信号量，互斥锁，读写锁，范围锁模板，自旋锁，原子锁">
<polygon fill="white" stroke="black" points="1684,-56.5 1684,-75.5 1741,-75.5 1741,-56.5 1684,-56.5"/>
<text text-anchor="middle" x="1712.5" y="-63.5" font-family="Helvetica,sans-Serif" font-size="10.00">mutex.h</text>
</a>
</g>
</g>
<!-- Node19&#45;&gt;Node20 -->
<g id="edge26" class="edge">
<title>Node19&#45;&gt;Node20</title>
<path fill="none" stroke="midnightblue" d="M1744.23,-112.08C1738.86,-104.46 1730.98,-93.26 1724.42,-83.94"/>
<polygon fill="midnightblue" stroke="midnightblue" points="1727.28,-81.91 1718.66,-75.75 1721.55,-85.94 1727.28,-81.91"/>
</g>
<!-- Node20&#45;&gt;Node2 -->
<g id="edge29" class="edge">
<title>Node20&#45;&gt;Node2</title>
<path fill="none" stroke="midnightblue" d="M1683.83,-62.92C1568.93,-54.57 1141.6,-23.51 1009,-13.87"/>
<polygon fill="midnightblue" stroke="midnightblue" points="1009.12,-10.37 998.89,-13.14 1008.61,-17.35 1009.12,-10.37"/>
</g>
<!-- Node20&#45;&gt;Node3 -->
<g id="edge28" class="edge">
<title>Node20&#45;&gt;Node3</title>
<path fill="none" stroke="midnightblue" d="M1741.43,-58.7C1784.95,-49.23 1867.49,-31.25 1917.89,-20.28"/>
<polygon fill="midnightblue" stroke="midnightblue" points="1918.8,-23.66 1927.83,-18.11 1917.31,-16.82 1918.8,-23.66"/>
</g>
<!-- Node20&#45;&gt;Node16 -->
<g id="edge34" class="edge">
<title>Node20&#45;&gt;Node16</title>
<path fill="none" stroke="midnightblue" d="M1691.43,-56.44C1668.12,-46.98 1630.56,-31.73 1605.46,-21.54"/>
<polygon fill="midnightblue" stroke="midnightblue" points="1606.45,-18.16 1595.86,-17.64 1603.81,-24.65 1606.45,-18.16"/>
</g>
<!-- Node21 -->
<g id="node21" class="node">
<title>Node21</title>
<g id="a_node21"><a xlink:title=" ">
<polygon fill="white" stroke="#bfbfbf" points="1613.5,-0.5 1613.5,-19.5 1661.5,-19.5 1661.5,-0.5 1613.5,-0.5"/>
<text text-anchor="middle" x="1637.5" y="-7.5" font-family="Helvetica,sans-Serif" font-size="10.00">thread</text>
</a>
</g>
</g>
<!-- Node20&#45;&gt;Node21 -->
<g id="edge27" class="edge">
<title>Node20&#45;&gt;Node21</title>
<path fill="none" stroke="midnightblue" d="M1700.45,-56.32C1689.04,-48.11 1671.67,-35.6 1658.07,-25.81"/>
<polygon fill="midnightblue" stroke="midnightblue" points="1659.93,-22.84 1649.77,-19.83 1655.84,-28.52 1659.93,-22.84"/>
</g>
<!-- Node22 -->
<g id="node22" class="node">
<title>Node22</title>
<g id="a_node22"><a xlink:title=" ">
<polygon fill="white" stroke="#bfbfbf" points="1680,-0.5 1680,-19.5 1743,-19.5 1743,-0.5 1680,-0.5"/>
<text text-anchor="middle" x="1711.5" y="-7.5" font-family="Helvetica,sans-Serif" font-size="10.00">pthread.h</text>
</a>
</g>
</g>
<!-- Node20&#45;&gt;Node22 -->
<g id="edge30" class="edge">
<title>Node20&#45;&gt;Node22</title>
<path fill="none" stroke="midnightblue" d="M1712.33,-56.08C1712.2,-49.01 1712.02,-38.86 1711.85,-29.99"/>
<polygon fill="midnightblue" stroke="midnightblue" points="1715.35,-29.68 1711.66,-19.75 1708.35,-29.81 1715.35,-29.68"/>
</g>
<!-- Node23 -->
<g id="node23" class="node">
<title>Node23</title>
<g id="a_node23"><a xlink:title=" ">
<polygon fill="white" stroke="#bfbfbf" points="1761.5,-0.5 1761.5,-19.5 1841.5,-19.5 1841.5,-0.5 1761.5,-0.5"/>
<text text-anchor="middle" x="1801.5" y="-7.5" font-family="Helvetica,sans-Serif" font-size="10.00">semaphore.h</text>
</a>
</g>
</g>
<!-- Node20&#45;&gt;Node23 -->
<g id="edge31" class="edge">
<title>Node20&#45;&gt;Node23</title>
<path fill="none" stroke="midnightblue" d="M1726.8,-56.32C1740.68,-47.9 1761.99,-34.97 1778.3,-25.07"/>
<polygon fill="midnightblue" stroke="midnightblue" points="1780.5,-27.83 1787.24,-19.65 1776.87,-21.85 1780.5,-27.83"/>
</g>
<!-- Node24 -->
<g id="node24" class="node">
<title>Node24</title>
<g id="a_node24"><a xlink:title=" ">
<polygon fill="white" stroke="#bfbfbf" points="1480,-0.5 1480,-19.5 1533,-19.5 1533,-0.5 1480,-0.5"/>
<text text-anchor="middle" x="1506.5" y="-7.5" font-family="Helvetica,sans-Serif" font-size="10.00">stdint.h</text>
</a>
</g>
</g>
<!-- Node20&#45;&gt;Node24 -->
<g id="edge32" class="edge">
<title>Node20&#45;&gt;Node24</title>
<path fill="none" stroke="midnightblue" d="M1683.86,-57.49C1647.06,-47.85 1583.17,-31.1 1542.95,-20.55"/>
<polygon fill="midnightblue" stroke="midnightblue" points="1543.83,-17.17 1533.27,-18.02 1542.05,-23.94 1543.83,-17.17"/>
</g>
<!-- Node25 -->
<g id="node25" class="node">
<title>Node25</title>
<g id="a_node25"><a xlink:title=" ">
<polygon fill="white" stroke="#bfbfbf" points="1859.5,-0.5 1859.5,-19.5 1909.5,-19.5 1909.5,-0.5 1859.5,-0.5"/>
<text text-anchor="middle" x="1884.5" y="-7.5" font-family="Helvetica,sans-Serif" font-size="10.00">atomic</text>
</a>
</g>
</g>
<!-- Node20&#45;&gt;Node25 -->
<g id="edge33" class="edge">
<title>Node20&#45;&gt;Node25</title>
<path fill="none" stroke="midnightblue" d="M1739.75,-56.44C1769.41,-47.13 1816.93,-32.21 1849.37,-22.03"/>
<polygon fill="midnightblue" stroke="midnightblue" points="1850.84,-25.24 1859.33,-18.9 1848.74,-18.56 1850.84,-25.24"/>
</g>
<!-- Node20&#45;&gt;Node26 -->
<g id="edge35" class="edge">
<title>Node20&#45;&gt;Node26</title>
<path fill="none" stroke="midnightblue" d="M1683.76,-64.27C1538.25,-60.5 881.18,-42.58 653.86,-19.98"/>
<polygon fill="midnightblue" stroke="midnightblue" points="653.99,-16.47 643.69,-18.93 653.28,-23.44 653.99,-16.47"/>
</g>
<!-- Node27&#45;&gt;Node2 -->
<g id="edge38" class="edge">
<title>Node27&#45;&gt;Node2</title>
<path fill="none" stroke="midnightblue" d="M1364.71,-114.04C1361.97,-113.27 1359.18,-112.56 1356.5,-112 1219.04,-83.06 1170.71,-133.38 1042.5,-76 1017.93,-65 995.78,-42.68 982.49,-27.29"/>
<polygon fill="midnightblue" stroke="midnightblue" points="985.14,-25.01 976.05,-19.56 979.76,-29.49 985.14,-25.01"/>
</g>
<!-- Node27&#45;&gt;Node5 -->
<g id="edge37" class="edge">
<title>Node27&#45;&gt;Node5</title>
<path fill="none" stroke="midnightblue" d="M1389.27,-112.37C1397.08,-94.46 1415.21,-52.92 1425.67,-28.95"/>
<polygon fill="midnightblue" stroke="midnightblue" points="1428.96,-30.16 1429.75,-19.59 1422.54,-27.36 1428.96,-30.16"/>
</g>
<!-- Node27&#45;&gt;Node11 -->
<g id="edge39" class="edge">
<title>Node27&#45;&gt;Node11</title>
<path fill="none" stroke="midnightblue" d="M1364.75,-113.87C1362,-113.13 1359.2,-112.48 1356.5,-112 1193.93,-83.31 772.35,-124.34 614.5,-76 580.28,-65.52 545.82,-41.64 525.58,-25.92"/>
<polygon fill="midnightblue" stroke="midnightblue" points="527.58,-23.04 517.58,-19.55 523.23,-28.52 527.58,-23.04"/>
</g>
<!-- Node27&#45;&gt;Node12 -->
<g id="edge42" class="edge">
<title>Node27&#45;&gt;Node12</title>
<path fill="none" stroke="midnightblue" d="M1364.72,-114.01C1361.98,-113.25 1359.19,-112.55 1356.5,-112 1204.17,-80.8 1159.41,-113.47 1008.5,-76 959.14,-63.74 904.9,-39.4 873.66,-24.24"/>
<polygon fill="midnightblue" stroke="midnightblue" points="874.88,-20.93 864.36,-19.66 871.79,-27.22 874.88,-20.93"/>
</g>
<!-- Node27&#45;&gt;Node13 -->
<g id="edge45" class="edge">
<title>Node27&#45;&gt;Node13</title>
<path fill="none" stroke="midnightblue" d="M1364.75,-113.86C1362,-113.12 1359.2,-112.47 1356.5,-112 1183.61,-81.74 737.15,-121.01 567.5,-76 527.38,-65.36 485.36,-40.79 461.12,-25.09"/>
<polygon fill="midnightblue" stroke="midnightblue" points="463.02,-22.15 452.75,-19.56 459.16,-27.99 463.02,-22.15"/>
</g>
<!-- Node27&#45;&gt;Node16 -->
<g id="edge44" class="edge">
<title>Node27&#45;&gt;Node16</title>
<path fill="none" stroke="midnightblue" d="M1400.72,-112.37C1434.3,-93.33 1514.92,-47.62 1555.43,-24.65"/>
<polygon fill="midnightblue" stroke="midnightblue" points="1557.38,-27.57 1564.35,-19.59 1553.92,-21.48 1557.38,-27.57"/>
</g>
<!-- Node27&#45;&gt;Node20 -->
<g id="edge54" class="edge">
<title>Node27&#45;&gt;Node20</title>
<path fill="none" stroke="midnightblue" d="M1406.06,-114.42C1409.2,-113.53 1412.42,-112.69 1415.5,-112 1507.23,-91.4 1617.05,-77.5 1674,-71.07"/>
<polygon fill="midnightblue" stroke="midnightblue" points="1674.44,-74.55 1684,-69.96 1673.67,-67.59 1674.44,-74.55"/>
</g>
<!-- Node28 -->
<g id="node28" class="node">
<title>Node28</title>
<g id="a_node28"><a xlink:title=" ">
<polygon fill="white" stroke="#bfbfbf" points="839.5,-56.5 839.5,-75.5 895.5,-75.5 895.5,-56.5 839.5,-56.5"/>
<text text-anchor="middle" x="867.5" y="-63.5" font-family="Helvetica,sans-Serif" font-size="10.00">sstream</text>
</a>
</g>
</g>
<!-- Node27&#45;&gt;Node28 -->
<g id="edge40" class="edge">
<title>Node27&#45;&gt;Node28</title>
<path fill="none" stroke="midnightblue" d="M1364.73,-113.98C1361.98,-113.22 1359.19,-112.53 1356.5,-112 1180.52,-77.22 1133.05,-93.23 954.5,-76 938.54,-74.46 920.93,-72.66 905.76,-71.07"/>
<polygon fill="midnightblue" stroke="midnightblue" points="906.01,-67.58 895.7,-70.02 905.28,-74.54 906.01,-67.58"/>
</g>
<!-- Node29 -->
<g id="node29" class="node">
<title>Node29</title>
<g id="a_node29"><a xlink:title=" ">
<polygon fill="white" stroke="#bfbfbf" points="1108,-56.5 1108,-75.5 1163,-75.5 1163,-56.5 1108,-56.5"/>
<text text-anchor="middle" x="1135.5" y="-63.5" font-family="Helvetica,sans-Serif" font-size="10.00">fstream</text>
</a>
</g>
</g>
<!-- Node27&#45;&gt;Node29 -->
<g id="edge41" class="edge">
<title>Node27&#45;&gt;Node29</title>
<path fill="none" stroke="midnightblue" d="M1364.98,-114.33C1362.15,-113.5 1359.26,-112.7 1356.5,-112 1278.7,-92.38 1255.59,-93.72 1173.15,-76.05"/>
<polygon fill="midnightblue" stroke="midnightblue" points="1173.86,-72.62 1163.35,-73.92 1172.38,-79.46 1173.86,-72.62"/>
</g>
<!-- Node30 -->
<g id="node30" class="node">
<title>Node30</title>
<g id="a_node30"><a xlink:title=" ">
<polygon fill="white" stroke="#bfbfbf" points="1181,-56.5 1181,-75.5 1234,-75.5 1234,-56.5 1181,-56.5"/>
<text text-anchor="middle" x="1207.5" y="-63.5" font-family="Helvetica,sans-Serif" font-size="10.00">cstdarg</text>
</a>
</g>
</g>
<!-- Node27&#45;&gt;Node30 -->
<g id="edge43" class="edge">
<title>Node27&#45;&gt;Node30</title>
<path fill="none" stroke="midnightblue" d="M1364.91,-114.59C1362.09,-113.72 1359.22,-112.83 1356.5,-112 1318.08,-100.24 1274.03,-86.96 1243.84,-77.89"/>
<polygon fill="midnightblue" stroke="midnightblue" points="1244.75,-74.51 1234.17,-74.99 1242.74,-81.21 1244.75,-74.51"/>
</g>
<!-- Node31 -->
<g id="node31" class="node">
<title>Node31</title>
<g id="a_node31"><a xlink:href="util_8h.html" target="_top" xlink:title="util函数">
<polygon fill="white" stroke="black" points="624,-56.5 624,-75.5 665,-75.5 665,-56.5 624,-56.5"/>
<text text-anchor="middle" x="644.5" y="-63.5" font-family="Helvetica,sans-Serif" font-size="10.00">util.h</text>
</a>
</g>
</g>
<!-- Node27&#45;&gt;Node31 -->
<g id="edge46" class="edge">
<title>Node27&#45;&gt;Node31</title>
<path fill="none" stroke="midnightblue" d="M1364.74,-113.91C1361.99,-113.16 1359.2,-112.5 1356.5,-112 1288.96,-99.57 804.04,-74.9 675.63,-68.53"/>
<polygon fill="midnightblue" stroke="midnightblue" points="675.5,-65.02 665.33,-68.02 675.15,-72.01 675.5,-65.02"/>
</g>
<!-- Node34 -->
<g id="node34" class="node">
<title>Node34</title>
<g id="a_node34"><a xlink:href="singleton_8h.html" target="_top" xlink:title="单例模式封装">
<polygon fill="white" stroke="black" points="1252,-56.5 1252,-75.5 1323,-75.5 1323,-56.5 1252,-56.5"/>
<text text-anchor="middle" x="1287.5" y="-63.5" font-family="Helvetica,sans-Serif" font-size="10.00">singleton.h</text>
</a>
</g>
</g>
<!-- Node27&#45;&gt;Node34 -->
<g id="edge55" class="edge">
<title>Node27&#45;&gt;Node34</title>
<path fill="none" stroke="midnightblue" d="M1369.75,-112.32C1354.18,-103.74 1330.12,-90.49 1312.04,-80.52"/>
<polygon fill="midnightblue" stroke="midnightblue" points="1313.65,-77.42 1303.21,-75.65 1310.28,-83.55 1313.65,-77.42"/>
</g>
<!-- Node31&#45;&gt;Node5 -->
<g id="edge51" class="edge">
<title>Node31&#45;&gt;Node5</title>
<path fill="none" stroke="midnightblue" d="M665.2,-63.58C772.8,-56.22 1268.41,-22.3 1400.87,-13.23"/>
<polygon fill="midnightblue" stroke="midnightblue" points="1401.43,-16.7 1411.17,-12.53 1400.95,-9.72 1401.43,-16.7"/>
</g>
<!-- Node31&#45;&gt;Node6 -->
<g id="edge47" class="edge">
<title>Node31&#45;&gt;Node6</title>
<path fill="none" stroke="midnightblue" d="M623.66,-62.31C575.56,-56.03 452.85,-39.54 340.01,-20.19"/>
<polygon fill="midnightblue" stroke="midnightblue" points="340.27,-16.68 329.82,-18.43 339.08,-23.58 340.27,-16.68"/>
</g>
<!-- Node31&#45;&gt;Node11 -->
<g id="edge53" class="edge">
<title>Node31&#45;&gt;Node11</title>
<path fill="none" stroke="midnightblue" d="M623.99,-56.92C601.49,-48.05 565.09,-33.7 538.97,-23.4"/>
<polygon fill="midnightblue" stroke="midnightblue" points="540.1,-20.09 529.51,-19.68 537.53,-26.6 540.1,-20.09"/>
</g>
<!-- Node31&#45;&gt;Node12 -->
<g id="edge52" class="edge">
<title>Node31&#45;&gt;Node12</title>
<path fill="none" stroke="midnightblue" d="M665.19,-59.58C695.52,-51.62 754.08,-36.2 813.74,-20.19"/>
<polygon fill="midnightblue" stroke="midnightblue" points="814.96,-23.48 823.71,-17.51 813.15,-16.72 814.96,-23.48"/>
</g>
<!-- Node31&#45;&gt;Node24 -->
<g id="edge48" class="edge">
<title>Node31&#45;&gt;Node24</title>
<path fill="none" stroke="midnightblue" d="M665.27,-63.95C788.87,-57.71 1423.69,-25.46 1464.5,-20 1466.23,-19.77 1467.99,-19.51 1469.77,-19.22"/>
<polygon fill="midnightblue" stroke="midnightblue" points="1470.75,-22.59 1479.95,-17.34 1469.48,-15.71 1470.75,-22.59"/>
</g>
<!-- Node32 -->
<g id="node32" class="node">
<title>Node32</title>
<g id="a_node32"><a xlink:title=" ">
<polygon fill="white" stroke="#bfbfbf" points="661.5,-0.5 661.5,-19.5 729.5,-19.5 729.5,-0.5 661.5,-0.5"/>
<text text-anchor="middle" x="695.5" y="-7.5" font-family="Helvetica,sans-Serif" font-size="10.00">sys/time.h</text>
</a>
</g>
</g>
<!-- Node31&#45;&gt;Node32 -->
<g id="edge49" class="edge">
<title>Node31&#45;&gt;Node32</title>
<path fill="none" stroke="midnightblue" d="M652.92,-56.08C660.35,-48.22 671.35,-36.57 680.31,-27.08"/>
<polygon fill="midnightblue" stroke="midnightblue" points="682.91,-29.42 687.24,-19.75 677.82,-24.62 682.91,-29.42"/>
</g>
<!-- Node33 -->
<g id="node33" class="node">
<title>Node33</title>
<g id="a_node33"><a xlink:title=" ">
<polygon fill="white" stroke="#bfbfbf" points="747.5,-0.5 747.5,-19.5 805.5,-19.5 805.5,-0.5 747.5,-0.5"/>
<text text-anchor="middle" x="776.5" y="-7.5" font-family="Helvetica,sans-Serif" font-size="10.00">cxxabi.h</text>
</a>
</g>
</g>
<!-- Node31&#45;&gt;Node33 -->
<g id="edge50" class="edge">
<title>Node31&#45;&gt;Node33</title>
<path fill="none" stroke="midnightblue" d="M665.12,-56.56C686.89,-47.66 721.41,-33.54 746.26,-23.37"/>
<polygon fill="midnightblue" stroke="midnightblue" points="747.65,-26.58 755.58,-19.56 745,-20.1 747.65,-26.58"/>
</g>
<!-- Node34&#45;&gt;Node2 -->
<g id="edge56" class="edge">
<title>Node34&#45;&gt;Node2</title>
<path fill="none" stroke="midnightblue" d="M1251.98,-57.61C1249.11,-57.05 1246.26,-56.51 1243.5,-56 1160.17,-40.64 1062.09,-25.16 1008.8,-16.96"/>
<polygon fill="midnightblue" stroke="midnightblue" points="1009.18,-13.48 998.76,-15.42 1008.12,-20.4 1009.18,-13.48"/>
</g>
<!-- Node35&#45;&gt;Node2 -->
<g id="edge59" class="edge">
<title>Node35&#45;&gt;Node2</title>
<path fill="none" stroke="midnightblue" d="M1441.67,-112.44C1427.86,-97.99 1397.62,-69.05 1365.5,-56 1301.42,-29.97 1095.94,-17.15 1008.97,-12.79"/>
<polygon fill="midnightblue" stroke="midnightblue" points="1008.88,-9.28 998.73,-12.28 1008.54,-16.27 1008.88,-9.28"/>
</g>
<!-- Node35&#45;&gt;Node12 -->
<g id="edge60" class="edge">
<title>Node35&#45;&gt;Node12</title>
<path fill="none" stroke="midnightblue" d="M1432.94,-112.46C1415.9,-103.59 1388.64,-89.2 1365.5,-76 1350.6,-67.5 1348.79,-61.35 1332.5,-56 1162.49,-0.19 1109.58,-37.53 931.5,-20 914.9,-18.37 896.46,-16.41 881.11,-14.73"/>
<polygon fill="midnightblue" stroke="midnightblue" points="881.35,-11.24 871.02,-13.63 880.58,-18.2 881.35,-11.24"/>
</g>
<!-- Node35&#45;&gt;Node20 -->
<g id="edge62" class="edge">
<title>Node35&#45;&gt;Node20</title>
<path fill="none" stroke="midnightblue" d="M1475.2,-115.72C1521.58,-106.2 1619.53,-86.09 1673.96,-74.91"/>
<polygon fill="midnightblue" stroke="midnightblue" points="1674.83,-78.31 1683.92,-72.87 1673.42,-71.45 1674.83,-78.31"/>
</g>
<!-- Node36 -->
<g id="node36" class="node">
<title>Node36</title>
<g id="a_node36"><a xlink:title=" ">
<polygon fill="white" stroke="#bfbfbf" points="1051.5,-56.5 1051.5,-75.5 1083.5,-75.5 1083.5,-56.5 1051.5,-56.5"/>
<text text-anchor="middle" x="1067.5" y="-63.5" font-family="Helvetica,sans-Serif" font-size="10.00">set</text>
</a>
</g>
</g>
<!-- Node35&#45;&gt;Node36 -->
<g id="edge61" class="edge">
<title>Node35&#45;&gt;Node36</title>
<path fill="none" stroke="midnightblue" d="M1423.97,-113.82C1421.13,-113.14 1418.26,-112.52 1415.5,-112 1276.59,-85.85 1238.21,-103.22 1099.5,-76 1097.55,-75.62 1095.54,-75.17 1093.53,-74.69"/>
<polygon fill="midnightblue" stroke="midnightblue" points="1094.22,-71.26 1083.66,-72.09 1092.43,-78.02 1094.22,-71.26"/>
</g>
<!-- Node37&#45;&gt;Node2 -->
<g id="edge64" class="edge">
<title>Node37&#45;&gt;Node2</title>
<path fill="none" stroke="midnightblue" d="M405.32,-117.5C458.55,-110.84 575.78,-95.28 673.5,-76 710.3,-68.74 718.92,-64.31 755.5,-56 816.38,-42.18 887.35,-27.55 930.32,-18.85"/>
<polygon fill="midnightblue" stroke="midnightblue" points="931.25,-22.23 940.36,-16.82 929.87,-15.37 931.25,-22.23"/>
</g>
<!-- Node37&#45;&gt;Node4 -->
<g id="edge68" class="edge">
<title>Node37&#45;&gt;Node4</title>
<path fill="none" stroke="midnightblue" d="M362.2,-112.32C348.32,-103.9 327.01,-90.97 310.7,-81.07"/>
<polygon fill="midnightblue" stroke="midnightblue" points="312.13,-77.85 301.76,-75.65 308.5,-83.83 312.13,-77.85"/>
</g>
<!-- Node37&#45;&gt;Node6 -->
<g id="edge66" class="edge">
<title>Node37&#45;&gt;Node6</title>
<path fill="none" stroke="midnightblue" d="M347.84,-120.18C317.04,-117.57 269.43,-108.2 246.5,-76 234.07,-58.55 253.55,-38.6 271.08,-25.46"/>
<polygon fill="midnightblue" stroke="midnightblue" points="273.23,-28.22 279.38,-19.59 269.19,-22.51 273.23,-28.22"/>
</g>
<!-- Node37&#45;&gt;Node7 -->
<g id="edge67" class="edge">
<title>Node37&#45;&gt;Node7</title>
<path fill="none" stroke="midnightblue" d="M350.26,-112.46C290.36,-92.97 143.46,-45.16 74.88,-22.84"/>
<polygon fill="midnightblue" stroke="midnightblue" points="75.55,-19.38 64.96,-19.61 73.38,-26.03 75.55,-19.38"/>
</g>
<!-- Node37&#45;&gt;Node26 -->
<g id="edge69" class="edge">
<title>Node37&#45;&gt;Node26</title>
<path fill="none" stroke="midnightblue" d="M394,-112.37C432.92,-93.17 526.84,-46.84 573,-24.07"/>
<polygon fill="midnightblue" stroke="midnightblue" points="574.66,-27.15 582.08,-19.59 571.57,-20.88 574.66,-27.15"/>
</g>
<!-- Node38 -->
<g id="node38" class="node">
<title>Node38</title>
<g id="a_node38"><a xlink:title=" ">
<polygon fill="white" stroke="#bfbfbf" points="337.5,-56.5 337.5,-75.5 415.5,-75.5 415.5,-56.5 337.5,-56.5"/>
<text text-anchor="middle" x="376.5" y="-63.5" font-family="Helvetica,sans-Serif" font-size="10.00">netinet/tcp.h</text>
</a>
</g>
</g>
<!-- Node37&#45;&gt;Node38 -->
<g id="edge65" class="edge">
<title>Node37&#45;&gt;Node38</title>
<path fill="none" stroke="midnightblue" d="M376.5,-112.08C376.5,-105.01 376.5,-94.86 376.5,-85.99"/>
<polygon fill="midnightblue" stroke="midnightblue" points="380,-85.75 376.5,-75.75 373,-85.75 380,-85.75"/>
</g>
<!-- Node39&#45;&gt;Node2 -->
<g id="edge72" class="edge">
<title>Node39&#45;&gt;Node2</title>
<path fill="none" stroke="midnightblue" d="M1002.43,-168.32C994.29,-159.89 982.83,-146.31 977.5,-132 964.69,-97.6 965.62,-53.92 967.51,-29.56"/>
<polygon fill="midnightblue" stroke="midnightblue" points="971,-29.84 968.44,-19.56 964.03,-29.2 971,-29.84"/>
</g>
<!-- Node39&#45;&gt;Node3 -->
<g id="edge83" class="edge">
<title>Node39&#45;&gt;Node3</title>
<path fill="none" stroke="midnightblue" d="M1039.33,-176.01C1144.16,-172.11 1515.16,-156.83 1630.5,-132 1747.27,-106.87 1878.41,-49.42 1933.67,-23.78"/>
<polygon fill="midnightblue" stroke="midnightblue" points="1935.21,-26.92 1942.78,-19.51 1932.24,-20.58 1935.21,-26.92"/>
</g>
<!-- Node39&#45;&gt;Node5 -->
<g id="edge73" class="edge">
<title>Node39&#45;&gt;Node5</title>
<path fill="none" stroke="midnightblue" d="M1039.33,-176.48C1136.2,-174.4 1454.43,-165.07 1484.5,-132 1512.73,-100.95 1473.99,-51.99 1450,-26.93"/>
<polygon fill="midnightblue" stroke="midnightblue" points="1452.35,-24.34 1442.83,-19.69 1447.38,-29.26 1452.35,-24.34"/>
</g>
<!-- Node39&#45;&gt;Node12 -->
<g id="edge77" class="edge">
<title>Node39&#45;&gt;Node12</title>
<path fill="none" stroke="midnightblue" d="M983.75,-175.43C930.9,-171.81 818.94,-160.83 795.5,-132 769.08,-99.5 807.09,-51.56 830.86,-26.92"/>
<polygon fill="midnightblue" stroke="midnightblue" points="833.39,-29.33 837.97,-19.78 828.43,-24.39 833.39,-29.33"/>
</g>
<!-- Node39&#45;&gt;Node13 -->
<g id="edge79" class="edge">
<title>Node39&#45;&gt;Node13</title>
<path fill="none" stroke="midnightblue" d="M983.9,-177.56C904.74,-177.93 672.39,-170.4 513.5,-76 491.06,-62.67 469.23,-41.89 455.38,-27.43"/>
<polygon fill="midnightblue" stroke="midnightblue" points="457.59,-24.67 448.2,-19.75 452.47,-29.44 457.59,-24.67"/>
</g>
<!-- Node39&#45;&gt;Node16 -->
<g id="edge78" class="edge">
<title>Node39&#45;&gt;Node16</title>
<path fill="none" stroke="midnightblue" d="M1039.12,-175.88C1136.88,-171.74 1462.81,-156.21 1502.5,-132 1541.35,-108.3 1563.97,-56.78 1573.74,-29.23"/>
<polygon fill="midnightblue" stroke="midnightblue" points="1577.09,-30.25 1576.95,-19.65 1570.45,-28.02 1577.09,-30.25"/>
</g>
<!-- Node39&#45;&gt;Node20 -->
<g id="edge84" class="edge">
<title>Node39&#45;&gt;Node20</title>
<path fill="none" stroke="midnightblue" d="M1039.16,-176.4C1140.02,-173.96 1487.6,-163.43 1593.5,-132 1630.79,-120.93 1669.52,-97.07 1692.29,-81.54"/>
<polygon fill="midnightblue" stroke="midnightblue" points="1694.54,-84.24 1700.75,-75.66 1690.55,-78.5 1694.54,-84.24"/>
</g>
<!-- Node39&#45;&gt;Node27 -->
<g id="edge85" class="edge">
<title>Node39&#45;&gt;Node27</title>
<path fill="none" stroke="midnightblue" d="M1039.06,-175.02C1096.35,-170.55 1232.52,-158.16 1354.8,-132.07"/>
<polygon fill="midnightblue" stroke="midnightblue" points="1355.68,-135.46 1364.71,-129.92 1354.19,-128.62 1355.68,-135.46"/>
</g>
<!-- Node39&#45;&gt;Node28 -->
<g id="edge74" class="edge">
<title>Node39&#45;&gt;Node28</title>
<path fill="none" stroke="midnightblue" d="M983.71,-175.15C932.56,-171.12 826.71,-159.56 804.5,-132 789.09,-112.88 815.96,-92.88 839.24,-80.21"/>
<polygon fill="midnightblue" stroke="midnightblue" points="840.94,-83.27 848.22,-75.56 837.73,-77.05 840.94,-83.27"/>
</g>
<!-- Node39&#45;&gt;Node31 -->
<g id="edge86" class="edge">
<title>Node39&#45;&gt;Node31</title>
<path fill="none" stroke="midnightblue" d="M983.74,-175.68C916.05,-172.05 744.45,-160.26 695.5,-132 676.55,-121.06 662.07,-100.07 653.46,-84.9"/>
<polygon fill="midnightblue" stroke="midnightblue" points="656.47,-83.1 648.67,-75.93 650.3,-86.4 656.47,-83.1"/>
</g>
<!-- Node39&#45;&gt;Node36 -->
<g id="edge80" class="edge">
<title>Node39&#45;&gt;Node36</title>
<path fill="none" stroke="midnightblue" d="M1003.04,-168.19C991.74,-155.31 974.36,-130.83 985.5,-112 997.56,-91.63 1022.48,-79.86 1041.7,-73.51"/>
<polygon fill="midnightblue" stroke="midnightblue" points="1042.84,-76.82 1051.4,-70.59 1040.82,-70.12 1042.84,-76.82"/>
</g>
<!-- Node40 -->
<g id="node40" class="node">
<title>Node40</title>
<g id="a_node40"><a xlink:title=" ">
<polygon fill="white" stroke="#bfbfbf" points="994,-112.5 994,-131.5 1119,-131.5 1119,-112.5 994,-112.5"/>
<text text-anchor="middle" x="1056.5" y="-119.5" font-family="Helvetica,sans-Serif" font-size="10.00">boost/lexical_cast.hpp</text>
</a>
</g>
</g>
<!-- Node39&#45;&gt;Node40 -->
<g id="edge75" class="edge">
<title>Node39&#45;&gt;Node40</title>
<path fill="none" stroke="midnightblue" d="M1018.93,-168.08C1025.35,-160.38 1034.81,-149.03 1042.62,-139.65"/>
<polygon fill="midnightblue" stroke="midnightblue" points="1045.49,-141.67 1049.21,-131.75 1040.12,-137.19 1045.49,-141.67"/>
</g>
<!-- Node41 -->
<g id="node41" class="node">
<title>Node41</title>
<g id="a_node41"><a xlink:title=" ">
<polygon fill="white" stroke="#bfbfbf" points="1137,-112.5 1137,-131.5 1236,-131.5 1236,-112.5 1137,-112.5"/>
<text text-anchor="middle" x="1186.5" y="-119.5" font-family="Helvetica,sans-Serif" font-size="10.00">yaml&#45;cpp/yaml.h</text>
</a>
</g>
</g>
<!-- Node39&#45;&gt;Node41 -->
<g id="edge76" class="edge">
<title>Node39&#45;&gt;Node41</title>
<path fill="none" stroke="midnightblue" d="M1039.23,-168.44C1068.93,-159.28 1116.22,-144.69 1149.17,-134.52"/>
<polygon fill="midnightblue" stroke="midnightblue" points="1150.38,-137.81 1158.9,-131.52 1148.31,-131.12 1150.38,-137.81"/>
</g>
<!-- Node42 -->
<g id="node42" class="node">
<title>Node42</title>
<g id="a_node42"><a xlink:title=" ">
<polygon fill="white" stroke="#bfbfbf" points="1254,-112.5 1254,-131.5 1347,-131.5 1347,-112.5 1254,-112.5"/>
<text text-anchor="middle" x="1300.5" y="-119.5" font-family="Helvetica,sans-Serif" font-size="10.00">unordered_map</text>
</a>
</g>
</g>
<!-- Node39&#45;&gt;Node42 -->
<g id="edge81" class="edge">
<title>Node39&#45;&gt;Node42</title>
<path fill="none" stroke="midnightblue" d="M1039.21,-171.82C1086.45,-163 1183.44,-144.87 1245.04,-133.36"/>
<polygon fill="midnightblue" stroke="midnightblue" points="1245.8,-136.78 1254.98,-131.5 1244.51,-129.9 1245.8,-136.78"/>
</g>
<!-- Node43 -->
<g id="node43" class="node">
<title>Node43</title>
<g id="a_node43"><a xlink:title=" ">
<polygon fill="white" stroke="#bfbfbf" points="813.5,-112.5 813.5,-131.5 899.5,-131.5 899.5,-112.5 813.5,-112.5"/>
<text text-anchor="middle" x="856.5" y="-119.5" font-family="Helvetica,sans-Serif" font-size="10.00">unordered_set</text>
</a>
</g>
</g>
<!-- Node39&#45;&gt;Node43 -->
<g id="edge82" class="edge">
<title>Node39&#45;&gt;Node43</title>
<path fill="none" stroke="midnightblue" d="M986.94,-168.44C960.98,-159.4 919.83,-145.06 890.7,-134.92"/>
<polygon fill="midnightblue" stroke="midnightblue" points="891.54,-131.5 880.95,-131.52 889.24,-138.11 891.54,-131.5"/>
</g>
</g>
</svg>
