<?xml version="1.0" encoding="UTF-8" standalone="no"?>
<!DOCTYPE svg PUBLIC "-//W3C//DTD SVG 1.1//EN"
 "http://www.w3.org/Graphics/SVG/1.1/DTD/svg11.dtd">
<!-- Generated by graphviz version 2.43.0 (0)
 -->
<!-- Title: sylar/thread.cc Pages: 1 -->
<svg width="1148pt" height="196pt"
 viewBox="0.00 0.00 1148.00 196.00" xmlns="http://www.w3.org/2000/svg" xmlns:xlink="http://www.w3.org/1999/xlink">
<g id="graph0" class="graph" transform="scale(1 1) rotate(0) translate(4 192)">
<title>sylar/thread.cc</title>
<polygon fill="white" stroke="transparent" points="-4,4 -4,-192 1144,-192 1144,4 -4,4"/>
<!-- Node1 -->
<g id="node1" class="node">
<title>Node1</title>
<g id="a_node1"><a xlink:title="线程封装实现">
<polygon fill="#bfbfbf" stroke="black" points="465.5,-168.5 465.5,-187.5 554.5,-187.5 554.5,-168.5 465.5,-168.5"/>
<text text-anchor="middle" x="510" y="-175.5" font-family="Helvetica,sans-Serif" font-size="10.00">sylar/thread.cc</text>
</a>
</g>
</g>
<!-- Node2 -->
<g id="node2" class="node">
<title>Node2</title>
<g id="a_node2"><a xlink:href="thread_8h.html" target="_top" xlink:title="线程相关的封装">
<polygon fill="white" stroke="black" points="424.5,-112.5 424.5,-131.5 481.5,-131.5 481.5,-112.5 424.5,-112.5"/>
<text text-anchor="middle" x="453" y="-119.5" font-family="Helvetica,sans-Serif" font-size="10.00">thread.h</text>
</a>
</g>
</g>
<!-- Node1&#45;&gt;Node2 -->
<g id="edge1" class="edge">
<title>Node1&#45;&gt;Node2</title>
<path fill="none" stroke="midnightblue" d="M500.84,-168.32C492.5,-160.42 479.97,-148.55 469.82,-138.94"/>
<polygon fill="midnightblue" stroke="midnightblue" points="471.99,-136.17 462.32,-131.83 467.18,-141.25 471.99,-136.17"/>
</g>
<!-- Node14 -->
<g id="node14" class="node">
<title>Node14</title>
<g id="a_node14"><a xlink:href="log_8h.html" target="_top" xlink:title="日志模块">
<polygon fill="white" stroke="black" points="704.5,-112.5 704.5,-131.5 745.5,-131.5 745.5,-112.5 704.5,-112.5"/>
<text text-anchor="middle" x="725" y="-119.5" font-family="Helvetica,sans-Serif" font-size="10.00">log.h</text>
</a>
</g>
</g>
<!-- Node1&#45;&gt;Node14 -->
<g id="edge13" class="edge">
<title>Node1&#45;&gt;Node14</title>
<path fill="none" stroke="midnightblue" d="M544.07,-168.44C585.48,-158.04 654.74,-140.65 694.48,-130.67"/>
<polygon fill="midnightblue" stroke="midnightblue" points="695.54,-134.01 704.39,-128.18 693.84,-127.22 695.54,-134.01"/>
</g>
<!-- Node21 -->
<g id="node21" class="node">
<title>Node21</title>
<g id="a_node21"><a xlink:href="util_8h.html" target="_top" xlink:title="util函数">
<polygon fill="white" stroke="black" points="323.5,-56.5 323.5,-75.5 364.5,-75.5 364.5,-56.5 323.5,-56.5"/>
<text text-anchor="middle" x="344" y="-63.5" font-family="Helvetica,sans-Serif" font-size="10.00">util.h</text>
</a>
</g>
</g>
<!-- Node1&#45;&gt;Node21 -->
<g id="edge34" class="edge">
<title>Node1&#45;&gt;Node21</title>
<path fill="none" stroke="midnightblue" d="M509.94,-168.12C509.37,-154.24 506.2,-127.39 491,-112 474.72,-95.51 412.87,-80.68 374.78,-72.85"/>
<polygon fill="midnightblue" stroke="midnightblue" points="375.21,-69.37 364.72,-70.83 373.84,-76.23 375.21,-69.37"/>
</g>
<!-- Node3 -->
<g id="node3" class="node">
<title>Node3</title>
<g id="a_node3"><a xlink:title=" ">
<polygon fill="white" stroke="#bfbfbf" points="0,-0.5 0,-19.5 44,-19.5 44,-0.5 0,-0.5"/>
<text text-anchor="middle" x="22" y="-7.5" font-family="Helvetica,sans-Serif" font-size="10.00">string</text>
</a>
</g>
</g>
<!-- Node2&#45;&gt;Node3 -->
<g id="edge2" class="edge">
<title>Node2&#45;&gt;Node3</title>
<path fill="none" stroke="midnightblue" d="M424.3,-116.57C380.37,-109.52 293.99,-94.64 222,-76 161.69,-60.39 92.91,-36.71 53.76,-22.65"/>
<polygon fill="midnightblue" stroke="midnightblue" points="54.83,-19.32 44.23,-19.21 52.45,-25.9 54.83,-19.32"/>
</g>
<!-- Node4 -->
<g id="node4" class="node">
<title>Node4</title>
<g id="a_node4"><a xlink:href="mutex_8h.html" target="_top" xlink:title="信号量，互斥锁，读写锁，范围锁模板，自旋锁，原子锁">
<polygon fill="white" stroke="black" points="621.5,-56.5 621.5,-75.5 678.5,-75.5 678.5,-56.5 621.5,-56.5"/>
<text text-anchor="middle" x="650" y="-63.5" font-family="Helvetica,sans-Serif" font-size="10.00">mutex.h</text>
</a>
</g>
</g>
<!-- Node2&#45;&gt;Node4 -->
<g id="edge3" class="edge">
<title>Node2&#45;&gt;Node4</title>
<path fill="none" stroke="midnightblue" d="M481.65,-113.15C515.93,-103.75 573.48,-87.97 611.6,-77.53"/>
<polygon fill="midnightblue" stroke="midnightblue" points="612.6,-80.88 621.32,-74.86 610.75,-74.13 612.6,-80.88"/>
</g>
<!-- Node5 -->
<g id="node5" class="node">
<title>Node5</title>
<g id="a_node5"><a xlink:title=" ">
<polygon fill="white" stroke="#bfbfbf" points="882,-0.5 882,-19.5 930,-19.5 930,-0.5 882,-0.5"/>
<text text-anchor="middle" x="906" y="-7.5" font-family="Helvetica,sans-Serif" font-size="10.00">thread</text>
</a>
</g>
</g>
<!-- Node4&#45;&gt;Node5 -->
<g id="edge4" class="edge">
<title>Node4&#45;&gt;Node5</title>
<path fill="none" stroke="midnightblue" d="M678.61,-58.09C681.77,-57.37 684.95,-56.66 688,-56 766.84,-39 789.74,-39.01 872.11,-20.07"/>
<polygon fill="midnightblue" stroke="midnightblue" points="872.95,-23.47 881.9,-17.79 871.37,-16.65 872.95,-23.47"/>
</g>
<!-- Node6 -->
<g id="node6" class="node">
<title>Node6</title>
<g id="a_node6"><a xlink:title=" ">
<polygon fill="white" stroke="#bfbfbf" points="948.5,-0.5 948.5,-19.5 1013.5,-19.5 1013.5,-0.5 948.5,-0.5"/>
<text text-anchor="middle" x="981" y="-7.5" font-family="Helvetica,sans-Serif" font-size="10.00">functional</text>
</a>
</g>
</g>
<!-- Node4&#45;&gt;Node6 -->
<g id="edge5" class="edge">
<title>Node4&#45;&gt;Node6</title>
<path fill="none" stroke="midnightblue" d="M678.57,-57.94C681.75,-57.24 684.94,-56.58 688,-56 795.59,-35.59 826.33,-39.57 938.47,-19.97"/>
<polygon fill="midnightblue" stroke="midnightblue" points="939.25,-23.39 948.48,-18.2 938.03,-16.5 939.25,-23.39"/>
</g>
<!-- Node7 -->
<g id="node7" class="node">
<title>Node7</title>
<g id="a_node7"><a xlink:title=" ">
<polygon fill="white" stroke="#bfbfbf" points="1082,-0.5 1082,-19.5 1140,-19.5 1140,-0.5 1082,-0.5"/>
<text text-anchor="middle" x="1111" y="-7.5" font-family="Helvetica,sans-Serif" font-size="10.00">memory</text>
</a>
</g>
</g>
<!-- Node4&#45;&gt;Node7 -->
<g id="edge6" class="edge">
<title>Node4&#45;&gt;Node7</title>
<path fill="none" stroke="midnightblue" d="M678.55,-57.79C681.72,-57.12 684.92,-56.51 688,-56 854.35,-28.66 901.63,-47.14 1071.58,-20.02"/>
<polygon fill="midnightblue" stroke="midnightblue" points="1072.31,-23.44 1081.62,-18.38 1071.19,-16.53 1072.31,-23.44"/>
</g>
<!-- Node8 -->
<g id="node8" class="node">
<title>Node8</title>
<g id="a_node8"><a xlink:title=" ">
<polygon fill="white" stroke="#bfbfbf" points="528.5,-0.5 528.5,-19.5 591.5,-19.5 591.5,-0.5 528.5,-0.5"/>
<text text-anchor="middle" x="560" y="-7.5" font-family="Helvetica,sans-Serif" font-size="10.00">pthread.h</text>
</a>
</g>
</g>
<!-- Node4&#45;&gt;Node8 -->
<g id="edge7" class="edge">
<title>Node4&#45;&gt;Node8</title>
<path fill="none" stroke="midnightblue" d="M635.54,-56.32C621.5,-47.9 599.95,-34.97 583.46,-25.07"/>
<polygon fill="midnightblue" stroke="midnightblue" points="584.8,-21.8 574.42,-19.65 581.2,-27.8 584.8,-21.8"/>
</g>
<!-- Node9 -->
<g id="node9" class="node">
<title>Node9</title>
<g id="a_node9"><a xlink:title=" ">
<polygon fill="white" stroke="#bfbfbf" points="610,-0.5 610,-19.5 690,-19.5 690,-0.5 610,-0.5"/>
<text text-anchor="middle" x="650" y="-7.5" font-family="Helvetica,sans-Serif" font-size="10.00">semaphore.h</text>
</a>
</g>
</g>
<!-- Node4&#45;&gt;Node9 -->
<g id="edge8" class="edge">
<title>Node4&#45;&gt;Node9</title>
<path fill="none" stroke="midnightblue" d="M650,-56.08C650,-49.01 650,-38.86 650,-29.99"/>
<polygon fill="midnightblue" stroke="midnightblue" points="653.5,-29.75 650,-19.75 646.5,-29.75 653.5,-29.75"/>
</g>
<!-- Node10 -->
<g id="node10" class="node">
<title>Node10</title>
<g id="a_node10"><a xlink:title=" ">
<polygon fill="white" stroke="#bfbfbf" points="457.5,-0.5 457.5,-19.5 510.5,-19.5 510.5,-0.5 457.5,-0.5"/>
<text text-anchor="middle" x="484" y="-7.5" font-family="Helvetica,sans-Serif" font-size="10.00">stdint.h</text>
</a>
</g>
</g>
<!-- Node4&#45;&gt;Node10 -->
<g id="edge9" class="edge">
<title>Node4&#45;&gt;Node10</title>
<path fill="none" stroke="midnightblue" d="M623.7,-56.44C595.65,-47.32 551.06,-32.81 519.82,-22.65"/>
<polygon fill="midnightblue" stroke="midnightblue" points="520.77,-19.28 510.18,-19.52 518.61,-25.94 520.77,-19.28"/>
</g>
<!-- Node11 -->
<g id="node11" class="node">
<title>Node11</title>
<g id="a_node11"><a xlink:title=" ">
<polygon fill="white" stroke="#bfbfbf" points="708,-0.5 708,-19.5 758,-19.5 758,-0.5 708,-0.5"/>
<text text-anchor="middle" x="733" y="-7.5" font-family="Helvetica,sans-Serif" font-size="10.00">atomic</text>
</a>
</g>
</g>
<!-- Node4&#45;&gt;Node11 -->
<g id="edge10" class="edge">
<title>Node4&#45;&gt;Node11</title>
<path fill="none" stroke="midnightblue" d="M663.34,-56.32C676.16,-47.98 695.78,-35.21 710.94,-25.35"/>
<polygon fill="midnightblue" stroke="midnightblue" points="713.22,-28.04 719.7,-19.65 709.41,-22.17 713.22,-28.04"/>
</g>
<!-- Node12 -->
<g id="node12" class="node">
<title>Node12</title>
<g id="a_node12"><a xlink:title=" ">
<polygon fill="white" stroke="#bfbfbf" points="1032,-0.5 1032,-19.5 1064,-19.5 1064,-0.5 1032,-0.5"/>
<text text-anchor="middle" x="1048" y="-7.5" font-family="Helvetica,sans-Serif" font-size="10.00">list</text>
</a>
</g>
</g>
<!-- Node4&#45;&gt;Node12 -->
<g id="edge11" class="edge">
<title>Node4&#45;&gt;Node12</title>
<path fill="none" stroke="midnightblue" d="M678.55,-57.83C681.73,-57.16 684.93,-56.53 688,-56 832.42,-31.24 875.24,-52.64 1021.95,-19.72"/>
<polygon fill="midnightblue" stroke="midnightblue" points="1022.79,-23.12 1031.76,-17.48 1021.23,-16.3 1022.79,-23.12"/>
</g>
<!-- Node13 -->
<g id="node13" class="node">
<title>Node13</title>
<g id="a_node13"><a xlink:href="noncopyable_8h.html" target="_top" xlink:title="不可拷贝对象封装">
<polygon fill="white" stroke="black" points="776,-0.5 776,-19.5 864,-19.5 864,-0.5 776,-0.5"/>
<text text-anchor="middle" x="820" y="-7.5" font-family="Helvetica,sans-Serif" font-size="10.00">noncopyable.h</text>
</a>
</g>
</g>
<!-- Node4&#45;&gt;Node13 -->
<g id="edge12" class="edge">
<title>Node4&#45;&gt;Node13</title>
<path fill="none" stroke="midnightblue" d="M676.94,-56.44C705.66,-47.32 751.33,-32.81 783.32,-22.65"/>
<polygon fill="midnightblue" stroke="midnightblue" points="784.72,-25.88 793.19,-19.52 782.6,-19.21 784.72,-25.88"/>
</g>
<!-- Node14&#45;&gt;Node3 -->
<g id="edge14" class="edge">
<title>Node14&#45;&gt;Node3</title>
<path fill="none" stroke="midnightblue" d="M704.37,-119.49C644.05,-114.92 462.81,-100.05 314,-76 258.18,-66.98 123.92,-37.45 54.11,-20.14"/>
<polygon fill="midnightblue" stroke="midnightblue" points="54.85,-16.72 44.3,-17.68 53.15,-23.51 54.85,-16.72"/>
</g>
<!-- Node14&#45;&gt;Node4 -->
<g id="edge31" class="edge">
<title>Node14&#45;&gt;Node4</title>
<path fill="none" stroke="midnightblue" d="M712.95,-112.32C701.54,-104.11 684.17,-91.6 670.57,-81.81"/>
<polygon fill="midnightblue" stroke="midnightblue" points="672.43,-78.84 662.27,-75.83 668.34,-84.52 672.43,-78.84"/>
</g>
<!-- Node14&#45;&gt;Node7 -->
<g id="edge15" class="edge">
<title>Node14&#45;&gt;Node7</title>
<path fill="none" stroke="midnightblue" d="M745.61,-121.3C814.91,-121.9 1038.12,-120.3 1091,-76 1104.41,-64.76 1109,-44.75 1110.48,-29.89"/>
<polygon fill="midnightblue" stroke="midnightblue" points="1113.99,-29.96 1111.11,-19.76 1107,-29.52 1113.99,-29.96"/>
</g>
<!-- Node14&#45;&gt;Node12 -->
<g id="edge21" class="edge">
<title>Node14&#45;&gt;Node12</title>
<path fill="none" stroke="midnightblue" d="M745.69,-120.28C788.21,-118.13 887.74,-109.6 963,-76 989.87,-64.01 1016.03,-41.97 1032.07,-26.91"/>
<polygon fill="midnightblue" stroke="midnightblue" points="1034.72,-29.22 1039.49,-19.76 1029.86,-24.18 1034.72,-29.22"/>
</g>
<!-- Node15 -->
<g id="node15" class="node">
<title>Node15</title>
<g id="a_node15"><a xlink:title=" ">
<polygon fill="white" stroke="#bfbfbf" points="314,-0.5 314,-19.5 374,-19.5 374,-0.5 314,-0.5"/>
<text text-anchor="middle" x="344" y="-7.5" font-family="Helvetica,sans-Serif" font-size="10.00">iostream</text>
</a>
</g>
</g>
<!-- Node14&#45;&gt;Node15 -->
<g id="edge16" class="edge">
<title>Node14&#45;&gt;Node15</title>
<path fill="none" stroke="midnightblue" d="M704.37,-116.65C669.75,-109.22 597.86,-93.19 538,-76 480.81,-59.57 415.39,-36.81 377,-23.04"/>
<polygon fill="midnightblue" stroke="midnightblue" points="377.98,-19.67 367.38,-19.57 375.61,-26.25 377.98,-19.67"/>
</g>
<!-- Node16 -->
<g id="node16" class="node">
<title>Node16</title>
<g id="a_node16"><a xlink:title=" ">
<polygon fill="white" stroke="#bfbfbf" points="697,-56.5 697,-75.5 753,-75.5 753,-56.5 697,-56.5"/>
<text text-anchor="middle" x="725" y="-63.5" font-family="Helvetica,sans-Serif" font-size="10.00">sstream</text>
</a>
</g>
</g>
<!-- Node14&#45;&gt;Node16 -->
<g id="edge17" class="edge">
<title>Node14&#45;&gt;Node16</title>
<path fill="none" stroke="midnightblue" d="M725,-112.08C725,-105.01 725,-94.86 725,-85.99"/>
<polygon fill="midnightblue" stroke="midnightblue" points="728.5,-85.75 725,-75.75 721.5,-85.75 728.5,-85.75"/>
</g>
<!-- Node17 -->
<g id="node17" class="node">
<title>Node17</title>
<g id="a_node17"><a xlink:title=" ">
<polygon fill="white" stroke="#bfbfbf" points="771.5,-56.5 771.5,-75.5 826.5,-75.5 826.5,-56.5 771.5,-56.5"/>
<text text-anchor="middle" x="799" y="-63.5" font-family="Helvetica,sans-Serif" font-size="10.00">fstream</text>
</a>
</g>
</g>
<!-- Node14&#45;&gt;Node17 -->
<g id="edge18" class="edge">
<title>Node14&#45;&gt;Node17</title>
<path fill="none" stroke="midnightblue" d="M736.89,-112.32C748.15,-104.11 765.29,-91.6 778.71,-81.81"/>
<polygon fill="midnightblue" stroke="midnightblue" points="780.88,-84.56 786.89,-75.83 776.75,-78.9 780.88,-84.56"/>
</g>
<!-- Node18 -->
<g id="node18" class="node">
<title>Node18</title>
<g id="a_node18"><a xlink:title=" ">
<polygon fill="white" stroke="#bfbfbf" points="392.5,-0.5 392.5,-19.5 439.5,-19.5 439.5,-0.5 392.5,-0.5"/>
<text text-anchor="middle" x="416" y="-7.5" font-family="Helvetica,sans-Serif" font-size="10.00">vector</text>
</a>
</g>
</g>
<!-- Node14&#45;&gt;Node18 -->
<g id="edge19" class="edge">
<title>Node14&#45;&gt;Node18</title>
<path fill="none" stroke="midnightblue" d="M704.25,-113.61C651.71,-94.91 513.12,-45.57 449.18,-22.81"/>
<polygon fill="midnightblue" stroke="midnightblue" points="450.18,-19.45 439.58,-19.4 447.83,-26.05 450.18,-19.45"/>
</g>
<!-- Node19 -->
<g id="node19" class="node">
<title>Node19</title>
<g id="a_node19"><a xlink:title=" ">
<polygon fill="white" stroke="#bfbfbf" points="844.5,-56.5 844.5,-75.5 897.5,-75.5 897.5,-56.5 844.5,-56.5"/>
<text text-anchor="middle" x="871" y="-63.5" font-family="Helvetica,sans-Serif" font-size="10.00">cstdarg</text>
</a>
</g>
</g>
<!-- Node14&#45;&gt;Node19 -->
<g id="edge20" class="edge">
<title>Node14&#45;&gt;Node19</title>
<path fill="none" stroke="midnightblue" d="M745.61,-113.38C769.66,-104.48 809.73,-89.66 838.1,-79.17"/>
<polygon fill="midnightblue" stroke="midnightblue" points="839.43,-82.41 847.6,-75.65 837.01,-75.84 839.43,-82.41"/>
</g>
<!-- Node20 -->
<g id="node20" class="node">
<title>Node20</title>
<g id="a_node20"><a xlink:title=" ">
<polygon fill="white" stroke="#bfbfbf" points="916,-56.5 916,-75.5 954,-75.5 954,-56.5 916,-56.5"/>
<text text-anchor="middle" x="935" y="-63.5" font-family="Helvetica,sans-Serif" font-size="10.00">map</text>
</a>
</g>
</g>
<!-- Node14&#45;&gt;Node20 -->
<g id="edge22" class="edge">
<title>Node14&#45;&gt;Node20</title>
<path fill="none" stroke="midnightblue" d="M745.59,-116.39C777.8,-109.09 842.22,-94.06 905.97,-76.15"/>
<polygon fill="midnightblue" stroke="midnightblue" points="907.11,-79.47 915.77,-73.37 905.2,-72.73 907.11,-79.47"/>
</g>
<!-- Node14&#45;&gt;Node21 -->
<g id="edge23" class="edge">
<title>Node14&#45;&gt;Node21</title>
<path fill="none" stroke="midnightblue" d="M704.25,-118.06C640.9,-109.08 449.81,-82 374.74,-71.36"/>
<polygon fill="midnightblue" stroke="midnightblue" points="374.93,-67.85 364.54,-69.91 373.95,-74.78 374.93,-67.85"/>
</g>
<!-- Node25 -->
<g id="node25" class="node">
<title>Node25</title>
<g id="a_node25"><a xlink:href="singleton_8h.html" target="_top" xlink:title="单例模式封装">
<polygon fill="white" stroke="black" points="1010.5,-56.5 1010.5,-75.5 1081.5,-75.5 1081.5,-56.5 1010.5,-56.5"/>
<text text-anchor="middle" x="1046" y="-63.5" font-family="Helvetica,sans-Serif" font-size="10.00">singleton.h</text>
</a>
</g>
</g>
<!-- Node14&#45;&gt;Node25 -->
<g id="edge32" class="edge">
<title>Node14&#45;&gt;Node25</title>
<path fill="none" stroke="midnightblue" d="M745.76,-117.65C791.16,-110.31 902.72,-92.14 996,-76 997.44,-75.75 998.9,-75.5 1000.38,-75.24"/>
<polygon fill="midnightblue" stroke="midnightblue" points="1000.99,-78.68 1010.23,-73.5 999.77,-71.79 1000.99,-78.68"/>
</g>
<!-- Node21&#45;&gt;Node3 -->
<g id="edge28" class="edge">
<title>Node21&#45;&gt;Node3</title>
<path fill="none" stroke="midnightblue" d="M323.37,-62.74C276.95,-57.45 160.65,-43.13 54.2,-20.03"/>
<polygon fill="midnightblue" stroke="midnightblue" points="54.78,-16.57 44.26,-17.84 53.28,-23.41 54.78,-16.57"/>
</g>
<!-- Node21&#45;&gt;Node10 -->
<g id="edge25" class="edge">
<title>Node21&#45;&gt;Node10</title>
<path fill="none" stroke="midnightblue" d="M364.66,-57.03C387.83,-48.1 425.66,-33.5 452.52,-23.14"/>
<polygon fill="midnightblue" stroke="midnightblue" points="453.8,-26.4 461.87,-19.54 451.28,-19.87 453.8,-26.4"/>
</g>
<!-- Node21&#45;&gt;Node15 -->
<g id="edge30" class="edge">
<title>Node21&#45;&gt;Node15</title>
<path fill="none" stroke="midnightblue" d="M344,-56.08C344,-49.01 344,-38.86 344,-29.99"/>
<polygon fill="midnightblue" stroke="midnightblue" points="347.5,-29.75 344,-19.75 340.5,-29.75 347.5,-29.75"/>
</g>
<!-- Node21&#45;&gt;Node18 -->
<g id="edge29" class="edge">
<title>Node21&#45;&gt;Node18</title>
<path fill="none" stroke="midnightblue" d="M355.57,-56.32C366.42,-48.18 382.88,-35.84 395.88,-26.09"/>
<polygon fill="midnightblue" stroke="midnightblue" points="398.32,-28.63 404.22,-19.83 394.12,-23.03 398.32,-28.63"/>
</g>
<!-- Node22 -->
<g id="node22" class="node">
<title>Node22</title>
<g id="a_node22"><a xlink:title=" ">
<polygon fill="white" stroke="#bfbfbf" points="62,-0.5 62,-19.5 134,-19.5 134,-0.5 62,-0.5"/>
<text text-anchor="middle" x="98" y="-7.5" font-family="Helvetica,sans-Serif" font-size="10.00">sys/types.h</text>
</a>
</g>
</g>
<!-- Node21&#45;&gt;Node22 -->
<g id="edge24" class="edge">
<title>Node21&#45;&gt;Node22</title>
<path fill="none" stroke="midnightblue" d="M323.45,-60.49C284.29,-51.89 198.09,-32.97 144.35,-21.17"/>
<polygon fill="midnightblue" stroke="midnightblue" points="144.9,-17.71 134.38,-18.99 143.4,-24.55 144.9,-17.71"/>
</g>
<!-- Node23 -->
<g id="node23" class="node">
<title>Node23</title>
<g id="a_node23"><a xlink:title=" ">
<polygon fill="white" stroke="#bfbfbf" points="152,-0.5 152,-19.5 220,-19.5 220,-0.5 152,-0.5"/>
<text text-anchor="middle" x="186" y="-7.5" font-family="Helvetica,sans-Serif" font-size="10.00">sys/time.h</text>
</a>
</g>
</g>
<!-- Node21&#45;&gt;Node23 -->
<g id="edge26" class="edge">
<title>Node21&#45;&gt;Node23</title>
<path fill="none" stroke="midnightblue" d="M323.34,-57.94C297.3,-49.04 252.15,-33.61 220.76,-22.88"/>
<polygon fill="midnightblue" stroke="midnightblue" points="221.69,-19.5 211.09,-19.58 219.42,-26.12 221.69,-19.5"/>
</g>
<!-- Node24 -->
<g id="node24" class="node">
<title>Node24</title>
<g id="a_node24"><a xlink:title=" ">
<polygon fill="white" stroke="#bfbfbf" points="238,-0.5 238,-19.5 296,-19.5 296,-0.5 238,-0.5"/>
<text text-anchor="middle" x="267" y="-7.5" font-family="Helvetica,sans-Serif" font-size="10.00">cxxabi.h</text>
</a>
</g>
</g>
<!-- Node21&#45;&gt;Node24 -->
<g id="edge27" class="edge">
<title>Node21&#45;&gt;Node24</title>
<path fill="none" stroke="midnightblue" d="M331.63,-56.32C319.84,-48.06 301.87,-35.45 287.86,-25.63"/>
<polygon fill="midnightblue" stroke="midnightblue" points="289.54,-22.53 279.34,-19.65 285.52,-28.26 289.54,-22.53"/>
</g>
<!-- Node25&#45;&gt;Node7 -->
<g id="edge33" class="edge">
<title>Node25&#45;&gt;Node7</title>
<path fill="none" stroke="midnightblue" d="M1056.44,-56.32C1066.15,-48.26 1080.82,-36.08 1092.5,-26.37"/>
<polygon fill="midnightblue" stroke="midnightblue" points="1094.91,-28.92 1100.37,-19.83 1090.44,-23.53 1094.91,-28.92"/>
</g>
</g>
</svg>
