<?xml version="1.0" encoding="UTF-8" standalone="no"?>
<!DOCTYPE svg PUBLIC "-//W3C//DTD SVG 1.1//EN"
 "http://www.w3.org/Graphics/SVG/1.1/DTD/svg11.dtd">
<!-- Generated by graphviz version 2.43.0 (0)
 -->
<!-- Title: sylar/thread.h Pages: 1 -->
<svg width="692pt" height="140pt"
 viewBox="0.00 0.00 692.00 140.00" xmlns="http://www.w3.org/2000/svg" xmlns:xlink="http://www.w3.org/1999/xlink">
<g id="graph0" class="graph" transform="scale(1 1) rotate(0) translate(4 136)">
<title>sylar/thread.h</title>
<polygon fill="white" stroke="transparent" points="-4,4 -4,-136 688,-136 688,4 -4,4"/>
<!-- Node1 -->
<g id="node1" class="node">
<title>Node1</title>
<g id="a_node1"><a xlink:title="线程相关的封装">
<polygon fill="#bfbfbf" stroke="black" points="271,-112.5 271,-131.5 355,-131.5 355,-112.5 271,-112.5"/>
<text text-anchor="middle" x="313" y="-119.5" font-family="Helvetica,sans-Serif" font-size="10.00">sylar/thread.h</text>
</a>
</g>
</g>
<!-- Node2 -->
<g id="node2" class="node">
<title>Node2</title>
<g id="a_node2"><a xlink:title=" ">
<polygon fill="white" stroke="#bfbfbf" points="257,-56.5 257,-75.5 301,-75.5 301,-56.5 257,-56.5"/>
<text text-anchor="middle" x="279" y="-63.5" font-family="Helvetica,sans-Serif" font-size="10.00">string</text>
</a>
</g>
</g>
<!-- Node1&#45;&gt;Node2 -->
<g id="edge1" class="edge">
<title>Node1&#45;&gt;Node2</title>
<path fill="none" stroke="midnightblue" d="M307.39,-112.08C302.63,-104.53 295.68,-93.49 289.85,-84.23"/>
<polygon fill="midnightblue" stroke="midnightblue" points="292.8,-82.35 284.51,-75.75 286.88,-86.08 292.8,-82.35"/>
</g>
<!-- Node3 -->
<g id="node3" class="node">
<title>Node3</title>
<g id="a_node3"><a xlink:href="mutex_8h.html" target="_top" xlink:title="信号量，互斥锁，读写锁，范围锁模板，自旋锁，原子锁">
<polygon fill="white" stroke="black" points="319.5,-56.5 319.5,-75.5 376.5,-75.5 376.5,-56.5 319.5,-56.5"/>
<text text-anchor="middle" x="348" y="-63.5" font-family="Helvetica,sans-Serif" font-size="10.00">mutex.h</text>
</a>
</g>
</g>
<!-- Node1&#45;&gt;Node3 -->
<g id="edge2" class="edge">
<title>Node1&#45;&gt;Node3</title>
<path fill="none" stroke="midnightblue" d="M318.78,-112.08C323.67,-104.53 330.83,-93.49 336.83,-84.23"/>
<polygon fill="midnightblue" stroke="midnightblue" points="339.83,-86.05 342.33,-75.75 333.95,-82.24 339.83,-86.05"/>
</g>
<!-- Node4 -->
<g id="node4" class="node">
<title>Node4</title>
<g id="a_node4"><a xlink:title=" ">
<polygon fill="white" stroke="#bfbfbf" points="0,-0.5 0,-19.5 48,-19.5 48,-0.5 0,-0.5"/>
<text text-anchor="middle" x="24" y="-7.5" font-family="Helvetica,sans-Serif" font-size="10.00">thread</text>
</a>
</g>
</g>
<!-- Node3&#45;&gt;Node4 -->
<g id="edge3" class="edge">
<title>Node3&#45;&gt;Node4</title>
<path fill="none" stroke="midnightblue" d="M319.43,-57.94C316.25,-57.24 313.06,-56.58 310,-56 201.56,-35.49 170,-42.55 58.06,-19.99"/>
<polygon fill="midnightblue" stroke="midnightblue" points="58.57,-16.52 48.07,-17.94 57.16,-23.37 58.57,-16.52"/>
</g>
<!-- Node5 -->
<g id="node5" class="node">
<title>Node5</title>
<g id="a_node5"><a xlink:title=" ">
<polygon fill="white" stroke="#bfbfbf" points="66.5,-0.5 66.5,-19.5 131.5,-19.5 131.5,-0.5 66.5,-0.5"/>
<text text-anchor="middle" x="99" y="-7.5" font-family="Helvetica,sans-Serif" font-size="10.00">functional</text>
</a>
</g>
</g>
<!-- Node3&#45;&gt;Node5 -->
<g id="edge4" class="edge">
<title>Node3&#45;&gt;Node5</title>
<path fill="none" stroke="midnightblue" d="M319.38,-58.15C316.22,-57.41 313.04,-56.68 310,-56 238.15,-39.84 217.75,-36.32 141.64,-20.13"/>
<polygon fill="midnightblue" stroke="midnightblue" points="142.07,-16.64 131.56,-17.98 140.61,-23.49 142.07,-16.64"/>
</g>
<!-- Node6 -->
<g id="node6" class="node">
<title>Node6</title>
<g id="a_node6"><a xlink:title=" ">
<polygon fill="white" stroke="#bfbfbf" points="150,-0.5 150,-19.5 208,-19.5 208,-0.5 150,-0.5"/>
<text text-anchor="middle" x="179" y="-7.5" font-family="Helvetica,sans-Serif" font-size="10.00">memory</text>
</a>
</g>
</g>
<!-- Node3&#45;&gt;Node6 -->
<g id="edge5" class="edge">
<title>Node3&#45;&gt;Node6</title>
<path fill="none" stroke="midnightblue" d="M321.22,-56.44C292.67,-47.32 247.27,-32.81 215.46,-22.65"/>
<polygon fill="midnightblue" stroke="midnightblue" points="216.24,-19.23 205.65,-19.52 214.11,-25.89 216.24,-19.23"/>
</g>
<!-- Node7 -->
<g id="node7" class="node">
<title>Node7</title>
<g id="a_node7"><a xlink:title=" ">
<polygon fill="white" stroke="#bfbfbf" points="226.5,-0.5 226.5,-19.5 289.5,-19.5 289.5,-0.5 226.5,-0.5"/>
<text text-anchor="middle" x="258" y="-7.5" font-family="Helvetica,sans-Serif" font-size="10.00">pthread.h</text>
</a>
</g>
</g>
<!-- Node3&#45;&gt;Node7 -->
<g id="edge6" class="edge">
<title>Node3&#45;&gt;Node7</title>
<path fill="none" stroke="midnightblue" d="M333.54,-56.32C319.5,-47.9 297.95,-34.97 281.46,-25.07"/>
<polygon fill="midnightblue" stroke="midnightblue" points="282.8,-21.8 272.42,-19.65 279.2,-27.8 282.8,-21.8"/>
</g>
<!-- Node8 -->
<g id="node8" class="node">
<title>Node8</title>
<g id="a_node8"><a xlink:title=" ">
<polygon fill="white" stroke="#bfbfbf" points="308,-0.5 308,-19.5 388,-19.5 388,-0.5 308,-0.5"/>
<text text-anchor="middle" x="348" y="-7.5" font-family="Helvetica,sans-Serif" font-size="10.00">semaphore.h</text>
</a>
</g>
</g>
<!-- Node3&#45;&gt;Node8 -->
<g id="edge7" class="edge">
<title>Node3&#45;&gt;Node8</title>
<path fill="none" stroke="midnightblue" d="M348,-56.08C348,-49.01 348,-38.86 348,-29.99"/>
<polygon fill="midnightblue" stroke="midnightblue" points="351.5,-29.75 348,-19.75 344.5,-29.75 351.5,-29.75"/>
</g>
<!-- Node9 -->
<g id="node9" class="node">
<title>Node9</title>
<g id="a_node9"><a xlink:title=" ">
<polygon fill="white" stroke="#bfbfbf" points="406.5,-0.5 406.5,-19.5 459.5,-19.5 459.5,-0.5 406.5,-0.5"/>
<text text-anchor="middle" x="433" y="-7.5" font-family="Helvetica,sans-Serif" font-size="10.00">stdint.h</text>
</a>
</g>
</g>
<!-- Node3&#45;&gt;Node9 -->
<g id="edge8" class="edge">
<title>Node3&#45;&gt;Node9</title>
<path fill="none" stroke="midnightblue" d="M361.66,-56.32C374.92,-47.9 395.27,-34.97 410.85,-25.07"/>
<polygon fill="midnightblue" stroke="midnightblue" points="412.81,-27.97 419.38,-19.65 409.06,-22.06 412.81,-27.97"/>
</g>
<!-- Node10 -->
<g id="node10" class="node">
<title>Node10</title>
<g id="a_node10"><a xlink:title=" ">
<polygon fill="white" stroke="#bfbfbf" points="478,-0.5 478,-19.5 528,-19.5 528,-0.5 478,-0.5"/>
<text text-anchor="middle" x="503" y="-7.5" font-family="Helvetica,sans-Serif" font-size="10.00">atomic</text>
</a>
</g>
</g>
<!-- Node3&#45;&gt;Node10 -->
<g id="edge9" class="edge">
<title>Node3&#45;&gt;Node10</title>
<path fill="none" stroke="midnightblue" d="M372.56,-56.44C398.52,-47.4 439.67,-33.06 468.8,-22.92"/>
<polygon fill="midnightblue" stroke="midnightblue" points="470.26,-26.11 478.55,-19.52 467.96,-19.5 470.26,-26.11"/>
</g>
<!-- Node11 -->
<g id="node11" class="node">
<title>Node11</title>
<g id="a_node11"><a xlink:title=" ">
<polygon fill="white" stroke="#bfbfbf" points="546,-0.5 546,-19.5 578,-19.5 578,-0.5 546,-0.5"/>
<text text-anchor="middle" x="562" y="-7.5" font-family="Helvetica,sans-Serif" font-size="10.00">list</text>
</a>
</g>
</g>
<!-- Node3&#45;&gt;Node11 -->
<g id="edge10" class="edge">
<title>Node3&#45;&gt;Node11</title>
<path fill="none" stroke="midnightblue" d="M376.76,-59.2C412.15,-51.84 474.2,-38.19 536.03,-20.03"/>
<polygon fill="midnightblue" stroke="midnightblue" points="537.36,-23.29 545.95,-17.08 535.37,-16.58 537.36,-23.29"/>
</g>
<!-- Node12 -->
<g id="node12" class="node">
<title>Node12</title>
<g id="a_node12"><a xlink:href="noncopyable_8h.html" target="_top" xlink:title="不可拷贝对象封装">
<polygon fill="white" stroke="black" points="596,-0.5 596,-19.5 684,-19.5 684,-0.5 596,-0.5"/>
<text text-anchor="middle" x="640" y="-7.5" font-family="Helvetica,sans-Serif" font-size="10.00">noncopyable.h</text>
</a>
</g>
</g>
<!-- Node3&#45;&gt;Node12 -->
<g id="edge11" class="edge">
<title>Node3&#45;&gt;Node12</title>
<path fill="none" stroke="midnightblue" d="M376.53,-59.72C424.92,-50.77 523.87,-32.48 585.78,-21.03"/>
<polygon fill="midnightblue" stroke="midnightblue" points="586.56,-24.44 595.76,-19.18 585.29,-17.56 586.56,-24.44"/>
</g>
</g>
</svg>
