<?xml version="1.0" encoding="UTF-8" standalone="no"?>
<!DOCTYPE svg PUBLIC "-//W3C//DTD SVG 1.1//EN"
 "http://www.w3.org/Graphics/SVG/1.1/DTD/svg11.dtd">
<!-- Generated by graphviz version 2.43.0 (0)
 -->
<!-- Title: sylar/thread.h Pages: 1 -->
<svg width="2399pt" height="554pt"
 viewBox="0.00 0.00 2399.00 554.00" xmlns="http://www.w3.org/2000/svg" xmlns:xlink="http://www.w3.org/1999/xlink">
<g id="graph0" class="graph" transform="scale(1 1) rotate(0) translate(4 550)">
<title>sylar/thread.h</title>
<polygon fill="white" stroke="transparent" points="-4,4 -4,-550 2395,-550 2395,4 -4,4"/>
<!-- Node1 -->
<g id="node1" class="node">
<title>Node1</title>
<g id="a_node1"><a xlink:title="线程相关的封装">
<polygon fill="#bfbfbf" stroke="black" points="1234.5,-526.5 1234.5,-545.5 1318.5,-545.5 1318.5,-526.5 1234.5,-526.5"/>
<text text-anchor="middle" x="1276.5" y="-533.5" font-family="Helvetica,sans-Serif" font-size="10.00">sylar/thread.h</text>
</a>
</g>
</g>
<!-- Node2 -->
<g id="node2" class="node">
<title>Node2</title>
<g id="a_node2"><a xlink:href="fd__manager_8h.html" target="_top" xlink:title="文件句柄管理类">
<polygon fill="white" stroke="black" points="1116.5,-470.5 1116.5,-489.5 1226.5,-489.5 1226.5,-470.5 1116.5,-470.5"/>
<text text-anchor="middle" x="1171.5" y="-477.5" font-family="Helvetica,sans-Serif" font-size="10.00">sylar/fd_manager.h</text>
</a>
</g>
</g>
<!-- Node1&#45;&gt;Node2 -->
<g id="edge1" class="edge">
<title>Node1&#45;&gt;Node2</title>
<path fill="none" stroke="midnightblue" d="M1250.69,-521.73C1231.25,-511.73 1205.15,-498.31 1188.33,-489.65"/>
<polygon fill="midnightblue" stroke="midnightblue" points="1249.14,-524.86 1259.63,-526.32 1252.34,-518.64 1249.14,-524.86"/>
</g>
<!-- Node4 -->
<g id="node4" class="node">
<title>Node4</title>
<g id="a_node4"><a xlink:href="sylar_8h_source.html" target="_top" xlink:title=" ">
<polygon fill="white" stroke="black" points="1225.5,-67.5 1225.5,-86.5 1301.5,-86.5 1301.5,-67.5 1225.5,-67.5"/>
<text text-anchor="middle" x="1263.5" y="-74.5" font-family="Helvetica,sans-Serif" font-size="10.00">sylar/sylar.h</text>
</a>
</g>
</g>
<!-- Node1&#45;&gt;Node4 -->
<g id="edge45" class="edge">
<title>Node1&#45;&gt;Node4</title>
<path fill="none" stroke="midnightblue" d="M1224.44,-532.33C1156.87,-525.75 1047.5,-503.03 1047.5,-425 1047.5,-425 1047.5,-425 1047.5,-188 1047.5,-109.09 1163.37,-86.76 1225.38,-80.46"/>
<polygon fill="midnightblue" stroke="midnightblue" points="1224.23,-535.83 1234.5,-533.23 1224.85,-528.86 1224.23,-535.83"/>
</g>
<!-- Node23 -->
<g id="node23" class="node">
<title>Node23</title>
<g id="a_node23"><a xlink:href="fiber_8h.html" target="_top" xlink:title="协程模块">
<polygon fill="white" stroke="black" points="1325.5,-470.5 1325.5,-489.5 1399.5,-489.5 1399.5,-470.5 1325.5,-470.5"/>
<text text-anchor="middle" x="1362.5" y="-477.5" font-family="Helvetica,sans-Serif" font-size="10.00">sylar/fiber.h</text>
</a>
</g>
</g>
<!-- Node1&#45;&gt;Node23 -->
<g id="edge22" class="edge">
<title>Node1&#45;&gt;Node23</title>
<path fill="none" stroke="midnightblue" d="M1298.95,-520.9C1314.72,-511 1335.31,-498.07 1348.72,-489.65"/>
<polygon fill="midnightblue" stroke="midnightblue" points="1296.93,-518.04 1290.32,-526.32 1300.65,-523.97 1296.93,-518.04"/>
</g>
<!-- Node24 -->
<g id="node24" class="node">
<title>Node24</title>
<g id="a_node24"><a xlink:href="scheduler_8h.html" target="_top" xlink:title="协程调度器实现">
<polygon fill="white" stroke="black" points="1300,-414.5 1300,-433.5 1399,-433.5 1399,-414.5 1300,-414.5"/>
<text text-anchor="middle" x="1349.5" y="-421.5" font-family="Helvetica,sans-Serif" font-size="10.00">sylar/scheduler.h</text>
</a>
</g>
</g>
<!-- Node1&#45;&gt;Node24 -->
<g id="edge44" class="edge">
<title>Node1&#45;&gt;Node24</title>
<path fill="none" stroke="midnightblue" d="M1286.75,-517.5C1294.61,-504.27 1305.89,-485.77 1316.5,-470 1325.15,-457.14 1335.88,-442.78 1342.71,-433.81"/>
<polygon fill="midnightblue" stroke="midnightblue" points="1283.53,-516.06 1281.46,-526.45 1289.56,-519.62 1283.53,-516.06"/>
</g>
<!-- Node30 -->
<g id="node30" class="node">
<title>Node30</title>
<g id="a_node30"><a xlink:href="servlet_8h.html" target="_top" xlink:title="Servlet封装">
<polygon fill="white" stroke="black" points="1178,-179.5 1178,-198.5 1287,-198.5 1287,-179.5 1178,-179.5"/>
<text text-anchor="middle" x="1232.5" y="-186.5" font-family="Helvetica,sans-Serif" font-size="10.00">sylar/http/servlet.h</text>
</a>
</g>
</g>
<!-- Node1&#45;&gt;Node30 -->
<g id="edge43" class="edge">
<title>Node1&#45;&gt;Node30</title>
<path fill="none" stroke="midnightblue" d="M1271.97,-516.24C1265.78,-491.99 1253.58,-448.76 1237.5,-414 1217.31,-370.34 1193.67,-368.26 1180.5,-322 1166.88,-274.15 1207.13,-219.63 1224.72,-198.75"/>
<polygon fill="midnightblue" stroke="midnightblue" points="1268.64,-517.36 1274.45,-526.22 1275.44,-515.67 1268.64,-517.36"/>
</g>
<!-- Node34 -->
<g id="node34" class="node">
<title>Node34</title>
<g id="a_node34"><a xlink:href="thread_8cc.html" target="_top" xlink:title="线程封装实现">
<polygon fill="white" stroke="black" points="1418,-470.5 1418,-489.5 1507,-489.5 1507,-470.5 1418,-470.5"/>
<text text-anchor="middle" x="1462.5" y="-477.5" font-family="Helvetica,sans-Serif" font-size="10.00">sylar/thread.cc</text>
</a>
</g>
</g>
<!-- Node1&#45;&gt;Node34 -->
<g id="edge46" class="edge">
<title>Node1&#45;&gt;Node34</title>
<path fill="none" stroke="midnightblue" d="M1315.88,-523.57C1350.97,-513.38 1401.52,-498.7 1433.17,-489.52"/>
<polygon fill="midnightblue" stroke="midnightblue" points="1314.6,-520.29 1305.97,-526.44 1316.55,-527.02 1314.6,-520.29"/>
</g>
<!-- Node3 -->
<g id="node3" class="node">
<title>Node3</title>
<g id="a_node3"><a xlink:href="fd__manager_8cc.html" target="_top" xlink:title="文件句柄管理类实现">
<polygon fill="white" stroke="black" points="1114,-414.5 1114,-433.5 1229,-433.5 1229,-414.5 1114,-414.5"/>
<text text-anchor="middle" x="1171.5" y="-421.5" font-family="Helvetica,sans-Serif" font-size="10.00">sylar/fd_manager.cc</text>
</a>
</g>
</g>
<!-- Node2&#45;&gt;Node3 -->
<g id="edge2" class="edge">
<title>Node2&#45;&gt;Node3</title>
<path fill="none" stroke="midnightblue" d="M1171.5,-459.8C1171.5,-450.91 1171.5,-440.78 1171.5,-433.75"/>
<polygon fill="midnightblue" stroke="midnightblue" points="1168,-460.08 1171.5,-470.08 1175,-460.08 1168,-460.08"/>
</g>
<!-- Node2&#45;&gt;Node4 -->
<g id="edge3" class="edge">
<title>Node2&#45;&gt;Node4</title>
<path fill="none" stroke="midnightblue" d="M1142.81,-465.62C1129.42,-458.06 1114.32,-447.41 1104.5,-434 1086.72,-409.71 1085.5,-399.1 1085.5,-369 1085.5,-369 1085.5,-369 1085.5,-188 1085.5,-122.79 1173.01,-94.95 1225.31,-84.13"/>
<polygon fill="midnightblue" stroke="midnightblue" points="1141.24,-468.75 1151.71,-470.36 1144.53,-462.57 1141.24,-468.75"/>
</g>
<!-- Node5 -->
<g id="node5" class="node">
<title>Node5</title>
<g id="a_node5"><a xlink:href="test__address_8cc.html" target="_top" xlink:title="网络地址类测试">
<polygon fill="white" stroke="black" points="2145,-6 2145,-25 2264,-25 2264,-6 2145,-6"/>
<text text-anchor="middle" x="2204.5" y="-13" font-family="Helvetica,sans-Serif" font-size="10.00">tests/test_address.cc</text>
</a>
</g>
</g>
<!-- Node4&#45;&gt;Node5 -->
<g id="edge4" class="edge">
<title>Node4&#45;&gt;Node5</title>
<path fill="none" stroke="midnightblue" d="M1311.71,-76.14C1443.95,-75.94 1823.39,-71.6 2135.5,-31 2146.55,-29.56 2158.46,-27.32 2169.22,-25.02"/>
<polygon fill="midnightblue" stroke="midnightblue" points="1311.51,-72.64 1301.51,-76.14 1311.51,-79.64 1311.51,-72.64"/>
</g>
<!-- Node6 -->
<g id="node6" class="node">
<title>Node6</title>
<g id="a_node6"><a xlink:href="test__bytearray_8cc.html" target="_top" xlink:title="Bytearray类测试">
<polygon fill="white" stroke="black" points="0,-6 0,-25 127,-25 127,-6 0,-6"/>
<text text-anchor="middle" x="63.5" y="-13" font-family="Helvetica,sans-Serif" font-size="10.00">tests/test_bytearray.cc</text>
</a>
</g>
</g>
<!-- Node4&#45;&gt;Node6 -->
<g id="edge5" class="edge">
<title>Node4&#45;&gt;Node6</title>
<path fill="none" stroke="midnightblue" d="M1215.2,-75.08C1028.01,-71.34 350.25,-56.34 136.5,-31 124.7,-29.6 111.95,-27.33 100.46,-25.01"/>
<polygon fill="midnightblue" stroke="midnightblue" points="1215.22,-78.58 1225.28,-75.28 1215.35,-71.58 1215.22,-78.58"/>
</g>
<!-- Node7 -->
<g id="node7" class="node">
<title>Node7</title>
<g id="a_node7"><a xlink:href="test__config_8cc.html" target="_top" xlink:title="配置模块测试">
<polygon fill="white" stroke="black" points="145.5,-6 145.5,-25 255.5,-25 255.5,-6 145.5,-6"/>
<text text-anchor="middle" x="200.5" y="-13" font-family="Helvetica,sans-Serif" font-size="10.00">tests/test_config.cc</text>
</a>
</g>
</g>
<!-- Node4&#45;&gt;Node7 -->
<g id="edge6" class="edge">
<title>Node4&#45;&gt;Node7</title>
<path fill="none" stroke="midnightblue" d="M1215.34,-74.97C1042.2,-71.07 451.66,-56.21 264.5,-31 254.11,-29.6 242.93,-27.33 232.85,-25.01"/>
<polygon fill="midnightblue" stroke="midnightblue" points="1215.35,-78.47 1225.42,-75.19 1215.5,-71.47 1215.35,-78.47"/>
</g>
<!-- Node8 -->
<g id="node8" class="node">
<title>Node8</title>
<g id="a_node8"><a xlink:href="test__env_8cc.html" target="_top" xlink:title="环境变量测试">
<polygon fill="white" stroke="black" points="273.5,-6 273.5,-25 371.5,-25 371.5,-6 273.5,-6"/>
<text text-anchor="middle" x="322.5" y="-13" font-family="Helvetica,sans-Serif" font-size="10.00">tests/test_env.cc</text>
</a>
</g>
</g>
<!-- Node4&#45;&gt;Node8 -->
<g id="edge7" class="edge">
<title>Node4&#45;&gt;Node8</title>
<path fill="none" stroke="midnightblue" d="M1215.43,-74.78C1055.73,-70.54 543.73,-55.33 380.5,-31 371.16,-29.61 361.13,-27.37 352.08,-25.07"/>
<polygon fill="midnightblue" stroke="midnightblue" points="1215.34,-78.28 1225.43,-75.04 1215.53,-71.28 1215.34,-78.28"/>
</g>
<!-- Node9 -->
<g id="node9" class="node">
<title>Node9</title>
<g id="a_node9"><a xlink:href="test__fiber_8cc.html" target="_top" xlink:title="协程测试">
<polygon fill="white" stroke="black" points="389.5,-6 389.5,-25 491.5,-25 491.5,-6 389.5,-6"/>
<text text-anchor="middle" x="440.5" y="-13" font-family="Helvetica,sans-Serif" font-size="10.00">tests/test_fiber.cc</text>
</a>
</g>
</g>
<!-- Node4&#45;&gt;Node9 -->
<g id="edge8" class="edge">
<title>Node4&#45;&gt;Node9</title>
<path fill="none" stroke="midnightblue" d="M1215.08,-76.13C1093.95,-75.8 768.31,-70.93 500.5,-31 490.85,-29.56 480.48,-27.31 471.12,-25.01"/>
<polygon fill="midnightblue" stroke="midnightblue" points="1215.14,-79.63 1225.14,-76.14 1215.15,-72.63 1215.14,-79.63"/>
</g>
<!-- Node10 -->
<g id="node10" class="node">
<title>Node10</title>
<g id="a_node10"><a xlink:href="test__fiber2_8cc.html" target="_top" xlink:title="协程测试，用于演示非对称协程">
<polygon fill="white" stroke="black" points="2282,-6 2282,-25 2391,-25 2391,-6 2282,-6"/>
<text text-anchor="middle" x="2336.5" y="-13" font-family="Helvetica,sans-Serif" font-size="10.00">tests/test_fiber2.cc</text>
</a>
</g>
</g>
<!-- Node4&#45;&gt;Node10 -->
<g id="edge9" class="edge">
<title>Node4&#45;&gt;Node10</title>
<path fill="none" stroke="midnightblue" d="M1311.9,-75.01C1486.58,-71.25 2084.21,-56.78 2273.5,-31 2283.73,-29.61 2294.75,-27.34 2304.66,-25.01"/>
<polygon fill="midnightblue" stroke="midnightblue" points="1311.65,-71.51 1301.73,-75.23 1311.8,-78.51 1311.65,-71.51"/>
</g>
<!-- Node11 -->
<g id="node11" class="node">
<title>Node11</title>
<g id="a_node11"><a xlink:href="test__hook_8cc.html" target="_top" xlink:title="hook模块测试">
<polygon fill="white" stroke="black" points="510,-6 510,-25 615,-25 615,-6 510,-6"/>
<text text-anchor="middle" x="562.5" y="-13" font-family="Helvetica,sans-Serif" font-size="10.00">tests/test_hook.cc</text>
</a>
</g>
</g>
<!-- Node4&#45;&gt;Node11 -->
<g id="edge10" class="edge">
<title>Node4&#45;&gt;Node11</title>
<path fill="none" stroke="midnightblue" d="M1215.22,-75.29C1108.12,-73.13 842.74,-64.54 623.5,-31 613.82,-29.52 603.4,-27.29 593.97,-25.02"/>
<polygon fill="midnightblue" stroke="midnightblue" points="1215.32,-78.79 1225.39,-75.48 1215.46,-71.79 1215.32,-78.79"/>
</g>
<!-- Node12 -->
<g id="node12" class="node">
<title>Node12</title>
<g id="a_node12"><a xlink:href="test__http_8cc.html" target="_top" xlink:title="HTTP请求类与响应类测试">
<polygon fill="white" stroke="black" points="633,-6 633,-25 734,-25 734,-6 633,-6"/>
<text text-anchor="middle" x="683.5" y="-13" font-family="Helvetica,sans-Serif" font-size="10.00">tests/test_http.cc</text>
</a>
</g>
</g>
<!-- Node4&#45;&gt;Node12 -->
<g id="edge11" class="edge">
<title>Node4&#45;&gt;Node12</title>
<path fill="none" stroke="midnightblue" d="M1215.28,-74.26C1123.1,-70.39 915.73,-59.1 743.5,-31 734.09,-29.46 723.97,-27.24 714.77,-25"/>
<polygon fill="midnightblue" stroke="midnightblue" points="1215.28,-77.76 1225.41,-74.67 1215.57,-70.77 1215.28,-77.76"/>
</g>
<!-- Node13 -->
<g id="node13" class="node">
<title>Node13</title>
<g id="a_node13"><a xlink:href="test__http__parser_8cc.html" target="_top" xlink:title="测试HTTP协议解析">
<polygon fill="white" stroke="black" points="752.5,-6 752.5,-25 888.5,-25 888.5,-6 752.5,-6"/>
<text text-anchor="middle" x="820.5" y="-13" font-family="Helvetica,sans-Serif" font-size="10.00">tests/test_http_parser.cc</text>
</a>
</g>
</g>
<!-- Node4&#45;&gt;Node13 -->
<g id="edge12" class="edge">
<title>Node4&#45;&gt;Node13</title>
<path fill="none" stroke="midnightblue" d="M1215.16,-71.05C1145,-63.64 1010.92,-48.63 897.5,-31 886.34,-29.27 874.33,-27.13 863.18,-25.04"/>
<polygon fill="midnightblue" stroke="midnightblue" points="1215.14,-74.57 1225.45,-72.13 1215.87,-67.61 1215.14,-74.57"/>
</g>
<!-- Node14 -->
<g id="node14" class="node">
<title>Node14</title>
<g id="a_node14"><a xlink:href="test__http__server_8cc.html" target="_top" xlink:title="HttpServer测试">
<polygon fill="white" stroke="black" points="906.5,-6 906.5,-25 1042.5,-25 1042.5,-6 906.5,-6"/>
<text text-anchor="middle" x="974.5" y="-13" font-family="Helvetica,sans-Serif" font-size="10.00">tests/test_http_server.cc</text>
</a>
</g>
</g>
<!-- Node4&#45;&gt;Node14 -->
<g id="edge13" class="edge">
<title>Node4&#45;&gt;Node14</title>
<path fill="none" stroke="midnightblue" d="M1215.44,-66.1C1159.69,-54.63 1068.7,-35.89 1015.94,-25.03"/>
<polygon fill="midnightblue" stroke="midnightblue" points="1214.92,-69.57 1225.42,-68.16 1216.33,-62.72 1214.92,-69.57"/>
</g>
<!-- Node15 -->
<g id="node15" class="node">
<title>Node15</title>
<g id="a_node15"><a xlink:href="test__iomanager_8cc.html" target="_top" xlink:title="IO协程调度器测试">
<polygon fill="white" stroke="black" points="1061,-6 1061,-25 1194,-25 1194,-6 1061,-6"/>
<text text-anchor="middle" x="1127.5" y="-13" font-family="Helvetica,sans-Serif" font-size="10.00">tests/test_iomanager.cc</text>
</a>
</g>
</g>
<!-- Node4&#45;&gt;Node15 -->
<g id="edge14" class="edge">
<title>Node4&#45;&gt;Node15</title>
<path fill="none" stroke="midnightblue" d="M1234.53,-63.33C1208.13,-51.78 1169.86,-35.03 1146.95,-25.01"/>
<polygon fill="midnightblue" stroke="midnightblue" points="1233.45,-66.67 1244.01,-67.48 1236.26,-60.26 1233.45,-66.67"/>
</g>
<!-- Node16 -->
<g id="node16" class="node">
<title>Node16</title>
<g id="a_node16"><a xlink:href="test__log_8cpp.html" target="_top" xlink:title="日志类测试">
<polygon fill="white" stroke="black" points="1212,-6 1212,-25 1315,-25 1315,-6 1212,-6"/>
<text text-anchor="middle" x="1263.5" y="-13" font-family="Helvetica,sans-Serif" font-size="10.00">tests/test_log.cpp</text>
</a>
</g>
</g>
<!-- Node4&#45;&gt;Node16 -->
<g id="edge15" class="edge">
<title>Node4&#45;&gt;Node16</title>
<path fill="none" stroke="midnightblue" d="M1263.5,-57.32C1263.5,-46.5 1263.5,-33.4 1263.5,-25.01"/>
<polygon fill="midnightblue" stroke="midnightblue" points="1260,-57.48 1263.5,-67.48 1267,-57.48 1260,-57.48"/>
</g>
<!-- Node17 -->
<g id="node17" class="node">
<title>Node17</title>
<g id="a_node17"><a xlink:href="test__scheduler_8cc.html" target="_top" xlink:title="协程调度器测试">
<polygon fill="white" stroke="black" points="1333.5,-6 1333.5,-25 1461.5,-25 1461.5,-6 1333.5,-6"/>
<text text-anchor="middle" x="1397.5" y="-13" font-family="Helvetica,sans-Serif" font-size="10.00">tests/test_scheduler.cc</text>
</a>
</g>
</g>
<!-- Node4&#45;&gt;Node17 -->
<g id="edge16" class="edge">
<title>Node4&#45;&gt;Node17</title>
<path fill="none" stroke="midnightblue" d="M1292.04,-63.33C1318.05,-51.78 1355.76,-35.03 1378.34,-25.01"/>
<polygon fill="midnightblue" stroke="midnightblue" points="1290.42,-60.22 1282.7,-67.48 1293.26,-66.62 1290.42,-60.22"/>
</g>
<!-- Node18 -->
<g id="node18" class="node">
<title>Node18</title>
<g id="a_node18"><a xlink:href="test__socket__tcp__client_8cc.html" target="_top" xlink:title="测试Socket类，tcp客户端">
<polygon fill="white" stroke="black" points="1480,-0.5 1480,-30.5 1599,-30.5 1599,-0.5 1480,-0.5"/>
<text text-anchor="start" x="1488" y="-18.5" font-family="Helvetica,sans-Serif" font-size="10.00">tests/test_socket_tcp</text>
<text text-anchor="middle" x="1539.5" y="-7.5" font-family="Helvetica,sans-Serif" font-size="10.00">_client.cc</text>
</a>
</g>
</g>
<!-- Node4&#45;&gt;Node18 -->
<g id="edge17" class="edge">
<title>Node4&#45;&gt;Node18</title>
<path fill="none" stroke="midnightblue" d="M1311.46,-65.66C1358.21,-55.58 1429.43,-40.23 1479.81,-29.37"/>
<polygon fill="midnightblue" stroke="midnightblue" points="1310.62,-62.26 1301.59,-67.79 1312.1,-69.1 1310.62,-62.26"/>
</g>
<!-- Node19 -->
<g id="node19" class="node">
<title>Node19</title>
<g id="a_node19"><a xlink:href="test__tcp__server_8cc.html" target="_top" xlink:title="TcpServer类测试">
<polygon fill="white" stroke="black" points="1617,-6 1617,-25 1748,-25 1748,-6 1617,-6"/>
<text text-anchor="middle" x="1682.5" y="-13" font-family="Helvetica,sans-Serif" font-size="10.00">tests/test_tcp_server.cc</text>
</a>
</g>
</g>
<!-- Node4&#45;&gt;Node19 -->
<g id="edge18" class="edge">
<title>Node4&#45;&gt;Node19</title>
<path fill="none" stroke="midnightblue" d="M1311.88,-70.68C1378.74,-63.09 1503.1,-48.18 1608.5,-31 1619.22,-29.25 1630.77,-27.11 1641.49,-25.02"/>
<polygon fill="midnightblue" stroke="midnightblue" points="1311.19,-67.23 1301.65,-71.83 1311.98,-74.19 1311.19,-67.23"/>
</g>
<!-- Node20 -->
<g id="node20" class="node">
<title>Node20</title>
<g id="a_node20"><a xlink:href="test__thread_8cc.html" target="_top" xlink:title="线程模块测试">
<polygon fill="white" stroke="black" points="1766,-6 1766,-25 1879,-25 1879,-6 1766,-6"/>
<text text-anchor="middle" x="1822.5" y="-13" font-family="Helvetica,sans-Serif" font-size="10.00">tests/test_thread.cc</text>
</a>
</g>
</g>
<!-- Node4&#45;&gt;Node20 -->
<g id="edge19" class="edge">
<title>Node4&#45;&gt;Node20</title>
<path fill="none" stroke="midnightblue" d="M1311.52,-73.68C1400.11,-68.95 1595.04,-56.41 1757.5,-31 1767.55,-29.43 1778.37,-27.22 1788.25,-25.01"/>
<polygon fill="midnightblue" stroke="midnightblue" points="1311.31,-70.19 1301.51,-74.21 1311.68,-77.18 1311.31,-70.19"/>
</g>
<!-- Node21 -->
<g id="node21" class="node">
<title>Node21</title>
<g id="a_node21"><a xlink:href="test__timer_8cc.html" target="_top" xlink:title="IO协程测试器定时器测试">
<polygon fill="white" stroke="black" points="1897,-6 1897,-25 2004,-25 2004,-6 1897,-6"/>
<text text-anchor="middle" x="1950.5" y="-13" font-family="Helvetica,sans-Serif" font-size="10.00">tests/test_timer.cc</text>
</a>
</g>
</g>
<!-- Node4&#45;&gt;Node21 -->
<g id="edge20" class="edge">
<title>Node4&#45;&gt;Node21</title>
<path fill="none" stroke="midnightblue" d="M1311.79,-75.12C1417.1,-72.62 1675.12,-63.43 1888.5,-31 1898.23,-29.52 1908.68,-27.32 1918.19,-25.07"/>
<polygon fill="midnightblue" stroke="midnightblue" points="1311.7,-71.62 1301.78,-75.34 1311.86,-78.61 1311.7,-71.62"/>
</g>
<!-- Node22 -->
<g id="node22" class="node">
<title>Node22</title>
<g id="a_node22"><a xlink:href="test__util_8cpp.html" target="_top" xlink:title="util与macro测试">
<polygon fill="white" stroke="black" points="2022.5,-6 2022.5,-25 2126.5,-25 2126.5,-6 2022.5,-6"/>
<text text-anchor="middle" x="2074.5" y="-13" font-family="Helvetica,sans-Serif" font-size="10.00">tests/test_util.cpp</text>
</a>
</g>
</g>
<!-- Node4&#45;&gt;Node22 -->
<g id="edge21" class="edge">
<title>Node4&#45;&gt;Node22</title>
<path fill="none" stroke="midnightblue" d="M1311.87,-75.99C1431.54,-75.35 1750.76,-69.81 2013.5,-31 2023.3,-29.55 2033.84,-27.3 2043.36,-25"/>
<polygon fill="midnightblue" stroke="midnightblue" points="1311.57,-72.49 1301.59,-76.04 1311.61,-79.49 1311.57,-72.49"/>
</g>
<!-- Node23&#45;&gt;Node4 -->
<g id="edge40" class="edge">
<title>Node23&#45;&gt;Node4</title>
<path fill="none" stroke="midnightblue" d="M1409.04,-467.96C1444.87,-458.82 1490.83,-445.52 1506.5,-434 1534.81,-413.18 1551.5,-404.14 1551.5,-369 1551.5,-369 1551.5,-369 1551.5,-188 1551.5,-151.82 1533.24,-142.08 1502.5,-123 1469.5,-102.52 1360.47,-88.23 1301.75,-81.82"/>
<polygon fill="midnightblue" stroke="midnightblue" points="1408.08,-464.59 1399.23,-470.42 1409.79,-471.38 1408.08,-464.59"/>
</g>
<!-- Node23&#45;&gt;Node10 -->
<g id="edge42" class="edge">
<title>Node23&#45;&gt;Node10</title>
<path fill="none" stroke="midnightblue" d="M1409.98,-470.15C1553.81,-449.19 1965.5,-491.51 1965.5,-369 1965.5,-369 1965.5,-369 1965.5,-132 1965.5,-114.4 2212.19,-48.7 2303.25,-25.05"/>
<polygon fill="midnightblue" stroke="midnightblue" points="1408.99,-466.76 1399.69,-471.84 1410.13,-473.67 1408.99,-466.76"/>
</g>
<!-- Node23&#45;&gt;Node24 -->
<g id="edge23" class="edge">
<title>Node23&#45;&gt;Node24</title>
<path fill="none" stroke="midnightblue" d="M1357.95,-460.1C1355.79,-451.14 1353.32,-440.86 1351.61,-433.75"/>
<polygon fill="midnightblue" stroke="midnightblue" points="1354.61,-461.18 1360.35,-470.08 1361.42,-459.54 1354.61,-461.18"/>
</g>
<!-- Node33 -->
<g id="node33" class="node">
<title>Node33</title>
<g id="a_node33"><a xlink:href="util_8cpp.html" target="_top" xlink:title="util函数实现">
<polygon fill="white" stroke="black" points="1417.5,-414.5 1417.5,-433.5 1497.5,-433.5 1497.5,-414.5 1417.5,-414.5"/>
<text text-anchor="middle" x="1457.5" y="-421.5" font-family="Helvetica,sans-Serif" font-size="10.00">sylar/util.cpp</text>
</a>
</g>
</g>
<!-- Node23&#45;&gt;Node33 -->
<g id="edge41" class="edge">
<title>Node23&#45;&gt;Node33</title>
<path fill="none" stroke="midnightblue" d="M1386.82,-465.18C1404.3,-455.24 1427.33,-442.15 1442.27,-433.65"/>
<polygon fill="midnightblue" stroke="midnightblue" points="1384.73,-462.34 1377.76,-470.32 1388.19,-468.43 1384.73,-462.34"/>
</g>
<!-- Node24&#45;&gt;Node4 -->
<g id="edge39" class="edge">
<title>Node24&#45;&gt;Node4</title>
<path fill="none" stroke="midnightblue" d="M1396.42,-411.54C1444.88,-396.56 1513.5,-365.17 1513.5,-307.5 1513.5,-307.5 1513.5,-307.5 1513.5,-188 1513.5,-96.6 1371.77,-80.48 1301.74,-78.09"/>
<polygon fill="midnightblue" stroke="midnightblue" points="1395.31,-408.21 1386.71,-414.4 1397.3,-414.92 1395.31,-408.21"/>
</g>
<!-- Node25 -->
<g id="node25" class="node">
<title>Node25</title>
<g id="a_node25"><a xlink:href="iomanager_8h.html" target="_top" xlink:title="IO协程调度器">
<polygon fill="white" stroke="black" points="1225.5,-358.5 1225.5,-377.5 1329.5,-377.5 1329.5,-358.5 1225.5,-358.5"/>
<text text-anchor="middle" x="1277.5" y="-365.5" font-family="Helvetica,sans-Serif" font-size="10.00">sylar/iomanager.h</text>
</a>
</g>
</g>
<!-- Node24&#45;&gt;Node25 -->
<g id="edge24" class="edge">
<title>Node24&#45;&gt;Node25</title>
<path fill="none" stroke="midnightblue" d="M1329.63,-408.1C1316.68,-398.38 1300.2,-386.03 1289.28,-377.83"/>
<polygon fill="midnightblue" stroke="midnightblue" points="1327.83,-411.12 1337.93,-414.32 1332.03,-405.52 1327.83,-411.12"/>
</g>
<!-- Node32 -->
<g id="node32" class="node">
<title>Node32</title>
<g id="a_node32"><a xlink:href="scheduler_8cc.html" target="_top" xlink:title="协程调度器实现">
<polygon fill="white" stroke="black" points="1347.5,-358.5 1347.5,-377.5 1451.5,-377.5 1451.5,-358.5 1347.5,-358.5"/>
<text text-anchor="middle" x="1399.5" y="-365.5" font-family="Helvetica,sans-Serif" font-size="10.00">sylar/scheduler.cc</text>
</a>
</g>
</g>
<!-- Node24&#45;&gt;Node32 -->
<g id="edge38" class="edge">
<title>Node24&#45;&gt;Node32</title>
<path fill="none" stroke="midnightblue" d="M1364.58,-406.72C1373.39,-397.2 1384.17,-385.56 1391.4,-377.75"/>
<polygon fill="midnightblue" stroke="midnightblue" points="1361.98,-404.37 1357.76,-414.08 1367.12,-409.12 1361.98,-404.37"/>
</g>
<!-- Node25&#45;&gt;Node4 -->
<g id="edge34" class="edge">
<title>Node25&#45;&gt;Node4</title>
<path fill="none" stroke="midnightblue" d="M1227.65,-355.02C1209.99,-348.25 1191.74,-337.84 1180.5,-322 1148.73,-277.2 1171.17,-253.86 1168.5,-199 1168.07,-190.12 1165.22,-187.26 1168.5,-179 1185.18,-136.93 1228.59,-102.18 1250.48,-86.69"/>
<polygon fill="midnightblue" stroke="midnightblue" points="1226.75,-358.42 1237.35,-358.42 1229.07,-351.81 1226.75,-358.42"/>
</g>
<!-- Node26 -->
<g id="node26" class="node">
<title>Node26</title>
<g id="a_node26"><a xlink:href="iomanager_8cc.html" target="_top" xlink:title="IO协程调度器实现">
<polygon fill="white" stroke="black" points="1190,-297 1190,-316 1299,-316 1299,-297 1190,-297"/>
<text text-anchor="middle" x="1244.5" y="-304" font-family="Helvetica,sans-Serif" font-size="10.00">sylar/iomanager.cc</text>
</a>
</g>
</g>
<!-- Node25&#45;&gt;Node26 -->
<g id="edge25" class="edge">
<title>Node25&#45;&gt;Node26</title>
<path fill="none" stroke="midnightblue" d="M1267.89,-349.67C1261.75,-338.61 1254.07,-324.75 1249.22,-316.01"/>
<polygon fill="midnightblue" stroke="midnightblue" points="1264.86,-351.43 1272.77,-358.48 1270.98,-348.03 1264.86,-351.43"/>
</g>
<!-- Node27 -->
<g id="node27" class="node">
<title>Node27</title>
<g id="a_node27"><a xlink:href="socket__stream_8h.html" target="_top" xlink:title="Socket流式接口封装">
<polygon fill="white" stroke="black" points="1317.5,-291.5 1317.5,-321.5 1435.5,-321.5 1435.5,-291.5 1317.5,-291.5"/>
<text text-anchor="start" x="1325.5" y="-309.5" font-family="Helvetica,sans-Serif" font-size="10.00">sylar/streams/socket</text>
<text text-anchor="middle" x="1376.5" y="-298.5" font-family="Helvetica,sans-Serif" font-size="10.00">_stream.h</text>
</a>
</g>
</g>
<!-- Node25&#45;&gt;Node27 -->
<g id="edge26" class="edge">
<title>Node25&#45;&gt;Node27</title>
<path fill="none" stroke="midnightblue" d="M1300.33,-353.28C1316.18,-343.75 1337.22,-331.11 1353.17,-321.52"/>
<polygon fill="midnightblue" stroke="midnightblue" points="1298.45,-350.32 1291.68,-358.48 1302.06,-356.32 1298.45,-350.32"/>
</g>
<!-- Node31 -->
<g id="node31" class="node">
<title>Node31</title>
<g id="a_node31"><a xlink:href="tcp__server_8h.html" target="_top" xlink:title="TCP服务器的封装">
<polygon fill="white" stroke="black" points="1344,-179.5 1344,-198.5 1447,-198.5 1447,-179.5 1344,-179.5"/>
<text text-anchor="middle" x="1395.5" y="-186.5" font-family="Helvetica,sans-Serif" font-size="10.00">sylar/tcp_server.h</text>
</a>
</g>
</g>
<!-- Node25&#45;&gt;Node31 -->
<g id="edge35" class="edge">
<title>Node25&#45;&gt;Node31</title>
<path fill="none" stroke="midnightblue" d="M1329.5,-356.3C1375.8,-346.25 1437.31,-331.38 1444.5,-322 1475.13,-282.03 1424.73,-220.91 1403.88,-198.56"/>
<polygon fill="midnightblue" stroke="midnightblue" points="1328.62,-352.91 1319.58,-358.43 1330.09,-359.75 1328.62,-352.91"/>
</g>
<!-- Node28 -->
<g id="node28" class="node">
<title>Node28</title>
<g id="a_node28"><a xlink:href="http__session_8h.html" target="_top" xlink:title="HTTPSession封装">
<polygon fill="white" stroke="black" points="1272,-235.5 1272,-254.5 1409,-254.5 1409,-235.5 1272,-235.5"/>
<text text-anchor="middle" x="1340.5" y="-242.5" font-family="Helvetica,sans-Serif" font-size="10.00">sylar/http/http_session.h</text>
</a>
</g>
</g>
<!-- Node27&#45;&gt;Node28 -->
<g id="edge27" class="edge">
<title>Node27&#45;&gt;Node28</title>
<path fill="none" stroke="midnightblue" d="M1362.77,-282.8C1356.81,-272.96 1350.2,-262.03 1345.74,-254.66"/>
<polygon fill="midnightblue" stroke="midnightblue" points="1359.8,-284.66 1367.97,-291.4 1365.79,-281.03 1359.8,-284.66"/>
</g>
<!-- Node28&#45;&gt;Node4 -->
<g id="edge33" class="edge">
<title>Node28&#45;&gt;Node4</title>
<path fill="none" stroke="midnightblue" d="M1403.92,-232.87C1436.85,-223.6 1468.03,-207.2 1456.5,-179 1431.45,-117.74 1350.46,-93.04 1301.71,-83.54"/>
<polygon fill="midnightblue" stroke="midnightblue" points="1402.95,-229.5 1394.16,-235.41 1404.72,-236.28 1402.95,-229.5"/>
</g>
<!-- Node29 -->
<g id="node29" class="node">
<title>Node29</title>
<g id="a_node29"><a xlink:href="http__server_8h.html" target="_top" xlink:title="HTTP服务器封装">
<polygon fill="white" stroke="black" points="1244.5,-123.5 1244.5,-142.5 1374.5,-142.5 1374.5,-123.5 1244.5,-123.5"/>
<text text-anchor="middle" x="1309.5" y="-130.5" font-family="Helvetica,sans-Serif" font-size="10.00">sylar/http/http_server.h</text>
</a>
</g>
</g>
<!-- Node28&#45;&gt;Node29 -->
<g id="edge28" class="edge">
<title>Node28&#45;&gt;Node29</title>
<path fill="none" stroke="midnightblue" d="M1335.34,-225.67C1328.56,-201.62 1316.94,-160.39 1311.92,-142.59"/>
<polygon fill="midnightblue" stroke="midnightblue" points="1331.99,-226.69 1338.07,-235.37 1338.72,-224.79 1331.99,-226.69"/>
</g>
<!-- Node28&#45;&gt;Node30 -->
<g id="edge30" class="edge">
<title>Node28&#45;&gt;Node30</title>
<path fill="none" stroke="midnightblue" d="M1313.95,-230.73C1293.95,-220.73 1267.11,-207.31 1249.81,-198.65"/>
<polygon fill="midnightblue" stroke="midnightblue" points="1312.64,-233.98 1323.15,-235.32 1315.77,-227.72 1312.64,-233.98"/>
</g>
<!-- Node29&#45;&gt;Node4 -->
<g id="edge29" class="edge">
<title>Node29&#45;&gt;Node4</title>
<path fill="none" stroke="midnightblue" d="M1295.39,-115.43C1287.32,-105.97 1277.54,-94.48 1270.95,-86.75"/>
<polygon fill="midnightblue" stroke="midnightblue" points="1292.75,-117.74 1301.9,-123.08 1298.08,-113.2 1292.75,-117.74"/>
</g>
<!-- Node30&#45;&gt;Node4 -->
<g id="edge32" class="edge">
<title>Node30&#45;&gt;Node4</title>
<path fill="none" stroke="midnightblue" d="M1230.89,-169.14C1230.35,-155.93 1230.83,-138.02 1235.5,-123 1239.82,-109.12 1249.47,-95.23 1256.23,-86.63"/>
<polygon fill="midnightblue" stroke="midnightblue" points="1227.41,-169.59 1231.54,-179.35 1234.4,-169.15 1227.41,-169.59"/>
</g>
<!-- Node30&#45;&gt;Node29 -->
<g id="edge31" class="edge">
<title>Node30&#45;&gt;Node29</title>
<path fill="none" stroke="midnightblue" d="M1253.4,-173.34C1267.41,-163.52 1285.38,-150.91 1297.16,-142.65"/>
<polygon fill="midnightblue" stroke="midnightblue" points="1251.05,-170.72 1244.87,-179.32 1255.07,-176.45 1251.05,-170.72"/>
</g>
<!-- Node31&#45;&gt;Node4 -->
<g id="edge37" class="edge">
<title>Node31&#45;&gt;Node4</title>
<path fill="none" stroke="midnightblue" d="M1396.72,-169.19C1396.62,-154.96 1394.2,-135.77 1383.5,-123 1363.21,-98.78 1328.51,-87.58 1301.63,-82.41"/>
<polygon fill="midnightblue" stroke="midnightblue" points="1393.21,-169.21 1396.4,-179.31 1400.21,-169.42 1393.21,-169.21"/>
</g>
<!-- Node31&#45;&gt;Node29 -->
<g id="edge36" class="edge">
<title>Node31&#45;&gt;Node29</title>
<path fill="none" stroke="midnightblue" d="M1373.05,-173.9C1357.28,-164 1336.69,-151.07 1323.28,-142.65"/>
<polygon fill="midnightblue" stroke="midnightblue" points="1371.35,-176.97 1381.68,-179.32 1375.07,-171.04 1371.35,-176.97"/>
</g>
</g>
</svg>
