<?xml version="1.0" encoding="UTF-8" standalone="no"?>
<!DOCTYPE svg PUBLIC "-//W3C//DTD SVG 1.1//EN"
 "http://www.w3.org/Graphics/SVG/1.1/DTD/svg11.dtd">
<!-- Generated by graphviz version 2.43.0 (0)
 -->
<!-- Title: sylar/timer.h Pages: 1 -->
<svg width="691pt" height="140pt"
 viewBox="0.00 0.00 691.00 140.00" xmlns="http://www.w3.org/2000/svg" xmlns:xlink="http://www.w3.org/1999/xlink">
<g id="graph0" class="graph" transform="scale(1 1) rotate(0) translate(4 136)">
<title>sylar/timer.h</title>
<polygon fill="white" stroke="transparent" points="-4,4 -4,-136 687,-136 687,4 -4,4"/>
<!-- Node1 -->
<g id="node1" class="node">
<title>Node1</title>
<g id="a_node1"><a xlink:title="定时器封装">
<polygon fill="#bfbfbf" stroke="black" points="157,-112.5 157,-131.5 235,-131.5 235,-112.5 157,-112.5"/>
<text text-anchor="middle" x="196" y="-119.5" font-family="Helvetica,sans-Serif" font-size="10.00">sylar/timer.h</text>
</a>
</g>
</g>
<!-- Node2 -->
<g id="node2" class="node">
<title>Node2</title>
<g id="a_node2"><a xlink:title=" ">
<polygon fill="white" stroke="#bfbfbf" points="0,-0.5 0,-19.5 58,-19.5 58,-0.5 0,-0.5"/>
<text text-anchor="middle" x="29" y="-7.5" font-family="Helvetica,sans-Serif" font-size="10.00">memory</text>
</a>
</g>
</g>
<!-- Node1&#45;&gt;Node2 -->
<g id="edge1" class="edge">
<title>Node1&#45;&gt;Node2</title>
<path fill="none" stroke="midnightblue" d="M182.9,-112.37C154.24,-93.49 85.76,-48.38 50.61,-25.24"/>
<polygon fill="midnightblue" stroke="midnightblue" points="52.32,-22.17 42.04,-19.59 48.47,-28.02 52.32,-22.17"/>
</g>
<!-- Node3 -->
<g id="node3" class="node">
<title>Node3</title>
<g id="a_node3"><a xlink:title=" ">
<polygon fill="white" stroke="#bfbfbf" points="143.5,-56.5 143.5,-75.5 190.5,-75.5 190.5,-56.5 143.5,-56.5"/>
<text text-anchor="middle" x="167" y="-63.5" font-family="Helvetica,sans-Serif" font-size="10.00">vector</text>
</a>
</g>
</g>
<!-- Node1&#45;&gt;Node3 -->
<g id="edge2" class="edge">
<title>Node1&#45;&gt;Node3</title>
<path fill="none" stroke="midnightblue" d="M191.21,-112.08C187.24,-104.69 181.47,-93.95 176.57,-84.81"/>
<polygon fill="midnightblue" stroke="midnightblue" points="179.51,-82.91 171.7,-75.75 173.35,-86.22 179.51,-82.91"/>
</g>
<!-- Node4 -->
<g id="node4" class="node">
<title>Node4</title>
<g id="a_node4"><a xlink:title=" ">
<polygon fill="white" stroke="#bfbfbf" points="209,-56.5 209,-75.5 241,-75.5 241,-56.5 209,-56.5"/>
<text text-anchor="middle" x="225" y="-63.5" font-family="Helvetica,sans-Serif" font-size="10.00">set</text>
</a>
</g>
</g>
<!-- Node1&#45;&gt;Node4 -->
<g id="edge3" class="edge">
<title>Node1&#45;&gt;Node4</title>
<path fill="none" stroke="midnightblue" d="M200.79,-112.08C204.76,-104.69 210.53,-93.95 215.43,-84.81"/>
<polygon fill="midnightblue" stroke="midnightblue" points="218.65,-86.22 220.3,-75.75 212.49,-82.91 218.65,-86.22"/>
</g>
<!-- Node5 -->
<g id="node5" class="node">
<title>Node5</title>
<g id="a_node5"><a xlink:href="mutex_8h.html" target="_top" xlink:title="信号量，互斥锁，读写锁，范围锁模板，自旋锁，原子锁">
<polygon fill="white" stroke="black" points="273.5,-56.5 273.5,-75.5 330.5,-75.5 330.5,-56.5 273.5,-56.5"/>
<text text-anchor="middle" x="302" y="-63.5" font-family="Helvetica,sans-Serif" font-size="10.00">mutex.h</text>
</a>
</g>
</g>
<!-- Node1&#45;&gt;Node5 -->
<g id="edge4" class="edge">
<title>Node1&#45;&gt;Node5</title>
<path fill="none" stroke="midnightblue" d="M213.03,-112.32C230.03,-103.66 256.38,-90.24 275.99,-80.25"/>
<polygon fill="midnightblue" stroke="midnightblue" points="277.69,-83.31 285.01,-75.65 274.51,-77.08 277.69,-83.31"/>
</g>
<!-- Node5&#45;&gt;Node2 -->
<g id="edge7" class="edge">
<title>Node5&#45;&gt;Node2</title>
<path fill="none" stroke="midnightblue" d="M273.34,-59.93C230.82,-52.31 148.27,-37.18 68.26,-20.2"/>
<polygon fill="midnightblue" stroke="midnightblue" points="68.53,-16.67 58.02,-18.01 67.07,-23.52 68.53,-16.67"/>
</g>
<!-- Node6 -->
<g id="node6" class="node">
<title>Node6</title>
<g id="a_node6"><a xlink:title=" ">
<polygon fill="white" stroke="#bfbfbf" points="76,-0.5 76,-19.5 124,-19.5 124,-0.5 76,-0.5"/>
<text text-anchor="middle" x="100" y="-7.5" font-family="Helvetica,sans-Serif" font-size="10.00">thread</text>
</a>
</g>
</g>
<!-- Node5&#45;&gt;Node6 -->
<g id="edge5" class="edge">
<title>Node5&#45;&gt;Node6</title>
<path fill="none" stroke="midnightblue" d="M273.28,-57.41C241.55,-49.01 188.68,-34.98 134.01,-20.26"/>
<polygon fill="midnightblue" stroke="midnightblue" points="134.71,-16.83 124.15,-17.6 132.89,-23.58 134.71,-16.83"/>
</g>
<!-- Node7 -->
<g id="node7" class="node">
<title>Node7</title>
<g id="a_node7"><a xlink:title=" ">
<polygon fill="white" stroke="#bfbfbf" points="142.5,-0.5 142.5,-19.5 207.5,-19.5 207.5,-0.5 142.5,-0.5"/>
<text text-anchor="middle" x="175" y="-7.5" font-family="Helvetica,sans-Serif" font-size="10.00">functional</text>
</a>
</g>
</g>
<!-- Node5&#45;&gt;Node7 -->
<g id="edge6" class="edge">
<title>Node5&#45;&gt;Node7</title>
<path fill="none" stroke="midnightblue" d="M281.88,-56.44C260.98,-47.56 228.07,-33.56 204.28,-23.45"/>
<polygon fill="midnightblue" stroke="midnightblue" points="205.6,-20.21 195.03,-19.52 202.86,-26.65 205.6,-20.21"/>
</g>
<!-- Node8 -->
<g id="node8" class="node">
<title>Node8</title>
<g id="a_node8"><a xlink:title=" ">
<polygon fill="white" stroke="#bfbfbf" points="225.5,-0.5 225.5,-19.5 288.5,-19.5 288.5,-0.5 225.5,-0.5"/>
<text text-anchor="middle" x="257" y="-7.5" font-family="Helvetica,sans-Serif" font-size="10.00">pthread.h</text>
</a>
</g>
</g>
<!-- Node5&#45;&gt;Node8 -->
<g id="edge8" class="edge">
<title>Node5&#45;&gt;Node8</title>
<path fill="none" stroke="midnightblue" d="M294.57,-56.08C288.15,-48.38 278.69,-37.03 270.88,-27.65"/>
<polygon fill="midnightblue" stroke="midnightblue" points="273.38,-25.19 264.29,-19.75 268.01,-29.67 273.38,-25.19"/>
</g>
<!-- Node9 -->
<g id="node9" class="node">
<title>Node9</title>
<g id="a_node9"><a xlink:title=" ">
<polygon fill="white" stroke="#bfbfbf" points="307,-0.5 307,-19.5 387,-19.5 387,-0.5 307,-0.5"/>
<text text-anchor="middle" x="347" y="-7.5" font-family="Helvetica,sans-Serif" font-size="10.00">semaphore.h</text>
</a>
</g>
</g>
<!-- Node5&#45;&gt;Node9 -->
<g id="edge9" class="edge">
<title>Node5&#45;&gt;Node9</title>
<path fill="none" stroke="midnightblue" d="M309.43,-56.08C315.85,-48.38 325.31,-37.03 333.12,-27.65"/>
<polygon fill="midnightblue" stroke="midnightblue" points="335.99,-29.67 339.71,-19.75 330.62,-25.19 335.99,-29.67"/>
</g>
<!-- Node10 -->
<g id="node10" class="node">
<title>Node10</title>
<g id="a_node10"><a xlink:title=" ">
<polygon fill="white" stroke="#bfbfbf" points="405.5,-0.5 405.5,-19.5 458.5,-19.5 458.5,-0.5 405.5,-0.5"/>
<text text-anchor="middle" x="432" y="-7.5" font-family="Helvetica,sans-Serif" font-size="10.00">stdint.h</text>
</a>
</g>
</g>
<!-- Node5&#45;&gt;Node10 -->
<g id="edge10" class="edge">
<title>Node5&#45;&gt;Node10</title>
<path fill="none" stroke="midnightblue" d="M322.6,-56.44C343.99,-47.56 377.68,-33.56 402.02,-23.45"/>
<polygon fill="midnightblue" stroke="midnightblue" points="403.61,-26.58 411.5,-19.52 400.92,-20.12 403.61,-26.58"/>
</g>
<!-- Node11 -->
<g id="node11" class="node">
<title>Node11</title>
<g id="a_node11"><a xlink:title=" ">
<polygon fill="white" stroke="#bfbfbf" points="477,-0.5 477,-19.5 527,-19.5 527,-0.5 477,-0.5"/>
<text text-anchor="middle" x="502" y="-7.5" font-family="Helvetica,sans-Serif" font-size="10.00">atomic</text>
</a>
</g>
</g>
<!-- Node5&#45;&gt;Node11 -->
<g id="edge11" class="edge">
<title>Node5&#45;&gt;Node11</title>
<path fill="none" stroke="midnightblue" d="M330.66,-57.26C366.65,-47.55 428.37,-30.88 467.08,-20.43"/>
<polygon fill="midnightblue" stroke="midnightblue" points="468.13,-23.77 476.87,-17.78 466.31,-17.01 468.13,-23.77"/>
</g>
<!-- Node12 -->
<g id="node12" class="node">
<title>Node12</title>
<g id="a_node12"><a xlink:title=" ">
<polygon fill="white" stroke="#bfbfbf" points="545,-0.5 545,-19.5 577,-19.5 577,-0.5 545,-0.5"/>
<text text-anchor="middle" x="561" y="-7.5" font-family="Helvetica,sans-Serif" font-size="10.00">list</text>
</a>
</g>
</g>
<!-- Node5&#45;&gt;Node12 -->
<g id="edge12" class="edge">
<title>Node5&#45;&gt;Node12</title>
<path fill="none" stroke="midnightblue" d="M330.79,-60.94C373.45,-54.61 456.05,-41.14 534.89,-19.94"/>
<polygon fill="midnightblue" stroke="midnightblue" points="536.26,-23.2 544.98,-17.18 534.41,-16.45 536.26,-23.2"/>
</g>
<!-- Node13 -->
<g id="node13" class="node">
<title>Node13</title>
<g id="a_node13"><a xlink:href="noncopyable_8h.html" target="_top" xlink:title="不可拷贝对象封装">
<polygon fill="white" stroke="black" points="595,-0.5 595,-19.5 683,-19.5 683,-0.5 595,-0.5"/>
<text text-anchor="middle" x="639" y="-7.5" font-family="Helvetica,sans-Serif" font-size="10.00">noncopyable.h</text>
</a>
</g>
</g>
<!-- Node5&#45;&gt;Node13 -->
<g id="edge13" class="edge">
<title>Node5&#45;&gt;Node13</title>
<path fill="none" stroke="midnightblue" d="M330.64,-60.57C380.23,-52.87 485.57,-36.43 584.86,-20.17"/>
<polygon fill="midnightblue" stroke="midnightblue" points="585.46,-23.62 594.76,-18.55 584.33,-16.71 585.46,-23.62"/>
</g>
</g>
</svg>
