<?xml version="1.0" encoding="UTF-8" standalone="no"?>
<!DOCTYPE svg PUBLIC "-//W3C//DTD SVG 1.1//EN"
 "http://www.w3.org/Graphics/SVG/1.1/DTD/svg11.dtd">
<!-- Generated by graphviz version 2.43.0 (0)
 -->
<!-- Title: sylar/timer.h Pages: 1 -->
<svg width="2399pt" height="442pt"
 viewBox="0.00 0.00 2398.50 442.00" xmlns="http://www.w3.org/2000/svg" xmlns:xlink="http://www.w3.org/1999/xlink">
<g id="graph0" class="graph" transform="scale(1 1) rotate(0) translate(4 438)">
<title>sylar/timer.h</title>
<polygon fill="white" stroke="transparent" points="-4,4 -4,-438 2394.5,-438 2394.5,4 -4,4"/>
<!-- Node1 -->
<g id="node1" class="node">
<title>Node1</title>
<g id="a_node1"><a xlink:title="定时器封装">
<polygon fill="#bfbfbf" stroke="black" points="1158.5,-414.5 1158.5,-433.5 1236.5,-433.5 1236.5,-414.5 1158.5,-414.5"/>
<text text-anchor="middle" x="1197.5" y="-421.5" font-family="Helvetica,sans-Serif" font-size="10.00">sylar/timer.h</text>
</a>
</g>
</g>
<!-- Node2 -->
<g id="node2" class="node">
<title>Node2</title>
<g id="a_node2"><a xlink:href="iomanager_8h.html" target="_top" xlink:title="IO协程调度器">
<polygon fill="white" stroke="black" points="1145.5,-358.5 1145.5,-377.5 1249.5,-377.5 1249.5,-358.5 1145.5,-358.5"/>
<text text-anchor="middle" x="1197.5" y="-365.5" font-family="Helvetica,sans-Serif" font-size="10.00">sylar/iomanager.h</text>
</a>
</g>
</g>
<!-- Node1&#45;&gt;Node2 -->
<g id="edge1" class="edge">
<title>Node1&#45;&gt;Node2</title>
<path fill="none" stroke="midnightblue" d="M1197.5,-403.8C1197.5,-394.91 1197.5,-384.78 1197.5,-377.75"/>
<polygon fill="midnightblue" stroke="midnightblue" points="1194,-404.08 1197.5,-414.08 1201,-404.08 1194,-404.08"/>
</g>
<!-- Node3 -->
<g id="node3" class="node">
<title>Node3</title>
<g id="a_node3"><a xlink:href="iomanager_8cc.html" target="_top" xlink:title="IO协程调度器实现">
<polygon fill="white" stroke="black" points="968,-297 968,-316 1077,-316 1077,-297 968,-297"/>
<text text-anchor="middle" x="1022.5" y="-304" font-family="Helvetica,sans-Serif" font-size="10.00">sylar/iomanager.cc</text>
</a>
</g>
</g>
<!-- Node2&#45;&gt;Node3 -->
<g id="edge2" class="edge">
<title>Node2&#45;&gt;Node3</title>
<path fill="none" stroke="midnightblue" d="M1162.89,-355.23C1128.87,-343.67 1077.78,-326.3 1047.53,-316.01"/>
<polygon fill="midnightblue" stroke="midnightblue" points="1161.83,-358.57 1172.43,-358.48 1164.09,-351.94 1161.83,-358.57"/>
</g>
<!-- Node4 -->
<g id="node4" class="node">
<title>Node4</title>
<g id="a_node4"><a xlink:href="socket__stream_8h.html" target="_top" xlink:title="Socket流式接口封装">
<polygon fill="white" stroke="black" points="1095.5,-291.5 1095.5,-321.5 1213.5,-321.5 1213.5,-291.5 1095.5,-291.5"/>
<text text-anchor="start" x="1103.5" y="-309.5" font-family="Helvetica,sans-Serif" font-size="10.00">sylar/streams/socket</text>
<text text-anchor="middle" x="1154.5" y="-298.5" font-family="Helvetica,sans-Serif" font-size="10.00">_stream.h</text>
</a>
</g>
</g>
<!-- Node2&#45;&gt;Node4 -->
<g id="edge3" class="edge">
<title>Node2&#45;&gt;Node4</title>
<path fill="none" stroke="midnightblue" d="M1185.39,-350.25C1178.84,-341.19 1170.85,-330.12 1164.63,-321.52"/>
<polygon fill="midnightblue" stroke="midnightblue" points="1182.64,-352.42 1191.34,-358.48 1188.32,-348.32 1182.64,-352.42"/>
</g>
<!-- Node7 -->
<g id="node7" class="node">
<title>Node7</title>
<g id="a_node7"><a xlink:href="sylar_8h_source.html" target="_top" xlink:title=" ">
<polygon fill="white" stroke="black" points="1123.5,-67.5 1123.5,-86.5 1199.5,-86.5 1199.5,-67.5 1123.5,-67.5"/>
<text text-anchor="middle" x="1161.5" y="-74.5" font-family="Helvetica,sans-Serif" font-size="10.00">sylar/sylar.h</text>
</a>
</g>
</g>
<!-- Node2&#45;&gt;Node7 -->
<g id="edge29" class="edge">
<title>Node2&#45;&gt;Node7</title>
<path fill="none" stroke="midnightblue" d="M1227.26,-353.95C1263.94,-335.6 1321.5,-298.46 1321.5,-246 1321.5,-246 1321.5,-246 1321.5,-188 1321.5,-129.18 1247.16,-99.44 1199.82,-86.46"/>
<polygon fill="midnightblue" stroke="midnightblue" points="1225.47,-350.92 1217.98,-358.42 1228.5,-357.23 1225.47,-350.92"/>
</g>
<!-- Node27 -->
<g id="node27" class="node">
<title>Node27</title>
<g id="a_node27"><a xlink:href="tcp__server_8h.html" target="_top" xlink:title="TCP服务器的封装">
<polygon fill="white" stroke="black" points="1190,-179.5 1190,-198.5 1293,-198.5 1293,-179.5 1190,-179.5"/>
<text text-anchor="middle" x="1241.5" y="-186.5" font-family="Helvetica,sans-Serif" font-size="10.00">sylar/tcp_server.h</text>
</a>
</g>
</g>
<!-- Node2&#45;&gt;Node27 -->
<g id="edge30" class="edge">
<title>Node2&#45;&gt;Node27</title>
<path fill="none" stroke="midnightblue" d="M1208.91,-349.95C1213.84,-341.81 1219.22,-331.74 1222.5,-322 1237.58,-277.24 1240.69,-220 1241.33,-198.59"/>
<polygon fill="midnightblue" stroke="midnightblue" points="1205.9,-348.16 1203.48,-358.48 1211.8,-351.92 1205.9,-348.16"/>
</g>
<!-- Node5 -->
<g id="node5" class="node">
<title>Node5</title>
<g id="a_node5"><a xlink:href="http__session_8h.html" target="_top" xlink:title="HTTPSession封装">
<polygon fill="white" stroke="black" points="1043,-235.5 1043,-254.5 1180,-254.5 1180,-235.5 1043,-235.5"/>
<text text-anchor="middle" x="1111.5" y="-242.5" font-family="Helvetica,sans-Serif" font-size="10.00">sylar/http/http_session.h</text>
</a>
</g>
</g>
<!-- Node4&#45;&gt;Node5 -->
<g id="edge4" class="edge">
<title>Node4&#45;&gt;Node5</title>
<path fill="none" stroke="midnightblue" d="M1138.31,-283.1C1131.15,-273.19 1123.14,-262.11 1117.76,-254.66"/>
<polygon fill="midnightblue" stroke="midnightblue" points="1135.62,-285.34 1144.31,-291.4 1141.29,-281.24 1135.62,-285.34"/>
</g>
<!-- Node6 -->
<g id="node6" class="node">
<title>Node6</title>
<g id="a_node6"><a xlink:href="http__server_8h.html" target="_top" xlink:title="HTTP服务器封装">
<polygon fill="white" stroke="black" points="1096.5,-123.5 1096.5,-142.5 1226.5,-142.5 1226.5,-123.5 1096.5,-123.5"/>
<text text-anchor="middle" x="1161.5" y="-130.5" font-family="Helvetica,sans-Serif" font-size="10.00">sylar/http/http_server.h</text>
</a>
</g>
</g>
<!-- Node5&#45;&gt;Node6 -->
<g id="edge5" class="edge">
<title>Node5&#45;&gt;Node6</title>
<path fill="none" stroke="midnightblue" d="M1124.37,-227.23C1130.2,-219.04 1136.82,-208.86 1141.5,-199 1150.61,-179.8 1156.8,-155.47 1159.67,-142.71"/>
<polygon fill="midnightblue" stroke="midnightblue" points="1121.4,-225.36 1118.27,-235.49 1127.03,-229.52 1121.4,-225.36"/>
</g>
<!-- Node5&#45;&gt;Node7 -->
<g id="edge28" class="edge">
<title>Node5&#45;&gt;Node7</title>
<path fill="none" stroke="midnightblue" d="M1064.05,-232.49C1033.99,-222.46 1002.8,-205.33 1014.5,-179 1036.75,-128.91 1098.51,-99.81 1134.5,-86.61"/>
<polygon fill="midnightblue" stroke="midnightblue" points="1063.12,-235.86 1073.71,-235.5 1065.2,-229.18 1063.12,-235.86"/>
</g>
<!-- Node26 -->
<g id="node26" class="node">
<title>Node26</title>
<g id="a_node26"><a xlink:href="servlet_8h.html" target="_top" xlink:title="Servlet封装">
<polygon fill="white" stroke="black" points="1024,-179.5 1024,-198.5 1133,-198.5 1133,-179.5 1024,-179.5"/>
<text text-anchor="middle" x="1078.5" y="-186.5" font-family="Helvetica,sans-Serif" font-size="10.00">sylar/http/servlet.h</text>
</a>
</g>
</g>
<!-- Node5&#45;&gt;Node26 -->
<g id="edge25" class="edge">
<title>Node5&#45;&gt;Node26</title>
<path fill="none" stroke="midnightblue" d="M1100.67,-226.27C1095.03,-217.05 1088.38,-206.17 1083.85,-198.75"/>
<polygon fill="midnightblue" stroke="midnightblue" points="1097.85,-228.38 1106.05,-235.08 1103.82,-224.73 1097.85,-228.38"/>
</g>
<!-- Node6&#45;&gt;Node7 -->
<g id="edge6" class="edge">
<title>Node6&#45;&gt;Node7</title>
<path fill="none" stroke="midnightblue" d="M1161.5,-112.8C1161.5,-103.91 1161.5,-93.78 1161.5,-86.75"/>
<polygon fill="midnightblue" stroke="midnightblue" points="1158,-113.08 1161.5,-123.08 1165,-113.08 1158,-113.08"/>
</g>
<!-- Node8 -->
<g id="node8" class="node">
<title>Node8</title>
<g id="a_node8"><a xlink:href="test__address_8cc.html" target="_top" xlink:title="网络地址类测试">
<polygon fill="white" stroke="black" points="0,-6 0,-25 119,-25 119,-6 0,-6"/>
<text text-anchor="middle" x="59.5" y="-13" font-family="Helvetica,sans-Serif" font-size="10.00">tests/test_address.cc</text>
</a>
</g>
</g>
<!-- Node7&#45;&gt;Node8 -->
<g id="edge7" class="edge">
<title>Node7&#45;&gt;Node8</title>
<path fill="none" stroke="midnightblue" d="M1113.43,-74.97C936.55,-71.02 322.03,-55.8 127.5,-31 116.6,-29.61 104.86,-27.38 94.25,-25.07"/>
<polygon fill="midnightblue" stroke="midnightblue" points="1113.4,-78.47 1123.48,-75.19 1113.56,-71.47 1113.4,-78.47"/>
</g>
<!-- Node9 -->
<g id="node9" class="node">
<title>Node9</title>
<g id="a_node9"><a xlink:href="test__bytearray_8cc.html" target="_top" xlink:title="Bytearray类测试">
<polygon fill="white" stroke="black" points="137,-6 137,-25 264,-25 264,-6 137,-6"/>
<text text-anchor="middle" x="200.5" y="-13" font-family="Helvetica,sans-Serif" font-size="10.00">tests/test_bytearray.cc</text>
</a>
</g>
</g>
<!-- Node7&#45;&gt;Node9 -->
<g id="edge8" class="edge">
<title>Node7&#45;&gt;Node9</title>
<path fill="none" stroke="midnightblue" d="M1112.91,-76.01C978.73,-75.52 591.94,-70.48 273.5,-31 261.83,-29.55 249.23,-27.3 237.84,-25"/>
<polygon fill="midnightblue" stroke="midnightblue" points="1113.24,-79.51 1123.25,-76.04 1113.26,-72.51 1113.24,-79.51"/>
</g>
<!-- Node10 -->
<g id="node10" class="node">
<title>Node10</title>
<g id="a_node10"><a xlink:href="test__config_8cc.html" target="_top" xlink:title="配置模块测试">
<polygon fill="white" stroke="black" points="282.5,-6 282.5,-25 392.5,-25 392.5,-6 282.5,-6"/>
<text text-anchor="middle" x="337.5" y="-13" font-family="Helvetica,sans-Serif" font-size="10.00">tests/test_config.cc</text>
</a>
</g>
</g>
<!-- Node7&#45;&gt;Node10 -->
<g id="edge9" class="edge">
<title>Node7&#45;&gt;Node10</title>
<path fill="none" stroke="midnightblue" d="M1113.3,-75.87C992.73,-74.97 668.53,-68.9 401.5,-31 391.35,-29.56 380.42,-27.34 370.53,-25.07"/>
<polygon fill="midnightblue" stroke="midnightblue" points="1113.3,-79.37 1123.32,-75.94 1113.35,-72.37 1113.3,-79.37"/>
</g>
<!-- Node11 -->
<g id="node11" class="node">
<title>Node11</title>
<g id="a_node11"><a xlink:href="test__env_8cc.html" target="_top" xlink:title="环境变量测试">
<polygon fill="white" stroke="black" points="410.5,-6 410.5,-25 508.5,-25 508.5,-6 410.5,-6"/>
<text text-anchor="middle" x="459.5" y="-13" font-family="Helvetica,sans-Serif" font-size="10.00">tests/test_env.cc</text>
</a>
</g>
</g>
<!-- Node7&#45;&gt;Node11 -->
<g id="edge10" class="edge">
<title>Node7&#45;&gt;Node11</title>
<path fill="none" stroke="midnightblue" d="M1113.29,-75.51C1005.71,-73.79 738.18,-66.02 517.5,-31 508.27,-29.54 498.37,-27.31 489.4,-25.04"/>
<polygon fill="midnightblue" stroke="midnightblue" points="1113.44,-79.01 1123.49,-75.66 1113.55,-72.01 1113.44,-79.01"/>
</g>
<!-- Node12 -->
<g id="node12" class="node">
<title>Node12</title>
<g id="a_node12"><a xlink:href="test__fiber_8cc.html" target="_top" xlink:title="协程测试">
<polygon fill="white" stroke="black" points="526.5,-6 526.5,-25 628.5,-25 628.5,-6 526.5,-6"/>
<text text-anchor="middle" x="577.5" y="-13" font-family="Helvetica,sans-Serif" font-size="10.00">tests/test_fiber.cc</text>
</a>
</g>
</g>
<!-- Node7&#45;&gt;Node12 -->
<g id="edge11" class="edge">
<title>Node7&#45;&gt;Node12</title>
<path fill="none" stroke="midnightblue" d="M1113.26,-74.3C1020.54,-70.49 811.27,-59.29 637.5,-31 628.09,-29.47 617.97,-27.25 608.77,-25"/>
<polygon fill="midnightblue" stroke="midnightblue" points="1113.32,-77.8 1123.45,-74.71 1113.6,-70.81 1113.32,-77.8"/>
</g>
<!-- Node13 -->
<g id="node13" class="node">
<title>Node13</title>
<g id="a_node13"><a xlink:href="test__fiber2_8cc.html" target="_top" xlink:title="协程测试，用于演示非对称协程">
<polygon fill="white" stroke="black" points="647,-6 647,-25 756,-25 756,-6 647,-6"/>
<text text-anchor="middle" x="701.5" y="-13" font-family="Helvetica,sans-Serif" font-size="10.00">tests/test_fiber2.cc</text>
</a>
</g>
</g>
<!-- Node7&#45;&gt;Node13 -->
<g id="edge12" class="edge">
<title>Node7&#45;&gt;Node13</title>
<path fill="none" stroke="midnightblue" d="M1113.17,-72.3C1038.17,-66.16 889.38,-52.38 764.5,-31 754.99,-29.37 744.75,-27.2 735.36,-25.04"/>
<polygon fill="midnightblue" stroke="midnightblue" points="1113,-75.8 1123.25,-73.12 1113.57,-68.82 1113,-75.8"/>
</g>
<!-- Node14 -->
<g id="node14" class="node">
<title>Node14</title>
<g id="a_node14"><a xlink:href="test__hook_8cc.html" target="_top" xlink:title="hook模块测试">
<polygon fill="white" stroke="black" points="774,-6 774,-25 879,-25 879,-6 774,-6"/>
<text text-anchor="middle" x="826.5" y="-13" font-family="Helvetica,sans-Serif" font-size="10.00">tests/test_hook.cc</text>
</a>
</g>
</g>
<!-- Node7&#45;&gt;Node14 -->
<g id="edge13" class="edge">
<title>Node7&#45;&gt;Node14</title>
<path fill="none" stroke="midnightblue" d="M1113.09,-69.11C1058.19,-61.04 966.09,-46.77 887.5,-31 878.75,-29.24 869.34,-27.12 860.6,-25.06"/>
<polygon fill="midnightblue" stroke="midnightblue" points="1112.82,-72.6 1123.23,-70.59 1113.84,-65.68 1112.82,-72.6"/>
</g>
<!-- Node15 -->
<g id="node15" class="node">
<title>Node15</title>
<g id="a_node15"><a xlink:href="test__http_8cc.html" target="_top" xlink:title="HTTP请求类与响应类测试">
<polygon fill="white" stroke="black" points="897,-6 897,-25 998,-25 998,-6 897,-6"/>
<text text-anchor="middle" x="947.5" y="-13" font-family="Helvetica,sans-Serif" font-size="10.00">tests/test_http.cc</text>
</a>
</g>
</g>
<!-- Node7&#45;&gt;Node15 -->
<g id="edge14" class="edge">
<title>Node7&#45;&gt;Node15</title>
<path fill="none" stroke="midnightblue" d="M1121.04,-64.75C1079.46,-53.19 1015.66,-35.45 978.1,-25.01"/>
<polygon fill="midnightblue" stroke="midnightblue" points="1120.27,-68.17 1130.84,-67.48 1122.14,-61.42 1120.27,-68.17"/>
</g>
<!-- Node16 -->
<g id="node16" class="node">
<title>Node16</title>
<g id="a_node16"><a xlink:href="test__http__parser_8cc.html" target="_top" xlink:title="测试HTTP协议解析">
<polygon fill="white" stroke="black" points="1016.5,-6 1016.5,-25 1152.5,-25 1152.5,-6 1016.5,-6"/>
<text text-anchor="middle" x="1084.5" y="-13" font-family="Helvetica,sans-Serif" font-size="10.00">tests/test_http_parser.cc</text>
</a>
</g>
</g>
<!-- Node7&#45;&gt;Node16 -->
<g id="edge15" class="edge">
<title>Node7&#45;&gt;Node16</title>
<path fill="none" stroke="midnightblue" d="M1142.47,-61.29C1127.7,-49.88 1107.74,-34.46 1095.51,-25.01"/>
<polygon fill="midnightblue" stroke="midnightblue" points="1140.41,-64.13 1150.47,-67.48 1144.69,-58.59 1140.41,-64.13"/>
</g>
<!-- Node17 -->
<g id="node17" class="node">
<title>Node17</title>
<g id="a_node17"><a xlink:href="test__http__server_8cc.html" target="_top" xlink:title="HttpServer测试">
<polygon fill="white" stroke="black" points="1170.5,-6 1170.5,-25 1306.5,-25 1306.5,-6 1170.5,-6"/>
<text text-anchor="middle" x="1238.5" y="-13" font-family="Helvetica,sans-Serif" font-size="10.00">tests/test_http_server.cc</text>
</a>
</g>
</g>
<!-- Node7&#45;&gt;Node17 -->
<g id="edge16" class="edge">
<title>Node7&#45;&gt;Node17</title>
<path fill="none" stroke="midnightblue" d="M1180.53,-61.29C1195.3,-49.88 1215.26,-34.46 1227.49,-25.01"/>
<polygon fill="midnightblue" stroke="midnightblue" points="1178.31,-58.59 1172.53,-67.48 1182.59,-64.13 1178.31,-58.59"/>
</g>
<!-- Node18 -->
<g id="node18" class="node">
<title>Node18</title>
<g id="a_node18"><a xlink:href="test__iomanager_8cc.html" target="_top" xlink:title="IO协程调度器测试">
<polygon fill="white" stroke="black" points="1325,-6 1325,-25 1458,-25 1458,-6 1325,-6"/>
<text text-anchor="middle" x="1391.5" y="-13" font-family="Helvetica,sans-Serif" font-size="10.00">tests/test_iomanager.cc</text>
</a>
</g>
</g>
<!-- Node7&#45;&gt;Node18 -->
<g id="edge17" class="edge">
<title>Node7&#45;&gt;Node18</title>
<path fill="none" stroke="midnightblue" d="M1204.14,-64.97C1248.8,-53.41 1317.99,-35.52 1358.61,-25.01"/>
<polygon fill="midnightblue" stroke="midnightblue" points="1203.26,-61.58 1194.45,-67.48 1205.01,-68.36 1203.26,-61.58"/>
</g>
<!-- Node19 -->
<g id="node19" class="node">
<title>Node19</title>
<g id="a_node19"><a xlink:href="test__log_8cpp.html" target="_top" xlink:title="日志类测试">
<polygon fill="white" stroke="black" points="1476,-6 1476,-25 1579,-25 1579,-6 1476,-6"/>
<text text-anchor="middle" x="1527.5" y="-13" font-family="Helvetica,sans-Serif" font-size="10.00">tests/test_log.cpp</text>
</a>
</g>
</g>
<!-- Node7&#45;&gt;Node19 -->
<g id="edge18" class="edge">
<title>Node7&#45;&gt;Node19</title>
<path fill="none" stroke="midnightblue" d="M1209.88,-70.27C1270.4,-62.78 1377.06,-48.54 1467.5,-31 1476.34,-29.29 1485.83,-27.14 1494.61,-25.02"/>
<polygon fill="midnightblue" stroke="midnightblue" points="1209.35,-66.81 1199.85,-71.5 1210.21,-73.76 1209.35,-66.81"/>
</g>
<!-- Node20 -->
<g id="node20" class="node">
<title>Node20</title>
<g id="a_node20"><a xlink:href="test__scheduler_8cc.html" target="_top" xlink:title="协程调度器测试">
<polygon fill="white" stroke="black" points="1597.5,-6 1597.5,-25 1725.5,-25 1725.5,-6 1597.5,-6"/>
<text text-anchor="middle" x="1661.5" y="-13" font-family="Helvetica,sans-Serif" font-size="10.00">tests/test_scheduler.cc</text>
</a>
</g>
</g>
<!-- Node7&#45;&gt;Node20 -->
<g id="edge19" class="edge">
<title>Node7&#45;&gt;Node20</title>
<path fill="none" stroke="midnightblue" d="M1209.81,-72.35C1289.13,-66.04 1451.84,-51.73 1588.5,-31 1599.36,-29.35 1611.05,-27.2 1621.83,-25.06"/>
<polygon fill="midnightblue" stroke="midnightblue" points="1209.33,-68.88 1199.64,-73.15 1209.88,-75.86 1209.33,-68.88"/>
</g>
<!-- Node21 -->
<g id="node21" class="node">
<title>Node21</title>
<g id="a_node21"><a xlink:href="test__socket__tcp__client_8cc.html" target="_top" xlink:title="测试Socket类，tcp客户端">
<polygon fill="white" stroke="black" points="1744,-0.5 1744,-30.5 1863,-30.5 1863,-0.5 1744,-0.5"/>
<text text-anchor="start" x="1752" y="-18.5" font-family="Helvetica,sans-Serif" font-size="10.00">tests/test_socket_tcp</text>
<text text-anchor="middle" x="1803.5" y="-7.5" font-family="Helvetica,sans-Serif" font-size="10.00">_client.cc</text>
</a>
</g>
</g>
<!-- Node7&#45;&gt;Node21 -->
<g id="edge20" class="edge">
<title>Node7&#45;&gt;Node21</title>
<path fill="none" stroke="midnightblue" d="M1209.84,-74.31C1308.77,-70.38 1541.28,-58.77 1734.5,-31 1737.53,-30.56 1740.62,-30.08 1743.74,-29.55"/>
<polygon fill="midnightblue" stroke="midnightblue" points="1209.43,-70.82 1199.57,-74.7 1209.7,-77.81 1209.43,-70.82"/>
</g>
<!-- Node22 -->
<g id="node22" class="node">
<title>Node22</title>
<g id="a_node22"><a xlink:href="test__tcp__server_8cc.html" target="_top" xlink:title="TcpServer类测试">
<polygon fill="white" stroke="black" points="1881,-6 1881,-25 2012,-25 2012,-6 1881,-6"/>
<text text-anchor="middle" x="1946.5" y="-13" font-family="Helvetica,sans-Serif" font-size="10.00">tests/test_tcp_server.cc</text>
</a>
</g>
</g>
<!-- Node7&#45;&gt;Node22 -->
<g id="edge21" class="edge">
<title>Node7&#45;&gt;Node22</title>
<path fill="none" stroke="midnightblue" d="M1210.08,-75.1C1325.44,-72.5 1624.78,-62.97 1872.5,-31 1884.06,-29.51 1896.52,-27.3 1907.87,-25.06"/>
<polygon fill="midnightblue" stroke="midnightblue" points="1209.74,-71.61 1199.82,-75.33 1209.89,-78.61 1209.74,-71.61"/>
</g>
<!-- Node23 -->
<g id="node23" class="node">
<title>Node23</title>
<g id="a_node23"><a xlink:href="test__thread_8cc.html" target="_top" xlink:title="线程模块测试">
<polygon fill="white" stroke="black" points="2030,-6 2030,-25 2143,-25 2143,-6 2030,-6"/>
<text text-anchor="middle" x="2086.5" y="-13" font-family="Helvetica,sans-Serif" font-size="10.00">tests/test_thread.cc</text>
</a>
</g>
</g>
<!-- Node7&#45;&gt;Node23 -->
<g id="edge22" class="edge">
<title>Node7&#45;&gt;Node23</title>
<path fill="none" stroke="midnightblue" d="M1209.99,-76.29C1341.32,-76.48 1714.66,-72.95 2021.5,-31 2031.92,-29.57 2043.15,-27.33 2053.29,-25.03"/>
<polygon fill="midnightblue" stroke="midnightblue" points="1209.87,-72.79 1199.86,-76.27 1209.85,-79.79 1209.87,-72.79"/>
</g>
<!-- Node24 -->
<g id="node24" class="node">
<title>Node24</title>
<g id="a_node24"><a xlink:href="test__timer_8cc.html" target="_top" xlink:title="IO协程测试器定时器测试">
<polygon fill="white" stroke="black" points="2161,-6 2161,-25 2268,-25 2268,-6 2161,-6"/>
<text text-anchor="middle" x="2214.5" y="-13" font-family="Helvetica,sans-Serif" font-size="10.00">tests/test_timer.cc</text>
</a>
</g>
</g>
<!-- Node7&#45;&gt;Node24 -->
<g id="edge23" class="edge">
<title>Node7&#45;&gt;Node24</title>
<path fill="none" stroke="midnightblue" d="M1209.57,-74.99C1381.72,-71.2 1967.03,-56.68 2152.5,-31 2162.57,-29.61 2173.41,-27.34 2183.17,-25.01"/>
<polygon fill="midnightblue" stroke="midnightblue" points="1209.47,-71.49 1199.54,-75.21 1209.62,-78.49 1209.47,-71.49"/>
</g>
<!-- Node25 -->
<g id="node25" class="node">
<title>Node25</title>
<g id="a_node25"><a xlink:href="test__util_8cpp.html" target="_top" xlink:title="util与macro测试">
<polygon fill="white" stroke="black" points="2286.5,-6 2286.5,-25 2390.5,-25 2390.5,-6 2286.5,-6"/>
<text text-anchor="middle" x="2338.5" y="-13" font-family="Helvetica,sans-Serif" font-size="10.00">tests/test_util.cpp</text>
</a>
</g>
</g>
<!-- Node7&#45;&gt;Node25 -->
<g id="edge24" class="edge">
<title>Node7&#45;&gt;Node25</title>
<path fill="none" stroke="midnightblue" d="M1209.67,-75.3C1395.58,-72.39 2066.46,-60.06 2277.5,-31 2287.42,-29.63 2298.09,-27.38 2307.69,-25.05"/>
<polygon fill="midnightblue" stroke="midnightblue" points="1209.6,-71.8 1199.65,-75.45 1209.71,-78.8 1209.6,-71.8"/>
</g>
<!-- Node26&#45;&gt;Node6 -->
<g id="edge26" class="edge">
<title>Node26&#45;&gt;Node6</title>
<path fill="none" stroke="midnightblue" d="M1100.6,-173.62C1115.76,-163.76 1135.38,-150.99 1148.2,-142.65"/>
<polygon fill="midnightblue" stroke="midnightblue" points="1098.31,-170.94 1091.84,-179.32 1102.13,-176.8 1098.31,-170.94"/>
</g>
<!-- Node26&#45;&gt;Node7 -->
<g id="edge27" class="edge">
<title>Node26&#45;&gt;Node7</title>
<path fill="none" stroke="midnightblue" d="M1076.98,-168.91C1076.82,-155.09 1078.61,-136.54 1087.5,-123 1099.05,-105.4 1120.1,-93.6 1136.8,-86.51"/>
<polygon fill="midnightblue" stroke="midnightblue" points="1073.5,-169.37 1077.47,-179.19 1080.49,-169.04 1073.5,-169.37"/>
</g>
<!-- Node27&#45;&gt;Node6 -->
<g id="edge31" class="edge">
<title>Node27&#45;&gt;Node6</title>
<path fill="none" stroke="midnightblue" d="M1220.2,-173.62C1205.58,-163.76 1186.67,-150.99 1174.32,-142.65"/>
<polygon fill="midnightblue" stroke="midnightblue" points="1218.4,-176.63 1228.65,-179.32 1222.32,-170.83 1218.4,-176.63"/>
</g>
<!-- Node27&#45;&gt;Node7 -->
<g id="edge32" class="edge">
<title>Node27&#45;&gt;Node7</title>
<path fill="none" stroke="midnightblue" d="M1244.06,-168.99C1244.94,-155.2 1244.04,-136.67 1235.5,-123 1224.51,-105.4 1203.86,-93.7 1187.17,-86.65"/>
<polygon fill="midnightblue" stroke="midnightblue" points="1240.55,-168.93 1243.02,-179.23 1247.51,-169.63 1240.55,-168.93"/>
</g>
</g>
</svg>
