<?xml version="1.0" encoding="UTF-8" standalone="no"?>
<!DOCTYPE svg PUBLIC "-//W3C//DTD SVG 1.1//EN"
 "http://www.w3.org/Graphics/SVG/1.1/DTD/svg11.dtd">
<!-- Generated by graphviz version 2.43.0 (0)
 -->
<!-- Title: sylar::BacktraceToString Pages: 1 -->
<svg width="273pt" height="46pt"
 viewBox="0.00 0.00 273.00 46.00" xmlns="http://www.w3.org/2000/svg" xmlns:xlink="http://www.w3.org/1999/xlink">
<g id="graph0" class="graph" transform="scale(1 1) rotate(0) translate(4 42)">
<title>sylar::BacktraceToString</title>
<polygon fill="white" stroke="transparent" points="-4,4 -4,-42 269,-42 269,4 -4,4"/>
<!-- Node1 -->
<g id="node1" class="node">
<title>Node1</title>
<g id="a_node1"><a xlink:title="获取当前栈信息的字符串">
<polygon fill="#bfbfbf" stroke="black" points="0,-0.5 0,-19.5 134,-19.5 134,-0.5 0,-0.5"/>
<text text-anchor="middle" x="67" y="-7.5" font-family="Helvetica,sans-Serif" font-size="10.00">sylar::BacktraceToString</text>
</a>
</g>
</g>
<!-- Node1&#45;&gt;Node1 -->
<g id="edge3" class="edge">
<title>Node1&#45;&gt;Node1</title>
<path fill="none" stroke="midnightblue" d="M43.88,-19.76C32.63,-28.57 40.34,-38 67,-38 84.5,-38 93.83,-33.94 95,-28.65"/>
<polygon fill="midnightblue" stroke="midnightblue" points="98,-26.84 90.12,-19.76 91.86,-30.21 98,-26.84"/>
</g>
<!-- Node2 -->
<g id="node2" class="node">
<title>Node2</title>
<g id="a_node2"><a xlink:href="util_8cpp.html#a979537064cb924a4471df38add5686cb" target="_top" xlink:title="获取当前的调用栈">
<polygon fill="white" stroke="black" points="170,-0.5 170,-19.5 265,-19.5 265,-0.5 170,-0.5"/>
<text text-anchor="middle" x="217.5" y="-7.5" font-family="Helvetica,sans-Serif" font-size="10.00">sylar::Backtrace</text>
</a>
</g>
</g>
<!-- Node1&#45;&gt;Node2 -->
<g id="edge1" class="edge">
<title>Node1&#45;&gt;Node2</title>
<path fill="none" stroke="midnightblue" d="M134.43,-10C142.79,-10 151.29,-10 159.49,-10"/>
<polygon fill="midnightblue" stroke="midnightblue" points="159.68,-13.5 169.68,-10 159.68,-6.5 159.68,-13.5"/>
</g>
<!-- Node2&#45;&gt;Node2 -->
<g id="edge2" class="edge">
<title>Node2&#45;&gt;Node2</title>
<path fill="none" stroke="midnightblue" d="M194.38,-19.76C183.13,-28.57 190.84,-38 217.5,-38 235,-38 244.33,-33.94 245.5,-28.65"/>
<polygon fill="midnightblue" stroke="midnightblue" points="248.5,-26.84 240.62,-19.76 242.36,-30.21 248.5,-26.84"/>
</g>
</g>
</svg>
