<?xml version="1.0" encoding="UTF-8" standalone="no"?>
<!DOCTYPE svg PUBLIC "-//W3C//DTD SVG 1.1//EN"
 "http://www.w3.org/Graphics/SVG/1.1/DTD/svg11.dtd">
<!-- Generated by graphviz version 2.43.0 (0)
 -->
<!-- Title: sylar/util.h Pages: 1 -->
<svg width="2399pt" height="554pt"
 viewBox="0.00 0.00 2398.50 554.00" xmlns="http://www.w3.org/2000/svg" xmlns:xlink="http://www.w3.org/1999/xlink">
<g id="graph0" class="graph" transform="scale(1 1) rotate(0) translate(4 550)">
<title>sylar/util.h</title>
<polygon fill="white" stroke="transparent" points="-4,4 -4,-550 2394.5,-550 2394.5,4 -4,4"/>
<!-- Node1 -->
<g id="node1" class="node">
<title>Node1</title>
<g id="a_node1"><a xlink:title="util函数">
<polygon fill="#bfbfbf" stroke="black" points="1232.5,-526.5 1232.5,-545.5 1300.5,-545.5 1300.5,-526.5 1232.5,-526.5"/>
<text text-anchor="middle" x="1266.5" y="-533.5" font-family="Helvetica,sans-Serif" font-size="10.00">sylar/util.h</text>
</a>
</g>
</g>
<!-- Node2 -->
<g id="node2" class="node">
<title>Node2</title>
<g id="a_node2"><a xlink:href="config_8cc.html" target="_top" xlink:title="配置模块实现">
<polygon fill="white" stroke="black" points="652.5,-358.5 652.5,-377.5 738.5,-377.5 738.5,-358.5 652.5,-358.5"/>
<text text-anchor="middle" x="695.5" y="-365.5" font-family="Helvetica,sans-Serif" font-size="10.00">sylar/config.cc</text>
</a>
</g>
</g>
<!-- Node1&#45;&gt;Node2 -->
<g id="edge1" class="edge">
<title>Node1&#45;&gt;Node2</title>
<path fill="none" stroke="midnightblue" d="M1222.16,-528.56C1142.25,-516.12 969.54,-485.37 831.5,-434 786.37,-417.21 735.86,-390.97 711.01,-377.55"/>
<polygon fill="midnightblue" stroke="midnightblue" points="1221.94,-532.07 1232.35,-530.13 1223,-525.15 1221.94,-532.07"/>
</g>
<!-- Node3 -->
<g id="node3" class="node">
<title>Node3</title>
<g id="a_node3"><a xlink:href="config_8h.html" target="_top" xlink:title="配置模块">
<polygon fill="white" stroke="black" points="840.5,-414.5 840.5,-433.5 922.5,-433.5 922.5,-414.5 840.5,-414.5"/>
<text text-anchor="middle" x="881.5" y="-421.5" font-family="Helvetica,sans-Serif" font-size="10.00">sylar/config.h</text>
</a>
</g>
</g>
<!-- Node1&#45;&gt;Node3 -->
<g id="edge2" class="edge">
<title>Node1&#45;&gt;Node3</title>
<path fill="none" stroke="midnightblue" d="M1226.76,-523.65C1149.39,-501.54 980.08,-453.17 911.37,-433.53"/>
<polygon fill="midnightblue" stroke="midnightblue" points="1226.03,-527.08 1236.61,-526.46 1227.96,-520.35 1226.03,-527.08"/>
</g>
<!-- Node7 -->
<g id="node7" class="node">
<title>Node7</title>
<g id="a_node7"><a xlink:href="sylar_8h_source.html" target="_top" xlink:title=" ">
<polygon fill="white" stroke="black" points="1123.5,-67.5 1123.5,-86.5 1199.5,-86.5 1199.5,-67.5 1123.5,-67.5"/>
<text text-anchor="middle" x="1161.5" y="-74.5" font-family="Helvetica,sans-Serif" font-size="10.00">sylar/sylar.h</text>
</a>
</g>
</g>
<!-- Node1&#45;&gt;Node7 -->
<g id="edge60" class="edge">
<title>Node1&#45;&gt;Node7</title>
<path fill="none" stroke="midnightblue" d="M1222.02,-532.52C1070.89,-523.51 586.5,-489.6 586.5,-425 586.5,-425 586.5,-425 586.5,-188 586.5,-133.18 994.9,-92.63 1123.33,-81.24"/>
<polygon fill="midnightblue" stroke="midnightblue" points="1222.12,-536.03 1232.31,-533.13 1222.54,-529.04 1222.12,-536.03"/>
</g>
<!-- Node28 -->
<g id="node28" class="node">
<title>Node28</title>
<g id="a_node28"><a xlink:href="http_8cc.html" target="_top" xlink:title="HTTP相关方法实现">
<polygon fill="white" stroke="black" points="1433,-470.5 1433,-489.5 1532,-489.5 1532,-470.5 1433,-470.5"/>
<text text-anchor="middle" x="1482.5" y="-477.5" font-family="Helvetica,sans-Serif" font-size="10.00">sylar/http/http.cc</text>
</a>
</g>
</g>
<!-- Node1&#45;&gt;Node28 -->
<g id="edge30" class="edge">
<title>Node1&#45;&gt;Node28</title>
<path fill="none" stroke="midnightblue" d="M1310.66,-523.96C1351.46,-513.76 1411.21,-498.82 1448.43,-489.52"/>
<polygon fill="midnightblue" stroke="midnightblue" points="1309.58,-520.62 1300.73,-526.44 1311.28,-527.41 1309.58,-520.62"/>
</g>
<!-- Node29 -->
<g id="node29" class="node">
<title>Node29</title>
<g id="a_node29"><a xlink:href="servlet_8h.html" target="_top" xlink:title="Servlet封装">
<polygon fill="white" stroke="black" points="976,-179.5 976,-198.5 1085,-198.5 1085,-179.5 976,-179.5"/>
<text text-anchor="middle" x="1030.5" y="-186.5" font-family="Helvetica,sans-Serif" font-size="10.00">sylar/http/servlet.h</text>
</a>
</g>
</g>
<!-- Node1&#45;&gt;Node29 -->
<g id="edge31" class="edge">
<title>Node1&#45;&gt;Node29</title>
<path fill="none" stroke="midnightblue" d="M1222.13,-531.25C1090.84,-519.09 709.32,-475.74 643.5,-378 559.01,-252.54 850.33,-207.93 975.79,-194.76"/>
<polygon fill="midnightblue" stroke="midnightblue" points="1221.96,-534.75 1232.24,-532.17 1222.59,-527.78 1221.96,-534.75"/>
</g>
<!-- Node30 -->
<g id="node30" class="node">
<title>Node30</title>
<g id="a_node30"><a xlink:href="log_8h.html" target="_top" xlink:title="日志模块">
<polygon fill="white" stroke="black" points="1232.5,-470.5 1232.5,-489.5 1300.5,-489.5 1300.5,-470.5 1232.5,-470.5"/>
<text text-anchor="middle" x="1266.5" y="-477.5" font-family="Helvetica,sans-Serif" font-size="10.00">sylar/log.h</text>
</a>
</g>
</g>
<!-- Node1&#45;&gt;Node30 -->
<g id="edge34" class="edge">
<title>Node1&#45;&gt;Node30</title>
<path fill="none" stroke="midnightblue" d="M1266.5,-515.8C1266.5,-506.91 1266.5,-496.78 1266.5,-489.75"/>
<polygon fill="midnightblue" stroke="midnightblue" points="1263,-516.08 1266.5,-526.08 1270,-516.08 1263,-516.08"/>
</g>
<!-- Node32 -->
<g id="node32" class="node">
<title>Node32</title>
<g id="a_node32"><a xlink:href="macro_8h.html" target="_top" xlink:title="常用宏的封装">
<polygon fill="white" stroke="black" points="1378,-414.5 1378,-433.5 1461,-433.5 1461,-414.5 1378,-414.5"/>
<text text-anchor="middle" x="1419.5" y="-421.5" font-family="Helvetica,sans-Serif" font-size="10.00">sylar/macro.h</text>
</a>
</g>
</g>
<!-- Node1&#45;&gt;Node32 -->
<g id="edge59" class="edge">
<title>Node1&#45;&gt;Node32</title>
<path fill="none" stroke="midnightblue" d="M1285.64,-520.05C1302.92,-506.67 1329.14,-486.65 1352.5,-470 1370.87,-456.9 1392.63,-442.48 1406.26,-433.58"/>
<polygon fill="midnightblue" stroke="midnightblue" points="1283.23,-517.49 1277.49,-526.39 1287.53,-523.01 1283.23,-517.49"/>
</g>
<!-- Node38 -->
<g id="node38" class="node">
<title>Node38</title>
<g id="a_node38"><a xlink:href="thread_8cc.html" target="_top" xlink:title="线程封装实现">
<polygon fill="white" stroke="black" points="1518,-414.5 1518,-433.5 1607,-433.5 1607,-414.5 1518,-414.5"/>
<text text-anchor="middle" x="1562.5" y="-421.5" font-family="Helvetica,sans-Serif" font-size="10.00">sylar/thread.cc</text>
</a>
</g>
</g>
<!-- Node1&#45;&gt;Node38 -->
<g id="edge61" class="edge">
<title>Node1&#45;&gt;Node38</title>
<path fill="none" stroke="midnightblue" d="M1292.32,-521.51C1309.4,-512.58 1332.29,-500.6 1352.5,-490 1369.4,-481.13 1372.71,-476.9 1390.5,-470 1432.94,-453.53 1483.58,-441.1 1518.87,-433.52"/>
<polygon fill="midnightblue" stroke="midnightblue" points="1290.23,-518.65 1282.99,-526.38 1293.48,-524.85 1290.23,-518.65"/>
</g>
<!-- Node39 -->
<g id="node39" class="node">
<title>Node39</title>
<g id="a_node39"><a xlink:href="util_8cpp.html" target="_top" xlink:title="util函数实现">
<polygon fill="white" stroke="black" points="1625.5,-414.5 1625.5,-433.5 1705.5,-433.5 1705.5,-414.5 1625.5,-414.5"/>
<text text-anchor="middle" x="1665.5" y="-421.5" font-family="Helvetica,sans-Serif" font-size="10.00">sylar/util.cpp</text>
</a>
</g>
</g>
<!-- Node1&#45;&gt;Node39 -->
<g id="edge62" class="edge">
<title>Node1&#45;&gt;Node39</title>
<path fill="none" stroke="midnightblue" d="M1301.15,-523.06C1325.12,-514.52 1357.59,-502.39 1385.5,-490 1403.3,-482.1 1406.07,-476.3 1424.5,-470 1426.88,-469.19 1557.45,-444.98 1625.38,-432.42"/>
<polygon fill="midnightblue" stroke="midnightblue" points="1299.71,-519.86 1291.44,-526.49 1302.04,-526.46 1299.71,-519.86"/>
</g>
<!-- Node3&#45;&gt;Node2 -->
<g id="edge3" class="edge">
<title>Node3&#45;&gt;Node2</title>
<path fill="none" stroke="midnightblue" d="M842.12,-411.57C807.03,-401.38 756.48,-386.7 724.83,-377.52"/>
<polygon fill="midnightblue" stroke="midnightblue" points="841.45,-415.02 852.03,-414.44 843.4,-408.29 841.45,-415.02"/>
</g>
<!-- Node4 -->
<g id="node4" class="node">
<title>Node4</title>
<g id="a_node4"><a xlink:href="env_8cc.html" target="_top" xlink:title="环境变量管理接口实现">
<polygon fill="white" stroke="black" points="930.5,-358.5 930.5,-377.5 1004.5,-377.5 1004.5,-358.5 930.5,-358.5"/>
<text text-anchor="middle" x="967.5" y="-365.5" font-family="Helvetica,sans-Serif" font-size="10.00">sylar/env.cc</text>
</a>
</g>
</g>
<!-- Node3&#45;&gt;Node4 -->
<g id="edge4" class="edge">
<title>Node3&#45;&gt;Node4</title>
<path fill="none" stroke="midnightblue" d="M903.95,-408.9C919.72,-399 940.31,-386.07 953.72,-377.65"/>
<polygon fill="midnightblue" stroke="midnightblue" points="901.93,-406.04 895.32,-414.32 905.65,-411.97 901.93,-406.04"/>
</g>
<!-- Node5 -->
<g id="node5" class="node">
<title>Node5</title>
<g id="a_node5"><a xlink:href="http__parser_8cc.html" target="_top" xlink:title="HTTP协议解析实现">
<polygon fill="white" stroke="black" points="1022.5,-358.5 1022.5,-377.5 1156.5,-377.5 1156.5,-358.5 1022.5,-358.5"/>
<text text-anchor="middle" x="1089.5" y="-365.5" font-family="Helvetica,sans-Serif" font-size="10.00">sylar/http/http_parser.cc</text>
</a>
</g>
</g>
<!-- Node3&#45;&gt;Node5 -->
<g id="edge5" class="edge">
<title>Node3&#45;&gt;Node5</title>
<path fill="none" stroke="midnightblue" d="M924.28,-411.89C963.56,-401.7 1020.93,-386.8 1056.7,-377.52"/>
<polygon fill="midnightblue" stroke="midnightblue" points="923.26,-408.54 914.46,-414.44 925.02,-415.32 923.26,-408.54"/>
</g>
<!-- Node6 -->
<g id="node6" class="node">
<title>Node6</title>
<g id="a_node6"><a xlink:href="log_8cpp.html" target="_top" xlink:title="日志模块实现">
<polygon fill="white" stroke="black" points="833,-358.5 833,-377.5 912,-377.5 912,-358.5 833,-358.5"/>
<text text-anchor="middle" x="872.5" y="-365.5" font-family="Helvetica,sans-Serif" font-size="10.00">sylar/log.cpp</text>
</a>
</g>
</g>
<!-- Node3&#45;&gt;Node6 -->
<g id="edge6" class="edge">
<title>Node3&#45;&gt;Node6</title>
<path fill="none" stroke="midnightblue" d="M878.35,-404.1C876.86,-395.14 875.14,-384.86 873.96,-377.75"/>
<polygon fill="midnightblue" stroke="midnightblue" points="874.92,-404.79 880.01,-414.08 881.82,-403.64 874.92,-404.79"/>
</g>
<!-- Node3&#45;&gt;Node7 -->
<g id="edge7" class="edge">
<title>Node3&#45;&gt;Node7</title>
<path fill="none" stroke="midnightblue" d="M852.93,-409.81C818.87,-391.89 766.5,-356.38 766.5,-307.5 766.5,-307.5 766.5,-307.5 766.5,-188 766.5,-114.41 1024.14,-87.94 1123.27,-80.48"/>
<polygon fill="midnightblue" stroke="midnightblue" points="851.49,-413.01 861.99,-414.4 854.65,-406.76 851.49,-413.01"/>
</g>
<!-- Node26 -->
<g id="node26" class="node">
<title>Node26</title>
<g id="a_node26"><a xlink:href="tcp__server_8h.html" target="_top" xlink:title="TCP服务器的封装">
<polygon fill="white" stroke="black" points="928,-235.5 928,-254.5 1031,-254.5 1031,-235.5 928,-235.5"/>
<text text-anchor="middle" x="979.5" y="-242.5" font-family="Helvetica,sans-Serif" font-size="10.00">sylar/tcp_server.h</text>
</a>
</g>
</g>
<!-- Node3&#45;&gt;Node26 -->
<g id="edge26" class="edge">
<title>Node3&#45;&gt;Node26</title>
<path fill="none" stroke="midnightblue" d="M854.93,-409.39C835.1,-397.25 813.08,-378.3 823.5,-358 851.58,-303.27 920.21,-269.25 956.36,-254.52"/>
<polygon fill="midnightblue" stroke="midnightblue" points="853.35,-412.52 863.76,-414.47 856.84,-406.45 853.35,-412.52"/>
</g>
<!-- Node8 -->
<g id="node8" class="node">
<title>Node8</title>
<g id="a_node8"><a xlink:href="test__address_8cc.html" target="_top" xlink:title="网络地址类测试">
<polygon fill="white" stroke="black" points="0,-6 0,-25 119,-25 119,-6 0,-6"/>
<text text-anchor="middle" x="59.5" y="-13" font-family="Helvetica,sans-Serif" font-size="10.00">tests/test_address.cc</text>
</a>
</g>
</g>
<!-- Node7&#45;&gt;Node8 -->
<g id="edge8" class="edge">
<title>Node7&#45;&gt;Node8</title>
<path fill="none" stroke="midnightblue" d="M1113.43,-74.97C936.55,-71.02 322.03,-55.8 127.5,-31 116.6,-29.61 104.86,-27.38 94.25,-25.07"/>
<polygon fill="midnightblue" stroke="midnightblue" points="1113.4,-78.47 1123.48,-75.19 1113.56,-71.47 1113.4,-78.47"/>
</g>
<!-- Node9 -->
<g id="node9" class="node">
<title>Node9</title>
<g id="a_node9"><a xlink:href="test__bytearray_8cc.html" target="_top" xlink:title="Bytearray类测试">
<polygon fill="white" stroke="black" points="137,-6 137,-25 264,-25 264,-6 137,-6"/>
<text text-anchor="middle" x="200.5" y="-13" font-family="Helvetica,sans-Serif" font-size="10.00">tests/test_bytearray.cc</text>
</a>
</g>
</g>
<!-- Node7&#45;&gt;Node9 -->
<g id="edge9" class="edge">
<title>Node7&#45;&gt;Node9</title>
<path fill="none" stroke="midnightblue" d="M1112.91,-76.01C978.73,-75.52 591.94,-70.48 273.5,-31 261.83,-29.55 249.23,-27.3 237.84,-25"/>
<polygon fill="midnightblue" stroke="midnightblue" points="1113.24,-79.51 1123.25,-76.04 1113.26,-72.51 1113.24,-79.51"/>
</g>
<!-- Node10 -->
<g id="node10" class="node">
<title>Node10</title>
<g id="a_node10"><a xlink:href="test__config_8cc.html" target="_top" xlink:title="配置模块测试">
<polygon fill="white" stroke="black" points="282.5,-6 282.5,-25 392.5,-25 392.5,-6 282.5,-6"/>
<text text-anchor="middle" x="337.5" y="-13" font-family="Helvetica,sans-Serif" font-size="10.00">tests/test_config.cc</text>
</a>
</g>
</g>
<!-- Node7&#45;&gt;Node10 -->
<g id="edge10" class="edge">
<title>Node7&#45;&gt;Node10</title>
<path fill="none" stroke="midnightblue" d="M1113.3,-75.87C992.73,-74.97 668.53,-68.9 401.5,-31 391.35,-29.56 380.42,-27.34 370.53,-25.07"/>
<polygon fill="midnightblue" stroke="midnightblue" points="1113.3,-79.37 1123.32,-75.94 1113.35,-72.37 1113.3,-79.37"/>
</g>
<!-- Node11 -->
<g id="node11" class="node">
<title>Node11</title>
<g id="a_node11"><a xlink:href="test__env_8cc.html" target="_top" xlink:title="环境变量测试">
<polygon fill="white" stroke="black" points="410.5,-6 410.5,-25 508.5,-25 508.5,-6 410.5,-6"/>
<text text-anchor="middle" x="459.5" y="-13" font-family="Helvetica,sans-Serif" font-size="10.00">tests/test_env.cc</text>
</a>
</g>
</g>
<!-- Node7&#45;&gt;Node11 -->
<g id="edge11" class="edge">
<title>Node7&#45;&gt;Node11</title>
<path fill="none" stroke="midnightblue" d="M1113.29,-75.51C1005.71,-73.79 738.18,-66.02 517.5,-31 508.27,-29.54 498.37,-27.31 489.4,-25.04"/>
<polygon fill="midnightblue" stroke="midnightblue" points="1113.44,-79.01 1123.49,-75.66 1113.55,-72.01 1113.44,-79.01"/>
</g>
<!-- Node12 -->
<g id="node12" class="node">
<title>Node12</title>
<g id="a_node12"><a xlink:href="test__fiber_8cc.html" target="_top" xlink:title="协程测试">
<polygon fill="white" stroke="black" points="526.5,-6 526.5,-25 628.5,-25 628.5,-6 526.5,-6"/>
<text text-anchor="middle" x="577.5" y="-13" font-family="Helvetica,sans-Serif" font-size="10.00">tests/test_fiber.cc</text>
</a>
</g>
</g>
<!-- Node7&#45;&gt;Node12 -->
<g id="edge12" class="edge">
<title>Node7&#45;&gt;Node12</title>
<path fill="none" stroke="midnightblue" d="M1113.26,-74.3C1020.54,-70.49 811.27,-59.29 637.5,-31 628.09,-29.47 617.97,-27.25 608.77,-25"/>
<polygon fill="midnightblue" stroke="midnightblue" points="1113.32,-77.8 1123.45,-74.71 1113.6,-70.81 1113.32,-77.8"/>
</g>
<!-- Node13 -->
<g id="node13" class="node">
<title>Node13</title>
<g id="a_node13"><a xlink:href="test__fiber2_8cc.html" target="_top" xlink:title="协程测试，用于演示非对称协程">
<polygon fill="white" stroke="black" points="647,-6 647,-25 756,-25 756,-6 647,-6"/>
<text text-anchor="middle" x="701.5" y="-13" font-family="Helvetica,sans-Serif" font-size="10.00">tests/test_fiber2.cc</text>
</a>
</g>
</g>
<!-- Node7&#45;&gt;Node13 -->
<g id="edge13" class="edge">
<title>Node7&#45;&gt;Node13</title>
<path fill="none" stroke="midnightblue" d="M1113.17,-72.3C1038.17,-66.16 889.38,-52.38 764.5,-31 754.99,-29.37 744.75,-27.2 735.36,-25.04"/>
<polygon fill="midnightblue" stroke="midnightblue" points="1113,-75.8 1123.25,-73.12 1113.57,-68.82 1113,-75.8"/>
</g>
<!-- Node14 -->
<g id="node14" class="node">
<title>Node14</title>
<g id="a_node14"><a xlink:href="test__hook_8cc.html" target="_top" xlink:title="hook模块测试">
<polygon fill="white" stroke="black" points="774,-6 774,-25 879,-25 879,-6 774,-6"/>
<text text-anchor="middle" x="826.5" y="-13" font-family="Helvetica,sans-Serif" font-size="10.00">tests/test_hook.cc</text>
</a>
</g>
</g>
<!-- Node7&#45;&gt;Node14 -->
<g id="edge14" class="edge">
<title>Node7&#45;&gt;Node14</title>
<path fill="none" stroke="midnightblue" d="M1113.09,-69.11C1058.19,-61.04 966.09,-46.77 887.5,-31 878.75,-29.24 869.34,-27.12 860.6,-25.06"/>
<polygon fill="midnightblue" stroke="midnightblue" points="1112.82,-72.6 1123.23,-70.59 1113.84,-65.68 1112.82,-72.6"/>
</g>
<!-- Node15 -->
<g id="node15" class="node">
<title>Node15</title>
<g id="a_node15"><a xlink:href="test__http_8cc.html" target="_top" xlink:title="HTTP请求类与响应类测试">
<polygon fill="white" stroke="black" points="897,-6 897,-25 998,-25 998,-6 897,-6"/>
<text text-anchor="middle" x="947.5" y="-13" font-family="Helvetica,sans-Serif" font-size="10.00">tests/test_http.cc</text>
</a>
</g>
</g>
<!-- Node7&#45;&gt;Node15 -->
<g id="edge15" class="edge">
<title>Node7&#45;&gt;Node15</title>
<path fill="none" stroke="midnightblue" d="M1121.04,-64.75C1079.46,-53.19 1015.66,-35.45 978.1,-25.01"/>
<polygon fill="midnightblue" stroke="midnightblue" points="1120.27,-68.17 1130.84,-67.48 1122.14,-61.42 1120.27,-68.17"/>
</g>
<!-- Node16 -->
<g id="node16" class="node">
<title>Node16</title>
<g id="a_node16"><a xlink:href="test__http__parser_8cc.html" target="_top" xlink:title="测试HTTP协议解析">
<polygon fill="white" stroke="black" points="1016.5,-6 1016.5,-25 1152.5,-25 1152.5,-6 1016.5,-6"/>
<text text-anchor="middle" x="1084.5" y="-13" font-family="Helvetica,sans-Serif" font-size="10.00">tests/test_http_parser.cc</text>
</a>
</g>
</g>
<!-- Node7&#45;&gt;Node16 -->
<g id="edge16" class="edge">
<title>Node7&#45;&gt;Node16</title>
<path fill="none" stroke="midnightblue" d="M1142.47,-61.29C1127.7,-49.88 1107.74,-34.46 1095.51,-25.01"/>
<polygon fill="midnightblue" stroke="midnightblue" points="1140.41,-64.13 1150.47,-67.48 1144.69,-58.59 1140.41,-64.13"/>
</g>
<!-- Node17 -->
<g id="node17" class="node">
<title>Node17</title>
<g id="a_node17"><a xlink:href="test__http__server_8cc.html" target="_top" xlink:title="HttpServer测试">
<polygon fill="white" stroke="black" points="1170.5,-6 1170.5,-25 1306.5,-25 1306.5,-6 1170.5,-6"/>
<text text-anchor="middle" x="1238.5" y="-13" font-family="Helvetica,sans-Serif" font-size="10.00">tests/test_http_server.cc</text>
</a>
</g>
</g>
<!-- Node7&#45;&gt;Node17 -->
<g id="edge17" class="edge">
<title>Node7&#45;&gt;Node17</title>
<path fill="none" stroke="midnightblue" d="M1180.53,-61.29C1195.3,-49.88 1215.26,-34.46 1227.49,-25.01"/>
<polygon fill="midnightblue" stroke="midnightblue" points="1178.31,-58.59 1172.53,-67.48 1182.59,-64.13 1178.31,-58.59"/>
</g>
<!-- Node18 -->
<g id="node18" class="node">
<title>Node18</title>
<g id="a_node18"><a xlink:href="test__iomanager_8cc.html" target="_top" xlink:title="IO协程调度器测试">
<polygon fill="white" stroke="black" points="1325,-6 1325,-25 1458,-25 1458,-6 1325,-6"/>
<text text-anchor="middle" x="1391.5" y="-13" font-family="Helvetica,sans-Serif" font-size="10.00">tests/test_iomanager.cc</text>
</a>
</g>
</g>
<!-- Node7&#45;&gt;Node18 -->
<g id="edge18" class="edge">
<title>Node7&#45;&gt;Node18</title>
<path fill="none" stroke="midnightblue" d="M1204.14,-64.97C1248.8,-53.41 1317.99,-35.52 1358.61,-25.01"/>
<polygon fill="midnightblue" stroke="midnightblue" points="1203.26,-61.58 1194.45,-67.48 1205.01,-68.36 1203.26,-61.58"/>
</g>
<!-- Node19 -->
<g id="node19" class="node">
<title>Node19</title>
<g id="a_node19"><a xlink:href="test__log_8cpp.html" target="_top" xlink:title="日志类测试">
<polygon fill="white" stroke="black" points="1476,-6 1476,-25 1579,-25 1579,-6 1476,-6"/>
<text text-anchor="middle" x="1527.5" y="-13" font-family="Helvetica,sans-Serif" font-size="10.00">tests/test_log.cpp</text>
</a>
</g>
</g>
<!-- Node7&#45;&gt;Node19 -->
<g id="edge19" class="edge">
<title>Node7&#45;&gt;Node19</title>
<path fill="none" stroke="midnightblue" d="M1209.88,-70.27C1270.4,-62.78 1377.06,-48.54 1467.5,-31 1476.34,-29.29 1485.83,-27.14 1494.61,-25.02"/>
<polygon fill="midnightblue" stroke="midnightblue" points="1209.35,-66.81 1199.85,-71.5 1210.21,-73.76 1209.35,-66.81"/>
</g>
<!-- Node20 -->
<g id="node20" class="node">
<title>Node20</title>
<g id="a_node20"><a xlink:href="test__scheduler_8cc.html" target="_top" xlink:title="协程调度器测试">
<polygon fill="white" stroke="black" points="1597.5,-6 1597.5,-25 1725.5,-25 1725.5,-6 1597.5,-6"/>
<text text-anchor="middle" x="1661.5" y="-13" font-family="Helvetica,sans-Serif" font-size="10.00">tests/test_scheduler.cc</text>
</a>
</g>
</g>
<!-- Node7&#45;&gt;Node20 -->
<g id="edge20" class="edge">
<title>Node7&#45;&gt;Node20</title>
<path fill="none" stroke="midnightblue" d="M1209.81,-72.35C1289.13,-66.04 1451.84,-51.73 1588.5,-31 1599.36,-29.35 1611.05,-27.2 1621.83,-25.06"/>
<polygon fill="midnightblue" stroke="midnightblue" points="1209.33,-68.88 1199.64,-73.15 1209.88,-75.86 1209.33,-68.88"/>
</g>
<!-- Node21 -->
<g id="node21" class="node">
<title>Node21</title>
<g id="a_node21"><a xlink:href="test__socket__tcp__client_8cc.html" target="_top" xlink:title="测试Socket类，tcp客户端">
<polygon fill="white" stroke="black" points="1744,-0.5 1744,-30.5 1863,-30.5 1863,-0.5 1744,-0.5"/>
<text text-anchor="start" x="1752" y="-18.5" font-family="Helvetica,sans-Serif" font-size="10.00">tests/test_socket_tcp</text>
<text text-anchor="middle" x="1803.5" y="-7.5" font-family="Helvetica,sans-Serif" font-size="10.00">_client.cc</text>
</a>
</g>
</g>
<!-- Node7&#45;&gt;Node21 -->
<g id="edge21" class="edge">
<title>Node7&#45;&gt;Node21</title>
<path fill="none" stroke="midnightblue" d="M1209.84,-74.31C1308.77,-70.38 1541.28,-58.77 1734.5,-31 1737.53,-30.56 1740.62,-30.08 1743.74,-29.55"/>
<polygon fill="midnightblue" stroke="midnightblue" points="1209.43,-70.82 1199.57,-74.7 1209.7,-77.81 1209.43,-70.82"/>
</g>
<!-- Node22 -->
<g id="node22" class="node">
<title>Node22</title>
<g id="a_node22"><a xlink:href="test__tcp__server_8cc.html" target="_top" xlink:title="TcpServer类测试">
<polygon fill="white" stroke="black" points="1881,-6 1881,-25 2012,-25 2012,-6 1881,-6"/>
<text text-anchor="middle" x="1946.5" y="-13" font-family="Helvetica,sans-Serif" font-size="10.00">tests/test_tcp_server.cc</text>
</a>
</g>
</g>
<!-- Node7&#45;&gt;Node22 -->
<g id="edge22" class="edge">
<title>Node7&#45;&gt;Node22</title>
<path fill="none" stroke="midnightblue" d="M1210.08,-75.1C1325.44,-72.5 1624.78,-62.97 1872.5,-31 1884.06,-29.51 1896.52,-27.3 1907.87,-25.06"/>
<polygon fill="midnightblue" stroke="midnightblue" points="1209.74,-71.61 1199.82,-75.33 1209.89,-78.61 1209.74,-71.61"/>
</g>
<!-- Node23 -->
<g id="node23" class="node">
<title>Node23</title>
<g id="a_node23"><a xlink:href="test__thread_8cc.html" target="_top" xlink:title="线程模块测试">
<polygon fill="white" stroke="black" points="2030,-6 2030,-25 2143,-25 2143,-6 2030,-6"/>
<text text-anchor="middle" x="2086.5" y="-13" font-family="Helvetica,sans-Serif" font-size="10.00">tests/test_thread.cc</text>
</a>
</g>
</g>
<!-- Node7&#45;&gt;Node23 -->
<g id="edge23" class="edge">
<title>Node7&#45;&gt;Node23</title>
<path fill="none" stroke="midnightblue" d="M1209.99,-76.29C1341.32,-76.48 1714.66,-72.95 2021.5,-31 2031.92,-29.57 2043.15,-27.33 2053.29,-25.03"/>
<polygon fill="midnightblue" stroke="midnightblue" points="1209.87,-72.79 1199.86,-76.27 1209.85,-79.79 1209.87,-72.79"/>
</g>
<!-- Node24 -->
<g id="node24" class="node">
<title>Node24</title>
<g id="a_node24"><a xlink:href="test__timer_8cc.html" target="_top" xlink:title="IO协程测试器定时器测试">
<polygon fill="white" stroke="black" points="2161,-6 2161,-25 2268,-25 2268,-6 2161,-6"/>
<text text-anchor="middle" x="2214.5" y="-13" font-family="Helvetica,sans-Serif" font-size="10.00">tests/test_timer.cc</text>
</a>
</g>
</g>
<!-- Node7&#45;&gt;Node24 -->
<g id="edge24" class="edge">
<title>Node7&#45;&gt;Node24</title>
<path fill="none" stroke="midnightblue" d="M1209.57,-74.99C1381.72,-71.2 1967.03,-56.68 2152.5,-31 2162.57,-29.61 2173.41,-27.34 2183.17,-25.01"/>
<polygon fill="midnightblue" stroke="midnightblue" points="1209.47,-71.49 1199.54,-75.21 1209.62,-78.49 1209.47,-71.49"/>
</g>
<!-- Node25 -->
<g id="node25" class="node">
<title>Node25</title>
<g id="a_node25"><a xlink:href="test__util_8cpp.html" target="_top" xlink:title="util与macro测试">
<polygon fill="white" stroke="black" points="2286.5,-6 2286.5,-25 2390.5,-25 2390.5,-6 2286.5,-6"/>
<text text-anchor="middle" x="2338.5" y="-13" font-family="Helvetica,sans-Serif" font-size="10.00">tests/test_util.cpp</text>
</a>
</g>
</g>
<!-- Node7&#45;&gt;Node25 -->
<g id="edge25" class="edge">
<title>Node7&#45;&gt;Node25</title>
<path fill="none" stroke="midnightblue" d="M1209.67,-75.3C1395.58,-72.39 2066.46,-60.06 2277.5,-31 2287.42,-29.63 2298.09,-27.38 2307.69,-25.05"/>
<polygon fill="midnightblue" stroke="midnightblue" points="1209.6,-71.8 1199.65,-75.45 1209.71,-78.8 1209.6,-71.8"/>
</g>
<!-- Node26&#45;&gt;Node7 -->
<g id="edge29" class="edge">
<title>Node26&#45;&gt;Node7</title>
<path fill="none" stroke="midnightblue" d="M970.28,-226.1C964.69,-212.67 959.8,-194.09 966.5,-179 981.58,-145.07 996.47,-141.78 1028.5,-123 1058.25,-105.55 1095.75,-93.64 1123.34,-86.48"/>
<polygon fill="midnightblue" stroke="midnightblue" points="967.13,-227.63 974.52,-235.22 973.48,-224.68 967.13,-227.63"/>
</g>
<!-- Node27 -->
<g id="node27" class="node">
<title>Node27</title>
<g id="a_node27"><a xlink:href="http__server_8h.html" target="_top" xlink:title="HTTP服务器封装">
<polygon fill="white" stroke="black" points="1050.5,-123.5 1050.5,-142.5 1180.5,-142.5 1180.5,-123.5 1050.5,-123.5"/>
<text text-anchor="middle" x="1115.5" y="-130.5" font-family="Helvetica,sans-Serif" font-size="10.00">sylar/http/http_server.h</text>
</a>
</g>
</g>
<!-- Node26&#45;&gt;Node27 -->
<g id="edge27" class="edge">
<title>Node26&#45;&gt;Node27</title>
<path fill="none" stroke="midnightblue" d="M1036.29,-232.59C1057,-225.89 1079.09,-215.37 1094.5,-199 1109.46,-183.11 1113.76,-156.48 1115,-142.76"/>
<polygon fill="midnightblue" stroke="midnightblue" points="1035.17,-229.27 1026.59,-235.5 1037.18,-235.98 1035.17,-229.27"/>
</g>
<!-- Node27&#45;&gt;Node7 -->
<g id="edge28" class="edge">
<title>Node27&#45;&gt;Node7</title>
<path fill="none" stroke="midnightblue" d="M1129.61,-115.43C1137.68,-105.97 1147.46,-94.48 1154.05,-86.75"/>
<polygon fill="midnightblue" stroke="midnightblue" points="1126.92,-113.2 1123.1,-123.08 1132.25,-117.74 1126.92,-113.2"/>
</g>
<!-- Node29&#45;&gt;Node7 -->
<g id="edge33" class="edge">
<title>Node29&#45;&gt;Node7</title>
<path fill="none" stroke="midnightblue" d="M1028.95,-169.21C1028.81,-155 1030.92,-135.82 1041.5,-123 1061.61,-98.63 1096.33,-87.45 1123.27,-82.32"/>
<polygon fill="midnightblue" stroke="midnightblue" points="1025.46,-169.5 1029.44,-179.32 1032.46,-169.17 1025.46,-169.5"/>
</g>
<!-- Node29&#45;&gt;Node27 -->
<g id="edge32" class="edge">
<title>Node29&#45;&gt;Node27</title>
<path fill="none" stroke="midnightblue" d="M1052.69,-173.9C1068.28,-164 1088.63,-151.07 1101.88,-142.65"/>
<polygon fill="midnightblue" stroke="midnightblue" points="1050.72,-171.01 1044.16,-179.32 1054.47,-176.92 1050.72,-171.01"/>
</g>
<!-- Node30&#45;&gt;Node3 -->
<g id="edge35" class="edge">
<title>Node30&#45;&gt;Node3</title>
<path fill="none" stroke="midnightblue" d="M1222.26,-472.79C1147.16,-462.26 995.8,-441.03 922.77,-430.79"/>
<polygon fill="midnightblue" stroke="midnightblue" points="1221.94,-476.28 1232.33,-474.21 1222.92,-469.35 1221.94,-476.28"/>
</g>
<!-- Node30&#45;&gt;Node4 -->
<g id="edge36" class="edge">
<title>Node30&#45;&gt;Node4</title>
<path fill="none" stroke="midnightblue" d="M1233.51,-466.86C1172.56,-444.44 1043.69,-397.03 990.85,-377.59"/>
<polygon fill="midnightblue" stroke="midnightblue" points="1232.44,-470.2 1243.04,-470.37 1234.86,-463.63 1232.44,-470.2"/>
</g>
<!-- Node30&#45;&gt;Node5 -->
<g id="edge37" class="edge">
<title>Node30&#45;&gt;Node5</title>
<path fill="none" stroke="midnightblue" d="M1243.99,-465.01C1206.83,-441.92 1133.77,-396.51 1103.32,-377.59"/>
<polygon fill="midnightblue" stroke="midnightblue" points="1242.27,-468.06 1252.61,-470.37 1245.97,-462.12 1242.27,-468.06"/>
</g>
<!-- Node30&#45;&gt;Node6 -->
<g id="edge39" class="edge">
<title>Node30&#45;&gt;Node6</title>
<path fill="none" stroke="midnightblue" d="M1222.44,-468.73C1185.68,-460 1132,-446.87 1085.5,-434 1017.87,-415.29 939.07,-390.44 898.93,-377.56"/>
<polygon fill="midnightblue" stroke="midnightblue" points="1221.8,-472.17 1232.33,-471.07 1223.41,-465.36 1221.8,-472.17"/>
</g>
<!-- Node30&#45;&gt;Node7 -->
<g id="edge56" class="edge">
<title>Node30&#45;&gt;Node7</title>
<path fill="none" stroke="midnightblue" d="M1310.72,-472.27C1362.16,-463.93 1443.49,-448.96 1470.5,-434 1535.68,-397.9 1580.5,-382.01 1580.5,-307.5 1580.5,-307.5 1580.5,-307.5 1580.5,-188 1580.5,-140.44 1539.43,-141.23 1495.5,-123 1442.61,-101.05 1275.32,-86.36 1199.5,-80.66"/>
<polygon fill="midnightblue" stroke="midnightblue" points="1309.87,-468.87 1300.55,-473.9 1310.97,-475.78 1309.87,-468.87"/>
</g>
<!-- Node31 -->
<g id="node31" class="node">
<title>Node31</title>
<g id="a_node31"><a xlink:href="iomanager_8cc.html" target="_top" xlink:title="IO协程调度器实现">
<polygon fill="white" stroke="black" points="1335,-297 1335,-316 1444,-316 1444,-297 1335,-297"/>
<text text-anchor="middle" x="1389.5" y="-304" font-family="Helvetica,sans-Serif" font-size="10.00">sylar/iomanager.cc</text>
</a>
</g>
</g>
<!-- Node30&#45;&gt;Node31 -->
<g id="edge38" class="edge">
<title>Node30&#45;&gt;Node31</title>
<path fill="none" stroke="midnightblue" d="M1289.86,-464.86C1301.63,-456.88 1315.48,-446.1 1325.5,-434 1349.58,-404.91 1346.41,-391.68 1363.5,-358 1371,-343.23 1379.85,-326.09 1385.05,-316.06"/>
<polygon fill="midnightblue" stroke="midnightblue" points="1287.84,-461.99 1281.36,-470.38 1291.65,-467.86 1287.84,-461.99"/>
</g>
<!-- Node30&#45;&gt;Node32 -->
<g id="edge40" class="edge">
<title>Node30&#45;&gt;Node32</title>
<path fill="none" stroke="midnightblue" d="M1300.39,-467.04C1329.18,-456.88 1369.79,-442.55 1395.37,-433.52"/>
<polygon fill="midnightblue" stroke="midnightblue" points="1299.01,-463.81 1290.74,-470.44 1301.34,-470.42 1299.01,-463.81"/>
</g>
<!-- Node34 -->
<g id="node34" class="node">
<title>Node34</title>
<g id="a_node34"><a xlink:href="scheduler_8h.html" target="_top" xlink:title="协程调度器实现">
<polygon fill="white" stroke="black" points="1217,-414.5 1217,-433.5 1316,-433.5 1316,-414.5 1217,-414.5"/>
<text text-anchor="middle" x="1266.5" y="-421.5" font-family="Helvetica,sans-Serif" font-size="10.00">sylar/scheduler.h</text>
</a>
</g>
</g>
<!-- Node30&#45;&gt;Node34 -->
<g id="edge44" class="edge">
<title>Node30&#45;&gt;Node34</title>
<path fill="none" stroke="midnightblue" d="M1266.5,-459.8C1266.5,-450.91 1266.5,-440.78 1266.5,-433.75"/>
<polygon fill="midnightblue" stroke="midnightblue" points="1263,-460.08 1266.5,-470.08 1270,-460.08 1263,-460.08"/>
</g>
<!-- Node30&#45;&gt;Node38 -->
<g id="edge57" class="edge">
<title>Node30&#45;&gt;Node38</title>
<path fill="none" stroke="midnightblue" d="M1310.69,-470.94C1366.51,-460.76 1462.02,-443.33 1517.99,-433.12"/>
<polygon fill="midnightblue" stroke="midnightblue" points="1309.95,-467.51 1300.74,-472.75 1311.21,-474.4 1309.95,-467.51"/>
</g>
<!-- Node30&#45;&gt;Node39 -->
<g id="edge58" class="edge">
<title>Node30&#45;&gt;Node39</title>
<path fill="none" stroke="midnightblue" d="M1311,-474.06C1377.59,-466.48 1507.04,-451.08 1616.5,-434 1619.41,-433.55 1622.4,-433.06 1625.42,-432.54"/>
<polygon fill="midnightblue" stroke="midnightblue" points="1310.41,-470.6 1300.87,-475.2 1311.2,-477.56 1310.41,-470.6"/>
</g>
<!-- Node32&#45;&gt;Node7 -->
<g id="edge43" class="edge">
<title>Node32&#45;&gt;Node7</title>
<path fill="none" stroke="midnightblue" d="M1450.46,-410.16C1486.9,-392.75 1542.5,-357.92 1542.5,-307.5 1542.5,-307.5 1542.5,-307.5 1542.5,-188 1542.5,-117.17 1296.39,-89.14 1199.78,-80.86"/>
<polygon fill="midnightblue" stroke="midnightblue" points="1448.83,-407.06 1441.21,-414.41 1451.76,-413.42 1448.83,-407.06"/>
</g>
<!-- Node32&#45;&gt;Node31 -->
<g id="edge41" class="edge">
<title>Node32&#45;&gt;Node31</title>
<path fill="none" stroke="midnightblue" d="M1449.56,-409.91C1472.48,-397.93 1498.14,-378.93 1485.5,-358 1472.36,-336.24 1446.38,-323.38 1424.76,-316.1"/>
<polygon fill="midnightblue" stroke="midnightblue" points="1447.77,-406.88 1440.35,-414.44 1450.87,-413.16 1447.77,-406.88"/>
</g>
<!-- Node33 -->
<g id="node33" class="node">
<title>Node33</title>
<g id="a_node33"><a xlink:href="scheduler_8cc.html" target="_top" xlink:title="协程调度器实现">
<polygon fill="white" stroke="black" points="1372.5,-358.5 1372.5,-377.5 1476.5,-377.5 1476.5,-358.5 1372.5,-358.5"/>
<text text-anchor="middle" x="1424.5" y="-365.5" font-family="Helvetica,sans-Serif" font-size="10.00">sylar/scheduler.cc</text>
</a>
</g>
</g>
<!-- Node32&#45;&gt;Node33 -->
<g id="edge42" class="edge">
<title>Node32&#45;&gt;Node33</title>
<path fill="none" stroke="midnightblue" d="M1421.25,-404.1C1422.08,-395.14 1423.03,-384.86 1423.69,-377.75"/>
<polygon fill="midnightblue" stroke="midnightblue" points="1417.76,-403.8 1420.33,-414.08 1424.73,-404.45 1417.76,-403.8"/>
</g>
<!-- Node34&#45;&gt;Node7 -->
<g id="edge55" class="edge">
<title>Node34&#45;&gt;Node7</title>
<path fill="none" stroke="midnightblue" d="M1276.66,-405.53C1288.51,-383.45 1306.5,-343.94 1306.5,-307.5 1306.5,-307.5 1306.5,-307.5 1306.5,-188 1306.5,-131.44 1235.61,-100.2 1192.96,-86.52"/>
<polygon fill="midnightblue" stroke="midnightblue" points="1273.54,-403.93 1271.73,-414.37 1279.65,-407.34 1273.54,-403.93"/>
</g>
<!-- Node34&#45;&gt;Node33 -->
<g id="edge54" class="edge">
<title>Node34&#45;&gt;Node33</title>
<path fill="none" stroke="midnightblue" d="M1301.11,-411.17C1330.86,-401 1373.05,-386.59 1399.58,-377.52"/>
<polygon fill="midnightblue" stroke="midnightblue" points="1299.87,-407.9 1291.54,-414.44 1302.13,-414.52 1299.87,-407.9"/>
</g>
<!-- Node35 -->
<g id="node35" class="node">
<title>Node35</title>
<g id="a_node35"><a xlink:href="iomanager_8h.html" target="_top" xlink:title="IO协程调度器">
<polygon fill="white" stroke="black" points="1174.5,-358.5 1174.5,-377.5 1278.5,-377.5 1278.5,-358.5 1174.5,-358.5"/>
<text text-anchor="middle" x="1226.5" y="-365.5" font-family="Helvetica,sans-Serif" font-size="10.00">sylar/iomanager.h</text>
</a>
</g>
</g>
<!-- Node34&#45;&gt;Node35 -->
<g id="edge45" class="edge">
<title>Node34&#45;&gt;Node35</title>
<path fill="none" stroke="midnightblue" d="M1253.8,-405.86C1246.87,-396.5 1238.59,-385.33 1232.98,-377.75"/>
<polygon fill="midnightblue" stroke="midnightblue" points="1251.13,-408.13 1259.89,-414.08 1256.75,-403.96 1251.13,-408.13"/>
</g>
<!-- Node35&#45;&gt;Node7 -->
<g id="edge52" class="edge">
<title>Node35&#45;&gt;Node7</title>
<path fill="none" stroke="midnightblue" d="M1231.73,-348.58C1237.95,-325.01 1247.5,-282.81 1247.5,-246 1247.5,-246 1247.5,-246 1247.5,-188 1247.5,-141.7 1199.63,-103.26 1175.32,-86.72"/>
<polygon fill="midnightblue" stroke="midnightblue" points="1228.34,-347.72 1229.08,-358.28 1235.09,-349.56 1228.34,-347.72"/>
</g>
<!-- Node35&#45;&gt;Node26 -->
<g id="edge53" class="edge">
<title>Node35&#45;&gt;Node26</title>
<path fill="none" stroke="midnightblue" d="M1180.37,-355.82C1152.64,-348.19 1117.11,-336.79 1087.5,-322 1048.53,-302.54 1007.91,-270.1 989.56,-254.67"/>
<polygon fill="midnightblue" stroke="midnightblue" points="1179.64,-359.25 1190.21,-358.46 1181.46,-352.48 1179.64,-359.25"/>
</g>
<!-- Node35&#45;&gt;Node31 -->
<g id="edge46" class="edge">
<title>Node35&#45;&gt;Node31</title>
<path fill="none" stroke="midnightblue" d="M1259.56,-354.93C1291.24,-343.37 1338.25,-326.21 1366.19,-316.01"/>
<polygon fill="midnightblue" stroke="midnightblue" points="1258.05,-351.76 1249.85,-358.48 1260.45,-358.33 1258.05,-351.76"/>
</g>
<!-- Node36 -->
<g id="node36" class="node">
<title>Node36</title>
<g id="a_node36"><a xlink:href="socket__stream_8h.html" target="_top" xlink:title="Socket流式接口封装">
<polygon fill="white" stroke="black" points="1096.5,-291.5 1096.5,-321.5 1214.5,-321.5 1214.5,-291.5 1096.5,-291.5"/>
<text text-anchor="start" x="1104.5" y="-309.5" font-family="Helvetica,sans-Serif" font-size="10.00">sylar/streams/socket</text>
<text text-anchor="middle" x="1155.5" y="-298.5" font-family="Helvetica,sans-Serif" font-size="10.00">_stream.h</text>
</a>
</g>
</g>
<!-- Node35&#45;&gt;Node36 -->
<g id="edge47" class="edge">
<title>Node35&#45;&gt;Node36</title>
<path fill="none" stroke="midnightblue" d="M1208.51,-351.92C1197.36,-342.58 1183.14,-330.66 1172.23,-321.52"/>
<polygon fill="midnightblue" stroke="midnightblue" points="1206.41,-354.73 1216.33,-358.48 1210.91,-349.37 1206.41,-354.73"/>
</g>
<!-- Node37 -->
<g id="node37" class="node">
<title>Node37</title>
<g id="a_node37"><a xlink:href="http__session_8h.html" target="_top" xlink:title="HTTPSession封装">
<polygon fill="white" stroke="black" points="1082,-235.5 1082,-254.5 1219,-254.5 1219,-235.5 1082,-235.5"/>
<text text-anchor="middle" x="1150.5" y="-242.5" font-family="Helvetica,sans-Serif" font-size="10.00">sylar/http/http_session.h</text>
</a>
</g>
</g>
<!-- Node36&#45;&gt;Node37 -->
<g id="edge48" class="edge">
<title>Node36&#45;&gt;Node37</title>
<path fill="none" stroke="midnightblue" d="M1153.47,-281.29C1152.67,-271.86 1151.82,-261.65 1151.23,-254.66"/>
<polygon fill="midnightblue" stroke="midnightblue" points="1149.99,-281.73 1154.32,-291.4 1156.97,-281.14 1149.99,-281.73"/>
</g>
<!-- Node37&#45;&gt;Node7 -->
<g id="edge51" class="edge">
<title>Node37&#45;&gt;Node7</title>
<path fill="none" stroke="midnightblue" d="M1159.59,-226.42C1169.22,-206.72 1183.81,-173.53 1189.5,-143 1191.13,-134.26 1191.94,-131.55 1189.5,-123 1185.51,-109.02 1175.78,-95.16 1168.91,-86.59"/>
<polygon fill="midnightblue" stroke="midnightblue" points="1156.44,-224.9 1155.08,-235.41 1162.69,-228.04 1156.44,-224.9"/>
</g>
<!-- Node37&#45;&gt;Node27 -->
<g id="edge49" class="edge">
<title>Node37&#45;&gt;Node27</title>
<path fill="none" stroke="midnightblue" d="M1144.67,-225.67C1137.02,-201.62 1123.9,-160.39 1118.23,-142.59"/>
<polygon fill="midnightblue" stroke="midnightblue" points="1141.39,-226.9 1147.75,-235.37 1148.06,-224.78 1141.39,-226.9"/>
</g>
<!-- Node37&#45;&gt;Node29 -->
<g id="edge50" class="edge">
<title>Node37&#45;&gt;Node29</title>
<path fill="none" stroke="midnightblue" d="M1122.13,-231.23C1099.68,-221.13 1068.96,-207.31 1049.43,-198.52"/>
<polygon fill="midnightblue" stroke="midnightblue" points="1120.93,-234.53 1131.49,-235.44 1123.8,-228.15 1120.93,-234.53"/>
</g>
</g>
</svg>
