<?xml version="1.0" encoding="UTF-8" standalone="no"?>
<!DOCTYPE svg PUBLIC "-//W3C//DTD SVG 1.1//EN"
 "http://www.w3.org/Graphics/SVG/1.1/DTD/svg11.dtd">
<!-- Generated by graphviz version 2.43.0 (0)
 -->
<!-- Title: sylar/util.cpp Pages: 1 -->
<svg width="1533pt" height="252pt"
 viewBox="0.00 0.00 1533.00 252.00" xmlns="http://www.w3.org/2000/svg" xmlns:xlink="http://www.w3.org/1999/xlink">
<g id="graph0" class="graph" transform="scale(1 1) rotate(0) translate(4 248)">
<title>sylar/util.cpp</title>
<polygon fill="white" stroke="transparent" points="-4,4 -4,-248 1529,-248 1529,4 -4,4"/>
<!-- Node1 -->
<g id="node1" class="node">
<title>Node1</title>
<g id="a_node1"><a xlink:title="util函数实现">
<polygon fill="#bfbfbf" stroke="black" points="447,-224.5 447,-243.5 527,-243.5 527,-224.5 447,-224.5"/>
<text text-anchor="middle" x="487" y="-231.5" font-family="Helvetica,sans-Serif" font-size="10.00">sylar/util.cpp</text>
</a>
</g>
</g>
<!-- Node2 -->
<g id="node2" class="node">
<title>Node2</title>
<g id="a_node2"><a xlink:title=" ">
<polygon fill="white" stroke="#bfbfbf" points="0,-168.5 0,-187.5 56,-187.5 56,-168.5 0,-168.5"/>
<text text-anchor="middle" x="28" y="-175.5" font-family="Helvetica,sans-Serif" font-size="10.00">unistd.h</text>
</a>
</g>
</g>
<!-- Node1&#45;&gt;Node2 -->
<g id="edge1" class="edge">
<title>Node1&#45;&gt;Node2</title>
<path fill="none" stroke="midnightblue" d="M446.9,-230.5C373.31,-225.53 211.66,-212.83 66.2,-188"/>
<polygon fill="midnightblue" stroke="midnightblue" points="66.65,-184.52 56.2,-186.27 65.46,-191.42 66.65,-184.52"/>
</g>
<!-- Node3 -->
<g id="node3" class="node">
<title>Node3</title>
<g id="a_node3"><a xlink:title=" ">
<polygon fill="white" stroke="#bfbfbf" points="74.5,-168.5 74.5,-187.5 127.5,-187.5 127.5,-168.5 74.5,-168.5"/>
<text text-anchor="middle" x="101" y="-175.5" font-family="Helvetica,sans-Serif" font-size="10.00">string.h</text>
</a>
</g>
</g>
<!-- Node1&#45;&gt;Node3 -->
<g id="edge2" class="edge">
<title>Node1&#45;&gt;Node3</title>
<path fill="none" stroke="midnightblue" d="M446.87,-229.38C383.35,-223.32 255.61,-209.77 137.59,-187.9"/>
<polygon fill="midnightblue" stroke="midnightblue" points="138.13,-184.44 127.66,-186.03 136.84,-191.32 138.13,-184.44"/>
</g>
<!-- Node4 -->
<g id="node4" class="node">
<title>Node4</title>
<g id="a_node4"><a xlink:title=" ">
<polygon fill="white" stroke="#bfbfbf" points="146,-168.5 146,-187.5 194,-187.5 194,-168.5 146,-168.5"/>
<text text-anchor="middle" x="170" y="-175.5" font-family="Helvetica,sans-Serif" font-size="10.00">time.h</text>
</a>
</g>
</g>
<!-- Node1&#45;&gt;Node4 -->
<g id="edge3" class="edge">
<title>Node1&#45;&gt;Node4</title>
<path fill="none" stroke="midnightblue" d="M446.77,-228.03C393.44,-221.14 296.28,-207.52 204.13,-188.04"/>
<polygon fill="midnightblue" stroke="midnightblue" points="204.59,-184.56 194.08,-185.89 203.12,-191.41 204.59,-184.56"/>
</g>
<!-- Node5 -->
<g id="node5" class="node">
<title>Node5</title>
<g id="a_node5"><a xlink:title=" ">
<polygon fill="white" stroke="#bfbfbf" points="212,-168.5 212,-187.5 266,-187.5 266,-168.5 212,-168.5"/>
<text text-anchor="middle" x="239" y="-175.5" font-family="Helvetica,sans-Serif" font-size="10.00">dirent.h</text>
</a>
</g>
</g>
<!-- Node1&#45;&gt;Node5 -->
<g id="edge4" class="edge">
<title>Node1&#45;&gt;Node5</title>
<path fill="none" stroke="midnightblue" d="M446.66,-224.88C406.02,-216.61 341.28,-203.16 276.13,-188.2"/>
<polygon fill="midnightblue" stroke="midnightblue" points="276.63,-184.72 266.1,-185.89 275.06,-191.54 276.63,-184.72"/>
</g>
<!-- Node6 -->
<g id="node6" class="node">
<title>Node6</title>
<g id="a_node6"><a xlink:title=" ">
<polygon fill="white" stroke="#bfbfbf" points="284.5,-168.5 284.5,-187.5 339.5,-187.5 339.5,-168.5 284.5,-168.5"/>
<text text-anchor="middle" x="312" y="-175.5" font-family="Helvetica,sans-Serif" font-size="10.00">signal.h</text>
</a>
</g>
</g>
<!-- Node1&#45;&gt;Node6 -->
<g id="edge5" class="edge">
<title>Node1&#45;&gt;Node6</title>
<path fill="none" stroke="midnightblue" d="M459.27,-224.44C429.57,-215.28 382.28,-200.69 349.33,-190.52"/>
<polygon fill="midnightblue" stroke="midnightblue" points="350.19,-187.12 339.6,-187.52 348.12,-193.81 350.19,-187.12"/>
</g>
<!-- Node7 -->
<g id="node7" class="node">
<title>Node7</title>
<g id="a_node7"><a xlink:title=" ">
<polygon fill="white" stroke="#bfbfbf" points="357.5,-168.5 357.5,-187.5 436.5,-187.5 436.5,-168.5 357.5,-168.5"/>
<text text-anchor="middle" x="397" y="-175.5" font-family="Helvetica,sans-Serif" font-size="10.00">sys/syscall.h</text>
</a>
</g>
</g>
<!-- Node1&#45;&gt;Node7 -->
<g id="edge6" class="edge">
<title>Node1&#45;&gt;Node7</title>
<path fill="none" stroke="midnightblue" d="M472.54,-224.32C458.5,-215.9 436.95,-202.97 420.46,-193.07"/>
<polygon fill="midnightblue" stroke="midnightblue" points="421.8,-189.8 411.42,-187.65 418.2,-195.8 421.8,-189.8"/>
</g>
<!-- Node8 -->
<g id="node8" class="node">
<title>Node8</title>
<g id="a_node8"><a xlink:title=" ">
<polygon fill="white" stroke="#bfbfbf" points="455,-168.5 455,-187.5 519,-187.5 519,-168.5 455,-168.5"/>
<text text-anchor="middle" x="487" y="-175.5" font-family="Helvetica,sans-Serif" font-size="10.00">sys/stat.h</text>
</a>
</g>
</g>
<!-- Node1&#45;&gt;Node8 -->
<g id="edge7" class="edge">
<title>Node1&#45;&gt;Node8</title>
<path fill="none" stroke="midnightblue" d="M487,-224.08C487,-217.01 487,-206.86 487,-197.99"/>
<polygon fill="midnightblue" stroke="midnightblue" points="490.5,-197.75 487,-187.75 483.5,-197.75 490.5,-197.75"/>
</g>
<!-- Node9 -->
<g id="node9" class="node">
<title>Node9</title>
<g id="a_node9"><a xlink:title=" ">
<polygon fill="white" stroke="#bfbfbf" points="537.5,-168.5 537.5,-187.5 604.5,-187.5 604.5,-168.5 537.5,-168.5"/>
<text text-anchor="middle" x="571" y="-175.5" font-family="Helvetica,sans-Serif" font-size="10.00">execinfo.h</text>
</a>
</g>
</g>
<!-- Node1&#45;&gt;Node9 -->
<g id="edge8" class="edge">
<title>Node1&#45;&gt;Node9</title>
<path fill="none" stroke="midnightblue" d="M500.5,-224.32C513.6,-215.9 533.71,-202.97 549.11,-193.07"/>
<polygon fill="midnightblue" stroke="midnightblue" points="551.02,-196.01 557.54,-187.65 547.23,-190.12 551.02,-196.01"/>
</g>
<!-- Node10 -->
<g id="node10" class="node">
<title>Node10</title>
<g id="a_node10"><a xlink:title=" ">
<polygon fill="white" stroke="#bfbfbf" points="385,-0.5 385,-19.5 443,-19.5 443,-0.5 385,-0.5"/>
<text text-anchor="middle" x="414" y="-7.5" font-family="Helvetica,sans-Serif" font-size="10.00">cxxabi.h</text>
</a>
</g>
</g>
<!-- Node1&#45;&gt;Node10 -->
<g id="edge9" class="edge">
<title>Node1&#45;&gt;Node10</title>
<path fill="none" stroke="midnightblue" d="M527.05,-228.55C570.42,-221.77 631.15,-205.43 613,-168 577.6,-94.99 489.96,-45.7 443.7,-23.84"/>
<polygon fill="midnightblue" stroke="midnightblue" points="445.03,-20.61 434.49,-19.6 442.1,-26.96 445.03,-20.61"/>
</g>
<!-- Node11 -->
<g id="node11" class="node">
<title>Node11</title>
<g id="a_node11"><a xlink:title=" ">
<polygon fill="white" stroke="#bfbfbf" points="887,-168.5 887,-187.5 951,-187.5 951,-168.5 887,-168.5"/>
<text text-anchor="middle" x="919" y="-175.5" font-family="Helvetica,sans-Serif" font-size="10.00">algorithm</text>
</a>
</g>
</g>
<!-- Node1&#45;&gt;Node11 -->
<g id="edge10" class="edge">
<title>Node1&#45;&gt;Node11</title>
<path fill="none" stroke="midnightblue" d="M527.15,-229.35C597.45,-222.73 747.34,-207.59 873,-188 874.27,-187.8 875.55,-187.6 876.85,-187.38"/>
<polygon fill="midnightblue" stroke="midnightblue" points="877.64,-190.79 886.89,-185.61 876.43,-183.9 877.64,-190.79"/>
</g>
<!-- Node12 -->
<g id="node12" class="node">
<title>Node12</title>
<g id="a_node12"><a xlink:href="util_8h.html" target="_top" xlink:title="util函数">
<polygon fill="white" stroke="black" points="703.5,-56.5 703.5,-75.5 744.5,-75.5 744.5,-56.5 703.5,-56.5"/>
<text text-anchor="middle" x="724" y="-63.5" font-family="Helvetica,sans-Serif" font-size="10.00">util.h</text>
</a>
</g>
</g>
<!-- Node1&#45;&gt;Node12 -->
<g id="edge11" class="edge">
<title>Node1&#45;&gt;Node12</title>
<path fill="none" stroke="midnightblue" d="M527.33,-229.71C561.99,-225.12 611.8,-214.16 647,-188 683.18,-161.11 706.7,-111.73 717.37,-85.13"/>
<polygon fill="midnightblue" stroke="midnightblue" points="720.73,-86.13 721.05,-75.54 714.2,-83.62 720.73,-86.13"/>
</g>
<!-- Node19 -->
<g id="node19" class="node">
<title>Node19</title>
<g id="a_node19"><a xlink:href="log_8h.html" target="_top" xlink:title="日志模块">
<polygon fill="white" stroke="black" points="1067.5,-112.5 1067.5,-131.5 1108.5,-131.5 1108.5,-112.5 1067.5,-112.5"/>
<text text-anchor="middle" x="1088" y="-119.5" font-family="Helvetica,sans-Serif" font-size="10.00">log.h</text>
</a>
</g>
</g>
<!-- Node1&#45;&gt;Node19 -->
<g id="edge19" class="edge">
<title>Node1&#45;&gt;Node19</title>
<path fill="none" stroke="midnightblue" d="M527.16,-232.5C593.72,-230.66 730.41,-222.58 840,-188 858.2,-182.26 860.06,-174.5 878,-168 939.59,-145.67 1015.56,-132.8 1057.16,-126.91"/>
<polygon fill="midnightblue" stroke="midnightblue" points="1057.78,-130.36 1067.21,-125.54 1056.83,-123.43 1057.78,-130.36"/>
</g>
<!-- Node34 -->
<g id="node34" class="node">
<title>Node34</title>
<g id="a_node34"><a xlink:href="fiber_8h.html" target="_top" xlink:title="协程模块">
<polygon fill="white" stroke="black" points="783.5,-168.5 783.5,-187.5 830.5,-187.5 830.5,-168.5 783.5,-168.5"/>
<text text-anchor="middle" x="807" y="-175.5" font-family="Helvetica,sans-Serif" font-size="10.00">fiber.h</text>
</a>
</g>
</g>
<!-- Node1&#45;&gt;Node34 -->
<g id="edge42" class="edge">
<title>Node1&#45;&gt;Node34</title>
<path fill="none" stroke="midnightblue" d="M527.2,-226.22C590.86,-215.47 713.72,-194.74 773.16,-184.71"/>
<polygon fill="midnightblue" stroke="midnightblue" points="773.87,-188.14 783.15,-183.02 772.71,-181.24 773.87,-188.14"/>
</g>
<!-- Node12&#45;&gt;Node10 -->
<g id="edge15" class="edge">
<title>Node12&#45;&gt;Node10</title>
<path fill="none" stroke="midnightblue" d="M703.44,-62.09C659.41,-55.76 552.57,-39.83 452.93,-20.07"/>
<polygon fill="midnightblue" stroke="midnightblue" points="453.49,-16.62 443,-18.08 452.12,-23.48 453.49,-16.62"/>
</g>
<!-- Node13 -->
<g id="node13" class="node">
<title>Node13</title>
<g id="a_node13"><a xlink:title=" ">
<polygon fill="white" stroke="#bfbfbf" points="609,-0.5 609,-19.5 681,-19.5 681,-0.5 609,-0.5"/>
<text text-anchor="middle" x="645" y="-7.5" font-family="Helvetica,sans-Serif" font-size="10.00">sys/types.h</text>
</a>
</g>
</g>
<!-- Node12&#45;&gt;Node13 -->
<g id="edge12" class="edge">
<title>Node12&#45;&gt;Node13</title>
<path fill="none" stroke="midnightblue" d="M711.31,-56.32C699.1,-47.98 680.42,-35.21 666,-25.35"/>
<polygon fill="midnightblue" stroke="midnightblue" points="667.89,-22.41 657.66,-19.65 663.94,-28.19 667.89,-22.41"/>
</g>
<!-- Node14 -->
<g id="node14" class="node">
<title>Node14</title>
<g id="a_node14"><a xlink:title=" ">
<polygon fill="white" stroke="#bfbfbf" points="843.5,-0.5 843.5,-19.5 896.5,-19.5 896.5,-0.5 843.5,-0.5"/>
<text text-anchor="middle" x="870" y="-7.5" font-family="Helvetica,sans-Serif" font-size="10.00">stdint.h</text>
</a>
</g>
</g>
<!-- Node12&#45;&gt;Node14 -->
<g id="edge13" class="edge">
<title>Node12&#45;&gt;Node14</title>
<path fill="none" stroke="midnightblue" d="M744.61,-57.38C768.66,-48.48 808.73,-33.66 837.1,-23.17"/>
<polygon fill="midnightblue" stroke="midnightblue" points="838.43,-26.41 846.6,-19.65 836.01,-19.84 838.43,-26.41"/>
</g>
<!-- Node15 -->
<g id="node15" class="node">
<title>Node15</title>
<g id="a_node15"><a xlink:title=" ">
<polygon fill="white" stroke="#bfbfbf" points="523,-0.5 523,-19.5 591,-19.5 591,-0.5 523,-0.5"/>
<text text-anchor="middle" x="557" y="-7.5" font-family="Helvetica,sans-Serif" font-size="10.00">sys/time.h</text>
</a>
</g>
</g>
<!-- Node12&#45;&gt;Node15 -->
<g id="edge14" class="edge">
<title>Node12&#45;&gt;Node15</title>
<path fill="none" stroke="midnightblue" d="M703.19,-58.27C675.69,-49.38 626.82,-33.58 593.21,-22.71"/>
<polygon fill="midnightblue" stroke="midnightblue" points="593.9,-19.25 583.31,-19.51 591.75,-25.91 593.9,-19.25"/>
</g>
<!-- Node16 -->
<g id="node16" class="node">
<title>Node16</title>
<g id="a_node16"><a xlink:title=" ">
<polygon fill="white" stroke="#bfbfbf" points="461,-0.5 461,-19.5 505,-19.5 505,-0.5 461,-0.5"/>
<text text-anchor="middle" x="483" y="-7.5" font-family="Helvetica,sans-Serif" font-size="10.00">string</text>
</a>
</g>
</g>
<!-- Node12&#45;&gt;Node16 -->
<g id="edge16" class="edge">
<title>Node12&#45;&gt;Node16</title>
<path fill="none" stroke="midnightblue" d="M703.31,-59.5C698.62,-58.3 693.65,-57.07 689,-56 614.66,-38.81 592.77,-39.04 515.06,-20.11"/>
<polygon fill="midnightblue" stroke="midnightblue" points="515.84,-16.7 505.29,-17.7 514.17,-23.49 515.84,-16.7"/>
</g>
<!-- Node17 -->
<g id="node17" class="node">
<title>Node17</title>
<g id="a_node17"><a xlink:title=" ">
<polygon fill="white" stroke="#bfbfbf" points="699.5,-0.5 699.5,-19.5 746.5,-19.5 746.5,-0.5 699.5,-0.5"/>
<text text-anchor="middle" x="723" y="-7.5" font-family="Helvetica,sans-Serif" font-size="10.00">vector</text>
</a>
</g>
</g>
<!-- Node12&#45;&gt;Node17 -->
<g id="edge17" class="edge">
<title>Node12&#45;&gt;Node17</title>
<path fill="none" stroke="midnightblue" d="M723.83,-56.08C723.7,-49.01 723.52,-38.86 723.35,-29.99"/>
<polygon fill="midnightblue" stroke="midnightblue" points="726.85,-29.68 723.16,-19.75 719.85,-29.81 726.85,-29.68"/>
</g>
<!-- Node18 -->
<g id="node18" class="node">
<title>Node18</title>
<g id="a_node18"><a xlink:title=" ">
<polygon fill="white" stroke="#bfbfbf" points="765,-0.5 765,-19.5 825,-19.5 825,-0.5 765,-0.5"/>
<text text-anchor="middle" x="795" y="-7.5" font-family="Helvetica,sans-Serif" font-size="10.00">iostream</text>
</a>
</g>
</g>
<!-- Node12&#45;&gt;Node18 -->
<g id="edge18" class="edge">
<title>Node12&#45;&gt;Node18</title>
<path fill="none" stroke="midnightblue" d="M735.41,-56.32C746.11,-48.18 762.34,-35.84 775.16,-26.09"/>
<polygon fill="midnightblue" stroke="midnightblue" points="777.54,-28.67 783.39,-19.83 773.31,-23.1 777.54,-28.67"/>
</g>
<!-- Node19&#45;&gt;Node12 -->
<g id="edge29" class="edge">
<title>Node19&#45;&gt;Node12</title>
<path fill="none" stroke="midnightblue" d="M1067.39,-117.94C1006.59,-108.92 827.74,-82.39 755.15,-71.62"/>
<polygon fill="midnightblue" stroke="midnightblue" points="755.24,-68.1 744.84,-70.09 754.22,-75.02 755.24,-68.1"/>
</g>
<!-- Node19&#45;&gt;Node16 -->
<g id="edge20" class="edge">
<title>Node19&#45;&gt;Node16</title>
<path fill="none" stroke="midnightblue" d="M1067.11,-120.88C1007.73,-120.07 833.32,-114.33 695,-76 674.3,-70.26 671.24,-63.2 651,-56 594.58,-35.93 576.44,-36.65 515.13,-20.23"/>
<polygon fill="midnightblue" stroke="midnightblue" points="515.9,-16.81 505.33,-17.56 514.06,-23.56 515.9,-16.81"/>
</g>
<!-- Node19&#45;&gt;Node17 -->
<g id="edge25" class="edge">
<title>Node19&#45;&gt;Node17</title>
<path fill="none" stroke="midnightblue" d="M1067.41,-116.36C1034.24,-108.75 967.04,-92.78 911,-76 855.81,-59.48 792.72,-36.89 755.46,-23.15"/>
<polygon fill="midnightblue" stroke="midnightblue" points="756.25,-19.72 745.66,-19.53 753.82,-26.28 756.25,-19.72"/>
</g>
<!-- Node19&#45;&gt;Node18 -->
<g id="edge22" class="edge">
<title>Node19&#45;&gt;Node18</title>
<path fill="none" stroke="midnightblue" d="M1067.4,-113.27C1017.18,-94.41 888.14,-45.97 827.45,-23.18"/>
<polygon fill="midnightblue" stroke="midnightblue" points="828.57,-19.87 817.98,-19.63 826.11,-26.42 828.57,-19.87"/>
</g>
<!-- Node20 -->
<g id="node20" class="node">
<title>Node20</title>
<g id="a_node20"><a xlink:title=" ">
<polygon fill="white" stroke="#bfbfbf" points="1467,-0.5 1467,-19.5 1525,-19.5 1525,-0.5 1467,-0.5"/>
<text text-anchor="middle" x="1496" y="-7.5" font-family="Helvetica,sans-Serif" font-size="10.00">memory</text>
</a>
</g>
</g>
<!-- Node19&#45;&gt;Node20 -->
<g id="edge21" class="edge">
<title>Node19&#45;&gt;Node20</title>
<path fill="none" stroke="midnightblue" d="M1108.76,-117.87C1145.42,-112 1223.74,-97.91 1287,-76 1306.54,-69.23 1309.61,-63.16 1329,-56 1352.35,-47.37 1415.53,-31.04 1457.13,-20.61"/>
<polygon fill="midnightblue" stroke="midnightblue" points="1458.09,-23.97 1466.95,-18.15 1456.4,-17.18 1458.09,-23.97"/>
</g>
<!-- Node21 -->
<g id="node21" class="node">
<title>Node21</title>
<g id="a_node21"><a xlink:title=" ">
<polygon fill="white" stroke="#bfbfbf" points="1427,-56.5 1427,-75.5 1483,-75.5 1483,-56.5 1427,-56.5"/>
<text text-anchor="middle" x="1455" y="-63.5" font-family="Helvetica,sans-Serif" font-size="10.00">sstream</text>
</a>
</g>
</g>
<!-- Node19&#45;&gt;Node21 -->
<g id="edge23" class="edge">
<title>Node19&#45;&gt;Node21</title>
<path fill="none" stroke="midnightblue" d="M1108.59,-118.94C1159.3,-113.71 1294.44,-98.81 1416.87,-76.05"/>
<polygon fill="midnightblue" stroke="midnightblue" points="1417.6,-79.47 1426.78,-74.18 1416.31,-72.59 1417.6,-79.47"/>
</g>
<!-- Node22 -->
<g id="node22" class="node">
<title>Node22</title>
<g id="a_node22"><a xlink:title=" ">
<polygon fill="white" stroke="#bfbfbf" points="1060.5,-56.5 1060.5,-75.5 1115.5,-75.5 1115.5,-56.5 1060.5,-56.5"/>
<text text-anchor="middle" x="1088" y="-63.5" font-family="Helvetica,sans-Serif" font-size="10.00">fstream</text>
</a>
</g>
</g>
<!-- Node19&#45;&gt;Node22 -->
<g id="edge24" class="edge">
<title>Node19&#45;&gt;Node22</title>
<path fill="none" stroke="midnightblue" d="M1088,-112.08C1088,-105.01 1088,-94.86 1088,-85.99"/>
<polygon fill="midnightblue" stroke="midnightblue" points="1091.5,-85.75 1088,-75.75 1084.5,-85.75 1091.5,-85.75"/>
</g>
<!-- Node23 -->
<g id="node23" class="node">
<title>Node23</title>
<g id="a_node23"><a xlink:title=" ">
<polygon fill="white" stroke="#bfbfbf" points="1133.5,-56.5 1133.5,-75.5 1186.5,-75.5 1186.5,-56.5 1133.5,-56.5"/>
<text text-anchor="middle" x="1160" y="-63.5" font-family="Helvetica,sans-Serif" font-size="10.00">cstdarg</text>
</a>
</g>
</g>
<!-- Node19&#45;&gt;Node23 -->
<g id="edge26" class="edge">
<title>Node19&#45;&gt;Node23</title>
<path fill="none" stroke="midnightblue" d="M1099.57,-112.32C1110.42,-104.18 1126.88,-91.84 1139.88,-82.09"/>
<polygon fill="midnightblue" stroke="midnightblue" points="1142.32,-84.63 1148.22,-75.83 1138.12,-79.03 1142.32,-84.63"/>
</g>
<!-- Node24 -->
<g id="node24" class="node">
<title>Node24</title>
<g id="a_node24"><a xlink:title=" ">
<polygon fill="white" stroke="#bfbfbf" points="1417,-0.5 1417,-19.5 1449,-19.5 1449,-0.5 1417,-0.5"/>
<text text-anchor="middle" x="1433" y="-7.5" font-family="Helvetica,sans-Serif" font-size="10.00">list</text>
</a>
</g>
</g>
<!-- Node19&#45;&gt;Node24 -->
<g id="edge27" class="edge">
<title>Node19&#45;&gt;Node24</title>
<path fill="none" stroke="midnightblue" d="M1108.54,-116.53C1139.94,-109.44 1201.55,-94.51 1252,-76 1271.79,-68.74 1275.36,-63.66 1295,-56 1341.32,-37.93 1356.39,-36.98 1407.32,-20.12"/>
<polygon fill="midnightblue" stroke="midnightblue" points="1408.53,-23.4 1416.89,-16.9 1406.3,-16.77 1408.53,-23.4"/>
</g>
<!-- Node25 -->
<g id="node25" class="node">
<title>Node25</title>
<g id="a_node25"><a xlink:title=" ">
<polygon fill="white" stroke="#bfbfbf" points="1205,-56.5 1205,-75.5 1243,-75.5 1243,-56.5 1205,-56.5"/>
<text text-anchor="middle" x="1224" y="-63.5" font-family="Helvetica,sans-Serif" font-size="10.00">map</text>
</a>
</g>
</g>
<!-- Node19&#45;&gt;Node25 -->
<g id="edge28" class="edge">
<title>Node19&#45;&gt;Node25</title>
<path fill="none" stroke="midnightblue" d="M1108.66,-112.8C1131.85,-103.59 1169.63,-88.59 1195.59,-78.28"/>
<polygon fill="midnightblue" stroke="midnightblue" points="1196.91,-81.52 1204.91,-74.58 1194.32,-75.02 1196.91,-81.52"/>
</g>
<!-- Node26 -->
<g id="node26" class="node">
<title>Node26</title>
<g id="a_node26"><a xlink:href="mutex_8h.html" target="_top" xlink:title="信号量，互斥锁，读写锁，范围锁模板，自旋锁，原子锁">
<polygon fill="white" stroke="black" points="985.5,-56.5 985.5,-75.5 1042.5,-75.5 1042.5,-56.5 985.5,-56.5"/>
<text text-anchor="middle" x="1014" y="-63.5" font-family="Helvetica,sans-Serif" font-size="10.00">mutex.h</text>
</a>
</g>
</g>
<!-- Node19&#45;&gt;Node26 -->
<g id="edge30" class="edge">
<title>Node19&#45;&gt;Node26</title>
<path fill="none" stroke="midnightblue" d="M1076.11,-112.32C1064.85,-104.11 1047.71,-91.6 1034.29,-81.81"/>
<polygon fill="midnightblue" stroke="midnightblue" points="1036.25,-78.9 1026.11,-75.83 1032.12,-84.56 1036.25,-78.9"/>
</g>
<!-- Node33 -->
<g id="node33" class="node">
<title>Node33</title>
<g id="a_node33"><a xlink:href="singleton_8h.html" target="_top" xlink:title="单例模式封装">
<polygon fill="white" stroke="black" points="1337.5,-56.5 1337.5,-75.5 1408.5,-75.5 1408.5,-56.5 1337.5,-56.5"/>
<text text-anchor="middle" x="1373" y="-63.5" font-family="Helvetica,sans-Serif" font-size="10.00">singleton.h</text>
</a>
</g>
</g>
<!-- Node19&#45;&gt;Node33 -->
<g id="edge40" class="edge">
<title>Node19&#45;&gt;Node33</title>
<path fill="none" stroke="midnightblue" d="M1108.96,-117.03C1154.74,-108.35 1264.6,-87.54 1327.24,-75.67"/>
<polygon fill="midnightblue" stroke="midnightblue" points="1328.06,-79.08 1337.24,-73.78 1326.76,-72.2 1328.06,-79.08"/>
</g>
<!-- Node26&#45;&gt;Node14 -->
<g id="edge36" class="edge">
<title>Node26&#45;&gt;Node14</title>
<path fill="none" stroke="midnightblue" d="M991.18,-56.44C967.17,-47.44 929.17,-33.19 902.13,-23.05"/>
<polygon fill="midnightblue" stroke="midnightblue" points="903.3,-19.75 892.71,-19.52 900.84,-26.3 903.3,-19.75"/>
</g>
<!-- Node26&#45;&gt;Node20 -->
<g id="edge33" class="edge">
<title>Node26&#45;&gt;Node20</title>
<path fill="none" stroke="midnightblue" d="M1042.55,-57.77C1045.72,-57.11 1048.92,-56.5 1052,-56 1227.59,-27.57 1277.39,-48.18 1456.6,-20"/>
<polygon fill="midnightblue" stroke="midnightblue" points="1457.3,-23.44 1466.63,-18.4 1456.2,-16.52 1457.3,-23.44"/>
</g>
<!-- Node26&#45;&gt;Node24 -->
<g id="edge38" class="edge">
<title>Node26&#45;&gt;Node24</title>
<path fill="none" stroke="midnightblue" d="M1042.55,-57.81C1045.73,-57.14 1048.92,-56.52 1052,-56 1205.61,-30.16 1251.06,-54.17 1406.83,-19.73"/>
<polygon fill="midnightblue" stroke="midnightblue" points="1407.78,-23.11 1416.76,-17.49 1406.24,-16.28 1407.78,-23.11"/>
</g>
<!-- Node27 -->
<g id="node27" class="node">
<title>Node27</title>
<g id="a_node27"><a xlink:title=" ">
<polygon fill="white" stroke="#bfbfbf" points="1351,-0.5 1351,-19.5 1399,-19.5 1399,-0.5 1351,-0.5"/>
<text text-anchor="middle" x="1375" y="-7.5" font-family="Helvetica,sans-Serif" font-size="10.00">thread</text>
</a>
</g>
</g>
<!-- Node26&#45;&gt;Node27 -->
<g id="edge31" class="edge">
<title>Node26&#45;&gt;Node27</title>
<path fill="none" stroke="midnightblue" d="M1042.56,-57.88C1045.74,-57.2 1048.93,-56.55 1052,-56 1176.58,-33.58 1212.76,-44.56 1340.75,-19.98"/>
<polygon fill="midnightblue" stroke="midnightblue" points="1341.8,-23.34 1350.94,-17.99 1340.46,-16.47 1341.8,-23.34"/>
</g>
<!-- Node28 -->
<g id="node28" class="node">
<title>Node28</title>
<g id="a_node28"><a xlink:title=" ">
<polygon fill="white" stroke="#bfbfbf" points="914.5,-0.5 914.5,-19.5 979.5,-19.5 979.5,-0.5 914.5,-0.5"/>
<text text-anchor="middle" x="947" y="-7.5" font-family="Helvetica,sans-Serif" font-size="10.00">functional</text>
</a>
</g>
</g>
<!-- Node26&#45;&gt;Node28 -->
<g id="edge32" class="edge">
<title>Node26&#45;&gt;Node28</title>
<path fill="none" stroke="midnightblue" d="M1003.24,-56.32C993.23,-48.26 978.11,-36.08 966.07,-26.37"/>
<polygon fill="midnightblue" stroke="midnightblue" points="967.94,-23.38 957.96,-19.83 963.55,-28.83 967.94,-23.38"/>
</g>
<!-- Node29 -->
<g id="node29" class="node">
<title>Node29</title>
<g id="a_node29"><a xlink:title=" ">
<polygon fill="white" stroke="#bfbfbf" points="997.5,-0.5 997.5,-19.5 1060.5,-19.5 1060.5,-0.5 997.5,-0.5"/>
<text text-anchor="middle" x="1029" y="-7.5" font-family="Helvetica,sans-Serif" font-size="10.00">pthread.h</text>
</a>
</g>
</g>
<!-- Node26&#45;&gt;Node29 -->
<g id="edge34" class="edge">
<title>Node26&#45;&gt;Node29</title>
<path fill="none" stroke="midnightblue" d="M1016.48,-56.08C1018.49,-48.85 1021.39,-38.41 1023.89,-29.4"/>
<polygon fill="midnightblue" stroke="midnightblue" points="1027.26,-30.32 1026.57,-19.75 1020.52,-28.45 1027.26,-30.32"/>
</g>
<!-- Node30 -->
<g id="node30" class="node">
<title>Node30</title>
<g id="a_node30"><a xlink:title=" ">
<polygon fill="white" stroke="#bfbfbf" points="1079,-0.5 1079,-19.5 1159,-19.5 1159,-0.5 1079,-0.5"/>
<text text-anchor="middle" x="1119" y="-7.5" font-family="Helvetica,sans-Serif" font-size="10.00">semaphore.h</text>
</a>
</g>
</g>
<!-- Node26&#45;&gt;Node30 -->
<g id="edge35" class="edge">
<title>Node26&#45;&gt;Node30</title>
<path fill="none" stroke="midnightblue" d="M1030.87,-56.32C1047.71,-47.66 1073.81,-34.24 1093.24,-24.25"/>
<polygon fill="midnightblue" stroke="midnightblue" points="1094.88,-27.34 1102.17,-19.65 1091.68,-21.12 1094.88,-27.34"/>
</g>
<!-- Node31 -->
<g id="node31" class="node">
<title>Node31</title>
<g id="a_node31"><a xlink:title=" ">
<polygon fill="white" stroke="#bfbfbf" points="1177,-0.5 1177,-19.5 1227,-19.5 1227,-0.5 1177,-0.5"/>
<text text-anchor="middle" x="1202" y="-7.5" font-family="Helvetica,sans-Serif" font-size="10.00">atomic</text>
</a>
</g>
</g>
<!-- Node26&#45;&gt;Node31 -->
<g id="edge37" class="edge">
<title>Node26&#45;&gt;Node31</title>
<path fill="none" stroke="midnightblue" d="M1042.55,-56.8C1075.84,-47.24 1130.85,-31.44 1166.76,-21.12"/>
<polygon fill="midnightblue" stroke="midnightblue" points="1168.15,-24.36 1176.8,-18.24 1166.22,-17.64 1168.15,-24.36"/>
</g>
<!-- Node32 -->
<g id="node32" class="node">
<title>Node32</title>
<g id="a_node32"><a xlink:href="noncopyable_8h.html" target="_top" xlink:title="不可拷贝对象封装">
<polygon fill="white" stroke="black" points="1245,-0.5 1245,-19.5 1333,-19.5 1333,-0.5 1245,-0.5"/>
<text text-anchor="middle" x="1289" y="-7.5" font-family="Helvetica,sans-Serif" font-size="10.00">noncopyable.h</text>
</a>
</g>
</g>
<!-- Node26&#45;&gt;Node32 -->
<g id="edge39" class="edge">
<title>Node26&#45;&gt;Node32</title>
<path fill="none" stroke="midnightblue" d="M1042.6,-58.08C1045.77,-57.36 1048.95,-56.65 1052,-56 1114.52,-42.67 1186.75,-29.24 1234.87,-20.56"/>
<polygon fill="midnightblue" stroke="midnightblue" points="1235.54,-24 1244.76,-18.79 1234.3,-17.11 1235.54,-24"/>
</g>
<!-- Node33&#45;&gt;Node20 -->
<g id="edge41" class="edge">
<title>Node33&#45;&gt;Node20</title>
<path fill="none" stroke="midnightblue" d="M1392.49,-56.44C1412.64,-47.6 1444.32,-33.69 1467.33,-23.59"/>
<polygon fill="midnightblue" stroke="midnightblue" points="1468.85,-26.74 1476.6,-19.52 1466.04,-20.33 1468.85,-26.74"/>
</g>
<!-- Node34&#45;&gt;Node20 -->
<g id="edge44" class="edge">
<title>Node34&#45;&gt;Node20</title>
<path fill="none" stroke="midnightblue" d="M830.54,-173.94C949.63,-158.42 1480.46,-88.59 1492,-76 1503.2,-63.78 1502.88,-44.23 1500.57,-29.76"/>
<polygon fill="midnightblue" stroke="midnightblue" points="1503.98,-29 1498.56,-19.89 1497.12,-30.39 1503.98,-29"/>
</g>
<!-- Node34&#45;&gt;Node28 -->
<g id="edge43" class="edge">
<title>Node34&#45;&gt;Node28</title>
<path fill="none" stroke="midnightblue" d="M829.43,-168.47C846.66,-160.99 870.12,-148.7 886,-132 914.93,-101.56 933.17,-54.74 941.57,-29.19"/>
<polygon fill="midnightblue" stroke="midnightblue" points="944.91,-30.23 944.56,-19.64 938.23,-28.13 944.91,-30.23"/>
</g>
<!-- Node35 -->
<g id="node35" class="node">
<title>Node35</title>
<g id="a_node35"><a xlink:title=" ">
<polygon fill="white" stroke="#bfbfbf" points="733,-112.5 733,-131.5 801,-131.5 801,-112.5 733,-112.5"/>
<text text-anchor="middle" x="767" y="-119.5" font-family="Helvetica,sans-Serif" font-size="10.00">ucontext.h</text>
</a>
</g>
</g>
<!-- Node34&#45;&gt;Node35 -->
<g id="edge45" class="edge">
<title>Node34&#45;&gt;Node35</title>
<path fill="none" stroke="midnightblue" d="M800.39,-168.08C794.74,-160.46 786.46,-149.26 779.55,-139.94"/>
<polygon fill="midnightblue" stroke="midnightblue" points="782.25,-137.7 773.48,-131.75 776.62,-141.87 782.25,-137.7"/>
</g>
<!-- Node36 -->
<g id="node36" class="node">
<title>Node36</title>
<g id="a_node36"><a xlink:href="thread_8h.html" target="_top" xlink:title="线程相关的封装">
<polygon fill="white" stroke="black" points="819.5,-112.5 819.5,-131.5 876.5,-131.5 876.5,-112.5 819.5,-112.5"/>
<text text-anchor="middle" x="848" y="-119.5" font-family="Helvetica,sans-Serif" font-size="10.00">thread.h</text>
</a>
</g>
</g>
<!-- Node34&#45;&gt;Node36 -->
<g id="edge46" class="edge">
<title>Node34&#45;&gt;Node36</title>
<path fill="none" stroke="midnightblue" d="M813.77,-168.08C819.56,-160.46 828.06,-149.26 835.14,-139.94"/>
<polygon fill="midnightblue" stroke="midnightblue" points="838.1,-141.83 841.36,-131.75 832.52,-137.6 838.1,-141.83"/>
</g>
<!-- Node36&#45;&gt;Node16 -->
<g id="edge47" class="edge">
<title>Node36&#45;&gt;Node16</title>
<path fill="none" stroke="midnightblue" d="M819.5,-114.2C768.09,-101.93 664.81,-77.24 661,-76 639.03,-68.83 634.6,-64.23 613,-56 579.75,-43.33 541.18,-30.17 514.74,-21.38"/>
<polygon fill="midnightblue" stroke="midnightblue" points="515.82,-18.05 505.23,-18.23 513.63,-24.7 515.82,-18.05"/>
</g>
<!-- Node36&#45;&gt;Node26 -->
<g id="edge48" class="edge">
<title>Node36&#45;&gt;Node26</title>
<path fill="none" stroke="midnightblue" d="M874.3,-112.44C902.35,-103.32 946.94,-88.81 978.18,-78.65"/>
<polygon fill="midnightblue" stroke="midnightblue" points="979.39,-81.94 987.82,-75.52 977.23,-75.28 979.39,-81.94"/>
</g>
</g>
</svg>
