<?xml version="1.0" encoding="UTF-8" standalone="no"?>
<!DOCTYPE svg PUBLIC "-//W3C//DTD SVG 1.1//EN"
 "http://www.w3.org/Graphics/SVG/1.1/DTD/svg11.dtd">
<!-- Generated by graphviz version 2.43.0 (0)
 -->
<!-- Title: sylar::GetFiberId Pages: 1 -->
<svg width="405pt" height="46pt"
 viewBox="0.00 0.00 405.00 46.00" xmlns="http://www.w3.org/2000/svg" xmlns:xlink="http://www.w3.org/1999/xlink">
<g id="graph0" class="graph" transform="scale(1 1) rotate(0) translate(4 42)">
<title>sylar::GetFiberId</title>
<polygon fill="white" stroke="transparent" points="-4,4 -4,-42 401,-42 401,4 -4,4"/>
<!-- Node1 -->
<g id="node1" class="node">
<title>Node1</title>
<g id="a_node1"><a xlink:title="获取协程id">
<polygon fill="#bfbfbf" stroke="black" points="0,-0.5 0,-19.5 97,-19.5 97,-0.5 0,-0.5"/>
<text text-anchor="middle" x="48.5" y="-7.5" font-family="Helvetica,sans-Serif" font-size="10.00">sylar::GetFiberId</text>
</a>
</g>
</g>
<!-- Node1&#45;&gt;Node1 -->
<g id="edge3" class="edge">
<title>Node1&#45;&gt;Node1</title>
<path fill="none" stroke="midnightblue" d="M25.69,-19.76C14.59,-28.57 22.2,-38 48.5,-38 65.76,-38 74.97,-33.94 76.13,-28.65"/>
<polygon fill="midnightblue" stroke="midnightblue" points="79.15,-26.89 71.31,-19.76 72.99,-30.22 79.15,-26.89"/>
</g>
<!-- Node2 -->
<g id="node2" class="node">
<title>Node2</title>
<g id="a_node2"><a xlink:href="classsylar_1_1Fiber.html#a6231bf3c60b4adea841575670cdf2fc3" target="_top" xlink:title="获取当前协程id">
<polygon fill="white" stroke="black" points="133,-0.5 133,-19.5 260,-19.5 260,-0.5 133,-0.5"/>
<text text-anchor="middle" x="196.5" y="-7.5" font-family="Helvetica,sans-Serif" font-size="10.00">sylar::Fiber::GetFiberId</text>
</a>
</g>
</g>
<!-- Node1&#45;&gt;Node2 -->
<g id="edge1" class="edge">
<title>Node1&#45;&gt;Node2</title>
<path fill="none" stroke="midnightblue" d="M97.31,-10C105.49,-10 114.17,-10 122.83,-10"/>
<polygon fill="midnightblue" stroke="midnightblue" points="122.97,-13.5 132.97,-10 122.97,-6.5 122.97,-13.5"/>
</g>
<!-- Node3 -->
<g id="node3" class="node">
<title>Node3</title>
<g id="a_node3"><a xlink:href="classsylar_1_1Fiber.html#a357f571db2dc90eb942e4e7fef62d251" target="_top" xlink:title="获取协程ID">
<polygon fill="white" stroke="black" points="296,-0.5 296,-19.5 397,-19.5 397,-0.5 296,-0.5"/>
<text text-anchor="middle" x="346.5" y="-7.5" font-family="Helvetica,sans-Serif" font-size="10.00">sylar::Fiber::getId</text>
</a>
</g>
</g>
<!-- Node2&#45;&gt;Node3 -->
<g id="edge2" class="edge">
<title>Node2&#45;&gt;Node3</title>
<path fill="none" stroke="midnightblue" d="M260.27,-10C268.67,-10 277.27,-10 285.62,-10"/>
<polygon fill="midnightblue" stroke="midnightblue" points="285.65,-13.5 295.65,-10 285.65,-6.5 285.65,-13.5"/>
</g>
</g>
</svg>
